<?xml version="1.0" standalone="no"?>
<!DOCTYPE svg PUBLIC "-//W3C//DTD SVG 20010904//EN"
 "http://www.w3.org/TR/2001/REC-SVG-20010904/DTD/svg10.dtd">
<svg version="1.0" xmlns="http://www.w3.org/2000/svg"
 width="512.000000pt" height="512.000000pt" viewBox="0 0 512.000000 512.000000"
 preserveAspectRatio="xMidYMid meet">

<g transform="translate(0.000000,512.000000) scale(0.100000,-0.100000)"
fill="#000000" stroke="none">
<path d="M203 4914 l-26 -26 6 -166 c6 -201 25 -283 94 -414 103 -195 289
-341 513 -404 59 -16 125 -18 718 -22 l652 -3 0 -225 0 -224 -542 0 c-607 0
-627 -2 -749 -66 -128 -68 -231 -182 -279 -311 -13 -35 -95 -502 -216 -1232
-193 -1169 -194 -1176 -176 -1201 19 -24 23 -25 156 -28 l136 -3 0 -180 c0
-178 0 -180 25 -204 l24 -25 2021 0 2021 0 24 25 c25 24 25 26 25 204 l0 180
136 3 c133 3 137 4 156 28 18 25 18 32 -176 1201 -122 731 -203 1197 -216
1232 -49 130 -157 250 -283 313 -122 62 -142 64 -744 64 l-543 0 0 224 0 225
653 3 c723 5 699 3 854 73 175 80 302 204 392 384 54 106 72 195 78 383 l6
166 -26 26 -26 26 -2331 0 -2331 0 -26 -26z m4594 -231 c-10 -207 -70 -346
-208 -478 -83 -79 -177 -132 -289 -162 -61 -17 -172 -18 -1740 -18 -1874 0
-1721 -6 -1880 72 -105 51 -233 179 -284 283 -51 104 -66 167 -73 303 l-6 117
2243 0 2243 0 -6 -117z m-1977 -1028 l0 -225 -260 0 -260 0 0 225 0 225 260 0
260 0 0 -225z m1273 -380 c83 -21 133 -50 198 -112 113 -107 96 -39 305 -1294
101 -612 184 -1118 184 -1125 0 -12 -342 -14 -2220 -14 -1878 0 -2220 2 -2220
14 0 7 83 513 184 1124 208 1256 192 1188 305 1295 63 61 115 90 194 112 81
21 2986 22 3070 0z m397 -2820 l0 -135 -1930 0 -1930 0 0 135 0 135 1930 0
1930 0 0 -135z"/>
<path d="M832 4624 c-16 -11 -22 -25 -22 -54 0 -71 -7 -70 432 -70 375 0 389
1 408 20 27 27 26 74 -2 100 -21 19 -33 20 -408 20 -333 0 -389 -2 -408 -16z"/>
<path d="M1855 4615 c-14 -13 -25 -33 -25 -45 0 -11 11 -32 25 -45 23 -24 29
-25 153 -25 150 0 175 10 175 70 0 60 -25 70 -175 70 -124 0 -130 -1 -153 -25z"/>
<path d="M2435 3030 c-292 -37 -565 -207 -730 -454 -226 -341 -228 -779 -5
-1124 309 -477 946 -612 1423 -300 222 146 372 364 439 636 30 123 30 322 0
445 -97 397 -385 686 -774 776 -100 24 -257 33 -353 21z m55 -210 c0 -81 19
-110 70 -110 51 0 70 29 70 110 0 70 0 70 28 70 57 0 201 -42 289 -85 167 -82
304 -212 391 -375 50 -93 88 -206 98 -287 l7 -63 -70 0 c-81 0 -113 -20 -113
-70 0 -51 30 -70 110 -70 l70 0 0 -33 c0 -57 -38 -188 -81 -276 -91 -192 -228
-329 -420 -421 -88 -42 -219 -80 -276 -80 l-33 0 0 68 c0 80 -20 112 -70 112
-51 0 -70 -30 -70 -110 l0 -70 -33 0 c-57 0 -188 38 -276 80 -192 92 -329 229
-420 421 -43 88 -81 219 -81 276 l0 33 70 0 c80 0 110 19 110 70 0 50 -32 70
-112 70 l-68 0 0 33 c0 61 39 190 85 284 89 181 230 321 408 408 91 44 222 83
285 84 l32 1 0 -70z"/>
<path d="M2805 2350 c-145 -145 -153 -150 -179 -140 -96 36 -218 -21 -260
-122 -56 -134 48 -288 194 -288 140 0 248 150 200 276 -10 26 -5 34 140 179
82 83 150 157 150 163 0 38 -44 82 -82 82 -6 0 -80 -68 -163 -150z m-195 -290
c11 -11 20 -33 20 -50 0 -17 -9 -39 -20 -50 -11 -11 -33 -20 -50 -20 -17 0
-39 9 -50 20 -11 11 -20 33 -20 50 0 17 9 39 20 50 11 11 33 20 50 20 17 0 39
-9 50 -20z"/>
</g>
</svg>
