<?xml version="1.0" standalone="no"?>
<!DOCTYPE svg PUBLIC "-//W3C//DTD SVG 20010904//EN"
 "http://www.w3.org/TR/2001/REC-SVG-20010904/DTD/svg10.dtd">
<svg version="1.0" xmlns="http://www.w3.org/2000/svg"
 width="512.000000pt" height="512.000000pt" viewBox="0 0 512.000000 512.000000"
 preserveAspectRatio="xMidYMid meet">

<g transform="translate(0.000000,512.000000) scale(0.100000,-0.100000)"
fill="#000000" stroke="none">
<path d="M767 5106 c-59 -22 -97 -57 -127 -121 -19 -38 -20 -72 -20 -897 l0
-858 -130 0 c-175 0 -229 -24 -283 -125 -20 -37 -22 -58 -25 -244 -4 -219 1
-250 44 -270 35 -15 48 -14 77 9 l26 21 3 210 c3 208 3 211 27 230 22 18 48
19 645 19 472 -1 625 -4 637 -13 9 -7 67 -109 129 -227 62 -118 119 -223 128
-232 14 -17 100 -18 1408 -20 1391 -3 1393 -3 1421 -24 15 -11 36 -36 45 -55
17 -32 18 -107 18 -1142 0 -1220 3 -1157 -62 -1197 -30 -18 -50 -20 -221 -20
-104 0 -196 -4 -206 -10 -10 -5 -24 -22 -30 -39 -10 -24 -10 -34 3 -59 8 -16
23 -32 31 -36 9 -3 101 -6 204 -6 216 0 264 10 329 66 24 20 55 59 70 88 l27
51 0 1160 0 1160 -21 46 c-28 59 -85 116 -143 142 -37 16 -74 21 -188 25
l-143 5 0 570 0 571 -225 226 -225 226 0 304 c0 273 -2 309 -19 345 -23 51
-89 111 -138 124 -26 8 -509 11 -1533 11 -1235 -1 -1502 -3 -1533 -14z m3048
-161 l25 -24 0 -218 0 -217 -148 147 -149 147 -1089 0 c-1223 0 -1147 5 -1227
-73 -87 -86 -82 -33 -85 -799 l-2 -678 -185 0 -185 0 0 849 0 850 26 20 27 21
1484 0 1484 0 24 -25z m-383 -637 l3 -323 27 -51 c31 -58 84 -108 142 -135 37
-17 72 -19 364 -19 l322 0 0 -520 0 -520 -1150 0 -1150 0 -35 70 -35 70 991 2
991 3 24 28 c29 34 30 56 3 91 l-20 26 -1035 0 -1034 0 -21 43 c-36 72 -70
108 -123 133 -48 22 -63 24 -228 24 l-178 0 0 656 c0 719 -2 689 59 727 24 15
121 16 1053 17 l1027 0 3 -322z m458 -83 l295 -295 -255 0 c-366 0 -350 -16
-350 350 0 132 3 240 8 240 4 0 140 -133 302 -295z"/>
<path d="M1665 3505 c-14 -13 -25 -36 -25 -50 0 -14 11 -37 25 -50 l24 -25
1104 0 c1065 0 1106 1 1128 19 32 26 32 86 0 112 -22 18 -63 19 -1128 19
l-1104 0 -24 -25z"/>
<path d="M209 2361 l-24 -19 0 -1069 0 -1068 27 -51 c15 -29 46 -68 70 -88 82
-71 -51 -66 1933 -66 l1792 0 27 21 c36 28 36 80 0 108 l-27 21 -1791 0
c-1779 0 -1791 0 -1824 20 -65 40 -62 -16 -62 1128 l0 1039 -23 21 c-29 27
-67 28 -98 3z"/>
</g>
</svg>
