<?xml version="1.0" standalone="no"?>
<!DOCTYPE svg PUBLIC "-//W3C//DTD SVG 20010904//EN"
 "http://www.w3.org/TR/2001/REC-SVG-20010904/DTD/svg10.dtd">
<svg version="1.0" xmlns="http://www.w3.org/2000/svg"
 width="512.000000pt" height="512.000000pt" viewBox="0 0 512.000000 512.000000"
 preserveAspectRatio="xMidYMid meet">

<g transform="translate(0.000000,512.000000) scale(0.100000,-0.100000)"
fill="#000000" stroke="none">
<path d="M1010 4529 c-127 -11 -390 -54 -458 -74 -56 -17 -117 -76 -128 -122
-3 -16 -7 -33 -9 -39 -2 -7 -34 -17 -72 -23 -164 -28 -244 -52 -280 -84 -20
-18 -42 -46 -49 -64 -12 -27 -14 -304 -14 -1590 0 -1498 1 -1560 19 -1599 24
-53 71 -86 130 -92 26 -2 101 7 176 21 265 52 379 62 690 62 230 0 314 -4 405
-18 330 -52 471 -101 835 -291 l60 -31 245 0 245 0 60 31 c33 17 113 58 178
91 185 95 391 158 657 200 91 14 175 18 405 18 311 0 425 -10 690 -62 75 -14
150 -23 176 -21 59 6 106 39 130 92 18 39 19 101 19 1599 0 1286 -2 1563 -14
1590 -7 18 -29 46 -49 64 -36 32 -116 56 -280 84 -38 6 -70 16 -72 23 -2 6 -6
23 -9 39 -4 15 -23 45 -42 67 -44 48 -80 60 -284 94 -559 94 -1087 38 -1470
-154 -92 -46 -244 -146 -299 -195 l-41 -37 -44 39 c-204 180 -528 316 -876
368 -127 19 -484 27 -630 14z m501 -150 c374 -38 699 -164 917 -355 l52 -46 0
-1433 0 -1434 -79 55 c-106 72 -272 154 -403 198 -380 127 -875 141 -1377 40
-65 -13 -61 -72 -61 1028 0 985 0 998 -20 1018 -25 25 -71 26 -101 1 l-24 -19
0 -1024 c0 -1135 -5 -1053 65 -1112 57 -47 95 -52 233 -28 281 50 482 65 696
51 392 -24 670 -115 963 -315 148 -101 230 -97 400 16 312 208 643 301 1073
302 191 0 321 -11 500 -43 184 -33 204 -34 255 -7 26 13 58 41 75 66 l30 44 0
390 0 390 -24 19 c-31 25 -69 24 -98 -3 l-23 -21 0 -362 c0 -282 -3 -365 -13
-379 -13 -17 -20 -17 -163 7 -204 35 -338 47 -535 47 -198 0 -330 -12 -497
-46 -233 -46 -459 -139 -632 -258 l-80 -55 0 1434 0 1433 48 42 c193 172 472
291 807 347 149 24 545 24 721 0 193 -27 317 -54 331 -74 10 -13 13 -216 13
-934 l0 -918 26 -20 c43 -34 86 -26 109 20 13 24 15 149 15 859 l0 830 43 -6
c23 -4 80 -16 127 -28 l85 -21 0 -1540 0 -1540 -35 1 c-19 1 -100 13 -180 27
-257 45 -339 52 -650 52 -316 0 -409 -9 -635 -60 -188 -42 -330 -94 -525 -192
l-185 -93 -195 0 -195 0 -185 93 c-195 98 -337 150 -525 192 -226 51 -319 60
-635 60 -311 0 -393 -7 -650 -52 -80 -14 -161 -26 -180 -27 l-35 -1 0 1540 0
1540 85 21 c47 12 104 24 128 28 l42 6 0 -194 c0 -208 5 -236 47 -255 34 -16
47 -14 77 10 l26 20 0 283 c0 210 3 287 13 299 18 26 296 77 492 90 118 8 351
6 446 -4z"/>
<path d="M1056 3970 c-147 -11 -276 -29 -298 -41 -38 -20 -37 -92 2 -121 25
-18 30 -18 155 -2 156 19 476 22 620 5 231 -28 441 -90 621 -181 64 -33 125
-60 136 -60 28 0 68 45 68 76 0 37 -41 71 -155 127 -185 91 -358 144 -585 177
-151 22 -415 32 -564 20z"/>
<path d="M3670 3970 c-295 -24 -530 -85 -754 -197 -120 -60 -156 -90 -156
-128 0 -30 41 -75 68 -75 11 0 72 27 136 60 180 91 390 153 621 181 142 17
454 14 615 -5 130 -16 136 -16 160 2 39 30 40 101 1 122 -56 29 -500 55 -691
40z"/>
<path d="M1100 3349 c-199 -9 -324 -27 -349 -51 -29 -26 -28 -81 1 -108 26
-24 13 -24 184 -4 179 21 561 15 704 -11 217 -39 414 -105 553 -186 82 -46
117 -50 146 -13 48 61 20 99 -127 173 -308 154 -672 220 -1112 200z"/>
<path d="M3725 3349 c-309 -14 -588 -83 -820 -202 -112 -57 -145 -85 -145
-120 0 -34 36 -77 65 -77 14 0 77 27 142 60 183 93 386 151 623 180 122 15
465 12 605 -5 153 -19 147 -19 173 5 29 27 30 82 1 108 -23 22 -138 40 -304
48 -55 2 -122 6 -150 7 -27 2 -113 0 -190 -4z"/>
<path d="M1005 2724 c-16 -2 -74 -9 -128 -15 -116 -13 -147 -31 -147 -85 0
-21 8 -42 21 -55 23 -23 6 -23 234 1 120 13 412 13 533 -1 232 -25 462 -91
641 -184 57 -30 116 -55 131 -55 57 0 91 79 51 119 -53 53 -295 161 -461 206
-197 53 -316 67 -590 70 -140 2 -268 1 -285 -1z"/>
<path d="M3620 2724 c-300 -36 -484 -87 -696 -190 -129 -63 -164 -91 -164
-132 0 -35 37 -72 71 -72 14 0 73 25 130 55 179 93 409 159 641 184 121 14
413 14 533 1 228 -24 211 -24 234 -1 28 28 28 82 0 107 -34 30 -163 44 -449
48 -146 2 -281 2 -300 0z"/>
<path d="M920 2094 c-156 -17 -183 -29 -188 -87 -2 -26 3 -42 19 -58 19 -19
28 -21 88 -15 36 3 120 11 186 17 146 14 452 6 587 -15 210 -33 408 -97 565
-182 46 -24 96 -44 113 -44 55 0 90 68 56 112 -29 39 -222 132 -386 187 -274
91 -672 123 -1040 85z"/>
<path d="M3570 2095 c-153 -19 -222 -32 -343 -66 -178 -50 -417 -159 -454
-207 -33 -44 2 -112 57 -112 17 0 67 20 113 44 157 85 355 149 565 182 135 21
441 29 587 15 66 -6 150 -14 186 -17 60 -6 69 -4 88 15 30 30 26 87 -9 112
-58 42 -553 63 -790 34z"/>
</g>
</svg>
