<?xml version="1.0" standalone="no"?>
<!DOCTYPE svg PUBLIC "-//W3C//DTD SVG 20010904//EN"
 "http://www.w3.org/TR/2001/REC-SVG-20010904/DTD/svg10.dtd">
<svg version="1.0" xmlns="http://www.w3.org/2000/svg"
 width="512.000000pt" height="512.000000pt" viewBox="0 0 512.000000 512.000000"
 preserveAspectRatio="xMidYMid meet">

<g transform="translate(0.000000,512.000000) scale(0.100000,-0.100000)"
fill="#000000" stroke="none">
<path d="M1323 5105 c-111 -30 -201 -95 -259 -186 -58 -92 -58 -95 -64 -488
l-5 -365 -85 -44 c-379 -196 -670 -540 -798 -942 -108 -339 -105 -670 8 -1011
131 -396 403 -713 786 -920 l94 -51 0 -368 c0 -328 2 -375 18 -427 46 -146
155 -248 309 -288 86 -23 3350 -23 3436 0 154 40 263 142 309 288 17 56 18
147 18 1901 l0 1841 -538 538 -537 537 -1320 -1 c-1103 0 -1329 -3 -1372 -14z
m2579 -577 c3 -411 4 -424 25 -463 28 -52 68 -89 123 -114 43 -20 64 -21 458
-21 l412 0 0 -1773 c0 -1968 5 -1828 -66 -1901 -19 -20 -54 -46 -77 -59 l-42
-22 -1690 0 -1690 0 -41 22 c-50 27 -97 75 -121 122 -16 32 -18 73 -21 378
l-3 341 48 -14 c192 -59 503 -73 718 -35 146 27 298 76 425 139 l95 47 410
-406 c373 -370 416 -409 480 -440 66 -32 75 -34 180 -34 139 0 198 21 286 102
107 100 144 190 137 339 -3 78 -9 101 -37 160 -31 62 -72 108 -440 479 l-406
410 47 95 c246 496 208 1118 -94 1582 -260 398 -668 658 -1143 728 -179 27
-444 10 -632 -39 l-73 -19 0 303 c0 204 4 313 12 336 27 79 84 136 165 165 31
11 266 13 1295 14 l1257 0 3 -422z m533 -68 l360 -360 -338 0 -338 0 -24 25
-25 24 0 336 c0 184 1 335 3 335 1 0 164 -162 362 -360z m-2490 -455 c440 -90
824 -389 1014 -790 268 -564 155 -1221 -284 -1657 -214 -212 -486 -353 -780
-403 -126 -22 -355 -22 -480 0 -550 95 -997 493 -1151 1025 -74 255 -74 555 0
811 169 582 688 999 1291 1038 123 7 284 -2 390 -24z m1402 -2747 c308 -310
376 -382 397 -428 78 -168 -42 -354 -229 -354 -113 0 -122 7 -532 417 -205
204 -373 374 -373 377 0 3 23 23 51 45 66 50 214 198 264 264 22 28 42 51 45
51 3 0 173 -168 377 -372z"/>
<path d="M1564 4600 c-55 -22 -69 -90 -29 -134 l24 -26 974 0 974 0 20 23 c29
31 34 52 21 87 -21 63 26 60 -1015 59 -521 0 -958 -4 -969 -9z"/>
<path d="M2754 4086 c-20 -9 -35 -25 -42 -45 -13 -36 -8 -56 21 -88 l20 -23
376 0 c293 1 380 4 393 14 50 37 39 118 -18 142 -48 20 -704 20 -750 0z"/>
<path d="M3160 3560 c-45 -45 -33 -112 25 -136 31 -12 131 -14 691 -12 l656 3
24 28 c31 37 31 81 -1 112 l-24 25 -676 0 c-659 0 -675 0 -695 -20z"/>
<path d="M3415 3045 c-46 -45 -24 -125 38 -140 12 -3 260 -4 550 -3 l529 3 24
28 c32 37 31 77 -2 111 l-27 26 -544 0 -544 0 -24 -25z"/>
<path d="M3435 2548 c-53 -28 -62 -93 -19 -133 l27 -25 534 0 c548 0 561 1
590 39 27 34 8 101 -34 120 -33 15 -1070 15 -1098 -1z"/>
<path d="M3350 2037 c-53 -27 -62 -96 -18 -137 21 -20 33 -20 610 -20 l589 0
24 26 c32 34 32 75 1 111 l-24 28 -579 2 c-453 2 -583 0 -603 -10z"/>
<path d="M3694 1526 c-55 -25 -64 -106 -16 -142 13 -11 108 -13 435 -14 l418
0 24 25 c32 31 32 75 1 112 l-24 28 -404 2 c-325 2 -409 0 -434 -11z"/>
<path d="M4619 1007 c-35 -27 -39 -54 -39 -246 0 -186 0 -190 -24 -218 l-24
-28 -205 -3 -205 -3 -26 -26 c-33 -33 -33 -73 -2 -110 l24 -28 219 0 c201 0
222 2 263 21 58 27 97 67 126 129 23 48 24 60 24 263 0 213 0 213 -25 237 -27
27 -79 33 -106 12z"/>
<path d="M1435 3844 c-182 -33 -387 -119 -530 -224 -271 -197 -441 -470 -510
-820 -26 -129 -17 -391 18 -522 53 -200 134 -360 259 -512 243 -293 597 -458
978 -457 359 1 652 121 901 370 201 201 319 426 364 700 23 135 16 368 -14
487 -61 244 -165 435 -328 605 -193 201 -439 329 -727 379 -84 14 -316 11
-411 -6z m500 -189 c361 -95 651 -365 767 -715 46 -135 53 -186 52 -365 0
-153 -3 -180 -28 -270 -116 -423 -444 -727 -876 -811 -98 -18 -294 -18 -395 1
-346 66 -639 288 -794 602 -179 362 -140 811 100 1140 65 90 208 223 304 282
100 63 218 113 331 140 116 29 126 30 289 26 123 -3 168 -8 250 -30z"/>
<path d="M1304 3146 c-20 -9 -35 -26 -42 -45 -13 -36 -8 -56 21 -88 20 -23 21
-23 354 -23 l334 0 24 25 c32 31 32 75 1 112 l-24 28 -319 2 c-252 2 -324 0
-349 -11z"/>
<path d="M972 2639 c-23 -7 -38 -20 -49 -44 -16 -33 -16 -37 0 -70 12 -26 25
-36 56 -45 27 -7 248 -10 686 -8 l647 3 24 28 c31 36 31 78 0 114 l-24 28
-654 2 c-394 1 -666 -2 -686 -8z"/>
<path d="M1283 2108 c-30 -34 -34 -55 -19 -93 23 -53 49 -57 399 -53 l309 3
24 28 c31 37 31 81 -1 112 l-24 25 -334 0 c-333 0 -334 0 -354 -22z"/>
</g>
</svg>
