<?xml version="1.0" encoding="UTF-8"?><svg id="Capa_1" xmlns="http://www.w3.org/2000/svg" viewBox="0 0 467 568.37"><defs><style>.cls-1{fill:#010101;}.cls-2{fill:#006c9c;}.cls-3{fill:#0096d6;}.cls-4{fill:#fff;}</style></defs><path class="cls-3" d="M4.92,80.71H461.59V4.92H4.92V80.71Zm462.08,4.92H0V0H466.51V85.63h.5Z"/><polygon class="cls-3" points="16.73 17.72 38.88 17.72 38.88 24.61 32.48 24.61 32.48 67.91 23.62 67.91 23.62 24.61 16.73 24.61 16.73 17.72"/><path class="cls-3" d="M49.21,52.16h6.89l-3.44-20.18-3.45,20.18Zm-10.33,15.75l9.35-50.19h9.35l9.84,50.19h-8.86l-1.48-9.35h-8.86l-1.48,9.35h-7.87Z"/><path class="cls-3" d="M80.21,24.61v15.75h2.95c2.95,0,3.94-1.48,3.94-3.94v-7.38c0-2.95-1.48-3.94-3.94-3.94h-2.95v-.49Zm0,20.18v23.13h-8.37V17.72h12.3c8.37,0,11.81,4.43,11.81,11.32v6.4c0,5.41-1.97,8.37-6.89,9.84l7.87,22.64h-8.86l-7.87-23.13Z"/><path class="cls-3" d="M113.68,41.34h11.81v26.57h-5.91v-5.41c-.98,3.93-3.44,5.91-7.87,5.91-7.38,0-10.33-5.91-10.33-13.29V31.01c0-7.87,3.94-13.29,12.79-13.29,9.35,0,11.81,5.41,11.81,12.79v4.43h-7.87v-4.92c0-2.96-.98-4.92-4.43-4.92-2.95,0-4.43,1.97-4.43,4.92v27.07c0,2.95,1.48,4.92,3.94,4.92,2.95,0,3.94-1.48,3.94-4.92v-9.35h-3.94v-6.4h.49Z"/><polygon class="cls-3" points="132.38 17.72 152.55 17.72 152.55 24.61 140.74 24.61 140.74 38.88 149.11 38.88 149.11 45.77 140.74 45.77 140.74 61.02 152.55 61.02 152.55 67.91 132.38 67.91 132.38 17.72"/><polygon class="cls-3" points="156.49 17.72 178.63 17.72 178.63 24.61 171.74 24.61 171.74 67.91 163.38 67.91 163.38 24.61 156.49 24.61 156.49 17.72"/><polygon class="cls-3" points="374.49 17.72 374.49 67.91 366.12 67.91 366.12 29.53 360.22 35.43 360.22 27.07 367.6 17.72 374.49 17.72"/><path class="cls-3" d="M387.28,53.15h7.38v-20.67l-7.38,20.67Zm-7.38,1.48l14.76-36.91h8.37V53.15h3.45v6.4h-3.45v8.37h-7.88v-8.37h-14.76v-4.92h-.49Z"/><path class="cls-3" d="M419.76,36.91c3.44,0,5.91,2.95,5.91,5.91,0,3.45-2.95,5.91-5.91,5.91-3.44,0-5.9-2.96-5.9-5.91s2.46-5.91,5.9-5.91"/><polygon class="cls-3" points="446.82 17.72 446.82 67.91 438.46 67.91 438.46 29.53 432.56 35.43 432.56 27.07 440.43 18.21 446.82 18.21 446.82 17.72"/><g><rect class="cls-3" x="0" y="101.87" width="466.51" height="466.51"/><polygon class="cls-2" points="410.9 304.12 343.98 320.85 367.11 352.34 423.7 354.8 410.9 304.12"/><polygon class="cls-2" points="38.88 369.07 31.5 411.89 62.5 427.14 97.44 409.92 38.88 369.07"/><path class="cls-1" d="M178.14,321.34c2.46,.98,3.44,3.44,2.46,5.91-.98,2.46-3.44,3.44-5.91,2.46-2.46-.98-3.44-3.44-2.46-5.91,.98-2.46,3.44-3.44,5.91-2.46"/><path class="cls-1" d="M197.83,291.32c2.46,.98,3.44,3.44,2.46,5.41-.98,2.46-3.44,3.44-5.91,2.46-2.46-.98-3.44-3.44-2.46-5.91,1.48-1.48,3.94-2.95,5.91-1.97"/><path class="cls-1" d="M291.81,308.55c1.97-1.48,4.92-.98,5.91,.98,1.48,1.97,.99,4.92-.98,5.91-1.97,1.48-4.92,.98-5.9-.98-1.48-1.97-.98-4.43,.98-5.91"/><path class="cls-1" d="M252.45,268.69c1.97-1.48,4.92-.98,6.4,.98,1.48,1.97,.98,4.92-.98,6.4-1.97,1.48-4.92,.98-6.4-.98-1.48-2.46-.98-5.41,.98-6.4"/><path class="cls-1" d="M123.03,299.2c2.46,.98,3.44,3.44,2.46,5.91-.98,1.97-2.95,2.95-5.41,2.46-2.46-.98-3.45-3.44-2.96-5.41,.98-2.46,3.44-3.44,5.91-2.95"/><path class="cls-1" d="M136.81,266.23c2.46,.98,3.44,3.44,2.46,5.91-.98,2.46-3.44,3.44-5.91,2.46-1.48-.49-2.95-2.95-1.97-5.41,.98-2.46,3.44-3.44,5.41-2.95"/><path class="cls-1" d="M72.83,315.93c2.46,.98,3.44,3.44,2.46,5.91-.98,2.46-3.44,3.44-5.91,2.46-1.97-.98-2.95-3.44-2.46-5.91,.98-1.97,3.44-3.44,5.91-2.46"/><path class="cls-1" d="M75.79,350.37c2.46,.98,3.44,3.44,2.46,5.91-.98,2.46-3.44,3.45-5.91,2.46-2.46-.98-3.45-3.44-2.46-5.91,.98-2.46,3.93-3.44,5.91-2.46"/><path class="cls-1" d="M50.69,329.22c2.46,.98,3.44,3.44,2.46,5.91-.98,2.46-3.44,3.44-5.91,2.46-2.46-.98-3.44-3.44-2.46-5.91,.98-1.97,3.44-2.95,5.91-2.46"/><path class="cls-1" d="M50.69,268.19c2.46,.98,3.44,3.44,2.46,5.91-.98,2.46-3.44,3.45-5.91,2.46-2.46-.98-3.44-3.44-2.46-5.41,.98-2.46,3.44-3.94,5.91-2.95"/><path class="cls-1" d="M64.47,286.4c2.46,.98,3.44,3.44,2.46,5.91s-3.44,3.44-5.91,2.46c-2.46-.98-3.44-3.44-2.46-5.41,.98-2.95,3.44-3.94,5.91-2.95"/><path class="cls-1" d="M105.8,274.1c2.46,.98,3.44,3.44,2.46,5.91-.98,2.46-3.44,3.44-5.91,2.46-2.46-.98-3.44-3.44-2.46-5.91,.98-1.97,3.44-3.44,5.91-2.46"/><path class="cls-1" d="M325.77,486.69c2.46,.98,3.44,3.44,2.46,5.91-.98,2.46-3.44,3.44-5.91,2.46-2.46-.98-3.45-3.44-2.46-5.91,.98-2.46,3.93-3.44,5.91-2.46"/><path class="cls-1" d="M199.3,476.35c2.46,.98,3.44,3.44,2.46,5.91-.49,2.46-2.95,3.45-5.41,2.96-2.46-.5-3.45-2.96-2.96-5.42v-.49c1.48-2.96,3.94-3.94,5.91-2.96"/><path class="cls-1" d="M213.08,301.66c2.46,.98,3.44,3.44,2.46,5.91-.98,2.46-3.44,3.44-5.91,2.46-2.46-.98-3.44-3.44-2.46-5.41,.98-2.46,3.44-3.44,5.91-2.95"/><path class="cls-1" d="M209.63,322.82c1.97,.98,3.44,3.44,2.46,5.41-.98,2.46-3.44,3.44-5.41,2.46-2.46-.98-3.44-3.44-2.46-5.91,.49-1.97,2.95-2.95,5.41-1.97"/><path class="cls-1" d="M382.85,426.65c2.46,.98,3.44,3.44,2.46,5.91-.98,2.46-3.44,3.45-5.9,2.46-1.97-.98-2.96-3.44-1.97-5.91,.49-1.97,3.44-3.44,5.41-2.46"/><path class="cls-1" d="M402.05,390.73c2.46,.98,3.44,3.44,2.46,5.91-.98,2.46-3.44,3.44-5.41,2.46-2.46-.98-3.45-3.44-2.46-5.91,.49-1.97,2.95-3.44,5.41-2.46"/><path class="cls-1" d="M342.01,455.69c2.46,.98,3.44,3.44,2.46,5.9-.98,2.46-3.44,3.44-5.41,2.46-2.46-.98-3.45-3.44-2.46-5.9,.98-2.46,3.44-2.96,5.41-2.46"/><path class="cls-1" d="M418.78,522.12c2.46,.98,3.44,3.44,2.46,5.9-.98,2.46-3.44,3.44-5.91,2.46-2.46-.98-3.45-3.44-2.46-5.9,.98-1.97,3.44-3.44,5.91-2.46"/><path class="cls-1" d="M326.26,281.97c2.46,.98,3.44,3.44,2.46,5.91-.98,2.46-3.44,3.44-5.9,2.46-2.46-.98-3.44-3.44-2.46-5.41,.98-2.95,3.94-3.94,5.9-2.95"/><path class="cls-1" d="M353.82,485.21c2.46,.98,3.44,3.44,2.46,5.9-.98,2.46-3.44,3.44-5.91,2.46-2.46-.98-3.45-3.44-2.46-5.41,.98-2.95,3.44-3.93,5.91-2.95"/><path class="cls-1" d="M260.32,481.27c2.46,.98,3.44,3.44,2.46,5.91-.98,2.46-3.44,3.45-5.91,2.46-2.46-.98-3.45-3.44-2.46-5.41,.98-2.96,3.93-3.94,5.91-2.96"/><path class="cls-1" d="M327.25,522.12c2.46,.98,3.44,3.44,2.46,5.9-.98,2.46-3.44,3.44-5.91,2.46-2.46-.98-3.44-3.44-2.46-5.41,1.48-2.46,3.94-3.93,5.91-2.95"/><path class="cls-1" d="M409.92,468.48c2.46,.98,3.44,3.44,2.46,5.91-.98,2.46-3.44,3.45-5.9,2.46-2.46-.98-3.44-3.44-2.46-5.91,.98-1.97,3.44-2.95,5.9-2.46"/><path class="cls-1" d="M421.73,418.78c2.46,.98,3.44,3.44,2.46,5.9-.98,2.46-3.44,3.44-5.91,2.46-2.46-.98-3.45-3.44-2.46-5.41,.98-2.46,3.44-3.93,5.91-2.95"/><path class="cls-1" d="M382.85,455.69c2.46,.98,3.44,3.44,2.46,5.9-.98,2.46-3.44,3.44-5.9,2.46-2.46-.98-3.44-3.44-2.46-5.9,.98-1.97,3.44-3.44,5.9-2.46"/><path class="cls-1" d="M234.24,515.23c2.46,.98,3.44,3.44,2.46,5.41-.98,2.46-3.44,3.45-5.91,2.46-2.46-.98-3.44-3.44-2.46-5.9,.98-1.48,3.44-2.96,5.91-1.97"/><path class="cls-1" d="M289.85,507.36c2.46,.98,3.44,3.44,2.46,5.9-.98,2.46-3.44,3.44-5.91,2.46-2.46-.98-3.45-3.44-2.46-5.9,.98-1.97,3.44-3.44,5.91-2.46"/><path class="cls-1" d="M56.59,514.24c2.46,.98,3.44,3.44,2.46,5.91-.98,1.97-2.95,2.95-5.41,2.46-2.46-.49-3.45-2.95-2.96-5.41,.5-2.46,2.96-3.44,5.42-2.96h.49Z"/><path class="cls-1" d="M168.79,453.72c2.46,.98,3.44,3.44,2.46,5.91-.98,2.46-3.44,3.45-5.91,2.46-2.46-.98-3.44-3.44-2.46-5.91,.98-1.97,3.44-2.95,5.91-2.46"/><path class="cls-1" d="M82.18,476.35c2.46,.98,3.44,3.44,2.46,5.91-.98,2.46-3.44,3.45-5.91,2.46-2.46-.98-3.44-3.44-2.46-5.91,.98-1.97,3.44-3.44,5.91-2.46"/><path class="cls-1" d="M217.02,493.08c2.46,.98,3.44,3.44,2.46,5.91-.98,2.46-3.44,3.45-5.91,2.46-2.46-.98-3.44-3.44-2.46-5.42,.98-2.46,3.44-3.44,5.91-2.95"/><path class="cls-1" d="M386.79,511.29c2.46,.98,3.44,3.44,2.46,5.91-.98,2.46-3.44,3.44-5.42,2.46-2.46-.98-3.44-3.44-2.46-5.91,.5-2.46,2.96-3.44,5.42-2.46"/><path class="cls-1" d="M117.61,512.28c2.46,.98,3.44,3.44,2.46,5.9-.98,2.46-3.44,3.44-5.41,2.46-2.46-.98-3.44-3.44-2.46-5.9,.98-2.46,2.95-3.44,5.41-2.46"/><polygon class="cls-1" points="136.81 506.86 160.92 536.88 188.97 479.31 154.03 481.27 136.81 506.86"/><polygon class="cls-1" points="399.09 259.34 350.37 308.05 357.76 311.01 404.02 264.26 399.09 259.34"/><polygon class="cls-1" points="409.43 270.16 365.14 314.45 372.52 317.4 414.84 275.09 409.43 270.16"/><polygon class="cls-1" points="420.25 280.99 380.39 320.85 386.3 323.31 390.73 320.36 425.66 285.91 420.25 280.99"/><polygon class="cls-1" points="431.08 291.32 415.82 306.58 435.51 295.75 431.08 291.32"/><polygon class="cls-1" points="49.21 394.17 46.26 411.4 57.58 400.08 49.21 394.17"/><polygon class="cls-1" points="72.83 410.41 44.78 437.97 60.53 445.84 86.61 419.76 72.83 410.41"/><path class="cls-4" d="M299.69,401.06c-8.86,0-16.24-7.38-16.24-16.24s7.38-16.24,16.24-16.24,16.24,7.38,16.24,16.24-6.89,16.24-16.24,16.24m70.86-7.38c-6.4-8.37-46.25-59.54-102.36-59.54-48.72,0-100.88,44.29-100.88,44.29,0,0-19.68-39.86-59.54-43.8h-.98c-.99,0-1.48,.49-1.48,1.48,0,.5,.49,.98,.49,1.48,4.92,8.37,18.21,32.97,18.21,57.08s-12.3,48.72-17.22,57.58l-.5,.49c0,.5-.49,.5,0,.98,0,.99,.5,1.48,1.48,1.48h.98c39.86-3.94,59.55-43.79,59.55-43.79,0,0,52.16,44.29,100.88,44.29,56.1,0,95.96-50.69,102.35-59.05l.5-.5v-.98l-1.48-1.48Z"/><path class="cls-4" d="M428.13,147.63h0l-1.48,.49c-12.3,6.4-51.18,21.16-86.12-12.3-.49-.49-.98-.98-1.97-.98s-1.48,.49-1.97,.98c-10.34,7.87-58.56,40.35-101.38,.49h-1.48c-.49-.49-.98-.49-1.48-.49s-1.47,0-1.47,.49l-.99,.49c-42.81,39.86-91.04,7.38-101.37-.49-.49-.49-.98-.98-1.97-.98s-1.47,.49-1.97,.98c-34.94,33.46-73.81,18.21-86.12,12.3l-.98-.49h-.49c-1.48,0-2.46,.98-2.46,2.46v16.24c0,.49,.49,.98,.49,1.47,40.35,35.43,79.23,2.46,88.09-6.39l.98-.99c.49,0,.49-.49,.99-.49s1.47,.49,1.97,.98c45.76,43.8,93.99,8.37,103.84,0l.98-.98c0-.49,.49-.49,.98-.49s.5,0,.98,.49l.98,.98c9.84,8.37,58.07,43.8,103.83,0,.5-.49,.98-.49,1.48-.49s.98,0,1.48,.49c.49,0,.49,.5,.49,.5,8.86,8.85,47.24,41.83,88.09,6.39,.49-.49,.49-.98,.49-1.47v-16.73c-.49-1.48-1.48-2.46-2.46-2.46"/><path class="cls-4" d="M428.13,208.65h0l-1.48,.49c-28.54,15.26-63.48,10.34-86.12-12.3-.49-.49-1.47-.98-1.97-.98s-1.48,.49-1.97,.98c-11.32,8.37-59.05,40.85-101.87,.99l-.49-.49c-.49-.5-.98-.5-1.48-.5s-1.48,0-1.48,.5l-1.48,.49c-42.81,39.86-91.04,7.38-101.37-.49-.49-.5-.98-.98-1.97-.98s-1.47,.49-1.97,.98c-34.94,33.46-73.81,18.21-86.12,12.3l-.98-.5h-.49c-1.48,0-2.46,.99-2.46,2.46v16.73c0,.49,.49,.98,.49,1.48,40.35,35.43,79.23,2.46,88.09-6.4l.98-.98c.49,0,.49-.49,.99-.49s1.47,.49,1.97,.98c45.76,43.8,93.99,8.36,103.84,0l.98-.98s.49-.5,.98-.5,.5,0,.98,.5l.98,.98c9.84,8.36,58.07,43.8,103.83,0,.5-.49,.98-.49,1.48-.49s.98,0,1.48,.49c.49,0,.49,.49,.49,.49,8.86,8.86,47.24,41.83,88.09,6.4,.49-.49,.49-.99,.49-1.48v-17.22c0-1.48-1.48-2.46-2.46-2.46"/></g></svg>