<?xml version="1.0" encoding="UTF-8"?><svg id="Capa_1" xmlns="http://www.w3.org/2000/svg" viewBox="0 0 467 568.37"><defs><style>.cls-1{fill:#f49400;}.cls-2{fill:#fff;}</style></defs><path class="cls-1" d="M4.92,80.7H461.59V4.92H4.92V80.7Zm462.08,4.92H0V0H466.51V85.62h.49Z"/><polygon class="cls-1" points="16.73 17.72 38.88 17.72 38.88 24.6 32.48 24.6 32.48 67.91 23.62 67.91 23.62 24.6 16.73 24.6 16.73 17.72"/><path class="cls-1" d="M49.21,52.16h6.89l-3.44-20.18-3.44,20.18Zm-10.33,15.75l9.35-50.19h9.35l9.84,50.19h-8.86l-1.48-9.35h-8.86l-1.48,9.35h-7.87Z"/><path class="cls-1" d="M80.21,24.6v15.75h2.95c2.95,0,3.94-1.48,3.94-3.94v-7.38c0-2.95-1.48-3.94-3.94-3.94h-2.95v-.49Zm0,20.18v23.13h-8.37V17.72h12.3c8.37,0,11.81,4.43,11.81,11.32v6.4c0,5.41-1.97,8.37-6.89,9.84l7.87,22.64h-8.86l-7.87-23.13Z"/><path class="cls-1" d="M113.67,41.34h11.81v26.57h-5.91v-5.41c-.98,3.94-3.44,5.91-7.87,5.91-7.38,0-10.33-5.91-10.33-13.29V31c0-7.87,3.94-13.29,12.79-13.29,9.35,0,11.81,5.41,11.81,12.79v4.43h-7.87v-4.92c0-2.95-.98-4.92-4.43-4.92-2.95,0-4.43,1.97-4.43,4.92v27.07c0,2.95,1.48,4.92,3.94,4.92,2.95,0,3.94-1.48,3.94-4.92v-9.35h-3.94v-6.4h.49Z"/><polygon class="cls-1" points="132.37 17.72 152.55 17.72 152.55 24.6 140.74 24.6 140.74 38.88 149.11 38.88 149.11 45.77 140.74 45.77 140.74 61.02 152.55 61.02 152.55 67.91 132.37 67.91 132.37 17.72"/><polygon class="cls-1" points="156.49 17.72 178.63 17.72 178.63 24.6 171.74 24.6 171.74 67.91 163.38 67.91 163.38 24.6 156.49 24.6 156.49 17.72"/><polygon class="cls-1" points="378.91 17.72 378.91 67.91 370.55 67.91 370.55 29.53 364.64 35.43 364.64 27.07 372.52 18.21 378.91 18.21 378.91 17.72"/><polygon class="cls-1" points="399.09 17.72 399.09 67.91 390.72 67.91 390.72 29.53 384.82 35.43 384.82 27.07 392.2 17.72 399.09 17.72"/><path class="cls-1" d="M414.35,36.91c3.44,0,5.91,2.95,5.91,5.91,0,3.44-2.95,5.91-5.91,5.91-3.44,0-5.91-2.95-5.91-5.91-.49-2.95,2.46-5.91,5.91-5.91"/><polygon class="cls-1" points="427.14 17.72 448.3 17.72 448.3 25.59 437.47 67.91 429.11 67.91 440.43 24.6 427.63 24.6 427.63 17.72 427.14 17.72"/><g><rect class="cls-1" x="0" y="101.86" width="466.51" height="466.51"/><path class="cls-2" d="M69.88,274.1h11.81v31c0,.49,.49,.98,.98,.98h14.27c.49,0,.98-.49,.98-.98v-31h23.13c14.76,0,27.07-12.3,27.07-27.07,0-6.89-2.46-13.29-7.38-18.7,12.3-6.89,16.24-22.14,9.35-34.45-4.43-7.87-12.79-12.79-22.14-12.79h-1.48c-.98-19.19-16.73-33.95-35.92-32.97-19.19,.98-33.95,16.73-32.97,35.92,0,4.92,1.48,9.84,3.94,14.76-20.67,4.92-32.97,25.59-28.05,46.26,4.43,16.73,19.19,28.54,36.42,29.03"/><path class="cls-2" d="M384.33,191.43c3.44,0,6.4-2.46,6.4-5.91h13.29c-.49-8.86-6.89-16.24-15.75-17.22v-3.44c-.49-7.38,4.92-14.27,12.3-15.25h1.48c7.38,0,14.27,4.92,14.27,16.24v104.32h-3.94c-2.46,0-4.43,1.97-4.43,4.43v27.56c0,2.46,1.97,4.43,4.43,4.43h15.25c2.46,0,4.43-1.97,4.43-4.43v-28.05c0-2.46-1.97-4.43-4.43-4.43h-3.44v-104.32c.98-12.3-8.37-23.13-20.67-24.11h-1.48c-12.3,0-22.14,9.84-22.14,21.65v4.92c-8.86,.98-15.75,8.86-15.75,17.72h13.29c.98,3.44,3.94,5.91,6.89,5.91"/><path class="cls-2" d="M195.36,280.5v25.1c0,.49,.49,.98,.49,.98h10.83c.49,0,.98-.49,.98-.98v-25.1c17.72-3.44,30.02-19.68,29.53-37.4,0-22.14-17.22-59.05-37.4-59.05s-36.91,36.91-36.91,59.05c0,18.21,13.78,34.45,32.48,37.4"/><rect class="cls-2" x="267.7" y="253.92" width="98.91" height="11.81"/><rect class="cls-2" x="267.7" y="237.19" width="98.91" height="11.81"/><polygon class="cls-2" points="372.52 260.32 372.52 274.1 262.29 274.1 262.29 260.32 253.92 260.32 253.92 305.59 262.29 305.59 262.29 283.94 372.52 283.94 372.52 305.59 380.39 305.59 380.39 260.32 372.52 260.32"/><path class="cls-2" d="M303.13,375.96c8.86,0,15.75-6.89,15.75-15.75s-6.89-15.75-15.75-15.75-15.75,6.89-15.75,15.75,7.38,15.75,15.75,15.75"/><path class="cls-2" d="M321.83,382.36h-36.42c-10.83,.98-19.19,10.33-19.19,21.16v43.8c0,3.44,2.95,5.91,5.91,5.91s5.91-2.95,5.91-5.91v-37.89c0-1.48,.49-3.44,2.95-3.44,1.97,0,1.97,1.97,2.46,2.95v113.18c0,4.92,3.94,8.86,8.86,8.86s8.86-3.94,8.86-8.86v-64.96c0-1.48,.98-2.46,1.97-2.46h.49c1.48,0,2.46,.98,2.46,2.46v64.96c0,4.92,3.94,8.86,8.86,8.86s8.86-3.94,8.86-8.86v-113.18c0-.98,.49-2.95,1.97-2.95,2.46,0,2.95,1.97,2.95,3.44v37.89c0,3.44,2.95,5.91,5.91,5.91s5.91-2.95,5.91-5.91v-43.8c.49-11.32-7.87-20.18-18.7-21.16"/><path class="cls-2" d="M86.61,388.76c8.37,0,14.76-6.4,15.25-14.27,0-5.41-2.95-10.83-7.87-13.29,.49-.98,.98-1.48,.98-2.46-.49-3.94-3.94-6.4-7.38-5.91-3.94-.49-6.89,2.46-7.38,5.91,0,.98,0,1.48,.49,1.97-8.37,2.95-11.81,11.81-8.37,19.19,2.46,5.41,7.87,8.86,14.27,8.86"/><path class="cls-2" d="M128.93,442.89l-12.3-40.35s-4.43-11.81-14.27-11.81h-31.49c-9.84,0-14.27,11.81-14.27,11.81l-12.3,40.35s-1.97,5.91,2.46,8.37v.49l-14.76,75.78c0,1.48,.49,2.46,1.97,2.46h.49c.98,0,1.97-.98,2.46-1.97l14.76-75.78v-.49c3.94-.49,5.41-5.41,5.41-5.41l9.84-33.46s.49-2.46,2.46-1.97c1.97,.49,.98,3.44,.98,3.44l-17.72,63.48h16.24v45.27c0,4.43,3.44,7.87,7.87,7.87s7.87-3.44,7.87-7.87v-45.27h4.43v45.27c0,4.43,3.44,7.87,7.87,7.87s7.87-3.44,7.87-7.87v-45.27h16.24l-17.72-62.99s-.49-2.95,.98-3.44c1.48-.49,2.46,1.97,2.46,1.97l9.84,33.46s1.97,7.38,7.87,5.41c5.91-1.97,4.43-9.35,4.43-9.35"/><path class="cls-2" d="M195.36,419.76c7.87,0,14.27-6.89,13.78-14.76,0-7.87-6.89-14.27-14.76-13.78-7.87,0-13.78,6.4-13.78,14.27s6.4,14.27,14.76,14.27c-.49,0,0,0,0,0"/><path class="cls-2" d="M254.91,508.34l-5.91-11.81v-.49l-14.27-28.54c-1.48-2.46-3.94-3.94-6.89-3.94h-20.67l-.49-25.59c0-7.87-1.97-12.3-7.87-13.78-2.95-.49-5.91-.49-8.86,0h-.98l-24.11,7.87h-1.48c-.98,.49-1.97,1.97-2.46,2.95l-6.89,19.19c-1.48,2.95,0,6.89,2.95,7.87,2.95,1.48,6.89,0,7.87-2.95q0-.49,.49-.98l5.91-16.73,8.86-1.97h.49v27.07c0,5.91,1.97,12.3,7.87,13.78l1.97,.49h33.46l7.87,15.75v.49l2.95,5.41,2.46,5.41,.49,.49,3.44,6.4c1.97,3.44,6.89,4.92,10.33,2.95,3.94-1.48,5.41-5.91,3.44-9.35"/><path class="cls-2" d="M211.11,491.11v1.48c0,16.24-12.79,29.03-29.03,29.03s-29.03-12.79-29.03-29.03c0-6.4,1.97-12.79,6.4-18.21l-7.38-5.91c-12.79,16.73-9.84,40.84,6.4,53.64,16.73,12.79,40.84,9.84,53.64-6.4,5.41-6.89,7.87-15.25,7.87-23.62v-1.48h-8.86v.49Z"/><path class="cls-2" d="M435.01,454.7l-10.83-35.43s-3.94-10.33-12.3-10.33h-27.56c-8.37,0-12.3,10.33-12.3,10.33l-10.83,35.43s-1.97,6.4,3.44,7.87c5.41,1.48,6.89-4.43,6.89-4.43l8.86-29.53s.49-2.46,1.97-1.97c1.48,.49,.98,2.95,.98,2.95l-15.25,55.11h14.27v39.37c-.49,3.94,2.46,6.89,6.4,7.38,3.94,.49,6.89-2.46,7.38-6.4v-40.35h3.94v39.37c-.49,3.94,2.46,6.89,6.4,7.38,3.94,.49,6.89-2.46,7.38-6.4v-40.35h14.27l-15.25-55.11s-.49-2.46,.98-2.95c1.48-.49,1.97,1.97,1.97,1.97l8.86,29.53s1.48,6.4,6.89,4.43c5.41-1.97,3.44-7.87,3.44-7.87"/><path class="cls-2" d="M374.49,386.79c.49-.98,1.97-3.44,5.91-3.94,.98,0,1.48-.49,2.46-.98,.49-1.48,1.48-2.46,2.46-3.94v-.98c0-1.97-2.46-4.43-6.89-2.46-5.41,2.46-4.92,10.83-4.92,10.83,0,0,.98,1.97,.98,1.48"/><path class="cls-2" d="M413.85,381.87c.98,.49,1.48,.98,2.46,.98,4.43,.49,5.91,2.46,5.91,3.94,0,.49,0,0,.49-.98,.49-.98,.49-7.87-4.92-10.83-4.43-1.97-6.4,.49-6.89,2.46v.98c.98,.98,1.97,2.46,2.95,3.44"/><path class="cls-2" d="M398.11,405.49c8.37,0,14.76-6.4,14.76-14.76s-6.4-14.76-14.76-14.76-14.76,6.4-14.76,14.76,6.89,14.76,14.76,14.76"/></g></svg>