<?xml version="1.0" encoding="UTF-8"?><svg id="Capa_1" xmlns="http://www.w3.org/2000/svg" viewBox="0 0 467 568.37"><defs><style>.cls-1{fill:#fff;}.cls-2{fill:#e5006a;}</style></defs><path class="cls-2" d="M4.92,80.7H461.59V4.92H4.92V80.7Zm462.08,4.92H0V0H466.51V85.62h.49Z"/><polygon class="cls-2" points="16.73 17.72 38.88 17.72 38.88 24.61 32.48 24.61 32.48 67.91 23.62 67.91 23.62 24.61 16.73 24.61 16.73 17.72"/><path class="cls-2" d="M49.21,52.16h6.89l-3.44-20.18-3.44,20.18Zm-10.33,15.75l9.35-50.19h9.35l9.84,50.19h-8.86l-1.48-9.35h-8.86l-1.48,9.35h-7.87Z"/><path class="cls-2" d="M80.21,24.61v15.75h2.95c2.95,0,3.94-1.48,3.94-3.94v-7.38c0-2.95-1.48-3.94-3.94-3.94h-2.95v-.49Zm0,20.18v23.13h-8.37V17.72h12.3c8.37,0,11.81,4.43,11.81,11.32v6.4c0,5.41-1.97,8.37-6.89,9.84l7.87,22.64h-8.86l-7.87-23.13Z"/><path class="cls-2" d="M113.67,41.34h11.81v26.57h-5.91v-5.41c-.98,3.94-3.44,5.91-7.87,5.91-7.38,0-10.33-5.91-10.33-13.29V31c0-7.87,3.94-13.29,12.79-13.29,9.35,0,11.81,5.41,11.81,12.79v4.43h-7.87v-4.92c0-2.95-.98-4.92-4.43-4.92-2.95,0-4.43,1.97-4.43,4.92v27.07c0,2.95,1.48,4.92,3.94,4.92,2.95,0,3.94-1.48,3.94-4.92v-9.35h-3.94v-6.4h.49Z"/><polygon class="cls-2" points="132.37 17.72 152.55 17.72 152.55 24.61 140.74 24.61 140.74 38.88 149.11 38.88 149.11 45.77 140.74 45.77 140.74 61.02 152.55 61.02 152.55 67.91 132.37 67.91 132.37 17.72"/><polygon class="cls-2" points="156.49 17.72 178.63 17.72 178.63 24.61 171.74 24.61 171.74 67.91 163.38 67.91 163.38 24.61 156.49 24.61 156.49 17.72"/><polygon class="cls-2" points="365.14 17.72 365.14 67.91 356.77 67.91 356.77 29.53 350.86 35.43 350.86 27.07 358.74 18.21 365.14 18.21 365.14 17.72"/><path class="cls-2" d="M388.26,56.59V29.53c0-2.95-.98-4.92-3.94-4.92s-3.94,1.97-3.94,4.92v27.07c0,2.95,.98,4.92,3.94,4.92s3.94-1.97,3.94-4.92m-16.24-1.48V31c0-7.87,3.94-13.29,12.3-13.29s12.3,5.91,12.3,13.29v24.11c0,7.87-3.94,13.29-12.3,13.29s-12.3-5.41-12.3-13.29"/><path class="cls-2" d="M410.41,36.91c3.44,0,5.91,2.95,5.91,5.91,0,3.44-2.95,5.91-5.91,5.91-3.44,0-5.91-2.95-5.91-5.91s2.46-5.91,5.91-5.91"/><path class="cls-2" d="M448.3,44.78v12.3c0,6.89-3.44,11.32-11.81,11.32s-11.81-4.92-11.81-12.3v-5.91h7.87v6.4c0,2.95,.98,4.92,3.94,4.92,2.46,0,3.44-1.97,3.44-4.43v-12.3c0-2.95-.98-4.43-3.44-4.43s-3.94,1.48-3.94,4.43v.98h-7.87V17.72h22.14v6.89h-14.27v12.3c1.48-2.46,3.94-3.44,6.89-3.44,4.43,.49,8.86,3.44,8.86,11.32"/><g><rect class="cls-2" y="101.86" width="466.51" height="466.51"/><polygon class="cls-1" points="131.39 216.52 117.12 216.52 117.12 486.68 310.51 486.68 310.51 470.44 131.39 470.44 131.39 216.52"/><path class="cls-1" d="M315.93,377.44c0,.49-.49,.98-1.48,.98H171.74c-.98,0-1.48-.49-1.48-.98v-22.64c0-.49,.49-.98,1.48-.98h142.71c.98,0,1.48,.49,1.48,.98v22.64Zm0,39.86c0,.49-.49,.98-1.48,.98H171.74c-.98,0-1.48-.49-1.48-.98v-23.13c0-.49,.49-.98,1.48-.98h142.71c.98,0,1.48,.49,1.48,.98v23.13Zm-72.83-207.17c32.97,0,60.04,27.07,60.04,60.04s-27.07,60.04-60.04,60.04-60.04-27.07-60.04-60.04,26.57-60.04,60.04-60.04m-96.94,244.08h193.39V184.54H146.15V454.21Z"/><path class="cls-1" d="M243.1,215.54c30.02,0,54.62,24.6,54.62,54.62s-24.6,54.62-54.62,54.62-54.62-24.6-54.62-54.62,24.6-54.62,54.62-54.62m0,113.18c31.99,0,58.07-26.57,58.07-58.56s-26.57-58.07-58.56-58.07-58.07,26.08-58.07,58.07,25.59,58.56,58.07,58.56h.49Z"/><path class="cls-1" d="M206.68,298.7c0-.49,.49-.98,.98-1.48,.98-.98,2.46-.49,3.44,.49,.98,.98,.98,2.46,0,3.44-.49,.49-.98,.49-1.48,.49-.98,0-1.48-.49-1.97-.98-.98-.98-.98-1.48-.98-1.97m-.98-4.43q-.49,0-.98,.49c-.98,0-1.48-.49-1.97-.98-.49-.98,0-2.95,.98-3.44,1.48-.98,2.46-.49,3.44,.98v1.97c-.49,.49-.98,.98-1.48,.98m-4.43-6.4c-.98,0-1.97-.49-2.46-1.48v-1.97c0-.49,.49-.98,1.48-.98,.98-.49,2.46,.49,2.95,1.48,.49,.98-.49,2.46-1.97,2.95m-4.43-9.35c0-1.48,.49-2.46,1.97-2.95,.49,0,1.48,0,1.97,.49,.49,.49,.98,.98,.98,1.48,0,1.48-.49,2.46-1.97,2.95h-.49c-1.48,0-2.46-.98-2.46-1.97m-.98-8.37c0-1.48,.98-2.46,1.97-2.46h.49c1.48,0,2.46,.98,2.46,2.46s-.98,2.46-2.46,2.46c-.98,0-1.97-.98-2.46-2.46m3.44-9.84c.49,0,.98,.49,1.48,.98,.49,.49,.49,.98,.49,1.97s-1.48,1.97-2.46,1.97h-.49c-1.48-.49-1.97-1.48-1.97-2.95,.49-1.48,1.97-2.46,2.95-1.97m-.49-5.91c.49-.98,1.97-1.97,2.95-1.48,.49,0,.98,.49,1.48,.98v1.97c0,.49-.49,.98-.98,1.48h-1.97c-.98-.49-1.48-1.97-1.48-2.95m3.44-7.38c.98-.98,1.97-1.48,3.44-.98,.98,.98,1.48,1.97,.98,3.44-.49,.98-.98,.98-1.97,.98s-.98,0-.98-.49c-.98-.49-1.97-1.48-1.48-2.95m4.92-6.89c.49-.49,.98-.98,1.48-.98s1.48,0,1.48,.49c.98,.98,.98,2.46,.49,3.44-.49,.49-.98,.98-1.97,.98-.49,0-.98,0-1.48-.49-.49-.98-.98-2.46,0-3.44m5.41,62.5c.98-.98,2.46-1.48,3.44-.49,.98,.98,1.48,2.46,.49,3.44-.49,.49-.98,.98-1.97,.98-1.48,0-2.46-.98-2.46-1.97v-.49c0-.49,0-.98,.49-1.48m0-68.4c.49-.49,.98-.49,1.97-.49s2.46,.98,1.97,2.46c0,.49-.49,1.48-.98,1.48-.49,.49-.98,.49-1.48,.49-.98,0-1.48-.49-1.97-.98-.49-.49,0-1.97,.49-2.95m6.89-4.43c.98-.49,2.95,0,3.44,.98,.49,.49,.49,.98,0,1.97q-.49,.98-.98,1.48-.49,0-.98,.49c-.98,0-1.48-.49-1.97-.98-.98-1.97-.49-3.44,.49-3.94m7.38-3.44c.49-.49,1.48-.49,1.97,0,.49,.49,.98,.98,.98,1.48v1.97c-.49,.49-.98,.98-1.48,.98h-1.97c-.49-.49-.98-.98-.98-1.48,0-.98,.49-2.46,1.48-2.95m7.87-1.97c.49,0,1.48,0,1.97,.49,.49,.49,.98,.98,.98,1.48,0,1.48-.49,2.46-1.97,2.95h-.49c-.49,0-.98,0-1.48-.49-.49-.49-.98-.98-.98-1.48,0-1.97,.49-2.95,1.97-2.95m7.87-.98c1.48,0,2.46,.98,2.46,2.46s-.98,2.46-2.46,2.46-2.46-.98-2.46-2.46c.49-1.48,1.48-2.46,2.46-2.46m8.37,.98c1.48,0,1.97,1.48,1.97,2.95,0,.49-.49,.98-.98,1.48s-.98,.49-1.48,.49h-.49c-.49,0-.98-.49-1.48-.98-.49-.49-.49-.98-.49-1.97s1.48-2.46,2.95-1.97m4.92,3.44c0-.49,.49-.98,.98-1.48,.49-.49,1.48-.49,1.97,0,.49,0,.98,.49,1.48,.98v1.97c0,.49-.49,.98-1.48,1.48h-1.97c-.49,0-.98-.49-1.48-.98,0-.98,0-1.48,.49-1.97m7.38,2.95c.98-.98,1.97-1.48,3.44-.98,.49,.49,.98,.98,.98,1.48,.49,.49,.49,1.48,0,1.97-.49,.49-.98,.98-1.48,.98h-.49c-.49,0-.98,0-.98-.49s-.98-.98-.98-1.48c-.98-.49-.98-.98-.49-1.48m6.4,3.94c.98-.98,2.46-.98,3.44-.49,.49,.49,.98,.98,.98,1.48s0,1.48-.49,1.97c-.49,.49-.98,.98-1.48,.98s-.98,0-1.48-.49c-.49-.49-.98-.98-.98-1.48s-.49-1.48,0-1.97m5.41,62.99c.49-.49,.98-.98,1.48-.98s1.48,0,1.97,.49c.98,.98,.98,2.46,.49,3.44-.49,.49-.98,.98-1.48,.98h-.49c-.49,0-.98,0-1.48-.49-.49-.49-.98-.98-.98-1.48s0-1.97,.49-1.97m.49-57.58c.98-.98,2.46-.49,3.44,.49,.49,.49,.49,.98,.49,1.48,0,.98-.98,1.97-2.46,2.46-1.48,0-2.46-.98-2.46-1.97v-.49c0-.98,.49-1.48,.98-1.97m4.92,5.91c.49-.49,.98-.49,1.97,0q.98,.49,1.48,.98v1.97c0,.49-.49,.98-.98,1.48q-.49,0-.98,.49h-.49c-.49,0-.98-.49-1.48-.98v-1.97c-.49-.98,0-1.48,.49-1.97m5.91,6.89c.98,.49,1.48,1.97,.98,2.95,0,.49-.49,.98-1.48,.98h-1.97c-.49,0-.98-.49-.98-1.48v-1.97c.49-.49,.98-.98,1.48-.98s1.48,0,1.97,.49m2.95,8.86c0,.49,0,1.48-.49,1.97s-.98,.98-1.48,.98h-2.46c-.49-.49-.98-.98-.98-1.48s0-1.48,.49-1.97c.49-.49,.98-.98,1.48-.98s1.48,0,1.97,.49c.98,.49,.98,.98,1.48,.98m.98,8.37c0,1.48-.98,2.46-1.97,2.46h-.49c-.49,0-1.48,0-1.48-.49-.98-.98-.98-2.46,0-3.44,.49-.49,.98-.49,1.48-.49,.98,0,1.97,.98,2.46,1.97m-2.95,9.84h0c-1.97-.49-2.46-1.48-2.46-2.95,0-.49,.49-.98,.98-1.48,.49-.49,.98-.49,1.97-.49s1.97,1.48,1.97,2.95-1.48,2.46-2.46,1.97m0,5.91c-.49,.98-1.48,1.48-2.46,1.48h-.98c-.98-.49-1.97-1.97-1.48-2.95,0-.49,.49-.98,.98-1.48,.49-.49,1.48-.49,1.97,0,.49,0,.98,.49,1.48,.98s.49,1.48,.49,1.97m-3.44,7.38c-.49,.49-.98,.98-1.48,.98h-.49c-.49,0-.98,0-.98-.49s-.98-.98-.98-1.48v-1.97c.49-.49,.98-.98,1.48-.98,.98-.49,2.46,.49,2.95,1.48-.49,.98-.49,1.48-.49,2.46m-10.83,12.79c-.49,.49-.98,.49-1.48,.49-.98,0-1.48-.49-1.97-.98-.98-.98-.49-2.46,.49-3.44,.98-.98,2.46-.49,3.44,.49,.49,.49,.49,.98,.49,1.48,0,.98-.49,1.48-.98,1.97m-5.41,2.95c0,.49-.49,.98-.98,1.48q-.49,0-.98,.49h-.49c-1.48,0-2.46-1.48-1.97-2.95,0-1.48,1.48-2.46,2.95-1.97,.98,.49,1.97,1.97,1.48,2.95m-6.89,3.94c-.49,.49-.49,.98-1.48,.98h-.98c-.98,0-1.97-.49-2.46-1.48v-1.97c.49-.49,.98-.98,1.48-.98,.98-.49,2.46,0,2.95,.98v.49c.49,.49,.49,1.48,.49,1.97m-7.87,1.97c-.49,.49-.98,.98-1.48,.98h-.49c-.98,0-1.97-.98-2.46-1.97,0-.49,0-1.48,.49-1.97,.98-.98,2.46-1.48,3.44-.49,.49,.49,.98,.98,.98,1.48s0,1.97-.49,1.97m-9.84,1.97c-1.48,0-2.46-.98-2.46-2.46s.98-2.46,2.46-2.46,2.46,.98,2.46,2.46-.98,2.46-2.46,2.46m-7.87-.49h0c-.98,0-1.48-.49-1.97-.98-.49-.49-.49-.98-.49-1.97s.49-.98,.98-1.48c.49-.49,.98-.49,1.97-.49s.98,.49,1.48,.98c.49,.49,.49,.98,.49,1.97s-1.48,1.97-2.46,1.97m-4.92-3.94c-.49,.98-1.48,1.48-2.46,1.48h-.98c-.98-.49-1.97-1.97-1.48-2.95,.49-.98,1.97-1.97,2.95-1.48,.49,0,.98,.49,1.48,.98,.49,.49,.49,1.48,.49,1.97m-7.38-2.95c-.49,.49-.98,.98-1.48,.98h-.49c-.49,0-.98,0-.98-.49-.98-.49-1.48-2.46-.98-3.44,.49-.98,2.46-1.48,3.44-.98,.98,1.48,1.48,2.95,.49,3.94m-5.91-21.16h1.97v-2.95q0-.49,.49-.49h48.23q.49,0,.49,.49v2.95h1.97v2.95h-53.15v-2.95Zm26.57-33.46h-26.08l-.98-.98c-.49,0-.49-.49,0-.98l27.07-10.33,27.56,10.33c.49,.49,.49,.98,0,.98l-1.48,.98h-26.08Zm-22.14,9.35c-.49,0-.98-.49-.98-.98v-2.95h7.87v2.95q0,.49-.49,.98v18.7h-5.91l-.49-18.7Zm18.7,0q-.49,0-.98-.49v-2.95h7.87v2.95q0,.49-.49,.98v18.7h-6.4v-19.19Zm2.95-5.91h-24.6v-1.48h49.21v1.97l-24.6-.49Zm15.75,5.91q-.49,0-.98-.49v-2.95h7.87v2.95c0,.49-.49,.98-.98,.98v18.7h-5.91v-19.19Zm-15.75,56.1c27.56,0,50.19-22.64,50.19-50.19s-22.64-50.19-50.19-50.19-50.19,22.64-50.19,50.19,22.14,50.19,49.21,50.19h.98Z"/></g></svg>