<?xml version="1.0" encoding="UTF-8"?><svg id="Capa_1" xmlns="http://www.w3.org/2000/svg" viewBox="0 0 467 568.37"><defs><style>.cls-1{fill:#fff;}.cls-2{fill:#e9a30d;}</style></defs><path class="cls-2" d="M4.92,80.7H461.59V4.92H4.92V80.7Zm462.08,4.92H0V0H466.51V85.62h.49Z"/><polygon class="cls-2" points="16.73 17.72 38.88 17.72 38.88 24.6 32.48 24.6 32.48 67.91 23.62 67.91 23.62 24.6 16.73 24.6 16.73 17.72"/><path class="cls-2" d="M49.21,52.16h6.89l-3.44-20.18-3.44,20.18Zm-10.33,15.75l9.35-50.19h9.35l9.84,50.19h-8.86l-1.48-9.35h-8.86l-1.48,9.35h-7.87Z"/><path class="cls-2" d="M80.21,24.6v15.75h2.95c2.95,0,3.94-1.48,3.94-3.94v-7.38c0-2.95-1.48-3.94-3.94-3.94h-2.95v-.49Zm0,20.67v23.13h-8.37V17.72h12.3c8.37,0,11.81,4.43,11.81,11.32v6.4c0,5.41-1.97,8.37-6.89,9.84l7.87,22.64h-8.86l-7.87-22.64Z"/><path class="cls-2" d="M113.67,41.34h11.81v26.57h-5.91v-5.41c-.98,3.94-3.44,5.91-7.87,5.91-7.38,0-10.33-5.91-10.33-13.29V31c0-7.87,3.94-13.29,12.79-13.29,9.35,0,11.81,5.41,11.81,12.79v4.43h-7.87v-4.92c0-2.95-.98-4.92-4.43-4.92-2.95,0-4.43,1.97-4.43,4.92v27.07c0,2.95,1.48,4.92,3.94,4.92,2.95,0,3.94-1.48,3.94-4.92v-9.35h-3.94v-6.4h.49Z"/><polygon class="cls-2" points="132.37 17.72 152.55 17.72 152.55 24.6 140.74 24.6 140.74 38.88 149.11 38.88 149.11 45.77 140.74 45.77 140.74 61.02 152.55 61.02 152.55 67.91 132.37 67.91 132.37 17.72"/><polygon class="cls-2" points="156.49 17.72 178.63 17.72 178.63 24.6 171.74 24.6 171.74 67.91 163.38 67.91 163.38 24.6 156.49 24.6 156.49 17.72"/><path class="cls-2" d="M373.99,58.56c0-4.92,1.48-8.37,6.4-13.29l4.92-4.92c2.95-2.95,2.95-4.43,2.95-8.86v-3.44c0-2.95-1.48-3.94-2.95-3.94-1.97,0-3.44,.98-3.44,3.94v6.4h-7.87v-5.91c0-6.89,3.94-10.83,11.32-10.83s10.83,3.44,10.83,10.33v4.92c0,4.92-.98,7.87-5.41,12.79l-5.41,5.91c-1.97,2.46-3.44,3.94-3.44,7.87v2.46h13.78v6.89h-21.65v-10.33Z"/><path class="cls-2" d="M409.92,36.91c3.44,0,5.91,2.95,5.91,5.91,0,3.44-2.95,5.91-5.91,5.91-3.44,0-5.91-2.95-5.91-5.91s2.95-5.91,5.91-5.91"/><path class="cls-2" d="M429.6,53.15h7.38v-20.67l-7.38,20.67Zm-7.38,1.48l14.76-36.91h8.37V53.15h3.44v6.4h-3.44v8.37h-7.87v-8.37h-14.76v-4.92h-.49Z"/><g><rect class="cls-2" x="0" y="101.86" width="466.51" height="466.51"/><path class="cls-1" d="M240.14,372.52c14.76-.49,47.24-4.92,49.7-47.24,1.97-29.03-5.41-37.89-17.22-53.64-6.89-10.83-11.32-23.13-12.3-35.92-.49-14.76-.98-27.56-15.26-31,1.97-15.25,4.92-22.64,8.86-27.07,3.94-4.92,9.35-8.37,15.25-10.33l-2.46-7.38c-8.37,2.95-15.25,8.37-20.18,15.75-4.92,8.86-8.37,18.21-9.84,28.05-5.41,0-14.27,2.95-19.68,19.68-7.38,24.11-1.97,27.56-14.27,47.73-12.3,20.18-17.22,28.54-13.78,61.51,3.44,32.97,35.92,40.35,51.18,39.86"/><path class="cls-1" d="M235.71,201.27c1.48-30.51-32.97-39.86-32.97-39.86-.49,10.33,2.46,20.67,8.86,29.03,10.83,14.76,24.11,10.83,24.11,10.83"/><path class="cls-1" d="M107.77,278.03s16.73-8.86,16.73-19.68c0-13.29-16.24-30.51-16.24-30.51,0,0-16.73,17.72-16.73,30.51,0,10.83,12.79,17.22,16.24,19.68"/><path class="cls-1" d="M81.2,297.23s3.94,5.41,23.62,8.37c0,0,1.97-18.7-4.92-26.57,0,0-3.44-5.91-28.54-19.68,0,0-2.95,29.53,9.84,37.89"/><path class="cls-1" d="M79.23,336.59s4.43,5.91,25.59,9.35c0,0,2.46-20.67-5.41-29.03,0,0-3.94-5.91-30.51-21.65,0,0-3.44,31.49,10.33,41.34"/><path class="cls-1" d="M69.39,336.59s-4.43,33.95,8.86,43.8c0,0,5.41,6.4,26.57,9.84,0,0,2.95-21.16-4.43-29.53-.49,0-4.43-8.86-31-24.11"/><path class="cls-1" d="M98.91,401.55s-6.89-9.35-34.45-23.62c0,0-2.46,35.43,11.32,45.27,0,0,6.89,6.89,28.05,9.84,.49,0,2.95-23.13-4.92-31.49"/><path class="cls-1" d="M116.14,279.51c-7.38,7.87-4.92,26.57-4.92,26.57,19.68-2.95,23.62-8.37,23.62-8.37,12.79-8.86,9.84-37.89,9.84-37.89-24.6,13.78-28.54,19.68-28.54,19.68"/><path class="cls-1" d="M116.63,316.91c-7.87,8.37-5.41,29.03-5.41,29.03,21.16-3.44,25.59-9.35,25.59-9.35,13.78-9.35,10.33-41.34,10.33-41.34-26.57,15.25-30.51,21.65-30.51,21.65"/><path class="cls-1" d="M115.64,360.71c-7.87,8.37-4.43,29.53-4.43,29.53,21.16-3.44,26.57-9.84,26.57-9.84,13.78-9.35,8.86-43.8,8.86-43.8-26.57,15.26-31,24.11-31,24.11"/><path class="cls-1" d="M116.63,401.55c-7.38,8.37-4.92,31.49-4.92,31.49,21.16-3.44,28.05-9.84,28.05-9.84,13.78-9.84,11.32-45.27,11.32-45.27-27.07,14.27-34.45,23.62-34.45,23.62"/><rect class="cls-1" x="103.34" y="438.46" width="9.35" height="88.58"/><path class="cls-1" d="M78.24,172.73c0-1.48-.98-3.44-2.46-3.44s-3.44,.98-3.44,2.46v82.18l5.91,3.44v-84.64Z"/><path class="cls-1" d="M91.04,239.65v-76.77c0-1.48-1.97-2.95-3.44-2.46-1.48,0-2.46,1.48-2.46,2.46v92.51c.98-5.41,2.95-10.83,5.91-15.75"/><path class="cls-1" d="M103.83,147.14c0-1.48-.98-3.44-2.46-3.44s-3.44,.98-3.44,2.46v83.66c2.46-2.95,4.43-6.4,5.91-8.37v-74.31Z"/><path class="cls-1" d="M144.18,172.73c0-1.48-.98-3.44-2.46-3.44s-3.44,.98-3.44,2.46v85.62l5.91-3.44v-81.2Z"/><path class="cls-1" d="M131.39,254.91v-92.02c0-1.48-1.97-2.95-3.44-2.46-1.48,0-2.46,1.48-2.46,2.46v76.77c2.46,4.92,4.43,10.33,5.91,15.25"/><path class="cls-1" d="M118.1,147.14c0-1.48-.98-3.44-2.46-3.44s-3.44,.98-3.44,2.46v75.78l5.91,8.37v-83.16Z"/><path class="cls-1" d="M380.88,422.71c-10.33-7.87-23.13-11.81-35.92-11.81-2.95,0-5.91,0-8.86,.98h-.98c-8.37,1.97-22.64,5.41-39.37,26.08l-.49,.49c-.49,.49-.49,.98-.49,.98,0,.49,0,.98,.49,.98l.49,.49c2.95,4.43,4.92,8.37,6.89,11.81,.49,.98,1.97,1.48,2.95,.98l.49-.49,.49-.49c14.27-19.68,25.59-22.64,32.97-24.11h.98c1.48-.49,2.95-.49,4.43-.49,8.86,0,17.72,2.95,25.1,7.87,8.37,6.4,12.79,17.22,12.79,31.49,0,23.62-11.32,32.97-21.16,36.42-3.94,1.48-7.87,1.97-11.81,1.97-5.91,0-12.3-1.48-17.72-3.94l-.49-.49c-8.37-3.44-20.67-11.32-32.48-34.45-24.11-48.23-44.29-53.15-57.58-56.1h-.98c-2.95-.49-5.91-.98-8.37-.98-12.79,0-25.1,3.94-35.43,11.81-8.86,6.89-19.19,20.67-19.19,45.27-1.97,29.03,20.18,53.64,49.21,55.61h3.94c3.94,0,8.37-.49,12.3-.98,7.38-1.48,14.76-4.92,20.67-9.35l6.89,6.4c.98,.98,1.97,.98,2.95,0,.49-.49,.49-.98,.49-1.48l5.41-33.46v-.49c0-.49,0-.98-.49-1.48-.49-.49-.98-.49-1.48-.49l-32.48,8.86h-.49c-.49,0-.98,.49-.98,.49-.49,.49-.49,.98-.49,1.48s.49,.98,.49,1.48l6.89,5.91c-3.44,1.97-6.89,3.44-10.33,4.43-2.95,.49-5.91,.98-8.86,.98-10.83,.49-21.16-4.43-28.05-12.79v-.49c-5.41-6.89-8.37-15.75-7.38-25.1,0-14.27,3.94-24.6,12.3-31.49,6.89-4.92,15.75-7.87,24.11-7.87,1.48,0,2.95,0,4.43,.49h.98c10.83,2.46,25.1,5.91,45.27,46.26,10.83,21.65,24.11,35.43,40.84,42.81,7.87,3.94,16.73,5.91,25.59,5.91,5.91,0,12.3-.98,18.21-3.44,9.84-3.44,32.97-16.24,32.97-53.15-.49-22.64-11.32-36.42-19.68-43.3"/><path class="cls-1" d="M397.12,212.09c-4.92-5.91-12.3-9.35-19.68-10.33,.98-7.38,2.46-14.27,4.43-21.16,1.97-4.92,4.92-9.35,9.35-12.79l-7.38-.49c-5.91,5.91-9.84,13.78-10.83,22.14v-43.3l-6.4-.98v36.91c-1.48-5.41-3.44-11.32-5.91-16.73-1.48-3.44-3.44-6.4-5.91-8.86l-6.4,.49c4.43,6.4,8.37,13.78,10.33,21.65,1.97,7.38,2.95,14.76,2.46,22.64-7.38,.49-14.27,3.94-19.19,9.35-8.86,9.84-4.92,26.08-4.92,26.08,0,0,.49,1.48,.98,4.92h28.05c.98,0,1.48,.49,1.48,1.48v2.46c0,.98-.49,1.48-1.48,1.48h-27.07c1.48,6.4,2.95,15.75,5.41,26.57h21.16c.98,0,1.48,.49,1.48,1.48v2.46c0,.98-.49,1.48-1.48,1.48h-20.18l5.41,26.57h14.76c.98,0,1.48,.49,1.48,1.48v2.46c0,.49-.49,1.48-1.48,1.48h-13.78c5.41,28.54,10.83,54.62,10.83,56.1,.49,3.44,2.95,12.3,6.4,12.3,4.43,0,5.91-9.84,5.91-9.84l26.08-129.91s4.92-16.73-3.94-27.56"/></g></svg>