<?xml version="1.0" encoding="UTF-8"?><svg id="Capa_1" xmlns="http://www.w3.org/2000/svg" viewBox="0 0 467 568.86"><defs><style>.cls-1{fill:#fff;}.cls-2{fill:#c88b0c;}</style></defs><path class="cls-2" d="M4.92,80.7H461.59V4.92H4.92V80.7Zm462.08,4.92H0V0H466.51V85.62h.49Z"/><polygon class="cls-2" points="16.73 18.21 38.88 18.21 38.88 25.1 32.48 25.1 32.48 68.4 23.62 68.4 23.62 25.1 16.73 25.1 16.73 18.21"/><path class="cls-2" d="M49.21,52.16h6.89l-3.44-20.18-3.44,20.18Zm-10.33,15.75l9.35-50.19h9.35l9.84,50.19h-8.86l-1.48-9.35h-8.86l-1.48,9.35h-7.87Z"/><path class="cls-2" d="M80.21,25.1v15.75h2.95c2.95,0,3.94-1.48,3.94-3.94v-7.87c0-2.95-1.48-3.94-3.94-3.94h-2.95Zm0,20.18v23.13h-8.37V18.21h12.3c8.37,0,11.81,4.43,11.81,11.32v6.4c0,5.41-1.97,8.37-6.89,9.84l7.87,22.64h-8.86l-7.87-23.13Z"/><path class="cls-2" d="M113.67,41.34h11.81v26.57h-5.91v-5.41c-.98,3.94-3.44,5.91-7.87,5.91-7.38,0-10.33-5.91-10.33-13.29V31c0-7.87,3.94-13.29,12.79-13.29,9.35,0,11.81,5.41,11.81,12.79v4.43h-7.87v-4.92c0-2.95-.98-4.92-4.43-4.92-2.95,0-4.43,1.97-4.43,4.92v27.07c0,2.95,1.48,4.92,3.94,4.92,2.95,0,3.94-1.48,3.94-4.92v-8.86h-3.94v-6.89h.49Z"/><polygon class="cls-2" points="132.37 18.21 152.55 18.21 152.55 25.1 140.74 25.1 140.74 39.37 149.11 39.37 149.11 46.26 140.74 46.26 140.74 61.51 152.55 61.51 152.55 68.4 132.37 68.4 132.37 18.21"/><polygon class="cls-2" points="156.49 18.21 178.63 18.21 178.63 25.1 171.74 25.1 171.74 68.4 163.38 68.4 163.38 25.1 156.49 25.1 156.49 18.21"/><g><rect class="cls-2" x="0" y="102.36" width="466.51" height="466.51"/><path class="cls-1" d="M207.66,307.56c.98,.98,2.95,.98,3.94,0,.49-.49,.49-.98,.49-1.97l7.87-47.24v-.49c0-.98-.49-1.48-.98-1.97-.49-.49-1.48-.98-1.97-.98l-46.26,12.79h-.98c-.49,0-.98,.49-1.48,.98-.49,.49-.98,1.48-.98,1.97,0,.98,.49,1.48,.98,1.97l9.35,8.86c-4.43,2.95-9.35,4.92-14.76,5.91-3.94,.98-8.37,.98-12.3,.98-15.25,.49-29.53-6.4-39.37-17.72l.49-.49c-7.87-10.33-10.83-19.19-10.83-35.43,0-20.18,5.91-34.94,17.72-44.29,9.84-7.38,22.14-11.32,34.45-11.32,1.97,0,4.43,0,6.4,.49h.98c15.26,3.94,35.92,8.37,64.46,65.94,15.26,30.51,33.95,50.19,58.07,60.53,11.32,5.41,24.11,8.37,36.42,8.37,8.86,0,17.22-1.48,25.59-4.43,13.78-5.41,46.26-23.13,46.26-75.78,0-35.43-14.76-54.13-27.56-63.97-14.76-10.83-32.48-16.73-51.18-16.73-3.94,0-8.37,.49-12.3,.98h-.98c-12.3,2.95-32.48,7.87-56.1,36.91l-.49,.98c-.49,.49-.49,.98-.49,1.97,0,.49,0,.98,.49,1.48l.49,.98c3.94,6.4,7.38,12.3,9.84,16.73,.98,1.48,2.46,1.97,4.43,1.48,.49,0,.49-.49,.49-.49l.49-.49c20.18-28.05,36.42-31.99,46.75-34.45l1.48-.49c1.97-.49,4.43-.49,6.4-.49,12.79,0,25.1,3.94,35.43,11.32,11.81,9.35,17.72,24.11,17.72,44.29,0,33.46-16.24,46.75-30.02,51.67-5.41,1.97-10.83,2.95-16.73,2.95-8.86,0-17.22-1.97-25.1-5.91l-.49,.49c-11.81-4.92-29.53-15.75-45.77-49.21-34.45-67.91-62.99-74.31-81.69-78.74h-.98c-3.94-.98-7.87-.98-12.3-.98-18.21,0-35.92,5.41-50.19,16.73-12.3,9.84-27.07,29.03-27.07,63.97,0,21.16,4.43,35.43,15.75,50.69,14.76,18.21,36.42,28.54,60.04,28.54,5.91,0,11.81-.49,17.22-1.48,10.83-2.46,20.67-6.89,29.53-13.29l9.35,7.87Z"/><path class="cls-1" d="M382.85,369.56c0,7.38,5.91,13.78,13.78,13.78s13.78-5.91,13.78-13.78c0-7.38-5.91-13.78-13.78-13.78s-13.78,6.4-13.78,13.78"/><path class="cls-1" d="M412.38,388.26h-31.99c-9.35,.98-16.73,8.86-16.73,18.21v37.89c.49,2.95,2.95,4.92,5.91,4.92,2.46,0,4.43-2.46,4.92-4.92v-32.48c0-.98,.49-2.95,2.46-2.95s1.97,1.48,1.97,2.46v97.44c-.49,4.43,2.95,7.87,6.89,8.37,3.94,.49,7.87-2.95,8.37-6.89v-57.08c0-.98,.98-1.97,1.97-1.97s1.97,.98,1.97,1.97v56.59c0,4.43,3.44,7.38,7.87,7.38s7.38-3.44,7.38-7.38v-97.93c0-.98,.49-2.46,1.97-2.46s2.46,1.48,2.46,2.95v32.48c0,2.95,2.46,5.41,5.41,5.41s5.41-2.46,5.41-5.41v-37.89c.49-9.84-6.89-17.72-16.24-18.7"/><path class="cls-1" d="M268.69,376.95c0,6.89,5.91,12.79,12.79,12.79s12.79-5.91,12.79-12.79-5.91-12.79-12.79-12.79-12.79,5.41-12.79,12.79"/><path class="cls-1" d="M297.23,413.36c1.48-.49,1.97,1.48,1.97,1.48l8.86,29.03s1.48,6.4,6.89,4.92c5.41-1.48,3.44-7.87,3.44-7.87l-10.83-34.94s-3.94-9.84-12.3-9.84h-27.56c-8.37,0-12.3,9.84-12.3,9.84l-10.83,34.94s-1.97,6.4,3.44,7.87c5.41,1.48,6.89-4.92,6.89-4.92l8.86-29.03s.49-1.97,1.97-1.48c1.48,.49,.98,2.95,.98,2.95l-15.25,54.62h13.78v39.37c.49,3.94,3.44,6.4,7.38,5.91,3.44-.49,5.91-2.95,5.91-5.91v-39.37h3.94v39.37c.49,3.94,3.44,6.4,7.38,5.91,3.44-.49,5.91-2.95,5.91-5.91v-39.37h14.27l-15.26-54.62c.98,0,.49-2.46,2.46-2.95"/><path class="cls-1" d="M191.43,376.45c0,7.38,5.91,12.79,12.79,12.79,7.38,0,12.79-5.91,12.79-12.79s-5.91-12.79-12.79-12.79-12.79,5.91-12.79,12.79"/><path class="cls-1" d="M230.3,405.98s-3.94-10.33-12.3-10.33h-27.56c-8.37,0-12.3,10.33-12.3,10.33l-10.83,34.94s-1.97,6.4,3.44,7.87c5.41,1.48,6.89-4.43,6.89-4.43l8.86-29.03s.49-1.97,1.97-1.97,.98,2.95,.98,2.95l-14.76,54.62h13.78v38.88c-.49,3.94,2.46,6.89,5.91,7.38,3.94,.49,6.89-2.46,7.38-5.91v-39.86h3.94v38.88c-.49,3.94,2.46,6.89,5.91,7.38,3.94,.49,6.89-2.46,7.38-5.91v-39.86h13.78l-15.26-54.62s-.49-2.46,.98-2.95c1.48-.49,1.97,1.97,1.97,1.97l8.86,29.03s1.48,6.4,6.89,4.43c5.41-1.97,3.44-7.87,3.44-7.87l-9.35-35.92Z"/><path class="cls-1" d="M80.21,384.82c7.38,0,13.29-5.91,13.29-13.78,0-7.38-5.91-13.29-13.78-13.29s-13.29,5.91-13.29,13.78c0,7.38,5.91,13.29,13.78,13.29"/><path class="cls-1" d="M95.96,389.74h-31.49c-9.35,.98-16.73,8.86-16.73,18.21v37.4c0,1.48,.98,2.95,1.97,3.94l-11.81,63.48c0,.98,.49,1.97,1.48,2.46h.49c.98,0,1.97-.49,1.97-1.48l11.81-62.99c2.46-.49,4.43-2.46,4.43-4.92v-32.48c0-.98,.49-2.95,2.46-2.95s1.97,1.48,1.97,2.46v96.45c0,3.94,3.44,7.38,7.38,7.38s7.38-3.44,7.38-7.38v-55.61c0-.98,.98-1.97,1.97-1.97h.49c.98,0,1.97,.49,1.97,1.97v56.1c.49,3.94,3.94,7.38,8.37,6.89,3.94-.49,6.89-3.44,6.89-6.89v-96.94c0-.98,.49-2.46,1.97-2.46s2.95,1.48,2.95,2.46v31.99c.49,2.95,2.95,4.92,5.91,4.92,2.46,0,4.43-2.46,4.92-4.92v-36.91c-.49-9.35-7.38-17.22-16.73-18.21"/><path class="cls-1" d="M327.74,436.98c0,5.91,4.92,10.83,10.83,10.83s10.83-4.92,10.83-10.83-4.92-10.83-10.83-10.83-10.83,4.92-10.83,10.83"/><path class="cls-1" d="M361.2,469.46c-6.89-17.22-7.87-17.22-13.78-17.22h-16.73c-5.91,0-6.89,0-13.78,17.22-.98,2.46-4.92,11.81-4.92,12.3s-1.48,3.94,1.97,5.41c3.44,1.48,4.43-2.95,4.43-2.95l6.89-16.73s0-.49,.49-.49,0,.49,0,.49v43.3c0,2.95,2.46,5.91,5.41,5.91s5.41-2.46,5.41-5.91v-17.22s0-2.46,1.48-2.46,1.48,2.46,1.48,2.46v17.22c0,2.95,2.46,5.91,5.41,5.91s5.41-2.46,5.41-5.41v-44.29l.49,.49,5.91,14.76s1.97,3.94,4.92,2.46c2.95-1.48,1.48-4.92,1.48-4.92,0,0-1.48-7.87-1.97-10.33"/><path class="cls-1" d="M161.9,441.41c-1.97-.98-4.43-.49-5.41,1.97-1.97,3.44-4.43,7.38-6.89,10.33-.98,.98-1.97,1.48-3.44,1.48h-13.29c-1.48,0-2.46-.49-3.44-1.48-1.48-1.48-6.89-10.83-6.89-10.83-.49-.98-1.97-1.97-3.44-1.97-1.97,0-3.94,1.48-3.94,3.94,0,.49,0,.98,.49,1.97l10.83,19.68c.49,.98,.49,1.48,.49,2.46v2.95c0,.98,0,2.46-.49,3.44l-5.41,20.67h5.91v15.25c-.49,2.95,1.97,5.41,4.92,5.91,2.95,.49,5.41-1.97,5.91-4.92v-16.24h3.44v15.25c-.49,2.95,1.97,5.41,4.92,5.91,2.95,.49,5.41-1.97,5.91-4.92v-16.24h5.91l-4.92-20.67c-.49-.98-.49-1.97-.49-2.95v-3.44c0-.98,.49-1.97,.49-2.46l9.84-18.21,.98-1.97c.49-1.48,0-3.94-1.97-4.92q0,.49,0,0"/><path class="cls-1" d="M139.76,448.79c5.91,0,10.83-4.92,10.83-10.83s-4.92-10.83-10.83-10.83-10.83,4.92-10.83,10.83,4.92,10.83,10.83,10.83"/></g><polygon class="cls-2" points="366.61 18.21 366.61 68.4 358.25 68.4 358.25 30.02 352.34 35.92 352.34 27.07 360.22 18.21 366.61 18.21"/><path class="cls-2" d="M373.5,59.05c0-4.92,1.48-8.37,6.4-13.29l4.92-4.92c2.46-2.95,2.46-4.43,2.46-8.86v-3.94c0-2.95-.98-3.94-2.95-3.94s-3.44,.98-3.44,3.94v6.4h-7.87v-5.91c0-6.89,3.94-10.83,11.32-10.83s10.83,3.44,10.83,10.33v4.92c0,4.92-.98,7.87-5.41,12.79l-5.41,5.91c-1.97,2.46-3.44,3.94-3.44,7.87v2.46h13.78v6.89h-21.65v-9.84h.49Z"/><path class="cls-2" d="M409.42,37.4c3.44,0,5.91,2.95,5.91,5.91,0,3.44-2.95,5.91-5.91,5.91-3.44,0-5.91-2.95-5.91-5.91-.49-3.44,2.46-5.91,5.91-5.91"/><path class="cls-2" d="M439.44,32.48v-3.44c0-2.95-.98-4.92-3.94-4.92s-3.94,1.97-3.94,4.92v3.44c0,2.95,.98,4.92,3.94,4.92s3.94-1.97,3.94-4.92m0,24.11v-7.87c0-2.95-.98-4.92-3.94-4.92s-3.94,1.97-3.94,4.92v7.87c0,2.95,.98,4.92,3.94,4.92,2.95,.49,3.94-1.97,3.94-4.92m-16.73-.98v-5.41c0-4.92,1.48-8.37,5.41-9.84-3.44-1.48-4.92-4.43-4.92-8.86v-1.97c0-7.87,3.94-11.81,11.81-11.81s11.81,4.43,11.81,11.81v1.97c0,3.94-1.48,6.89-4.92,8.86,3.94,1.97,5.41,5.41,5.41,9.84v5.41c0,7.38-3.44,12.79-12.3,12.79-8.37,.49-12.3-4.92-12.3-12.79"/></svg>