<?xml version="1.0" encoding="UTF-8"?><svg id="Capa_1" xmlns="http://www.w3.org/2000/svg" viewBox="0 0 467 568.37"><defs><style>.cls-1{fill:#fff;}.cls-2{fill:#fcbc00;}</style></defs><path class="cls-2" d="M4.92,80.7H461.59V4.92H4.92V80.7Zm462.08,4.92H0V0H466.51V85.62h.49Z"/><polygon class="cls-2" points="16.73 17.72 38.88 17.72 38.88 24.6 32.48 24.6 32.48 67.91 23.62 67.91 23.62 24.6 16.73 24.6 16.73 17.72"/><path class="cls-2" d="M49.21,52.16h6.89l-3.44-20.18-3.44,20.18Zm-10.33,15.75l9.35-50.19h9.35l9.84,50.19h-8.86l-1.48-9.35h-8.86l-1.48,9.35h-7.87Z"/><path class="cls-2" d="M80.21,24.6v15.75h2.95c2.95,0,3.94-1.48,3.94-3.94v-7.38c0-2.95-1.48-3.94-3.94-3.94h-2.95v-.49Zm0,20.18v23.13h-8.37V17.72h12.3c8.37,0,11.81,4.43,11.81,11.32v6.4c0,5.41-1.97,8.37-6.89,9.84l7.87,22.64h-8.86l-7.87-23.13Z"/><path class="cls-2" d="M113.67,41.34h11.81v26.57h-5.91v-5.41c-.98,3.94-3.44,5.91-7.87,5.91-7.38,0-10.33-5.91-10.33-13.29V31c0-7.87,3.94-13.29,12.79-13.29,9.35,0,11.81,5.41,11.81,12.79v4.43h-7.87v-4.92c0-2.95-.98-4.92-4.43-4.92-2.95,0-4.43,1.97-4.43,4.92v27.07c0,2.95,1.48,4.92,3.94,4.92,2.95,0,3.94-1.48,3.94-4.92v-9.35h-3.94v-6.4h.49Z"/><polygon class="cls-2" points="132.37 17.72 152.55 17.72 152.55 24.6 140.74 24.6 140.74 38.88 149.11 38.88 149.11 45.77 140.74 45.77 140.74 61.02 152.55 61.02 152.55 67.91 132.37 67.91 132.37 17.72"/><polygon class="cls-2" points="156.49 17.72 178.63 17.72 178.63 24.6 171.74 24.6 171.74 67.91 163.38 67.91 163.38 24.6 156.49 24.6 156.49 17.72"/><polygon class="cls-2" points="377.44 17.72 398.6 17.72 398.6 25.59 387.28 67.91 378.91 67.91 390.23 24.6 377.44 24.6 377.44 17.72"/><path class="cls-2" d="M412.38,36.91c3.44,0,5.91,2.95,5.91,5.91,0,3.44-2.95,5.91-5.91,5.91-3.44,0-5.91-2.95-5.91-5.91-.49-2.95,2.46-5.91,5.91-5.91"/><path class="cls-2" d="M425.66,58.56c0-4.92,1.48-8.37,6.4-13.29l4.92-4.92c2.95-2.95,2.95-4.43,2.95-8.86v-3.44c0-2.95-1.48-3.94-2.95-3.94-1.97,0-3.44,.98-3.44,3.94v6.4h-7.87v-6.4c0-6.89,3.94-10.83,11.32-10.83s10.83,3.44,10.83,10.33v4.92c0,4.92-.98,7.87-5.41,12.79l-5.41,5.91c-1.97,2.46-3.44,3.94-3.44,7.87v2.46h13.78v6.89h-21.65v-9.84Z"/><g><rect class="cls-2" x="0" y="101.86" width="466.51" height="466.51"/><path class="cls-1" d="M231.78,361.69c-15.26,0-27.56-12.3-27.56-27.56,0-12.3,7.87-22.64,19.19-26.57v10.83c-8.86,4.43-12.3,15.25-7.87,24.11,4.43,8.86,15.26,12.3,24.11,7.87,8.86-4.43,12.3-15.25,7.87-24.11-1.97-3.44-4.43-6.4-7.87-7.87v-10.33c14.27,4.43,22.64,19.68,18.21,34.45-3.44,11.81-14.27,19.68-26.08,19.19m-3.94-59.05c0-1.97,1.97-3.44,3.94-3.94,1.97,0,3.94,1.48,3.94,3.94v18.21c0,1.97-1.97,3.44-3.94,3.94-1.97,0-3.94-1.48-3.94-3.94v-18.21Zm3.94-20.67c-29.03,0-53.15,23.62-53.15,53.15s23.62,53.15,53.15,53.15,53.15-23.62,53.15-53.15c-.49-29.53-24.11-53.15-53.15-53.15"/><path class="cls-1" d="M170.76,334.63c0-2.46-1.97-3.94-3.94-4.43h-23.13c-2.46,0-3.94,1.97-3.94,4.43s1.97,3.94,3.94,4.43h23.13c2.46-.49,3.94-2.46,3.94-4.43"/><path class="cls-1" d="M319.86,330.2h-23.13c-2.46,0-3.94,1.97-3.94,4.43s1.97,4.43,3.94,4.43h23.13c2.46,0,3.94-1.97,3.94-4.43s-1.97-4.43-3.94-4.43"/><path class="cls-1" d="M231.78,273.61c2.46,0,3.94-1.97,4.43-3.94v-23.13c-.49-2.46-2.46-3.94-4.92-3.94-1.97,0-3.44,1.97-3.94,3.94v23.13c0,2.46,1.97,3.94,4.43,3.94"/><path class="cls-1" d="M231.78,395.15c-2.46,0-4.43,1.97-4.43,3.94v23.13c.49,2.46,2.46,3.94,4.92,3.94,1.97,0,3.44-1.97,3.94-3.94v-23.13c-.49-1.97-2.46-3.94-4.43-3.94"/><path class="cls-1" d="M153.04,294.27l20.18,11.32c2.46,.49,4.92-.49,5.41-2.95,.49-1.48,0-3.44-.98-4.43l-20.18-11.32c-1.97-.98-4.43,0-5.91,1.48-.98,2.46,0,4.92,1.48,5.91"/><path class="cls-1" d="M309.91,374.49l-20.09-11.81c-2.45-.98-4.9,0-5.88,2.46-.98,1.97,0,3.94,1.47,5.41l20.09,11.32c1.96,.98,4.41,0,5.88-1.48,.98-2.46,.49-4.92-1.47-5.91"/><path class="cls-1" d="M261.8,281.48c1.97,.98,4.43,.49,5.91-1.48l11.32-20.18c.98-1.97,0-4.92-1.97-5.91-1.97-.98-4.43-.49-5.41,1.48l-11.32,20.18c-1.48,2.46-.49,4.92,1.48,5.91"/><path class="cls-1" d="M201.27,387.4c-1.97-.98-4.43-.49-5.91,1.47l-11.32,20.09c-.98,1.96,0,4.9,1.97,5.88,1.97,.98,4.43,.49,5.41-1.47l11.32-20.09c1.48-2.45,.49-4.9-1.48-5.88"/><path class="cls-1" d="M195.36,280.5c1.48,1.97,3.94,2.46,5.91,1.48,1.97-.98,2.95-3.44,1.48-5.91l-11.32-20.18c-.98-1.97-3.94-2.95-5.91-1.48-1.97,.98-2.95,3.94-1.48,5.91l11.32,20.18Z"/><path class="cls-1" d="M267.7,388.26c-1.48-1.97-3.94-2.46-5.91-.98-1.97,.98-2.95,3.44-1.48,5.91l11.32,20.18c.98,1.97,3.94,2.95,5.91,1.48,1.97-.98,2.95-3.94,1.48-5.91l-11.32-20.67Z"/><path class="cls-1" d="M289.85,306.08l20.18-11.32c1.97-.98,2.95-3.94,1.48-5.91-.98-1.97-3.94-2.95-5.91-1.48l-20.18,11.32c-1.97,.98-2.95,3.94-1.48,5.91,1.48,1.97,3.94,2.46,5.91,1.48"/><path class="cls-1" d="M173.22,363.17l-20.18,11.32c-1.97,.98-2.95,3.94-1.97,5.91,.98,1.97,3.94,2.95,5.91,1.97l20.18-11.32c1.97-1.48,2.46-3.94,1.48-5.91-.98-1.97-3.44-2.95-5.41-1.97"/><path class="cls-1" d="M349.39,219.97l-8.86,9.84c-51.67-45.27-130.41-39.86-175.68,11.81-7.38,8.37-13.78,18.21-18.7,28.05,34.94-59.05,111.71-78.74,170.76-43.8,5.91,3.44,11.32,7.38,16.24,11.32l-8.86,9.84c-2.46,2.95-2.46,7.38,.49,9.84l19.68,17.72,5.41-6.4,16.24,14.76,5.41-5.91-16.24-14.76,12.79-14.27,16.24,14.76,5.41-5.91-16.24-14.76,5.41-5.91-19.68-17.72c-2.95-1.97-7.38-1.48-9.84,1.48"/><path class="cls-1" d="M328.23,146.15c-7.87,1.97-25.59,4.92-33.95,14.27-7.38,8.37-9.35,19.19-3.44,34.94,0,0,36.42-13.78,44.29-40.84-3.44,21.16-18.7,38.38-39.37,43.8,0,0,21.65,12.3,38.88-11.32,17.22-23.62,7.38-52.16,7.38-52.16-3.44,5.41-7.87,9.35-13.78,11.32"/><path class="cls-1" d="M109.25,451.25l8.86-9.84c52.16,45.27,130.9,39.37,176.17-12.79,7.38-8.37,13.29-17.72,18.21-28.05-35.43,59.05-111.71,78.74-170.76,43.3-5.41-3.44-10.83-6.89-15.75-11.32l8.86-9.84c2.46-2.95,2.46-7.38-.49-9.84l-19.68-17.72-5.41,5.91-16.24-14.76-5.91,6.4,16.24,14.76-13.29,14.27-16.24-14.76-5.41,5.91,16.24,14.76-5.41,5.91,19.68,17.72c2.95,2.95,7.38,2.95,10.33,0"/><path class="cls-1" d="M130.41,524.58c7.87-1.97,25.59-4.92,33.95-14.27,7.38-8.37,9.35-19.19,3.44-34.94,0,0-36.42,13.78-44.29,40.84,3.44-21.16,18.7-38.38,39.37-43.8,0,0-21.65-12.3-38.88,11.32-17.22,23.62-7.38,51.67-7.38,51.67,3.44-4.92,7.87-8.86,13.78-10.83"/><path class="cls-1" d="M117.61,215.05l9.84,8.86c-45.27,52.16-39.37,130.9,12.79,176.17,8.37,7.38,17.72,13.29,28.05,18.21-59.05-35.43-78.24-111.71-43.3-170.76,3.44-5.41,6.89-10.83,11.32-15.75l9.84,8.86c2.95,2.46,7.38,2.46,9.84-.49l17.72-19.68-5.91-5.41,14.76-16.24-5.91-5.41-14.76,16.24-14.27-13.29,14.76-16.24-6.4-5.41-14.76,16.24-5.91-5.41-17.72,19.68c-2.95,2.95-2.46,7.38,0,9.84"/><path class="cls-1" d="M44.29,236.21c1.97,7.87,4.92,25.59,14.27,33.95,8.37,7.38,19.19,9.35,34.94,3.44,0,0-14.27-36.42-40.84-44.29,21.16,3.44,38.38,18.7,43.8,39.37,0,0,12.3-21.65-11.32-38.88-23.62-17.22-52.16-7.38-52.16-7.38,5.41,3.44,9.35,8.37,11.32,13.78"/><path class="cls-1" d="M348.9,455.19l-9.84-8.86c45.27-52.16,39.37-130.9-12.3-176.17-8.37-7.38-17.72-13.29-28.05-18.21,59.05,35.43,78.24,111.71,43.3,170.76-3.44,5.41-6.89,10.83-11.32,15.75l-9.84-8.86c-2.95-2.46-7.38-2.46-9.84,.49l-17.72,19.68,6.4,5.91-14.76,16.24,5.91,5.41,14.76-16.24,14.27,13.29-14.76,16.24,5.91,5.41,14.76-16.24,5.91,5.41,17.72-19.68c2.95-2.46,2.95-7.38-.49-10.33q.49,.49,0,0"/><path class="cls-1" d="M422.71,434.03c-1.97-7.87-4.92-25.59-14.27-33.95-8.37-7.38-19.19-9.35-34.94-3.44,0,0,13.78,36.42,40.84,44.29-21.16-3.44-38.38-18.7-43.8-39.37,0,0-12.3,21.65,11.32,38.88,23.62,17.22,52.16,7.87,52.16,7.87-5.41-3.44-9.35-8.37-11.32-14.27"/></g></svg>