<?xml version="1.0" encoding="UTF-8"?><svg id="Capa_1" xmlns="http://www.w3.org/2000/svg" viewBox="0 0 467 568.37"><defs><style>.cls-1{fill:#fff;}.cls-2{fill:#e4003b;}</style></defs><path class="cls-2" d="M4.92,80.7H461.59V4.92H4.92V80.7Zm462.08,4.92H0V0H466.51V85.62h.49Z"/><polygon class="cls-2" points="16.73 17.72 38.88 17.72 38.88 24.6 32.48 24.6 32.48 67.91 23.62 67.91 23.62 24.6 16.73 24.6 16.73 17.72"/><path class="cls-2" d="M49.21,52.16h6.89l-3.44-20.18-3.44,20.18Zm-10.33,15.75l9.35-50.19h9.35l9.84,50.19h-8.86l-1.48-9.35h-8.86l-1.48,9.35h-7.87Z"/><path class="cls-2" d="M80.21,24.6v15.75h2.95c2.95,0,3.94-1.48,3.94-3.94v-7.38c0-2.95-1.48-3.94-3.94-3.94h-2.95v-.49Zm0,20.67v23.13h-8.37V17.72h12.3c8.37,0,11.81,4.43,11.81,11.32v6.4c0,5.41-1.97,8.37-6.89,9.84l7.87,22.64h-8.86l-7.87-22.64Z"/><path class="cls-2" d="M113.67,41.34h11.81v26.57h-5.91v-5.41c-.98,3.94-3.44,5.91-7.87,5.91-7.38,0-10.33-5.91-10.33-13.29V31c0-7.87,3.94-13.29,12.79-13.29,9.35,0,11.81,5.41,11.81,12.79v4.43h-7.87v-4.92c0-2.95-.98-4.92-4.43-4.92-2.95,0-4.43,1.97-4.43,4.92v27.07c0,2.95,1.48,4.92,3.94,4.92,2.95,0,3.94-1.48,3.94-4.92v-9.35h-3.94v-6.4h.49Z"/><polygon class="cls-2" points="132.37 17.72 152.55 17.72 152.55 24.6 140.74 24.6 140.74 38.88 149.11 38.88 149.11 45.77 140.74 45.77 140.74 61.02 152.55 61.02 152.55 67.91 132.37 67.91 132.37 17.72"/><polygon class="cls-2" points="156.49 17.72 178.63 17.72 178.63 24.6 171.74 24.6 171.74 67.91 163.38 67.91 163.38 24.6 156.49 24.6 156.49 17.72"/><polygon class="cls-2" points="394.66 17.72 394.66 67.91 386.3 67.91 386.3 29.53 380.39 35.43 380.39 27.07 388.26 18.21 394.66 18.21 394.66 17.72"/><path class="cls-2" d="M409.92,36.91c3.44,0,5.91,2.95,5.91,5.91,0,3.44-2.95,5.91-5.91,5.91-3.44,0-5.91-2.95-5.91-5.91s2.95-5.91,5.91-5.91"/><path class="cls-2" d="M429.6,53.15h7.38v-20.67l-7.38,20.67Zm-7.38,1.48l14.76-36.91h8.37V53.15h3.44v6.4h-3.44v8.37h-7.87v-8.37h-14.76v-4.92h-.49Z"/><g><rect class="cls-2" x="0" y="101.86" width="466.51" height="466.51"/><path class="cls-1" d="M295.26,405c6.89,0,12.3-5.41,12.3-12.3s-5.41-12.3-12.3-12.3-12.3,5.41-12.3,12.3c.49,6.89,5.91,12.3,12.3,12.3"/><path class="cls-1" d="M329.71,453.22l-9.84-32.97s-3.44-9.35-11.32-9.35h-26.08c-7.87,0-11.32,9.35-11.32,9.35l-9.84,32.97s-1.97,5.91,2.95,7.38c4.92,1.48,6.4-4.43,6.4-4.43l8.37-27.56s.49-1.97,1.97-1.48,.98,2.95,.98,2.95l-14.27,51.18h13.29v36.91c.49,3.44,3.44,5.91,6.89,5.91,2.95-.49,5.41-2.46,5.91-5.91v-36.91h3.44v36.91c0,3.44,2.95,6.4,6.4,6.4s6.4-2.95,6.4-6.4v-36.91h13.29l-14.27-51.18s-.49-2.46,.98-2.95,1.97,1.48,1.97,1.48l8.37,27.56s1.48,5.91,6.4,4.43c4.92-1.48,2.95-7.38,2.95-7.38"/><path class="cls-1" d="M176.17,400.57c6.89,0,12.79-5.91,12.79-12.79s-5.91-12.79-12.79-12.79-12.79,5.91-12.79,12.79,5.91,12.79,12.79,12.79"/><path class="cls-1" d="M190.93,405.49h-29.53c-8.86,.98-15.26,7.87-15.26,16.73v35.43c0,1.48,.98,2.95,1.97,3.94l-11.32,59.54c0,.98,.49,1.97,1.48,2.46h.49c.98,0,1.97-.49,1.97-1.48l11.32-59.05c2.46-.49,4.43-2.46,3.94-4.92v-30.02c0-.98,.49-2.46,2.46-2.46s1.48,1.48,1.97,2.46v90.55c-.49,3.94,2.46,7.38,6.4,7.87,3.94,.49,7.38-2.46,7.87-6.4v-55.11c0-.98,.49-1.97,1.97-1.97h.49c.98,0,1.97,.49,1.97,1.97v52.65c-.49,3.94,2.46,7.38,6.4,7.87,3.94,.49,7.38-2.46,7.87-6.4v-92.02c0-.98,.49-2.46,1.97-2.46s2.46,1.48,2.46,2.46v30.02c0,2.95,1.97,4.92,4.92,4.92s4.92-1.97,4.92-4.92v-34.94c-1.48-8.86-7.87-16.24-16.73-16.73"/><path class="cls-1" d="M255.4,453.71c-1.97-.98-3.94,0-4.92,1.48-1.97,3.44-3.94,6.89-6.4,9.84-.98,.98-1.97,1.48-2.95,1.48h-12.3c-.98,0-2.46-.49-2.95-1.48-1.48-1.48-6.4-9.84-6.4-10.33-.49-.98-1.97-1.97-2.95-1.48-1.97,0-3.44,1.48-3.94,3.44,0,.49,0,.98,.49,1.48l10.33,18.7c.49,.98,.49,1.48,.49,2.46v2.95c0,.98,0,1.97-.49,2.95l-4.92,19.68h5.41v14.27c0,2.95,1.97,4.92,4.92,4.92s4.92-1.97,4.92-4.92v-14.27h2.95v14.27c0,2.95,1.97,4.92,4.92,4.92s4.92-1.97,4.92-4.92v-14.27h5.41l-4.92-19.68c0-.98-.49-1.48-.49-2.46v-2.95c0-.98,.49-1.48,.49-2.46l9.35-17.22,.98-1.97c0-1.97-.49-3.44-1.97-4.43"/><path class="cls-1" d="M234.73,460.6c5.41,0,9.84-4.92,9.84-10.33s-4.92-9.84-10.33-9.84-9.84,4.43-9.84,10.33c0,4.92,4.43,9.84,10.33,9.84"/><path class="cls-1" d="M83.16,384.33s-7.87,8.37-7.87,14.76c0,4.92,5.91,8.37,7.87,9.35,0,0,7.87-4.43,7.87-9.84,0-5.91-7.87-14.27-7.87-14.27"/><path class="cls-1" d="M65.45,400.07s-.98,13.78,4.92,18.21c0,0,1.97,2.46,11.32,3.94,0,0,.98-8.86-2.46-12.79,0,0-1.97-2.95-13.78-9.35"/><path class="cls-1" d="M64.46,417.3s-1.48,15.26,5.41,19.68c0,0,1.97,2.95,12.3,4.43,0,0,.98-9.84-2.95-13.78,0-.49-1.97-3.44-14.76-10.33"/><path class="cls-1" d="M64.96,436.98s-1.97,16.73,4.43,21.16c0,0,2.46,2.95,12.79,4.43,0,0,1.48-9.84-2.46-14.27,0,0-1.97-3.94-14.76-11.32"/><path class="cls-1" d="M62.99,456.67s-.98,17.22,5.41,21.65c3.94,2.95,8.86,4.43,13.78,4.92,0,0,.98-10.83-2.46-15.25-4.92-4.43-10.83-8.37-16.73-11.32"/><path class="cls-1" d="M100.88,399.58s1.48,13.78-4.43,18.21c0,0-1.97,2.46-11.32,4.43,0,0-.98-8.86,2.46-12.79-.49,0,1.48-2.95,13.29-9.84"/><path class="cls-1" d="M101.86,416.81s1.48,15.26-4.92,19.68c0,0-1.97,2.95-12.3,4.43,0,0-.98-9.84,2.46-13.78,.49,0,2.46-2.95,14.76-10.33"/><path class="cls-1" d="M101.86,436.49s2.46,16.24-3.94,21.16c0,0-2.46,2.95-12.79,4.92,0,0-1.48-9.84,1.97-14.27,0,0,2.46-4.43,14.76-11.81"/><path class="cls-1" d="M104.32,456.67s1.48,17.22-5.41,21.65c-3.94,2.95-8.86,4.43-13.29,4.92,0,0-1.48-10.83,2.46-15.25,4.43-4.92,10.33-8.86,16.24-11.32"/><path class="cls-1" d="M68.4,369.56c0-.98-.98-1.48-1.97-.98-.49,0-.98,.49-.98,.98l.49,27.56,2.95,1.48-.49-29.03Z"/><path class="cls-1" d="M74.31,364.64c0-.98-.49-1.48-1.48-1.48s-1.48,.49-1.48,1.48l.49,32.97c.49-2.46,1.48-4.92,2.95-7.38l-.49-25.59Z"/><path class="cls-1" d="M80.7,356.77c0-.98-.49-1.48-1.48-1.48s-1.48,.49-1.48,1.48v28.54l2.95-3.94v-24.6Z"/><path class="cls-1" d="M96.94,369.07c0-.98,.49-1.48,1.48-1.48s1.48,.49,1.48,1.48l.49,27.56-2.95,1.97-.49-29.53Z"/><path class="cls-1" d="M91.04,364.64c0-.98,.49-1.48,1.48-1.48s1.48,.49,1.48,1.48l.49,32.97c-.98-2.46-1.97-4.92-2.95-7.38l-.49-25.59Z"/><path class="cls-1" d="M84.64,356.77c0-.98,.49-1.48,1.48-1.48s1.48,.49,1.48,1.48l.49,28.54c-.98-1.48-2.46-2.95-2.95-3.94l-.49-24.6Z"/><rect class="cls-1" x="81.69" y="485.7" width="4.43" height="38.88"/><path class="cls-1" d="M382.85,381.38s-7.87,8.37-7.87,14.76c0,5.41,5.91,8.37,7.87,9.35,0,0,7.87-4.43,7.87-9.84,0-5.91-7.87-14.27-7.87-14.27"/><path class="cls-1" d="M365.14,397.12s-.98,13.78,4.92,18.21c0,0,1.97,2.46,11.32,3.94,0,0,.98-8.86-2.46-12.79,0,0-1.97-2.95-13.78-9.35"/><path class="cls-1" d="M364.15,413.85s-1.48,15.26,5.41,19.68c0,0,1.97,2.95,12.3,4.43,0,0,.98-9.84-2.95-13.78,0,0-1.97-2.95-14.76-10.33"/><path class="cls-1" d="M364.64,434.03s-1.97,16.24,4.43,21.16c0,0,2.46,2.95,12.79,4.43,0,0,1.48-10.33-2.46-14.27,0,0-1.97-3.94-14.76-11.32"/><path class="cls-1" d="M362.68,453.71s-.98,17.22,5.41,21.65c3.94,2.95,8.86,4.43,13.78,4.92,0,0,.98-10.83-2.46-15.25-4.92-4.43-10.33-8.37-16.73-11.32"/><path class="cls-1" d="M400.57,396.63s1.48,13.78-4.43,18.21c0,0-1.97,2.46-11.32,3.94,0,0-.98-8.86,2.46-12.79-.49,0,.98-2.46,13.29-9.35"/><path class="cls-1" d="M401.55,413.85s1.48,15.26-4.92,19.68c0,0-1.97,2.95-12.3,4.43,0,0-.98-9.84,2.46-13.78,.49,0,2.46-2.95,14.76-10.33"/><path class="cls-1" d="M401.55,433.54s2.46,16.24-3.94,21.16c0,0-2.46,2.95-12.79,4.92,0,0-1.48-10.33,1.97-14.27,0,0,1.97-4.43,14.76-11.81"/><path class="cls-1" d="M404.01,453.71s.98,17.22-5.41,21.65c-3.94,2.95-8.37,4.43-13.29,4.92,0,0-1.48-10.83,2.46-15.25,4.43-4.92,9.84-8.86,16.24-11.32"/><path class="cls-1" d="M368.09,366.61c0-.98-.49-1.48-1.48-1.48s-1.48,.49-1.48,1.48v27.56l2.95,1.48v-29.03Z"/><path class="cls-1" d="M373.99,361.69c0-.98-.49-1.48-1.48-1.48s-1.48,.49-1.48,1.48l.49,32.97c.49-2.46,1.48-4.92,2.95-7.38l-.49-25.59Z"/><path class="cls-1" d="M380.39,353.82c0-.98-.49-1.48-1.48-1.48s-1.48,.49-1.48,1.48v28.54l2.95-3.94v-24.6Z"/><path class="cls-1" d="M396.63,366.12c0-.98,.49-1.48,1.48-1.48s1.48,.49,1.48,1.48v27.56l-2.46,1.97-.49-29.53Z"/><path class="cls-1" d="M390.72,361.2c0-.98,.49-1.48,1.48-1.48s1.48,.49,1.48,1.48l.49,32.97c-.98-2.46-1.97-4.92-2.95-7.38l-.49-25.59Z"/><path class="cls-1" d="M384.33,353.82c0-.98,.49-1.48,1.48-1.48s1.48,.49,1.48,1.48v28.54l-2.95-3.94v-24.6Z"/><rect class="cls-1" x="381.38" y="482.75" width="4.43" height="38.88"/><path class="cls-1" d="M121.06,280h-29.53v-29.53h29.53v29.53Zm79.72-57.58H67.91c-.49,0-.98,.49-.98,.98v87.1c0,.49,.49,.98,.98,.98h76.27v-61.02h31.49v61.02h25.1c.49,0,.98-.49,.98-.98v-87.1c0-.49-.49-.98-.98-.98"/><path class="cls-1" d="M134.34,147.14c-.49-.49-.98-.98-1.97-.98s-1.48,.49-1.97,.98l-.49,.49L58.56,214.55c-.49,.49-.49,.98,0,.98H209.63c.49,0,.49-.49,.49-.98v-.49l-75.29-66.43-.49-.49Z"/><path class="cls-1" d="M390.23,240.64c-1.48,0-2.95-1.48-2.95-2.95,0-.98,.49-1.48,.98-1.97,.49-.49,1.48-.98,1.97-.98,1.48,0,2.95,1.48,2.95,2.95,0,1.97-.98,2.95-2.95,2.95m.98,9.35c-.49,.49-.98,.49-1.48,.49h-.49c-1.48-.49-2.46-1.97-1.97-3.44,.49-1.48,1.48-2.46,2.95-1.97,1.48,.49,2.46,1.97,2.46,3.44-.49,.49-.98,1.48-1.48,1.48m-1.48,8.37c-.49,.98-1.48,1.97-2.95,1.97h-.98c-.49-.49-1.48-.98-1.48-1.48-.49-.49-.49-1.48,0-2.46,.49-.49,.98-1.48,1.48-1.48,1.48-.49,2.95,0,3.94,1.48v1.97Zm-4.43,9.84c-.49,.98-1.48,1.48-2.46,1.48-.49,0-.98,0-1.48-.49-1.48-.98-1.97-2.46-.98-3.94,.49-.49,.98-.98,1.48-1.48,.98,0,1.48,0,1.97,.49,1.48,.98,1.97,2.46,1.48,3.94m-6.4-65.45c-.49,.49-.98,.49-1.97,.49s-1.48-.49-1.97-.98c-.49-.49-.49-1.48-.49-1.97,0-.98,.49-1.48,.98-1.97,.98-.98,2.95-.98,3.94,.49,.49,.49,.49,1.48,.49,1.97,0,.98-.49,1.48-.98,1.97m0,74.31c-.49,.49-.98,.98-1.97,.98-.49,0-1.48,0-1.97-.49-.98-.98-.98-2.95,0-3.94,.49-.49,.98-.98,1.97-.98s1.48,0,1.97,.49c.49,.49,.98,.98,.98,1.97,0,.49-.49,1.48-.98,1.97m-6.89-81.69c-.49,.49-.98,.98-1.97,.98-.49,0-1.48,0-1.97-.49-.98-.98-1.48-2.95-.49-3.94,.98-.98,2.95-1.48,3.94-.49,.49,.49,.98,.98,.98,1.97,.49,.49,0,1.48-.49,1.97m-.98,89.07c-.49,.49-.98,.49-1.97,.49-.49,0-1.48-.49-1.97-.98-.49-.49-.49-1.48-.49-1.97,0-.98,.49-1.48,.98-1.97,.49-.49,1.48-.49,1.97-.49,.98,0,1.48,.49,1.97,.98,1.48,.98,1.48,2.95-.49,3.94m-8.37,5.91c-.49,.49-.98,.49-1.48,.49h-.98c-.98,0-1.48-.49-1.97-1.48-.49-.49-.49-1.48,0-2.46,0-.49,.49-1.48,1.48-1.48,.49-.49,1.48-.49,1.97-.49,.98,0,1.48,.49,1.97,1.48,.98,1.48,.49,3.44-.98,3.94m-7.87,2.95c-.49,.49-.98,.98-1.48,1.48h-1.97c-.49-.49-.98-.98-1.48-1.48-.49-.49-.49-1.48,0-2.46,.49-.49,.98-.98,1.48-1.48,1.48-.49,2.95,.49,3.44,1.97v1.97Zm-9.84,2.95c-.49,.49-.98,.98-1.97,.98h-.49c-1.48,0-2.95-.98-2.95-2.46s.98-2.95,2.46-2.95c.98,0,1.48,0,1.97,.49,.49,.49,.98,.98,.98,1.97,.49,.49,.49,1.48,0,1.97m-12.79,2.46c-1.48,0-2.95-1.48-2.95-2.95s1.48-2.95,2.95-2.95,2.95,1.48,2.95,2.95-.98,2.95-2.95,2.95m-9.84-.98h-.49c-1.48-.49-2.46-1.97-2.46-3.44,.49-1.48,1.97-2.46,3.44-2.46,1.48,.49,2.46,1.97,2.46,3.44-.49,1.48-1.48,2.46-2.95,2.46m-6.89-4.43c-.49,.98-1.48,1.97-2.95,1.97h-.98c-1.48-.49-2.46-1.97-1.97-3.44,.49-1.48,1.97-2.46,3.44-1.97,1.97,0,2.95,1.97,2.46,3.44m-9.35-3.94c-.49,.98-1.48,1.48-2.46,1.48-.49,0-.98,0-1.48-.49-1.48-.98-1.97-2.46-.98-3.94,.98-1.48,2.46-1.97,3.94-.98,1.48,.98,1.97,2.46,.98,3.94m-7.38-28.05h2.46v-3.94s0-.49,.49-.49h62.99s.49,0,.49,.49v3.94h2.46v3.94h-68.89v-3.94Zm-.98,22.64c-.49,.49-1.48,.98-1.97,.98s-1.48,0-1.97-.49c-.49-.49-.98-.98-.98-1.97,0-1.48,.98-2.95,2.46-2.95,.98,0,1.48,0,1.97,.49,.49,.49,.98,.98,.98,1.97,0,.49,0,1.48-.49,1.97m-7.87-6.89c-.49,.49-.98,.49-1.97,.49s-1.48-.49-2.46-.98c-.98-.98-.98-2.95,.49-3.94,.49-.49,1.48-.49,1.97-.49,.98,0,1.48,.49,1.97,.98,1.48,1.48,1.48,2.95,0,3.94m-3.94-78.74c.49-.49,.98-.98,1.97-.98s1.48,0,1.97,.49c.49,.49,.98,.98,.98,1.97s0,1.48-.49,1.97c-.49,.49-1.48,.98-1.97,.98s-1.48,0-1.97-.49c-.98-.49-1.48-2.46-.49-3.94m-.49,68.89c0,.49-.49,1.48-1.48,1.97-.49,.49-.98,.49-1.48,.49-1.48,0-2.95-1.48-2.95-2.95s1.48-2.95,2.95-2.95c.98,0,1.97,.49,2.46,1.48,.49,.49,.49,1.48,.49,1.97m-7.38-6.89c-.98,0-2.46-.49-2.46-1.97-.49-1.48,0-2.95,1.48-3.44,1.48-.49,2.95,0,3.44,1.48,.49,1.48,0,2.95-1.48,3.44,0,.49-.49,.49-.98,.49m-5.41-11.81c-.49-1.48,.98-2.95,2.46-3.44,1.48,0,2.95,.98,3.44,2.46,0,1.48-.98,2.95-2.46,3.44h-.49c-1.48-.49-2.46-1.48-2.95-2.46m-.98-10.83c0-1.48,.98-2.95,2.95-2.95,.98,0,1.48,.49,1.97,.98,.49,.49,.98,1.48,.98,1.97,0,1.48-1.48,2.95-3.44,2.46-.98,0-1.97-.98-2.46-2.46m4.43-12.79c.98,0,1.48,.49,1.97,.98,.49,.49,.49,1.48,.49,1.97,0,.98-.49,1.48-.98,1.97-.49,.49-.98,.49-1.48,.49h-.49c-1.48-.49-2.46-1.97-2.46-3.44s1.48-2.46,2.95-1.97m0-7.87c.49-.49,.98-1.48,1.48-1.48,.49-.49,1.48-.49,1.97,0,.49,0,1.48,.98,1.48,1.48,.49,.49,.49,1.48,0,1.97-.49,.98-1.48,1.97-2.46,1.97h-.98c-1.48-.49-2.46-1.97-1.97-3.44,0,0,0-.49,.49-.49m4.43-9.84c.98-1.48,2.46-1.97,3.94-.98,1.48,.98,1.97,2.46,.98,3.94-.49,.98-1.48,1.48-2.46,1.48-.49,0-.98,0-1.48-.49-1.48-.49-2.46-1.97-.98-3.94q-.49,.49,0,0m13.29-15.75c.49-.49,1.48-.49,1.97-.49,.98,0,1.48,.49,1.97,.98,.98,.98,.98,2.95-.49,3.94-.49,.49-.98,.49-1.97,.49s-1.48-.49-2.46-.98c-.49-.98-.49-2.95,.98-3.94q-.49,0,0,0m8.86-6.4c.49-.49,1.48-.49,1.97-.49s1.48,.49,1.48,1.48c.98,1.48,.49,2.95-.98,3.94-1.48,.49-2.95,.49-3.94-.98-.49-.98-.49-2.95,1.48-3.94m7.87-2.95c.49-.49,.98-.98,1.48-1.48,.49-.49,1.48-.49,1.97,0,.49,.49,.98,.98,1.48,1.48,.49,1.48,0,2.95-1.48,3.44h-.98c-.49,0-.98,0-.98-.49-.49-.49-1.48-.98-1.48-1.48-.49,0-.49-.49,0-1.48m9.84-2.95c.49-.49,.98-.98,1.97-.98s1.48,0,1.97,.49c.49,.49,.98,.98,.98,1.97s0,1.48-.49,1.97c-.49,.49-.98,.98-1.97,.98h-.49c-.49,0-.98,0-1.48-.49-.49-.49-.98-.98-.98-1.97,0-.49,0-1.48,.49-1.97m12.3-1.97c1.48,0,2.95,1.48,2.46,3.44,0,1.48-.98,2.46-2.46,2.46s-2.95-.98-3.44-2.46c-.49-1.48,.98-2.95,2.46-3.44h.98Zm8.37,1.48c.49-.49,1.48-.49,1.97-.49,1.48,.49,2.46,1.97,2.46,3.44,0,.98-.49,1.48-.98,1.97-.49,.49-.98,.49-1.48,.49h-.49c-.98,0-1.48-.49-1.97-.98-.49-.49-.49-1.48-.49-1.97,0-1.48,.49-1.97,.98-2.46m8.86,3.94c.49-1.48,1.97-2.46,3.44-1.97,.49,.49,1.48,.98,1.48,1.48,.49,.49,.49,1.48,0,1.97-.49,.98-1.48,1.97-2.95,1.97h-.98c-.49-.49-1.48-.98-1.48-1.48s0-1.48,.49-1.97m-16.73,35.43h-34.45l-1.48-1.48c-.49-.49-.49-.98,0-1.48h.49l35.43-13.29,34.94,13.29c.49,.49,.49,.98,0,1.48l-1.48,1.48h-33.46Zm-28.54,12.3c-.49,0-.98-.49-.98-.98v-3.94h10.33v3.94c0,.49-.49,.98-.98,.98v24.6h-8.37v-24.6Zm24.6,0c-.98,0-.98-.49-.98-.98v-3.94h9.84v3.94c0,.49-.49,.98-.98,.98v24.6h-7.87v-24.6Zm3.94-7.87h-32.48v-2.46h63.97v2.46h-31.49Zm19.68,7.87c-.49,0-.98-.49-.98-.98v-3.94h10.33v3.94c0,.49-.49,.98-.98,.98v24.6h-7.87l-.49-24.6Zm5.91-44.29h0c.98-1.48,2.46-1.97,3.94-.98,.49,.49,.98,.98,1.48,1.48,.49,.49,.49,1.48,0,1.97-.49,.49-.98,.98-1.97,1.48h-.98c-.49,0-.98,0-1.48-.49-.49-.49-.98-.98-1.48-1.97,.49,0,.49-.49,.49-1.48m20.67,22.14c.49-1.48,1.97-2.46,3.44-1.97,.49,0,1.48,.49,1.48,1.48,.98,1.48,.49,2.95-.98,3.94-.49,.49-.98,.49-1.48,.49h-.98c-.98-.98-1.48-2.46-1.48-3.94m9.84,8.86c.49,.49,.49,1.48,0,1.97-.49,.49-.98,1.48-1.48,1.48h-.98c-.98,0-2.46-.98-2.95-1.97-.49-1.48,0-2.95,1.48-3.44,1.97-.49,3.44,.49,3.94,1.97q.49,0,0,0m2.95,10.33c0,.98,0,1.48-.49,1.97-.49,.49-.98,.98-1.97,.98h-.49c-.49,0-.98,0-1.48-.49-.49-.49-.98-.98-.98-1.97s0-1.48,.49-1.97c.49-.49,.98-.98,1.97-.98,.98-.49,2.46,.98,2.95,2.46m-59.54-56.1c-36.91,0-66.43,30.02-66.43,66.43s30.02,66.43,66.43,66.43,66.93-30.02,66.93-66.43c-.49-36.42-30.02-66.43-66.93-66.43"/><path class="cls-1" d="M332.66,308.05c-38.88,0-70.37-31.49-70.37-70.37s31.49-69.88,70.37-70.37c38.88-.49,70.37,31.49,70.37,70.37-.49,38.88-31.49,70.37-70.37,70.37m0-146.15c-41.83,0-76.28,33.95-76.28,76.28s33.95,76.27,76.28,76.27,76.27-33.95,76.27-75.78c-.49-42.81-34.45-76.77-76.27-76.77"/></g></svg>