<?xml version="1.0" encoding="UTF-8"?><svg id="Capa_1" xmlns="http://www.w3.org/2000/svg" viewBox="0 0 467 568.37"><defs><style>.cls-1{fill:#fff;}.cls-2{fill:#b11546;}</style></defs><path class="cls-2" d="M4.92,80.7H461.59V4.92H4.92V80.7Zm462.08,4.92H0V0H466.51V85.62h.49Z"/><polygon class="cls-2" points="16.73 17.72 38.88 17.72 38.88 24.6 32.48 24.6 32.48 67.91 23.62 67.91 23.62 24.6 16.73 24.6 16.73 17.72"/><path class="cls-2" d="M49.21,52.16h6.89l-3.44-20.18-3.44,20.18Zm-10.33,15.75l9.35-50.19h9.35l9.84,50.19h-8.86l-1.48-9.35h-8.86l-1.48,9.35h-7.87Z"/><path class="cls-2" d="M80.21,24.6v15.75h2.95c2.95,0,3.94-1.48,3.94-3.94v-7.38c0-2.95-1.48-3.94-3.94-3.94h-2.95v-.49Zm0,20.18v23.13h-8.37V17.72h12.3c8.37,0,11.81,4.43,11.81,11.32v6.4c0,5.41-1.97,8.37-6.89,9.84l7.87,22.64h-8.86l-7.87-23.13Z"/><path class="cls-2" d="M113.67,41.34h11.81v26.57h-5.91v-5.41c-.98,3.94-3.44,5.91-7.87,5.91-7.38,0-10.33-5.91-10.33-13.29V31c0-7.87,3.94-13.29,12.79-13.29,9.35,0,11.81,5.41,11.81,12.79v4.43h-7.87v-4.92c0-2.95-.98-4.92-4.43-4.92-2.95,0-4.43,1.97-4.43,4.92v27.07c0,2.95,1.48,4.92,3.94,4.92,2.95,0,3.94-1.48,3.94-4.92v-9.35h-3.94v-6.4h.49Z"/><polygon class="cls-2" points="132.37 17.72 152.55 17.72 152.55 24.6 140.74 24.6 140.74 38.88 149.11 38.88 149.11 45.77 140.74 45.77 140.74 61.02 152.55 61.02 152.55 67.91 132.37 67.91 132.37 17.72"/><polygon class="cls-2" points="156.49 17.72 178.63 17.72 178.63 24.6 171.74 24.6 171.74 67.91 163.38 67.91 163.38 24.6 156.49 24.6 156.49 17.72"/><path class="cls-2" d="M397.12,32.48v-3.44c0-2.95-.98-4.92-3.94-4.92s-3.94,1.97-3.94,4.92v3.44c0,2.95,.98,4.92,3.94,4.92,2.46-.49,3.94-1.97,3.94-4.92m0,24.11v-7.87c0-2.95-.98-4.92-3.94-4.92s-3.94,1.97-3.94,4.92v7.87c0,2.95,.98,4.92,3.94,4.92s3.94-1.97,3.94-4.92m-16.73-.98v-5.41c0-4.92,1.48-8.37,5.41-9.84-3.44-1.48-4.92-4.43-4.92-8.86v-1.97c0-7.87,3.94-11.81,11.81-11.81s11.81,4.43,11.81,11.81v1.97c0,3.94-1.48,6.89-4.92,8.86,3.94,1.97,5.41,5.41,5.41,9.84v5.41c0,7.38-3.44,12.79-12.3,12.79-8.37,0-12.3-4.92-12.3-12.79"/><path class="cls-2" d="M419.76,36.91c3.44,0,5.91,2.95,5.91,5.91,0,3.44-2.95,5.91-5.91,5.91-3.44,0-5.91-2.95-5.91-5.91-.49-2.95,2.46-5.91,5.91-5.91"/><polygon class="cls-2" points="446.82 17.72 446.82 67.91 438.46 67.91 438.46 29.53 432.55 35.43 432.55 27.07 440.43 18.21 446.82 18.21 446.82 17.72"/><g><rect class="cls-2" x="0" y="101.86" width="466.51" height="466.51"/><path class="cls-1" d="M143.69,282.96c4.43-7.87,10.33-14.76,16.73-21.16l-54.13-59.54c-13.78,13.29-25.1,28.05-34.45,44.78l71.85,35.92Z"/><path class="cls-1" d="M276.56,240.64c8.37,3.94,15.75,8.37,22.64,14.27l54.13-59.05c-14.27-12.3-30.51-22.64-48.23-30.02l-28.54,74.8Z"/><path class="cls-1" d="M401.06,258.84l-71.85,35.92c3.44,8.37,5.91,16.73,7.38,25.59l80.21-7.38c-2.46-19.19-7.87-37.4-15.75-54.13"/><path class="cls-1" d="M323.8,283.94l71.85-35.92c-8.86-16.73-20.18-31.49-33.46-44.78l-54.13,59.05c6.4,6.89,11.81,13.78,15.75,21.65"/><path class="cls-1" d="M129.42,335.12v-4.92l-79.72-6.89c0,3.94-.49,7.87-.49,11.81,0,15.26,1.97,30.02,5.41,44.78l77.26-22.14c-1.48-7.38-2.46-14.76-2.46-22.64"/><path class="cls-1" d="M313.96,401.06c-5.91,6.89-12.3,13.29-19.68,18.21l42.32,68.4c15.75-10.83,29.53-23.62,41.34-38.38l-63.97-48.23Z"/><path class="cls-1" d="M337.58,335.12c0,7.38-.98,14.76-2.46,22.14l77.26,22.14c3.44-14.27,5.41-29.53,5.41-44.29,0-3.94,0-7.38-.49-11.32l-80.21,7.38c0,1.48,0,2.95,.49,3.94"/><path class="cls-1" d="M154.52,402.53l-63.97,48.72c11.81,14.76,26.08,27.56,41.83,37.89l42.32-68.4c-7.38-4.92-14.27-10.83-20.18-18.21"/><path class="cls-1" d="M130.9,318.88c1.48-8.86,3.94-17.72,7.87-25.59l-71.85-35.92c-7.87,17.22-13.29,35.43-15.75,54.62l79.72,6.89Z"/><path class="cls-1" d="M326.75,494.56l-42.32-68.4c-7.87,4.43-16.24,7.87-24.6,9.84l14.76,79.23c18.21-4.43,35.92-11.32,52.16-20.67"/><path class="cls-1" d="M332.17,368.58c-2.95,8.37-6.4,15.75-11.32,23.13l64.46,48.23c10.33-15.25,18.7-31.49,24.11-49.21l-77.26-22.14Z"/><path class="cls-1" d="M248.51,438.46c-4.92,.49-9.84,.98-14.76,.98-3.94,0-7.87,0-12.3-.49l-14.76,79.23c8.86,1.48,18.21,1.97,27.07,1.97,9.84,0,20.18-.98,30.02-2.46l-15.25-79.23Z"/><path class="cls-1" d="M240.14,231.78c8.86,.49,17.22,1.97,25.59,4.92l29.03-75.29c-17.72-6.4-35.92-9.84-54.62-10.33v80.7Z"/><path class="cls-1" d="M210.13,436.49c-8.86-1.97-17.72-5.41-25.59-9.84l-42.81,68.89c16.73,9.35,34.45,16.24,53.15,20.18l15.26-79.23Z"/><path class="cls-1" d="M202.25,236.21c8.37-2.46,17.22-4.43,26.08-4.92v-80.21c-18.7,.49-37.4,3.94-55.11,9.84l29.03,75.29Z"/><path class="cls-1" d="M147.14,393.68c-5.41-7.38-9.35-15.75-12.3-24.6l-77.26,22.14c5.91,18.21,14.27,35.43,25.59,51.18l63.97-48.72Z"/><path class="cls-1" d="M169.28,253.92c6.89-5.41,14.27-9.84,22.14-13.29l-29.03-74.8c-17.22,7.38-32.97,17.22-47.24,29.03l54.13,59.05Z"/><path class="cls-1" d="M278.03,292.8l-25.59,24.6c-.98,.98-1.48,2.46-1.48,3.94v68.89c0,.98,.49,1.48,1.48,1.48h26.57c.98,0,1.48-.49,1.48-1.48v-96.45c-.49-.98-.98-2.46-2.46-.98"/><path class="cls-1" d="M203.24,324.78l-25.59,24.6c-.98,.98-1.48,2.46-1.48,3.94v36.91c0,.98,.49,1.48,1.48,1.48h26.57c.98,0,1.48-.49,1.48-1.48v-64.46c0-.98-.49-2.46-2.46-.98"/><path class="cls-1" d="M289.35,263.27v-.49h-.98l-19.68,4.43h-.98c-.49,.49-.49,.98,0,.98l4.43,4.43-44.78,44.78-20.67-20.67h-.98l-5.41,5.91-32.97,32.97s-.49,.49,0,.98l5.41,5.41h.98l32.97-32.97,14.76,14.76,5.41,5.41h.98l51.18-49.7,4.92,4.92q.49,.49,.98,0v-.49l4.43-20.18v-.49Z"/><path class="cls-1" d="M240.64,329.21l-12.3,12.79h-.98l-11.32-11.32c-1.97-1.97-2.46-.49-2.46,.49v59.05c0,.98,.49,1.48,1.48,1.48h26.57c.98,0,1.48-.49,1.48-1.48v-60.53c0-.98-.49-2.46-2.46-.49"/></g></svg>