<?xml version="1.0" encoding="UTF-8"?><svg id="Capa_1" xmlns="http://www.w3.org/2000/svg" viewBox="0 0 467 568.37"><defs><style>.cls-1{fill:#fff;}.cls-2{fill:#e5006a;}</style></defs><polygon class="cls-2" points="363.66 17.72 363.66 67.91 355.29 67.91 355.29 29.53 349.39 35.43 349.39 27.07 357.26 18.21 363.66 18.21 363.66 17.72"/><path class="cls-2" d="M387.28,56.59V29.53c0-2.95-.98-4.92-3.94-4.92s-3.94,1.97-3.94,4.92v27.07c0,2.95,.98,4.92,3.94,4.92s3.94-1.97,3.94-4.92m-16.73-1.48V31c0-7.87,3.94-13.29,12.3-13.29s12.3,5.91,12.3,13.29v24.11c0,7.87-3.94,13.29-12.3,13.29s-12.3-5.41-12.3-13.29"/><path class="cls-2" d="M409.42,36.91c3.44,0,5.91,2.95,5.91,5.91,0,3.44-2.95,5.91-5.91,5.91-3.44,0-5.91-2.95-5.91-5.91s2.46-5.91,5.91-5.91"/><path class="cls-2" d="M429.6,53.15h7.38v-20.67l-7.38,20.67Zm-7.38,1.48l14.76-36.91h8.37V53.15h3.44v6.4h-3.44v8.37h-7.87v-8.37h-14.76v-4.92h-.49Z"/><path class="cls-2" d="M4.92,80.7H461.59V4.92H4.92V80.7Zm462.08,4.92H0V0H466.51V85.62h.49Z"/><polygon class="cls-2" points="16.73 17.72 38.88 17.72 38.88 24.6 32.48 24.6 32.48 67.91 23.62 67.91 23.62 24.6 16.73 24.6 16.73 17.72"/><path class="cls-2" d="M49.21,52.16h6.89l-3.44-20.18-3.44,20.18Zm-10.33,15.75l9.35-50.19h9.35l9.84,50.19h-8.86l-1.48-9.35h-8.86l-1.48,9.35h-7.87Z"/><path class="cls-2" d="M80.21,24.6v15.75h2.95c2.95,0,3.94-1.48,3.94-3.94v-7.38c0-2.95-1.48-3.94-3.94-3.94h-2.95v-.49Zm0,20.18v23.13h-8.37V17.72h12.3c8.37,0,11.81,4.43,11.81,11.32v6.4c0,5.41-1.97,8.37-6.89,9.84l7.87,22.64h-8.86l-7.87-23.13Z"/><path class="cls-2" d="M113.67,41.34h11.81v26.57h-5.91v-5.41c-.98,3.94-3.44,5.91-7.87,5.91-7.38,0-10.33-5.91-10.33-13.29V31c0-7.87,3.94-13.29,12.79-13.29,9.35,0,11.81,5.41,11.81,12.79v4.43h-7.87v-4.92c0-2.95-.98-4.92-4.43-4.92-2.95,0-4.43,1.97-4.43,4.92v27.07c0,2.95,1.48,4.92,3.94,4.92,2.95,0,3.94-1.48,3.94-4.92v-9.35h-3.94v-6.4h.49Z"/><polygon class="cls-2" points="132.37 17.72 152.55 17.72 152.55 24.6 140.74 24.6 140.74 38.88 149.11 38.88 149.11 45.77 140.74 45.77 140.74 61.02 152.55 61.02 152.55 67.91 132.37 67.91 132.37 17.72"/><polygon class="cls-2" points="156.49 17.72 178.63 17.72 178.63 24.6 171.74 24.6 171.74 67.91 163.38 67.91 163.38 24.6 156.49 24.6 156.49 17.72"/><g><rect class="cls-2" x="0" y="101.86" width="466.51" height="466.51"/><polygon class="cls-1" points="131.39 217.01 117.12 217.01 117.12 487.18 310.51 487.18 310.51 470.94 131.39 470.94 131.39 217.01"/><path class="cls-1" d="M288.37,343.98v-48.72l24.6,24.11-24.6,24.6Zm-20.18-32.97q0,.49,0,0l-49.7,.49q-.49,0-.49-.49v-14.76q0-.49,.49-.49h49.21q.49,0,.49,.49v14.76Zm0,31.49q0,.49,0,0l-49.7,.49q-.49,0-.49-.49v-14.76q0-.49,.49-.49h49.21q.49,0,.49,.49v14.76Zm-1.48,23.13l-23.62,23.62h-.49l-23.62-23.62v-.49l47.73,.49v-.98q.49,0,.49,.49s0,.49-.49,.49m-69.39-70.37v47.73q0,.49-.49,.49h-.49l-23.62-23.62v-.49l23.62-23.62q.49-.49,.98-.49m21.16-22.64l23.62-23.62h.49l24.11,24.11c.49,.49,0,.49,0,0v.49h-47.73q-.49,0-.49-.49v-.49Zm-72.34,181.58h193.39V184.54H146.15V454.21Z"/></g></svg>