<?xml version="1.0" encoding="UTF-8"?><svg id="Capa_1" xmlns="http://www.w3.org/2000/svg" viewBox="0 0 467 568.37"><defs><style>.cls-1{fill:#fff;}.cls-2{fill:#e5006a;}</style></defs><path class="cls-2" d="M4.92,80.7H461.59V4.92H4.92V80.7Zm462.08,4.92H0V0H466.51V85.62h.49Z"/><polygon class="cls-2" points="16.73 17.72 38.88 17.72 38.88 24.6 32.48 24.6 32.48 67.91 23.62 67.91 23.62 24.6 16.73 24.6 16.73 17.72"/><path class="cls-2" d="M49.21,52.16h6.89l-3.44-20.18-3.44,20.18Zm-10.33,15.75l9.35-50.19h9.35l9.84,50.19h-8.86l-1.48-9.35h-8.86l-1.48,9.35h-7.87Z"/><path class="cls-2" d="M80.21,24.6v15.75h2.95c2.95,0,3.94-1.48,3.94-3.94v-7.38c0-2.95-1.48-3.94-3.94-3.94h-2.95v-.49Zm0,20.18v23.13h-8.37V17.72h12.3c8.37,0,11.81,4.43,11.81,11.32v6.4c0,5.41-1.97,8.37-6.89,9.84l7.87,22.64h-8.86l-7.87-23.13Z"/><path class="cls-2" d="M113.67,41.34h11.81v26.57h-5.91v-5.41c-.98,3.94-3.44,5.91-7.87,5.91-7.38,0-10.33-5.91-10.33-13.29V31c0-7.87,3.94-13.29,12.79-13.29,9.35,0,11.81,5.41,11.81,12.79v4.43h-7.87v-4.92c0-2.95-.98-4.92-4.43-4.92-2.95,0-4.43,1.97-4.43,4.92v27.07c0,2.95,1.48,4.92,3.94,4.92,2.95,0,3.94-1.48,3.94-4.92v-9.35h-3.94v-6.4h.49Z"/><polygon class="cls-2" points="132.37 17.72 152.55 17.72 152.55 24.6 140.74 24.6 140.74 38.88 149.11 38.88 149.11 45.77 140.74 45.77 140.74 61.02 152.55 61.02 152.55 67.91 132.37 67.91 132.37 17.72"/><polygon class="cls-2" points="156.49 17.72 178.63 17.72 178.63 24.6 171.74 24.6 171.74 67.91 163.38 67.91 163.38 24.6 156.49 24.6 156.49 17.72"/><polygon class="cls-2" points="368.58 17.72 368.58 67.91 360.21 67.91 360.21 29.53 354.31 35.43 354.31 27.07 362.18 18.21 368.58 18.21 368.58 17.72"/><path class="cls-2" d="M392.2,56.59V29.53c0-2.95-.98-4.92-3.94-4.92s-3.94,1.97-3.94,4.92v27.07c0,2.95,.98,4.92,3.94,4.92,2.46,0,3.94-1.97,3.94-4.92m-16.73-1.48V31c0-7.87,3.94-13.29,12.3-13.29s12.3,5.91,12.3,13.29v24.11c0,7.87-3.94,13.29-12.3,13.29s-12.3-5.41-12.3-13.29"/><path class="cls-2" d="M414.35,36.91c3.44,0,5.91,2.95,5.91,5.91,0,3.44-2.95,5.91-5.91,5.91-3.44,0-5.91-2.95-5.91-5.91-.49-2.95,2.46-5.91,5.91-5.91"/><polygon class="cls-2" points="427.14 17.72 448.3 17.72 448.3 25.59 437.47 67.91 429.11 67.91 440.43 24.6 427.63 24.6 427.63 17.72 427.14 17.72"/><g><rect class="cls-2" x="0" y="101.86" width="466.51" height="466.51"/><path class="cls-1" d="M148.12,444.36c-20.18-7.38-32.48-10.83-42.81-15.75-10.33-4.92-15.25-8.86-17.72-5.91-2.95,3.94-.98,10.83,6.4,15.75,7.38,4.92,21.16,10.33,24.11,11.81,2.95,1.48,4.43,3.44,1.97,5.41-2.46,1.97-17.22-6.4-21.65-9.35-9.84-6.89-18.21-15.75-25.1-25.59-5.41-8.86-14.76-29.53-16.73-31.99-1.97-2.46-5.41-7.87-8.86-6.4-3.44,1.48-1.97,7.38-.49,11.81,5.91,20.18,13.78,39.37,23.62,57.58,8.86,15.25,11.81,18.21,26.08,25.1,14.27,6.89,28.05,8.37,34.45,13.78,7.38,5.91,12.79,13.29,16.24,22.14,.49,.98,.98,1.97,1.48,3.44h46.26c-8.86-18.21-17.22-34.94-18.21-38.38-3.44-15.25-14.27-28.05-29.03-33.46"/><path class="cls-1" d="M419.76,382.36c-3.44-1.48-6.4,3.44-8.86,6.4-2.46,2.95-11.32,23.13-16.73,32.48-6.89,9.84-15.26,18.21-25.1,25.59-4.43,2.95-19.68,10.83-21.65,9.35-1.97-1.48,0-3.94,1.97-5.41,8.37-3.44,16.24-7.38,24.11-11.81,7.38-4.92,9.35-12.3,6.4-15.75-2.46-2.95-7.38,1.48-17.72,5.91-10.33,4.43-22.64,7.87-42.81,15.75-14.76,5.41-25.59,18.21-29.03,33.46-.98,3.44-8.86,20.18-18.21,38.38h46.26l1.48-3.44c3.44-8.86,8.86-16.24,16.24-22.14,6.4-4.92,20.18-6.89,34.45-13.78,14.27-6.89,16.73-9.84,26.08-25.1,9.84-18.21,17.72-37.89,24.11-57.58,.98-4.43,2.46-10.83-.98-12.3"/><path class="cls-1" d="M180.6,229.32c7.38,0,13.29-5.91,13.29-13.29s-5.91-13.29-13.29-13.29-13.29,5.91-13.29,13.29,5.91,13.29,13.29,13.29"/><path class="cls-1" d="M260.32,282.46c-1.48,0-2.46,.49-3.44,1.97-.49,0-5.41,9.35-7.38,11.32-.98,.98-1.97,1.48-3.44,1.48h-13.29c-1.48,0-2.46-.49-3.44-1.48-1.48-1.48-6.89-10.83-7.38-11.32-.49-.98-1.97-1.97-3.44-1.97h-.49v-.49l-10.83-35.92s-3.94-10.33-12.79-10.33h-28.54c-8.86,0-12.79,10.33-12.79,10.33l-10.83,35.92s-1.97,6.4,3.44,8.37c5.41,1.48,7.38-4.92,7.38-4.92l8.86-30.02s.49-2.46,2.46-1.97c1.97,.49,.98,2.95,.98,2.95l-15.26,56.1h14.27v40.35c-.49,3.94,2.46,7.38,6.4,7.38,3.94,.49,7.38-2.46,7.38-6.4v-41.34h3.94v40.35c-.49,3.94,2.46,7.38,6.4,7.38,3.94,.49,7.38-2.46,7.38-6.4v-41.34h14.27l-14.76-56.1s-.49-2.46,.98-2.95c1.48-.49,2.46,1.97,2.46,1.97l8.86,30.02s1.48,6.4,7.38,4.92c.49,0,.98-.49,1.48-.49l10.33,18.7c.49,.98,.49,1.97,.49,2.46v3.94l-5.41,21.65h5.91v17.72c-.49,2.95,1.97,5.41,4.92,5.91,2.95,.49,5.91-1.97,5.91-4.92v-18.7h2.95v17.72c-.49,2.95,1.97,5.41,4.92,5.91,2.95,.49,5.91-1.97,5.91-4.92v-18.7h5.91l-5.91-21.65v-3.94c0-.98,.49-1.97,.49-2.46l10.33-18.7c.49-.98,.98-1.97,.98-3.44,0-1.97-1.48-3.94-3.94-3.94"/><path class="cls-1" d="M239.65,289.85c5.91,0,11.32-4.92,11.32-10.83s-4.92-11.32-10.83-11.32-11.32,4.92-11.32,10.83c0,6.4,4.92,11.32,10.83,11.32"/><path class="cls-1" d="M97.44,222.43c7.87,0,14.27-5.91,14.27-13.78s-5.91-14.27-13.78-14.27-14.27,5.91-14.27,13.78,6.4,14.27,13.78,14.27"/><path class="cls-1" d="M69.88,290.83c2.95,0,5.41-2.46,5.41-5.41v-33.46c0-1.48,.49-2.95,2.46-2.95s1.97,1.48,1.97,2.95v99.9c-.49,4.43,2.95,7.87,6.89,8.37,4.43,.49,7.87-2.95,8.37-6.89v-59.54c0-.98,.98-2.46,1.97-2.46s1.97,.98,2.46,1.97v58.07c-.49,4.43,2.95,7.87,6.89,8.37,4.43,.49,7.87-2.95,8.37-6.89v-101.37c0-.98,.49-2.95,1.97-2.95s2.46,1.48,2.46,2.95v33.46c0,1.97,1.48,3.94,3.44,4.92v.98l12.79,65.94c0,1.48,1.48,2.46,2.46,2.46h.49c1.48-.49,2.46-1.97,1.97-3.44l-12.3-65.94q0-.49-.49-.98c1.48-.98,2.46-2.46,2.46-4.43v-38.88c0-9.84-7.38-17.72-17.22-18.7h-32.48c-9.84,.98-17.22,8.86-17.22,18.7v38.88c.98,3.94,3.44,6.4,6.89,6.4q-.49,0,0,0"/><rect class="cls-1" x="266.22" y="328.23" width="63.97" height="31"/><path class="cls-1" d="M309.53,286.89c3.94,0,6.89,2.95,6.89,6.89h-13.29c-.49-3.44,2.46-6.89,6.4-6.89m15.26,6.89h-6.4c0-4.92-3.94-8.86-8.86-8.86s-8.86,3.94-8.86,8.86h-6.4v31h30.51v-31Z"/><path class="cls-1" d="M364.15,221.94c7.87,0,13.78-6.4,13.78-13.78s-6.4-14.27-13.78-14.27c-7.87,0-13.78,6.4-13.78,13.78,0,7.87,5.91,14.27,13.78,14.27"/><path class="cls-1" d="M336.1,290.34c2.95,0,5.41-2.46,5.41-5.41v-33.46c0-1.48,.49-2.95,2.46-2.95s1.97,1.48,1.97,2.95v99.9c-.49,4.43,2.95,7.87,6.89,8.37,3.94,.49,7.87-2.95,8.37-6.89v-59.05c0-.98,.98-1.97,1.97-2.46h.49c.98,0,1.97,.98,1.97,1.97v57.58c-.49,4.43,2.95,7.87,6.89,8.37,3.94,.49,7.87-2.95,8.37-6.89v-100.88c0-.98,.49-2.95,1.97-2.95s2.46,1.48,2.46,2.95v33.46c.49,2.95,2.95,5.41,5.91,4.92,2.46-.49,4.43-2.46,4.92-4.92v-38.88c0-9.84-7.38-17.72-16.73-18.7h-31.49c-9.84,.98-17.22,8.86-16.73,18.7v38.88c-.49,2.95,1.97,5.41,4.92,5.41"/><rect class="cls-1" x="385.31" y="293.78" width="18.21" height="39.37"/></g></svg>