<?xml version="1.0" encoding="UTF-8"?><svg id="Capa_1" xmlns="http://www.w3.org/2000/svg" viewBox="0 0 467 568.37"><defs><style>.cls-1{fill:#fff;}.cls-2{fill:#21803f;}</style></defs><path class="cls-2" d="M4.92,80.7H461.59V4.92H4.92V80.7Zm462.08,4.92H0V0H466.51V85.62h.49Z"/><polygon class="cls-2" points="16.73 17.72 38.88 17.72 38.88 24.6 32.48 24.6 32.48 67.91 23.62 67.91 23.62 24.6 16.73 24.6 16.73 17.72"/><path class="cls-2" d="M49.21,52.16h6.89l-3.44-20.18-3.44,20.18Zm-10.33,15.75l9.35-50.19h9.35l9.84,50.19h-8.86l-1.48-9.35h-8.86l-1.48,9.35h-7.87Z"/><path class="cls-2" d="M80.21,24.6v15.75h2.95c2.95,0,3.94-1.48,3.94-3.94v-7.38c0-2.95-1.48-3.94-3.94-3.94h-2.95v-.49Zm0,20.18v23.13h-8.37V17.72h12.3c8.37,0,11.81,4.43,11.81,11.32v6.4c0,5.41-1.97,8.37-6.89,9.84l7.87,22.64h-8.86l-7.87-23.13Z"/><path class="cls-2" d="M113.67,41.34h11.81v26.57h-5.91v-5.41c-.98,3.94-3.44,5.91-7.87,5.91-7.38,0-10.33-5.91-10.33-13.29V31c0-7.87,3.94-13.29,12.79-13.29,9.35,0,11.81,5.41,11.81,12.79v4.43h-7.87v-4.92c0-2.95-.98-4.92-4.43-4.92-2.95,0-4.43,1.97-4.43,4.92v27.07c0,2.95,1.48,4.92,3.94,4.92,2.95,0,3.94-1.48,3.94-4.92v-9.35h-3.94v-6.4h.49Z"/><polygon class="cls-2" points="132.37 17.72 152.55 17.72 152.55 24.6 140.74 24.6 140.74 38.88 149.11 38.88 149.11 45.77 140.74 45.77 140.74 61.02 152.55 61.02 152.55 67.91 132.37 67.91 132.37 17.72"/><polygon class="cls-2" points="156.49 17.72 178.63 17.72 178.63 24.6 171.74 24.6 171.74 67.91 163.38 67.91 163.38 24.6 156.49 24.6 156.49 17.72"/><polygon class="cls-2" points="366.61 17.72 366.61 67.91 358.25 67.91 358.25 29.53 352.34 35.43 352.34 27.07 360.21 18.21 366.61 18.21 366.61 17.72"/><path class="cls-2" d="M396.63,28.54v4.43c0,4.43-2.46,6.89-5.91,8.37,4.43,.98,6.4,3.94,6.4,8.37v7.38c0,6.89-3.94,11.32-12.3,11.32s-11.81-4.92-11.81-12.3v-6.4h7.87v7.38c0,2.95,.98,4.92,3.94,4.92,2.46,0,3.94-1.97,3.94-4.43v-8.37c0-2.46-.98-3.94-3.94-3.94h-3.44v-6.4h2.95c2.95,0,4.43-1.48,4.43-3.94v-5.91c0-2.95-.98-4.43-3.44-4.43s-3.44,1.97-3.44,4.92v4.92h-7.87v-4.43c0-7.38,2.95-12.79,11.81-12.79,7.38,0,10.83,4.43,10.83,11.32"/><path class="cls-2" d="M410.9,36.91c3.44,0,5.91,2.95,5.91,5.91,0,3.44-2.95,5.91-5.91,5.91-3.44,0-5.91-2.95-5.91-5.91s2.46-5.91,5.91-5.91"/><path class="cls-2" d="M447.81,28.54v4.43c0,4.43-2.46,6.89-5.91,8.37,4.43,.98,6.4,3.94,6.4,8.37v7.38c0,6.89-3.94,11.32-12.3,11.32s-11.81-4.92-11.81-12.3v-6.4h7.87v7.38c0,2.95,.98,4.92,3.94,4.92,2.46,0,3.94-1.97,3.94-4.43v-8.37c0-2.46-.98-3.94-3.94-3.94h-3.44v-6.4h2.95c2.95,0,4.43-1.48,4.43-3.94v-5.91c0-2.95-.98-4.43-3.44-4.43s-3.44,1.97-3.44,4.92v4.92h-7.87v-4.43c0-7.38,2.95-12.79,11.81-12.79,7.38,0,10.83,4.43,10.83,11.32"/><g><rect class="cls-2" x="0" y="101.86" width="466.51" height="466.51"/><path class="cls-1" d="M382.85,375.96c0,7.38,5.91,13.78,13.29,13.78s13.78-5.91,13.78-13.29-5.91-13.78-13.29-13.78-13.78,5.91-13.78,13.29"/><path class="cls-1" d="M412.38,395.15h-31.99c-9.35,.98-16.73,8.86-16.73,18.21v37.89c-.49,2.95,1.97,5.41,4.92,5.91,2.95,.49,5.41-1.97,5.91-4.92v-33.95c0-.98,.49-2.95,2.46-2.95s1.97,1.48,1.97,2.46v97.44c-.49,4.43,2.95,7.87,6.89,8.37,3.94,.49,7.87-2.95,8.37-6.89v-57.08c0-.98,.98-1.97,1.97-1.97s1.97,.98,1.97,1.97v56.59c0,4.43,3.44,7.38,7.87,7.38s7.38-3.44,7.38-7.38v-97.93c0-.98,.49-2.46,1.97-2.46s2.46,1.48,2.46,2.95v32.48c0,2.95,2.46,5.41,5.41,5.41s5.41-2.46,5.41-5.41v-37.89c.49-9.35-6.89-17.22-16.24-18.21"/><path class="cls-1" d="M268.68,383.34c0,6.89,5.91,12.79,12.79,12.79s12.79-5.91,12.79-12.79-5.91-12.79-12.79-12.79-12.79,5.91-12.79,12.79"/><path class="cls-1" d="M297.23,420.25c1.48-.49,1.97,1.48,1.97,1.48l8.86,29.53s1.48,6.4,6.89,4.92c5.41-1.48,3.44-7.87,3.44-7.87l-10.83-34.94s-3.94-10.33-12.3-10.33h-27.56c-8.37,0-12.3,10.33-12.3,10.33l-10.83,34.94s-1.97,6.4,3.44,7.87c5.41,1.48,6.89-4.92,6.89-4.92l8.86-29.53s.49-1.97,1.97-1.48c1.48,.49,.98,2.95,.98,2.95l-15.25,54.62h13.78v39.37c-.49,3.94,2.46,6.89,5.91,7.38,3.94,.49,6.89-2.46,7.38-5.91v-40.35h3.94v39.37c-.49,3.94,2.46,6.89,5.91,7.38,3.94,.49,6.89-2.46,7.38-5.91v-40.35h13.78l-15.26-54.62c1.48-1.48,.98-3.44,2.95-3.94"/><path class="cls-1" d="M191.43,383.34c0,7.38,5.91,12.79,12.79,12.79,7.38,0,12.79-5.91,12.79-12.79,0-7.38-5.91-12.79-12.79-12.79-6.89-.49-12.79,5.41-12.79,12.79"/><path class="cls-1" d="M230.3,412.38s-3.94-10.33-12.3-10.33h-27.56c-8.37,0-12.3,10.33-12.3,10.33l-10.83,34.94s-1.97,6.4,3.44,7.87c5.41,1.48,6.89-4.43,6.89-4.43l8.86-29.03s.49-1.97,1.97-1.97,.98,2.95,.98,2.95l-15.25,54.62h13.78v39.37c-.49,3.94,2.46,6.89,5.91,7.38,3.94,.49,6.89-2.46,7.38-5.91v-40.35h3.94v39.37c-.49,3.94,2.46,6.89,5.91,7.38,3.94,.49,6.89-2.46,7.38-5.91v-40.35h13.78l-15.25-54.62s-.49-2.46,.98-2.95c1.48-.49,1.97,1.97,1.97,1.97l8.86,29.03s1.48,6.4,6.89,4.43c5.41-1.97,3.44-7.87,3.44-7.87l-8.86-35.92Z"/><path class="cls-1" d="M80.21,391.22c7.38,0,13.29-5.91,13.29-13.78,0-7.38-5.91-13.29-13.78-13.29s-13.29,5.91-13.29,13.78c0,7.38,5.91,13.29,13.78,13.29"/><path class="cls-1" d="M95.96,396.63h-31.49c-9.35,.49-16.73,8.37-16.73,17.72v37.4c0,1.48,.98,2.95,1.97,3.94l-11.81,63.48c0,.98,.49,1.97,1.48,2.46h.49c.98,0,1.97-.49,1.97-1.48l11.81-62.99c2.46-.49,4.43-2.46,4.43-4.92v-32.48c0-.98,.49-2.95,2.46-2.95s1.97,1.48,1.97,2.46v96.45c0,3.94,3.44,7.38,7.38,7.38s7.38-3.44,7.38-7.38v-55.11c0-.98,.98-1.97,1.97-1.97h.49c.98,0,1.97,.98,1.97,1.97v56.1c.49,3.94,3.94,7.38,8.37,6.89,3.94-.49,6.89-3.44,6.89-6.89v-96.94c0-.98,.49-2.46,1.97-2.46s2.46,1.48,2.46,2.95v31.99c.49,2.95,2.95,4.92,5.91,4.92,2.46,0,4.43-2.46,4.92-4.92v-37.4c0-9.84-6.89-17.22-16.24-18.21"/><path class="cls-1" d="M329.7,443.38c0,5.91,4.92,10.83,10.83,10.83s10.83-4.92,10.83-10.83-4.92-10.83-10.83-10.83-10.83,4.92-10.83,10.83"/><path class="cls-1" d="M362.68,475.86c-6.4-16.73-7.87-16.73-13.78-17.22h-16.73c-5.91,0-6.89,0-13.78,17.22-.98,2.46-4.92,11.81-4.92,12.3s-1.48,3.94,1.97,5.41c3.44,1.48,4.43-2.95,4.43-2.95l6.89-16.73s0-.49,.49-.49,0,.49,.49,.49v43.3c0,2.95,2.46,5.41,5.41,5.41s5.41-2.46,5.41-5.41v-16.73s0-2.46,1.48-2.46,1.48,2.46,1.48,2.46v17.22c0,2.95,2.46,5.91,5.41,5.91s5.41-2.46,5.41-5.41v-44.29l.49,.49,5.91,14.76s1.97,3.94,4.92,2.46,1.48-4.92,1.48-4.92c0,0-1.48-8.37-2.46-10.83"/><path class="cls-1" d="M161.9,448.3c-1.97-.98-4.43-.49-5.41,1.97-1.97,3.44-4.43,7.38-6.89,10.33-.98,.98-1.97,1.48-3.44,1.48h-13.29c-1.48,0-2.46-.49-3.44-1.48-1.48-1.48-6.89-10.83-6.89-10.83-.49-.98-1.97-1.97-3.44-1.97-1.97,0-3.94,1.97-3.94,3.94,0,.49,0,.98,.49,1.48l10.83,19.68c.49,.98,.49,1.48,.49,2.46v2.95c0,.98,0,2.46-.49,3.44l-5.41,20.67h5.91v15.26c-.49,2.95,1.97,5.41,4.92,5.91,2.95,.49,5.41-1.97,5.91-4.92v-16.24h3.44v15.26c-.49,2.95,1.97,5.41,4.92,5.91,2.95,.49,5.41-1.97,5.91-4.92v-16.24h5.91l-5.41-20.67c-.49-.98-.49-1.97-.49-2.95v-2.95c0-.98,.49-1.97,.49-2.46l9.84-18.21,.98-1.97c.98-1.48,.49-3.94-1.48-4.92,.49,0,0,0,0,0"/><path class="cls-1" d="M139.76,455.19c5.91,0,10.83-4.92,10.83-10.83s-4.92-10.83-10.83-10.83-10.83,4.92-10.83,10.83,4.92,10.83,10.83,10.83"/><path class="cls-1" d="M303.62,248.02c-1.97-.49-9.84-11.32-3.44-18.7,.98-.98-1.97-4.92-.98-4.92,3.44,0,5.41,1.97,5.91,4.92v3.94c0,4.92-.49,9.84-1.48,14.76m-19.19,35.43c-.98,0-1.48-.49-2.46-.98-3.94-1.97-3.44,.98-5.41,.49-1.97-.49,1.97-4.92-3.44-1.48-5.41,3.44-3.94-.49-6.4-6.89-1.48-6.4,1.48-12.79,7.38-15.25,3.94-1.48,8.37-2.46,12.79-3.44,8.37-2.46,10.33-7.38,11.81-3.94,.49,.49,.49,.98,.98,1.48,.49,1.48,.98,2.95,.98,4.43-3.44,10.33-9.35,18.7-16.24,25.59m-49.7,20.67c-6.89,0-13.29-.98-19.68-2.95-.98-.98-1.48-2.46-.98-3.44,2.46-4.92,7.87-8.37,13.78-8.37,11.32-.98,26.57,7.38,28.54,5.91,1.97-1.48,7.38-7.87,14.27-7.38,2.46,0,4.43,.49,6.4,1.48-11.81,9.84-27.07,14.76-42.32,14.76m-9.84-45.77c-.98,1.48-3.44,13.29-5.41,12.3-1.97-.98,.49-13.78,.98-14.76,2.95-5.41,9.35-5.41,4.43,2.46m29.03-13.78c-1.97,.98-4.92,.98-6.89-.49-1.97-1.48,.98-3.44,1.97-3.94,2.46,0,6.4,2.95,4.92,4.43m31,0c-.98-.49-1.48-.98-1.97-2.46-.49-1.48,.98-2.95,2.46-1.97,1.48,.98,2.95,2.46,3.44,3.94-.49,.98-2.95,.98-3.94,.49m2.95,1.97c2.46,0,5.91,2.95,4.43,4.43-1.97,.98-4.92,.98-6.89-.49-1.48-1.48,1.48-3.94,2.46-3.94m-75.29,28.05c-.49,3.44-1.97,6.4-4.43,8.86-2.46,2.46-5.91,3.44-9.84,3.94-3.44,0-3.44-8.86-3.44-13.29,0-1.48-1.97,2.95-3.44-6.4-.49-5.91-4.43,.49-4.92-3.44s-1.97-2.95-3.94-5.41c-1.97-2.46-4.43,0-7.38,1.48-2.95,1.48-1.48,1.97-5.41,.49-3.44-8.86-5.41-18.21-5.41-27.56,0-2.46,0-4.92,.49-6.89l.49-.49c3.94-4.43,3.44-5.41,3.44-5.41l3.94-1.48c3.94,.49,7.87,1.48,11.32,2.95,3.94,1.48,10.33,4.92,14.27,3.44,2.46-.98,4.92-2.46,4.43-4.92-.49-2.46-2.46-3.44-5.41-1.48-.98,.49-2.95-4.43-4.92-3.94-1.97,.49,1.97,5.91,.49,5.91s-4.43-5.91-4.92-6.89c-.49-.98-2.46-3.44-4.43-1.48-3.94,3.94-10.83,3.94-12.3,4.92-3.94,2.95-5.41-.98-4.92-3.44,0-.49,.49-.98,.49-1.48,2.46-1.48,5.41-1.97,7.87-.98,1.97,.98,2.95-.49,3.94-.98,.49-.98,.49-1.97,0-2.95s.98-1.48,1.97-1.97c1.97-.98,3.44-1.97,5.41-3.44,3.44-.98,7.38-.98,10.83,0,2.46,1.48,5.41,.49,6.89-1.48,1.48-1.48,2.95-2.95,4.92-4.43,.98-.49-2.46-3.94-5.41,0-2.95,3.94-4.43,3.94-5.91,3.94s-9.35-1.97-10.33-4.43c-.98-2.46,2.46-4.43,5.41-5.91,4.43-.98,8.86-1.48,13.29-1.97,4.43-.98,9.84-2.95,12.3-.98,2.46,1.97-11.32,4.92-6.89,7.38,1.48,.98,9.35-4.43,11.81-5.91,5.91-2.95-5.91-3.94-4.43-10.33,1.48-7.38-14.76-4.43-22.64-3.94,32.48-21.16,76.27-12.3,97.44,20.67,4.43,6.89,7.38,13.78,9.35,21.65,0,.98,0,1.97-.49,3.44-.98,2.46-3.44,3.44-5.91,2.46-.98-.49-1.97-.98-2.46-1.97-.98-.98-3.94-3.94-3.44,.98,.49,4.92,4.92,5.41,0,8.37-1.97,1.48-4.92,2.46-7.38,2.95-2.46,1.97-3.94,5.41-3.44,8.37,.49,2.46,6.89,9.84,1.97,9.84-4.43-1.97-8.37-5.41-10.83-9.35-1.48-3.94-2.95-7.87-4.43-10.83-.49-1.97-2.95-3.44-5.41-2.95-.49,0-.98,.49-1.48,.98-2.46,1.48,.98,3.44-.98,6.89-1.97,3.44-2.95,6.89-5.91,3.94-6.89-7.87-16.73-3.94-18.7-12.79-.98-4.92-4.92-4.43-8.37-6.89-3.44-2.46-5.41-3.94-5.91-2.46-.49,1.48,10.83,10.83,11.32,12.79,.98,3.44-3.44,6.4-6.89,7.38-3.44,.98-4.92-1.97-7.87-5.41s-4.92-5.91-4.92-2.95c.49,4.92,2.46,8.86,6.4,11.81,2.95,1.97,5.91,2.46,4.92,5.41-.98,2.95,0,1.48-3.44,4.43-2.95,1.97-3.94,5.41-3.44,8.37,0,4.43-.98,4.43-1.48,8.37-.49,3.94-2.46,.49-3.44,5.91m-35.92-76.77h0c1.97-1.48,3.94-2.46,5.91-2.46,1.48-.49,3.94,.49,4.43,1.48,.49,.98-4.43,3.94-5.41,4.43-2.46,2.46-6.4,6.89-8.37,7.38h-1.97c1.48-3.44,3.44-7.38,5.41-10.83m3.44-6.89c.98-1.48,3.94-4.92,4.43-5.91,.98-.98,1.97-1.48,3.44-1.48,.98,0,2.46,.49,2.46,.98,0,1.48-.49,2.95-.98,4.43-1.97,1.97-4.43,2.95-7.38,3.44-1.48,0-2.46-.98-1.97-1.48m223.9,41.34c-68.89-92.51-199.3-111.71-291.81-42.81-16.24,12.3-31,26.57-42.81,42.81l-1.48,1.97,1.48,1.97c68.89,92.51,199.79,111.71,292.31,42.81,16.24-12.3,31-26.57,42.81-42.81l1.48-1.97-1.97-1.97Z"/></g></svg>