<?xml version="1.0" encoding="UTF-8"?><svg id="Capa_1" xmlns="http://www.w3.org/2000/svg" viewBox="0 0 467 568.37"><defs><style>.cls-1{fill:#fff;}.cls-2{fill:#48ad37;}</style></defs><path class="cls-2" d="M4.92,80.7H461.59V4.92H4.92V80.7Zm462.08,4.92H0V0H466.51V85.62h.49Z"/><polygon class="cls-2" points="16.73 17.72 38.88 17.72 38.88 24.6 32.48 24.6 32.48 67.91 23.62 67.91 23.62 24.6 16.73 24.6 16.73 17.72"/><path class="cls-2" d="M49.21,52.16h6.89l-3.44-20.18-3.44,20.18Zm-10.33,15.75l9.35-50.19h9.35l9.84,50.19h-8.86l-1.48-9.35h-8.86l-1.48,9.35h-7.87Z"/><path class="cls-2" d="M80.21,24.6v15.75h2.95c2.95,0,3.94-1.48,3.94-3.94v-7.38c0-2.95-1.48-3.94-3.94-3.94h-2.95v-.49Zm0,20.18v23.13h-8.37V17.72h12.3c8.37,0,11.81,4.43,11.81,11.32v6.4c0,5.41-1.97,8.37-6.89,9.84l7.87,22.64h-8.86l-7.87-23.13Z"/><path class="cls-2" d="M113.67,41.34h11.81v26.57h-5.91v-5.41c-.98,3.94-3.44,5.91-7.87,5.91-7.38,0-10.33-5.91-10.33-13.29V31c0-7.87,3.94-13.29,12.79-13.29,9.35,0,11.81,5.41,11.81,12.79v4.43h-7.87v-4.92c0-2.95-.98-4.92-4.43-4.92-2.95,0-4.43,1.97-4.43,4.92v27.07c0,2.95,1.48,4.92,3.94,4.92,2.95,0,3.94-1.48,3.94-4.92v-9.35h-3.94v-6.4h.49Z"/><polygon class="cls-2" points="132.37 17.72 152.55 17.72 152.55 24.6 140.74 24.6 140.74 38.88 149.11 38.88 149.11 45.77 140.74 45.77 140.74 61.02 152.55 61.02 152.55 67.91 132.37 67.91 132.37 17.72"/><polygon class="cls-2" points="156.49 17.72 178.63 17.72 178.63 24.6 171.74 24.6 171.74 67.91 163.38 67.91 163.38 24.6 156.49 24.6 156.49 17.72"/><polygon class="cls-2" points="375.47 17.72 375.47 67.91 367.1 67.91 367.1 29.53 361.2 35.43 361.2 27.07 369.07 18.21 375.47 18.21 375.47 17.72"/><path class="cls-2" d="M405.98,44.78v12.3c0,6.89-3.44,11.32-11.81,11.32s-11.81-4.92-11.81-12.3v-5.91h7.87v6.4c0,2.95,.98,4.92,3.94,4.92,2.46,0,3.44-1.97,3.44-4.43v-12.3c0-2.95-.98-4.43-3.44-4.43s-3.94,1.48-3.94,4.43v.98h-7.87V17.72h22.14v6.89h-14.27v12.3c1.48-2.46,3.94-3.44,6.89-3.44,4.92,.49,8.86,3.44,8.86,11.32"/><path class="cls-2" d="M419.76,36.91c3.44,0,5.91,2.95,5.91,5.91,0,3.44-2.95,5.91-5.91,5.91-3.44,0-5.91-2.95-5.91-5.91-.49-2.95,2.46-5.91,5.91-5.91"/><polygon class="cls-2" points="446.82 17.72 446.82 67.91 438.46 67.91 438.46 29.53 432.55 35.43 432.55 27.07 440.43 18.21 446.82 18.21 446.82 17.72"/><g><rect class="cls-2" y="101.86" width="466.51" height="466.51"/><polygon class="cls-1" points="155.01 223.9 230.3 252.45 253.92 231.29 290.83 281.97 325.28 232.76 418.28 371.53 430.58 371.53 427.14 365.63 325.28 214.06 290.83 263.76 201.27 140.74 36.42 372.03 49.21 372.03 155.01 223.9"/><path class="cls-1" d="M216.52,401.06h5.91s.49,0,.49-.49v-13.29h14.27c.49,0,.98-.49,.98-.98v-.49l-17.72-57.08c0-.49-.49-.98-.98-.98s-.49,0-.98,.49v.49l-17.72,56.59v.49c0,.49,.49,.98,.98,.98h14.27l.49,14.27c0-.49,0,0,0,0"/><path class="cls-1" d="M170.76,401.06h5.91q.49,0,.49-.49v-13.29h14.27c.49,0,.98-.49,.98-.98v-.49l-17.22-57.08c0-.49-.49-.49-.98-.49s-.49,0-.98,.49v.49l-17.72,56.59v.49c0,.49,0,.98,.49,.98h14.27l.49,13.78c-.49-.49-.49,0,0,0"/><path class="cls-1" d="M124.01,401.06h5.91s.49,0,.49-.49v-13.29h14.27c.49,0,.98-.49,.98-.98v-.49l-17.72-57.08c0-.49-.49-.49-.98-.49s-.49,0-.98,.49v.49l-17.72,56.59v.49c0,.49,.49,.98,.98,.98h14.27l.49,13.78c0-.49,0,0,0,0"/><path class="cls-1" d="M358.25,360.71c5.41,0,9.84-4.43,9.84-9.84s-4.43-9.84-9.84-9.84-9.84,4.43-9.84,9.84,4.43,9.84,9.84,9.84"/><path class="cls-1" d="M369.56,364.64h-23.13c-6.89,.49-11.81,6.4-11.81,13.29v27.56c0,1.97,1.97,3.94,3.94,3.94s3.94-1.48,3.94-3.94v-23.62c0-.98,0-1.97,1.97-1.97s1.48,.98,1.48,1.97v70.37c0,2.95,2.46,5.41,5.41,5.41s5.41-2.46,5.41-5.41v-40.84c0-.98,.49-1.48,1.48-1.48s1.48,.49,1.48,1.48v40.84c0,2.95,2.46,5.41,5.41,5.41s5.41-2.46,5.41-5.41v-70.86c0-.98,0-1.97,1.48-1.97s1.97,.98,1.97,1.97v23.62c0,1.97,1.97,3.94,3.94,3.94s3.94-1.48,3.94-3.94v-27.56c0-6.4-5.41-12.3-12.3-12.79"/><path class="cls-1" d="M298.7,365.63c5.41,0,9.35-4.43,9.35-9.35s-4.43-9.35-9.35-9.35-9.35,4.43-9.35,9.35,3.94,9.35,9.35,9.35"/><path class="cls-1" d="M325.28,402.53l-7.38-25.1s-2.95-7.38-9.35-7.38h-19.68c-5.91,0-8.86,7.38-8.86,7.38l-7.87,25.59s-1.48,4.43,2.46,5.91c3.94,1.48,4.92-3.44,4.92-3.44l6.4-21.16s.49-1.48,1.48-1.48,.98,1.97,.98,1.97l-10.83,39.86h10.33v28.54c0,2.95,1.97,4.92,4.92,4.92s4.92-1.97,4.92-4.92v-28.54h2.95v28.54c0,2.95,1.97,4.92,4.92,4.92s4.92-1.97,4.92-4.92v-28.54h10.33l-10.83-39.86s-.49-1.97,.98-1.97,1.48,1.48,1.48,1.48l6.4,21.16s.98,4.43,4.92,3.44c3.94-.98,1.48-6.4,1.48-6.4"/><path class="cls-1" d="M429.11,493.08h0l-1.48,.49c-12.3,6.4-51.18,21.16-86.12-12.3-.49-.49-1.48-.98-1.97-.98s-1.48,.49-1.97,.98c-10.33,7.87-58.56,40.35-101.37,.49l-.49-.49c-.49-.49-.98-.49-1.48-.49s-1.48,0-1.48,.49l-.49,.49c-42.81,39.86-91.04,7.38-101.37-.49-.49-.49-.98-.98-1.97-.98s-1.48,.49-1.97,.98c-34.94,33.46-73.81,18.21-86.12,12.3l-.98-.49h-1.97c-1.48,0-2.46,.98-2.46,2.46v16.73c0,.49,.49,.98,.49,1.48,40.35,35.43,79.23,2.46,88.09-6.4q.49-.49,.98-.98c.49,0,.49-.49,.98-.49s1.48,.49,1.97,.98c45.76,43.8,93.99,8.37,103.83,0l.98-.98c.49,0,.49-.49,.98-.49s.49,0,.98,.49l.98,.98c9.84,8.37,58.07,43.8,103.83,0,.49-.49,.98-.49,1.48-.49s.98,0,1.48,.49c.49,0,.49,.49,.49,.49,8.86,8.86,47.24,41.83,88.09,6.4,.49-.49,.49-.98,.49-1.48v-16.73c0-1.48-.98-2.46-2.46-2.46"/><path class="cls-1" d="M37.89,436h218.98c1.48,0,2.46,.98,2.46,2.46v16.24c0,1.48-.98,2.46-2.46,2.46H37.89c-1.48,0-2.46-.98-2.46-2.46v-16.24c0-1.48,.98-2.46,2.46-2.46"/></g></svg>