<?xml version="1.0" encoding="UTF-8"?><svg id="Capa_1" xmlns="http://www.w3.org/2000/svg" viewBox="0 0 467 568.37"><defs><style>.cls-1{fill:#fff;}.cls-2{fill:#e4003b;}</style></defs><path class="cls-2" d="M4.92,80.7H461.59V4.92H4.92V80.7Zm462.08,4.92H0V0H466.51V85.62h.49Z"/><polygon class="cls-2" points="16.73 17.72 38.88 17.72 38.88 24.6 32.48 24.6 32.48 67.91 23.62 67.91 23.62 24.6 16.73 24.6 16.73 17.72"/><path class="cls-2" d="M49.21,52.16h6.89l-3.44-20.18-3.44,20.18Zm-10.33,15.75l9.35-50.19h9.35l9.84,50.19h-8.86l-1.48-9.35h-8.86l-1.48,9.35h-7.87Z"/><path class="cls-2" d="M80.21,24.6v15.75h2.95c2.95,0,3.94-1.48,3.94-3.94v-7.38c0-2.95-1.48-3.94-3.94-3.94h-2.95v-.49Zm0,20.18v23.13h-8.37V17.72h12.3c8.37,0,11.81,4.43,11.81,11.32v6.4c0,5.41-1.97,8.37-6.89,9.84l7.87,22.64h-8.86l-7.87-23.13Z"/><path class="cls-2" d="M113.67,41.34h11.81v26.57h-5.91v-5.41c-.98,3.94-3.44,5.91-7.87,5.91-7.38,0-10.33-5.91-10.33-13.29V31c0-7.87,3.94-13.29,12.79-13.29,9.35,0,11.81,5.41,11.81,12.79v4.43h-7.87v-4.92c0-2.95-.98-4.92-4.43-4.92-2.95,0-4.43,1.97-4.43,4.92v27.07c0,2.95,1.48,4.92,3.94,4.92,2.95,0,3.94-1.48,3.94-4.92v-9.35h-3.94v-6.4h.49Z"/><polygon class="cls-2" points="132.37 17.72 152.55 17.72 152.55 24.6 140.74 24.6 140.74 38.88 149.11 38.88 149.11 45.77 140.74 45.77 140.74 61.02 152.55 61.02 152.55 67.91 132.37 67.91 132.37 17.72"/><polygon class="cls-2" points="156.49 17.72 178.63 17.72 178.63 24.6 171.74 24.6 171.74 67.91 163.38 67.91 163.38 24.6 156.49 24.6 156.49 17.72"/><polygon class="cls-2" points="397.12 17.72 397.12 67.91 388.76 67.91 388.76 29.53 382.36 35.92 382.36 27.07 390.23 18.21 397.12 18.21 397.12 17.72"/><path class="cls-2" d="M412.38,36.91c3.44,0,5.91,2.95,5.91,5.91,0,3.44-2.95,5.91-5.91,5.91-3.44,0-5.91-2.95-5.91-5.91-.49-2.95,2.46-5.91,5.91-5.91"/><path class="cls-2" d="M425.66,58.56c0-4.92,1.48-8.37,6.4-13.29l4.92-4.92c2.95-2.95,2.95-4.43,2.95-8.86v-3.44c0-2.95-1.48-3.94-2.95-3.94-1.97,0-3.44,.98-3.44,3.94v6.4h-7.87v-6.4c0-6.89,3.94-10.83,11.32-10.83s10.83,3.44,10.83,10.33v4.92c0,4.92-.98,7.87-5.41,12.79l-5.41,5.91c-1.97,2.46-3.44,3.94-3.44,7.87v2.46h13.78v6.89h-21.65v-9.84Z"/><g><rect class="cls-2" x="0" y="101.86" width="466.51" height="466.51"/><path class="cls-1" d="M342.99,260.81c-1.97,1.48-4.43,2.46-6.89,2.95-6.89,1.97-13.78,2.95-21.16,2.46-3.44,0-6.89-.49-10.33-.98-1.97-.49-3.94-.49-6.4-.98l-2.95-.98c-2.95-.98-5.91-2.46-8.37-3.94-.98-.49-1.48-1.48-2.46-2.46v6.89c0,1.97,.98,3.44,2.46,4.43,4.92,3.44,10.33,5.41,16.24,5.91,3.94,.49,7.87,.98,11.81,.98,5.91,0,11.32-.49,17.22-1.97,2.95-.49,5.91-1.97,8.86-3.44,2.95-1.48,4.43-3.94,4.43-5.91,0,0,.49-6.4,0-6.89,0,1.48-.98,2.95-2.46,3.94"/><path class="cls-1" d="M285.42,221.44c0-1.48,.98-2.95,2.46-3.44,.98,.98,1.97,1.48,2.95,2.46,7.87,3.44,16.73,5.41,25.59,4.92,7.38,0,14.76-.98,22.14-3.44,.98-.49,1.97-.98,2.46-.98v.98c0,4.43-11.32,9.35-27.56,9.35s-28.05-5.41-28.05-9.84m30.51-24.11c16.24,0,27.56,4.92,27.56,9.35s-11.32,9.35-27.56,9.35-27.56-4.92-27.56-9.35,11.32-9.35,27.56-9.35m-2.95,42.32c16.73,0,30.51-4.92,30.51-11.32,0,0,.49-5.91,.49-6.89s0-1.48-.49-2.46c1.97-.98,2.95-2.95,3.44-4.92,0,0,.49-6.4,0-7.87-.98-7.87-16.24-11.81-31-11.81s-31,4.43-31,12.3c0,.49,.49,6.89,.49,6.89,0,.49,0,.98,.49,1.48-2.46,1.48-3.44,3.44-3.94,6.4,0,.49,.49,6.89,.49,6.89,0,1.97,.98,3.44,2.46,4.43,4.92,3.44,10.33,5.41,16.24,5.91,3.94,.98,7.87,1.48,11.81,.98"/><path class="cls-1" d="M303.62,263.27c3.94,.49,7.87,.98,11.81,.98,5.91,0,11.81-.49,17.72-1.97,2.95-.49,5.91-1.97,8.86-3.44,.49-.49,1.48-.98,1.97-1.48,.98-.98,1.97-1.97,2.46-2.95,0-.49,.49-.98,.49-1.48v-6.89c-.98,1.48-3.94,5.41-15.75,7.87-5.41,.98-10.33,1.48-15.75,1.48-8.37,0-16.73-1.48-24.6-4.92-1.48-.49-2.46-1.48-3.94-2.46-.49-.49-1.48-1.48-1.97-2.46v7.38c0,1.97,.98,3.44,2.46,4.43,4.43,3.44,10.33,5.41,16.24,5.91"/><path class="cls-1" d="M345.94,232.27l-.98-.49-1.48-.49c-.49,.49-.98,1.48-1.48,1.97,.49,0,.98,.49,.98,.49,.98,.49,1.48,1.48,1.48,2.46s-.49,1.48-.98,1.97c-.49,.49-.98,.49-.98,.98-.49,.49-.98,.49-1.97,.98,0,0-1.97,.98-2.46,.98s-1.97,.49-2.95,.98l-3.44,.98c-.49,0-3.44,.49-4.92,.98l-4.92,.49c-.49,0-4.92,.49-6.89,.49-3.44,0-6.4,0-9.84-.49-2.46-.49-4.92-.98-6.89-1.48-2.46-.49-4.92-1.48-7.38-2.46-1.48-.49-2.46-1.48-3.94-2.46-.98-.98-1.97-1.97-2.46-3.44v7.87c0,1.97,.98,3.44,2.46,4.43,4.92,3.44,10.33,5.41,16.24,5.91,3.94,.49,7.87,.98,11.81,.98,5.91,0,11.81-.49,17.72-1.97,2.95-.98,5.91-1.97,8.86-3.44,.49-.49,1.48-.98,1.97-1.48,.98-.98,1.97-1.97,2.46-2.95,0-.49,.49-.98,.49-1.48v-7.87c0-1.48,0-1.97-.49-2.46"/><path class="cls-1" d="M355.79,199.3c0-1.48,.98-2.95,2.46-3.44,.98,.98,1.97,1.48,2.95,2.46,7.87,3.44,16.73,5.41,25.59,4.92,7.38,0,14.76-.98,21.65-3.44,.98-.49,1.97-.98,2.46-.98v.98c0,4.43-11.32,9.35-27.56,9.35s-27.56-5.41-27.56-9.84m31-24.11c16.24,0,27.56,4.92,27.56,9.35s-11.32,9.35-27.56,9.35-27.56-4.92-27.56-9.35,11.32-9.35,27.56-9.35m-3.44,42.32c16.73,0,30.51-4.92,30.51-11.32,0,0,.49-5.91,0-6.89,0-.98,0-1.48-.49-2.46,1.97-.98,2.95-2.95,3.44-4.92v-7.87c-.98-7.87-16.24-11.81-31-11.81s-31,4.43-31,12.3c0,.49,.49,6.89,.49,6.89,0,.49,0,.98,.49,1.48-1.97,1.48-2.95,3.44-3.44,5.91,0,.49,.49,6.89,.49,6.89,0,1.97,.98,3.44,2.46,4.43,4.92,3.44,10.33,5.41,16.24,5.91,4.43,1.48,7.87,1.48,11.81,1.48"/><path class="cls-1" d="M417.3,211.6c0-.49-.49-.98-.49-1.48s-.49-.49-.98-.49l-.98-.49c-.49,.49-.98,1.48-1.48,1.97,.49,0,.98,.49,.98,.49,.98,.49,1.48,1.48,1.48,2.46s-.49,1.48-.98,1.97c-.49,.49-.98,.49-.98,.98l-1.97,.49s-1.97,.98-2.95,.98-1.97,.49-2.95,.98l-3.94,.98s-3.44,.49-4.43,.98l-4.92,.49c-.49,0-4.92,.49-6.89,.49-3.44,0-6.4,0-9.84-.49-2.46-.49-4.92-.98-6.89-1.48-2.46-.49-4.92-1.48-7.38-2.46-1.48-.49-2.46-1.48-3.94-2.46-.98-.98-1.97-1.97-2.46-3.44v7.87c0,1.97,.98,3.44,2.46,4.43,4.92,3.44,10.33,5.41,16.24,5.91,3.94,.49,7.87,.98,11.81,.98,5.91,0,11.32-.49,17.22-1.97,2.95-.49,5.91-1.97,8.86-3.44,.49-.49,1.48-.98,1.97-1.48,.98-.98,1.97-1.97,2.46-2.95,0-.49,.49-.98,.49-1.48l.49-6.4v-1.97Z"/><path class="cls-1" d="M413.85,238.67c-1.97,.98-4.43,1.97-6.89,2.95-6.89,1.97-13.78,2.95-20.67,2.46-3.44,0-6.89-.49-10.33-.98-1.97-.49-4.43-.49-6.4-.98-.98,0-1.97-.49-2.95-.98-2.95-.98-5.91-1.97-8.37-3.94-.98-.49-1.48-1.48-2.46-2.46v6.89c0,1.97,.98,3.44,2.46,4.43,4.92,3.44,10.33,5.41,16.24,5.91,3.94,.49,7.87,.98,11.81,.98,5.91,0,11.32-.49,17.22-1.97,2.95-.49,5.91-1.97,8.86-3.44,2.95-1.48,4.43-3.94,4.43-5.91v-6.89c-.49,1.48-1.97,2.95-2.95,3.94"/><path class="cls-1" d="M358.25,235.22c4.92,3.44,10.33,5.41,16.24,5.91,3.94,.49,7.87,.98,11.81,.98,5.91,0,11.32-.49,17.22-1.97,2.95-.49,5.91-1.97,8.86-3.44,.49-.49,1.48-.98,1.97-1.48,.98-.98,1.97-1.97,2.46-2.95,0-.49,.49-.98,.49-1.48v-6.89c-.98,1.48-3.44,5.41-15.75,7.87-5.41,.98-10.33,1.48-15.75,1.48-8.37,0-16.73-1.48-24.6-4.92-1.48-.49-2.46-1.48-3.94-2.46-.49-.49-1.48-1.48-1.97-2.46v7.38c0,1.97,1.48,3.44,2.95,4.43"/><path class="cls-1" d="M417.79,256.87c-.98,1.48-2.46,2.46-3.94,3.44-1.97,1.48-4.43,2.46-6.89,2.95-6.89,1.97-13.78,2.95-21.16,2.46-3.44,0-6.89-.49-10.33-.98-1.97,0-4.43-.49-6.4-.98l-2.95-.98c-2.95-.98-5.91-1.97-8.37-3.94-.98-.49-1.48-1.48-2.46-2.46v6.89c0,1.97,.98,3.44,2.46,4.43,4.92,3.44,10.83,5.41,16.24,5.91,3.94,.49,7.87,.98,11.81,.98,5.91,0,11.32-.49,17.22-1.97,2.95-.49,5.91-1.97,8.86-3.44,2.95-1.48,4.43-3.94,4.43-5.91,.98,.49,1.48-5.91,1.48-6.4"/><path class="cls-1" d="M374.49,263.27c3.94,.49,7.87,.98,11.81,.98,5.91,0,11.32-.49,17.22-1.97,2.95-.49,5.91-1.97,8.86-3.44l1.97-1.48c.98-.98,1.97-1.97,2.46-2.95,0-.49,.49-.98,.49-1.48v-6.89c-.98,1.48-3.44,5.41-15.75,7.87-4.92,.98-10.33,1.48-15.75,1.48-8.37,0-16.73-1.48-24.6-4.92-1.48-.49-2.46-1.48-3.94-2.46-.49-.49-1.48-1.48-1.97-2.46v7.38c0,1.48,.98,3.44,2.46,4.43,4.92,3.44,10.83,5.41,16.73,5.91"/><path class="cls-1" d="M59.54,238.67c0-.98,.98-2.46,2.46-3.44,.98,.98,1.97,1.48,2.95,2.46,7.87,3.44,16.73,5.41,25.59,4.92,7.38,0,14.76-.98,21.65-3.44,.98-.49,1.97-.98,2.46-.98v.98c0,4.43-11.32,9.35-27.56,9.35s-27.56-5.41-27.56-9.84m30.51-24.11c16.24,0,27.56,4.92,27.56,9.35s-11.32,9.35-27.56,9.35-28.05-4.92-28.05-9.35,11.81-9.35,28.05-9.35m-2.95,42.32c16.73,0,30.51-4.92,30.51-11.32,0,0,.49-5.91,0-6.89,0-.98,0-1.48-.49-2.46,1.97-.98,2.95-2.95,3.44-4.92,0,0,.49-6.4,0-7.87-.98-7.87-16.24-11.81-31-11.81s-31,4.43-31,12.3c0,.49,.49,6.89,.49,6.89,0,.49,0,.98,.49,1.48-2.46,1.48-3.94,3.44-3.94,6.4,0,.49,.49,6.89,.49,6.89,0,1.97,.98,3.44,2.46,4.43,4.92,3.44,10.33,5.41,16.24,5.91,4.43,.98,8.37,1.48,12.3,.98"/><path class="cls-1" d="M120.07,249.49c0-.49-.49-.49-.98-.49l-.98-.49c-.49,.49-.98,1.48-1.48,1.97,.49,0,.98,.49,.98,.49,.98,.49,1.48,1.48,1.48,2.46s-.49,1.48-.98,1.97-.98,.49-.98,.98l-1.97,.98s-1.97,.98-2.46,.98-1.97,.49-2.46,.98l-3.94,.98s-2.95,.49-4.92,.98l-4.92,.49c-.49,0-4.92,.49-6.89,.49-3.44,0-6.4,0-9.84-.49-2.46-.49-4.92-.98-6.89-1.48-2.46-.49-4.92-1.48-7.38-2.46-1.48-.49-2.46-1.48-3.44-2.46-.98-.98-1.97-1.97-2.46-3.44v7.87c0,1.97,.98,3.44,2.46,4.43,4.92,3.44,10.33,5.41,16.24,5.91,3.94,.49,7.87,.98,11.81,.98,5.91,0,11.32-.49,17.22-1.97,3.44-.49,6.4-1.97,9.35-3.44,.49-.49,1.48-.98,1.97-1.48,.98-.98,1.97-1.97,2.46-2.95,0-.49,.49-.98,.49-1.48,0,0,.49-6.4,.49-6.89v-1.48c-.98-.98-1.48-1.48-1.97-1.97"/><path class="cls-1" d="M396.14,371.04c6.89,0,12.79-5.91,12.79-12.79s-5.91-12.79-12.79-12.79-12.79,5.91-12.79,12.79c0,7.38,5.91,12.79,12.79,12.79"/><path class="cls-1" d="M432.06,421.73l-10.33-34.45s-3.94-9.84-12.3-9.84h-27.07c-8.37,0-12.3,9.84-12.3,9.84l-10.33,34.45s-1.97,6.4,3.44,7.87c5.41,1.48,6.89-4.43,6.89-4.43l8.37-28.54s.49-1.97,1.97-1.48,.98,2.95,.98,2.95l-14.76,53.64h13.78v38.38c.49,3.44,3.44,6.4,7.38,5.91,3.44-.49,5.91-2.95,5.91-5.91v-38.38h3.94v38.38c0,3.44,2.95,6.4,6.4,6.4s6.4-2.95,6.4-6.4v-38.38h13.78l-14.76-53.64s-.49-2.46,.98-2.95c1.48-.49,1.97,1.48,1.97,1.48l8.37,28.54s1.48,5.91,6.89,4.43c5.41-1.48,4.43-7.87,4.43-7.87"/><path class="cls-1" d="M274.1,366.12c7.38,0,13.29-5.91,13.29-13.29s-5.91-13.29-13.29-13.29-13.29,5.91-13.29,13.29,5.91,13.29,13.29,13.29"/><path class="cls-1" d="M289.85,371.53h-31c-9.35,.98-16.24,8.37-16.24,17.72v36.91c0,1.48,.98,2.95,1.97,3.94l-11.81,62c-.49,.98,.49,1.97,1.48,2.46h.49c.98,0,1.97-.49,1.97-1.48l11.81-62c2.46-.49,4.43-2.46,4.43-4.92v-31.49c0-.98,.49-2.95,2.46-2.95s1.97,1.48,1.97,2.46v94.48c0,3.94,3.44,7.38,7.38,7.38s7.38-3.44,7.38-7.38v-54.62c0-.98,.98-1.97,1.97-1.97s1.97,.98,1.97,1.97v55.11c-.49,3.94,2.46,7.87,6.4,8.37s7.87-2.46,8.37-6.4v-96.94c0-.98,.49-2.46,1.97-2.46s2.46,1.48,2.46,2.95v31.49c0,2.95,2.46,4.92,4.92,4.92,2.95,0,4.92-2.46,4.92-4.92v-36.91c.49-9.35-6.4-16.73-15.25-17.72"/><path class="cls-1" d="M354.8,422.22c-1.97-.98-4.43,0-5.41,1.97-1.97,3.44-4.43,6.89-6.89,10.33-.98,.98-1.97,1.48-3.44,1.48h-12.79c-1.48,0-2.46-.49-3.44-1.48-1.48-1.48-6.4-10.33-6.89-10.83-.49-.98-1.97-1.97-3.44-1.97-1.97,0-3.94,1.97-3.94,3.94,0,.49,0,.98,.49,1.48l10.83,19.19c.49,.98,.49,1.48,.49,2.46v2.95c0,.98,0,1.97-.49,3.44l-4.92,20.18h5.91v15.25c.49,2.95,2.95,4.92,5.91,4.92,2.46,0,4.43-2.46,4.92-4.92v-14.76h2.95v15.26c.49,2.95,2.95,4.92,5.91,4.92,2.46,0,4.43-2.46,4.92-4.92v-14.76h5.91l-5.41-20.18c-.49-.98-.49-1.97-.49-2.46v-3.44c0-.98,.49-1.97,.49-2.46l9.84-17.72,.98-1.97c.49-2.95,0-4.92-1.97-5.91"/><path class="cls-1" d="M332.66,429.11c5.91,0,10.83-4.92,10.83-10.83s-4.92-10.83-10.83-10.83-10.83,4.92-10.83,10.83,4.92,10.83,10.83,10.83"/><path class="cls-1" d="M68.89,365.63l17.72-17.72c-.49-.98-.98-1.48-1.48-2.46l-18.7,18.7c.49,.49,1.48,.98,2.46,1.48"/><path class="cls-1" d="M64.46,362.18l18.7-18.7c-.98-.49-1.48-.98-2.46-1.48l-17.72,17.72c.49,.49,.98,1.48,1.48,2.46"/><path class="cls-1" d="M86.61,359.23l-5.91,6.4c2.46-1.48,4.43-3.44,5.91-6.4"/><path class="cls-1" d="M77.75,340.53c-.98,0-1.97-.49-2.95-.49h-.49l-12.79,12.79v.49c0,.98,0,1.97,.49,2.95l15.75-15.75Z"/><path class="cls-1" d="M74.8,367.1h.49l12.79-12.79v-.49c0-.98,0-1.97-.49-2.95l-15.75,15.75c.49,0,1.97,.49,2.95,.49"/><path class="cls-1" d="M62.99,347.91l5.91-5.91c-2.46,.98-4.92,3.44-5.91,5.91"/><polygon class="cls-1" points="36.42 476.35 41.34 471.43 42.32 466.51 37.4 471.43 36.42 476.35"/><polygon class="cls-1" points="34.45 486.19 39.86 480.78 40.35 475.86 35.43 481.27 34.45 486.19"/><polygon class="cls-1" points="57.58 478.32 72.34 463.56 72.34 459.62 57.58 474.38 57.58 478.32"/><path class="cls-1" d="M33.46,492.59c0,.49,0,1.48,.49,1.97q.49,.49,.98,.49h.49c.98,0,1.97-.49,1.97-1.48l.49-2.95,.98-4.92-4.92,4.92-.49,1.97Z"/><polygon class="cls-1" points="38.38 466.51 43.3 461.59 44.29 456.67 39.37 461.59 38.38 466.51"/><polygon class="cls-1" points="39.86 457.16 45.27 451.74 45.77 447.32 40.84 452.24 39.86 457.16"/><polygon class="cls-1" points="76.77 459.62 91.53 444.86 91.53 440.92 76.77 455.68 76.77 459.62"/><polygon class="cls-1" points="95.96 424.68 106.29 414.35 106.29 410.41 95.96 420.74 95.96 424.68"/><path class="cls-1" d="M97.93,430.58l8.37-8.37v-3.94l-9.84,9.84c0,.98,.98,1.97,1.48,2.46"/><polygon class="cls-1" points="95.96 416.81 106.29 406.47 106.29 402.54 95.96 412.87 95.96 416.81"/><polygon class="cls-1" points="76.77 467.49 91.53 452.73 91.53 448.79 76.77 463.56 76.77 467.49"/><path class="cls-1" d="M63.48,496.53l8.86-9.35v-3.94l-11.81,11.81c.98,.98,1.97,1.48,2.95,1.48"/><polygon class="cls-1" points="57.58 486.19 72.34 471.43 72.34 467.49 57.58 482.25 57.58 486.19"/><path class="cls-1" d="M58.56,493.08l13.78-13.78v-3.94l-14.76,14.76c0,.98,.49,1.97,.98,2.95"/><polygon class="cls-1" points="76.77 483.24 91.53 468.48 91.53 464.54 76.77 479.3 76.77 483.24"/><polygon class="cls-1" points="76.77 475.37 91.53 460.6 91.53 456.67 76.77 471.43 76.77 475.37"/><path class="cls-1" d="M57.58,415.82l40.84-40.84c-.98-.49-1.48-.98-2.46-1.48l-38.38,38.38v3.94Z"/><polygon class="cls-1" points="76.77 443.87 91.53 429.11 91.53 425.17 76.77 439.93 76.77 443.87"/><polygon class="cls-1" points="76.77 489.64 76.77 491.11 91.53 476.35 91.53 472.41 76.77 487.18 76.77 489.64"/><path class="cls-1" d="M84.15,497.02c.98,0,1.97-.49,2.95-.98,1.48-.49,2.46-1.97,3.44-3.44,.49-.98,.98-1.97,.98-3.44v-1.48l-8.86,8.86c.49,.49,.98,.49,1.48,.49"/><polygon class="cls-1" points="57.58 447.32 91.53 413.36 91.53 409.42 57.58 443.38 57.58 447.32"/><polygon class="cls-1" points="57.58 454.7 72.34 439.93 72.34 436 57.58 450.76 57.58 454.7"/><path class="cls-1" d="M76.77,435.01v.98l14.76-14.76v-3.94l-15.75,15.75c.49,.49,.98,.98,.98,1.97"/><polygon class="cls-1" points="57.58 439.44 91.53 405.49 91.53 401.55 57.58 435.51 57.58 439.44"/><polygon class="cls-1" points="41.83 447.32 46.75 442.4 47.73 437.47 42.81 442.4 41.83 447.32"/><path class="cls-1" d="M72.34,491.6l-4.92,4.92c2.46-.49,4.43-2.46,4.92-4.92"/><polygon class="cls-1" points="65.94 372.03 43.3 395.15 43.3 396.14 43.3 399.09 69.88 372.03 65.94 372.03"/><path class="cls-1" d="M45.77,380.88l6.4-6.4c-2.95,1.48-4.92,3.94-6.4,6.4"/><polygon class="cls-1" points="57.58 431.57 91.53 397.61 91.53 394.66 91.53 393.68 57.58 427.63 57.58 431.57"/><path class="cls-1" d="M80.21,495.54l11.32-11.32v-3.94l-13.29,13.29c.49,.98,.98,1.48,1.97,1.97"/><polygon class="cls-1" points="60.04 372.03 59.05 372.03 58.07 372.03 43.3 386.79 43.3 389.74 43.3 391.22 62.5 372.52 60.04 372.52 60.04 372.03"/><polygon class="cls-1" points="57.58 462.57 72.34 447.81 72.34 443.87 57.58 458.63 57.58 462.57"/><polygon class="cls-1" points="43.3 414.84 53.15 404.5 53.15 400.57 43.3 410.9 43.3 414.84"/><path class="cls-1" d="M74.8,372.03h-.49l-31,31v3.94l10.33-10.33v-1.48c0-.98,.49-2.95,2.46-2.95,.49,0,.98,.49,1.48,.49l20.67-20.67h-3.44Z"/><polygon class="cls-1" points="57.58 400.07 85.62 372.03 81.69 372.03 57.58 396.14 57.58 400.07"/><path class="cls-1" d="M43.8,437.47l4.92-4.92v-.98c.49,0,.98,0,1.48-.49,.98-.49,1.97-1.48,2.46-2.46,.49-.49,.49-1.48,.49-1.97v-2.46l-8.86,8.86-.49,4.43Z"/><path class="cls-1" d="M57.58,407.95l35.43-35.43c-.98-.49-1.97-.49-2.95-.49h-.49l-31.99,31.99v3.94Z"/><polygon class="cls-1" points="43.3 422.71 53.15 412.38 53.15 408.44 43.3 418.77 43.3 422.71"/><path class="cls-1" d="M43.3,426.65c0,.98,.49,1.97,.98,2.95l9.35-9.35v-3.94l-10.33,10.33Z"/><path class="cls-1" d="M105.8,387.28l-9.84,9.84v3.94l10.33-10.33v-.98c0-.98,0-1.48-.49-2.46"/><polygon class="cls-1" points="95.96 408.93 106.29 398.6 106.29 396.14 106.29 394.66 95.96 405 95.96 408.93"/><polygon class="cls-1" points="57.58 470.44 72.34 455.68 72.34 451.74 57.58 466.51 57.58 470.44"/><polygon class="cls-1" points="76.77 451.74 91.53 436.98 91.53 433.05 76.77 447.81 76.77 451.74"/><path class="cls-1" d="M103.83,381.38l-10.83,10.83h.49c.98,0,1.97,.49,2.46,1.48l9.35-9.35c-.49-.98-.98-1.97-1.48-2.95"/><path class="cls-1" d="M100.88,431.57c2.95,0,4.92-1.97,4.92-4.43v-.98l-4.92,5.41Z"/><path class="cls-1" d="M57.58,423.7l44.78-44.78c-.49-.49-.98-1.48-1.97-1.97l-42.81,42.81v3.94Z"/><path class="cls-1" d="M113.67,422.22c-.49,0-.98,0-1.48,.49-.98,.49-1.97,1.48-2.46,2.46v1.48c0,.49,0,.98,.49,1.48l.49,.49,5.41-5.41c-.49-.49-1.48-.98-2.46-.98"/><path class="cls-1" d="M121.55,448.79l12.3-12.3h-3.94l-9.84,9.84,.49,.98c.49,.49,.98,.98,.98,1.48"/><polygon class="cls-1" points="117.61 425.17 111.71 431.08 113.18 433.54 119.09 427.63 117.61 425.17"/><polygon class="cls-1" points="122.04 432.55 120.56 430.09 114.66 436 116.13 438.46 122.04 432.55"/><path class="cls-1" d="M124.01,435.01l-6.4,6.4,1.48,2.46,7.38-7.38c-.98-.49-1.48-.98-2.46-1.48"/><path class="cls-1" d="M121.55,476.35v3.94l24.6-24.6c0-.98-.49-1.48-.49-2.46v-.98l-24.11,24.11Z"/><path class="cls-1" d="M136.8,495.54l8.86-8.86v-3.94l-10.33,10.33c.49,.98,.98,1.97,1.48,2.46"/><path class="cls-1" d="M121.55,491.6h0c0,.98,.49,1.97,.98,2.46l9.84-9.84v-3.94l-10.83,11.32Z"/><path class="cls-1" d="M140.74,496.53c2.95,0,5.41-2.46,5.41-5.41v-.49l-5.91,5.91h.49Z"/><path class="cls-1" d="M140.25,436.49h-1.97l-16.73,16.24c0,.98,0,1.97-.49,3.44l-.49,1.48,34.94-34.94c-1.97-.98-4.43,0-5.41,1.97-1.97,3.44-4.43,6.89-6.89,10.33-.49,.98-1.97,1.48-2.95,1.48"/><polygon class="cls-1" points="147.14 459.13 121.55 484.22 121.55 487.18 132.37 476.35 147.63 461.09 147.14 459.13"/><polygon class="cls-1" points="150.09 470.44 135.33 485.21 135.33 489.14 145.66 478.81 145.66 476.35 148.12 476.35 151.57 476.35 150.58 473.89 150.09 470.44"/><path class="cls-1" d="M157.47,424.68l-37.89,37.89-1.48,5.41,37.89-37.89,.49-.98s.49-1.48,.98-1.97c.49-.49,.49-1.48,0-2.46"/><polygon class="cls-1" points="135.33 481.27 149.11 467.49 148.61 464.05 135.33 477.33 135.33 481.27"/><polygon class="cls-1" points="146.64 447.32 151.07 439.44 116.63 473.4 115.64 476.35 117.61 476.35 146.15 447.81 146.64 447.32"/><path class="cls-1" d="M132.87,429.6l11.32-11.32c0-.98-.49-1.97-.49-3.44l-13.78,13.78c.98,.98,1.97,.98,2.95,.98"/><path class="cls-1" d="M127.45,427.63l14.76-14.76c-.49-.98-.98-1.48-1.97-1.97l-14.76,14.76c.49,.49,.98,1.48,1.97,1.97"/><path class="cls-1" d="M143.69,423.2l-5.91,5.91c2.46-.98,4.92-3.44,5.91-5.91"/><path class="cls-1" d="M124.01,415.33l5.91-5.91c-2.95,.98-4.92,2.95-5.91,5.91"/><path class="cls-1" d="M137.79,409.42c-.98-.49-1.97-.49-3.44-.49l-11.32,11.32c0,.98,.49,1.97,.49,3.44l14.27-14.27Z"/><path class="cls-1" d="M126.96,496.53c2.95,0,4.92-2.46,5.41-5.41v-2.95l-7.87,7.87c.98,.49,1.48,.49,2.46,.49"/><path class="cls-1" d="M185.52,364.64l17.22-16.73c-.98-.49-1.97-.98-2.95-.98l-15.25,15.25c0,.98,.49,1.97,.98,2.46"/><path class="cls-1" d="M190.93,347.91c-1.97,.98-3.94,2.95-4.92,4.92-.98,1.48-1.48,3.44-1.48,5.41l11.81-11.81c-1.97,0-3.94,.49-5.41,1.48"/><path class="cls-1" d="M209.14,360.71l-10.83,10.83c5.91-.98,10.33-4.92,10.83-10.83"/><path class="cls-1" d="M189.46,369.07l17.72-17.72c-.49-.98-.98-1.48-1.97-1.97l-17.72,17.72c.49,.98,.98,1.48,1.97,1.97"/><path class="cls-1" d="M194.87,371.53l14.76-14.76c0-.98-.49-1.97-.98-2.95l-16.73,16.73c.98,.49,1.97,.98,2.95,.98"/><polygon class="cls-1" points="179.12 399.09 162.88 415.33 161.41 420.74 177.15 404.5 179.12 399.09"/><polygon class="cls-1" points="184.54 377.93 169.77 392.2 168.3 398.11 188.47 377.93 184.54 377.93"/><path class="cls-1" d="M183.06,493.57l12.3-12.3v-3.94l-13.29,13.29c0,.98,.49,1.97,.98,2.95"/><path class="cls-1" d="M233.25,423.2l-6.4,6.4c.98,.49,1.97,.49,2.95,0,2.46-.49,3.94-3.44,3.44-6.4"/><polygon class="cls-1" points="170.27 442.89 212.09 401.55 211.11 398.6 171.74 437.47 170.27 442.89"/><path class="cls-1" d="M171.74,386.3l7.87-7.87c-3.44,1.97-5.91,4.43-7.87,7.87"/><path class="cls-1" d="M211.6,492.1l-3.94,3.94c1.97-.49,3.44-1.97,3.94-3.94"/><path class="cls-1" d="M194.87,492.59l-3.94,3.94c1.48-.98,2.95-2.46,3.94-3.94"/><polygon class="cls-1" points="192.41 377.93 166.33 404.01 164.85 409.42 196.35 377.93 192.41 377.93"/><polygon class="cls-1" points="198.81 457.65 198.81 461.59 221.94 438.46 221.44 435.51 198.81 457.65"/><path class="cls-1" d="M173.22,432.06l47.73-47.73c-.49-.98-.98-1.48-1.48-2.46l-44.29,44.29-1.97,5.91Z"/><polygon class="cls-1" points="198.81 477.33 212.09 464.05 212.09 460.11 198.81 473.4 198.81 477.33"/><polygon class="cls-1" points="181.58 459.13 181.58 463.06 218.98 426.16 218 423.2 181.58 459.13"/><polygon class="cls-1" points="181.58 455.19 217.01 419.76 216.03 416.81 181.58 451.74 181.58 455.19"/><path class="cls-1" d="M175.68,410.41l-15.26,15.26c0,.98,.49,1.97,.98,2.95l12.3-12.3,1.97-5.91Z"/><polygon class="cls-1" points="181.58 470.94 194.87 457.65 194.87 453.71 181.58 467 181.58 470.94"/><polygon class="cls-1" points="181.58 486.68 194.87 473.4 194.87 469.46 181.58 482.75 181.58 486.68"/><path class="cls-1" d="M187.49,496.53l7.38-7.38v-3.94l-10.33,10.33c.98,.49,1.97,.98,2.95,.98"/><polygon class="cls-1" points="181.58 478.81 194.87 465.52 194.87 461.59 181.58 474.87 181.58 478.81"/><polygon class="cls-1" points="219.97 416.81 228.82 408.44 227.84 405.49 218.98 413.85 219.97 416.81"/><path class="cls-1" d="M214.06,396.63l.49,1.97,8.37-8.37-.98-2.46v-.49l-8.37,8.37c.49,.49,.49,.98,.49,.98"/><polygon class="cls-1" points="180.6 405 179.12 410.41 211.6 377.93 210.13 377.93 207.66 377.93 180.6 405"/><path class="cls-1" d="M203.73,496.03l8.37-8.37v-3.94l-10.83,10.83c.49,.98,1.48,1.48,2.46,1.48"/><path class="cls-1" d="M198.81,490.13c0,.98,0,1.97,.49,2.46l12.79-12.79v-3.94l-13.29,13.29v.98Z"/><polygon class="cls-1" points="222.92 441.41 213.08 451.74 217.01 451.74 223.9 444.36 222.92 441.41"/><path class="cls-1" d="M176.17,421.23l40.84-40.84c-.98-.49-1.48-.98-2.46-1.48l-36.91,36.91-1.48,5.41Z"/><polygon class="cls-1" points="198.81 469.46 212.09 456.17 212.09 452.24 198.81 465.52 198.81 469.46"/><polygon class="cls-1" points="218.49 410.9 226.86 402.04 225.87 399.09 217.51 407.95 218.49 410.9"/><polygon class="cls-1" points="198.81 453.71 220.46 432.06 219.48 429.11 197.33 451.74 198.81 451.74 198.81 453.71"/><polygon class="cls-1" points="214.55 410.9 173.71 451.74 177.65 451.74 215.54 413.85 214.55 410.9"/><path class="cls-1" d="M224.4,428.62l8.37-8.37-.98-2.95-8.86,8.86c0,.98,.49,1.48,1.48,2.46"/><polygon class="cls-1" points="221.94 423.2 230.79 414.35 229.81 411.39 220.95 419.76 221.94 423.2"/><polygon class="cls-1" points="198.81 485.21 212.09 471.92 212.09 467.98 198.81 481.27 198.81 485.21"/><polygon class="cls-1" points="224.89 447.81 220.95 451.74 224.89 451.74 225.87 451.74 225.38 450.76 224.89 447.81"/><path class="cls-1" d="M182.08,399.58l21.65-21.65h-3.44l-17.72,17.72c.49,.49,.49,1.48,.49,2.46l-.98,1.48Z"/><polygon class="cls-1" points="216.52 405 224.89 396.14 223.9 393.19 215.54 401.55 216.52 405"/><polygon class="cls-1" points="212.59 404.5 168.79 448.3 168.3 451.74 169.77 451.74 213.57 407.46 212.59 404.5"/><path class="cls-1" d="M170.27,427.63c.49-.49,.98-1.48,.98-1.97l.98-3.94-8.37,8.37h.49c1.48,.49,2.95,.49,3.94-.49l1.97-1.97"/><path class="cls-1" d="M257.37,239.65l-35.43,28.05c-.49,.49-.98,.49-1.48,.49-.98,0-.98-.49-.98-1.97v-14.27h-66.43c-.49,0-1.48-.49-.98-1.48v-24.6c0-.98,.49-1.48,.98-1.48h65.94v-14.27c0-.98,.49-1.48,.98-1.48s.98,0,1.48,.49l35.43,27.07c.49,.49,.98,.98,.98,1.97,0,.49,0,.98-.49,1.48"/></g></svg>