<?xml version="1.0" encoding="UTF-8"?><svg id="Capa_1" xmlns="http://www.w3.org/2000/svg" viewBox="0 0 467 568.37"><defs><style>.cls-1{fill:#fff;}.cls-2{fill:#b11546;}</style></defs><path class="cls-2" d="M4.92,80.7H461.59V4.92H4.92V80.7Zm462.08,4.92H0V0H466.51l.49,85.62Z"/><polygon class="cls-2" points="16.73 17.72 38.88 17.72 38.88 24.6 32.48 24.6 32.48 67.91 23.62 67.91 23.62 24.6 16.73 24.6 16.73 17.72"/><path class="cls-2" d="M49.21,52.16h6.89l-3.44-20.18-3.44,20.18Zm-10.33,15.75l9.35-50.19h9.35l9.84,50.19h-8.86l-1.48-9.35h-8.86l-1.48,9.35h-7.87Z"/><path class="cls-2" d="M80.21,24.6v15.75h2.95c2.95,0,3.94-1.48,3.94-3.94v-7.38c0-2.95-1.48-3.94-3.94-3.94l-2.95-.49Zm0,20.18v23.13h-8.37V17.72h12.3c8.37,0,11.81,4.43,11.81,11.32v6.4c0,5.41-1.97,8.37-6.89,9.84l7.87,22.64h-8.86l-7.87-23.13Z"/><path class="cls-2" d="M113.67,41.34h11.81v26.57h-5.91v-5.41c-.98,3.94-3.44,5.91-7.87,5.91-7.38,0-10.33-5.91-10.33-13.29V31c0-7.87,3.94-13.29,12.79-13.29,9.35,0,11.81,5.41,11.81,12.79v4.43h-7.87v-4.92c0-2.95-.98-4.92-4.43-4.92-2.95,0-4.43,1.97-4.43,4.92v27.07c0,2.95,1.48,4.92,3.94,4.92,2.95,0,3.94-1.48,3.94-4.92v-9.35h-3.94v-6.4h.49Z"/><polygon class="cls-2" points="132.37 17.72 152.55 17.72 152.55 24.6 140.74 24.6 140.74 38.88 149.11 38.88 149.11 45.77 140.74 45.77 140.74 61.02 152.55 61.02 152.55 67.91 132.37 67.91 132.37 17.72"/><polygon class="cls-2" points="156.49 17.72 178.63 17.72 178.63 24.6 171.74 24.6 171.74 67.91 163.38 67.91 163.38 24.6 156.49 24.6 156.49 17.72"/><path class="cls-2" d="M387.77,32.48v-3.44c0-2.95-.98-4.92-3.94-4.92s-3.94,1.97-3.94,4.92v3.44c0,2.95,.98,4.92,3.94,4.92,2.95-.49,3.94-1.97,3.94-4.92m.49,24.11v-7.87c0-2.95-.98-4.92-3.94-4.92s-3.94,1.97-3.94,4.92v7.87c0,2.95,.98,4.92,3.94,4.92,2.46,0,3.94-1.97,3.94-4.92m-16.73-.98v-5.41c0-4.92,1.48-8.37,5.41-9.84-3.44-1.48-4.92-4.43-4.92-8.86v-1.97c0-7.87,3.94-11.81,11.81-11.81s11.81,4.43,11.81,11.81v1.97c0,3.94-1.48,6.89-4.92,8.86,3.94,1.97,5.41,5.41,5.41,9.84v5.41c0,7.38-3.44,12.79-12.3,12.79s-12.3-4.92-12.3-12.79"/><path class="cls-2" d="M410.41,36.91c3.44,0,5.91,2.95,5.91,5.91,0,3.44-2.95,5.91-5.91,5.91-3.44,0-5.91-2.95-5.91-5.91s2.46-5.91,5.91-5.91"/><path class="cls-2" d="M447.81,44.78v12.3c0,6.89-3.44,11.32-11.81,11.32s-11.81-4.92-11.81-12.3v-5.91h7.87v6.4c0,2.95,.98,4.92,3.94,4.92,2.46,0,3.44-1.97,3.44-4.43v-12.3c0-2.95-.98-4.43-3.44-4.43s-3.94,1.48-3.94,4.43v.98h-7.87V17.72h22.14v6.89h-14.27v12.3c1.48-2.46,3.94-3.44,6.89-3.44,4.92,.49,8.86,3.44,8.86,11.32"/><g><rect class="cls-2" y="101.86" width="466.51" height="466.51"/><path class="cls-1" d="M206.68,311.99c3.94,1.48,8.37-.98,9.84-4.92l7.38-20.67,11.32-3.94h.49v33.95c0,7.87,2.46,15.26,10.33,17.22l2.46,.49c1.48,0,2.46,.49,3.94,.49h37.89l10.33,19.68v.49l3.94,6.89,3.44,6.89,.49,.49,3.94,7.38c2.46,4.92,8.37,6.89,13.29,4.43,4.92-2.46,6.89-8.37,4.43-13.29l-7.87-14.76v-.49l-18.21-35.43c-1.48-3.44-4.92-5.41-8.86-4.92h-25.59l-.49-31.99c-.49-9.84-2.46-15.25-10.33-17.22-3.94-.49-7.38-.49-11.32,0l-.98,.49-30.51,9.84h-.49l-.98,.49h-.49c-1.48,.98-2.46,2.46-3.44,3.94l-8.37,24.6c-.98,3.94,.98,7.87,4.43,9.84"/><path class="cls-1" d="M237.68,397.12c26.57-.49,48.23-22.14,48.23-48.72v-1.97h-11.81v1.97c0,20.18-16.73,36.42-36.91,36.42s-36.42-16.73-36.42-36.91c0-7.87,2.46-15.75,7.38-22.14l-8.86-7.38c-16.24,20.67-12.79,50.69,7.87,66.93l.49,.49c8.37,7.38,19.19,11.32,30.02,11.32"/><path class="cls-1" d="M234.73,238.17c0,10.33,8.37,18.7,18.7,18.7s18.7-8.37,18.7-18.7c0-1.48,0-2.46-.49-3.94h-36.42c-.49,.98-.49,2.46-.49,3.94"/><path class="cls-1" d="M274.1,223.41h-1.97c-1.48-5.41-4.92-9.84-9.84-12.3l-2.95,8.37v-12.79h-9.84v12.79l-3.44-8.86c-5.41,2.46-9.84,6.89-11.32,12.79h-1.97v6.89h41.83l-.49-6.89Z"/><path class="cls-1" d="M121.06,213.08c10.33,0,18.7-8.37,18.7-18.7s-8.37-18.7-18.7-18.7-18.7,8.37-18.7,18.7,8.37,18.7,18.7,18.7"/><path class="cls-1" d="M100.39,251.95l-13.29,49.7h-4.92v-3.94c0-.49,0-.98-.49-1.48,.98-.98,1.48-1.97,1.97-3.44l12.3-42.32s.49-3.44,2.95-2.46c2.46,.98,1.48,3.94,1.48,3.94m-35.92,49.7v-3.44c0-.49,.49-.98,.98-.98h3.94c.98,.98,2.46,1.97,3.94,2.46,1.97,.49,3.94,.49,5.41-.49v2.46h-14.27Zm110.23-14.27l-15.75-50.69s-5.41-14.76-18.21-14.76h-5.91l-12.79,21.16-14.76-21.16h-5.91c-12.3,0-17.72,14.76-17.72,14.76l-15.25,51.18c-.49,1.97-.49,3.94,0,5.91h-1.97c-2.46,0-4.43,1.97-4.43,4.43v3.94h-14.76c-2.46,0-4.43,1.97-4.43,4.43v8.37c0,.98,0,1.48,.49,2.46,.98,3.94,4.43,6.4,8.37,6.4h16.73v-3.44c0-.98,.98-1.97,1.97-2.46h3.44c.98,0,1.97,.98,1.97,1.97v3.44h16.73c3.94,0,7.38-2.46,8.37-6.4v6.4c-1.97,2.46-4.92,3.94-8.37,4.43h-16.73v3.44c0,.98-.98,2.46-1.97,2.46h-3.94c-.98,0-1.97-1.48-1.97-2.46v-3.44h-16.73c-3.44,0-6.4-1.48-8.37-4.43q0-.49-.49-.49v22.14c0,2.46,1.97,4.43,4.43,4.43l50.69-.49c.49,0,1.48,0,1.97-.49v39.86c0,5.41,4.43,9.84,9.84,9.84s9.84-4.43,9.84-9.84l-.49-56.59h5.41l.49,57.08c0,5.41,4.43,9.84,9.84,9.84s9.84-4.43,9.84-9.84l-.49-56.59h20.18l-22.14-79.72s-.98-3.44,1.48-4.43c2.46-.98,2.95,2.46,2.95,2.46l12.79,42.32s2.46,8.86,10.33,6.89c7.87-1.97,5.41-12.3,5.41-12.3"/><path class="cls-1" d="M70.37,320.85h2.95q.49,0,.49,.49v7.87q0,.49-.49,.49h-2.95q-.49,0-.49-.49v-7.87q0-.49,.49-.49"/><path class="cls-1" d="M354.31,385.8c0,5.91,4.43,10.33,10.33,10.33s10.33-4.43,10.33-10.33v-7.87h-20.67v7.87Z"/><path class="cls-1" d="M391.22,396.14c5.41,0,10.33-4.43,10.33-9.84v-8.37h-20.67v7.87c0,5.41,4.43,10.33,10.33,10.33"/><path class="cls-1" d="M333.15,254.91v42.81c0,3.94,3.44,7.38,7.38,7.38s7.38-3.44,7.38-7.38v-44.29c0-1.48,.49-3.94,3.44-3.94h7.38v-28.05h-2.95c-12.79,.98-22.64,11.81-22.64,24.6v8.86Z"/><polygon class="cls-1" points="388.76 220.95 377.44 220.95 366.61 221.44 367.1 237.19 389.25 237.19 388.76 220.95"/><path class="cls-1" d="M377.93,305.1h0c1.48,0,2.95,.98,2.95,2.46v65.45h20.67l-.49-119.09h-8.86v-11.81h-28.54v11.81h-9.84l.49,119.58h20.67v-65.45c0-1.48,.98-2.46,2.95-2.95"/><path class="cls-1" d="M397.12,239.16v10.33h6.89c2.95,0,3.44,2.46,3.44,3.94v44.29c.49,3.94,3.94,6.89,7.87,6.4,3.44,0,6.4-2.95,6.4-6.4v-51.67c0-12.79-9.84-23.62-22.64-24.6h-2.46l.49,17.72Z"/><path class="cls-1" d="M395.15,239.16c0-.98-.98-1.97-1.97-1.97s-1.97,.98-1.97,1.97,.98,1.97,1.97,1.97,1.97-.98,1.97-1.97"/><path class="cls-1" d="M365.14,239.16c0-.98-.98-1.97-1.97-1.97s-1.97,.98-1.97,1.97,.98,1.97,1.97,1.97c1.48-.49,1.97-.98,1.97-1.97"/><path class="cls-1" d="M376.95,211.6c10.83,0,19.68-8.86,19.68-19.68v-.49c0-10.83-8.86-19.68-19.68-19.68h-.49c-10.83,0-19.68,8.86-19.68,19.68v.49c0,10.83,8.86,19.68,20.18,19.68"/><path class="cls-1" d="M421.23,434.03H44.78c-1.48,0-2.46,.98-2.95,2.46v17.72c0,1.48,1.48,2.95,2.95,2.95H421.73c1.48,0,2.95-.98,2.95-2.95v-17.72c-.49-1.48-1.48-2.46-3.44-2.46"/><path class="cls-1" d="M230.79,466.02l-26.08,45.27c-.98,1.48,0,3.44,1.48,3.94,.49,0,.49,.49,.98,.49h52.65c1.48,0,2.95-.98,2.95-2.46,0-.49,0-1.48-.49-1.97l-26.08-45.27c-.98-1.48-2.95-1.97-4.43-.98l-.98,.98Z"/></g></svg>