<?xml version="1.0" encoding="UTF-8"?><svg id="Capa_1" xmlns="http://www.w3.org/2000/svg" viewBox="0 0 467 568.37"><defs><style>.cls-1{fill:#00486e;}.cls-2{fill:#fff;}</style></defs><path class="cls-1" d="M4.92,80.7H461.59V4.92H4.92V80.7Zm462.08,4.92H0V0H466.51V85.62h.49Z"/><polygon class="cls-1" points="16.73 17.72 38.88 17.72 38.88 24.6 32.48 24.6 32.48 67.91 23.62 67.91 23.62 24.6 16.73 24.6 16.73 17.72"/><path class="cls-1" d="M49.21,52.16h6.89l-3.44-20.18-3.44,20.18Zm-10.33,15.75l9.35-50.19h9.35l9.84,50.19h-8.86l-1.48-9.35h-8.86l-1.48,9.35h-7.87Z"/><path class="cls-1" d="M80.21,24.6v15.75h2.95c2.95,0,3.94-1.48,3.94-3.94v-7.38c0-2.95-1.48-3.94-3.94-3.94h-2.95v-.49Zm0,20.18v23.13h-8.37V17.72h12.3c8.37,0,11.81,4.43,11.81,11.32v6.4c0,5.41-1.97,8.37-6.89,9.84l7.87,22.64h-8.86l-7.87-23.13Z"/><path class="cls-1" d="M113.67,41.34h11.81v26.57h-5.91v-5.41c-.98,3.94-3.44,5.91-7.87,5.91-7.38,0-10.33-5.91-10.33-13.29V31c0-7.87,3.94-13.29,12.79-13.29,9.35,0,11.81,5.41,11.81,12.79v4.43h-7.87v-4.92c0-2.95-.98-4.92-4.43-4.92-2.95,0-4.43,1.97-4.43,4.92v27.07c0,2.95,1.48,4.92,3.94,4.92,2.95,0,3.94-1.48,3.94-4.92v-9.35h-3.94v-6.4h.49Z"/><polygon class="cls-1" points="132.37 17.72 152.55 17.72 152.55 24.6 140.74 24.6 140.74 38.88 149.11 38.88 149.11 45.77 140.74 45.77 140.74 61.02 152.55 61.02 152.55 67.91 132.37 67.91 132.37 17.72"/><polygon class="cls-1" points="156.49 17.72 178.63 17.72 178.63 24.6 171.74 24.6 171.74 67.91 163.38 67.91 163.38 24.6 156.49 24.6 156.49 17.72"/><polygon class="cls-1" points="348.9 17.72 348.9 67.91 340.53 67.91 340.53 29.53 334.63 35.43 334.63 27.07 342.5 18.21 348.9 18.21 348.9 17.72"/><polygon class="cls-1" points="355.29 17.72 376.45 17.72 376.45 25.59 365.63 67.91 357.26 67.91 368.58 24.6 355.79 24.6 355.79 17.72 355.29 17.72"/><path class="cls-1" d="M389.74,36.91c3.44,0,5.91,2.95,5.91,5.91,0,3.44-2.95,5.91-5.91,5.91-3.44,0-5.91-2.95-5.91-5.91s2.46-5.91,5.91-5.91"/><polygon class="cls-1" points="417.79 17.72 417.79 67.91 409.42 67.91 409.42 29.53 403.52 35.43 403.52 27.07 411.39 18.21 417.79 18.21 417.79 17.72"/><path class="cls-1" d="M448.3,44.78v12.3c0,6.89-3.44,11.32-11.81,11.32s-11.81-4.92-11.81-12.3v-5.91h7.87v6.4c0,2.95,.98,4.92,3.94,4.92,2.46,0,3.44-1.97,3.44-4.43v-12.3c0-2.95-.98-4.43-3.44-4.43s-3.94,1.48-3.94,4.43v.98h-7.87V17.72h22.14v6.89h-14.27v12.3c1.48-2.46,3.94-3.44,6.89-3.44,4.92,.49,8.86,3.44,8.86,11.32"/><g><rect class="cls-1" x="0" y="101.86" width="466.51" height="466.51"/><path class="cls-2" d="M232.76,227.84c15.75,0,29.03-12.79,29.03-29.03s-12.79-29.03-29.03-29.03-29.03,12.79-29.03,29.03,12.79,29.03,29.03,29.03"/><path class="cls-2" d="M266.22,238.67h-66.93c-17.72,1.48-31.99,15.26-34.45,32.48h136.31c-2.95-17.22-17.22-30.51-34.94-32.48"/><path class="cls-2" d="M292.31,403.52l-25.1-6.89c.49-2.46,.98-4.92,.98-7.38v-.98l26.08-2.46v3.44c0,4.92-.49,9.84-1.97,14.27m-8.86,19.68l-20.67-15.75c1.48-2.46,2.95-4.92,3.94-7.38l25.1,7.38c-2.46,5.91-4.92,11.32-8.37,15.75m-15.75,15.75l-13.78-22.14c2.46-1.48,4.43-3.94,6.4-5.91l20.67,15.75c-3.44,4.92-8.37,8.86-13.29,12.3m-20.18,8.86l-4.92-25.59c2.95-.49,5.41-1.97,7.87-3.44l13.78,22.64c-4.92,2.95-10.83,5.41-16.73,6.4m-13.78,1.48c-2.95,0-5.91,0-8.86-.49l4.92-25.59h3.94c1.48,0,3.44,0,4.92-.49l4.92,25.59c-2.95,.49-6.4,.98-9.84,.98m-29.53-7.87l13.78-22.14c2.46,1.48,5.41,2.46,8.37,2.95l-4.92,25.59c-5.91-.98-11.81-3.44-17.22-6.4m-16.73-14.27l20.67-15.75c1.97,2.46,3.94,4.43,6.4,5.91l-13.78,22.14c-4.43-3.44-9.35-7.38-13.29-12.3m-10.33-19.68l25.1-7.38c.98,2.95,2.46,5.41,3.94,7.87l-20.67,16.24c-3.44-4.92-6.4-10.33-8.37-16.73m-2.95-18.21v-3.94l26.08,2.46v1.48c0,2.46,.49,4.92,.98,7.38l-25.1,7.38c-1.48-4.92-1.97-9.84-1.97-14.76m5.91-25.59l23.62,11.81c-.98,2.46-1.97,5.41-2.46,8.37l-26.08-2.46c.49-5.91,1.97-11.81,4.92-17.72m12.79-17.72l17.72,19.19c-2.46,2.46-3.94,4.92-5.41,7.38l-23.62-11.81c2.95-5.41,6.89-10.33,11.32-14.76m18.21-11.81l9.35,24.6c-2.46,.98-4.92,2.46-7.38,4.43l-17.72-19.68c4.92-3.94,9.84-6.89,15.75-9.35m21.65-4.92v26.08c-2.95,0-5.91,.49-8.37,1.48l-9.35-24.6c5.41-1.48,11.32-2.46,17.72-2.95m3.44,0c5.91,0,11.81,1.48,17.72,3.44l-9.35,24.6c-2.95-.98-5.41-1.48-8.37-1.48v-26.57Zm36.91,14.76l-17.72,19.19c-2.46-1.97-4.92-3.44-7.38-4.43l9.35-24.6c5.91,2.46,11.32,5.91,15.75,9.84m13.78,17.22l-23.62,11.81c-1.48-2.46-3.44-4.92-5.41-6.89l17.72-19.19c4.92,3.94,8.37,8.86,11.32,14.27m6.89,20.67l-26.08,2.46c-.49-2.95-.98-5.41-2.46-8.37l23.62-11.81c2.46,5.91,3.94,11.81,4.92,17.72m11.32-96.94H137.3v17.22h13.78v198.32h164.85v-198.32h13.78v-17.22h-24.6Z"/></g></svg>