<?xml version="1.0" encoding="UTF-8"?><svg id="Capa_1" xmlns="http://www.w3.org/2000/svg" viewBox="0 0 467 568.37"><defs><style>.cls-1{fill:#fff;}.cls-2{fill:#b11546;}</style></defs><path class="cls-2" d="M4.92,80.7H461.59V4.92H4.92V80.7Zm462.08,4.92H0V0H466.51V85.62h.49Z"/><polygon class="cls-2" points="16.73 17.72 38.88 17.72 38.88 24.6 32.48 24.6 32.48 67.91 23.62 67.91 23.62 24.6 16.73 24.6 16.73 17.72"/><path class="cls-2" d="M49.21,52.16h6.89l-3.44-20.18-3.44,20.18Zm-10.33,15.75l9.35-50.19h9.35l9.84,50.19h-8.86l-1.48-9.35h-8.86l-1.48,9.35h-7.87Z"/><path class="cls-2" d="M80.21,24.6v15.75h2.95c2.95,0,3.94-1.48,3.94-3.94v-7.38c0-2.95-1.48-3.94-3.94-3.94h-2.95v-.49Zm0,20.18v23.13h-8.37V17.72h12.3c8.37,0,11.81,4.43,11.81,11.32v6.4c0,5.41-1.97,8.37-6.89,9.84l7.87,22.64h-8.86l-7.87-23.13Z"/><path class="cls-2" d="M113.67,41.34h11.81v26.57h-5.91v-5.41c-.98,3.94-3.44,5.91-7.87,5.91-7.38,0-10.33-5.91-10.33-13.29V31c0-7.87,3.94-13.29,12.79-13.29,9.35,0,11.81,5.41,11.81,12.79v4.43h-7.87v-4.92c0-2.95-.98-4.92-4.43-4.92-2.95,0-4.43,1.97-4.43,4.92v27.07c0,2.95,1.48,4.92,3.94,4.92,2.95,0,3.94-1.48,3.94-4.92v-9.35h-3.94v-6.4h.49Z"/><polygon class="cls-2" points="132.37 17.72 152.55 17.72 152.55 24.6 140.74 24.6 140.74 38.88 149.11 38.88 149.11 45.77 140.74 45.77 140.74 61.02 152.55 61.02 152.55 67.91 132.37 67.91 132.37 17.72"/><polygon class="cls-2" points="156.49 17.72 178.63 17.72 178.63 24.6 171.74 24.6 171.74 67.91 163.38 67.91 163.38 24.6 156.49 24.6 156.49 17.72"/><path class="cls-2" d="M391.22,32.48v-3.44c0-2.95-.98-4.92-3.94-4.92s-3.94,1.97-3.94,4.92v3.44c0,2.95,.98,4.92,3.94,4.92,2.95-.49,3.94-1.97,3.94-4.92m.49,24.11v-7.87c0-2.95-.98-4.92-3.94-4.92s-3.94,1.97-3.94,4.92v7.87c0,2.95,.98,4.92,3.94,4.92s3.94-1.97,3.94-4.92m-16.73-.98v-5.41c0-4.92,1.48-8.37,5.41-9.84-3.44-1.48-4.92-4.43-4.92-8.86v-1.97c0-7.87,3.94-11.81,11.81-11.81s11.81,4.43,11.81,11.81v1.97c0,3.94-1.48,6.89-4.92,8.86,3.94,1.97,5.41,5.41,5.41,9.84v5.41c0,7.38-3.44,12.79-12.3,12.79-8.37,0-12.3-4.92-12.3-12.79"/><path class="cls-2" d="M414.35,36.91c3.44,0,5.91,2.95,5.91,5.91,0,3.44-2.95,5.91-5.91,5.91-3.44,0-5.91-2.95-5.91-5.91-.49-2.95,2.46-5.91,5.91-5.91"/><polygon class="cls-2" points="427.14 17.72 448.3 17.72 448.3 25.59 437.47 67.91 429.11 67.91 440.43 24.6 427.63 24.6 427.63 17.72 427.14 17.72"/><g><rect class="cls-2" x="0" y="101.86" width="466.51" height="466.51"/><path class="cls-1" d="M182.08,267.7c-1.48,.49-2.95,0-3.94-.49-1.97-.98-2.95-2.46-3.94-4.43l-2.95-8.37c-1.48-3.94-.49-7.87,2.46-8.86l14.27-5.91-3.44-8.37-14.27,5.41c-4.92,1.97-8.37,7.38-8.37,12.79-1.48-.49-2.46-.98-3.94-1.48-3.94-.49-7.38,0-10.83,1.97l-13.78,9.84,6.4,6.4,12.3-8.37c.98-.98,2.46-.98,3.94-.98,1.48,.49,2.46,.98,3.44,2.46l6.4,9.35c.98,.98,.98,2.46,.98,3.94-.49,.98-.98,2.46-1.97,2.95,2.46,1.48,4.92,3.94,6.4,6.4,1.97-1.97,3.44-3.94,3.94-6.4,1.97,.98,3.94,1.48,5.91,1.48,1.48,0,2.95-.49,4.43-.98l14.76-5.91-3.44-8.37-14.76,5.91Z"/><path class="cls-1" d="M67.42,397.61l-5.91,25.59c-.49,1.48-.98,2.46-2.46,3.44-.98,.98-2.46,.98-3.94,.49l-10.83-2.46c-1.48-.49-2.46-.98-3.44-2.46-.98-.98-.98-2.46-.49-3.94l5.91-25.59c.49-1.48,.98-2.46,2.46-3.44,.98-.98,2.46-.98,3.94-.49l10.83,2.46c1.48,.49,2.46,.98,3.44,2.46,.49,.98,.98,2.46,.49,3.94m11.32-27.07l-4.92,9.35c-.49,1.48-1.97,2.46-2.95,2.95-1.48,.49-2.95,.49-3.94-.49l-10.33-4.92c-2.46-1.48-3.94-4.43-2.46-7.38l9.35-18.7-5.91-7.38-11.32,22.14c-1.48,3.44-1.97,7.38-.98,10.83,.49,.98,.98,2.46,1.48,3.44-.98,.49-2.46,.98-3.44,1.48-2.95,1.97-5.41,5.41-6.4,8.86l-5.91,25.59c-1.97,7.87,2.95,15.26,10.83,17.22l10.83,2.46c.98,0,1.97,.49,3.44,.49,6.89,0,12.3-4.43,13.78-10.83l5.91-25.59c.49-2.95,.49-6.4-.98-9.35,2.95-1.48,4.92-3.44,6.4-6.4l2.95-5.91-5.41-7.87Z"/><rect class="cls-1" x="219.99" y="185.43" width="38.38" height="11.32" transform="translate(-56.41 270.77) rotate(-53.71)"/><rect class="cls-1" x="187.01" y="161.91" width="11.32" height="38.39" transform="translate(-40.5 56.4) rotate(-15.09)"/><rect class="cls-1" x="153.6" y="191.27" width="11.32" height="38.38" transform="translate(-97.48 271.63) rotate(-66.28)"/><path class="cls-1" d="M262.78,272.13c1.48-1.97,3.94-4.92,6.4-7.87l-4.92-.98c-1.48-.49-2.46-.98-3.44-2.46-.98-.98-.98-2.46-.98-3.94l2.46-11.32c.49-2.46,2.95-4.43,5.41-4.43h.98l18.7,3.94c1.48-.98,2.46-2.46,3.94-3.44,2.46-1.48,4.92-2.46,7.87-2.95-.98-.49-1.97-.98-3.44-.98l-25.59-5.41c-4.43-.98-8.86,.49-12.3,3.44-1.97-3.44-5.41-5.41-9.35-6.4l-15.75-2.95-1.48,8.86,15.75,2.95c1.48,.49,2.46,.98,3.44,2.46,.98,1.48,.98,3.44,.98,4.92l-1.48,7.87c-.49,2.95-3.44,5.41-6.4,4.92l-14.76-2.95-1.97,8.86,14.76,2.95c.98,0,1.97,.49,2.46,0,2.95,0,5.91-.98,8.37-2.95,0,.49,.49,.98,.98,1.48,1.97,3.44,5.41,5.41,9.35,6.4"/><path class="cls-1" d="M120.07,282.96c.98-.98,1.48-1.48,2.46-1.97,1.97-.98,3.94-1.48,6.4-1.97l5.91-1.97,3.44-.98c0-.98-.98-2.46-1.97-3.44l-9.35-8.37c-1.48-.98-2.95-1.97-4.92-1.48-2.46,0-5.41,1.48-7.38,3.44-1.97,1.97-2.95,4.43-2.95,7.38,0,1.48,.49,3.44,1.97,4.43l6.4,4.92Z"/><path class="cls-1" d="M106.29,307.07c1.48,1.48,2.95,1.97,4.92,1.97,2.46,0,4.92-.98,6.89-2.95,1.48-1.48,2.46-3.44,2.95-5.41-1.97-1.48-3.94-3.44-4.43-5.91v-4.43l-17.22-18.21c-1.48-1.48-2.95-1.97-4.92-1.97-2.46,0-4.92,.98-6.89,2.95-3.44,2.95-4.43,7.87-1.97,11.81l20.67,22.14Z"/><path class="cls-1" d="M87,325.28c1.47,1.48,2.94,1.97,4.89,1.97,2.45,0,4.9-.98,6.86-2.95,1.96-1.48,2.94-3.94,3.43-6.4,.49-1.97,0-3.94-1.47-5.41l-17.62-18.7c-1.47-1.48-2.94-1.97-4.9-1.97-2.45,0-4.89,.98-6.85,2.95-1.96,1.48-2.94,3.94-3.43,6.4-.49,1.97,0,3.94,1.47,5.41l17.62,18.7Z"/><path class="cls-1" d="M74.31,335.61c1.97-1.97,3.44-4.43,3.44-7.38,0-1.48-.49-3.44-1.48-4.43l-6.4-6.4c-1.48-1.48-2.95-1.97-4.92-1.97-2.46,0-4.92,.98-6.89,2.95s-3.44,4.43-3.44,6.89c0,1.48,.49,3.44,1.48,4.43l6.4,6.89c1.48,1.48,2.95,1.97,4.92,1.97,2.46,0,4.92-1.48,6.89-2.95"/><path class="cls-1" d="M155.01,346.93l.49-.98c4.92-10.83,19.19-34.94,19.68-35.92,.49-1.48,.98-3.44,.98-4.92,0-.98,0-1.97-.49-2.95l-1.48-3.44c-2.46-5.41-7.87-15.25-12.79-18.21-3.44-1.97-7.38-2.95-11.32-1.97-.98,.49-7.38,1.97-13.78,3.94l-5.91,1.48c-1.97,.49-3.44,.98-5.41,1.97-2.46,1.48-3.44,3.94-2.95,6.4,.49,1.97,1.97,2.95,3.44,3.44l10.83,.98h1.48c4.92,.49,8.86,4.92,8.86,10.33,0,.98,0,1.97-.49,2.46l-6.89,16.24-5.41-2.46,6.89-16.24c0-1.97-1.48-3.94-3.94-4.43h-.98l-9.35-.98c-.98,2.95-2.95,5.91-5.41,8.37-3.44,2.95-7.38,4.92-11.81,4.92h-.98c0,4.92-1.97,9.84-5.91,13.29-3.44,2.95-7.38,4.92-11.81,4.92h-.49c-2.46,0-5.41-.98-7.38-2.46-.98,3.44-2.95,6.4-5.41,8.37-2.95,2.95-6.89,4.43-11.32,4.92l15.75,22.14c1.48,1.97,3.94,3.94,5.91,5.41,.98,1.48,2.46,3.44,3.94,4.92,1.48,2.46,2.95,5.91,3.44,8.86,3.44,18.21,6.89,124.01,6.89,124.01h71.35s-19.68-107.77-25.1-141.72c-.49-3.94,0-8.37,1.48-12.3,2.46-1.48,5.41-8.37,5.41-8.37"/><path class="cls-1" d="M390.23,348.9c-5.91,0-11.32-2.95-15.26-7.38-2.95-3.44-4.92-7.87-4.92-12.3-3.44,2.46-7.38,3.94-11.81,3.94h-.49c-5.91,0-11.32-2.46-15.25-6.89-4.43-4.92-5.91-12.3-4.43-18.7h-1.97c-11.32,0-20.67-9.35-20.18-21.16,0-2.95,.49-5.91,1.97-8.37l-11.81-2.46-3.44,1.97,12.3,29.53-3.44,1.48-3.44,1.48-14.27-34.94,10.83-7.38,26.08,5.41s5.91,0,7.38-3.44c1.48-3.44-2.95-8.37-5.41-9.84-1.97-.98-4.43-1.97-6.4-2.95l-7.87-3.44-16.73-6.4c-.49,0-2.46-.98-6.4,1.48-10.33,9.35-20.18,19.68-29.03,30.51-.49,.98-1.97,2.46-2.46,3.44,0,0,.49,.49,.49,.98v.49l23.62,78.74,1.48,4.43-33.46,143.2h87.1l19.68-131.88,30.51-30.02c-.49,.49-1.48,.49-2.95,.49"/><path class="cls-1" d="M328.72,249.99c2.46,.98,5.41,2.46,7.87,3.44,.98,.49,1.97,1.48,2.95,2.46l3.44-2.46c2.46-1.97,3.94-4.92,4.43-8.37,.49-3.44-.49-6.4-2.46-8.86-2.46-2.95-5.91-4.43-9.35-4.43-2.95,0-5.41,.98-7.87,2.46l-12.3,9.84,6.4,2.46,6.89,3.44Z"/><path class="cls-1" d="M344.96,271.15q0,.49-.49,.98c-2.95,8.37-13.78,8.37-15.26,8.37h-.49l-2.46-.49c-3.94,5.41-2.46,13.29,3.44,17.22,1.97,1.48,4.43,1.97,6.4,1.97,2.95,0,5.91-.98,8.37-2.95l36.42-31.99c4.92-4.43,5.41-12.3,.98-17.22-2.46-2.46-5.91-3.94-9.35-3.94-2.95,0-5.91,.98-7.87,2.95l-19.68,17.22c.98,2.46,.98,5.41,0,7.87"/><path class="cls-1" d="M349.88,303.13c-4.92,4.43-5.41,12.3-.98,17.22,2.46,2.46,5.41,3.94,8.86,3.94,2.95,0,5.91-.98,8.37-2.95l30.51-27.07c2.46-1.97,3.94-5.41,3.94-8.37,.49-3.44-.98-6.4-2.95-8.86-2.46-2.46-5.41-4.43-8.86-4.43-2.95,0-5.91,.98-8.37,2.95l-30.51,27.56Z"/><path class="cls-1" d="M410.9,310.51c-2.46-2.46-5.91-4.43-9.35-4.43-2.95,0-5.91,.98-7.87,2.95l-11.32,9.84c-2.46,1.97-3.94,4.92-4.43,8.37,0,3.44,.98,6.4,2.95,8.86,2.46,2.46,5.41,4.43,9.35,4.43,2.95,0,5.91-.98,7.87-2.95l10.83-9.35c5.41-4.43,6.4-12.3,1.97-17.72"/><path class="cls-1" d="M425.66,409.42c-.98,.98-1.97,1.97-3.44,2.46l-13.78,3.44c-1.48,.49-2.95,0-3.94-.49-1.48-.98-1.97-1.97-2.46-3.44l-6.89-29.53c-.49-2.95,.98-5.91,3.94-6.4l13.78-3.44c2.95-.49,5.91,.98,6.4,3.94l6.89,29.53c.98,.98,.49,2.46-.49,3.94m9.35-6.4l-6.89-29.53c-.98-4.92-4.92-8.86-9.84-10.33,2.95-3.94,3.44-9.35,1.48-13.78l-5.91-13.78-6.89,7.38,4.43,9.84c.98,2.95,0,5.91-2.95,6.89l-12.79,5.41c-2.95,.98-5.91,0-6.89-2.95v-.49l-6.4,7.38c1.48,1.97,3.44,3.44,5.91,4.43-1.48,2.95-1.97,6.4-.98,9.35l6.89,29.53c1.48,6.4,7.38,10.83,13.78,10.83,.98,0,1.97,0,3.44-.49l13.78-3.44c7.38-.98,11.81-8.37,9.84-16.24"/></g></svg>