<?xml version="1.0" encoding="UTF-8"?><svg id="Capa_1" xmlns="http://www.w3.org/2000/svg" viewBox="0 0 467 568.37"><defs><style>.cls-1{fill:#fff;}.cls-2{fill:#b11546;}</style></defs><path class="cls-2" d="M4.92,80.7H461.59V4.92H4.92V80.7Zm462.08,4.92H0V0H466.51V85.62h.49Z"/><polygon class="cls-2" points="16.73 17.72 38.88 17.72 38.88 24.6 32.48 24.6 32.48 67.91 23.62 67.91 23.62 24.6 16.73 24.6 16.73 17.72"/><path class="cls-2" d="M49.21,52.16h6.89l-3.44-20.18-3.44,20.18Zm-10.33,15.75l9.35-50.19h9.35l9.84,50.19h-8.86l-1.48-9.35h-8.86l-1.48,9.35h-7.87Z"/><path class="cls-2" d="M80.21,24.6v15.75h2.95c2.95,0,3.94-1.48,3.94-3.94v-7.38c0-2.95-1.48-3.94-3.94-3.94h-2.95v-.49Zm0,20.18v23.13h-8.37V17.72h12.3c8.37,0,11.81,4.43,11.81,11.32v6.4c0,5.41-1.97,8.37-6.89,9.84l7.87,22.64h-8.86l-7.87-23.13Z"/><path class="cls-2" d="M113.67,41.34h11.81v26.57h-5.91v-5.41c-.98,3.94-3.44,5.91-7.87,5.91-7.38,0-10.33-5.91-10.33-13.29V31c0-7.87,3.94-13.29,12.79-13.29,9.35,0,11.81,5.41,11.81,12.79v4.43h-7.87v-4.92c0-2.95-.98-4.92-4.43-4.92-2.95,0-4.43,1.97-4.43,4.92v27.07c0,2.95,1.48,4.92,3.94,4.92,2.95,0,3.94-1.48,3.94-4.92v-9.35h-3.94v-6.4h.49Z"/><polygon class="cls-2" points="132.37 17.72 152.55 17.72 152.55 24.6 140.74 24.6 140.74 38.88 149.11 38.88 149.11 45.77 140.74 45.77 140.74 61.02 152.55 61.02 152.55 67.91 132.37 67.91 132.37 17.72"/><polygon class="cls-2" points="156.49 17.72 178.63 17.72 178.63 24.6 171.74 24.6 171.74 67.91 163.38 67.91 163.38 24.6 156.49 24.6 156.49 17.72"/><path class="cls-2" d="M388.26,32.48v-3.44c0-2.95-.98-4.92-3.94-4.92s-3.94,1.97-3.94,4.92v3.44c0,2.95,.98,4.92,3.94,4.92,2.95-.49,3.94-1.97,3.94-4.92m0,24.11v-7.87c0-2.95-.98-4.92-3.94-4.92s-3.94,1.97-3.94,4.92v7.87c0,2.95,.98,4.92,3.94,4.92s3.94-1.97,3.94-4.92m-16.24-.98v-5.41c0-4.92,1.48-8.37,5.41-9.84-3.44-1.48-4.92-4.43-4.92-8.86v-1.97c0-7.87,3.94-11.81,11.81-11.81s11.81,4.43,11.81,11.81v1.97c0,3.94-1.48,6.89-4.92,8.86,3.94,1.97,5.41,5.41,5.41,9.84v5.41c0,7.38-3.44,12.79-12.79,12.79-8.37,0-11.81-4.92-11.81-12.79"/><path class="cls-2" d="M410.9,36.91c3.44,0,5.91,2.95,5.91,5.91,0,3.44-2.95,5.91-5.91,5.91-3.44,0-5.91-2.95-5.91-5.91s2.46-5.91,5.91-5.91"/><path class="cls-2" d="M447.81,28.54v4.43c0,4.43-2.46,6.89-5.91,8.37,4.43,.98,6.4,3.94,6.4,8.37v7.38c0,6.89-3.94,11.32-12.3,11.32s-11.81-4.92-11.81-12.3v-6.4h7.87v7.38c0,2.95,.98,4.92,3.94,4.92,2.46,0,3.94-1.97,3.94-4.43v-8.37c0-2.46-.98-3.94-3.94-3.94h-3.44v-6.4h2.95c2.95,0,4.43-1.48,4.43-3.94v-5.91c0-2.95-.98-4.43-3.44-4.43s-3.44,1.97-3.44,4.92v4.92h-7.87v-4.43c0-7.38,2.95-12.79,11.81-12.79,7.38,0,10.83,4.43,10.83,11.32"/><g><rect class="cls-2" x="0" y="101.86" width="466.51" height="466.51"/><polygon class="cls-1" points="147.63 230.79 135.33 230.79 135.33 468.97 306.08 468.97 306.08 454.7 147.63 454.7 147.63 230.79"/><path class="cls-1" d="M306.08,375.96c0,.49-.49,.98-1.48,.98h-117.12c-.49,0-1.48-.49-1.48-.98v-18.7c0-.49,.49-.98,1.48-.98h117.12c.98,0,1.48,.49,1.48,.98v18.7Zm0,33.46c0,.49-.49,.98-1.48,.98h-117.12c-.98,0-1.48-.49-1.48-.98v-18.7c0-.49,.49-.98,1.48-.98h117.12c.98,0,1.48,.49,1.48,.98v18.7Zm-80.21-133.36v57.58c0,.49-.49,1.48-1.48,1.48h-23.62c-.49,0-1.48-.49-1.48-1.48v-32.97c0-1.48,.49-2.46,1.48-3.44l23.13-22.14c1.48-.98,1.97,.49,1.97,.98m33.46,3.94v54.13c0,.49-.49,1.48-1.48,1.48h-23.62c-.49,0-1.48-.49-1.48-1.48v-53.64c0-.98,.49-2.46,2.46-.49l10.33,10.33h.98l11.32-11.32c.98-1.48,1.48,0,1.48,.98m32.97-32.48v86.12c0,.49-.49,1.48-1.48,1.48h-23.62c-.49,0-1.48-.49-1.48-1.48v-61.51c0-.98,.49-2.46,1.48-2.95l23.13-22.14c1.48-1.48,1.97-.49,1.97,.49m-10.83-22.64h0v-.98h.98l17.72-3.94h.98v.49l-2.46,10.33-1.48,7.87v.49h-.98l-4.92-4.43-45.27,45.77h-.98l-4.92-4.92-13.78-13.78-29.53,29.53h-.98l-4.92-4.92v-.98l29.53-29.53,4.92-4.92s.49-.49,.49,0l18.7,18.21,38.38-38.38,1.48-1.48-2.95-4.43Zm-120.56-23.13v238.17h170.76V201.76H160.92Z"/></g></svg>