<?xml version="1.0" encoding="UTF-8"?><svg id="Capa_1" xmlns="http://www.w3.org/2000/svg" viewBox="0 0 467 568.37"><defs><style>.cls-1{fill:#e63428;}.cls-2{fill:#fff;}</style></defs><path class="cls-1" d="M4.92,80.7H461.59V4.92H4.92V80.7Zm462.08,4.92H0V0H466.51V85.62h.49Z"/><polygon class="cls-1" points="16.73 17.72 38.88 17.72 38.88 24.6 32.48 24.6 32.48 67.91 23.62 67.91 23.62 24.6 16.73 24.6 16.73 17.72"/><path class="cls-1" d="M49.21,52.16h6.89l-3.44-20.18-3.44,20.18Zm-10.33,15.75l9.35-50.19h9.35l9.84,50.19h-8.86l-1.48-9.35h-8.86l-1.48,9.35h-7.87Z"/><path class="cls-1" d="M80.21,24.6v15.75h2.95c2.95,0,3.94-1.48,3.94-3.94v-7.38c0-2.95-1.48-3.94-3.94-3.94h-2.95v-.49Zm0,20.67v23.13h-8.37V17.72h12.3c8.37,0,11.81,4.43,11.81,11.32v6.4c0,5.41-1.97,8.37-6.89,9.84l7.87,22.64h-8.86l-7.87-22.64Z"/><path class="cls-1" d="M113.67,41.34h11.81v26.57h-5.91v-5.41c-.98,3.94-3.44,5.91-7.87,5.91-7.38,0-10.33-5.91-10.33-13.29V31c0-7.87,3.94-13.29,12.79-13.29,9.35,0,11.81,5.41,11.81,12.79v4.43h-7.87v-4.92c0-2.95-.98-4.92-4.43-4.92-2.95,0-4.43,1.97-4.43,4.92v27.07c0,2.95,1.48,4.92,3.94,4.92,2.95,0,3.94-1.48,3.94-4.92v-9.35h-3.94v-6.4h.49Z"/><polygon class="cls-1" points="132.37 17.72 152.55 17.72 152.55 24.6 140.74 24.6 140.74 38.88 149.11 38.88 149.11 45.77 140.74 45.77 140.74 61.02 152.55 61.02 152.55 67.91 132.37 67.91 132.37 17.72"/><polygon class="cls-1" points="156.49 17.72 178.63 17.72 178.63 24.6 171.74 24.6 171.74 67.91 163.38 67.91 163.38 24.6 156.49 24.6 156.49 17.72"/><path class="cls-1" d="M396.14,44.78v12.3c0,6.89-3.44,11.32-11.81,11.32s-11.81-4.92-11.81-12.3v-5.91h7.87v6.4c0,2.95,.98,4.92,3.94,4.92,2.46,0,3.44-1.97,3.44-4.43v-12.3c0-2.95-.98-4.43-3.44-4.43s-3.94,1.48-3.94,4.43v.98h-7.87V17.72h22.14v6.89h-14.27v12.3c1.48-2.46,3.94-3.44,6.89-3.44,4.92,.49,8.86,3.44,8.86,11.32"/><path class="cls-1" d="M409.92,36.91c3.44,0,5.91,2.95,5.91,5.91,0,3.44-2.95,5.91-5.91,5.91-3.44,0-5.91-2.95-5.91-5.91s2.95-5.91,5.91-5.91"/><path class="cls-1" d="M429.6,53.15h7.38v-20.67l-7.38,20.67Zm-7.38,1.48l14.76-36.91h8.37V53.15h3.44v6.4h-3.44v8.37h-7.87v-8.37h-14.76v-4.92h-.49Z"/><g><rect class="cls-1" x="0" y="101.86" width="466.51" height="466.51"/><path class="cls-2" d="M175.19,277.54c0-10.33-8.37-19.19-19.19-19.19s-19.19,8.37-19.19,19.19,8.37,19.19,19.19,19.19,19.19-8.37,19.19-19.19"/><path class="cls-2" d="M145.17,356.28l31.49,2.95,2.95,.49-8.86,3.94-3.44,1.48s-8.86,4.43-5.41,11.81c.49,.98,.98,1.48,1.48,2.46-3.94,.49-8.37-.49-11.32-2.95-6.89-4.43-9.35-12.79-6.89-20.18m1.97-3.94h0l8.86-12.3,6.4,13.78-15.26-1.48Zm14.76-20.67l2.95-3.94c5.41-7.38,15.75-8.86,23.62-3.94l.98,.98c6.89,5.41,8.37,15.25,3.44,22.64l-5.91,9.35-3.94-.49h-.98l-14.76-1.48-8.37-17.72,2.95-5.41Zm-44.29-10.83l-16.24,51.67c-.98,2.95-.49,5.91,.98,8.86,1.97,2.46,5.41,3.94,8.37,3.44,4.92-.98,6.4-6.89,6.4-6.89l12.79-43.3s.49-3.44,2.95-2.46c2.46,.98,1.48,4.43,1.48,4.43l-22.14,80.7h20.67v58.07c0,5.41,4.43,9.84,9.84,9.84s9.84-4.43,9.84-9.84v-58.07h5.91v58.07c0,5.41,4.43,9.84,9.84,9.84s9.84-4.43,9.84-9.84v-58.07h20.67l-11.81-43.3c6.89-2.95,15.25-6.89,17.22-7.38,1.97-.98,2.46-2.46,2.46-4.43,0,0-8.86-34.94-8.86-35.43-.98-4.92-6.89-18.7-18.7-20.18h-43.3c-12.79-.49-18.21,14.27-18.21,14.27"/><path class="cls-2" d="M170.76,348.9c5.91,3.94,14.27,2.95,18.7-2.95v-.49c4.43-5.91,2.95-14.27-3.44-18.7-5.91-4.43-14.27-2.95-18.7,2.95-1.48,1.97-1.97,3.94-2.46,5.91-.49,5.41,1.48,10.33,5.91,13.29"/><path class="cls-2" d="M215.05,409.42l-10.83,31.49s-1.48,4.92,2.95,6.4c2.46,.49,5.41-.98,5.91-3.44l8.86-27.07s.49-1.97,1.97-1.48c1.48,.49,.98,1.97,.98,1.97l-10.33,36.91h7.87v23.62c0,3.94,2.95,7.38,7.38,7.38,.98,0,1.97,0,2.46-.49,2.95-.98,4.92-3.94,4.92-7.38v-23.62h4.43v23.13c0,2.95,1.97,5.91,4.92,6.89,3.94,1.48,7.87-.98,9.35-4.43,.49-.98,.49-1.48,.49-2.46v-23.62h7.87l-7.38-27.07c-.49-.98-.49-1.97-.49-3.44v-3.44c0-.98,.49-2.46,.98-3.44l16.73-30.02c3.44-.98,5.91-3.94,5.91-7.38v-47.73c0-1.97,.49-3.94,3.94-3.94,2.46,0,2.46,2.46,2.95,3.94v142.71c0,5.91,4.92,11.32,11.32,11.32,5.91,0,11.32-4.92,11.32-11.32v-81.69c0-1.48,.98-2.95,2.95-3.44h.49c1.48,0,2.95,.98,2.95,2.95v82.67c.49,6.4,5.91,10.83,11.81,10.33,5.41-.49,9.84-4.92,10.33-10.33v-142.71c0-1.48,.49-3.94,2.95-3.94,3.44,0,3.94,2.46,3.94,3.94v47.73c.49,4.43,3.94,7.38,8.37,6.89,3.94-.49,6.89-3.44,6.89-6.89v-55.11c0-13.78-10.33-25.1-24.11-26.57h-46.75c-13.78,1.48-24.11,12.79-24.11,26.57v55.11c0,.49,0,1.48,.49,1.97l-1.97,3.44c-.49,.49-7.38,12.79-9.35,14.76-.98,1.48-2.95,1.97-4.43,1.97h-24.11c-8.86,.49-10.83,8.37-10.83,8.37"/><path class="cls-2" d="M253.92,380.39c0-8.37-6.4-14.76-14.76-14.76s-14.76,6.4-14.76,14.76,6.4,14.76,14.76,14.76,14.76-6.89,14.76-14.76"/><path class="cls-2" d="M331.18,269.67c0-10.83-8.86-20.18-20.18-20.18s-20.18,8.86-20.18,20.18,8.86,20.18,20.18,20.18,19.68-8.37,20.18-19.19v-.98Z"/><path class="cls-2" d="M428.62,227.84l-192.9-83.66c-.49-.49-1.48-.49-1.97-.49s-.98,0-1.48,.49L39.37,227.35c-.98,.49-1.48,.98-.98,1.97v19.19c0,1.48,0,3.44,2.46,2.46l192.41-79.23h1.97l192.41,79.23c2.46,.98,2.46-.49,2.46-2.46v-19.19c-.49-.49-.98-1.48-1.48-1.48"/><path class="cls-2" d="M40.35,508.34H426.16c1.48,0,2.95,1.48,2.95,2.95v17.72c0,1.48-1.48,2.95-2.95,2.95H40.35c-1.48,0-2.95-1.48-2.95-2.95v-17.72c0-1.48,1.48-2.95,2.95-2.95"/></g></svg>