<?xml version="1.0" encoding="UTF-8"?><svg id="Capa_1" xmlns="http://www.w3.org/2000/svg" viewBox="0 0 467 568.37"><defs><style>.cls-1{fill:#fff;}.cls-2{fill:#48ad37;}</style></defs><path class="cls-2" d="M4.92,80.7H461.59V4.92H4.92V80.7Zm462.08,4.92H0V0H466.51V85.62h.49Z"/><polygon class="cls-2" points="16.73 17.72 38.88 17.72 38.88 24.6 32.48 24.6 32.48 67.91 23.62 67.91 23.62 24.6 16.73 24.6 16.73 17.72"/><path class="cls-2" d="M49.21,52.16h6.89l-3.44-20.18-3.44,20.18Zm-10.33,15.75l9.35-50.19h9.35l9.84,50.19h-8.86l-1.48-9.35h-8.86l-1.48,9.35h-7.87Z"/><path class="cls-2" d="M80.21,24.61v15.75h2.95c2.95,0,3.94-1.48,3.94-3.94v-7.38c0-2.95-1.48-3.94-3.94-3.94h-2.95v-.49Zm0,20.18v23.13h-8.37V17.72h12.3c8.37,0,11.81,4.43,11.81,11.32v6.4c0,5.41-1.97,8.37-6.89,9.84l7.87,22.64h-8.86l-7.87-23.13Z"/><path class="cls-2" d="M113.67,41.34h11.81v26.57h-5.91v-5.41c-.98,3.94-3.44,5.91-7.87,5.91-7.38,0-10.33-5.91-10.33-13.29V31c0-7.87,3.94-13.29,12.79-13.29,9.35,0,11.81,5.41,11.81,12.79v4.43h-7.87v-4.92c0-2.95-.98-4.92-4.43-4.92-2.95,0-4.43,1.97-4.43,4.92v27.07c0,2.95,1.48,4.92,3.94,4.92,2.95,0,3.94-1.48,3.94-4.92v-9.35h-3.94v-6.4h.49Z"/><polygon class="cls-2" points="132.37 17.72 152.55 17.72 152.55 24.6 140.74 24.6 140.74 38.88 149.11 38.88 149.11 45.77 140.74 45.77 140.74 61.02 152.55 61.02 152.55 67.91 132.37 67.91 132.37 17.72"/><polygon class="cls-2" points="156.49 17.72 178.63 17.72 178.63 24.6 171.74 24.6 171.74 67.91 163.38 67.91 163.38 24.6 156.49 24.6 156.49 17.72"/><polygon class="cls-2" points="367.6 17.72 367.6 67.91 359.23 67.91 359.23 29.53 353.33 35.43 353.33 27.07 361.2 18.21 367.6 18.21 367.6 17.72"/><path class="cls-2" d="M398.6,44.78v12.3c0,6.89-3.44,11.32-11.81,11.32s-11.81-4.92-11.81-12.3v-5.91h7.87v6.4c0,2.95,.98,4.92,3.94,4.92,2.46,0,3.44-1.97,3.44-4.43v-12.3c0-2.95-.98-4.43-3.44-4.43s-3.94,1.48-3.94,4.43v.98h-7.87V17.72h22.14v6.89h-14.27v12.3c1.48-2.46,3.94-3.44,6.89-3.44,4.92,.49,8.86,3.44,8.86,11.32"/><path class="cls-2" d="M412.38,36.91c3.44,0,5.91,2.95,5.91,5.91,0,3.44-2.95,5.91-5.91,5.91-3.44,0-5.91-2.95-5.91-5.91-.49-2.95,2.46-5.91,5.91-5.91"/><path class="cls-2" d="M425.66,58.56c0-4.92,1.48-8.37,6.4-13.29l4.92-4.92c2.95-2.95,2.95-4.43,2.95-8.86v-3.44c0-2.95-1.48-3.94-2.95-3.94-1.97,0-3.44,.98-3.44,3.94v6.4h-7.87v-6.4c0-6.89,3.94-10.83,11.32-10.83s10.83,3.44,10.83,10.33v4.92c0,4.92-.98,7.87-5.41,12.79l-5.41,5.91c-1.97,2.46-3.44,3.94-3.44,7.87v2.46h13.78v6.89h-21.65v-9.84Z"/><g><rect class="cls-2" x="0" y="101.86" width="466.51" height="466.51"/><path class="cls-1" d="M410.41,433.54l-47.73-152.55-.49-.98c-.98-.98-2.46-1.48-3.44-.49q-.49,.49-.98,.98l-.49,.49-46.75,152.55v.98c0,1.48,.98,2.46,2.46,2.46h38.38v35.43c0,.49,.49,.98,.98,.98h16.24c.49,0,.98-.49,.98-.98v-35.43h38.38c1.48,0,2.46-.98,2.46-2.46,.49,0,0-.49,0-.98"/><path class="cls-1" d="M265.73,438.46c16.73,0,30.02-13.29,30.02-30.02,0-7.87-2.95-15.25-8.37-20.67,13.29-7.87,18.21-25.1,10.33-38.38-4.92-8.86-14.27-14.27-24.6-14.27h-1.97c-1.97-21.16-20.18-36.42-41.34-34.45-19.68,1.97-34.45,18.21-34.94,37.89,0,5.91,1.48,11.32,3.94,16.73-23.13,4.92-37.4,28.05-32.48,50.69,4.43,19.19,21.65,33.46,41.34,33.46h12.79v34.45c0,.49,.49,.98,.98,.98h15.75c.49,0,.98-.49,.98-.98v-34.94l27.56-.49Z"/><path class="cls-1" d="M273.61,275.08c-14.76,0-26.57-11.81-26.57-26.57,0-6.89,2.46-13.29,7.38-18.21-11.81-6.4-16.24-21.16-9.84-33.46,4.43-8.37,12.79-13.29,22.14-12.79h1.48c1.48-18.7,17.22-32.48,35.92-31,18.7,1.48,32.48,17.22,31,35.92-.49,4.43-1.48,8.37-3.44,12.3,20.18,4.92,32.48,25.1,27.56,45.27-3.94,16.24-18.7,28.05-35.43,28.54h-11.32v30.51c0,.49-.49,.98-.98,.98h-13.78c-.49,0-.98-.49-.98-.98v-30.51h-23.13Z"/><path class="cls-1" d="M152.55,274.59v31c0,.49,.49,.98,.98,.98h13.78c.49,0,.98-.49,.98-.98v-31.49c22.14-4.43,37.89-24.6,36.91-46.75,0-27.07-20.18-71.85-45.27-73.81h-1.97c-19.19,0-35.43,26.08-42.32,50.69-2.46,7.38-3.44,15.25-3.44,23.13-.49,23.62,16.73,43.8,40.35,47.24"/><path class="cls-1" d="M157.47,433.54l-47.24-152.55-.49-.98c-.49-.98-1.48-.98-1.97-.98-.98,0-1.97,.49-2.46,1.48l-.49,.49-46.75,152.55v.98c0,1.48,.98,2.46,2.46,2.46h38.38v35.43c0,.49,.49,.98,.98,.98h16.24c.49,0,.98-.49,.98-.98v-35.43h38.38c1.48,0,2.46-.98,2.46-2.46,0,0,0-.49-.49-.98"/><path class="cls-1" d="M41.83,504.4H427.63c1.48,0,2.95,1.48,2.95,2.95v17.72c0,1.48-1.48,2.95-2.95,2.95H41.83c-1.48,0-2.95-1.48-2.95-2.95v-17.72c0-1.48,1.48-2.95,2.95-2.95"/></g></svg>