<?xml version="1.0" encoding="UTF-8"?><svg id="Capa_1" xmlns="http://www.w3.org/2000/svg" viewBox="0 0 467 568.37"><defs><style>.cls-1{fill:#00486e;}.cls-2{fill:#fff;}</style></defs><path class="cls-1" d="M4.92,80.7H461.59V4.92H4.92V80.7Zm462.08,4.92H0V0H466.51V85.62h.49Z"/><polygon class="cls-1" points="16.73 17.72 38.88 17.72 38.88 24.6 32.48 24.6 32.48 67.91 23.62 67.91 23.62 24.6 16.73 24.6 16.73 17.72"/><path class="cls-1" d="M49.21,52.16h6.89l-3.44-20.18-3.44,20.18Zm-10.33,15.75l9.35-50.19h9.35l9.84,50.19h-8.86l-1.48-9.35h-8.86l-1.48,9.35h-7.87Z"/><path class="cls-1" d="M80.21,24.6v15.75h2.95c2.95,0,3.94-1.48,3.94-3.94v-7.38c0-2.95-1.48-3.94-3.94-3.94h-2.95v-.49Zm0,20.18v23.13h-8.37V17.72h12.3c8.37,0,11.81,4.43,11.81,11.32v6.4c0,5.41-1.97,8.37-6.89,9.84l7.87,22.64h-8.86l-7.87-23.13Z"/><path class="cls-1" d="M113.67,41.34h11.81v26.57h-5.91v-5.41c-.98,3.94-3.44,5.91-7.87,5.91-7.38,0-10.33-5.91-10.33-13.29V31c0-7.87,3.94-13.29,12.79-13.29,9.35,0,11.81,5.41,11.81,12.79v4.43h-7.87v-4.92c0-2.95-.98-4.92-4.43-4.92-2.95,0-4.43,1.97-4.43,4.92v27.07c0,2.95,1.48,4.92,3.94,4.92,2.95,0,3.94-1.48,3.94-4.92v-9.35h-3.94v-6.4h.49Z"/><polygon class="cls-1" points="132.37 17.72 152.55 17.72 152.55 24.6 140.74 24.6 140.74 38.88 149.11 38.88 149.11 45.77 140.74 45.77 140.74 61.02 152.55 61.02 152.55 67.91 132.37 67.91 132.37 17.72"/><polygon class="cls-1" points="156.49 17.72 178.63 17.72 178.63 24.6 171.74 24.6 171.74 67.91 163.38 67.91 163.38 24.6 156.49 24.6 156.49 17.72"/><polygon class="cls-1" points="347.91 17.72 347.91 67.91 339.55 67.91 339.55 29.53 333.64 35.43 333.64 27.07 341.52 18.21 347.91 18.21 347.91 17.72"/><polygon class="cls-1" points="353.82 17.72 374.98 17.72 374.98 25.59 364.15 67.91 355.79 67.91 367.1 24.6 354.31 24.6 354.31 17.72 353.82 17.72"/><path class="cls-1" d="M388.76,36.91c3.44,0,5.91,2.95,5.91,5.91,0,3.44-2.95,5.91-5.91,5.91-3.44,0-5.91-2.95-5.91-5.91-.49-2.95,2.46-5.91,5.91-5.91"/><polygon class="cls-1" points="416.31 17.72 416.31 67.91 407.95 67.91 407.95 29.53 402.04 35.92 402.04 27.07 409.92 18.21 416.31 18.21 416.31 17.72"/><path class="cls-1" d="M439.93,56.59V29.53c0-2.95-.98-4.92-3.94-4.92s-3.94,1.97-3.94,4.92v27.07c0,2.95,.98,4.92,3.94,4.92s3.94-1.97,3.94-4.92m-16.73-1.48V31c0-7.87,3.94-13.29,12.3-13.29s12.3,5.91,12.3,13.29v24.11c0,7.87-3.94,13.29-12.3,13.29s-12.3-5.41-12.3-13.29"/><g><rect class="cls-1" y="101.86" width="466.51" height="466.51"/><path class="cls-2" d="M316.91,377.44l-4.92-31.99c-118.1,52.65-200.78,5.91-232.76-19.68l14.27-12.79c.49-.49,.98-.98,.49-1.48,0-.49-.49-.49-.98-.49l-34.45-5.91h-.49c-.49,0-.98,0-.98,.49s-.49,.49-.49,.98v.49l2.46,33.95v.49q0,.49,.49,.98c.49,0,.98,0,1.48-.49l.49-.49,12.3-10.83c42.32,81.69,155.01,89.56,243.1,46.75"/><path class="cls-2" d="M412.87,378.91l-3.44-40.84c0-.49-.49-.49-.98-.98-.49-.49-.98-.49-1.48-.49l-39.37,13.78c-.49,0-.98,.49-.98,.98s0,.98,.98,1.97l19.19,12.3c-37.4,36.42-115.15,114.17-270.16,66.43l.49,38.38c114.17,33.46,242.11,3.94,276.07-100.88l16.73,10.83,.49,.49c.98,.49,1.48,.49,1.97,0s.49-.98,.49-.98v-.98Z"/><path class="cls-2" d="M150.58,287.38l.98,29.03c52.16,16.73,174.69,12.79,207.17-79.23l12.79,7.87,.49,.49c.49,.49,.98,.49,1.48,0,.49,0,.49-.49,.49-.98v-.49l-2.95-30.51v-.49c0-.49-.49-.49-.49-.49h-1.48l-29.53,10.83c-.49,0-.49,.49-.98,.49,0,.49,0,.98,.98,1.48l14.27,8.86c-27.07,27.07-80.21,78.74-203.24,53.15"/><path class="cls-2" d="M109.25,188.47l5.91,30.02v.49c0,.49,.49,.49,.49,.98,.49,0,.98,0,1.48-.49l.49-.49,9.35-10.33c32.97,53.64,108.75,57.58,171.74,27.56l-3.44-23.13c-85.13,40.35-139.26,10.83-163.38-9.84l10.83-12.3c.49-.49,.49-.98,.49-1.48-.49,0-.49-.49-.98-.49l-31.49-1.48h-.49q-.49,0-.98,.49v.49Z"/></g></svg>