<?xml version="1.0" encoding="UTF-8"?><svg id="Capa_1" xmlns="http://www.w3.org/2000/svg" viewBox="0 0 467 568.37"><defs><style>.cls-1{fill:#fff;}.cls-2{fill:#24a038;}</style></defs><path class="cls-2" d="M4.92,80.7H461.59V4.92H4.92V80.7Zm462.08,4.92H0V0H466.51l.49,85.62Z"/><polygon class="cls-2" points="16.73 17.72 38.88 17.72 38.88 24.6 32.48 24.6 32.48 67.91 23.62 67.91 23.62 24.6 16.73 24.6 16.73 17.72"/><path class="cls-2" d="M49.21,52.16h6.89l-3.44-20.18-3.44,20.18Zm-10.33,15.75l9.35-50.19h9.35l9.84,50.19h-8.86l-1.48-9.35h-8.86l-1.48,9.35h-7.87Z"/><path class="cls-2" d="M80.21,24.6v15.75h2.95c2.95,0,3.94-1.48,3.94-3.94v-7.38c0-2.95-1.48-3.94-3.94-3.94l-2.95-.49Zm0,20.18v23.13h-8.37V17.72h12.3c8.37,0,11.81,4.43,11.81,11.32v6.4c0,5.41-1.97,8.37-6.89,9.84l7.87,22.64h-8.86l-7.87-23.13Z"/><path class="cls-2" d="M113.67,41.34h11.81v26.57h-5.91v-5.41c-.98,3.94-3.44,5.91-7.87,5.91-7.38,0-10.33-5.91-10.33-13.29V31c0-7.87,3.94-13.29,12.79-13.29,9.35,0,11.81,5.41,11.81,12.79v4.43h-7.87v-4.92c0-2.95-.98-4.92-4.43-4.92-2.95,0-4.43,1.97-4.43,4.92v27.07c0,2.95,1.48,4.92,3.94,4.92,2.95,0,3.94-1.48,3.94-4.92v-9.35h-3.94v-6.4h.49Z"/><polygon class="cls-2" points="132.37 17.72 152.55 17.72 152.55 24.6 140.74 24.6 140.74 38.88 149.11 38.88 149.11 45.77 140.74 45.77 140.74 61.02 152.55 61.02 152.55 67.91 132.37 67.91 132.37 17.72"/><polygon class="cls-2" points="156.49 17.72 178.63 17.72 178.63 24.6 171.74 24.6 171.74 67.91 163.38 67.91 163.38 24.6 156.49 24.6 156.49 17.72"/><path class="cls-2" d="M399.09,29.03v3.94c0,4.43-2.46,6.89-5.91,8.37,4.43,.98,6.4,3.94,6.4,8.37v7.38c0,6.89-3.94,11.32-12.3,11.32s-11.81-4.92-11.81-12.3v-6.4h7.87v7.38c0,2.95,.98,4.92,3.94,4.92,2.46,0,3.94-1.97,3.94-4.43v-8.37c0-2.46-.98-3.94-3.94-3.94h-3.44v-6.4h2.95c2.95,0,4.43-1.48,4.43-3.94v-5.91c0-2.95-.98-4.43-3.44-4.43s-3.44,1.97-3.44,4.92v4.92h-7.87v-4.43c0-7.38,2.95-12.79,11.81-12.79,7.38,0,10.83,4.43,10.83,11.81"/><path class="cls-2" d="M413.36,36.91c3.44,0,5.91,2.95,5.91,5.91,0,3.44-2.95,5.91-5.91,5.91-3.44,0-5.91-2.95-5.91-5.91s2.46-5.91,5.91-5.91"/><polygon class="cls-2" points="427.14 17.72 448.3 17.72 448.3 25.59 437.47 67.91 429.11 67.91 440.43 24.6 427.63 24.6 427.63 17.72 427.14 17.72"/><g><rect class="cls-2" x="0" y="101.86" width="466.51" height="466.51"/><path class="cls-1" d="M282.96,203.24l-1.48,.98v11.32l-11.81-7.38-1.48,.49c-7.38,1.97-15.25,1.48-22.64-.98-1.48-.49-3.44-.98-4.92-1.97,0,0-.98-.49-1.48-.98-4.43-2.95-16.73-11.81-14.76-27.56,.98-7.87,5.91-15.25,12.79-19.19,1.97-1.48,4.43-2.46,6.4-3.44,1.97-.98,2.95-.98,2.95-.98,30.02-8.86,44.29,11.32,44.78,12.3,3.94,5.41,5.91,12.3,4.92,18.7-1.97,7.38-6.4,14.27-13.29,18.7m-55.61,9.84c-2.46,.98-20.18,8.37-33.95,3.44l-1.48-.49-15.25,9.35,.49-14.76-1.48-.49c-7.87-5.41-13.78-13.78-16.24-23.13-1.48-8.37,.98-16.73,5.91-23.13,8.86-11.32,22.14-18.21,36.91-17.72,6.4,0,12.3,.98,18.21,2.95,3.94,.98,7.38,2.95,10.83,4.92-7.87,5.41-12.79,13.78-13.78,23.13-.98,13.29,4.92,26.08,16.24,32.97-1.97,.98-3.94,1.97-6.4,2.95m61.02-5.41c7.38-5.41,12.3-13.29,14.76-22.14,1.48-8.37-.49-17.22-5.91-24.11,0,0-17.72-25.59-52.65-14.76-2.46,.98-4.92,1.48-6.89,2.95-4.92-3.44-9.84-5.91-15.25-7.38-41.83-12.79-62.99,17.22-62.99,17.72-6.4,8.37-8.86,18.7-6.89,28.54,2.46,10.83,8.86,19.68,17.72,26.57l-.49,23.62,23.62-14.27c15.75,4.92,34.45-2.95,37.89-4.43,3.44-1.97,6.4-3.94,9.35-6.4,9.35,3.94,19.19,4.92,29.03,2.95l19.68,12.3-.98-21.16Z"/><path class="cls-1" d="M122.04,264.75c14.76,0,27.07-12.3,27.07-27.07s-12.3-27.07-27.07-27.07-27.07,12.3-27.07,27.07,11.81,27.07,27.07,27.07"/><path class="cls-1" d="M153.53,380.39l-4.43,1.97c-.98-2.95-2.46-5.41-3.94-7.87l3.94-2.95c1.48,2.46,3.44,5.41,4.43,8.86m1.97,10.83c0,3.44-.49,6.89-1.48,10.33l-4.92-1.48c.98-2.95,1.48-5.91,1.48-8.86h4.92Zm-13.78,26.57l-2.95-3.94c2.46-1.97,4.43-3.94,6.4-6.4l3.94,2.95c-2.46,2.95-4.92,5.41-7.38,7.38m-19.68-6.4l-15.26-15.75c-1.97-1.97-3.44-4.92-2.95-7.87-.98-5.41,2.95-10.33,8.37-11.32h.98c4.92,0,7.38,5.41,8.86,7.38,1.97-1.97,4.92-7.38,9.35-7.38,5.91,0,9.35,4.92,9.35,11.32,0,2.95-.98,5.91-2.95,7.87l-15.75,15.75Zm0,12.79v-4.92c2.95,0,5.91-.49,8.86-1.48l1.48,4.92c-3.44,.98-6.89,1.48-10.33,1.48m-10.33-1.48c-3.44-.98-6.4-2.46-9.35-4.43l2.95-3.94c2.46,1.48,4.92,2.95,7.87,3.94l-1.48,4.43Zm-12.79-48.23l-3.94-2.95c1.97-2.95,4.43-5.41,7.38-7.38l2.95,3.94c-2.46,1.97-4.43,3.94-6.4,6.4m-3.44,36.42c-1.97-2.95-3.94-5.91-4.92-9.35l4.92-1.48c.98,2.95,2.46,5.41,3.94,7.87l-3.94,2.95Zm-6.4-19.68h0c0-3.44,.49-6.89,1.48-9.84l4.92,1.48c-.98,2.95-1.48,5.41-1.48,8.37h-4.92Zm32.48-33.46v4.92c-2.95,0-5.91,.49-8.86,1.48l-1.48-4.92c3.44-.98,6.89-1.48,10.33-1.48m10.33,1.48c3.44,.98,6.4,2.46,9.35,4.43l-2.95,3.94c-2.46-1.97-4.92-2.95-7.87-3.94l1.48-4.43Zm44.29-60.04s-7.87-21.16-25.59-21.16h-57.58c-17.72,0-25.59,21.16-25.59,21.16l-22.64,73.32s-3.94,13.29,7.38,16.73c11.32,3.44,14.76-9.84,14.76-9.84l18.21-61.02s.98-4.92,4.43-3.44c3.44,1.48,2.46,5.91,2.46,5.91l-31.49,114.17h29.53v82.18c.49,7.87,7.38,13.78,14.76,13.29,7.38-.49,12.79-5.91,13.29-13.29v-82.18h7.87v82.18c.49,7.87,7.38,13.78,14.76,13.29,7.38-.49,12.79-5.91,13.29-13.29v-82.18h29.53l-31.49-114.66s-1.48-4.92,1.97-5.91c3.44-.98,4.43,3.44,4.43,3.44l18.21,61.02s3.44,13.29,14.76,9.84c11.32-3.44,7.38-16.73,7.38-16.73l-22.64-72.83Z"/><path class="cls-1" d="M345.94,215.05c-14.76,0-26.57,11.81-27.07,26.57-.49,14.76,11.81,26.57,26.57,27.07,14.76,0,26.57-11.81,27.07-26.57,0-14.76-11.81-27.07-26.57-27.07"/><path class="cls-1" d="M345.94,326.75c-2.46,0-4.43-1.97-4.43-4.43s1.97-4.43,4.43-4.43,4.43,1.97,4.43,4.43-1.97,4.43-4.43,4.43m0,34.45c-2.46,0-4.43-1.97-4.43-4.43s1.97-4.43,4.43-4.43,4.43,1.97,4.43,4.43-1.97,4.43-4.43,4.43m0,35.43c-2.46,0-4.43-1.97-4.43-4.43s1.97-4.43,4.43-4.43,4.43,1.97,4.43,4.43-1.97,4.43-4.43,4.43m76.28-21.65l-22.14-72.34s-7.87-20.67-25.59-20.67h-57.08c-17.72,0-25.59,20.67-25.59,20.67l-22.14,72.34s-3.94,13.29,7.38,16.73c11.32,3.44,14.76-9.84,14.76-9.84l17.72-60.04s.98-4.92,4.43-3.44c3.44,1.48,1.97,5.91,1.97,5.91l-31,113.18h29.03v81.2c.49,7.87,6.89,13.78,14.76,13.29,6.89-.49,12.79-5.91,13.29-13.29v-81.69h7.87v81.2c.49,7.87,6.89,13.78,14.76,13.29,6.89-.49,12.79-5.91,13.29-13.29v-81.2h29.03l-31-113.18s-1.48-4.92,1.97-5.91c3.44-.98,4.43,3.44,4.43,3.44l17.72,60.53s3.44,12.79,14.76,9.84c11.32-2.95,7.38-16.73,7.38-16.73"/><path class="cls-1" d="M346.44,210.13c8.86,0,17.22,3.44,23.13,9.84l11.32-12.3c-9.35-9.35-21.65-14.27-34.45-14.76-13.78,.49-26.57,5.91-35.92,15.75l13.29,10.33c6.4-5.41,14.27-8.86,22.64-8.86"/></g></svg>