<?xml version="1.0" encoding="UTF-8"?><svg id="Capa_1" xmlns="http://www.w3.org/2000/svg" viewBox="0 0 467 568.37"><defs><style>.cls-1{fill:#f49400;}.cls-2{fill:#fff;}</style></defs><path class="cls-1" d="M4.92,80.7H461.59V4.92H4.92V80.7Zm462.08,4.92H0V0H466.51V85.62h.49Z"/><polygon class="cls-1" points="16.73 17.72 38.88 17.72 38.88 24.6 32.48 24.6 32.48 67.91 23.62 67.91 23.62 24.6 16.73 24.6 16.73 17.72"/><path class="cls-1" d="M49.21,52.16h6.89l-3.44-20.18-3.44,20.18Zm-10.33,15.75l9.35-50.19h9.35l9.84,50.19h-8.86l-1.48-9.35h-8.86l-1.48,9.35h-7.87Z"/><path class="cls-1" d="M80.21,24.6v15.75h2.95c2.95,0,3.94-1.48,3.94-3.94v-7.38c0-2.95-1.48-3.94-3.94-3.94h-2.95v-.49Zm0,20.18v23.13h-8.37V17.72h12.3c8.37,0,11.81,4.43,11.81,11.32v6.4c0,5.41-1.97,8.37-6.89,9.84l7.87,22.64h-8.86l-7.87-23.13Z"/><path class="cls-1" d="M113.67,41.34h11.81v26.57h-5.91v-5.41c-.98,3.94-3.44,5.91-7.87,5.91-7.38,0-10.33-5.91-10.33-13.29V31c0-7.87,3.94-13.29,12.79-13.29,9.35,0,11.81,5.41,11.81,12.79v4.43h-7.87v-4.92c0-2.95-.98-4.92-4.43-4.92-2.95,0-4.43,1.97-4.43,4.92v27.07c0,2.95,1.48,4.92,3.94,4.92,2.95,0,3.94-1.48,3.94-4.92v-9.35h-3.94v-6.4h.49Z"/><polygon class="cls-1" points="132.37 17.72 152.55 17.72 152.55 24.6 140.74 24.6 140.74 38.88 149.11 38.88 149.11 45.77 140.74 45.77 140.74 61.02 152.55 61.02 152.55 67.91 132.37 67.91 132.37 17.72"/><polygon class="cls-1" points="156.49 17.72 178.63 17.72 178.63 24.6 171.74 24.6 171.74 67.91 163.38 67.91 163.38 24.6 156.49 24.6 156.49 17.72"/><polygon class="cls-1" points="374.49 17.72 374.49 67.91 366.12 67.91 366.12 29.53 360.21 35.43 360.21 27.07 367.6 17.72 374.49 17.72"/><polygon class="cls-1" points="394.66 17.72 394.66 67.91 386.3 67.91 386.3 29.53 380.39 35.43 380.39 27.07 388.26 18.21 394.66 18.21 394.66 17.72"/><path class="cls-1" d="M409.42,36.91c3.44,0,5.91,2.95,5.91,5.91,0,3.44-2.95,5.91-5.91,5.91-3.44,0-5.91-2.95-5.91-5.91s2.95-5.91,5.91-5.91"/><path class="cls-1" d="M439.93,56.59v-8.86c0-3.44-.98-4.92-3.94-4.92-2.46,0-3.94,1.97-3.94,4.43v9.35c0,2.95,.98,4.92,3.94,4.92,2.46,0,3.94-1.48,3.94-4.92m-16.73-1.48V30.51c0-7.87,3.44-13.29,12.3-13.29,9.35,0,11.81,5.41,11.81,12.79v2.46h-7.87v-3.44c0-2.95-.98-4.92-3.94-4.92s-3.94,1.97-3.94,4.92v10.83c1.48-2.46,3.44-3.94,6.89-3.94,5.91,0,9.35,3.94,9.35,12.3v7.38c0,7.87-3.44,12.79-12.3,12.79s-12.3-5.41-12.3-13.29"/><g><rect class="cls-1" y="101.86" width="466.51" height="466.51"/><path class="cls-2" d="M342.5,520.15c-11.81,0-21.65-8.37-23.62-20.18l23.62,.49c2.46,0,4.43-1.97,4.43-4.43,0-.98,0-1.48-.49-2.46l-12.3-20.18c2.95-.98,5.41-1.48,8.37-1.48,13.29,0,24.11,10.83,24.11,24.11-.49,13.29-11.32,24.11-24.11,24.11m-33.46-63.48l-15.26,29.03-20.18-32.97,35.43,3.94Zm17.22,22.14l7.87,12.79-15.26-.49c.98-4.92,3.44-9.35,7.38-12.3m-4.92-7.87c-5.91,4.92-10.33,11.81-11.32,19.68h-8.37l14.76-28.05,4.92,8.37Zm-55.61,24.6c0,13.29-10.83,24.11-24.11,24.11s-24.11-10.83-24.11-24.11,10.83-24.11,24.11-24.11c1.97,0,4.43,.49,6.4,.98l-9.84,21.16c-.49,.49-.49,.98-.49,1.97,0,2.46,1.97,4.43,4.43,4.43,1.97,0,3.44-.98,3.94-2.46l9.84-20.67c6.4,4.43,9.84,11.32,9.84,18.7m76.77-32.97c-4.43,0-9.35,.98-13.29,2.95l-7.87-12.3,5.91-10.33,6.89,.49c2.46,0,3.94-.49,3.94-2.95v-1.97c0-1.97-.98-3.44-2.95-3.94h-25.59c-.98,0-1.97,.98-1.97,1.97v2.46c0,.98,.49,1.48,1.48,1.97l7.38,.49-2.95,5.91-43.8-4.92v-6.89c0-1.48-.98-2.95-2.46-3.94l-12.79-6.89c-.49-.49-1.48-.49-2.46-.98-2.46,0-4.43,1.97-4.43,4.43,0,1.48,.98,3.44,2.46,3.94l10.83,6.4v5.91l-8.86,18.7c-3.44-.98-6.89-1.97-10.33-1.97-18.21,0-33.46,14.76-33.46,33.46s14.76,33.46,33.46,33.46,33.46-14.76,33.46-33.46c0-11.32-5.41-21.65-14.76-27.56l4.92-10.83,24.6,40.35c.98,1.48,2.46,1.97,3.94,1.97l15.75,.49c1.97,18.21,18.7,31,36.91,29.03,18.21-1.97,31-18.7,29.03-36.91-1.97-16.24-16.24-29.03-32.97-28.54"/><path class="cls-2" d="M171.74,434.52h-28.05v-3.44c0-.49-.49-.98-.98-.98h-21.16c-.49,0-.98,.49-.98,.98v3.44h-28.05c-.49,0-.98,.49-.98,.98l.49,4.43c0,.49,.49,.98,.98,.98h78.24c.49,0,.98-.49,.98-.98l.98-4.43c0-.49-.49-.98-1.48-.98q.49,0,0,0"/><path class="cls-2" d="M154.03,515.23c0,1.48-1.48,2.46-2.46,2.46-1.48,0-2.46-1.48-2.46-2.95l3.44-55.61c0-1.48,1.48-2.46,2.95-2.46s2.46,1.48,2.46,2.95l-3.94,55.61Zm-19.19,0c0,1.48-.98,2.95-2.46,2.95s-2.95-.98-2.95-2.46v-56.1c0-1.48,.98-2.95,2.46-2.95s2.95,.98,2.95,2.46v56.1Zm-21.16,2.46h0c-1.48,0-2.46-.98-2.46-2.46l-3.44-55.11c0-1.48,.98-2.95,2.46-2.95s2.95,.98,2.95,2.46l2.95,55.61c0,1.48-.98,2.46-2.46,2.46m57.08-72.34H93.5c-.49,0-.98,.49-.98,.98l5.41,81.69c0,.49,.49,.98,.98,.98h66.43c.49,0,.98-.49,.98-.98l5.41-81.69c0-.49-.49-.98-.98-.98"/><path class="cls-2" d="M102.85,361.69h-7.38v19.19c0,.49-.49,.49-.49,.49h-8.86q-.49,0-.49-.49v-19.19h-14.27c-9.35,0-16.73-7.38-16.73-16.73,0-4.43,1.48-8.86,4.92-11.81-7.38-4.43-10.33-13.78-5.91-21.16,2.95-4.92,7.87-7.87,13.78-7.87h.98c.98-11.81,10.83-20.67,22.64-19.68,11.32,.98,19.68,9.84,19.68,21.16,0,3.44-.49,6.4-1.97,9.35,12.79,2.95,20.67,15.25,18.21,28.05-2.95,10.83-12.79,18.7-24.11,18.7"/><path class="cls-2" d="M378.42,362.18v18.7c0,.49,.49,.49,.49,.49h8.37q.49,0,.49-.49v-18.7c13.29-2.95,22.64-14.76,22.14-28.05,0-16.73-12.79-44.29-28.05-44.29s-27.56,28.05-27.56,44.29c-.49,13.78,9.84,26.08,24.11,28.05"/><path class="cls-2" d="M360.7,165.34c8.85-9.35,23.12-10.33,32.96-1.48,9.84,8.86,10.33,23.13,1.47,32.97-8.85,9.35-23.12,10.33-32.46,1.48-10.33-8.86-10.82-23.62-1.97-32.97q-.49,0,0,0"/><path class="cls-2" d="M357.26,200.78c.49-.49,1.97-.49,2.46,0,.49,.49,.49,1.97,0,2.46l-6.89,7.38c-.49,.49-1.97,.49-2.46,0-.49-.49-.49-1.97,0-2.46l6.89-7.38Z"/><path class="cls-2" d="M398.11,161.41c-.98,.49-1.97,.49-2.46,0-.49-.49-.49-1.97,0-2.46l6.4-7.38c.98-.49,1.97-.49,2.46,0s.49,1.97,0,2.46l-6.4,7.38Z"/><path class="cls-2" d="M400.07,198.81l7.38,6.89c.49,.49,.49,1.97,0,2.46s-1.97,.49-2.46,0l-7.38-6.89c-.49-.98-.49-1.97,0-2.46,.49-.98,1.48-.98,2.46,0"/><path class="cls-2" d="M355.29,163.38l-7.38-6.89c-.49-.98-.49-1.97,0-2.46s1.97-.49,2.46,0l7.38,6.89c.49,.98,.49,1.97,0,2.46-.49,.49-1.48,.49-2.46,0"/><path class="cls-2" d="M372.03,207.35c.98,0,1.48,.97,1.48,1.94l-1.97,9.71c-.49,.97-1.48,1.46-2.46,1.46s-1.48-.97-1.48-1.94l1.97-9.71c.49-1.45,1.48-1.94,2.46-1.45"/><path class="cls-2" d="M383.34,155.01c-.98-.49-1.48-.98-1.48-1.97l1.97-9.84c.49-.98,1.48-1.48,2.46-1.48s1.48,.98,1.48,1.97l-1.97,9.84c-.49,.98-1.48,1.48-2.46,1.48"/><path class="cls-2" d="M403.52,186.5c0-.98,.98-1.48,1.97-1.48l9.84,2.46c.98,.49,1.48,1.48,1.48,2.46-.49,.98-.98,1.48-1.97,1.48l-9.84-2.46c-.98,0-1.48-.98-1.48-2.46"/><path class="cls-2" d="M338.56,172.23c0-.98,.98-1.48,1.97-1.48l9.84,2.46c.98,.49,1.48,1.48,.98,2.46-.49,.98-.98,.98-1.97,.98l-9.84-1.97c-.98-.49-1.48-1.48-.98-2.46"/><path class="cls-2" d="M385.8,206.19c.98-.49,1.97,0,2.46,.98l2.95,9.84c0,.98-.49,1.97-1.48,2.46-.98,.49-1.97,0-2.46-.98l-2.95-9.84c0-.98,.49-1.97,1.48-2.46"/><path class="cls-2" d="M369.56,155.5c-.98,.49-1.97,0-2.46-.98l-2.95-9.84c-.49-.98,.49-1.97,1.48-2.46,.98-.49,1.97,0,2.46,.98l2.95,9.84c0,1.48-.49,2.46-1.48,2.46"/><path class="cls-2" d="M414.84,171.25l-9.84,2.95c-.98,0-1.97-.49-2.46-1.48-.49-.98,0-1.97,.98-2.46l9.84-2.95c.98-.49,1.97,.49,2.46,.98,.49,1.48,0,2.46-.98,2.95"/><path class="cls-2" d="M340.53,190.93l9.84-2.95c.98,0,1.97,.49,2.46,1.48,.49,.98,0,1.97-.98,2.46l-9.84,2.95c-.98,0-1.97-.49-2.46-1.48-.49-.98,0-1.97,.98-2.46"/><path class="cls-2" d="M307.07,212.59l3.94,4.43-15.75,3.94,4.43-15.75,3.94,4.43,11.32-10.83c.98-.98,1.97-.98,2.95,0,.98,.98,.98,1.97,0,2.95l-10.83,10.83Z"/><path class="cls-2" d="M312.48,240.14l4.43-15.25,3.94,4.43,11.32-10.83c.98-.49,1.97-.49,2.95,.49,.49,.98,.49,1.97,0,2.46l-11.32,10.83,3.94,4.43-15.25,3.44Z"/><path class="cls-2" d="M265.24,201.27l.49-.49c.49-.49,1.48-.49,1.97,.49l50.19,62.99c.49,.49,.49,1.48-.49,1.97l-.49,.49c-.49,.49-1.48,.49-1.97-.49l-50.19-62.5c-.49-.98,0-1.48,.49-2.46"/><path class="cls-2" d="M165.34,156.98c0-.98,.98-1.97,1.97-1.97h19.19c.98,0,1.97,.98,1.97,1.97v11.81c0,.98-.98,1.97-1.97,1.97h-19.19c-.98,0-1.97-.98-1.97-1.97v-11.81Zm0,23.13c0-.98,.98-1.97,1.97-1.97h19.19c.98,0,1.97,.98,1.97,1.97v11.81c0,.98-.98,1.97-1.97,1.97h-19.19c-.98,0-1.97-.98-1.97-1.97v-11.81Zm0,23.62c0-.98,.98-1.97,1.97-1.97h19.19c.98,0,1.97,.98,1.97,1.97v11.81c0,.98-.98,1.97-1.97,1.97h-19.19c-.98,0-1.97-.98-1.97-1.97v-11.81Zm0,23.13c0-.98,.98-1.97,1.97-1.97h19.19c.98,0,1.97,.98,1.97,1.97v11.81c0,.98-.98,1.97-1.97,1.97h-19.19c-.98,0-1.97-.98-1.97-1.97v-11.81Zm0,23.13c0-.98,.98-1.97,1.97-1.97h19.19c.98,0,1.97,.98,1.97,1.97v11.81c0,.98-.98,1.97-1.97,1.97h-19.19c-.98,0-1.97-.98-1.97-1.97v-11.81Zm0,23.62c0-.98,.98-1.97,1.97-1.97h19.19c.98,0,1.97,.98,1.97,1.97v11.81c0,.98-.98,1.97-1.97,1.97h-19.19c-.98,0-1.97-.98-1.97-1.97v-11.81Zm0,23.13c0-.98,.98-1.97,1.97-1.97h19.19c.98,0,1.97,.98,1.97,1.97v11.81c0,.98-.98,1.97-1.97,1.97h-19.19c-.98,0-1.97-.98-1.97-1.97v-11.81Zm0,23.13c0-.98,.98-1.97,1.97-1.97h19.19c.98,0,1.97,.98,1.97,1.97v11.81c0,.98-.98,1.97-1.97,1.97h-19.19c-.98,0-1.97-.98-1.97-1.97v-11.81Zm0,23.62c0-.98,.98-1.97,1.97-1.97h19.19c.98,0,1.97,.98,1.97,1.97v11.81c0,.98-.98,1.97-1.97,1.97h-19.19c-.98,0-1.97-.98-1.97-1.97v-11.81Zm30.02-186.01c0-.98,.98-1.97,1.97-1.97h19.19c.98,0,1.97,.98,1.97,1.97v11.32c0,.98-.98,1.97-1.97,1.97h-19.19c-.98,0-1.97-.98-1.97-1.97v-11.32Zm0,23.13c0-.98,.98-1.97,1.97-1.97h19.19c.98,0,1.97,.98,1.97,1.97v11.81c0,.98-.98,1.97-1.97,1.97h-19.19c-.98,0-1.97-.98-1.97-1.97v-11.81Zm0,23.13c0-.98,.98-1.97,1.97-1.97h19.19c.98,0,1.97,.98,1.97,1.97v11.81c0,.98-.98,1.97-1.97,1.97h-19.19c-.98,0-1.97-.98-1.97-1.97v-11.81Zm0,23.13c0-.98,.98-1.97,1.97-1.97h19.19c.98,0,1.97,.98,1.97,1.97v11.81c0,.98-.98,1.97-1.97,1.97h-19.19c-.98,0-1.97-.98-1.97-1.97v-11.81Zm0,23.62c0-.98,.98-1.97,1.97-1.97h19.19c.98,0,1.97,.98,1.97,1.97v11.81c0,.98-.98,1.97-1.97,1.97h-19.19c-.98,0-1.97-.98-1.97-1.97v-11.81Zm0,23.13c0-.98,.98-1.97,1.97-1.97h19.19c.98,0,1.97,.98,1.97,1.97v11.81c0,.98-.98,1.97-1.97,1.97h-19.19c-.98,0-1.97-.98-1.97-1.97v-11.81Zm0,23.13c0-.98,.98-1.97,1.97-1.97h19.19c.98,0,1.97,.98,1.97,1.97v11.81c0,.98-.98,1.97-1.97,1.97h-19.19c-.98,0-1.97-.98-1.97-1.97v-11.81Zm0,23.62c0-.98,.98-1.97,1.97-1.97h19.19c.98,0,1.97,.98,1.97,1.97v11.81c0,.98-.98,1.97-1.97,1.97h-19.19c-.98,0-1.97-.98-1.97-1.97v-11.81Zm31.49-47.24c0-.98,.98-1.97,1.97-1.97h19.19c.98,0,1.97,.98,1.97,1.97v11.81c0,.98-.98,1.97-1.97,1.97h-19.19c-.98,0-1.97-.98-1.97-1.97v-11.81Zm0,23.62c0-.98,.98-1.97,1.97-1.97h19.19c.98,0,1.97,.98,1.97,1.97v11.81c0,.98-.98,1.97-1.97,1.97h-19.19c-.98,0-1.97-.98-1.97-1.97v-11.81Zm0,23.62c0-.98,.98-1.97,1.97-1.97h19.19c.98,0,1.97,.98,1.97,1.97v11.81c0,.98-.98,1.97-1.97,1.97h-19.19c-.98,0-1.97-.98-1.97-1.97v-11.81Zm0,23.13c0-.98,.98-1.97,1.97-1.97h19.19c.98,0,1.97,.98,1.97,1.97v11.81c0,.98-.98,1.97-1.97,1.97h-19.19c-.98,0-1.97-.98-1.97-1.97v-11.81Zm31-93.5c0-.98,.49-1.48,1.48-1.48h19.68c.98,0,1.48,.49,1.48,1.48v12.3c0,.98-.49,1.97-1.48,1.97h-19.68c-.98,0-1.48-.98-1.48-1.48v-12.79Zm0,23.13c0-.98,.49-1.48,1.48-1.48h19.68c.98,0,1.48,.98,1.48,1.48v12.3c0,.98-.49,1.48-1.48,1.48h-19.68c-.98,0-1.48-.98-1.48-1.48v-12.3Zm0,23.13c0-.98,.49-1.48,1.48-1.48h19.68c.98,0,1.48,.98,1.48,1.48v12.3c0,.98-.49,1.48-1.48,1.48h-19.68c-.98,0-1.48-.49-1.48-1.48v-12.3Zm0,23.13c0-.98,.49-1.48,1.48-1.48h19.68c.98,0,1.48,.49,1.48,1.48v12.3c0,.98-.98,1.48-1.48,1.48h-19.68c-.98,0-1.48-.49-1.48-1.48v-12.3Zm30.02-62.5c0-.98,.98-1.48,1.97-1.48,.49,0,.98,0,1.48,.49l.49,.49c4.92,5.91,16.24,20.18,18.7,23.62v4.43c0,.98-.49,1.48-1.48,1.48h-19.68c-.98,0-1.48-.49-1.48-1.48v-27.56Zm0,38.88c0-.98,.49-1.48,1.48-1.48h20.18c.98,0,1.48,.98,1.48,1.48v12.79c0,.98-.49,1.48-1.48,1.48h-20.18c-.98,0-1.48-.49-1.48-1.48v-12.79Zm0,23.13c0-.98,.49-1.48,1.48-1.48h20.18c.98,0,1.48,.49,1.48,1.48v12.3c0,.98-.49,1.48-1.48,1.48h-20.18c-.98,0-1.48-.49-1.48-1.48v-12.3Zm.49,24.11c0-.98,.98-1.97,1.97-1.97h19.19c.98,0,1.97,.98,1.97,1.97v11.81c0,.98-.98,1.97-1.48,1.97h-19.19c-.98,0-1.97-.98-1.97-1.97v-11.81h-.49Zm-10.33-103.83c0,.98-.98,1.97-1.97,1.97h-16.73c-.98,0-1.97-.98-1.97-1.97v-21.16c0-.98,.98-1.48,1.97-1.48,.49,0,.98,.49,1.48,.49l.49,.49c3.94,4.43,11.32,13.78,15.75,19.68l.49,.49c.49,.49,.49,.98,.49,1.48m-119.09-94.48v235.71c0,.98,.49,1.48,1.48,1.48h34.45v-38.38c0-.98,.98-1.97,1.97-1.97h19.19c.98,0,1.97,.98,1.97,1.97v38.38h39.37v-38.38c0-.98,.98-1.97,1.48-1.97h18.7c.98,0,1.97,.98,1.97,1.97v38.38h38.88c.98,0,1.48-.49,1.48-1.48v-102.85c0-.49,0-.98-.49-1.48l-.49-.49-8.37-10.83-16.73-21.16-21.16-27.07-3.44-3.94-15.75-20.18-.49-.98c-.49,0-.49-.49-.98-.49-.98,0-1.48,.49-1.48,1.48v71.85h-25.59v-119.58c0-1.48-1.48-2.95-2.95-2.95h-59.54c-1.97,0-3.44,.98-3.44,2.95"/></g></svg>