<?xml version="1.0" encoding="UTF-8"?><svg id="Capa_1" xmlns="http://www.w3.org/2000/svg" viewBox="0 0 467 568.37"><defs><style>.cls-1{fill:#fff;}.cls-2{fill:#e5006a;}</style></defs><path class="cls-2" d="M4.92,80.7H461.59V4.92H4.92V80.7Zm462.08,4.92H0V0H466.51V85.62h.49Z"/><polygon class="cls-2" points="16.73 17.72 38.88 17.72 38.88 24.6 32.48 24.6 32.48 67.91 23.62 67.91 23.62 24.6 16.73 24.6 16.73 17.72"/><path class="cls-2" d="M49.21,52.16h6.89l-3.44-20.18-3.44,20.18Zm-10.33,15.75l9.35-50.19h9.35l9.84,50.19h-8.86l-1.48-9.35h-8.86l-1.48,9.35h-7.87Z"/><path class="cls-2" d="M80.21,24.6v15.75h2.95c2.95,0,3.94-1.48,3.94-3.94v-7.38c0-2.95-1.48-3.94-3.94-3.94h-2.95v-.49Zm0,20.18v23.13h-8.37V17.72h12.3c8.37,0,11.81,4.43,11.81,11.32v6.4c0,5.41-1.97,8.37-6.89,9.84l7.87,22.64h-8.86l-7.87-23.13Z"/><path class="cls-2" d="M113.67,41.34h11.81v26.57h-5.91v-5.41c-.98,3.94-3.44,5.91-7.87,5.91-7.38,0-10.33-5.91-10.33-13.29V31c0-7.87,3.94-13.29,12.79-13.29,9.35,0,11.81,5.41,11.81,12.79v4.43h-7.87v-4.92c0-2.95-.98-4.92-4.43-4.92-2.95,0-4.43,1.97-4.43,4.92v27.07c0,2.95,1.48,4.92,3.94,4.92,2.95,0,3.94-1.48,3.94-4.92v-9.35h-3.94v-6.4h.49Z"/><polygon class="cls-2" points="132.37 17.72 152.55 17.72 152.55 24.6 140.74 24.6 140.74 38.88 149.11 38.88 149.11 45.77 140.74 45.77 140.74 61.02 152.55 61.02 152.55 67.91 132.37 67.91 132.37 17.72"/><polygon class="cls-2" points="156.49 17.72 178.63 17.72 178.63 24.6 171.74 24.6 171.74 67.91 163.38 67.91 163.38 24.6 156.49 24.6 156.49 17.72"/><path class="cls-2" d="M431.08,52.16h6.89l-3.44-20.18-3.44,20.18Zm-10.33,15.75l9.35-50.19h9.35l9.35,50.19h-8.86l-1.48-9.35h-8.86l-1.48,9.35h-7.38Z"/><polygon class="cls-2" points="361.69 17.72 361.69 67.91 352.83 67.91 352.83 29.53 346.93 35.43 346.93 27.07 354.8 18.21 361.69 18.21 361.69 17.72"/><path class="cls-2" d="M384.82,56.1V29.53c0-2.95-.98-4.92-3.94-4.92s-3.94,1.97-3.94,4.92v27.07c0,2.95,.98,4.92,3.94,4.92s3.94-2.46,3.94-5.41m-16.24-.98V30.51c0-7.87,3.94-13.29,12.3-13.29s12.3,5.91,12.3,13.29v24.11c0,7.87-3.94,13.29-12.3,13.29-8.37,.49-12.3-5.41-12.3-12.79"/><polygon class="cls-2" points="404.01 32.48 404.01 53.15 414.84 42.81 404.01 32.48"/><g><rect class="cls-2" x="0" y="101.86" width="466.51" height="466.51"/><path class="cls-1" d="M360.22,460.11c4.43-7.38,16.73-14.27,28.05-25.59,11.32-11.32,12.79-15.75,15.75-33.46,2.46-21.16,3.44-42.32,1.97-63.48-.49-4.43-.98-10.83-4.92-10.83s-4.92,5.41-6.4,9.35c-1.48,3.94-2.46,26.08-3.94,36.42-2.95,11.81-7.87,23.13-14.76,33.46-2.95,4.43-14.76,17.22-17.22,16.73-2.46-.49-1.48-3.94,0-5.91,1.48-1.97,12.3-13.78,17.72-21.16,5.41-7.38,4.43-14.76,.49-17.72-3.44-1.97-6.4,3.94-14.76,12.3-8.37,8.37-17.72,16.73-34.45,31.49-11.81,10.83-17.72,26.57-15.75,42.32,.49,3.44-2.95,28.05-6.89,56.1h50.19c-.98-17.72-1.97-31.99-1.97-33.46-.98-8.86,1.97-18.21,6.89-26.57"/><path class="cls-1" d="M155.01,464.54c1.97-15.75-3.94-31.49-15.75-42.32-16.73-14.76-26.08-23.62-34.45-31.49-8.37-7.87-11.32-14.27-14.76-12.3-4.43,2.46-4.92,9.84,.49,17.72,5.41,7.87,15.75,18.7,17.72,21.16,1.97,2.46,2.95,4.92,0,5.91-2.95,.98-14.27-12.3-17.22-16.73-6.89-10.33-11.81-21.65-14.76-33.46-1.97-10.83-2.95-33.46-4.43-36.42-1.48-2.95-2.46-9.35-6.4-9.35s-4.43,6.4-4.92,10.83c-1.48,21.16-.98,42.32,1.97,63.48,2.95,17.72,4.43,21.65,15.75,33.46,11.32,11.81,23.62,18.21,28.05,25.59,4.92,8.37,7.38,17.22,7.38,27.07,0,1.97-.98,18.21-1.97,33.46h50.19c-3.44-23.13-6.89-51.18-6.89-56.59"/><path class="cls-1" d="M233.75,351.85c-36.91,0-66.93-30.51-66.93-67.42s30.51-66.93,67.42-66.93,66.93,30.51,66.93,67.42-30.02,66.93-67.42,66.93m108.26-79.72c0-2.95-2.46-4.92-5.41-4.92h-7.87c-2.95,0-5.91-.98-6.4-3.94-.98-5.41-2.95-10.33-4.92-15.26-.98-2.95-.49-5.91,1.97-7.87,2.46-1.97,4.43-3.94,6.89-5.91,1.97-1.48,2.95-4.43,1.48-6.89-3.44-5.91-7.38-11.32-12.3-16.24-1.97-2.46-4.92-2.46-7.38-.98-2.46,1.48-4.43,2.95-6.4,4.43-1.97,1.97-5.41,2.46-7.38,.49-4.92-3.44-9.84-7.38-13.29-9.35-2.46-1.48-3.94-4.43-2.95-7.38,.98-2.95,1.48-5.41,1.97-8.37,.98-2.46-.49-5.41-2.95-6.4-6.4-2.95-12.79-4.92-19.68-5.91-2.95-.49-5.41,.98-6.4,3.94-.98,2.95-1.97,4.92-2.46,7.38-.49,2.95-2.95,4.92-5.91,4.92h-17.72c-2.95,.49-5.91-.98-6.89-3.94-.98-2.95-1.97-5.41-3.44-8.37-.98-2.46-3.44-3.94-6.4-3.44-6.89,1.48-13.29,3.44-19.68,6.4-2.46,.98-3.94,3.94-2.95,6.89,.98,2.95,1.48,4.92,2.46,7.87,1.48,2.46,.49,5.91-1.48,7.38-4.43,2.95-8.86,6.4-12.79,9.84-2.46,1.97-5.41,1.97-7.87,.49-2.46-1.48-4.92-2.95-7.38-4.43-2.46-1.48-5.41-.98-6.89,.98-4.43,4.92-8.37,10.83-11.32,16.73-1.48,2.46-.98,5.91,1.48,7.38,2.46,1.97,3.94,3.44,6.4,4.92,2.46,1.48,3.94,4.43,2.95,6.89-.98,2.95-3.94,12.3-4.92,15.25-.49,2.95-3.44,4.92-6.4,4.92s-5.91,.49-8.86,.49c-2.46,.49-4.43,2.46-4.92,4.92-.98,6.89-.49,13.78,.49,20.67,0,2.95,2.46,4.92,5.41,4.92s4.92,0,7.87,.49c2.95,.49,5.91,.98,6.4,3.94,1.48,5.41,2.95,10.33,4.92,15.26,.98,2.95,.49,5.91-1.97,7.87-2.46,1.97-4.43,3.44-6.89,5.91-1.97,1.48-2.46,4.43-1.48,6.89,3.44,5.91,7.38,11.32,12.3,16.24,1.97,2.46,4.92,2.46,7.38,.98,2.46-1.48,4.43-2.95,6.4-4.43,1.97-1.97,5.41-2.46,7.87-.49,2.46,1.97,9.84,7.38,13.29,9.35,2.46,1.48,3.94,4.43,2.95,7.38-.98,2.95-1.48,5.41-1.97,8.37-.98,2.46,.49,5.41,2.95,6.4,6.4,2.95,12.79,4.92,19.68,5.91,2.95,.49,5.91-.98,6.4-3.94,.98-2.95,1.97-4.92,2.46-7.38,.49-2.95,2.95-4.92,5.91-4.92h16.24c2.95-.49,5.91,1.48,6.89,4.43,.98,2.95,1.97,5.41,3.44,8.37,.98,2.46,3.44,3.94,6.4,3.44,6.89-1.48,13.29-3.44,19.68-6.4,2.95-.98,3.94-4.43,2.95-6.89v-.49c-.98-2.95-1.48-4.92-2.46-7.87-1.48-2.46-.49-5.91,1.48-7.38,2.46-1.97,10.33-7.38,12.79-9.84,2.46-1.97,5.41-1.97,7.87-.49,2.46,1.48,4.92,2.95,7.38,4.43s5.41,.98,6.89-.98c4.43-4.92,8.37-10.83,11.81-16.73,1.48-2.46,.98-5.41-1.48-7.38-2.46-1.97-3.94-3.44-6.4-4.92-2.46-1.48-3.94-4.43-2.95-6.89,.98-2.95,3.94-11.81,4.92-15.25,.98-2.95,3.44-4.92,6.4-4.92s5.91-.49,8.86-.49c2.46-.49,4.43-2.46,4.92-4.92,.98-7.38,.98-14.27,0-21.16"/><path class="cls-1" d="M184.54,265.24c1.48,.98,2.46,0,3.44-.98,.49-.49,.49-1.48,0-2.46-.49-.98,.98-1.48,1.48-1.48,1.48-.98,2.95-1.48,4.43-2.46,2.95-.98,5.91-.98,8.86,0,1.97,.98,4.43,.49,5.91-.98,.98-1.48,2.46-2.46,4.43-3.44,.98-.49-1.97-3.44-4.43,0-2.46,3.44-3.94,3.44-4.92,3.44s-8.37-2.46-8.86-4.43c-.49-1.97,2.46-3.94,4.92-4.92,3.44-.98,7.38-1.48,11.32-1.48,3.44-.98,8.37-2.46,10.33-.98,1.97,1.48-9.84,4.43-5.91,6.4,1.48,.98,7.87-3.44,9.84-4.92,4.92-2.46-4.92-3.44-3.44-8.86,1.48-5.41-11.81-3.94-18.7-3.44-3.44,1.97-6.4,4.43-9.35,6.89,.98,0,1.48,.49,1.97,.98,0,1.48,0,2.46-.98,3.94-1.48,1.48-3.94,2.46-6.4,2.95-.49,0-.98-.49-.98-.49-.98,1.48-1.97,2.95-2.95,4.43,1.48-.98,2.95-1.48,4.43-1.48s3.44,.49,3.94,1.48c.49,.98-3.94,2.95-4.43,3.44-1.97,1.97-5.41,5.91-7.38,5.91h-1.48c-.49,1.48-.98,2.46-1.48,3.94,1.97-1.48,3.94-1.48,6.4-.98"/><path class="cls-1" d="M282.96,298.7c-1.97,.98-3.94,.49-5.91-.49-1.48-.98,.98-2.95,1.97-2.95,1.97,0,4.92,2.46,3.94,3.44m-7.87-7.38c-.49-1.48,.98-2.46,1.97-1.48,1.48,.49,2.46,1.97,2.95,3.44,0,.98-2.46,.98-2.95,.49-.49-.49-1.48-.98-1.97-2.46m-24.6,1.97c-1.97,.98-3.94,.98-5.91-.49-1.48-.98,.98-2.95,1.97-2.95,1.97,0,4.92,2.46,3.94,3.44m-24.11,11.81c-.98,1.48-2.95,11.32-4.43,10.33s.49-11.32,.98-12.3c1.97-4.43,6.89-4.43,3.44,1.97m55.61-23.62c-1.97,1.48-3.94,1.97-6.4,2.46-1.97,1.48-3.44,4.43-2.95,7.38,.49,2.46,5.91,8.37,1.97,8.37-3.94-1.97-6.89-4.43-9.35-7.87-.98-3.44-2.46-6.4-3.44-8.86-.49-1.97-2.46-2.95-4.43-1.97-.49,0-.49,.49-.98,.49-1.97,1.48,.49,2.95-.98,5.91-1.48,2.95-2.46,5.91-4.92,3.44-5.91-6.89-14.27-3.44-15.25-10.83-.49-3.94-3.94-3.44-6.89-5.91-2.95-2.46-4.43-3.44-4.92-1.97-.49,1.48,8.86,8.86,9.84,10.83,.98,2.95-2.95,5.41-5.91,5.91-2.95,.49-4.43-1.97-7.38-4.92-2.95-2.95-3.94-4.92-3.94-2.46,0,3.94,1.97,7.38,5.41,9.84,2.46,1.48,4.92,2.46,4.43,4.92-.49,2.46,0,.98-2.46,3.94-2.46,1.48-3.44,4.43-2.95,7.38,0,2.46-.49,4.92-1.48,6.89-.49,2.95-1.97,.49-2.95,4.92-.49,2.95-1.97,5.41-3.94,7.38-2.46,1.97-4.92,2.95-7.87,2.95-2.46,0-2.95-7.38-2.95-11.32,0-1.48-1.97,2.46-2.46-5.41-.49-4.92-3.94,.49-3.94-2.95s-1.97-2.46-3.44-4.92c-1.48-2.46-3.94,0-5.91,.98-1.97,.98-1.48,1.48-4.43,.49,6.89,16.24,20.67,29.03,37.89,33.95-.98-.49-1.48-1.97-.49-2.95,2.46-4.43,6.89-6.89,11.81-6.89,9.84-.98,22.14,6.4,24.11,4.92,1.97-1.48,5.91-6.4,12.3-6.4,1.97,0,3.94,.49,5.41,1.48,1.97-1.48,3.94-2.95,5.91-4.92-.49,0-1.48-.49-1.97-.49-3.44-1.48-2.95,.98-4.43,.49-1.48-.49,1.97-4.43-2.95-.98-4.92,3.44-3.44-.49-5.41-5.91-1.48-4.92,1.48-10.33,6.4-12.79,3.44-.98,6.89-1.97,10.83-2.46,6.89-1.97,8.86-5.91,9.84-3.44l.49,1.48c.49,.98,.98,2.46,.98,3.44,.98-2.95,1.97-5.91,2.46-8.86-1.48-.49-7.87-9.84-2.95-15.75,.98-.98-1.97-3.94-.98-3.94,2.46,0,4.43,1.48,4.92,3.44,0-2.95-.49-6.4-1.48-9.35v1.97c-.98,1.97-2.95,2.95-4.92,1.97-.98-.49-1.48-.98-1.97-1.48-.49-.98-2.95-3.44-2.95,.98s1.48,4.92-1.97,7.38"/><path class="cls-1" d="M182.08,272.13c3.44,.49,6.4,1.48,9.84,2.46,3.44,1.48,8.86,4.43,11.81,2.95,2.46-.98,3.94-1.97,3.94-3.94s-1.97-2.95-4.43-1.48c-.98,.49-2.46-3.44-3.94-3.44s1.97,4.92,.49,4.92-3.44-4.92-3.94-5.91c-.49-.98-2.46-2.95-3.94-1.48-3.44,3.44-9.35,2.95-10.33,3.94-.49,.49-.98,.49-.98,.49-2.46,.98-2.95-1.48-2.95-3.44-.98,3.44-1.97,6.89-1.97,10.33l.49-.49c1.97-3.44,2.46-3.94,2.95-4.43,.49-.49,1.48-.49,2.46-.98l.49,.49Z"/></g></svg>