<?xml version="1.0" encoding="UTF-8"?><svg id="Capa_1" xmlns="http://www.w3.org/2000/svg" viewBox="0 0 467 568.37"><defs><style>.cls-1{fill:#00b3dc;}.cls-2{fill:#fff;}</style></defs><path class="cls-1" d="M4.92,80.7H461.59V4.92H4.92V80.7Zm462.08,4.92H0V0H466.51V85.62h.49Z"/><polygon class="cls-1" points="16.73 17.72 38.88 17.72 38.88 24.61 32.48 24.61 32.48 67.91 23.62 67.91 23.62 24.61 16.73 24.61 16.73 17.72"/><path class="cls-1" d="M49.21,52.16h6.89l-3.44-20.18-3.44,20.18Zm-10.33,15.75l9.35-50.19h9.35l9.84,50.19h-8.86l-1.48-9.35h-8.86l-1.48,9.35h-7.87Z"/><path class="cls-1" d="M80.21,24.6v15.75h2.95c2.95,0,3.94-1.48,3.94-3.94v-7.38c0-2.95-1.48-3.94-3.94-3.94h-2.95v-.49Zm0,20.67v23.13h-8.37V17.72h12.3c8.37,0,11.81,4.43,11.81,11.32v6.4c0,5.41-1.97,8.37-6.89,9.84l7.87,22.64h-8.86l-7.87-22.64Z"/><path class="cls-1" d="M113.67,41.34h11.81v26.57h-5.91v-5.41c-.98,3.94-3.44,5.91-7.87,5.91-7.38,0-10.33-5.91-10.33-13.29V31c0-7.87,3.94-13.29,12.79-13.29,9.35,0,11.81,5.41,11.81,12.79v4.43h-7.87v-4.92c0-2.95-.98-4.92-4.43-4.92-2.95,0-4.43,1.97-4.43,4.92v27.07c0,2.95,1.48,4.92,3.94,4.92,2.95,0,3.94-1.48,3.94-4.92v-9.35h-3.94v-6.4h.49Z"/><polygon class="cls-1" points="132.37 17.72 152.55 17.72 152.55 24.61 140.74 24.61 140.74 38.88 149.11 38.88 149.11 45.77 140.74 45.77 140.74 61.02 152.55 61.02 152.55 67.91 132.37 67.91 132.37 17.72"/><polygon class="cls-1" points="156.49 17.72 178.63 17.72 178.63 24.61 171.74 24.61 171.74 67.91 163.38 67.91 163.38 24.61 156.49 24.61 156.49 17.72"/><path class="cls-1" d="M387.28,56.59v-8.86c0-3.44-.98-4.92-3.94-4.92-2.46,0-3.94,1.97-3.94,4.43v9.35c0,2.95,.98,4.92,3.94,4.92s3.94-1.48,3.94-4.92m-16.24-1.48V30.51c0-7.87,3.44-13.29,12.3-13.29,9.35,0,11.81,5.41,11.81,12.79v2.46h-7.87v-3.44c0-2.95-.98-4.92-3.94-4.92s-3.94,1.97-3.94,4.92v10.83c1.48-2.46,3.44-3.94,6.89-3.94,5.91,0,9.35,3.94,9.35,12.3v7.38c0,7.87-3.44,12.79-12.3,12.79s-12.3-5.41-12.3-13.29"/><path class="cls-1" d="M409.92,36.91c3.44,0,5.91,2.95,5.91,5.91,0,3.44-2.95,5.91-5.91,5.91-3.44,0-5.91-2.95-5.91-5.91-.49-2.95,2.46-5.91,5.91-5.91"/><path class="cls-1" d="M448.3,44.78v12.3c0,6.89-3.44,11.32-11.81,11.32s-11.81-4.92-11.81-12.3v-5.91h7.87v6.4c0,2.95,.98,4.92,3.94,4.92,2.46,0,3.44-1.97,3.44-4.43v-12.3c0-2.95-.98-4.43-3.44-4.43s-3.94,1.48-3.94,4.43v.98h-7.87V17.72h22.14v6.89h-14.27v12.3c1.48-2.46,3.94-3.44,6.89-3.44,4.43,.49,8.86,3.44,8.86,11.32"/><g><rect class="cls-1" y="101.86" width="466.51" height="466.51"/><path class="cls-2" d="M112.69,302.64c0-4.43-3.44-7.38-7.87-7.38s-7.38,3.44-7.38,7.87,3.44,7.38,7.87,7.38,7.38-3.44,7.38-7.87"/><path class="cls-2" d="M96.45,313.47c-4.92,.49-9.35,4.92-9.35,9.84v21.16c0,1.48,1.48,2.95,2.95,2.95s2.95-1.48,2.95-2.95v-18.21c0-.49,0-1.48,1.48-1.48s.98,.98,.98,1.48v54.13c0,2.46,1.97,4.43,4.43,4.43s4.43-1.97,4.43-4.43v-31c0-.49,.49-.98,.98-.98s.98,.49,.98,.98v31.49c0,2.46,1.97,4.43,4.43,4.43s4.43-1.97,4.43-4.43v-54.13c0-.49,0-1.48,.98-1.48s1.48,.98,1.48,1.48v18.21c0,1.48,1.48,2.95,2.95,2.95s2.95-1.48,2.95-2.95v-21.65c0-4.92-3.94-9.35-9.35-9.84h-17.72Z"/><path class="cls-2" d="M65.94,304.12c0-3.94-3.44-7.38-7.38-7.38s-7.38,3.44-7.38,7.38,3.44,7.38,7.38,7.38,7.38-3.44,7.38-7.38"/><path class="cls-2" d="M43.3,342.99l4.92-16.73s.49-1.48,.98-.98c.49,.49,.49,1.48,.49,1.48l-8.86,31.49h7.87v22.64c0,1.97,1.97,3.94,4.43,3.44,1.97,0,3.44-1.48,3.44-3.44v-22.64h1.97v22.64c0,1.97,1.97,3.94,3.94,3.94s3.94-1.97,3.94-3.94v-22.64h7.87l-8.86-31.49s-.49-1.48,.49-1.48,1.48,.98,1.48,.98l4.92,16.73s.98,3.44,3.94,2.46c2.95-.98,1.97-4.43,1.97-4.43l-6.4-20.18s-2.46-5.91-7.38-5.91h-15.75c-4.92,0-6.89,5.91-6.89,5.91l-6.4,20.18s-.98,3.94,1.97,4.43,5.91-2.46,5.91-2.46"/><path class="cls-2" d="M258.84,213.08v15.75q0,.49,.49,.49h6.89q.49,0,.49-.49v-16.24c11.32-2.46,19.19-12.3,18.7-24.11,0-12.3-8.37-31.49-18.7-36.42-.98-.49-2.46-.98-3.94-.98h-.98c-9.35,0-17.22,11.81-21.16,23.62-.49,.98-.49,1.48-.98,2.46-.98,3.94-1.97,7.87-1.97,11.81,.49,12.3,9.35,22.64,21.16,24.11"/><path class="cls-2" d="M192.41,213.08h17.22v16.24h7.87q.49,0,.49-.49v-16.24h17.22c.49,0,.98-.49,.98-.98v-.49l-21.16-68.4c0-.49-.49-.49-.98-.49s-.98,0-.98,.49l-.49,.49-21.16,68.4c-.49,.49,0,1.48,.49,1.48h.49Z"/><path class="cls-2" d="M408.93,314.94s5.41-2.95,5.41-6.4c-.49-3.44-2.46-6.89-4.92-9.35,0,0-4.92,5.41-4.92,9.35s3.44,5.41,4.43,6.4"/><path class="cls-2" d="M401.06,320.85s1.48,1.48,7.38,2.46c0,0,.49-5.91-1.48-8.37-2.46-2.46-5.41-4.92-8.86-6.4-.49,.49-.98,9.35,2.95,12.3"/><path class="cls-2" d="M400.07,333.15s1.48,1.97,7.87,2.95c.49-2.95,0-6.4-1.48-8.86-2.46-2.95-5.91-4.92-9.35-6.89,0,0-.98,9.84,2.95,12.79"/><path class="cls-2" d="M397.12,333.15s-1.48,10.83,2.95,13.78c2.46,1.97,5.41,2.95,8.37,2.95,0,0,.98-6.4-1.48-9.35,0,0-1.48-2.46-9.84-7.38"/><path class="cls-2" d="M399.09,360.21c2.46,1.97,5.41,2.95,8.86,2.95,0,0,.98-7.38-1.48-9.84-2.95-2.95-6.89-5.41-10.83-7.38,0,0-.49,11.32,3.44,14.27"/><path class="cls-2" d="M411.89,314.94c-2.46,2.46-1.48,8.37-1.48,8.37,5.91-.98,7.38-2.46,7.38-2.46,3.94-2.95,2.95-11.81,2.95-11.81-3.44,1.48-6.4,3.44-8.86,5.91"/><path class="cls-2" d="M421.73,320.36c-3.44,1.48-6.89,3.94-9.84,6.89-1.48,2.95-1.97,5.91-1.48,8.86,6.4-.98,7.87-2.95,7.87-2.95,3.94-2.95,3.44-12.79,3.44-12.79"/><path class="cls-2" d="M411.89,340.53c-2.46,2.46-1.48,9.35-1.48,9.35,2.95,0,5.91-.98,8.37-2.95,3.94-3.44,2.95-13.78,2.95-13.78-8.86,4.92-9.84,7.38-9.84,7.38"/><path class="cls-2" d="M422.71,345.94c-3.94,1.97-7.87,4.43-10.83,7.38-2.46,2.46-1.48,9.84-1.48,9.84,2.95,0,6.4-1.48,8.86-2.95,3.94-2.95,3.44-14.27,3.44-14.27"/><rect class="cls-2" x="407.95" y="365.14" width="2.95" height="24.6"/><path class="cls-2" d="M399.09,286.89c-.49,0-.98,.49-.98,.98v19.19l1.97,.98v-20.67s-.49-.49-.98-.49"/><path class="cls-2" d="M404.01,284.92c0-.49,0-.98-.98-.98-.49,0-.98,0-.98,.98v23.13c.49-1.48,.98-3.44,1.97-4.92v-18.21Z"/><path class="cls-2" d="M406.96,279.02c-.49,0-.98,.49-.98,.98v19.68l1.97-2.46v-17.22c0-.49-.49-.98-.98-.98"/><path class="cls-2" d="M419.76,286.89c-.49,0-.98,.49-.98,.98v20.67l1.97-.98v-19.68c0-.49-.49-.98-.98-.98"/><path class="cls-2" d="M416.81,284.92c0-.49-.49-.98-.98-.98s-.98,.49-.98,.98v18.21c.98,1.48,1.48,3.44,1.97,4.92v-23.13Z"/><path class="cls-2" d="M411.39,279.02c-.49,0-.98,.49-.98,.98v17.22l1.97,2.46v-19.68c0-.49,0-.98-.98-.98"/><path class="cls-2" d="M372.52,314.94s4.92-2.95,4.92-6.4c-.49-3.44-2.46-6.89-4.92-9.35,0,0-4.92,5.41-4.92,9.35s3.44,5.41,4.92,6.4"/><path class="cls-2" d="M363.66,320.85s1.48,1.48,7.38,2.46c0,0,.49-5.91-1.48-8.37-2.46-2.46-5.41-4.92-8.86-6.4,0,.49-.98,9.35,2.95,12.3"/><path class="cls-2" d="M363.17,333.15s1.48,1.97,7.87,2.95c0,0,.98-6.4-1.48-8.86-2.95-2.95-5.91-4.92-9.35-6.89,0,0-.98,9.84,2.95,12.79"/><path class="cls-2" d="M360.21,333.15s-1.48,10.83,2.95,13.78c2.46,1.97,5.41,2.95,8.37,2.95,0,0,.98-6.4-1.48-9.35,0,0-1.48-2.46-9.84-7.38"/><path class="cls-2" d="M362.18,360.21c2.46,1.97,5.41,2.95,8.86,2.95,0,0,.98-7.38-1.48-9.84-2.95-2.95-6.89-5.41-10.83-7.38,0,0-.49,11.32,3.44,14.27"/><path class="cls-2" d="M374.98,314.94c-2.46,2.46-1.48,8.37-1.48,8.37,5.91-.98,7.38-2.46,7.38-2.46,3.94-2.95,2.95-11.81,2.95-11.81-3.44,1.48-6.4,3.44-8.86,5.91"/><path class="cls-2" d="M384.33,320.36c-3.44,1.48-6.89,3.94-9.35,6.89-2.46,2.46-1.97,8.86-1.97,8.86,6.4-.98,7.87-2.95,7.87-2.95,4.43-2.95,3.44-12.79,3.44-12.79"/><path class="cls-2" d="M374.98,340.53c-2.46,2.46-1.48,9.35-1.48,9.35,2.95,0,5.91-.98,8.37-2.95,4.43-2.95,2.95-13.78,2.95-13.78-8.86,4.92-9.84,7.38-9.84,7.38"/><path class="cls-2" d="M385.8,345.94c-3.94,1.97-7.87,4.43-10.83,7.38-2.46,2.46-1.48,9.84-1.48,9.84,3.44,0,6.4-1.48,8.86-3.44,3.94-2.46,3.44-13.78,3.44-13.78"/><rect class="cls-2" x="371.04" y="365.14" width="2.95" height="24.6"/><path class="cls-2" d="M362.18,286.89c-.49,0-.98,.49-.98,.98v19.19l1.97,.98v-20.67s-.49-.49-.98-.49"/><path class="cls-2" d="M367.1,284.92c0-.49,0-.98-.98-.98-.49,0-.98,0-.98,.98v23.13c.49-1.48,.98-3.44,1.97-4.92v-18.21Z"/><path class="cls-2" d="M370.06,279.02c-.49,0-.98,.49-.98,.98v19.68l1.97-2.46v-17.22c0-.49-.49-.98-.98-.98"/><path class="cls-2" d="M382.85,286.89c-.49,0-.98,.49-.98,.98v20.67l1.97-.98v-19.68c0-.49-.49-.98-.98-.98"/><path class="cls-2" d="M379.41,284.92c0-.49-.49-.98-.98-.98s-.98,.49-.98,.98v18.21c.98,1.48,1.48,3.44,1.97,4.92v-23.13Z"/><path class="cls-2" d="M374.49,279.02c-.49,0-.98,.49-.98,.98v17.22l1.97,2.46v-19.68c0-.49,0-.98-.98-.98"/><polygon class="cls-2" points="319.86 272.62 314.45 272.62 314.45 390.23 160.92 390.23 160.92 272.62 155.01 272.62 155.01 395.65 319.86 395.65 319.86 272.62"/><path class="cls-2" d="M169.77,330.69h0c30.02,27.56,60.53,4.92,67.42-.49l.49-.49h.98l.49,.49c6.4,5.41,36.91,28.05,66.43,1.48l.98-.98c.49,0,.49-.49,.49-.98v-14.76c0-.98-.49-1.48-1.48-1.48h-.49l-.49,.49c-8.86,6.4-38.38,24.11-64.96-.49-.49-.49-1.48-.49-1.97,0l-.49,.49c-26.08,24.11-55.11,7.38-64.46,.98l-.49-.49h-.98c-.49,0-1.48,.49-1.48,.98v15.25Z"/><path class="cls-2" d="M169.77,363.66h0c30.02,27.56,60.53,4.92,67.42-.49l.49-.49h.98l.49,.49c6.4,5.41,36.91,28.05,66.43,1.48l.98-.98c.49,0,.49-.49,.49-.98v-14.76c0-.98-.49-1.48-1.48-1.48h-.49l-.49,.49c-8.86,6.4-38.38,24.11-64.96-.49-.49-.49-1.48-.49-1.97,0l-.49,.49c-26.08,24.6-55.11,7.38-64.46,.98l-.49-.49h-.98c-.49,0-1.48,.49-1.48,.98v14.27c-.49,.49,0,.98,0,.98"/><path class="cls-2" d="M172.23,300.67c1.48,0,2.46-.98,2.46-2.46s-.98-2.46-2.46-2.46-2.46,.98-2.46,2.46c0,1.97,.98,2.95,2.46,2.46"/><path class="cls-2" d="M182.57,296.24c1.36,0,2.46,1.1,2.46,2.46s-1.1,2.46-2.46,2.46-2.46-1.1-2.46-2.46,1.1-2.46,2.46-2.46"/><path class="cls-2" d="M192.9,296.24c1.36,0,2.46,1.1,2.46,2.46s-1.1,2.46-2.46,2.46-2.46-1.1-2.46-2.46,1.1-2.46,2.46-2.46"/><path class="cls-2" d="M202.74,296.24c-1.48,0-2.46,.98-2.46,2.46s.98,2.46,2.46,2.46,2.46-.98,2.46-2.46-.98-2.46-2.46-2.46"/><path class="cls-2" d="M213.08,296.24c-1.48,0-2.46,.98-2.46,2.46s.98,2.46,2.46,2.46,2.46-.98,2.46-2.46-.98-2.46-2.46-2.46"/><path class="cls-2" d="M223.41,296.24c1.36,0,2.46,1.1,2.46,2.46s-1.1,2.46-2.46,2.46-2.46-1.1-2.46-2.46,1.1-2.46,2.46-2.46"/><path class="cls-2" d="M233.75,296.24c-1.48,0-2.46,.98-2.46,2.46s.98,2.46,2.46,2.46,2.46-.98,2.46-2.46-.98-2.46-2.46-2.46"/><path class="cls-2" d="M244.08,296.24c-1.48,0-2.46,.98-2.46,2.46s.98,2.46,2.46,2.46,2.46-.98,2.46-2.46-.98-2.46-2.46-2.46"/><path class="cls-2" d="M254.41,296.24c-1.48,0-2.46,.98-2.46,2.46s.98,2.46,2.46,2.46,2.46-.98,2.46-2.46-.98-2.46-2.46-2.46"/><path class="cls-2" d="M264.75,296.24c1.36,0,2.46,1.1,2.46,2.46s-1.1,2.46-2.46,2.46-2.46-1.1-2.46-2.46,1.1-2.46,2.46-2.46"/><path class="cls-2" d="M275.08,296.24c1.36,0,2.46,1.1,2.46,2.46s-1.1,2.46-2.46,2.46-2.46-1.1-2.46-2.46,1.1-2.46,2.46-2.46"/><path class="cls-2" d="M285.42,296.24c-1.48,0-2.46,.98-2.46,2.46s.98,2.46,2.46,2.46,2.46-.98,2.46-2.46c-.49-1.48-1.48-2.46-2.46-2.46"/><path class="cls-2" d="M295.75,300.67c1.48,0,2.46-.98,2.46-2.46s-.98-2.46-2.46-2.46-2.46,.98-2.46,2.46,.98,2.95,2.46,2.46"/><path class="cls-2" d="M305.59,296.24c1.36,0,2.46,1.1,2.46,2.46s-1.1,2.46-2.46,2.46-2.46-1.1-2.46-2.46,1.1-2.46,2.46-2.46"/><path class="cls-2" d="M177.65,292.8c1.48,0,2.46-.98,2.46-2.46s-.98-2.46-2.46-2.46-2.46,.98-2.46,2.46c.49,1.48,1.48,2.46,2.46,2.46"/><path class="cls-2" d="M187.98,288.37c1.36,0,2.46,1.1,2.46,2.46s-1.1,2.46-2.46,2.46-2.46-1.1-2.46-2.46,1.1-2.46,2.46-2.46"/><path class="cls-2" d="M195.85,290.83c0,1.48,.49,2.46,1.97,2.46s2.46-.49,2.46-1.97v-.49c0-1.48-1.48-1.97-2.46-1.97s-1.48,.98-1.97,1.97"/><path class="cls-2" d="M206.19,290.83c0,1.48,.49,2.46,1.97,2.46s2.46-.49,2.46-1.97v-.49c0-1.48-1.48-1.97-2.46-1.97s-1.48,.98-1.97,1.97"/><path class="cls-2" d="M216.52,290.83c0,1.48,.98,2.46,2.46,2.46s2.46-.98,2.46-2.46-.98-2.46-2.46-2.46-2.46,.98-2.46,2.46"/><path class="cls-2" d="M229.32,288.37c1.36,0,2.46,1.1,2.46,2.46s-1.1,2.46-2.46,2.46-2.46-1.1-2.46-2.46,1.1-2.46,2.46-2.46"/><path class="cls-2" d="M239.65,288.37c1.36,0,2.46,1.1,2.46,2.46s-1.1,2.46-2.46,2.46-2.46-1.1-2.46-2.46,1.1-2.46,2.46-2.46"/><path class="cls-2" d="M247.52,290.83c0,1.48,.98,2.46,2.46,2.46s2.46-.98,2.46-2.46-.98-2.46-2.46-2.46-2.46,.98-2.46,2.46"/><path class="cls-2" d="M257.86,290.83c0,1.48,.98,2.46,2.46,2.46s2.46-.98,2.46-2.46-.98-2.46-2.46-2.46-2.46,.98-2.46,2.46"/><path class="cls-2" d="M270.16,288.37c1.36,0,2.46,1.1,2.46,2.46s-1.1,2.46-2.46,2.46-2.46-1.1-2.46-2.46,1.1-2.46,2.46-2.46"/><path class="cls-2" d="M278.53,290.83c0,1.48,.98,2.46,2.46,2.46s2.46-.98,2.46-2.46-.98-2.46-2.46-2.46-2.46,.98-2.46,2.46"/><path class="cls-2" d="M290.83,292.8c1.48,0,2.46-.98,2.46-2.46s-.98-2.46-2.46-2.46-2.46,.98-2.46,2.46c.49,1.48,1.48,2.46,2.46,2.46"/><path class="cls-2" d="M301.16,288.37c1.36,0,2.46,1.1,2.46,2.46s-1.1,2.46-2.46,2.46-2.46-1.1-2.46-2.46,1.1-2.46,2.46-2.46"/><path class="cls-2" d="M172.73,284.92c1.48,0,2.46-.98,2.46-2.46s-.98-2.46-2.46-2.46-2.46,.98-2.46,2.46,.98,2.46,2.46,2.46"/><path class="cls-2" d="M183.06,284.92c1.48,0,2.46-.98,2.46-2.46s-.98-2.46-2.46-2.46-2.46,.98-2.46,2.46,.98,2.46,2.46,2.46"/><path class="cls-2" d="M193.39,280c1.36,0,2.46,1.1,2.46,2.46s-1.1,2.46-2.46,2.46-2.46-1.1-2.46-2.46,1.1-2.46,2.46-2.46"/><path class="cls-2" d="M203.73,280.5c-1.48,0-2.46,.98-2.46,2.46s.98,2.46,2.46,2.46,2.46-.98,2.46-2.46c-.49-1.48-1.48-2.46-2.46-2.46"/><path class="cls-2" d="M213.57,280.5c-1.48,0-2.46,.98-2.46,2.46s.98,2.46,2.46,2.46,2.46-.98,2.46-2.46-.98-2.46-2.46-2.46"/><path class="cls-2" d="M223.9,280c1.36,0,2.46,1.1,2.46,2.46s-1.1,2.46-2.46,2.46-2.46-1.1-2.46-2.46,1.1-2.46,2.46-2.46"/><path class="cls-2" d="M234.24,280.5c-1.48,0-2.46,.98-2.46,2.46s.98,2.46,2.46,2.46,2.46-.98,2.46-2.46-.98-2.46-2.46-2.46"/><path class="cls-2" d="M244.57,280.5c-1.48,0-2.46,.98-2.46,2.46s.98,2.46,2.46,2.46,2.46-.98,2.46-2.46-.98-2.46-2.46-2.46"/><path class="cls-2" d="M254.91,280.5c-1.48,0-2.46,.98-2.46,2.46s.98,2.46,2.46,2.46,2.46-.98,2.46-2.46-.98-2.46-2.46-2.46"/><path class="cls-2" d="M265.24,280c1.36,0,2.46,1.1,2.46,2.46s-1.1,2.46-2.46,2.46-2.46-1.1-2.46-2.46,1.1-2.46,2.46-2.46"/><path class="cls-2" d="M275.57,280c1.36,0,2.46,1.1,2.46,2.46s-1.1,2.46-2.46,2.46-2.46-1.1-2.46-2.46,1.1-2.46,2.46-2.46"/><path class="cls-2" d="M285.91,280c1.36,0,2.46,1.1,2.46,2.46s-1.1,2.46-2.46,2.46-2.46-1.1-2.46-2.46,1.1-2.46,2.46-2.46"/><path class="cls-2" d="M296.24,284.92c1.48,0,2.46-.98,2.46-2.46s-.98-2.46-2.46-2.46-2.46,.98-2.46,2.46,.98,2.46,2.46,2.46"/><path class="cls-2" d="M306.58,284.92c1.48,0,2.46-.98,2.46-2.46s-.98-2.46-2.46-2.46-2.46,.98-2.46,2.46,.98,2.46,2.46,2.46"/><rect class="cls-2" x="300.17" y="193.9" width="149.6" height="6.4" transform="translate(-28.9 324.93) rotate(-45.29)"/><rect class="cls-2" x="371.71" y="399.24" width="6.4" height="149.6" transform="translate(-225.07 401.29) rotate(-44.75)"/><rect class="cls-2" x="90.75" y="122.67" width="6.4" height="149.6" transform="translate(-111.79 123.36) rotate(-44.75)"/><rect class="cls-2" x="19.15" y="470.47" width="149.6" height="6.4" transform="translate(-308.78 207.21) rotate(-45.29)"/><path class="cls-2" d="M291.81,481.27c0,.49-.49,.98-.98,.98h-21.16c-.49,0-.98-.49-.98-.98v-11.32c0-.49,.49-.98,.98-.98h21.16c.49,0,.98,.49,.98,.98v11.32Zm0,21.16c0,.49-.49,.98-.98,.98h-21.16c-.49,0-.98-.49-.98-.98v-11.32c0-.49,.49-.98,.98-.98h21.16c.49,0,.98,.49,.98,.98v11.32Zm-30.51-21.16c0,.49-.49,.98-.98,.98h-21.16c-.49,0-.98-.49-.98-.98v-11.32c0-.49,.49-.98,.98-.98h21.16c.49,0,.98,.49,.98,.98v11.32Zm0,21.16c0,.49-.49,.98-.98,.98h-21.16c-.49,0-.98-.49-.98-.98v-11.32c0-.49,.49-.98,.98-.98h21.16c.49,0,.98,.49,.98,.98v11.32Zm-30.51-21.16c0,.49-.49,.98-.98,.98h-21.16c-.49,0-.98-.49-.98-.98v-11.32c0-.49,.49-.98,.98-.98h21.16c.49,0,.98,.49,.98,.98v11.32Zm0,21.16c0,.49-.49,.98-.98,.98h-21.16c-.49,0-.98-.49-.98-.98v-11.32c0-.49,.49-.98,.98-.98h21.16c.49,0,.98,.49,.98,.98v11.32Zm-30.02-21.16c0,.49-.49,.98-.98,.98h-21.16c-.49,0-.98-.49-.98-.98v-11.32c0-.49,.49-.98,.98-.98h21.16c.49,0,.98,.49,.98,.98v11.32Zm96.94-21.65h-126.47c-.49,0-1.48,.49-1.48,1.48v61.02h6.89v-31c0-.49,.49-.98,.98-.98h21.16c.49,0,.98,.49,.98,.98v31h97.44c.49,0,.98-.49,.98-.98v-60.04c.49-.49,0-1.48-.49-1.48"/><path class="cls-2" d="M170.76,450.76h127.45c.49,0,.98,.49,.98,.98v3.94c0,.49-.49,.98-.98,.98h-127.45c-.49,0-.98-.49-.98-.98v-4.43q.49-.49,.98-.49"/></g></svg>