<?xml version="1.0" encoding="UTF-8"?><svg id="Capa_1" xmlns="http://www.w3.org/2000/svg" viewBox="0 0 467 568.37"><defs><style>.cls-1{fill:#fff;}.cls-2{fill:#d5102b;}</style></defs><path class="cls-2" d="M4.92,80.7H461.59V4.92H4.92V80.7Zm462.08,4.92H0V0H466.51V85.62h.49Z"/><polygon class="cls-2" points="16.73 17.72 38.88 17.72 38.88 24.6 32.48 24.6 32.48 67.91 23.62 67.91 23.62 24.6 16.73 24.6 16.73 17.72"/><path class="cls-2" d="M49.21,52.16h6.89l-3.44-20.18-3.44,20.18Zm-10.33,15.75l9.35-50.19h9.35l9.84,50.19h-8.86l-1.48-9.35h-8.86l-1.48,9.35h-7.87Z"/><path class="cls-2" d="M80.21,24.6v15.75h2.95c2.95,0,3.94-1.48,3.94-3.94v-7.38c0-2.95-1.48-3.94-3.94-3.94h-2.95v-.49Zm0,20.18v23.13h-8.37V17.72h12.3c8.37,0,11.81,4.43,11.81,11.32v6.4c0,5.41-1.97,8.37-6.89,9.84l7.87,22.64h-8.86l-7.87-23.13Z"/><path class="cls-2" d="M113.67,41.34h11.81v26.57h-5.91v-5.41c-.98,3.94-3.44,5.91-7.87,5.91-7.38,0-10.33-5.91-10.33-13.29V31c0-7.87,3.94-13.29,12.79-13.29,9.35,0,11.81,5.41,11.81,12.79v4.43h-7.87v-4.92c0-2.95-.98-4.92-4.43-4.92-2.95,0-4.43,1.97-4.43,4.92v27.07c0,2.95,1.48,4.92,3.94,4.92,2.95,0,3.94-1.48,3.94-4.92v-9.35h-3.94v-6.4h.49Z"/><polygon class="cls-2" points="132.37 17.72 152.55 17.72 152.55 24.6 140.74 24.6 140.74 38.88 149.11 38.88 149.11 45.77 140.74 45.77 140.74 61.02 152.55 61.02 152.55 67.91 132.37 67.91 132.37 17.72"/><polygon class="cls-2" points="156.49 17.72 178.63 17.72 178.63 24.6 171.74 24.6 171.74 67.91 163.38 67.91 163.38 24.6 156.49 24.6 156.49 17.72"/><path class="cls-2" d="M379.9,53.15h7.38v-20.67l-7.38,20.67Zm-7.38,1.48l14.76-36.91h8.37V53.15h3.44v6.4h-3.44v8.37h-8.37v-8.37h-14.76v-4.92Z"/><path class="cls-2" d="M412.38,36.91c3.44,0,5.91,2.95,5.91,5.91,0,3.44-2.95,5.91-5.91,5.91-3.44,0-5.91-2.95-5.91-5.91-.49-2.95,2.46-5.91,5.91-5.91"/><path class="cls-2" d="M425.66,58.56c0-4.92,1.48-8.37,6.4-13.29l4.92-4.92c2.95-2.95,2.95-4.43,2.95-8.86v-3.44c0-2.95-1.48-3.94-2.95-3.94-1.97,0-3.44,.98-3.44,3.94v6.4h-7.87v-6.4c0-6.89,3.94-10.83,11.32-10.83s10.83,3.44,10.83,10.33v4.92c0,4.92-.98,7.87-5.41,12.79l-5.41,5.91c-1.97,2.46-3.44,3.94-3.44,7.87v2.46h13.78v6.89h-21.65v-9.84Z"/><g><rect class="cls-2" y="101.86" width="466.51" height="466.51"/><path class="cls-1" d="M192.9,403.03h11.32c8.37,0,10.33,3.94,10.33,8.86,0,2.46-1.48,4.92-3.44,5.91,2.95,.98,4.43,3.94,4.43,6.89,0,5.41-2.46,9.84-11.32,9.84h-11.81v-31.49h.49Zm-15.25,42.81h53.64v-53.64h-53.64v53.64Z"/><path class="cls-1" d="M207.66,411.89c.49-1.48-.98-2.95-2.46-3.44h-5.41v6.89h4.43c1.48,0,2.95-.98,3.44-2.95v-.49Z"/><path class="cls-1" d="M208.65,425.17c.49-1.97-.98-3.44-2.95-3.94h-5.91v7.87h4.92c1.97,0,3.94-.98,3.94-2.95v-.98Z"/><path class="cls-1" d="M275.57,409.92c-1.97-.98-3.94-1.48-5.91-.98-5.41,0-7.38,1.97-7.38,10.33s2.46,10.33,7.38,10.33c1.97,0,3.94-.49,5.91-.98v6.4c-1.97,.98-4.43,1.48-6.89,.98-9.35,0-13.78-4.43-13.78-16.73s4.43-17.22,13.78-17.22c2.46,0,4.43,.49,6.89,.98v6.89Zm-37.4,35.92h53.64v-53.64h-53.64v53.64Z"/><polygon class="cls-1" points="232.27 362.68 237.68 362.68 234.73 350.37 232.27 362.68"/><path class="cls-1" d="M240.14,374.49l-1.48-6.4h-8.37l-1.48,6.4h-7.38l8.86-32.48h7.87l8.86,32.48h-6.89Zm21.65-42.81h-53.64v53.64h53.64v-53.64Z"/><path class="cls-1" d="M362.68,278.53c14.76,0,26.57-11.81,26.57-26.57s-11.81-26.57-26.57-26.57-26.57,11.81-26.57,26.57,11.81,26.57,26.57,26.57"/><path class="cls-1" d="M426.65,355.79c0-.98-7.87-20.18-10.33-26.08-16.24-41.34-18.7-40.84-33.46-41.34h-40.84c-14.76,.49-17.22,0-33.46,41.34-2.46,5.91-11.81,29.03-11.81,30.02,0,0-3.94,9.84,4.92,12.79,7.87,2.95,11.32-6.89,11.32-6.89l16.24-40.35s.49-.98,.98-.98,.49,.98,.49,1.48v105.8c-.49,7.38,5.41,13.78,13.29,14.27h.49c7.38,0,13.78-5.91,13.78-13.78v-43.3s-.49-6.4,3.94-6.4,3.94,6.4,3.94,6.4v42.81c-.49,7.87,5.91,14.27,13.29,14.27h.49c7.38,0,13.29-6.4,13.29-13.78v-105.8c0-.98,.49-.98,.49-1.48s.98,.98,.98,.98l14.76,36.42s4.43,9.84,12.3,5.91c7.87-3.94,4.92-12.3,4.92-12.3"/><path class="cls-1" d="M168.3,364.15l-19.68-58.07c-2.95-6.89-8.37-11.81-15.75-13.78-4.43-.49-8.37-.98-12.79-.49h-32.48s-8.37,0-12.79,.49c-11.32,1.48-15.25,13.78-15.25,13.78l-19.68,58.07s-2.95,9.35,5.41,11.81c4.92,.98,9.84-1.97,11.32-6.89l16.24-50.19s.49-3.44,3.44-2.46,1.48,3.94,1.48,3.94l-.98,4.43-16.73,60.53-.98,2.95h14.27v43.3c0,7.38,5.91,13.29,13.29,13.29s13.29-5.91,13.29-13.29v-43.3h7.87v43.3c0,7.38,5.91,13.29,13.29,13.29s13.29-5.91,13.29-13.29v-43.3h14.27l-.98-2.95-16.24-60.04-.98-4.43s-.98-3.44,1.48-3.94c2.46-.49,3.44,2.46,3.44,2.46l16.24,50.19c.98,4.92,6.4,7.87,11.32,6.89,8.37-2.95,5.41-12.3,5.41-12.3"/><path class="cls-1" d="M107.77,279.51c14.76,0,27.07-12.3,27.07-27.07s-12.3-27.07-27.07-27.07-27.07,12.3-27.07,27.07,11.81,27.07,27.07,27.07"/></g></svg>