<?xml version="1.0" encoding="UTF-8"?><svg id="Capa_1" xmlns="http://www.w3.org/2000/svg" viewBox="0 0 467 568.37"><defs><style>.cls-1{fill:#010101;}.cls-2{fill:#0096d6;}.cls-3{fill:#fff;}</style></defs><path class="cls-2" d="M4.92,80.7H461.59V4.92H4.92V80.7Zm462.08,4.92H0V0H466.51V85.62h.49Z"/><polygon class="cls-2" points="16.73 17.72 38.88 17.72 38.88 24.6 32.48 24.6 32.48 67.91 23.62 67.91 23.62 24.6 16.73 24.6 16.73 17.72"/><path class="cls-2" d="M49.21,52.16h6.89l-3.44-20.18-3.44,20.18Zm-10.33,15.75l9.35-50.19h9.35l9.84,50.19h-8.86l-1.48-9.35h-8.86l-1.48,9.35h-7.87Z"/><path class="cls-2" d="M80.21,24.6v15.75h2.95c2.95,0,3.94-1.48,3.94-3.94v-7.38c0-2.95-1.48-3.94-3.94-3.94h-2.95v-.49Zm0,20.18v23.13h-8.37V17.72h12.3c8.37,0,11.81,4.43,11.81,11.32v6.4c0,5.41-1.97,8.37-6.89,9.84l7.87,22.64h-8.86l-7.87-23.13Z"/><path class="cls-2" d="M113.67,41.34h11.81v26.57h-5.91v-5.41c-.98,3.94-3.44,5.91-7.87,5.91-7.38,0-10.33-5.91-10.33-13.29V31c0-7.87,3.94-13.29,12.79-13.29,9.35,0,11.81,5.41,11.81,12.79v4.43h-7.87v-4.92c0-2.95-.98-4.92-4.43-4.92-2.95,0-4.43,1.97-4.43,4.92v27.07c0,2.95,1.48,4.92,3.94,4.92,2.95,0,3.94-1.48,3.94-4.92v-9.35h-3.94v-6.4h.49Z"/><polygon class="cls-2" points="132.37 17.72 152.55 17.72 152.55 24.6 140.74 24.6 140.74 38.88 149.11 38.88 149.11 45.77 140.74 45.77 140.74 61.02 152.55 61.02 152.55 67.91 132.37 67.91 132.37 17.72"/><polygon class="cls-2" points="156.49 17.72 178.63 17.72 178.63 24.6 171.74 24.6 171.74 67.91 163.38 67.91 163.38 24.6 156.49 24.6 156.49 17.72"/><polygon class="cls-2" points="364.64 17.72 364.64 67.91 356.28 67.91 356.28 29.53 350.37 35.43 350.37 27.07 357.75 17.72 364.64 17.72"/><path class="cls-2" d="M377.44,53.15h7.38v-20.67l-7.38,20.67Zm-7.38,1.48l14.76-36.91h8.37V53.15h3.44v6.4h-3.44v8.37h-7.87v-8.37h-14.76v-4.92h-.49Z"/><path class="cls-2" d="M409.92,36.91c3.44,0,5.91,2.95,5.91,5.91,0,3.44-2.95,5.91-5.91,5.91-3.44,0-5.91-2.95-5.91-5.91-.49-2.95,2.46-5.91,5.91-5.91"/><path class="cls-2" d="M439.93,56.59v-8.86c0-3.44-.98-4.92-3.94-4.92-2.46,0-3.94,1.97-3.94,4.43v9.35c0,2.95,.98,4.92,3.94,4.92,2.46,0,3.94-1.48,3.94-4.92m-16.73-1.48V30.51c0-7.87,3.44-13.29,12.3-13.29,9.35,0,11.81,5.41,11.81,12.79v2.46h-7.87v-3.44c0-2.95-.98-4.92-3.94-4.92s-3.94,1.97-3.94,4.92v10.83c1.48-2.46,3.44-3.94,6.89-3.94,5.91,0,9.35,3.94,9.35,12.3v7.38c0,7.87-3.44,12.79-12.3,12.79s-12.3-5.41-12.3-13.29"/><g><rect class="cls-2" y="101.86" width="466.51" height="466.51"/><path class="cls-1" d="M142.71,425.66l4.92-2.95,4.92,6.89c-3.44-.49-6.4-1.97-9.84-3.94m-11.32-6.4l-.98-1.48,9.35-5.41,6.4,8.86-5.41,3.44c-3.44-1.48-6.4-3.44-9.35-5.41m-7.87-12.3l8.86-4.92,6.4,8.86-8.86,5.91-6.4-9.84Zm-6.4-10.83l7.87-4.43,6.4,8.86-8.86,4.92-5.41-9.35Zm-6.89,16.24l-4.92-9.84,9.84-5.91,6.4,9.84-11.32,5.91Zm-13.78,8.37l-4.43-10.33,11.81-6.89,4.92,9.84-12.3,7.38Zm-14.27,8.37l-3.44-10.83,11.81-6.4,3.94,9.84-12.3,7.38Zm-4.43-14.27c4.43-1.48,7.87-3.94,10.83-7.38l.98,2.46-10.83,6.89-.98-1.97Zm-.49-10.33c-1.48,.98-2.95,1.48-4.92,1.48v3.44h-1.97v-3.44c-1.97,0-3.44-.49-5.41-1.48-1.97-1.48-3.44-4.43-2.95-6.89h4.92c0,.98,.49,1.97,.49,2.95,.49,.98,1.48,1.48,2.95,1.48v-7.38l-1.48-.49c-1.97-.49-3.44-1.48-4.92-2.95-.98-.98-1.48-2.95-1.48-4.43,0-.98,0-1.97,.49-2.95,.98-1.97,2.46-3.44,4.43-3.94,.98,0,1.97-.49,2.95-.49v-2.46h1.97v2.46c1.48,0,3.44,.49,4.43,1.48,2.46,1.48,3.94,3.94,3.44,6.4h-4.92c0-.98,0-1.48-.49-2.46-.49-.98-1.48-1.48-2.46-1.48v6.89c1.97,.49,3.94,1.48,5.91,2.46,1.48,1.48,2.46,3.44,2.46,5.41,.49,2.95-.98,5.41-3.44,6.4m-14.27,20.67l-1.97-11.32h.49c2.95,1.48,6.4,2.46,9.84,2.46,1.48,0,3.44,0,4.92-.49l.49,1.97-13.78,7.38Zm-9.35-48.23l-1.97-9.84,8.37-4.92,2.95,9.35-9.35,5.41Zm-7.87,44.29l-.98-10.33,7.87-4.43c1.97,2.46,3.94,4.92,6.4,6.4v.49l-13.29,7.87Zm-2.46-23.13l4.92-2.95c0,3.44,.98,6.89,2.95,9.84l-6.89,3.94-.98-10.83Zm-10.83,30.51l-1.97-.98v-8.86l12.3-6.89,.98,10.33-11.32,6.4Zm-1.97-23.13l10.83-6.4,.98,10.83-11.32,6.89-.49-11.32Zm0-12.79l9.84-5.91,1.48,10.33-10.83,5.91-.49-10.33Zm0-12.79l8.86-5.41,.98,10.33-9.84,5.91v-10.83Zm0-13.29l7.87-4.43,.98,10.33-8.86,4.92v-10.83Zm0-13.29l6.89-3.94,.98,10.33-7.87,4.43v-10.83Zm0-12.79l5.41-3.44,.98,10.33-6.4,3.94v-10.83Zm0-13.29l4.43-2.46,.98,10.33-4.92,2.95-.49-10.83Zm0-52.65l4.43,48.23-4.43,2.46v-50.69Zm10.33,44.78l-4.43,2.46-3.44-45.27,7.87,42.81Zm5.41-3.44l-3.44,2.46-7.87-41.83,11.32,39.37Zm4.92-2.95l-2.95,1.97-11.32-36.91,14.27,34.94Zm4.92-2.46l-2.95,1.97-14.27-35.92,17.22,33.95Zm7.87-4.43l-2.46,1.48-22.14-35.43,24.6,33.95Zm6.89,8.86l-2.95,1.48-4.92-7.87,2.46-1.48,5.41,7.87Zm6.4,9.35l-3.44,1.97-4.92-7.87,2.95-1.97,5.41,7.87Zm6.4,9.35l-3.94,2.46-4.92-8.37,3.44-1.97,5.41,7.87Zm6.89,9.35l-4.92,2.95-4.92-7.87,4.43-2.46,5.41,7.38Zm6.4,9.35l-5.41,2.95-4.92-7.87,4.92-2.95,5.41,7.87Zm6.4,8.86l-5.91,3.44-4.92-7.87,5.41-3.44,5.41,7.87Zm6.89,9.35l-6.4,3.94-4.92-8.37,5.91-3.44,5.41,7.87Zm6.4,9.35l-7.38,3.94-4.92-7.87,6.89-3.94,5.41,7.87Zm-16.73,11.81l8.86-5.41,5.91,9.35-9.84,5.41-4.92-9.35Zm-5.91,3.44l4.43-2.46,4.92,9.84-11.32,6.4-1.48-3.44c1.97-2.95,3.44-6.4,3.44-10.33m-6.4-22.64l4.43,8.37-1.48,.98c-1.48-2.95-3.94-5.41-6.89-7.38l3.94-1.97Zm-4.92-9.84l4.43,7.87-4.92,2.95c-1.48-.98-3.44-1.48-5.41-1.97l-1.97-4.43,7.87-4.43Zm-8.37,2.95l-3.44-8.86,6.89-3.94,4.43,8.37-7.87,4.43Zm-.98,2.46l.98,2.95c-.98,0-1.97-.49-2.95-.49s-2.46,0-3.44,.49l5.41-2.95Zm-4.43-10.33l3.44,8.86-7.38,4.43-2.46-9.35,6.4-3.94Zm-9.84-7.38l5.91-3.44,3.44,8.86-6.89,3.94-2.46-9.35Zm-9.35,4.92l7.38-4.43,2.95,9.35-7.87,4.92-2.46-9.84Zm-1.48,.98l1.97,9.84-8.86,4.92-.98-10.33,7.87-4.43Zm-2.46-11.81l1.97,9.84-7.87,4.43-.98-10.83,6.89-3.44Zm-1.97-11.81l1.97,9.84-6.4,3.94-.98-10.33,5.41-3.44Zm-.49-1.48l-5.41,2.95-.98-10.33,4.43-2.46,1.97,9.84Zm6.4-3.94l-4.92,2.95-1.97-9.84,3.94-2.46,2.95,9.35Zm5.91-3.44l-3.94,2.46-2.95-9.35,2.95-1.97,3.94,8.86Zm5.41-3.44l-3.94,2.46-3.44-8.86,3.44-1.97,3.94,8.37Zm-3.44-10.83l-15.75-31,18.7,29.53-2.95,1.48Zm5.41,10.33l-4.43-8.37,2.46-1.48,4.92,7.87-2.95,1.97Zm4.92,9.84l-4.43-8.37,3.44-1.97,4.92,7.87-3.94,2.46Zm5.41,9.84l-4.43-8.37,4.43-2.46,4.92,8.37-4.92,2.46Zm-.49,2.46l4.43,8.37-6.89,3.94-3.44-8.86,5.91-3.44Zm-10.83-6.89l4.92-2.95,4.43,8.37-5.91,3.44-3.44-8.86Zm-6.4,3.94l4.92-2.95,3.44,8.86-5.91,3.44-2.46-9.35Zm-1.48,.98l2.95,9.35-6.89,3.94-1.97-9.84,5.91-3.44Zm-.98-1.97l-5.91,3.44-1.97-9.84,4.92-2.95,2.95,9.35Zm4.92-13.29l4.43-2.46,4.43,8.37-4.92,2.95-3.94-8.86Zm1.97,9.84l-4.92,2.95-2.95-9.35,3.94-2.46,3.94,8.86Zm18.7,15.25l-4.43-8.37,4.92-2.95,4.92,7.87-5.41,3.44Zm4.92,9.84l-4.43-8.37,5.91-3.44,4.92,8.37-6.4,3.44Zm4.92,9.84l-4.43-8.37,6.4-3.94,4.92,7.87-6.89,4.43Zm5.41,10.33l-4.43-8.37,7.38-4.43,4.92,8.37-7.87,4.43Zm3.44,11.32l-3.44,1.97c0-3.44-.98-6.89-2.46-9.84l1.48-.98,4.43,8.86Zm-2.46-9.84l7.87-4.43,4.92,7.87-8.86,4.92-3.94-8.37Zm-41.83-1.48v.49c-2.46,3.44-3.94,7.87-4.43,12.3l-5.41,2.95-.49-9.84,10.33-5.91Zm-10.83,3.94l-.98-10.33,8.86-5.41,1.97,9.84-9.84,5.91Zm81.69,6.4l-7.87,4.43-5.91-9.35,7.38-4.43,6.4,9.35Zm39.86,43.3c-1.97-.49-3.44-.98-5.41-1.48L28.54,249.99l123.02,102.36,3.94-20.67L28.54,249.99l125.98,8.86v-1.97l-126.96-8.86v180.11c.49-.49,1.48-.98,1.97-.98h.49l1.48,.49c1.97,.98,4.92,2.46,8.37,3.44l-4.43-1.97,9.35-5.41,.98,8.86,1.97,.49-.98-10.83,13.78-7.87,1.97,11.81-13.29,7.87,2.46,.49,11.32-6.4,1.48,7.87h1.97l-1.97-9.35,13.78-7.87,2.95,10.83-11.32,6.89h3.94l8.37-4.92,.98,3.44,1.97-.49-.98-3.94,12.3-7.38,2.46,6.89,1.97-.98-2.95-6.89,12.79-7.38,2.95,6.4c.49-.49,.98-.98,1.48-.98l-3.44-5.91,10.83-5.91,5.41,8.86c-.98-.98-1.97-1.48-2.95-1.97,10.83,8.37,61.02,42.32,105.31,.49l.49-.49v-98.42l-92.51,55.61,25.59,61.02Z"/><path class="cls-1" d="M435.51,325.77l-4.43-2.46,4.43-48.23v50.69Zm0,12.79l-5.41-2.95,.98-10.33,4.43,2.46v10.83Zm0,13.29l-6.4-3.94,.98-10.33,5.41,3.44v10.83Zm0,13.29l-7.87-4.43,.98-10.33,6.89,3.94v10.83Zm0,12.79l-8.86-4.92,.98-10.33,7.87,4.43v10.83Zm0,12.79l-9.84-5.91,.98-10.33,8.86,5.41v10.83Zm0,12.79l-10.83-6.4,.98-10.33,9.84,5.91v10.83Zm0,13.29l-11.81-6.89,.98-10.83,10.83,6.4v11.32Zm-12.79-20.67l-3.94-2.46v-1.48c0-3.94-.98-7.87-2.95-10.83l7.87,4.43-.98,10.33Zm-.98,12.79l-6.4-3.94c1.97-2.95,2.95-5.91,3.44-9.35l3.94,2.46-.98,10.83Zm-.98,12.79l-13.78-7.87v-.98c2.95-1.48,5.41-3.44,7.38-5.41l7.38,4.43-.98,9.84Zm-17.22-50.19l2.46-8.86,8.37,4.92-1.48,8.86c-2.95-2.46-5.91-3.94-9.35-4.92m-.98,32.48c-1.48,.98-2.95,1.48-4.92,1.48v3.44h-1.97v-3.44c-1.97,0-3.44-.49-5.41-1.48-1.97-1.48-3.44-4.43-2.95-6.89h4.92c0,.98,.49,1.97,.49,2.95,.49,.98,1.48,1.48,2.95,1.48v-7.87l-1.48-.49c-1.97-.49-3.44-1.48-4.92-2.95-.98-1.48-1.48-2.95-1.48-4.43,0-.98,0-1.97,.49-2.95,.49-.98,.98-1.48,1.48-2.46,.98-.98,1.97-1.48,2.95-1.97,.98,0,1.97-.49,2.95-.49v-2.46h1.97v2.46c1.48,0,3.44,.49,4.43,1.48,1.97,1.48,3.44,3.94,2.95,6.4h-4.92c0-.98,0-1.48-.49-2.46-.49-.98-1.48-1.48-2.46-1.48v6.89c1.97,.49,3.94,1.48,5.91,2.46,1.48,1.48,2.46,3.44,2.46,5.41,.49,3.44-.49,5.91-2.95,7.38m.49,22.14l-13.78-7.87,.98-3.44c1.97,.49,3.94,.98,5.91,.98,2.46,0,5.41-.49,7.87-1.48l.98,.49-1.97,11.32Zm-15.25-8.86l-11.32-6.4,1.97-4.43c2.46,3.44,6.4,6.4,10.83,7.87l-1.48,2.95Zm-3.94,12.3l-12.3-7.38,3.94-10.33,11.81,6.89-3.44,10.83Zm-13.78-8.37l-12.79-7.38,4.92-9.84,11.81,6.89-3.94,10.33Zm-14.27-7.87l-10.83-6.4,5.91-9.35,9.84,5.91-4.92,9.84Zm-12.3-7.38l-8.86-4.92,6.4-8.86,7.87,4.43-5.41,9.35Zm-6.89,10.83l-9.35-4.92,6.4-8.86,8.86,4.92-5.91,8.86Zm-.98,1.97c-3.44,2.46-6.89,4.43-10.83,6.4l-4.92-2.95,6.4-8.86,9.35,5.41Zm-21.16,10.83l4.43-6.4,3.94,2.46c-2.46,1.48-5.41,2.95-8.37,3.94m34.45-47.73l7.38,4.43-5.91,9.35-7.87-4.43,6.4-9.35Zm6.4-9.35l6.89,3.94-4.92,7.87-7.38-3.94,5.41-7.87Zm6.4-9.35l5.91,3.44-4.92,8.37-6.4-3.94,5.41-7.87Zm6.89-8.86l5.41,2.95-4.92,7.87-5.91-3.44,5.41-7.38Zm6.4-9.35l4.92,2.95-4.92,7.87-5.41-2.95,5.41-7.87Zm6.4-9.35l4.43,2.46-4.92,7.87-4.92-2.95,5.41-7.38Zm6.89-9.35l3.44,1.97-4.92,8.37-3.94-2.46,5.41-7.87Zm6.4-9.35l2.95,1.48-4.92,7.87-3.44-1.97,5.41-7.38Zm6.89-8.86l2.46,1.48-4.92,7.87-2.95-1.48,5.41-7.87Zm25.1-35.43l-22.14,35.43-2.46-1.48,24.6-33.95Zm-13.29,39.86l-2.95-1.97,17.72-33.95-14.76,35.92Zm4.92,2.95l-2.95-1.97,14.27-35.43-11.32,37.4Zm5.41,2.95l-3.94-1.97,11.81-39.37-7.87,41.34Zm1.48,.98l8.37-42.32-3.94,44.78-4.43-2.46Zm-1.97,11.81l1.97-9.84,4.43,2.46-.98,10.33-5.41-2.95Zm-2.46,11.81l1.97-9.84,5.41,3.44-.98,10.33-6.4-3.94Zm-2.46,12.3l1.97-9.84,6.89,3.94-.98,10.33-7.87-4.43Zm-1.97,11.32l1.97-9.84,7.87,4.43-.98,10.33-8.86-4.92Zm-.49,1.97l8.86,5.41-.98,10.33-9.84-5.91,1.97-9.84Zm-6.89-16.73l7.38,3.94-1.97,9.84-8.37-4.92,2.95-8.86Zm-10.83,4.43l3.44-8.86,5.91,3.44-2.95,9.35-6.4-3.94Zm-4.43,10.33l3.44-8.86,6.89,3.94-2.46,8.86-1.48-.49-6.4-3.44Zm-.49,1.97l2.95,1.48c-1.48,0-2.46,0-3.94,.49l.98-1.97Zm-8.86-7.38l4.43-8.37,6.89,3.94-3.44,8.86-7.87-4.43Zm-4.92,9.84l4.43-8.37,7.87,4.43-1.48,3.44c-1.97,.49-4.43,1.48-6.4,2.95l-4.43-2.46Zm-3.44,11.32l-1.97-.98,4.43-8.37,3.94,1.97c-2.46,1.97-4.92,4.92-6.4,7.38m-7.87,10.83l5.91,3.44c.49,2.46,1.48,5.41,2.95,7.87l-1.97,5.41-11.81-6.89,4.92-9.84Zm-1.48-.98l-4.92,9.84-9.84-5.41,5.91-9.35,8.86,4.92Zm4.92-9.84l-4.43,8.37-8.86-4.92,4.92-7.87,8.37,4.43Zm2.95,11.32l-4.92-2.95,4.43-8.37,1.97,.98c-.98,2.95-1.48,5.41-1.48,8.37,0,.49-.49,1.48-.49,1.97h.49Zm2.95-22.14l-4.92,8.86-7.87-4.92,4.92-8.37,7.87,4.43Zm4.92-9.84l-4.43,8.37-7.38-3.94,4.92-7.87,6.89,3.44Zm4.92-9.84l-4.43,8.37-6.4-3.94,4.92-8.37,5.91,3.94Zm4.92-9.84l-4.43,8.37-5.41-3.44,4.92-7.87,4.92,2.95Zm5.41-10.33l-4.43,8.37-4.92-2.95,4.92-8.37,4.43,2.95Zm5.41-9.84l-4.43,8.37-3.94-2.46,4.92-7.87,3.44,1.97Zm4.92-10.33l-4.43,8.37-2.95-1.48,4.92-7.87,2.46,.98Zm.98-1.48l-2.46-1.48,18.7-29.53-16.24,31Zm.49,13.29l-3.94-2.46,4.43-8.37,3.44,1.97-3.94,8.86Zm5.41,2.95l-3.94-2.46,3.44-8.86,3.44,1.97-2.95,9.35Zm1.48,.98l2.95-8.86,3.94,2.46-1.97,9.84-4.92-3.44Zm-3.44,11.32l2.95-9.35,4.92,2.95-1.97,9.84-5.91-3.44Zm-.49,1.48l5.91,3.44-1.97,9.84-6.89-3.94,2.95-9.35Zm-6.4-3.44l4.92,2.95-2.95,9.35-5.91-3.44,3.94-8.86Zm3.94-10.83l3.94,2.46-2.95,9.35-4.92-2.95,3.94-8.86Zm-4.92,7.87l-4.92-2.95,4.43-8.37,3.94,2.46-3.44,8.86Zm-4.92,12.3l-3.44,8.86-6.89-3.94,4.43-8.37,5.91,3.44Zm-5.41-4.92l4.43-8.37,4.92,2.95-3.44,8.86-5.91-3.44Zm-138.28-51.18h-45.77v-27.56h45.77v27.56Zm182.57-40.84h0l-126.96,8.86v-3.44h-33.46v-9.84h-41.83v-90.05h-7.87v90.05h-40.35v9.84h-33.46v7.38h33.46v28.54h-22.64l-8.86,62.99,75.29-45.27,77.26,45.27-8.37-62.99h-22.64v-28.54h33.46v-2.46l125.48-8.86-126.47,81.69,3.44,20.67,123.02-102.36-128.93,181.58c-1.97,.49-3.94,.98-5.91,1.48l24.6-63.48-92.51-53.64v98.42h.49l.49,.49c44.29,41.34,94.48,7.87,105.31-.49l-1.48,.98,4.43-7.38,10.33,5.91-2.95,5.91,1.48,.98,3.44-5.91,12.79,7.38-2.95,6.89,1.48,.49,2.46-6.4,12.79,7.38-.49,4.43,1.97,.49,.98-3.44,7.38,4.43h3.94l-10.83-6.4,3.44-10.83,13.78,7.87-1.97,8.86h1.97l1.48-7.87,10.33,5.91,2.46-.49-12.79-7.38,2.46-11.32,13.78,7.87-.98,9.84,1.97-.49,.98-8.37,8.86,4.92,1.97-.98-10.33-5.91,.49-10.83,12.3,6.89v8.37c.49,0,.49-.49,.98-.49h.49c1.48,0,2.46,.98,2.46,2.46l-.98-179.62Z"/><path class="cls-1" d="M392.69,385.8c0,.98,.49,1.97,.98,2.46s1.48,.49,1.97,.98v-6.4c-.98,0-1.48,.49-2.46,.98,0,.49-.49,.98-.49,1.97"/><path class="cls-1" d="M397.61,394.66v6.89c.49,0,1.48,0,1.97-.49,.98-.49,1.48-1.97,.98-2.95,0-.98-.49-1.97-.98-2.46-.49-.49-.98-.98-1.97-.98"/><path class="cls-1" d="M72.83,395.15v6.89c.49,0,1.48-.49,1.97-.49,.98-.49,.98-1.97,.98-2.95s-.49-1.97-.98-2.46-.98-.49-1.97-.98"/><path class="cls-1" d="M67.91,386.3c0,.98,.49,1.97,.98,2.46,.49,.49,.98,.49,1.97,.98v-6.4c-.98,0-1.48,.49-2.46,.98,0,.49-.49,1.48-.49,1.97"/><path class="cls-3" d="M436,490.13h-.49l-.98,.49c-12.79,6.4-53.15,22.14-89.56-12.79-.49-.49-1.48-.98-1.97-1.48-.98,0-1.48,.49-1.97,.98-10.83,8.37-61.02,42.32-105.31,.49l-.49-.49c-.49-.49-.98-.98-1.97-.98-.49,0-1.48,.49-1.48,.98l-.98,.49c-44.29,41.83-94.48,7.87-105.31-.49-.49-.49-.98-.98-1.97-.98s-1.48,.49-1.97,.98c-36.42,34.94-76.77,19.19-89.56,12.79l-1.48-.49h-1.48c-1.48,0-2.46,.98-2.46,2.46v17.72c0,.49,.49,1.48,.49,1.97,42.32,36.91,82.18,2.46,91.53-6.89q.49-.49,.98-.98c.49,0,.49-.49,.98-.49s1.48,.49,1.97,.98c47.73,45.77,97.93,8.86,108.26,0l.98-.98c.49,0,.49-.49,.98-.49s.49,0,.98,.49l.98,.98c10.33,8.86,60.53,45.77,108.26,0,.49-.49,.98-.49,1.48-.49s.98,0,1.48,.49c.49,0,.49,.49,.49,.49,9.35,9.35,49.21,43.8,91.53,6.89,.49-.49,.49-.98,.98-1.97v-17.72c0-.49-.98-1.97-2.95-1.97q.49,0,0,0"/><path class="cls-3" d="M436,426.65h-.49l-.98,.49c-12.79,6.4-53.15,22.14-89.56-12.79-.49-.49-1.48-1.48-1.97-.98-.98,0-1.48,.49-1.97,.98-10.83,8.37-61.02,42.32-105.31,.49l-.98-.49c-.49-.49-.98-.98-1.97-.98-.49,0-1.48,.49-1.48,.98l-.98,.49c-44.29,41.83-94.48,7.87-105.31-.49-.49-.49-.98-.98-1.97-.98s-1.48,.49-1.97,.98c-36.42,34.45-76.77,19.19-89.56,12.79l-1.97-.49h-.49c-1.48,0-2.46,.98-2.46,2.46v17.72c0,.49,.49,1.48,.49,1.97,42.32,36.91,82.18,2.46,91.53-6.89l.98-.98q.49-.49,.98-.49c.49,0,1.48,.49,1.97,.98,47.73,45.77,97.93,8.86,108.26,0l.98-.98c.49,0,.49-.49,.98-.49s.49,0,.98,.49l.98,.98c10.33,8.86,60.53,45.77,107.77,0,.49-.49,.98-.49,1.48-.98,.49,0,.98,0,1.48,.49,.49,0,.49,.49,.49,.49,9.35,9.35,49.21,43.8,91.53,6.89,.49-.49,.98-.98,.98-1.97v-17.72c0-.98-.98-1.97-2.46-1.97"/></g></svg>