<?xml version="1.0" encoding="UTF-8"?><svg id="Capa_1" xmlns="http://www.w3.org/2000/svg" viewBox="0 0 467 568.37"><defs><style>.cls-1{fill:#00b3dc;}.cls-2{fill:#fff;}</style></defs><path class="cls-1" d="M4.92,80.7H461.59V4.92H4.92V80.7Zm462.08,4.92H0V0H466.51V85.62h.49Z"/><polygon class="cls-1" points="16.73 17.72 38.88 17.72 38.88 24.6 32.48 24.6 32.48 67.91 23.62 67.91 23.62 24.6 16.73 24.6 16.73 17.72"/><path class="cls-1" d="M49.21,52.16h6.89l-3.44-20.18-3.44,20.18Zm-10.33,15.75l9.35-50.19h9.35l9.84,50.19h-8.86l-1.48-9.35h-8.86l-1.48,9.35h-7.87Z"/><path class="cls-1" d="M80.21,24.6v15.75h2.95c2.95,0,3.94-1.48,3.94-3.94v-7.38c0-2.95-1.48-3.94-3.94-3.94h-2.95v-.49Zm0,20.67v23.13h-8.37V17.72h12.3c8.37,0,11.81,4.43,11.81,11.32v6.4c0,5.41-1.97,8.37-6.89,9.84l7.87,22.64h-8.86l-7.87-22.64Z"/><path class="cls-1" d="M113.67,41.34h11.81v26.57h-5.91v-5.41c-.98,3.94-3.44,5.91-7.87,5.91-7.38,0-10.33-5.91-10.33-13.29V31c0-7.87,3.94-13.29,12.79-13.29,9.35,0,11.81,5.41,11.81,12.79v4.43h-7.87v-4.92c0-2.95-.98-4.92-4.43-4.92-2.95,0-4.43,1.97-4.43,4.92v27.07c0,2.95,1.48,4.92,3.94,4.92,2.95,0,3.94-1.48,3.94-4.92v-9.35h-3.94v-6.4h.49Z"/><polygon class="cls-1" points="132.37 17.72 152.55 17.72 152.55 24.6 140.74 24.6 140.74 38.88 149.11 38.88 149.11 45.77 140.74 45.77 140.74 61.02 152.55 61.02 152.55 67.91 132.37 67.91 132.37 17.72"/><polygon class="cls-1" points="156.49 17.72 178.63 17.72 178.63 24.6 171.74 24.6 171.74 67.91 163.38 67.91 163.38 24.6 156.49 24.6 156.49 17.72"/><path class="cls-1" d="M387.77,56.59v-8.86c0-3.44-.98-4.92-3.94-4.92-2.46,0-3.94,1.97-3.94,4.43v9.35c0,2.95,.98,4.92,3.94,4.92s3.94-1.48,3.94-4.92m-16.24-1.48V30.51c0-7.87,3.44-13.29,12.3-13.29,9.35,0,11.81,5.41,11.81,12.79v2.46h-7.87v-3.44c0-2.95-.98-4.92-3.94-4.92s-3.94,1.97-3.94,4.92v10.83c1.48-2.46,3.44-3.94,6.89-3.94,5.91,0,9.35,3.94,9.35,12.3v7.38c0,7.87-3.44,12.79-12.3,12.79s-12.3-5.41-12.3-13.29"/><path class="cls-1" d="M409.92,36.91c3.44,0,5.91,2.95,5.91,5.91,0,3.44-2.95,5.91-5.91,5.91-3.44,0-5.91-2.95-5.91-5.91s2.95-5.91,5.91-5.91"/><path class="cls-1" d="M429.6,53.15h7.38v-20.67l-7.38,20.67Zm-7.38,1.48l14.76-36.91h8.37V53.15h3.44v6.4h-3.44v8.37h-7.87v-8.37h-14.76v-4.92h-.49Z"/><g><rect class="cls-1" x="0" y="101.86" width="466.51" height="466.51"/><path class="cls-2" d="M321.34,454.21h0c-1.97,1.97,0,0,0,0"/><polygon class="cls-2" points="203.24 271.15 203.24 386.3 52.65 386.3 52.65 271.15 46.75 271.15 46.75 391.71 208.65 391.71 208.65 271.15 203.24 271.15"/><path class="cls-2" d="M61.51,327.74h0c29.03,27.07,59.54,4.43,65.94-.49l.49-.49h.98l.49,.49c6.89,4.92,36.91,27.07,65.94,.98l.98-.98c.49,0,.49-.49,.49-.98v-14.27c0-.98-.49-1.48-1.48-1.48h-.49l-.49,.49c-8.86,6.4-37.89,23.62-63.97-.49l-.49-.49c-.49-.49-1.48-.49-1.97,0l-.49,.49c-25.59,23.62-54.13,7.38-63.48,.98l-.49-.49h-.49c-.49,0-1.48,.49-1.48,.98v14.27c-.49,.49-.49,.98,0,1.48"/><path class="cls-2" d="M61.51,360.21h0c29.03,27.07,59.54,4.92,65.94-.49l.49-.49h.98l.49,.49c6.4,5.41,36.42,27.56,65.45,1.48l.98-.98c.49,0,.49-.49,.49-.98v-14.27c0-.98-.49-1.48-1.48-1.48h-.49l-.49,.49c-8.86,6.4-37.89,23.62-63.97-.49l-.49-.49c-.49-.49-1.48-.49-1.97,0l-.49,.49c-25.59,23.62-54.13,7.38-63.48,.98l-.49-.49h-.49c-.49,0-1.48,.49-1.48,.98v14.27c0,.49,0,.98,.49,.98"/><path class="cls-2" d="M63.48,298.7c1.48,0,2.46-.98,2.46-2.46s-.98-2.46-2.46-2.46-2.46,.98-2.46,2.46,.98,2.46,2.46,2.46"/><path class="cls-2" d="M73.32,298.7c1.48,0,2.46-.98,2.46-2.46s-.98-2.46-2.46-2.46-2.46,.98-2.46,2.46,1.48,2.46,2.46,2.46"/><path class="cls-2" d="M83.66,298.7c.98,0,2.46-.98,2.46-1.97,0-1.48-.98-2.46-2.46-2.46s-2.46,.98-2.46,2.46c0,.98,.98,1.97,2.46,1.97"/><path class="cls-2" d="M93.99,298.7c1.48,0,2.46-.98,2.46-2.46s-.98-2.46-2.46-2.46-2.46,.98-2.46,2.46,.98,2.46,2.46,2.46c-.49,0,0,0,0,0"/><path class="cls-2" d="M103.83,298.7c1.48,0,2.46-.98,2.46-2.46s-.98-2.46-2.46-2.46-2.46,.98-2.46,2.46,.98,2.46,2.46,2.46"/><path class="cls-2" d="M114.17,298.7c.98,0,2.46-.98,2.46-1.97,0-1.48-.98-2.46-2.46-2.46s-2.46,.98-2.46,2.46c0,.98,.98,1.97,2.46,1.97"/><path class="cls-2" d="M124.01,298.7c.98,0,2.46-.98,2.46-1.97,0-1.48-.98-2.46-2.46-2.46s-2.46,.98-2.46,2.46c.49,.98,1.48,1.97,2.46,1.97"/><path class="cls-2" d="M134.34,298.7c1.48,0,2.46-.98,2.46-2.46s-.98-2.46-2.46-2.46-2.46,.98-2.46,2.46,.98,2.46,2.46,2.46"/><path class="cls-2" d="M144.18,298.7c1.48,0,2.46-.98,2.46-2.46s-.98-2.46-2.46-2.46-2.46,.98-2.46,2.46c.49,1.48,1.48,2.46,2.46,2.46"/><path class="cls-2" d="M154.52,298.7c.98,0,2.46-.98,2.46-1.97,0-1.48-.98-2.46-2.46-2.46s-2.46,.98-2.46,2.46c0,.98,.98,1.97,2.46,1.97"/><path class="cls-2" d="M164.36,298.7c1.48,0,2.46-.98,2.46-2.46s-.98-2.46-2.46-2.46-2.46,.98-2.46,2.46c.49,1.48,1.48,2.46,2.46,2.46"/><path class="cls-2" d="M174.69,298.7c1.48,0,2.46-.98,2.46-2.46s-.98-2.46-2.46-2.46-2.46,.98-2.46,2.46,.98,2.46,2.46,2.46"/><path class="cls-2" d="M184.54,298.7c.98,0,2.46-.98,2.46-1.97,0-1.48-.98-2.46-2.46-2.46s-2.46,.98-2.46,2.46c.49,.98,1.48,1.97,2.46,1.97"/><path class="cls-2" d="M194.87,298.7c1.48,0,2.46-.98,2.46-2.46s-.98-2.46-2.46-2.46-2.46,.98-2.46,2.46,.98,2.46,2.46,2.46"/><path class="cls-2" d="M68.89,290.83c1.48,0,2.46-.98,2.46-2.46s-.98-2.46-2.46-2.46c-.98,0-2.46,.98-2.46,1.97,.49,1.97,1.48,2.95,2.46,2.95"/><path class="cls-2" d="M79.23,290.83c1.48,0,2.46-.98,2.46-2.46s-.98-2.46-2.46-2.46-2.46,.98-2.46,2.46,.98,2.46,2.46,2.46"/><path class="cls-2" d="M89.07,290.83c1.48,0,2.46-.98,2.46-2.46,0-.98-.98-2.46-1.97-2.46-1.48,0-2.46,.98-2.46,2.46s.98,2.46,1.97,2.46"/><path class="cls-2" d="M99.4,290.83c1.48,0,2.46-.98,2.46-2.46s-.98-2.46-2.46-2.46c-.98,0-2.46,.98-2.46,1.97,0,1.97,.98,2.95,2.46,2.95"/><path class="cls-2" d="M109.25,290.83c1.48,0,2.46-.98,2.46-2.46s-.98-2.46-2.46-2.46-2.46,.98-2.46,2.46c.49,1.48,1.48,2.46,2.46,2.46"/><path class="cls-2" d="M119.58,290.83c1.48,0,2.46-.98,2.46-2.46,0-.98-.98-2.46-1.97-2.46-1.48,0-2.46,.98-2.46,2.46-.49,1.48,.49,2.46,1.97,2.46"/><path class="cls-2" d="M129.42,290.83c1.48,0,2.46-.98,2.46-2.46s-.98-2.46-2.46-2.46c-.98,0-2.46,.98-2.46,1.97,.49,1.97,1.48,2.95,2.46,2.95"/><path class="cls-2" d="M139.76,290.83c1.48,0,2.46-.98,2.46-2.46s-.98-2.46-2.46-2.46c-.98,0-2.46,.98-2.46,1.97,0,1.97,.98,2.95,2.46,2.95"/><path class="cls-2" d="M150.09,290.83c1.48,0,2.46-.98,2.46-2.46,0-.98-.98-2.46-1.97-2.46-1.48,0-2.46,.98-2.46,2.46-.49,1.48,.49,2.46,1.97,2.46"/><path class="cls-2" d="M159.93,290.83c1.48,0,2.46-.98,2.46-2.46,0-.98-.98-2.46-1.97-2.46-1.48,0-2.46,.98-2.46,2.46-.49,1.48,.49,2.46,1.97,2.46"/><path class="cls-2" d="M170.27,290.83c1.48,0,2.46-.98,2.46-2.46s-.98-2.46-2.46-2.46c-.98,0-2.46,.98-2.46,1.97,0,1.97,.98,2.95,2.46,2.95"/><path class="cls-2" d="M180.11,290.83c1.48,0,2.46-.98,2.46-2.46s-.98-2.46-2.46-2.46-2.46,.98-2.46,2.46c.49,1.48,1.48,2.46,2.46,2.46"/><path class="cls-2" d="M190.44,290.83c1.48,0,2.46-.98,2.46-2.46,0-.98-.98-2.46-1.97-2.46-1.48,0-2.46,.98-2.46,2.46-.49,1.48,.49,2.46,1.97,2.46"/><path class="cls-2" d="M63.97,282.96c1.48,0,2.46-.98,2.46-2.46s-.98-2.46-2.46-2.46-2.46,.98-2.46,2.46,.98,2.46,2.46,2.46"/><path class="cls-2" d="M74.31,282.96c1.48,0,2.46-.98,2.46-2.46,0-.98-.98-2.46-1.97-2.46-1.48,0-2.46,.98-2.46,2.46-.49,1.48,.49,2.46,1.97,2.46"/><path class="cls-2" d="M84.15,282.96c1.48,0,2.46-.98,2.46-2.46s-.98-2.46-2.46-2.46c-.98,0-2.46,.98-2.46,1.97,.49,1.97,1.48,2.95,2.46,2.95"/><path class="cls-2" d="M94.48,282.96c1.48,0,2.46-.98,2.46-2.46s-.98-2.46-2.46-2.46-2.46,.98-2.46,2.46,.98,2.46,2.46,2.46"/><path class="cls-2" d="M104.32,282.96c1.48,0,2.46-.98,2.46-2.46,0-.98-.98-2.46-1.97-2.46-1.48,0-2.46,.98-2.46,2.46s.98,2.46,1.97,2.46"/><path class="cls-2" d="M114.66,282.96c1.48,0,2.46-.98,2.46-2.46s-.98-2.46-2.46-2.46c-.98,0-2.46,.98-2.46,1.97,0,1.97,.98,2.95,2.46,2.95"/><path class="cls-2" d="M124.5,282.96c1.48,0,2.46-.98,2.46-2.46s-.98-2.46-2.46-2.46c-.98,0-2.46,.98-2.46,1.97,.49,1.97,1.48,2.95,2.46,2.95"/><path class="cls-2" d="M134.83,282.96c1.48,0,2.46-.98,2.46-2.46,0-.98-.98-2.46-1.97-2.46-1.48,0-2.46,.98-2.46,2.46-.49,1.48,.49,2.46,1.97,2.46"/><path class="cls-2" d="M144.68,282.96c1.48,0,2.46-.98,2.46-2.46s-.98-2.46-2.46-2.46c-.98,0-2.46,.98-2.46,1.97,.49,1.97,1.48,2.95,2.46,2.95"/><path class="cls-2" d="M155.01,282.96c1.48,0,2.46-.98,2.46-2.46s-.98-2.46-2.46-2.46c-.98,0-2.46,.98-2.46,1.97,0,1.97,.98,2.95,2.46,2.95"/><path class="cls-2" d="M164.85,282.96c1.48,0,2.46-.98,2.46-2.46,0-.98-.98-2.46-1.97-2.46-1.48,0-2.46,.98-2.46,2.46s.98,2.46,1.97,2.46"/><path class="cls-2" d="M175.19,282.96c1.48,0,2.46-.98,2.46-2.46,0-.98-.98-2.46-1.97-2.46-1.48,0-2.46,.98-2.46,2.46-.49,1.48,.49,2.46,1.97,2.46"/><path class="cls-2" d="M185.03,282.96c1.48,0,2.46-.98,2.46-2.46s-.98-2.46-2.46-2.46c-.98,0-2.46,.98-2.46,1.97,.49,1.97,1.48,2.95,2.46,2.95"/><path class="cls-2" d="M195.36,282.96c1.48,0,2.46-.98,2.46-2.46s-.98-2.46-2.46-2.46-2.46,.98-2.46,2.46,.98,2.46,2.46,2.46"/><path class="cls-2" d="M411.39,294.77c-3.44-1.48-7.87-.98-11.32,.49-14.76,5.91-24.6,7.87-39.86,3.44-9.84-2.95-18.7-9.35-29.53-5.41-6.89,2.95-14.27,4.43-21.65,4.92l-4.43-23.62h110.23l-3.44,20.18Zm-37.4,70.86c-8.37,6.4-19.68,6.4-28.05,0-6.4-6.89-7.87-17.22-2.46-25.59,1.97-3.44,15.26-24.11,16.73-25.59,.98,1.48,14.76,22.14,16.73,25.59,4.92,7.87,3.94,18.7-2.95,25.59m45.77-95.96q-.49-.49-.98-.49h-118.1c-.49,0-.98,0-.98,.49s-.49,.49-.49,.98l19.68,119.58c0,.49,.49,.98,1.48,.98h79.72c.49,0,1.48-.49,1.48-.98l18.7-119.58c-.49,0-.49-.49-.49-.98"/><path class="cls-2" d="M351.36,463.06l-13.78-10.83c-.98-.98-2.95-1.48-3.94,0-43.3,51.67-118.1,57.08-171.25,14.76-1.48-1.48-2.95-2.46-4.43-3.94l15.75-9.84c1.48-.98-.49-2.46-.49-2.46l-53.15-26.57c-1.97-.98-1.97,0-1.97,.98v.49l-.49,60.53c0,.49,.49,1.97,1.97,.98l17.72-10.83c3.44,3.44,6.89,6.4,10.83,9.35,62.99,50.69,152.06,43.8,204.22-17.22l.49-.49c0-1.48,0-3.44-1.48-4.92"/><path class="cls-2" d="M117.61,214.06l14.27,10.33c.98,.98,2.95,.98,3.94,0v-.49c40.35-54.13,114.66-63.97,169.77-24.6,1.48,.98,3.44,2.46,4.92,3.94l-14.76,10.83c-1.48,.98,.98,2.46,.98,2.46l54.62,23.13c1.97,.98,1.97,0,1.97-.98v-.49l-3.44-60.53c0-.49-.49-1.97-1.97-.98l-16.73,11.81c-3.44-2.95-7.38-5.91-11.32-8.86-65.45-46.75-154.03-34.45-202.25,29.53l-.49,.49c-1.48,1.48-.98,3.44,.49,4.43"/></g></svg>