<?xml version="1.0" encoding="UTF-8"?><svg id="Capa_1" xmlns="http://www.w3.org/2000/svg" viewBox="0 0 467 568.37"><defs><style>.cls-1{fill:#f49400;}.cls-2{fill:#fff;}</style></defs><path class="cls-1" d="M4.92,80.7H461.59V4.92H4.92V80.7Zm462.08,4.92H0V0H466.51V85.62h.49Z"/><polygon class="cls-1" points="16.73 17.72 38.88 17.72 38.88 24.6 32.48 24.6 32.48 67.91 23.62 67.91 23.62 24.6 16.73 24.6 16.73 17.72"/><path class="cls-1" d="M49.21,52.16h6.89l-3.44-20.18-3.44,20.18Zm-10.33,15.75l9.35-50.19h9.35l9.84,50.19h-8.86l-1.48-9.35h-8.86l-1.48,9.35h-7.87Z"/><path class="cls-1" d="M80.21,24.6v15.75h2.95c2.95,0,3.94-1.48,3.94-3.94v-7.38c0-2.95-1.48-3.94-3.94-3.94h-2.95v-.49Zm0,20.18v23.13h-8.37V17.72h12.3c8.37,0,11.81,4.43,11.81,11.32v6.4c0,5.41-1.97,8.37-6.89,9.84l7.87,22.64h-8.86l-7.87-23.13Z"/><path class="cls-1" d="M113.67,41.34h11.81v26.57h-5.91v-5.41c-.98,3.94-3.44,5.91-7.87,5.91-7.38,0-10.33-5.91-10.33-13.29V31c0-7.87,3.94-13.29,12.79-13.29,9.35,0,11.81,5.41,11.81,12.79v4.43h-7.87v-4.92c0-2.95-.98-4.92-4.43-4.92-2.95,0-4.43,1.97-4.43,4.92v27.07c0,2.95,1.48,4.92,3.94,4.92,2.95,0,3.94-1.48,3.94-4.92v-9.35h-3.94v-6.4h.49Z"/><polygon class="cls-1" points="132.37 17.72 152.55 17.72 152.55 24.6 140.74 24.6 140.74 38.88 149.11 38.88 149.11 45.77 140.74 45.77 140.74 61.02 152.55 61.02 152.55 67.91 132.37 67.91 132.37 17.72"/><polygon class="cls-1" points="156.49 17.72 178.63 17.72 178.63 24.6 171.74 24.6 171.74 67.91 163.38 67.91 163.38 24.6 156.49 24.6 156.49 17.72"/><polygon class="cls-1" points="376.95 17.72 376.95 67.91 368.58 67.91 368.58 29.53 362.68 35.92 362.68 27.07 370.55 18.21 376.95 18.21 376.95 17.72"/><polygon class="cls-1" points="397.12 17.72 397.12 67.91 388.76 67.91 388.76 29.53 382.85 35.43 382.85 27.07 390.72 18.21 397.12 18.21 397.12 17.72"/><path class="cls-1" d="M412.38,36.91c3.44,0,5.91,2.95,5.91,5.91,0,3.44-2.95,5.91-5.91,5.91-3.44,0-5.91-2.95-5.91-5.91-.49-2.95,2.46-5.91,5.91-5.91"/><path class="cls-1" d="M425.66,58.56c0-4.92,1.48-8.37,6.4-13.29l4.92-4.92c2.95-2.95,2.95-4.43,2.95-8.86v-3.44c0-2.95-1.48-3.94-2.95-3.94-1.97,0-3.44,.98-3.44,3.94v6.4h-7.87v-6.4c0-6.89,3.94-10.83,11.32-10.83s10.83,3.44,10.83,10.33v4.92c0,4.92-.98,7.87-5.41,12.79l-5.41,5.91c-1.97,2.46-3.44,3.94-3.44,7.87v2.46h13.78v6.89h-21.65v-9.84Z"/><g><rect class="cls-1" y="101.86" width="466.51" height="466.51"/><g><path class="cls-2" d="M354.8,419.27h20.18c2.46,0,3.94,1.97,3.94,3.94v47.24c0,2.46-1.97,3.94-3.94,3.94h-20.18c-2.46,0-3.94-1.97-3.94-3.94v-47.24c-.49-2.46,1.48-4.43,3.94-3.94m-31.99,2.95s-5.41,10.83-6.89,14.27c-1.48,3.44-2.95,2.95-2.95,2.95h-31.99c-7.38,0-6.89-.49-4.92-2.95,5.91-7.38,13.78-13.29,22.14-17.22h22.64c1.97-.49,2.46,.98,1.97,2.95m36.42-49.21h16.73c2.95,0,4.92-1.97,4.92-4.92s-1.97-4.92-4.92-4.92h-39.86c-2.95,0-4.92,1.97-4.92,4.92s1.97,4.92,4.92,4.92h12.79l-6.89,29.03h-19.19s-42.32,0-89.07,66.43c-15.75,20.18,16.24,20.18,16.24,20.18h183.06v-49.21h-39.37c-2.46,0-3.94-1.97-3.94-3.94v-11.81c0-2.46,1.97-3.94,3.94-3.94h39.37v-17.72h-80.7l6.89-29.03Z"/><path class="cls-2" d="M171.25,481.27c-9.84,0-18.7-7.38-20.18-17.22l20.18,.49c1.97,0,3.94-1.97,3.94-3.94,0-.98,0-1.48-.49-1.97l-10.83-17.22c10.83-3.94,22.64,.98,26.57,11.81,3.94,10.83-.98,22.64-11.81,26.57-1.97,.98-4.92,1.48-7.38,1.48m-28.54-54.62l-13.29,24.6-17.22-28.05,30.51,3.44Zm14.76,18.7l6.89,10.83h-13.29c.98-3.94,2.95-7.87,6.4-10.83m-4.43-6.89c-5.41,4.43-8.86,10.33-9.84,17.22h-6.89l12.79-23.62,3.94,6.4Zm-47.24,21.16c0,11.32-9.35,20.67-20.67,20.67s-20.67-9.35-20.67-20.67,9.35-20.67,20.67-20.67c1.97,0,3.44,.49,5.41,.98l-8.37,18.21c0,.49-.49,.98-.49,1.48,0,1.97,1.97,3.94,3.94,3.94,1.48,0,2.95-.98,3.44-2.46l8.37-17.72c4.92,3.94,7.87,10.33,8.37,16.24m65.45-27.56c-3.94,0-7.87,.98-11.32,2.46l-6.4-10.33,4.92-8.86,5.91,.49c2.46,0,3.44-.49,3.44-2.46v-1.48c0-1.48-.98-2.95-2.46-2.95h-21.65c-.98,0-1.48,.49-1.48,1.48v1.48c0,.98,.49,1.48,1.48,1.48l6.4,.49-2.46,4.92-37.89-3.94v-5.91c0-1.48-.98-2.46-1.97-3.44l-11.32-6.4c-.49-.49-1.48-.49-1.97-.49-1.97,0-3.94,1.97-3.94,3.94,0,1.48,.98,2.95,1.97,3.44l9.35,5.41v4.92l-7.38,16.24c-2.95-.98-5.91-1.48-8.86-1.48-15.75,0-28.54,12.79-28.54,28.54s12.79,28.54,28.54,28.54,28.54-12.79,28.54-28.54c0-9.35-4.43-18.21-12.3-23.62l4.43-9.35,21.16,34.45c.49,.98,1.97,1.97,3.44,1.97l13.29,.49c1.97,15.75,16.24,26.57,31.49,25.1,15.75-1.97,26.57-16.24,25.1-31.49-1.97-14.27-13.78-25.1-28.54-25.1h-.98Z"/><path class="cls-2" d="M36.42,500.95H430.09c1.48,0,2.95,1.48,2.95,2.95v17.72c0,1.48-1.48,2.95-2.95,2.95H36.42c-1.48,0-2.95-1.48-2.95-2.95v-17.72c0-1.48,1.48-2.95,2.95-2.95"/><path class="cls-2" d="M197.82,241.62h-13.29c-1.48,0-2.46-.98-2.46-2.46v-47.73s-.49-1.97,2.46-1.97h7.38l7.87,36.42v12.79c.49,0,.49,2.95-1.97,2.95m-25.59,18.7c0,2.46-1.97,3.94-3.94,3.94h-14.76c-2.46,0-3.94-1.97-3.94-3.94v-66.43c0-2.46,1.97-3.94,3.94-3.94h14.76c2.46,0,3.94,1.97,3.94,3.94v66.43Zm-33.46-40.35c0,1.97-1.48,3.94-3.94,3.94h-51.67c-1.97,0-3.94-1.48-3.94-3.94v-26.57c0-1.97,1.97-3.94,3.94-3.94h51.67c1.97,0,3.94,1.48,3.94,3.94v26.57Zm68.4,5.91l-10.33-46.26c0-2.46-2.46-4.43-4.92-4.43l-77.26,.49H34.45v14.27h31.49c1.97,0,3.94,1.48,3.94,3.94v26.08c0,1.97-1.48,3.94-3.94,3.94h-31.49v53.15h60.53c-.49-1.97-.49-3.44-.49-5.41,.98-12.3,11.32-21.65,23.62-20.67,11.32,.98,19.68,9.35,20.67,20.67,0,1.97,0,3.94-.49,5.41h62c3.94,0,6.89-2.95,6.89-6.89v-44.29Z"/><path class="cls-2" d="M116.13,280.5c-5.41,0-9.35-3.94-9.35-9.35s3.94-9.35,9.35-9.35,9.35,3.94,9.35,9.35-4.43,9.35-9.35,9.35m0-27.56c-9.84,0-18.21,7.87-18.21,18.21s8.37,18.21,18.21,18.21,18.21-8.37,18.21-18.21-8.37-18.21-18.21-18.21"/><path class="cls-2" d="M414.84,146.64h-7.87q-.49,0-.49,.49v3.94h-25.1v44.29h25.59v93.5q0,.49,.49,.49h7.38q.49,0,.49-.49V147.14c0-.49-.49-.49-.49-.49"/><path class="cls-2" d="M274.1,198.32c5.41,0,9.84-4.43,9.84-9.35,0-3.44-1.97-6.89-4.92-8.37,.49-.49,.49-.98,.49-1.48,0-2.95-1.97-4.92-4.92-4.92s-4.92,1.97-4.92,4.92c0,.49,0,.98,.49,1.48-3.44,1.48-5.91,4.92-5.91,8.37,0,5.41,4.43,9.35,9.84,9.35"/><path class="cls-2" d="M301.66,233.25l-7.87-25.59s-2.95-7.38-9.35-7.38h-20.67c-6.4,0-9.35,7.38-9.35,7.38l-7.87,25.59s-.98,3.94,1.97,5.41v.49l-9.35,48.72c0,.98,.49,1.48,.98,1.97,.49,0,1.48-.49,1.48-.98l9.84-48.72v-.49c2.46-.49,3.44-3.44,3.44-3.44l6.4-21.65s.49-1.48,1.48-1.48,.98,1.97,.98,1.97l-11.32,40.35h10.33v29.03c0,2.95,2.46,4.92,4.92,4.92,2.95,0,4.92-2.46,4.92-4.92v-29.03h2.95v29.03c0,2.95,1.97,4.92,4.92,4.92s4.92-1.97,4.92-4.92v-29.03h10.33l-10.83-40.35s-.49-1.97,.98-1.97,1.48,1.48,1.48,1.48l6.4,21.65s.98,4.43,5.41,3.44c4.43-.98,2.46-6.4,2.46-6.4"/><path class="cls-2" d="M346.44,218.49c4.92,0,9.35-3.94,9.35-9.35s-4.43-8.86-9.35-8.86-9.35,3.94-9.35,9.35,3.94,8.86,9.35,8.86"/><path class="cls-2" d="M384.33,275.08l-3.94-7.38-8.86-18.21c-.98-1.48-2.46-2.46-4.43-2.46h-13.29v-16.24c0-4.92-1.48-7.87-4.92-8.86-1.97-.49-3.94-.49-5.91,0l-15.26,4.92h-.98c-.98,.49-1.48,.98-1.48,1.97l-4.43,12.3c-.49,1.97,.49,3.94,2.46,4.92,1.97,.49,3.94-.49,4.92-2.46l3.94-10.83,5.91-1.97v17.22c0,3.94,1.48,7.87,5.41,8.86l.98,.49h21.16l4.92,9.84v.49l1.97,3.44,1.97,3.44v.49l1.97,3.94c1.48,2.46,3.94,3.44,6.4,1.97,1.48-1.48,2.46-3.44,1.48-5.91"/><path class="cls-2" d="M356.28,264.26v.98c0,10.33-8.37,18.7-18.21,18.7-10.33,0-18.7-8.37-18.7-18.21,0-4.43,1.48-8.37,3.94-11.81l-4.92-3.44c-8.37,10.33-6.89,26.08,3.94,34.45,10.33,8.37,26.08,6.89,34.45-3.94,3.44-4.43,5.41-10.33,5.41-15.75v-.98h-5.91Z"/><path class="cls-2" d="M36.42,301.16H430.09c1.48,0,2.95,1.48,2.95,2.95v17.72c0,1.48-1.48,2.95-2.95,2.95H36.42c-1.48,0-2.95-1.48-2.95-2.95v-17.72c0-1.48,1.48-2.95,2.95-2.95"/></g></g></svg>