<?xml version="1.0" encoding="UTF-8"?><svg id="Capa_1" xmlns="http://www.w3.org/2000/svg" viewBox="0 0 467 568.37"><defs><style>.cls-1{fill:#00486e;}.cls-2{fill:#fff;}.cls-3{fill:#a0b6c4;}.cls-4{fill:#6d92a9;}</style></defs><path class="cls-1" d="M4.92,80.71H461.59V4.92H4.92V80.71Zm462.08,4.92H0V0H466.51V85.63h.5Z"/><polygon class="cls-1" points="16.73 17.72 38.88 17.72 38.88 24.61 32.48 24.61 32.48 67.91 23.62 67.91 23.62 24.61 16.73 24.61 16.73 17.72"/><path class="cls-1" d="M49.21,52.16h6.89l-3.44-20.18-3.45,20.18Zm-10.33,15.75l9.35-50.19h9.35l9.84,50.19h-8.86l-1.48-9.35h-8.86l-1.48,9.35h-7.87Z"/><path class="cls-1" d="M80.21,24.61v15.75h2.95c2.95,0,3.94-1.47,3.94-3.93v-7.38c0-2.96-1.48-3.94-3.94-3.94h-2.95v-.49Zm0,20.18v23.13h-8.37V17.72h12.3c8.37,0,11.81,4.43,11.81,11.32v6.39c0,5.41-1.97,8.37-6.89,9.84l7.87,22.64h-8.86l-7.87-23.13Z"/><path class="cls-1" d="M113.68,41.34h11.81v26.57h-5.91v-5.41c-.98,3.93-3.44,5.91-7.87,5.91-7.38,0-10.33-5.91-10.33-13.29V31.01c0-7.87,3.94-13.29,12.79-13.29,9.35,0,11.81,5.42,11.81,12.8v4.43h-7.87v-4.92c0-2.95-.98-4.92-4.43-4.92-2.95,0-4.43,1.97-4.43,4.92v27.07c0,2.96,1.48,4.92,3.94,4.92,2.95,0,3.94-1.47,3.94-4.92v-9.35h-3.94v-6.4h.49Z"/><polygon class="cls-1" points="132.38 17.72 152.55 17.72 152.55 24.61 140.74 24.61 140.74 38.88 149.11 38.88 149.11 45.77 140.74 45.77 140.74 61.02 152.55 61.02 152.55 67.91 132.38 67.91 132.38 17.72"/><polygon class="cls-1" points="156.49 17.72 178.63 17.72 178.63 24.61 171.74 24.61 171.74 67.91 163.38 67.91 163.38 24.61 156.49 24.61 156.49 17.72"/><g><rect class="cls-1" x="0" y="101.87" width="466.51" height="466.51"/><rect class="cls-2" x="374.49" y="433.05" width="9.84" height="2.46"/><rect class="cls-2" x="394.17" y="433.05" width="9.84" height="2.46"/><rect class="cls-2" x="118.6" y="433.05" width="9.84" height="2.46"/><rect class="cls-2" x="98.91" y="433.05" width="9.84" height="2.46"/><rect class="cls-2" x="394.17" y="363.17" width="9.84" height="2.46"/><rect class="cls-2" x="98.91" y="363.17" width="9.84" height="2.46"/><rect class="cls-2" x="374.49" y="363.17" width="9.84" height="2.46"/><rect class="cls-2" x="118.6" y="363.17" width="9.84" height="2.46"/><rect class="cls-2" x="236.7" y="293.29" width="9.84" height="2.46"/><rect class="cls-2" x="394.17" y="293.29" width="9.84" height="2.46"/><rect class="cls-2" x="98.91" y="293.29" width="9.84" height="2.46"/><rect class="cls-2" x="374.49" y="293.29" width="9.84" height="2.46"/><rect class="cls-2" x="355.79" y="433.05" width="9.84" height="2.46"/><rect class="cls-2" x="355.79" y="363.17" width="9.84" height="2.46"/><rect class="cls-2" x="355.79" y="293.29" width="9.84" height="2.46"/><rect class="cls-2" x="197.33" y="293.29" width="9.84" height="2.46"/><rect class="cls-2" x="177.65" y="293.29" width="9.84" height="2.46"/><rect class="cls-2" x="157.97" y="293.29" width="9.84" height="2.46"/><rect class="cls-2" x="138.28" y="293.29" width="9.84" height="2.46"/><rect class="cls-2" x="118.6" y="293.29" width="9.84" height="2.46"/><rect class="cls-2" x="256.39" y="293.29" width="9.84" height="2.46"/><rect class="cls-2" x="277.05" y="293.29" width="9.84" height="2.46"/><rect class="cls-2" x="98.91" y="223.41" width="9.84" height="2.46"/><rect class="cls-2" x="197.33" y="223.41" width="9.84" height="2.46"/><rect class="cls-2" x="236.7" y="223.41" width="9.84" height="2.46"/><rect class="cls-2" x="217.01" y="223.41" width="9.84" height="2.46"/><rect class="cls-2" x="177.65" y="223.41" width="9.84" height="2.46"/><rect class="cls-2" x="118.6" y="223.41" width="9.84" height="2.46"/><rect class="cls-2" x="138.28" y="223.41" width="9.84" height="2.46"/><rect class="cls-2" x="157.97" y="223.41" width="9.84" height="2.46"/><rect class="cls-2" x="276.07" y="223.41" width="9.84" height="2.46"/><rect class="cls-2" x="335.12" y="223.41" width="9.84" height="2.46"/><rect class="cls-2" x="315.44" y="223.41" width="9.84" height="2.46"/><rect class="cls-2" x="354.8" y="223.41" width="9.84" height="2.46"/><rect class="cls-2" x="256.39" y="223.41" width="9.84" height="2.46"/><rect class="cls-2" x="295.76" y="223.41" width="9.84" height="2.46"/><path class="cls-3" d="M342.5,283.45h-43.31c-1.48,0-2.95,.98-2.95,2.46v212.09l48.72,.49v-212.09c0-1.48-.98-2.95-2.46-2.95"/><path class="cls-4" d="M193.89,363.17h-42.81c-1.48,0-2.95,1.48-2.95,2.95v133.36h48.71v-133.36c0-1.48-1.47-2.95-2.95-2.95"/><path class="cls-2" d="M356.28,498h-85.63v-167.81c0-1.48-1.47-2.95-2.95-2.95h-42.81c-1.48,0-2.95,1.48-2.95,2.95v167.81H79.23v-62.5h9.84v-2.46h-9.84v-67.42h9.84v-2.46h-9.84v-17.22l132.87-40.35,69.87-45.77,96.45-22.64,.98,4.92,2.46,9.84v.49c0,.49,.98,.98,1.48,.98s.49,0,.49-.49l20.67-26.57v-1.48q0-.49-.49-.98h-.5l-30.51-13.29h-.98c-.5,0-.98,.98-.98,1.48v.49l2.46,9.84,1.48,5.41-94.97,22.14-70.37,45.77-131.39,39.86v-39.86h9.84v-1.97h-9.84v-67.42h9.84v-2.46h-9.84v-51.18h-10.83V508.83H405v-10.83h-48.71Z"/></g><g><polygon class="cls-1" points="348.69 17.92 348.69 68.08 340.34 68.08 340.34 29.72 334.43 35.62 334.43 27.26 342.3 18.41 348.69 18.41 348.69 17.92"/><polygon class="cls-1" points="354.6 17.92 375.74 17.92 375.74 25.79 364.93 68.08 356.57 68.08 367.87 24.8 355.09 24.8 355.09 17.92 354.6 17.92"/><path class="cls-1" d="M389.02,37.1c3.44,0,5.9,2.95,5.9,5.9,0,3.45-2.95,5.9-5.9,5.9-3.44,0-5.9-2.95-5.9-5.9s2.46-5.9,5.9-5.9"/><polygon class="cls-1" points="417.06 17.92 417.06 68.08 408.69 68.08 408.69 29.72 402.79 35.62 402.79 27.26 410.66 18.41 417.06 18.41 417.06 17.92"/><path class="cls-1" d="M432.3,29.23v8.85c0,3.44,.98,4.92,3.94,4.92,2.46,0,3.93-1.97,3.93-4.43v-9.34c0-2.95-.99-4.92-3.93-4.92s-3.94,1.97-3.94,4.92m16.23,1.48v24.1c0,7.87-3.44,13.28-12.29,13.28-9.35,0-11.81-4.92-11.81-12.29v-2.46h7.38v3.44c0,2.95,.99,4.92,3.93,4.92s4.43-1.97,4.43-4.92v-10.82c-1.48,2.46-3.45,3.93-6.89,3.93-5.9,0-9.34-3.93-9.34-12.29v-7.38c0-7.87,3.44-12.79,12.29-12.79s12.29,5.9,12.29,13.28"/></g></svg>