<?xml version="1.0" encoding="UTF-8"?><svg id="Capa_1" xmlns="http://www.w3.org/2000/svg" viewBox="0 0 467 568.37"><defs><style>.cls-1{fill:#fff;}.cls-2{fill:#21803f;}</style></defs><path class="cls-2" d="M4.92,80.7H461.59V4.92H4.92V80.7Zm462.08,4.92H0V0H466.51V85.62h.49Z"/><polygon class="cls-2" points="16.73 17.72 38.88 17.72 38.88 24.6 32.48 24.6 32.48 67.91 23.62 67.91 23.62 24.6 16.73 24.6 16.73 17.72"/><path class="cls-2" d="M49.21,52.16h6.89l-3.44-20.18-3.44,20.18Zm-10.33,15.75l9.35-50.19h9.35l9.84,50.19h-8.86l-1.48-9.35h-8.86l-1.48,9.35h-7.87Z"/><path class="cls-2" d="M80.21,24.6v15.75h2.95c2.95,0,3.94-1.48,3.94-3.94v-7.38c0-2.95-1.48-3.94-3.94-3.94h-2.95v-.49Zm0,20.18v23.13h-8.37V17.72h12.3c8.37,0,11.81,4.43,11.81,11.32v6.4c0,5.41-1.97,8.37-6.89,9.84l7.87,22.64h-8.86l-7.87-23.13Z"/><path class="cls-2" d="M113.67,41.34h11.81v26.57h-5.91v-5.41c-.98,3.94-3.44,5.91-7.87,5.91-7.38,0-10.33-5.91-10.33-13.29V31c0-7.87,3.94-13.29,12.79-13.29,9.35,0,11.81,5.41,11.81,12.79v4.43h-7.87v-4.92c0-2.95-.98-4.92-4.43-4.92-2.95,0-4.43,1.97-4.43,4.92v27.07c0,2.95,1.48,4.92,3.94,4.92,2.95,0,3.94-1.48,3.94-4.92v-9.35h-3.94v-6.4h.49Z"/><polygon class="cls-2" points="132.37 17.72 152.55 17.72 152.55 24.6 140.74 24.6 140.74 38.88 149.11 38.88 149.11 45.77 140.74 45.77 140.74 61.02 152.55 61.02 152.55 67.91 132.37 67.91 132.37 17.72"/><polygon class="cls-2" points="156.49 17.72 178.63 17.72 178.63 24.6 171.74 24.6 171.74 67.91 163.38 67.91 163.38 24.6 156.49 24.6 156.49 17.72"/><path class="cls-2" d="M432.06,45.27v15.75h3.94c2.95,0,3.94-1.48,3.94-3.94v-7.38c0-2.46-1.48-3.94-4.43-3.94h-3.44v-.49Zm0-6.4h2.95c2.95,0,3.94-1.48,3.94-3.94v-5.91c0-2.95-1.48-3.94-3.94-3.94h-2.95v13.78Zm-8.37-21.16h12.3c8.37,0,11.32,3.94,11.32,10.83v4.92c0,4.43-1.48,6.89-4.92,7.87,4.43,.98,6.4,3.94,6.4,8.37v6.4c0,6.89-2.95,10.83-11.81,10.83h-13.29V17.72Z"/><polygon class="cls-2" points="363.17 17.72 363.17 67.91 354.8 67.91 354.8 29.53 348.9 35.43 348.9 27.07 356.77 18.21 363.17 18.21 363.17 17.72"/><path class="cls-2" d="M393.19,28.54v4.43c0,4.43-2.46,6.89-5.91,8.37,4.43,.98,6.4,3.94,6.4,8.37v7.38c0,6.89-3.94,11.32-12.3,11.32s-11.81-4.92-11.81-12.3v-6.4h7.87v7.38c0,2.95,.98,4.92,3.94,4.92,2.46,0,3.94-1.97,3.94-4.43v-8.37c0-2.46-.98-3.94-3.94-3.94h-3.94v-6.4h2.95c2.95,0,4.43-1.48,4.43-3.94v-6.4c0-2.95-.98-4.43-3.44-4.43s-3.44,1.97-3.44,4.92v4.92h-7.87v-4.43c0-7.38,2.95-12.79,11.81-12.79,7.87,.49,11.32,4.92,11.32,11.81"/><polygon class="cls-2" points="404.01 32.48 404.01 53.15 414.84 42.81 404.01 32.48"/><g><rect class="cls-2" y="101.86" width="466.51" height="466.51"/><path class="cls-1" d="M234.24,415.33h189.95c1.48,0,2.95,1.48,2.95,2.95v5.91c0,1.48-1.48,2.95-2.95,2.95H234.24c-1.48,0-2.95-1.48-2.95-2.95v-5.91c0-1.48,1.48-2.95,2.95-2.95"/><path class="cls-1" d="M389.25,282.46c6.4,0,11.81-5.41,11.81-12.3,0-6.4-5.41-11.81-12.3-11.81-6.4,0-11.81,5.41-11.81,11.81,.49,6.89,5.91,12.3,12.3,12.3"/><path class="cls-1" d="M424.19,330.2l-10.33-32.48s-3.44-9.35-11.81-9.35h-26.08c-7.87,0-11.81,9.35-11.81,9.35l-10.33,32.48s-1.97,5.91,2.95,7.87c4.92,1.97,6.4-4.43,6.4-4.43l8.37-27.07s.49-1.97,1.97-1.48c1.48,.49,.98,2.46,.98,2.46l-13.78,50.69h13.29v36.42c0,3.44,2.95,6.4,6.4,6.4s6.4-2.95,6.4-6.4v-36.42h3.44v36.42c0,3.44,2.95,6.4,6.4,6.4s6.4-2.95,6.4-6.4v-36.42h13.29l-14.27-50.69s-.49-1.97,.98-2.46c1.48-.49,1.97,1.48,1.97,1.48l8.37,27.07s1.48,5.91,6.4,4.43c4.92-1.48,4.43-7.87,4.43-7.87"/><path class="cls-1" d="M264.75,277.54c0,6.4,5.41,11.81,11.81,11.81s11.81-5.41,11.81-11.81c0-4.43-2.46-8.37-5.91-10.33,.49-.49,.49-1.48,.49-1.97-.98-3.44-3.94-5.41-7.38-4.43-1.97,.49-3.94,2.46-4.43,4.43,0,.49,0,.98,.49,1.48-3.94,2.46-6.89,6.4-6.89,10.83"/><path class="cls-1" d="M300.18,300.67s-3.44-8.86-11.32-8.86h-24.6c-7.87,0-11.32,8.86-11.32,8.86l-9.84,31.49s-1.48,4.92,1.97,6.89l-.49,.49-11.32,59.54c0,.98,.49,1.97,1.48,1.97h.49c.98,0,1.48-.49,1.97-1.48l11.32-59.54v-.49c2.95-.49,4.43-4.43,4.43-4.43l7.87-26.57s.49-1.97,1.97-1.48c1.48,.49,.98,2.46,.98,2.46l-13.78,49.21h12.79v35.43c.49,3.44,3.44,5.91,6.4,5.41,2.95-.49,5.41-2.46,5.41-5.41v-34.94h3.44v35.43c.49,3.44,3.44,5.91,6.4,5.41,2.95-.49,5.41-2.46,5.41-5.41v-35.43h12.79l-13.78-49.21s-.49-1.97,.98-2.46c1.48-.49,1.97,1.48,1.97,1.48l7.87,26.57s1.48,5.91,6.4,3.94c4.92-1.97,3.44-7.38,3.44-7.38l-9.35-31.49Z"/><path class="cls-1" d="M352.83,341.02c-1.48-.98-3.44,0-4.43,1.48-1.48,2.95-3.44,5.91-5.41,8.37-.49,.98-1.48,1.48-2.95,1.48h-10.83c-.98,0-1.97-.49-2.95-1.48-1.48-1.48-5.41-8.86-5.91-8.86-.98-1.48-2.95-1.97-4.43-.98-.98,.49-1.48,1.48-1.48,2.46,0,.49,0,.98,.49,1.48l8.86,15.75c.49,.49,.49,1.48,.49,1.97v2.46c0,.98,0,1.97-.49,2.95l-3.94,16.73h4.43v12.3c.49,2.46,2.46,3.94,4.92,3.94,1.97,0,3.44-1.97,3.94-3.94v-12.3h2.46v12.3c.49,2.46,2.46,3.94,4.92,3.94,1.97,0,3.44-1.97,3.94-3.94v-12.3h4.92l-4.43-16.73c0-.49-.49-1.48-.49-1.97v-2.95c0-.49,0-1.48,.49-1.97l8.37-14.76,.98-1.48c.49-1.48,0-3.44-1.48-3.94"/><path class="cls-1" d="M333.64,347.42c4.92,0,8.86-3.94,8.86-8.86s-3.94-8.86-8.86-8.86-8.86,3.94-8.86,8.86,3.94,8.86,8.86,8.86"/><polygon class="cls-1" points="50.19 251.95 39.86 251.95 39.86 451.74 183.06 451.74 183.06 439.44 50.19 439.44 50.19 251.95"/><path class="cls-1" d="M186.5,288.86c-22.14,29.53-63.97,35.92-93.5,13.78-5.41-3.94-9.84-8.37-13.78-13.78l-.49-.49,.49-.49c22.14-29.53,63.97-35.43,93.5-13.78,5.41,3.94,9.84,8.37,13.78,13.78l.49,.49-.49,.49Zm.49,74.31c0,.49-.49,.49-.98,.49H80.21c-.49,0-.98-.49-.98-.49v-16.73c0-.49,.49-.98,.98-.98h105.31c.49,0,.98,.49,.98,.98v16.73h.49Zm0,29.53c0,.49-.49,.98-.98,.98H80.21c-.49,0-.98-.49-.98-.98v-16.73c0-.49,.49-.49,.98-.49h105.31c.49,0,.98,.49,.98,.49v16.73h.49Zm17.22-164.85H61.51v199.3H204.22V227.84Z"/><path class="cls-1" d="M115.64,275.08c.98,0,1.97-.49,2.46-.98,0-.49,.49-.98,.49-1.48,0,0-.49-.49-.98-.49s-.98,0-.98,.49-.98,1.48-1.48,1.97c-.49,.49,0,.49,.49,.49"/><path class="cls-1" d="M151.57,293.78c.49-.49-.49-1.48-1.48-1.48s-.98,.98-.49,.98c.49,.98,.98,.98,1.97,.49"/><path class="cls-1" d="M137.79,290.34c-.49,0-.98,.98-.49,.98,.49,.49,1.48,.49,1.97,0,.49,0-.98-.98-1.48-.98"/><path class="cls-1" d="M128.44,295.26c0,.49-.98,4.43-.49,4.92s1.48-3.44,1.97-3.94c1.48-2.46-.49-2.46-1.48-.98"/><path class="cls-1" d="M140.25,308.05c-.49,.49-5.41-2.46-9.35-1.97-1.97,0-3.44,.98-4.43,2.95,0,.49,0,.98,.49,.98,6.89,1.97,14.27,.49,20.18-3.94-.49-.49-1.48-.49-1.97-.49-2.95,0-4.43,1.97-4.92,2.46"/><path class="cls-1" d="M150.09,291.81c0-.49-.49-.98-.98-1.48-.49,0-.98,0-.98,.49s.49,.98,.49,.98h1.48Z"/><path class="cls-1" d="M126.96,299.69c0-.98,.49-1.48,.49-2.46s0-1.97,.98-2.95c.98-.98,.49-.49,.98-1.48,.49-.98-.49-.98-1.48-1.97-.98-.98-1.97-2.46-1.97-3.94,0-.98,.49,0,1.48,.98,.98,.98,1.48,1.97,2.46,1.48,.98-.49,2.46-.98,1.97-2.46-.49-1.48-3.94-3.44-3.94-3.94s.98,0,1.97,.49c.98,.49,2.46,.49,2.46,2.46,.49,2.95,3.94,1.48,5.91,3.94,.98,.98,1.48,0,1.97-.98,.49-.98-.49-1.48,.49-2.46,.49-.49,1.48-.49,1.97,0v.49c.49,.98,.98,1.97,1.48,3.44,.98,1.48,1.97,2.46,3.44,2.95,1.48,0-.49-2.46-.49-2.95,0-.98,.49-1.97,.98-2.46,.98,0,1.48-.49,2.46-.98,1.48-.98,0-.98,0-2.46s.98-.49,.98-.49c.49,.49,1.48,.98,1.97,.49,.49,0,.49-.49,.49-.49v-.98c-2.46-10.33-11.32-17.22-22.14-17.22-4.43,0-8.37,.98-12.3,3.44,2.46,0,7.87-.98,7.38,.98-.49,1.97,3.44,2.46,1.48,3.44-.98,.49-2.95,1.97-3.94,1.97-1.48-.98,2.95-1.97,1.97-2.46-.98-.49-2.46,0-3.94,.49-1.48,0-2.95,.49-4.43,.49-.98,.49-1.97,.98-1.97,1.97s2.95,1.48,3.44,1.48,.98,0,1.97-1.48c.98-1.48,1.97,0,1.97,0-.49,.49-.98,.98-1.48,1.48-.49,.49-1.48,.98-2.46,.49-.98-.49-2.46-.49-3.44,0,.98,.98,.49,.98,0,1.48-.49,0-.98,.49-.49,.49s0,.49,0,.98-.98,.49-.98,.49c-.98-.49-1.97,0-2.46,.49v.49c0,.98,.49,1.97,1.48,.98,.49-.49,2.46,0,3.94-1.48,1.48-1.48,1.48,0,1.48,.49s.98,2.46,1.48,1.97c.49-.49-.49-1.97,0-1.97s.49,1.48,.98,1.48,1.48-.49,1.48,.49-.49,.98-1.48,1.48c-.98,.49-3.44-.49-4.43-.98-.98-.49-2.46-.49-3.94-.98l-1.48,.49s0,.49-.98,1.48v2.46c0,2.95,.49,5.91,1.97,8.86,1.48,.49,.98,0,1.97,0s1.48-1.48,2.46-.49c.98,.98,.98,.49,1.48,1.97,0,.98,1.48-.98,1.48,.98,.49,2.95,.98,1.48,.98,1.97,0,1.48,0,3.94,.98,3.94s2.46-.49,2.95-.98c.49-.98,.98-1.97,1.48-2.95,0-1.97,.49-.98,.49-1.97"/><path class="cls-1" d="M153.53,285.42s.98,.98,.49,1.48c-1.97,2.46,.49,5.91,.98,5.91,.49-1.48,.49-2.95,.49-4.43v-1.48c-.49-.98-.98-1.48-1.97-1.48"/><path class="cls-1" d="M115.64,277.54c0-.49,1.97-.98,1.48-1.48-.49-.49-.98-.49-1.48-.49s-1.48,.49-1.97,.49c-.49,.98-.98,1.97-1.48,3.44h.49c.98,.49,1.97-.98,2.95-1.97"/><path class="cls-1" d="M153.53,294.27c-.49-.98-.98,.49-3.94,1.48-1.48,.49-2.95,.49-3.94,.98-1.97,.98-2.95,2.95-2.46,4.92,.98,1.97,.49,3.44,1.97,1.97,1.48-1.48,.49,0,.98,.49,.49,.49,.49-.98,1.48,0,0,0,.49,0,.49,.49,1.97-2.46,3.94-4.92,4.92-7.87,0-.49,0-.98-.49-1.48l.98-.98Z"/></g></svg>