<?xml version="1.0" encoding="UTF-8"?><svg id="Capa_1" xmlns="http://www.w3.org/2000/svg" viewBox="0 0 467 568.37"><defs><style>.cls-1{fill:#006da3;}.cls-2{fill:#fff;}</style></defs><path class="cls-1" d="M4.92,80.7H461.59V4.92H4.92V80.7Zm462.08,4.92H0V0H466.51V85.62h.49Z"/><polygon class="cls-1" points="16.73 17.72 38.88 17.72 38.88 24.6 32.48 24.6 32.48 67.91 23.62 67.91 23.62 24.6 16.73 24.6 16.73 17.72"/><path class="cls-1" d="M49.21,52.16h6.89l-3.44-20.18-3.44,20.18Zm-10.33,15.75l9.35-50.19h9.35l9.84,50.19h-8.86l-1.48-9.35h-8.86l-1.48,9.35h-7.87Z"/><path class="cls-1" d="M80.21,24.6v15.75h2.95c2.95,0,3.94-1.48,3.94-3.94v-7.38c0-2.95-1.48-3.94-3.94-3.94h-2.95v-.49Zm0,20.18v23.13h-8.37V17.72h12.3c8.37,0,11.81,4.43,11.81,11.32v6.4c0,5.41-1.97,8.37-6.89,9.84l7.87,22.64h-8.86l-7.87-23.13Z"/><path class="cls-1" d="M113.67,41.34h11.81v26.57h-5.91v-5.41c-.98,3.94-3.44,5.91-7.87,5.91-7.38,0-10.33-5.91-10.33-13.29V31c0-7.87,3.94-13.29,12.79-13.29,9.35,0,11.81,5.41,11.81,12.79v4.43h-7.87v-4.92c0-2.95-.98-4.92-4.43-4.92-2.95,0-4.43,1.97-4.43,4.92v27.07c0,2.95,1.48,4.92,3.94,4.92,2.95,0,3.94-1.48,3.94-4.92v-9.35h-3.94v-6.4h.49Z"/><polygon class="cls-1" points="132.37 17.72 152.55 17.72 152.55 24.6 140.74 24.6 140.74 38.88 149.11 38.88 149.11 45.77 140.74 45.77 140.74 61.02 152.55 61.02 152.55 67.91 132.37 67.91 132.37 17.72"/><polygon class="cls-1" points="156.49 17.72 178.63 17.72 178.63 24.6 171.74 24.6 171.74 67.91 163.38 67.91 163.38 24.6 156.49 24.6 156.49 17.72"/><path class="cls-1" d="M431.08,52.16h6.89l-3.44-20.18-3.44,20.18Zm-10.33,15.75l9.35-50.19h9.35l9.35,50.19h-8.86l-1.48-9.35h-8.86l-1.48,9.35h-7.38Z"/><polygon class="cls-1" points="361.69 17.72 361.69 67.91 353.33 67.91 353.33 29.53 347.42 35.43 347.42 27.07 355.29 18.21 361.69 18.21 361.69 17.72"/><path class="cls-1" d="M385.31,56.59v-8.86c0-3.44-.98-4.92-3.94-4.92-2.46,0-3.94,1.97-3.94,4.43v9.35c0,2.95,.98,4.92,3.94,4.92,2.46,0,3.94-1.97,3.94-4.92m-16.24-1.48V30.51c0-7.87,3.44-13.29,12.3-13.29,9.35,0,11.81,5.41,11.81,12.79v2.46h-7.87v-3.44c0-2.95-.98-4.92-3.94-4.92s-3.94,1.97-3.94,4.92v10.83c1.48-2.46,3.44-3.94,6.89-3.94,5.91,0,9.35,3.94,9.35,12.3v7.38c0,7.87-3.44,12.79-12.3,12.79-9.35,0-12.3-5.41-12.3-13.29"/><polygon class="cls-1" points="404.01 32.48 404.01 53.15 414.84 42.81 404.01 32.48"/><g><rect class="cls-1" x="0" y="101.86" width="466.51" height="466.51"/><path class="cls-2" d="M361.2,404.01c0,6.4,5.41,11.81,11.81,11.32,6.4,0,11.81-5.41,11.32-11.81,0-6.4-5.41-11.32-11.81-11.32-5.91,0-11.32,5.41-11.32,11.81"/><path class="cls-2" d="M386.79,420.25h-27.56c-7.87,.98-14.27,7.38-14.27,15.75v32.48c.49,2.46,2.46,4.43,4.92,3.94,1.97,0,3.94-1.97,3.94-3.94v-28.05c0-.98,.49-2.46,1.97-2.46s1.48,1.48,1.48,2.46v83.66c-.49,3.44,2.46,6.89,5.91,6.89,3.44,.49,6.89-2.46,6.89-5.91v-49.21c0-.98,.49-1.97,1.48-1.97h.49c.98,0,1.97,.98,1.97,1.97v48.23c0,3.44,2.95,6.4,6.4,6.4s6.4-2.95,6.4-6.4v-83.66c0-.98,.49-2.46,1.48-2.46s1.97,1.48,1.97,2.46v28.05c0,2.46,1.97,4.43,4.43,4.43s4.43-1.97,4.43-4.43v-32.48c1.97-8.37-4.43-15.26-12.3-15.75"/><path class="cls-2" d="M263.76,410.41c0,5.91,4.92,11.32,10.83,11.32s11.32-4.92,11.32-10.83-4.92-11.32-10.83-11.32c-6.4-.49-11.32,4.43-11.32,10.83"/><path class="cls-2" d="M287.88,441.41c1.48-.49,1.97,1.48,1.97,1.48l7.38,25.1s1.48,5.41,5.91,3.94c4.43-1.48,2.95-6.89,2.95-6.89l-9.35-30.02s-2.95-8.86-10.33-8.86h-23.62c-7.38,0-10.83,8.86-10.83,8.86l-9.35,30.02s-1.48,5.41,2.95,6.89c4.43,1.48,5.91-3.94,5.91-3.94l7.38-25.1s.49-1.97,1.97-1.48c1.48,.49,.98,2.46,.98,2.46l-12.79,46.75h11.81v33.46c0,2.95,2.46,5.91,5.91,5.91,2.95,0,5.91-2.46,5.91-5.91v-33.46h3.44v33.46c0,2.95,2.46,5.91,5.91,5.91,2.95,0,5.91-2.46,5.91-5.91v-33.46h11.81l-12.79-46.75c0,.49-.49-1.97,.98-2.46"/><path class="cls-2" d="M197.33,409.92c0,5.91,4.92,10.83,10.83,10.83s10.83-4.92,10.83-10.83-4.92-10.83-10.83-10.83-10.83,4.92-10.83,10.83"/><path class="cls-2" d="M230.79,435.01s-3.44-8.37-10.83-8.37h-23.13c-7.38,0-10.83,8.86-10.83,8.86l-9.35,30.02s-1.48,5.41,2.95,6.89c4.43,1.48,5.91-3.94,5.91-3.94l7.38-25.1s.49-1.97,1.97-1.48c1.48,.49,.98,2.46,.98,2.46l-12.79,46.75h12.3v33.46c0,2.95,2.46,5.91,5.91,5.91,2.95,0,5.91-2.46,5.91-5.91v-33.95h2.95v33.46c0,2.95,2.46,5.91,5.91,5.91,2.95,0,5.91-2.46,5.91-5.91v-33.46h11.81l-12.79-46.75s-.49-1.97,.98-2.46c1.48-.49,1.97,1.48,1.97,1.48l7.38,25.1s1.48,5.41,5.91,3.94c4.43-1.48,2.95-6.89,2.95-6.89l-9.35-30.02Z"/><path class="cls-2" d="M102.36,416.81c6.4,0,11.81-4.92,11.81-11.32s-4.92-11.81-11.32-11.81-11.81,4.92-11.81,11.32c-.49,6.89,4.92,11.81,11.32,11.81"/><path class="cls-2" d="M115.64,421.73h-27.07c-7.87,.49-13.78,7.38-14.27,15.26v31.99c0,1.48,.49,2.46,1.97,3.44l-10.33,54.13c0,.98,.49,1.97,1.48,1.97h.49c.98,0,1.48-.49,1.97-1.48l10.33-54.13c1.97-.49,3.94-1.97,3.94-4.43v-27.07c0-.98,.49-2.46,1.97-2.46s1.48,1.48,1.48,2.46v82.67c0,3.44,2.95,6.4,6.4,6.4s6.4-2.95,6.4-6.4v-47.73c0-.98,.49-1.97,1.48-1.97h.49c.98,0,1.97,.49,1.97,1.48v48.23c0,3.44,2.95,6.4,6.4,6.4s6.4-2.95,6.4-6.4v-82.67c0-.98,.49-2.46,1.48-2.46s2.46,1.48,2.46,2.46v27.56c0,2.46,1.97,4.43,4.43,4.43s4.43-1.97,4.43-4.43v-32.48c-.49-7.38-6.4-13.78-14.27-14.76"/><path class="cls-2" d="M315.93,461.59c0,5.41,4.43,9.35,9.35,9.35s9.35-4.43,9.35-9.35-4.43-9.35-9.35-9.35-9.35,4.43-9.35,9.35"/><path class="cls-2" d="M343.98,489.14c-5.91-14.76-6.4-14.27-11.81-14.76h-14.27c-4.92,0-5.91,0-11.81,14.76-.98,1.97-3.94,10.33-4.43,10.83-.49,.49-1.48,3.44,1.97,4.43,3.44,.98,3.94-2.46,3.94-2.46l5.41-14.27s0-.49,.49-.49,0,.49,0,.49v36.91c0,2.95,1.97,4.92,4.92,4.92s4.92-1.97,4.92-4.92v-14.76s0-2.46,1.48-1.97c1.48,.49,1.48,1.97,1.48,1.97v14.76c0,2.95,1.97,4.92,4.92,4.92s4.92-1.97,4.92-4.92v-37.4l.49,.49,5.41,12.3s1.48,3.44,4.43,1.97c2.95-1.48,1.48-4.43,1.48-4.43,0,0-2.95-5.91-3.94-8.37"/><path class="cls-2" d="M172.23,465.65c-1.48-.98-3.94-.49-4.92,1.47v.49c-1.97,2.95-3.94,5.89-5.91,8.84-.49,.98-1.97,1.47-2.95,1.47h-10.83c-.98,0-1.97-.49-2.95-1.47-1.48-1.47-5.91-8.84-5.91-9.33-.49-.98-1.97-1.47-2.95-1.47-1.97,0-3.44,1.47-3.44,3.44,0,.49,0,.98,.49,1.47l9.35,16.7c.49,.49,.49,1.47,.49,1.97v2.45c0,.98,0,1.97-.49,2.95l-4.43,17.68h4.92v13.26c-.49,2.46,1.48,4.91,3.94,4.91,2.46,.49,4.92-1.47,4.92-3.93v-14.25h2.95v13.26c0,2.46,1.97,4.42,4.43,4.42s4.43-1.97,4.43-4.42v-13.26h4.92l-4.43-17.68c0-.98-.49-1.47-.49-2.45v-2.95c0-.98,0-1.48,.49-1.97l8.86-15.72,.98-1.47c.98-1.47,.49-3.44-1.48-4.42"/><path class="cls-2" d="M153.53,471.92c4.92,0,9.35-3.94,9.35-9.35,0-4.92-3.94-9.35-9.35-9.35-4.92,0-9.35,3.94-9.35,9.35,0,4.92,3.94,9.35,9.35,9.35"/><path class="cls-2" d="M172.23,226.86h124.01c.98,0,1.97-.98,1.97-1.97v-.98c-7.87-35.43-42.81-57.08-78.24-49.21-24.6,5.41-43.8,24.6-49.21,49.21v.98c0,.98,.49,1.97,1.48,1.97"/><path class="cls-2" d="M241.62,164.85c4.43,0,8.86,1.48,12.3,4.43,2.95,1.97,6.89,3.44,10.83,3.44h9.35v-23.62h-9.35c-5.41,0-10.33-1.97-14.27-5.91-2.95-1.97-6.4-2.95-10.33-2.46h-5.91v23.62c2.46,0,4.92,0,7.38,.49"/><path class="cls-2" d="M110.72,306.58h17.72v21.65h-17.72v-21.65Zm0-39.37h17.72v21.65h-17.72v-21.65Zm27.07,39.37h17.72v21.65h-17.72v-21.65Zm0-39.37h17.72v21.65h-17.72v-21.65Zm26.57,39.37h17.72v21.65h-17.72v-21.65Zm0-39.37h17.72v21.65h-17.72v-21.65Zm35.43-2.95h16.24v66.93h-16.24v-66.93Zm27.56,0h16.24v66.93h-16.24v-66.93Zm27.56,0h16.24v66.93h-16.24v-66.93Zm34.45,42.32h17.72v21.65h-17.72v-21.65Zm0-39.37h17.72v21.65h-17.72v-21.65Zm27.07,39.37h17.72v21.65h-17.72v-21.65Zm0-39.37h17.72v21.65h-17.72v-21.65Zm27.07,39.37h17.72v21.65h-17.72v-21.65Zm0-39.37h17.72v21.65h-17.72v-21.65Zm-248.02,75.29H373.01v-89.56H95.47v89.56Z"/><rect class="cls-2" x="85.62" y="347.91" width="297.72" height="3.94"/><rect class="cls-2" x="85.62" y="232.27" width="297.72" height="6.4"/><rect class="cls-2" x="95.96" y="244.57" width="277.05" height="3.94"/><rect class="cls-2" x="75.78" y="355.79" width="317.4" height="6.4"/></g></svg>