<?xml version="1.0" encoding="UTF-8"?><svg id="Capa_1" xmlns="http://www.w3.org/2000/svg" viewBox="0 0 467 568.37"><defs><style>.cls-1{fill:#0096d6;}.cls-2{fill:#fff;}</style></defs><path class="cls-1" d="M4.92,80.7H461.59V4.92H4.92V80.7Zm462.08,4.92H0V0H466.51V85.62h.49Z"/><polygon class="cls-1" points="16.73 17.72 38.88 17.72 38.88 24.6 32.48 24.6 32.48 67.91 23.62 67.91 23.62 24.6 16.73 24.6 16.73 17.72"/><path class="cls-1" d="M49.21,52.16h6.89l-3.44-20.18-3.44,20.18Zm-10.33,15.75l9.35-50.19h9.35l9.84,50.19h-8.86l-1.48-9.35h-8.86l-1.48,9.35h-7.87Z"/><path class="cls-1" d="M80.21,24.6v15.75h2.95c2.95,0,3.94-1.48,3.94-3.94v-7.38c0-2.95-1.48-3.94-3.94-3.94h-2.95v-.49Zm0,20.18v23.13h-8.37V17.72h12.3c8.37,0,11.81,4.43,11.81,11.32v6.4c0,5.41-1.97,8.37-6.89,9.84l7.87,22.64h-8.86l-7.87-23.13Z"/><path class="cls-1" d="M113.67,41.34h11.81v26.57h-5.91v-5.41c-.98,3.94-3.44,5.91-7.87,5.91-7.38,0-10.33-5.91-10.33-13.29V31c0-7.87,3.94-13.29,12.79-13.29,9.35,0,11.81,5.41,11.81,12.79v4.43h-7.87v-4.92c0-2.95-.98-4.92-4.43-4.92-2.95,0-4.43,1.97-4.43,4.92v27.07c0,2.95,1.48,4.92,3.94,4.92,2.95,0,3.94-1.48,3.94-4.92v-9.35h-3.94v-6.4h.49Z"/><polygon class="cls-1" points="132.37 17.72 152.55 17.72 152.55 24.6 140.74 24.6 140.74 38.88 149.11 38.88 149.11 45.77 140.74 45.77 140.74 61.02 152.55 61.02 152.55 67.91 132.37 67.91 132.37 17.72"/><polygon class="cls-1" points="156.49 17.72 178.63 17.72 178.63 24.6 171.74 24.6 171.74 67.91 163.38 67.91 163.38 24.6 156.49 24.6 156.49 17.72"/><polygon class="cls-1" points="364.15 17.72 364.15 67.91 355.79 67.91 355.79 29.53 349.88 35.43 349.88 27.07 357.75 18.21 364.15 18.21 364.15 17.72"/><path class="cls-1" d="M376.95,53.15h7.38v-20.67l-7.38,20.67Zm-7.38,1.48l14.76-36.91h7.87V53.15h3.44v6.4h-3.44v8.37h-7.87v-8.37h-14.76v-4.92Z"/><path class="cls-1" d="M409.42,36.91c3.44,0,5.91,2.95,5.91,5.91,0,3.44-2.95,5.91-5.91,5.91-3.44,0-5.91-2.95-5.91-5.91s2.46-5.91,5.91-5.91"/><path class="cls-1" d="M429.6,53.15h7.38v-20.67l-7.38,20.67Zm-7.38,1.48l14.76-36.91h8.37V53.15h3.44v6.4h-3.44v8.37h-7.87v-8.37h-14.76v-4.92h-.49Z"/><g><rect class="cls-1" x="0" y="101.86" width="466.51" height="466.51"/><path class="cls-2" d="M247.52,187.98c1.97,0,3.94,1.48,3.94,3.94,0,1.97-1.48,3.94-3.44,3.94h-.49c-1.97,0-3.94-1.48-3.94-3.94,0-1.97,1.97-3.94,3.94-3.94m-16.24,5.91c1.48,1.97,10.83,13.78,23.62,13.78,11.32,0,23.13-10.33,23.13-10.33,2.95,5.41,7.87,8.86,13.78,9.84q.49,0,.49-.49c-2.46-3.94-3.94-8.37-4.43-13.29,.49-4.92,1.97-9.35,4.43-13.29v-.49q0-.49-.49-.49c-5.91,.98-10.83,4.43-13.78,9.84,0,0-11.81-10.33-23.13-10.33-12.79,1.48-22.14,13.29-23.62,15.25"/><path class="cls-2" d="M123.02,373.5c2.95,0,5.41,2.46,5.41,5.41s-2.46,5.41-5.41,5.41-5.41-2.46-5.41-5.41,2.46-5.41,5.41-5.41m24.11,9.35h0c-1.97-2.95-15.75-20.18-34.45-20.18-16.73,0-33.95,14.76-33.95,14.76,0,0-6.89-13.78-20.18-14.76h-.49q-.49,0-.49,.49v.49c3.44,5.91,5.91,12.79,6.4,19.68-.49,6.89-2.46,13.78-6.4,19.68v.49q0,.49,.49,.49h.49c13.78-.98,20.18-14.76,20.18-14.76,0,0,17.72,14.76,33.95,14.76,18.7-.98,32.48-18.21,34.45-21.16"/><path class="cls-2" d="M258.84,495.05c-7.87,0-14.27-6.4-14.27-14.27s6.4-14.27,14.27-14.27,14.27,6.4,14.27,14.27-5.91,14.27-13.78,14.27h-.49Zm61.51-6.4c-5.41-7.38-39.86-51.18-88.09-51.18-41.83,0-86.61,37.89-86.61,37.89,0,0-16.73-34.45-51.18-37.89h-.98c-.98,0-1.48,.49-1.48,1.48,0,.49,.49,.98,.49,1.48,4.43,7.38,15.75,28.54,15.75,49.21s-11.32,41.83-15.75,49.21l-.49,.49v.49c0,.98,.49,1.48,1.48,1.48,34.45-2.95,51.67-37.89,51.67-37.89,0,0,44.78,37.89,86.61,37.89,48.23,0,82.67-43.8,88.09-51.18l.49-.49v-.98Z"/><path class="cls-2" d="M289.35,409.92c-2.95,0-5.41-2.46-5.41-5.41s2.46-5.41,5.41-5.41,5.41,2.46,5.41,5.41-2.46,5.41-5.41,5.41m132.37,10.33c-4.43-2.95-7.38-7.87-7.87-13.29,0-6.89,5.41-11.81,8.37-15.26,.98-.98,1.48-.98,.98-1.97-.49-.98-1.97-.49-1.97-.49-9.35,1.97-18.7,4.92-27.56,8.86-22.64-9.84-46.75-13.78-71.35-12.3-37.4,2.46-54.13,18.21-57.08,21.65v.49q0,.49,.49,.98l.49,.49c6.89,7.87,28.05,18.7,54.62,18.7,28.54,0,73.81-14.76,73.81-14.76,7.87,4.92,17.22,7.87,26.57,8.37h1.48c.49,0,.98-.49,.98-.98v-.49h-1.97Z"/><path class="cls-2" d="M212.09,235.22c2.95,0,4.92,1.97,4.92,4.92s-1.97,4.92-4.92,4.92-4.92-1.97-4.92-4.92,1.97-4.92,4.92-4.92m-105.31,23.62c-1.48,3.44-3.44,6.89-5.41,9.84,6.4-1.48,12.3-3.94,17.72-7.38,0,0,42.32,5.91,55.61,7.38,0,0-4.92,15.75-6.4,19.19,9.35-4.43,17.72-10.33,25.1-17.72,0,0,48.72-10.33,59.05-20.18,.98-.98,.98-2.95,0-3.94,0-.49-.49-.49-.98-.49s-51.18-20.18-58.56-22.64c-7.38-2.46-30.51-28.05-36.91-30.51l8.37,26.08s-.49,2.46-1.97,2.95c-1.48,.49-80.7,18.7-80.7,18.7,0,0-35.43-24.6-37.89-25.59,0,0-1.97,0-.98,1.48s15.26,24.6,15.75,28.54c-.98,7.38-2.95,15.25-5.91,22.14,0,0-.98,.98,1.48,.49,2.46-.49,26.57-15.75,26.57-15.75,0,0,17.72,5.41,26.08,7.38"/><path class="cls-2" d="M346.93,258.84c5.41-2.46,12.3,0,14.76,5.41,2.46,5.41,0,12.3-5.41,14.76-5.41,2.46-12.3,0-14.76-5.41-2.46-5.41,0-12.3,5.41-14.76m-77.26,43.3s-23.13-18.7-48.72-9.84h-.49c0,.49-.49,.98-.49,1.48s.49,.49,.98,.49c5.41,3.94,20.67,14.76,27.07,29.53,6.4,14.76,5.91,33.46,5.41,39.86v.98c.49,.49,.98,.49,1.48,.49h.49c23.13-13.78,23.62-43.8,23.62-43.8,0,0,44.29,11.81,73.81-1.97,33.95-15.75,43.8-58.07,45.27-64.96v-124.01h-4.43v121.06c-11.81-5.91-45.27-19.19-75.29-4.92-30.02,14.27-48.72,55.61-48.72,55.61"/></g></svg>