<?xml version="1.0" encoding="UTF-8"?><svg id="Capa_1" xmlns="http://www.w3.org/2000/svg" viewBox="0 0 467 568.37"><defs><style>.cls-1{fill:#fff;}.cls-2{fill:#e9a30d;}</style></defs><path class="cls-2" d="M4.92,80.7H461.59V4.92H4.92V80.7Zm462.08,4.92H0V0H466.51V85.62h.49Z"/><polygon class="cls-2" points="16.73 17.72 38.88 17.72 38.88 24.6 32.48 24.6 32.48 67.91 23.62 67.91 23.62 24.6 16.73 24.6 16.73 17.72"/><path class="cls-2" d="M49.21,52.16h6.89l-3.44-20.18-3.44,20.18Zm-10.33,15.75l9.35-50.19h9.35l9.84,50.19h-8.86l-1.48-9.35h-8.86l-1.48,9.35h-7.87Z"/><path class="cls-2" d="M80.21,24.6v15.75h2.95c2.95,0,3.94-1.48,3.94-3.94v-7.38c0-2.95-1.48-3.94-3.94-3.94h-2.95v-.49Zm0,20.67v23.13h-8.37V17.72h12.3c8.37,0,11.81,4.43,11.81,11.32v6.4c0,5.41-1.97,8.37-6.89,9.84l7.87,22.64h-8.86l-7.87-22.64Z"/><path class="cls-2" d="M113.67,41.34h11.81v26.57h-5.91v-5.41c-.98,3.94-3.44,5.91-7.87,5.91-7.38,0-10.33-5.91-10.33-13.29V31c0-7.87,3.94-13.29,12.79-13.29,9.35,0,11.81,5.41,11.81,12.79v4.43h-7.87v-4.92c0-2.95-.98-4.92-4.43-4.92-2.95,0-4.43,1.97-4.43,4.92v27.07c0,2.95,1.48,4.92,3.94,4.92,2.95,0,3.94-1.48,3.94-4.92v-9.35h-3.94v-6.4h.49Z"/><polygon class="cls-2" points="132.37 17.72 152.55 17.72 152.55 24.6 140.74 24.6 140.74 38.88 149.11 38.88 149.11 45.77 140.74 45.77 140.74 61.02 152.55 61.02 152.55 67.91 132.37 67.91 132.37 17.72"/><polygon class="cls-2" points="156.49 17.72 178.63 17.72 178.63 24.6 171.74 24.6 171.74 67.91 163.38 67.91 163.38 24.6 156.49 24.6 156.49 17.72"/><path class="cls-2" d="M431.08,52.16h6.89l-3.44-20.18-3.44,20.18Zm-10.33,15.75l9.35-50.19h9.35l9.35,50.19h-8.86l-1.48-9.35h-8.86l-1.48,9.35h-7.38Z"/><path class="cls-2" d="M371.04,58.56c0-4.92,1.48-8.37,6.4-13.29l4.92-4.92c2.95-2.95,2.95-4.43,2.95-8.86v-3.94c0-2.95-1.48-3.94-2.95-3.94-1.97,0-3.44,.98-3.44,3.94v6.4h-7.87v-5.91c0-6.89,3.94-10.83,11.32-10.83s10.83,3.44,10.83,10.33v4.92c0,4.92-.98,7.87-5.41,12.79l-5.41,5.91c-1.97,2.46-3.44,3.94-3.44,7.87v2.46h13.78v6.89h-21.65v-9.84Z"/><polygon class="cls-2" points="404.01 32.48 404.01 53.15 414.84 42.81 404.01 32.48"/><g><rect class="cls-2" y="101.86" width="466.51" height="466.51"/><path class="cls-1" d="M90.55,432.55c-17.72,0-31.99-14.27-31.99-31.99s14.27-31.99,31.99-31.99,31.99,14.27,31.99,31.99c.49,17.72-13.78,32.48-31.99,31.99q.49,.49,0,0m0-79.72c-26.57,0-47.73,21.65-47.73,47.73s21.65,47.73,47.73,47.73,47.73-21.65,47.73-47.73c.49-26.08-21.16-47.73-47.73-47.73"/><path class="cls-1" d="M90.55,376.45c13.59,0,24.6,11.02,24.6,24.6s-11.02,24.6-24.6,24.6-24.6-11.02-24.6-24.6,11.02-24.6,24.6-24.6"/><path class="cls-1" d="M205.7,434.52c-11.81,0-21.16-9.35-21.16-21.16s9.35-21.16,21.16-21.16,21.16,9.35,21.16,21.16c-.49,11.81-9.35,21.16-21.16,21.16,0,0,0,.49,0,0m0-52.16c-17.22,0-31,14.27-31,31.49s14.27,31,31.49,31,31-13.78,31-31c-.49-17.72-14.27-31.49-31.49-31.49"/><path class="cls-1" d="M205.7,399.58c-7.87,0-14.27,6.4-14.27,13.78s6.4,13.78,13.78,13.78c7.87,0,14.27-6.4,14.27-13.78s-6.4-13.78-13.78-13.78"/><path class="cls-1" d="M114.17,339.05v-45.77h15.75l15.75,45.77h-31.49Zm-7.87,0h-31v-45.77h31v45.77Zm138.77,14.76l-71.35-11.32v-13.29h-2.46v-20.67c0-1.48,.49-2.95,1.48-3.94,.98-.98,2.95-1.48,4.43-1.48v-4.43c-2.95,0-5.41,.98-7.38,2.95s-2.95,4.43-2.46,7.38v20.67h-2.46v11.32l-8.86-1.48-17.22-54.13H67.91v54.62c-9.84,5.41-18.21,13.29-24.11,22.64l4.43,3.44c19.19-23.62,54.13-26.57,77.75-7.38,12.79,10.33,20.18,26.08,20.18,42.32v1.48h24.11s8.86-25.59,35.43-25.59c14.76-.98,28.05,8.37,32.97,22.14h6.89l-.49-45.27Z"/><path class="cls-1" d="M335.12,402.04c-1.97,2.46-4.43,4.92-6.89,6.89,2.95,2.95,5.91,5.91,9.35,9.84h-19.19l-3.44,3.94-1.48,1.97h28.54c1.97,2.95,3.44,6.4,4.43,9.35h-38.38c-.98,1.97-1.48,3.94-1.97,5.91h41.83c.49,1.97,.98,3.94,1.48,5.91h7.87c-1.97-13.78-7.38-26.57-15.75-37.89-1.97-.98-4.43-3.44-6.4-5.91"/><path class="cls-1" d="M345.94,232.76c-.98,3.44-2.46,6.4-4.43,9.35h-28.54c.49,.49,.98,1.48,1.48,1.97l3.44,3.94h19.19c-3.44,3.94-6.4,6.89-9.35,9.84,2.46,2.46,4.92,4.92,6.89,7.38,1.97-2.46,4.43-4.43,6.4-7.38,8.37-10.83,13.29-23.13,15.25-36.42h-7.87c-.49,1.48-.98,2.95-.98,4.92h-42.32c.49,1.97,1.48,3.94,1.97,5.91l38.88,.49Z"/><path class="cls-1" d="M381.87,335.61c-11.32,1.48-20.67,9.84-22.64,21.16,0,1.48,0,3.44,.49,4.92,0,0,17.22-11.32,52.65-7.87,0,0-36.42-.98-59.05,15.75-1.97,1.48-3.44,2.95-5.41,4.43,4.92-12.3,7.87-25.59,8.37-38.88-.49-15.26-3.94-30.51-9.84-44.29-4.92-10.83-11.81-20.67-20.67-28.54-3.94-3.94-8.37-8.37-13.29-13.78-5.91-7.87-9.84-16.73-11.81-26.57h-7.38c1.97,13.29,7.38,25.59,15.25,36.42,4.92,5.91,9.35,10.33,13.78,14.27,7.87,6.89,14.27,15.25,18.7,24.6,5.41,11.81,7.87,24.6,8.37,37.4-.49,12.3-3.44,24.11-8.37,35.43-4.43,9.35-10.83,17.72-18.7,24.6-3.94,4.43-8.86,8.86-13.78,14.76-8.37,10.83-13.78,24.11-15.75,37.89h7.87c1.97-10.33,5.91-19.68,12.3-28.05,4.92-5.41,8.86-9.84,13.29-13.78,5.91-5.41,11.32-11.32,15.75-18.21,2.46-3.44,5.41-6.89,8.37-9.35,4.43-3.94,9.35-6.89,14.76-8.86,5.91,5.41,17.22,13.29,28.05,10.33,14.76-3.94,20.18-22.14,39.86-24.6,4.92-.98-28.05-23.13-51.18-19.19"/><path class="cls-1" d="M266.22,280.5c-1.97-6.4-12.79-11.81-12.79-11.81,0,0-4.92,10.83-2.95,17.22,1.48,4.92,8.86,6.4,10.83,6.89,.49-.49,6.89-7.38,4.92-12.3"/><path class="cls-1" d="M251.95,306.08s2.95,1.97,12.79,.49c0,0-1.97-9.35-6.89-11.81,0,0-2.46-1.97-16.73-4.92,0-.49,3.44,13.78,10.83,16.24"/><path class="cls-1" d="M263.76,312.48s-2.95-2.46-18.21-5.41c0,0,3.44,15.75,11.81,18.21,0,0,2.95,1.97,13.78,.49,0-.49-2.46-10.83-7.38-13.29"/><path class="cls-1" d="M267.7,305.1c8.86-4.43,9.84-7.87,9.84-7.87,4.43-6.4-1.48-19.68-1.48-19.68-9.35,10.83-10.33,13.78-10.33,13.78-1.97,5.41,1.97,13.78,1.97,13.78"/><path class="cls-1" d="M284.92,315.93c4.92-6.89-1.48-21.16-1.48-21.16-10.33,11.81-10.83,15.25-10.83,15.25-2.46,5.41,1.97,14.76,1.97,14.76,8.86-5.41,10.33-8.86,10.33-8.86"/><path class="cls-1" d="M233.75,256.38c-.49-.98-.98-1.48-1.97-.98s-1.48,.98-.98,1.97l9.84,29.53,3.44,.98-10.33-31.49Z"/><path class="cls-1" d="M247.03,285.42c0-2.95,0-5.41,.49-8.37l-9.35-27.56c-.49-.98-.98-1.48-1.97-.98-.98,.49-1.48,.98-.98,1.97l11.81,34.94Z"/><path class="cls-1" d="M250.48,266.22l-8.86-26.57c-.49-.98-.98-.98-1.97-.98-.98,.49-1.48,.98-.98,1.97l10.33,30.51c.49-1.97,1.48-3.44,1.48-4.92"/><path class="cls-1" d="M275.08,275.08l-9.84-29.53c-.49-.98-1.48-.98-1.97-.98-.98,.49-1.48,.98-.98,1.97l10.33,31,2.46-2.46Z"/><path class="cls-1" d="M269.18,278.03h0l-11.81-34.94c-.49-.98-.98-1.48-1.97-.98-.98,0-.98,.98-.98,1.97l9.35,27.56c1.97,1.97,3.94,3.94,5.41,6.4"/><path class="cls-1" d="M258.84,267.7l-10.33-30.51c-.49-.98-.98-1.48-1.97-.98-.98,.49-.98,.98-.98,1.97l8.86,26.57c1.48,.98,2.95,1.97,4.43,2.95"/><path class="cls-1" d="M307.56,384.82c2.46,3.94,4.92,7.87,7.87,11.32,1.97-1.97,3.44-3.94,5.41-5.41l1.48-1.48c-3.44-3.94-6.89-7.87-9.35-12.3h20.18c1.48-1.97,2.46-3.94,3.44-5.91h-27.07v-.49c-1.48-2.95-2.46-5.91-3.44-8.86h33.95c.98-1.97,1.48-3.94,1.97-5.91h-37.89c-.98-3.44-1.48-6.4-1.97-9.35h42.32c.49-1.97,.98-3.94,.98-5.91h-43.8c0-1.97-.49-3.94-.49-5.41s0-3.94,.49-5.91h43.8c0-1.97-.49-3.94-.98-5.91h-42.32c.49-2.95,.98-6.4,1.97-9.35h37.89c-.49-1.97-.98-3.94-1.97-5.91h-33.95c.98-2.95,1.97-5.91,3.44-8.86v-.49h27.07c-.98-1.97-1.97-3.94-3.44-5.91h-20.18c2.46-4.43,5.91-8.37,9.35-12.3l-1.48-1.48-5.41-5.41c-4.92,5.41-8.86,11.81-11.81,18.7-5.91,13.29-9.35,27.56-9.84,41.83v1.97c.49,10.83,2.46,21.16,5.91,31.49-8.37-11.81-15.75-24.11-22.14-36.91l-3.44,.49c8.86,19.19,20.18,37.4,33.46,53.64"/></g></svg>