<?xml version="1.0" encoding="UTF-8"?><svg id="Capa_1" xmlns="http://www.w3.org/2000/svg" viewBox="0 0 467 568.37"><defs><style>.cls-1{fill:#fff;}.cls-2{fill:#b11546;}</style></defs><path class="cls-2" d="M4.92,80.7H461.59V4.92H4.92V80.7Zm462.08,4.92H0V0H466.51V85.62h.49Z"/><polygon class="cls-2" points="16.73 17.72 38.88 17.72 38.88 24.6 32.48 24.6 32.48 67.91 23.62 67.91 23.62 24.6 16.73 24.6 16.73 17.72"/><path class="cls-2" d="M49.21,52.16h6.89l-3.44-20.18-3.44,20.18Zm-10.33,15.75l9.35-50.19h9.35l9.84,50.19h-8.86l-1.48-9.35h-8.86l-1.48,9.35h-7.87Z"/><path class="cls-2" d="M80.21,24.6v15.75h2.95c2.95,0,3.94-1.48,3.94-3.94v-7.38c0-2.95-1.48-3.94-3.94-3.94h-2.95v-.49Zm0,20.18v23.13h-8.37V17.72h12.3c8.37,0,11.81,4.43,11.81,11.32v6.4c0,5.41-1.97,8.37-6.89,9.84l7.87,22.64h-8.86l-7.87-23.13Z"/><path class="cls-2" d="M113.67,41.34h11.81v26.57h-5.91v-5.41c-.98,3.94-3.44,5.91-7.87,5.91-7.38,0-10.33-5.91-10.33-13.29V31c0-7.87,3.94-13.29,12.79-13.29,9.35,0,11.81,5.41,11.81,12.79v4.43h-7.87v-4.92c0-2.95-.98-4.92-4.43-4.92-2.95,0-4.43,1.97-4.43,4.92v27.07c0,2.95,1.48,4.92,3.94,4.92,2.95,0,3.94-1.48,3.94-4.92v-9.35h-3.94v-6.4h.49Z"/><polygon class="cls-2" points="132.37 17.72 152.55 17.72 152.55 24.6 140.74 24.6 140.74 38.88 149.11 38.88 149.11 45.77 140.74 45.77 140.74 61.02 152.55 61.02 152.55 67.91 132.37 67.91 132.37 17.72"/><polygon class="cls-2" points="156.49 17.72 178.63 17.72 178.63 24.6 171.74 24.6 171.74 67.91 163.38 67.91 163.38 24.6 156.49 24.6 156.49 17.72"/><path class="cls-2" d="M386.79,32.48v-3.44c0-2.95-.98-4.92-3.94-4.92s-3.94,1.97-3.94,4.92v3.44c0,2.95,.98,4.92,3.94,4.92,2.95-.49,3.94-1.97,3.94-4.92m.49,24.11v-7.87c0-2.95-.98-4.92-3.94-4.92s-3.94,1.97-3.94,4.92v7.87c0,2.95,.98,4.92,3.94,4.92s3.94-1.97,3.94-4.92m-16.73-.98v-5.41c0-4.92,1.48-8.37,5.41-9.84-3.44-1.48-4.92-4.43-4.92-8.86v-1.97c0-7.87,3.94-11.81,11.81-11.81s11.81,4.43,11.81,11.81v1.97c0,3.94-1.48,6.89-4.92,8.86,3.94,1.97,5.41,5.41,5.41,9.84v5.41c0,7.38-3.44,12.79-12.3,12.79s-12.3-4.92-12.3-12.79"/><path class="cls-2" d="M409.42,36.91c3.44,0,5.91,2.95,5.91,5.91,0,3.44-2.95,5.91-5.91,5.91-3.44,0-5.91-2.95-5.91-5.91s2.95-5.91,5.91-5.91"/><path class="cls-2" d="M431.57,29.03v8.86c0,3.44,.98,4.92,3.94,4.92,2.46,0,3.94-1.97,3.94-4.43v-9.35c0-2.95-.98-4.92-3.94-4.92s-3.94,1.97-3.94,4.92m16.24,1.48v24.11c0,7.87-3.44,13.29-12.3,13.29-9.35,0-11.81-4.92-11.81-12.3v-2.46h7.87v3.44c0,2.95,.98,4.92,3.94,4.92s4.43-1.97,4.43-4.92v-10.83c-1.48,2.46-3.44,3.94-6.89,3.94-5.91,0-9.35-3.94-9.35-12.3v-7.38c0-7.87,3.44-12.79,12.3-12.79,8.37,0,11.81,5.91,11.81,13.29"/><g><rect class="cls-2" y="101.86" width="466.51" height="466.51"/><path class="cls-1" d="M186.5,405.98c6.89,0,12.3-5.41,12.3-12.3s-5.41-12.3-12.3-12.3-12.3,5.41-12.3,12.3,5.41,12.3,12.3,12.3"/><path class="cls-1" d="M221.44,454.7l-10.33-32.97s-3.44-9.84-11.81-9.84h-26.08c-7.87,0-11.81,9.84-11.81,9.84l-10.33,32.97s-1.97,5.91,3.44,7.87c5.41,1.97,6.89-4.43,6.89-4.43l8.37-27.56s.49-1.97,1.97-1.48c1.48,.49,.98,2.95,.98,2.95l-14.27,52.16h13.29v36.91c0,3.44,2.95,6.4,6.4,6.4s6.4-2.95,6.4-6.4v-37.4h3.44v37.4c-.49,3.44,2.46,6.4,5.91,6.89,3.44,.49,6.4-2.46,6.89-5.91v-38.38h13.29l-13.78-52.65s-.49-2.46,.98-2.95c1.48-.49,1.97,1.48,1.97,1.48l8.37,27.56s1.48,5.91,6.89,4.43c5.41-1.48,2.95-6.89,2.95-6.89"/><path class="cls-1" d="M359.23,455.19c-1.97-.98-3.94,0-4.92,1.48-1.97,3.44-3.94,6.89-6.4,9.84-.98,.98-1.97,1.48-2.95,1.48h-12.79c-1.48,0-2.46-.49-3.44-1.48-1.48-1.48-6.4-10.33-6.4-10.33-.49-.98-1.97-1.97-3.44-1.48-1.97,0-3.94,1.48-3.94,3.94,0,.49,0,.98,.49,1.48l10.33,18.7c.49,.98,.49,1.48,.49,2.46v2.95c0,.98,0,1.97-.49,2.95l-4.92,19.68h5.41v14.76c0,2.95,1.97,4.92,4.92,4.92s4.92-1.97,4.92-4.92v-14.76h2.95v14.27c0,2.95,2.46,4.92,4.92,4.92s4.92-2.46,4.92-4.92v-14.76h5.41l-4.92-19.68c0-.98-.49-1.97-.49-2.46v-3.44c0-.98,.49-1.48,.49-2.46l9.84-17.22s.49-.98,.98-1.97c1.48-1.48,.49-2.95-.98-3.94"/><path class="cls-1" d="M338.07,462.08c5.91,0,10.33-3.94,10.83-9.84,.49-5.91-3.94-10.33-9.84-10.83-5.91-.49-10.33,3.94-10.83,9.84v.49c0,5.41,4.43,9.84,9.84,10.33"/><path class="cls-1" d="M68.4,381.38c-6.89,0-12.3,5.41-12.3,12.3s5.41,12.3,12.3,12.3,12.3-5.41,12.3-12.3-5.91-12.3-12.3-12.3"/><path class="cls-1" d="M57.58,348.4h.98c-.98,.98-1.48,2.46-1.97,3.94-.49,0-.98-.49-.98-.98-.49-.49-.49-.98-.49-1.48,0-.98,.98-1.48,2.46-1.48m19.19,0h1.48c1.48,0,2.46,.49,2.95,1.48,.49,.98-.98,1.97-2.46,2.95-.98-1.48-1.48-2.95-1.97-4.43m-20.67,4.92c-.49,1.97-.98,3.94-.98,5.91,0,9.35,2.95,16.73,11.81,17.22,8.86,.49,12.3-7.38,12.3-16.73,0-1.97-.49-3.94-.98-5.91,2.46-.98,3.94-2.46,3.44-3.94-.49-1.48-2.95-2.95-5.91-1.97q-.49,0-.98,.49c-2.46,.98-5.41,1.48-7.87,.98-2.46,0-4.92-.49-7.38-.98-2.95-.98-5.41,0-5.91,1.97,0,.98,0,1.97,.98,2.95,.49-.49,.98,0,1.48,0"/><path class="cls-1" d="M61.02,345.45c1.97,.49,4.43,.98,6.4,.98s4.43,0,6.4-.49c.49,0,.98-.49,.98-.98s-3.44-1.48-7.38-1.48-7.38,.49-7.38,1.48,.49,.49,.98,.49"/><path class="cls-1" d="M81.69,428.62c0-.49,.49-.98,.98-.98,10.83-2.46,13.78-6.4,15.25-14.27l5.41-34.94c0-2.95-1.97-4.92-4.92-4.92-2.46,0-4.92,2.46-4.92,4.92l-5.41,30.02c-.98,1.97-1.48,2.46-3.44,2.46h-29.53c-7.87,0-11.81,9.84-11.81,9.84l-10.33,33.46s-1.97,5.91,3.44,7.87c5.41,1.97,6.89-4.43,6.89-4.43l8.37-28.05s.49-1.97,1.97-1.48c1.48,.49,.98,2.95,.98,2.95l-14.27,52.16h13.29v37.4c0,3.44,2.95,6.4,6.4,6.4s6.4-2.95,6.4-6.4v-37.4h3.44v37.4c.49,3.44,3.44,6.4,6.89,5.91,2.95-.49,5.41-2.95,5.91-5.91v-37.4h13.29l-13.78-51.18c-.49-.98-.49-1.97-.49-3.44q0,.49,0,0"/><path class="cls-1" d="M294.27,405.49h-30.02c-8.86,.98-15.75,8.37-15.75,17.22v2.46q0,.49-.49,0l-6.4-6.4v-29.53c0-.98-.49-1.97-1.48-1.97s-1.97,.49-1.97,1.48v27.56c-1.48-.49-2.95,0-4.43,.49l-1.48,1.48c-1.48,1.97-.98,4.43,.49,6.4l4.92,4.92v68.89h-4.43c-1.48,0-2.95,.49-3.94,1.48-.98,.98-1.48,2.46-1.48,3.94v23.13h2.95v-23.13c0-.49,0-.98,.49-1.48,.49-.49,.98-.49,1.97-.49h1.48v25.59h2.95v-25.59h3.94v25.59h2.95v-25.59h1.48c.49,0,.98,0,1.48,.49,.49,.49,.49,.98,.49,1.48v23.62h2.95v-23.62c0-1.48-.49-2.46-1.48-3.44-.98-.98-2.46-1.48-3.94-1.48h-4.43v-65.94l8.37,8.37c.98,.98,1.97,1.48,3.44,1.48,2.95,0,4.92-1.97,4.92-4.92v-9.84c0-.98,.49-2.95,2.46-2.95s1.97,1.48,1.97,2.46v92.02c0,3.94,3.44,7.38,7.38,7.38s7.38-3.44,7.38-7.38v-53.64c0-.98,.49-1.97,1.48-1.97h.49c.98,0,1.97,.98,1.97,1.97v54.13c0,3.94,3.44,7.38,7.38,7.38s7.38-3.44,7.38-7.38v-92.51c0-.98,.49-2.46,1.97-2.46,1.97,0,2.46,1.48,2.46,2.95v30.02c0,2.95,1.97,4.92,4.92,4.92s4.92-1.97,4.92-4.92v-35.43c-.49-8.86-6.89-16.24-15.75-17.22"/><path class="cls-1" d="M279.02,400.57c7.38,0,13.29-5.91,13.29-13.78s-5.91-13.29-13.78-13.29-13.29,5.91-13.29,13.78c.49,7.38,6.4,13.29,13.78,13.29"/><rect class="cls-1" x="97.44" y="497.51" width="56.1" height="29.03"/><path class="cls-1" d="M121.06,464.54c0-3.44,2.95-6.4,6.4-6.4s6.4,2.95,6.4,6.4h-12.79Zm20.67,0h-6.4c0-4.43-3.94-8.37-8.37-8.37s-8.37,3.94-8.37,8.37h-6.4v29.53h29.03v-29.53h.49Z"/><path class="cls-1" d="M397.12,399.58c7.38,0,12.79-5.91,12.79-12.79s-5.91-12.79-12.79-12.79-12.79,5.91-12.79,12.79c0,7.38,5.41,12.79,12.79,12.79"/><path class="cls-1" d="M430.58,467.49h-8.37v-.49c-.49-2.46,1.48-4.43,3.94-4.92,2.46-.49,4.43,1.48,4.92,3.94v.98c0,.49-.49,.49-.49,.49m1.48,0v-.49c0-2.95-2.46-5.41-5.41-5.91,.98-.98,1.48-1.97,1.48-3.44v-35.92c0-8.86-6.89-16.24-15.75-17.22h-30.51c-8.86,.98-15.75,8.37-15.75,17.22v35.92c0,2.95,1.97,4.92,4.92,4.92s4.92-1.97,4.92-4.92v-31c0-.98,.49-2.95,2.46-2.95s1.97,1.48,1.97,2.46v92.51c0,3.94,3.44,7.38,7.38,7.38s7.38-3.44,7.38-7.38v-52.65c0-.98,.98-1.97,1.97-1.97s1.97,.98,1.97,1.97v53.64c0,3.94,3.44,7.38,7.38,7.38s7.38-3.44,7.38-7.38v-93.01c0-.98,.49-2.46,1.97-2.46s2.46,1.48,2.46,2.95v31c0,2.46,1.97,4.92,4.43,4.92-.98,.98-1.97,2.46-1.97,4.43v.49h-2.95v37.4h17.22v-37.89h-2.95Z"/><path class="cls-1" d="M161.41,261.8h0c-4.43-9.84-6.4-20.18-6.4-31,0-2.46,0-12.3,4.43-15.25,1.48-.98,3.44-1.48,5.41-.98,4.43,.49,8.86,1.97,12.79,3.44,4.43,1.48,11.81,5.91,16.24,3.94,2.95-.98,5.41-2.95,4.92-5.41-.49-2.46-2.95-3.94-5.91-1.97-.98,.98-3.44-4.92-5.41-4.43s2.46,6.4,.49,6.89c-1.97,.49-4.92-6.4-5.41-7.87-.49-1.48-2.95-3.94-5.41-1.48-4.92,4.43-11.32,2.46-14.27,3.94-5.41,1.97-5.41,.49-5.41-1.97,0-.98,0-1.48,.49-1.97,2.46-1.48,5.91-1.97,8.86-.98,1.97,1.48,3.44-.49,4.43-.98s.49-1.97,0-3.44c-.49-1.48,.98-1.97,1.97-1.97s4.43-2.95,5.91-3.44c3.94-1.48,7.87-1.48,11.81,0,2.46,1.48,5.91,.98,7.87-1.48,1.48-1.97,3.44-3.44,5.91-4.92,.98-.49-2.95-4.43-5.91,0s-4.92,4.43-6.4,4.43-10.83-2.46-11.81-4.92c-.98-2.46,2.95-4.92,6.4-6.89,4.92-.98,9.84-1.97,14.76-1.97,4.92-.98,10.83-3.44,13.78-1.48,2.95,1.97-12.79,5.91-7.38,8.37,1.97,.98,10.33-4.92,13.29-6.4,6.89-3.44-6.4-4.92-4.92-11.81,1.97-8.37-16.24-4.92-25.59-4.43,8.86-5.41,18.7-9.35,28.54-11.32l3.94-.49h1.97c2.46,0,4.92-.49,7.38-.49,37.4,0,69.88,25.59,77.75,62.5v1.48c-.98,2.46-3.94,3.94-6.89,2.95-.98-.49-1.97-.98-2.46-2.46-.98-.98-3.94-4.43-3.94,.98s5.41,5.91,.49,9.35c-2.46,1.97-5.41,2.95-8.37,3.44-2.95,2.46-4.43,5.91-3.94,9.35,.49,2.95,7.87,11.32,2.46,10.83-4.92-2.46-9.35-5.91-12.3-10.83-1.48-4.43-3.44-8.86-4.92-11.81-.98-2.46-3.94-3.94-6.4-2.95-.49,0-.98,.49-.98,.49-2.95,1.97,.98,3.94-.98,7.87-1.97,3.94-3.44,7.87-6.4,4.43-7.87-8.86-19.19-4.43-20.67-14.27-.98-5.41-5.41-4.92-9.35-7.87-3.94-2.95-5.91-4.92-6.89-2.46-.98,2.46,12.3,11.81,12.79,14.76,1.48,3.94-3.94,7.38-7.38,8.37-3.44,.98-5.41-2.46-9.35-6.4-3.94-3.94-5.41-6.4-5.41-3.44,.49,5.41,2.95,10.33,7.38,13.29,3.44,1.97,6.89,2.95,5.91,6.4s0,1.48-3.44,4.92c-2.95,1.97-4.92,5.91-3.94,9.84,0,4.92-.98,5.41-1.97,9.35s-2.46,.49-3.94,6.4c-.98,3.94-2.46,7.38-4.92,10.33-2.95,2.46-6.89,3.94-10.83,3.94-3.44-.49-3.94-9.84-3.94-14.76,0-1.48-2.46,3.44-3.94-6.89-.98-6.4-4.92,.49-5.41-3.94-.49-4.43-2.46-3.44-4.43-6.4-1.97-2.95-4.92,.49-7.87,1.48-2.95,.98-2.46,1.97-6.89,.49m4.92-72.34h0c1.97-1.97,4.43-2.46,6.89-2.95,1.97-.49,4.43,.49,4.92,1.97,.49,1.48-4.92,3.94-5.91,4.43-2.46,2.46-6.89,7.87-9.35,8.37h-1.97c1.48-3.94,3.44-7.87,5.41-11.81m12.3-15.75h0c1.48,0,3.44,.49,3.44,1.48,0,1.48-.49,3.44-.98,4.92-2.46,2.46-5.41,3.44-8.37,3.94-.98,0-1.48-.49-1.97-.98,2.46-3.44,5.41-6.4,7.87-9.35m134.34,51.18c0,1.97,.49,4.43,.49,6.4,0,5.41-.49,10.33-1.48,15.75-2.46-1.97-10.33-13.29-3.44-20.67,.98-1.48-2.46-5.41-1.48-5.41,2.46,0,4.92,1.48,5.91,3.94m-13.29,25.59c-2.46,.98-5.41,.98-7.38-.98-1.97-1.48,1.48-3.94,2.46-4.43,2.46,0,6.4,3.94,4.92,5.41m-8.86-7.38c-.98-.49-1.48-.98-2.46-2.95-.49-.98,0-1.97,.49-2.46,.49-.49,1.48-.49,1.97,0,1.97,.98,2.95,2.46,3.94,4.43,0,1.48-2.95,.98-3.94,.98m-.49,44.29c-.98-.49-1.48-.49-2.46-.98-4.43-2.46-3.94,1.48-5.91,.49s2.46-5.91-3.94-1.48c-6.4,4.43-4.92-.49-7.38-7.87-1.97-6.89,1.48-14.27,8.37-16.73,4.92-1.48,9.35-2.95,14.27-3.94,9.35-2.46,11.32-7.87,13.29-4.43,.49,.49,.49,1.48,.98,1.97,.49,1.48,.98,2.46,.98,3.94-3.94,10.83-10.33,20.67-18.21,29.03m-39.37-49.21c2.46,0,6.89,3.44,4.92,4.92-2.46,1.48-5.41,.98-7.38-.49-1.97-1.97,.98-4.43,2.46-4.43m-31.99,17.72c2.95-5.91,9.84-5.41,4.92,2.95-.98,1.97-3.94,15.25-5.91,13.78-1.97-1.48,.49-15.75,.98-16.73m59.54,40.84l-.98,.49-2.95,1.48c-18.7,11.32-41.83,14.27-62.99,7.87-.98-.98-1.48-2.46-.98-3.94,2.95-5.91,8.86-9.35,15.75-9.35,12.79-.98,30.02,8.37,32.48,6.89,2.46-1.48,8.37-8.86,16.24-8.37,2.46,0,4.92,.49,6.89,1.97l-3.44,2.95Zm-44.78,21.65c48.23,0,87.59-39.37,87.1-87.59s-39.37-87.59-87.59-87.1c-48.23,0-87.1,39.37-87.59,87.59,.49,48.23,39.86,87.1,88.09,87.1"/></g></svg>