<?xml version="1.0" encoding="UTF-8"?><svg id="Capa_1" xmlns="http://www.w3.org/2000/svg" viewBox="0 0 467 568.37"><defs><style>.cls-1{fill:#00486e;}.cls-2{fill:#fff;}</style></defs><path class="cls-1" d="M4.92,80.7H461.59V4.92H4.92V80.7Zm462.08,4.92H0V0H466.51V85.62h.49Z"/><polygon class="cls-1" points="16.73 17.72 38.88 17.72 38.88 24.61 32.48 24.61 32.48 67.91 23.62 67.91 23.62 24.61 16.73 24.61 16.73 17.72"/><path class="cls-1" d="M49.21,52.16h6.89l-3.44-20.18-3.44,20.18Zm-10.33,15.75l9.35-50.19h9.35l9.84,50.19h-8.86l-1.48-9.35h-8.86l-1.48,9.35h-7.87Z"/><path class="cls-1" d="M80.21,24.61v15.75h2.95c2.95,0,3.94-1.48,3.94-3.94v-7.38c0-2.95-1.48-3.94-3.94-3.94h-2.95v-.49Zm0,20.18v23.13h-8.37V17.72h12.3c8.37,0,11.81,4.43,11.81,11.32v6.4c0,5.41-1.97,8.37-6.89,9.84l7.87,22.64h-8.86l-7.87-23.13Z"/><path class="cls-1" d="M113.67,41.34h11.81v26.57h-5.91v-5.41c-.98,3.94-3.44,5.91-7.87,5.91-7.38,0-10.33-5.91-10.33-13.29V31c0-7.87,3.94-13.29,12.79-13.29,9.35,0,11.81,5.41,11.81,12.79v4.43h-7.87v-4.92c0-2.95-.98-4.92-4.43-4.92-2.95,0-4.43,1.97-4.43,4.92v27.07c0,2.95,1.48,4.92,3.94,4.92,2.95,0,3.94-1.48,3.94-4.92v-9.35h-3.94v-6.4h.49Z"/><polygon class="cls-1" points="132.37 17.72 152.55 17.72 152.55 24.61 140.74 24.61 140.74 38.88 149.11 38.88 149.11 45.77 140.74 45.77 140.74 61.02 152.55 61.02 152.55 67.91 132.37 67.91 132.37 17.72"/><polygon class="cls-1" points="156.49 17.72 178.63 17.72 178.63 24.61 171.74 24.61 171.74 67.91 163.38 67.91 163.38 24.61 156.49 24.61 156.49 17.72"/><polygon class="cls-1" points="369.07 17.72 369.07 67.91 360.71 67.91 360.71 29.53 354.8 35.43 354.8 27.07 362.68 18.21 369.07 18.21 369.07 17.72"/><polygon class="cls-1" points="374.98 17.72 396.14 17.72 396.14 25.59 385.31 67.91 376.95 67.91 388.26 24.61 375.47 24.61 375.47 17.72 374.98 17.72"/><path class="cls-1" d="M409.42,36.91c3.44,0,5.91,2.95,5.91,5.91,0,3.44-2.95,5.91-5.91,5.91-3.44,0-5.91-2.95-5.91-5.91s2.95-5.91,5.91-5.91"/><path class="cls-1" d="M431.57,29.03v8.86c0,3.44,.98,4.92,3.94,4.92,2.46,0,3.94-1.97,3.94-4.43v-9.35c0-2.95-.98-4.92-3.94-4.92s-3.94,1.97-3.94,4.92m16.24,1.48v24.11c0,7.87-3.44,13.29-12.3,13.29-9.35,0-11.81-4.92-11.81-12.3v-2.46h7.87v3.44c0,2.95,.98,4.92,3.94,4.92s4.43-1.97,4.43-4.92v-10.83c-1.48,2.46-3.44,3.94-6.89,3.94-5.91,0-9.35-3.94-9.35-12.3v-7.38c0-7.87,3.44-12.79,12.3-12.79,8.37,0,11.81,5.91,11.81,13.29"/><g><rect class="cls-1" y="101.86" width="466.51" height="466.51"/><path class="cls-2" d="M143.69,282.96c4.43-7.87,10.33-14.76,16.73-21.16l-54.13-59.54c-13.78,13.29-25.1,28.05-34.45,44.78l71.85,35.92Z"/><path class="cls-2" d="M276.56,240.64c8.37,3.94,15.75,8.37,22.64,14.27l54.13-59.54c-14.27-12.3-30.51-22.64-48.23-30.02l-28.54,75.29Z"/><path class="cls-2" d="M401.06,258.84l-71.85,35.92c3.44,8.37,5.91,16.73,7.38,25.59l80.21-7.38c-2.46-19.19-7.87-37.4-15.75-54.13"/><path class="cls-2" d="M323.8,283.94l71.85-35.92c-8.86-16.73-20.18-31.49-33.46-44.78l-54.13,59.54c6.4,6.4,11.81,13.78,15.75,21.16"/><path class="cls-2" d="M129.42,335.12v-4.92l-79.72-6.89c0,3.94-.49,7.87-.49,11.81,0,15.26,1.97,30.02,5.41,44.78l77.26-22.14c-1.48-7.38-2.46-14.76-2.46-22.64"/><path class="cls-2" d="M313.96,401.06c-5.91,6.89-12.3,13.29-19.68,18.21l42.32,68.4c15.75-10.83,29.53-23.62,41.34-38.38l-63.97-48.23Z"/><path class="cls-2" d="M337.58,335.12c0,7.38-.98,14.76-2.46,22.14l77.26,22.14c3.44-14.27,5.41-29.53,5.41-44.29,0-3.94,0-7.38-.49-11.32l-80.21,7.38c0,1.48,0,2.95,.49,3.94"/><path class="cls-2" d="M154.52,402.54l-63.97,48.23c11.81,14.76,26.08,27.56,41.83,37.89l42.32-68.4c-7.87-4.92-14.27-10.83-20.18-17.72"/><path class="cls-2" d="M130.9,318.88c1.48-8.86,3.94-17.72,7.87-25.59l-71.85-35.92c-7.87,17.22-13.29,35.43-15.75,54.62l79.72,6.89Z"/><path class="cls-2" d="M326.75,494.07l-42.32-68.4c-7.87,4.43-16.24,7.38-24.6,9.84l14.76,79.23c18.21-3.94,35.92-11.32,52.16-20.67"/><path class="cls-2" d="M332.17,368.58c-2.95,8.37-6.4,15.75-11.32,23.13l64.46,48.23c10.33-15.25,18.7-31.49,24.11-49.21l-77.26-22.14Z"/><path class="cls-2" d="M248.51,438.46c-4.92,.49-9.84,.98-14.76,.98-3.94,0-7.87,0-12.3-.98l-14.76,79.23c8.86,1.48,18.21,1.97,27.07,1.97,9.84,0,20.18-.98,30.02-2.46l-15.25-78.74Z"/><path class="cls-2" d="M240.14,231.78c8.86,.49,17.22,2.46,25.59,4.92l29.03-75.29c-17.72-6.4-35.92-9.84-54.62-10.33v80.7Z"/><path class="cls-2" d="M210.13,436.49c-8.86-1.97-17.22-5.41-25.59-9.84l-42.81,68.89c16.73,9.35,34.45,16.24,53.15,20.18l15.26-79.23Z"/><path class="cls-2" d="M202.25,236.21c8.37-2.95,17.22-4.43,26.08-4.92v-80.21c-18.7,.49-37.4,3.94-55.11,9.84l29.03,75.29Z"/><path class="cls-2" d="M147.14,393.68c-5.41-7.38-9.35-15.75-12.3-24.6l-77.26,22.14c5.91,18.21,14.27,35.43,25.59,51.18l63.97-48.72Z"/><path class="cls-2" d="M169.28,253.92c6.89-5.41,14.27-9.84,22.14-13.29l-29.03-74.8c-17.22,7.38-32.97,17.22-47.24,29.03l54.13,59.05Z"/><path class="cls-2" d="M234.24,386.3c-27.56,0-49.7-22.14-49.7-49.7s22.14-49.7,49.7-49.7,49.7,22.14,49.7,49.7-22.14,49.7-49.7,49.7m79.72-59.05c0-1.97-1.97-3.94-3.94-3.44h-5.91c-2.46,0-4.43-.49-4.92-2.95-.98-3.94-2.46-7.87-3.94-11.32-.98-1.97-.49-4.43,1.48-5.91l4.92-4.43c1.48-.98,1.97-3.44,.98-4.92-2.46-4.43-5.41-8.86-8.86-12.3-1.48-1.48-3.94-1.97-5.41-.49l-4.92,3.44c-1.97,1.48-3.94,1.97-5.91,.49-3.44-2.46-7.38-5.41-9.84-6.89-1.97-.98-2.95-3.44-2.46-5.41,.49-2.46,.98-3.94,1.48-6.4,.49-1.97-.49-3.94-2.46-4.92-4.43-1.97-9.35-3.44-14.27-4.43-1.97-.49-4.43,.49-4.92,2.46-.98,1.97-1.48,3.44-1.97,5.41-.49,1.97-1.97,3.94-4.43,3.94h-11.81c-1.97,0-3.94-.98-4.92-3.44-.98-1.97-1.48-3.94-2.46-5.91-.49-1.97-2.46-2.95-4.43-2.46-4.92,.98-9.84,2.46-14.27,4.92-1.97,.98-2.95,2.95-2.46,4.92,.49,1.97,.98,3.44,1.48,5.91,.49,2.46,.49,4.43-1.48,5.41-1.97,.98-6.89,4.92-9.84,7.38-1.48,1.48-3.94,1.48-5.91,.49-1.97-1.48-3.44-2.46-5.41-3.44-1.48-.98-3.44-.49-4.92,.49-3.44,3.94-6.4,7.87-8.86,12.3-.98,1.97-.49,3.94,.98,5.41l4.92,3.44c1.97,1.48,2.95,2.95,2.46,5.41-.49,2.46-2.95,8.86-3.44,11.32-.49,1.97-2.46,3.94-4.43,3.94l-6.4,.49c-1.97,0-3.44,1.48-3.94,3.44-.49,4.92-.49,10.33,0,15.25,0,1.97,1.97,3.94,3.94,3.44h5.91c1.97,0,3.94,.49,4.92,2.95,.98,3.94,1.97,7.87,3.44,12.3,.98,1.97,.49,4.43-1.48,5.91-1.97,1.48-3.44,2.95-4.92,4.43-1.48,.98-1.97,3.44-.98,4.92,2.46,4.43,5.41,8.37,8.86,12.3,1.48,1.48,3.94,1.97,5.41,.49l4.92-3.44c1.97-1.48,3.94-1.97,5.41-.49,1.48,1.48,7.38,5.41,9.84,6.89,1.97,.98,2.95,3.44,2.46,5.41-.49,1.97-.98,3.94-1.48,6.4-.49,1.97,.49,3.94,2.46,4.92,4.92,1.97,9.84,3.44,14.76,4.43,1.97,.49,4.43-.49,4.92-2.46,.98-1.97,1.48-3.44,1.97-5.41s1.97-3.94,4.43-3.94h11.81c1.97,0,3.94,.98,4.92,3.44,.98,1.97,1.48,3.94,2.46,5.91,.49,1.97,2.46,2.95,4.43,2.46,4.92-.98,9.84-2.46,14.27-4.92,1.97-.98,2.95-2.95,1.97-4.92-.49-1.97-.98-3.44-1.48-5.91-.49-2.46-.98-4.43,1.48-5.41,2.46-.98,7.38-5.41,9.84-6.89,1.48-1.48,3.94-1.48,5.91-.49,1.97,1.48,3.44,1.97,5.41,3.44,1.48,.98,3.94,.98,5.41-.49,2.95-3.94,5.91-8.37,7.87-12.79,.98-1.97,.49-4.43-.98-5.41-1.48-1.48-2.95-2.46-4.92-3.44-1.97-.98-2.95-2.95-1.97-5.41,.98-2.46,2.95-8.86,3.44-11.32,.49-1.97,2.46-3.94,4.43-3.94l6.4-.49c1.97,0,3.44-1.48,3.94-3.44,1.48-6.4,1.48-11.32,.98-16.24"/><path class="cls-2" d="M197.82,322.32c.98,.98,1.97,0,2.46-.49,.49-.49,.49-1.48,0-1.97,0-.49,.49-.98,.98-.98,.98-.49,2.46-1.48,3.44-1.97,1.97-.49,4.43-.49,6.4,0,1.48,.98,3.44,.49,4.43-.98,.98-.98,1.97-1.97,3.44-2.46,.49-.49-1.48-2.46-3.44,0-1.97,2.46-2.46,2.46-3.44,2.46s-5.91-1.48-6.4-2.95c-.49-1.48,1.48-2.95,3.44-3.44,2.95-.49,5.41-.98,8.37-.98,2.46-.49,5.91-1.97,7.87-.49s-7.38,2.95-4.43,4.92c.98,.49,5.91-2.46,7.38-3.44,3.94-1.97-3.44-2.46-2.46-6.4s-8.86-2.95-13.78-2.46c-2.46,1.48-4.92,3.44-6.89,5.41,.49,0,1.48,.49,1.48,.98,0,.98,0,1.97-.49,2.95-1.48,1.48-2.95,1.97-4.92,1.97q-.49,0-.98-.49c-.98,.98-1.48,1.97-2.46,2.95,.98-.49,1.97-.98,3.44-.98,.98,0,2.46,.49,2.46,.98s-2.46,1.97-3.44,2.46c-1.48,1.48-3.94,4.43-5.41,4.43h-.98c-.49,.98-.98,1.97-.98,2.95,.98-2.46,2.95-2.46,4.92-1.97"/><path class="cls-2" d="M270.16,346.93c-1.48,.49-2.95,.49-3.94-.49-.98-.98,.98-2.46,1.48-2.46,1.48,0,3.44,1.97,2.46,2.95m-5.91-5.91c-.49-.98,.49-1.48,1.48-1.48,.98,.49,1.97,1.48,1.97,2.46,0,.49-1.97,.49-2.46,.49s-.49,0-.98-1.48m-17.72,1.97c-1.48,.49-2.95,.49-3.94-.49-.98-.98,.49-2.46,1.48-2.46s2.95,1.97,2.46,2.95m-18.21,8.37c-.49,.98-2.46,8.37-3.44,7.38-.98-.98,.49-8.37,.98-8.86,1.48-3.44,5.41-2.95,2.46,1.48m41.34-17.22c-1.48,.98-2.95,1.48-4.43,1.97-1.48,1.48-2.46,3.44-2.46,5.41,.49,1.48,4.43,6.4,1.48,5.91-2.95-1.48-4.92-3.44-6.89-5.91-.98-2.46-1.97-4.92-2.46-6.4-.49-1.48-1.97-1.97-3.44-1.48-.49,0-.49,.49-.98,.49-1.48,.98,.49,1.97-.49,4.43-.98,2.46-1.97,4.43-3.44,2.46-4.43-4.92-10.33-2.46-11.32-7.87-.49-2.95-2.95-2.46-4.92-4.43-1.97-1.97-3.44-2.46-3.94-1.48-.49,.98,6.89,6.4,7.38,7.87,.98,1.97-1.97,3.94-3.94,4.43-1.97,.49-2.95-.98-4.92-3.44-1.97-2.46-2.95-3.44-2.95-1.97,0,2.95,1.48,5.41,3.94,7.38,1.97,.98,3.94,1.48,2.95,3.44-.98,1.97,0,.98-1.97,2.95-1.97,.98-2.46,3.44-2.46,5.41,0,2.95-.49,2.95-.98,5.41-.49,2.46-1.48,.49-2.46,3.44-.49,1.97-1.48,3.94-2.46,5.41-1.48,1.48-3.94,2.46-5.91,1.97-1.97,0-2.46-5.41-2.46-8.37,0-.98-1.48,1.97-1.97-3.94-.49-3.44-2.95,.49-2.95-1.97s-1.48-1.97-2.46-3.44c-.98-1.48-2.95,0-4.43,.98-1.48,.98-.98,.98-3.44,.49,4.92,12.3,15.25,21.16,28.05,25.1-.49-.49-.98-1.48-.49-1.97,1.97-2.95,4.92-4.92,8.86-4.92,6.89-.49,16.24,4.43,17.72,3.94,1.48-.49,4.43-4.92,8.86-4.43,1.48,0,2.95,.49,3.94,.98,1.48-.98,2.95-2.46,4.43-3.94-.49,0-.98-.49-1.48-.49-2.46-.98-1.97,.49-3.44,0-1.48-.49,1.48-2.95-2.46-.98-3.94,1.97-2.46-.49-3.94-4.43-.98-3.94,.98-7.87,4.43-9.35,2.46-.98,5.41-1.48,7.87-1.97,5.41-1.48,6.4-4.43,7.38-2.46l.49,.98c.49,.98,.49,1.97,.49,2.46,.98-1.97,1.48-4.43,1.97-6.4-1.48-.49-5.91-6.89-1.97-11.32,.49-.49-1.48-2.95-.98-2.95,1.48,0,3.44,.98,3.44,2.46,0-2.46-.49-4.43-.98-6.89v1.48c-.49,1.48-2.46,1.97-3.94,1.48-.49,0-.98-.49-.98-.98-.49-.49-2.46-2.46-2.46,.49s2.46,3.44,0,4.92"/><path class="cls-2" d="M195.85,327.24c2.46,.49,4.92,.98,7.38,1.97,2.46,.98,6.4,2.95,8.86,1.97,2.46-.98,2.95-1.97,2.95-2.95s-1.48-1.97-3.44-.98c-.49,.49-1.97-2.46-2.95-2.46s1.48,3.44,.49,3.94-2.46-3.44-2.95-4.43c-.49-.98-1.48-1.97-2.95-.98-2.46,2.46-6.89,2.46-7.38,2.95-.49,0-.49,.49-.98,.49-1.48,.49-2.46-.98-2.46-2.46-.49,2.46-.98,4.92-1.48,7.38v-.49c1.48-2.46,1.48-2.95,1.97-3.44,.49-.49,.98-.49,1.48-.49h1.48Z"/></g></svg>