<?xml version="1.0" encoding="UTF-8"?><svg id="Capa_1" xmlns="http://www.w3.org/2000/svg" viewBox="0 0 467 568.37"><defs><style>.cls-1{fill:#fff;}.cls-2{fill:#21803f;}</style></defs><path class="cls-2" d="M4.92,80.7H461.59V4.92H4.92V80.7Zm462.08,4.92H0V0H466.51V85.62h.49Z"/><polygon class="cls-2" points="16.73 17.72 38.88 17.72 38.88 24.6 32.48 24.6 32.48 67.91 23.62 67.91 23.62 24.6 16.73 24.6 16.73 17.72"/><path class="cls-2" d="M49.21,52.16h6.89l-3.44-20.18-3.44,20.18Zm-10.33,15.75l9.35-50.19h9.35l9.84,50.19h-8.86l-1.48-9.35h-8.86l-1.48,9.35h-7.87Z"/><path class="cls-2" d="M80.21,24.6v15.75h2.95c2.95,0,3.94-1.48,3.94-3.94v-7.38c0-2.95-1.48-3.94-3.94-3.94h-2.95v-.49Zm0,20.18v23.13h-8.37V17.72h12.3c8.37,0,11.81,4.43,11.81,11.32v6.4c0,5.41-1.97,8.37-6.89,9.84l7.87,22.64h-8.86l-7.87-23.13Z"/><path class="cls-2" d="M113.67,41.34h11.81v26.57h-5.91v-5.41c-.98,3.94-3.44,5.91-7.87,5.91-7.38,0-10.33-5.91-10.33-13.29V31c0-7.87,3.94-13.29,12.79-13.29,9.35,0,11.81,5.41,11.81,12.79v4.43h-7.87v-4.92c0-2.95-.98-4.92-4.43-4.92-2.95,0-4.43,1.97-4.43,4.92v27.07c0,2.95,1.48,4.92,3.94,4.92,2.95,0,3.94-1.48,3.94-4.92v-9.35h-3.94v-6.4h.49Z"/><polygon class="cls-2" points="132.37 17.72 152.55 17.72 152.55 24.6 140.74 24.6 140.74 38.88 149.11 38.88 149.11 45.77 140.74 45.77 140.74 61.02 152.55 61.02 152.55 67.91 132.37 67.91 132.37 17.72"/><polygon class="cls-2" points="156.49 17.72 178.63 17.72 178.63 24.6 171.74 24.6 171.74 67.91 163.38 67.91 163.38 24.6 156.49 24.6 156.49 17.72"/><polygon class="cls-2" points="368.09 17.72 368.09 67.91 359.72 67.91 359.72 29.53 353.82 35.43 353.82 27.07 361.69 18.21 368.09 18.21 368.09 17.72"/><path class="cls-2" d="M398.11,28.54v4.43c0,4.43-2.46,6.89-5.91,8.37,4.43,.98,6.4,3.94,6.4,8.37v7.38c0,6.89-3.94,11.32-12.3,11.32s-11.81-4.92-11.81-12.3v-6.4h7.87v7.38c0,2.95,.98,4.92,3.94,4.92,2.46,0,3.94-1.97,3.94-4.43v-8.37c0-2.46-.98-3.94-3.94-3.94h-3.94v-6.4h2.95c2.95,0,4.43-1.48,4.43-3.94v-5.91c0-2.95-.98-4.43-3.44-4.43s-3.44,1.97-3.44,4.92v4.92h-7.87v-4.43c0-7.38,2.95-12.79,11.81-12.79,7.87,0,11.32,4.43,11.32,11.32"/><path class="cls-2" d="M412.38,36.91c3.44,0,5.91,2.95,5.91,5.91,0,3.44-2.95,5.91-5.91,5.91-3.44,0-5.91-2.95-5.91-5.91-.49-2.95,2.46-5.91,5.91-5.91"/><path class="cls-2" d="M425.66,58.56c0-4.92,1.48-8.37,6.4-13.29l4.92-4.92c2.95-2.95,2.95-4.43,2.95-8.86v-3.44c0-2.95-1.48-3.94-2.95-3.94-1.97,0-3.44,.98-3.44,3.94v6.4h-7.87v-6.4c0-6.89,3.94-10.83,11.32-10.83s10.83,3.44,10.83,10.33v4.92c0,4.92-.98,7.87-5.41,12.79l-5.41,5.91c-1.97,2.46-3.44,3.94-3.44,7.87v2.46h13.78v6.89h-21.65v-9.84Z"/><g><rect class="cls-2" x="0" y="101.86" width="466.51" height="466.51"/><path class="cls-1" d="M319.37,210.62c-4.43,0-7.87,3.44-7.87,7.87v52.16c-.49,4.43,2.95,8.37,7.38,8.86s8.37-2.95,8.86-7.38v-53.15c-.49-4.43-3.94-8.37-8.37-8.37"/><path class="cls-1" d="M423.2,210.62c-4.43,0-7.87,3.44-7.87,7.87v52.16c-.49,4.43,2.95,8.37,7.38,8.86,4.43,.49,8.37-2.95,8.86-7.38v-53.15c-.49-4.43-3.94-8.37-8.37-8.37"/><path class="cls-1" d="M407.46,217.01h-71.85c-.98,0-1.97,.98-1.97,1.97v50.69c0,.98,.98,1.97,1.97,2.46h27.56l-3.44,201.27c0,.98,.98,1.97,1.97,1.97h19.19c.98,0,1.97-.49,1.97-1.97l-4.43-201.27h28.54c.98,0,1.97-.98,1.97-2.46v-50.69c.49-.98-.49-1.97-1.48-1.97"/><polygon class="cls-1" points="76.28 221.44 62 221.44 62 491.11 255.4 491.11 255.4 474.87 76.28 474.87 76.28 221.44"/><path class="cls-1" d="M260.32,271.15c-29.53,39.86-86.12,48.23-125.98,18.7-6.89-5.41-13.29-11.32-18.7-18.7l-.49-.98,.49-.98c30.02-39.86,86.61-48.23,126.47-18.7,6.89,5.41,13.29,11.32,18.7,18.7l.49,.98-.98,.98Zm.49,100.88c0,.49-.49,.98-1.48,.98H116.63c-.98,0-1.48-.49-1.48-.98v-23.13c0-.49,.49-.98,1.48-.98h142.71c.98,0,1.48,.49,1.48,.98v23.13Zm0,39.37c0,.49-.49,.98-1.48,.98H116.63c-.98,0-1.48-.49-1.48-.98v-23.13c0-.49,.49-.98,1.48-.98h142.71c.98,0,1.48,.49,1.48,.98v23.13ZM91.04,205.2v252.94h192.9V188.47H91.04v16.73Z"/><path class="cls-1" d="M181.58,280c0,.49-1.48,5.91-.49,6.4,.98,.49,1.97-4.43,2.46-4.92,1.97-3.94-.49-3.94-1.97-1.48"/><path class="cls-1" d="M211.11,274.59c0-.49-.98-1.48-1.48-1.97s-1.48,0-.98,.98q.49,.98,.98,.98c.49,0,1.48,.49,1.48,0"/><path class="cls-1" d="M197.33,297.23c-.98,.49-7.38-2.95-12.3-2.46-2.46,0-4.92,1.48-5.91,3.44,0,.49,0,.98,.49,1.48,9.35,2.95,19.19,.98,27.07-4.92-1.48-.49-2.46-.98-3.44-.98-2.95,0-4.92,2.46-5.91,3.44"/><path class="cls-1" d="M215.54,278.53c-.49-1.48-1.48,.98-4.92,1.97-1.97,.49-3.94,.98-5.41,1.48-2.46,.98-3.94,3.94-2.95,6.4,.98,2.46,.49,4.43,2.95,2.95,2.46-1.48,.49,.49,1.48,.49s.49-.98,2.46,0l.98,.49c2.95-2.95,5.41-6.89,6.89-10.83,0-.49,0-1.48-.49-1.97l-.98-.98Z"/><path class="cls-1" d="M218,268.68c0-1.48-1.48-1.97-2.46-1.97-.49,0,.98,1.48,.49,1.97-2.46,2.95,.98,7.87,1.48,7.87,.49-1.97,.49-3.94,.49-6.4v-1.48Z"/><path class="cls-1" d="M193.89,273.11c-.49,0-1.48,.98-.98,1.48,.98,.49,1.97,.49,2.95,0,.98,0-.49-1.48-1.97-1.48"/><path class="cls-1" d="M179.62,285.42c.49-1.48,.98-1.48,.98-3.44-.49-1.48,.49-2.95,1.48-3.94,1.48-1.48,.98-.49,1.48-1.97,.49-1.48-.98-1.48-2.46-2.46-1.48-.98-2.46-2.95-2.95-4.92,0-.98,.49,0,1.97,1.48,1.48,1.48,1.97,2.46,3.44,2.46s3.44-1.48,2.95-2.95c-.49-1.48-5.41-4.92-4.92-5.41s.98,0,2.46,.98c1.48,.98,3.44,.98,3.44,2.95,.49,3.94,4.92,1.97,7.87,5.41,.98,1.48,1.48,0,2.46-1.48,.98-1.48-.49-2.46,.49-2.95,.98-.49,1.97-.49,2.46,.49,0,0,0,.49,.49,.49,.49,1.48,.98,2.95,1.97,4.43,.98,1.97,2.95,3.44,4.92,3.94,1.97,0-.49-2.95-.98-3.94,0-1.48,.49-2.95,1.48-3.94,.98,0,2.46-.49,3.44-.98,1.97-1.48,0-1.48,0-3.44s.98-.98,1.48-.49c.49,.98,1.97,1.48,2.46,.49,.49,0,.49-.49,.98-.98v-1.48c-3.44-13.78-15.25-23.13-29.53-23.13-5.91,0-11.32,1.97-16.24,4.92,3.44,0,10.83-1.48,9.84,1.48-.98,2.95,4.43,3.44,1.97,4.43-.98,.49-4.43,2.95-4.92,2.46-1.97-.98,3.94-2.46,2.95-3.44-.98-.98-3.44,0-5.41,.49-1.97,0-3.94,.49-5.91,.98-1.48,.49-2.95,1.48-2.46,2.46,.49,.98,3.94,1.97,4.43,1.97s.98,0,2.46-1.48c1.48-1.48,2.95,0,2.46,0-.98,.49-1.48,.98-2.46,1.97-.98,.98-1.97,.98-2.95,.49-1.48-.49-2.95-.49-4.43,0-.98,.49-1.48,.98-2.46,1.48-.49,0-.98,.49-.98,.98s.49,.98,0,.98-.98,.98-1.48,.49c-.98-.49-2.46-.49-3.44,.49v.98c0,.98,.49,2.95,2.46,1.48,.49-.49,3.44-.49,5.41-1.97,.98-.98,1.97,.49,1.97,.49,0,0,1.48,2.95,1.97,2.95s-.98-2.46-.49-2.46,1.48,1.97,1.97,1.48,1.97-.49,2.46,.49c.49,.98-.98,1.48-1.97,1.97-.98,.49-4.43-.98-6.4-1.48-.98-.98-2.95-1.48-4.92-1.48l-1.97,.49s0,.49-1.48,2.46v.49c-.49,4.92,.49,10.33,2.46,14.76,1.48,.49,.98,0,2.46-.49,1.48-.49,2.46-1.48,2.95-.49,.49,.98,1.48,.98,1.97,2.46,.49,1.48,1.48-.98,1.97,1.48,.49,3.94,1.48,1.97,1.48,2.46,0,1.97,0,5.41,1.48,5.91,1.48,0,2.95-.49,3.94-1.48,.98-.98,1.48-2.46,1.97-3.94,.49-2.46,1.48-1.48,1.48-2.95"/><path class="cls-1" d="M163.87,255.89c.49-.49,2.46-.98,2.46-1.48s-.98-.98-1.97-.98-1.48,.49-2.46,.98c-.98,1.48-1.48,2.95-2.46,4.43h.98c.98,0,2.46-1.97,3.44-2.95"/><path class="cls-1" d="M212.59,277.54c.49-.49-.98-1.97-1.97-1.97s-1.48,.98-.98,1.48c.98,.98,1.97,.98,2.95,.49"/><path class="cls-1" d="M164.36,252.45c.98,0,2.46-.49,3.44-1.48,.49-.49,.49-1.48,.49-1.97s-.98-.49-.98-.49c0,0-.98,0-1.48,.49-.49,.49-1.48,1.97-1.97,2.46s-.49,.49,.49,.98"/></g></svg>