<?xml version="1.0" encoding="UTF-8"?><svg id="Capa_1" xmlns="http://www.w3.org/2000/svg" viewBox="0 0 467 568.37"><defs><style>.cls-1{fill:#fff;}.cls-2{fill:#e9a30d;}</style></defs><path class="cls-2" d="M4.92,80.7H461.59V4.92H4.92V80.7Zm462.08,4.92H0V0H466.51V85.62h.49Z"/><polygon class="cls-2" points="16.73 17.72 38.88 17.72 38.88 24.6 32.48 24.6 32.48 67.91 23.62 67.91 23.62 24.6 16.73 24.6 16.73 17.72"/><path class="cls-2" d="M49.21,52.16h6.89l-3.44-20.18-3.44,20.18Zm-10.33,15.75l9.35-50.19h9.35l9.84,50.19h-8.86l-1.48-9.35h-8.86l-1.48,9.35h-7.87Z"/><path class="cls-2" d="M80.21,24.6v15.75h2.95c2.95,0,3.94-1.48,3.94-3.94v-7.38c0-2.95-1.48-3.94-3.94-3.94h-2.95v-.49Zm0,20.18v23.13h-8.37V17.72h12.3c8.37,0,11.81,4.43,11.81,11.32v6.4c0,5.41-1.97,8.37-6.89,9.84l7.87,22.64h-8.86l-7.87-23.13Z"/><path class="cls-2" d="M113.67,41.34h11.81v26.57h-5.91v-5.41c-.98,3.94-3.44,5.91-7.87,5.91-7.38,0-10.33-5.91-10.33-13.29V31c0-7.87,3.94-13.29,12.79-13.29,9.35,0,11.81,5.41,11.81,12.79v4.43h-7.87v-4.92c0-2.95-.98-4.92-4.43-4.92-2.95,0-4.43,1.97-4.43,4.92v27.07c0,2.95,1.48,4.92,3.94,4.92,2.95,0,3.94-1.48,3.94-4.92v-9.35h-3.94v-6.4h.49Z"/><polygon class="cls-2" points="132.37 17.72 152.55 17.72 152.55 24.6 140.74 24.6 140.74 38.88 149.11 38.88 149.11 45.77 140.74 45.77 140.74 61.02 152.55 61.02 152.55 67.91 132.37 67.91 132.37 17.72"/><polygon class="cls-2" points="156.49 17.72 178.63 17.72 178.63 24.6 171.74 24.6 171.74 67.91 163.38 67.91 163.38 24.6 156.49 24.6 156.49 17.72"/><path class="cls-2" d="M423.7,55.11V31c0-7.87,3.94-13.29,12.3-13.29,9.35,0,11.81,5.41,11.81,12.79v5.91h-7.87v-7.38c0-2.95-.98-4.92-3.94-4.92s-4.43,1.97-4.43,4.92v27.07c0,2.95,1.48,4.92,4.43,4.92s3.94-1.97,3.94-4.92v-9.35h7.87v8.86c0,7.38-2.95,12.3-11.81,12.3-8.37,.49-12.3-4.92-12.3-12.79"/><path class="cls-2" d="M371.04,58.56c0-4.92,1.48-8.37,6.4-13.29l4.92-4.92c2.95-2.95,2.95-4.43,2.95-8.86v-3.94c0-2.95-1.48-3.94-2.95-3.94-1.97,0-3.44,.98-3.44,3.94v6.4h-7.87v-5.91c0-6.89,3.94-10.83,11.32-10.83s10.83,3.44,10.83,10.33v4.92c0,4.92-.98,7.87-5.41,12.79l-5.41,5.41c-1.97,2.46-3.44,3.94-3.44,7.87v2.46h13.78v6.89h-21.65v-9.35Z"/><polygon class="cls-2" points="404.01 32.48 404.01 53.15 414.84 42.81 404.01 32.48"/><g><rect class="cls-2" x="0" y="101.86" width="466.51" height="466.51"/><rect class="cls-1" x="136.8" y="450.76" width="4.92" height="49.7"/><rect class="cls-1" x="181.09" y="429.11" width="14.76" height="3.44"/><rect class="cls-1" x="254.91" y="429.11" width="14.76" height="3.44"/><rect class="cls-1" x="304.12" y="429.11" width="14.76" height="3.44"/><rect class="cls-1" x="230.3" y="429.11" width="14.76" height="3.44"/><rect class="cls-1" x="82.67" y="429.11" width="14.76" height="3.44"/><rect class="cls-1" x="328.72" y="429.11" width="14.76" height="3.44"/><rect class="cls-1" x="377.93" y="429.11" width="13.78" height="3.44"/><rect class="cls-1" x="82.67" y="359.72" width="14.76" height="3.44"/><rect class="cls-1" x="230.3" y="359.72" width="14.76" height="3.44"/><rect class="cls-1" x="304.12" y="359.72" width="14.76" height="3.44"/><rect class="cls-1" x="328.72" y="359.72" width="14.76" height="3.44"/><rect class="cls-1" x="377.93" y="359.72" width="13.78" height="3.44"/><rect class="cls-1" x="156.49" y="359.72" width="14.76" height="3.44"/><rect class="cls-1" x="107.28" y="359.72" width="14.76" height="3.44"/><rect class="cls-1" x="82.67" y="289.85" width="14.76" height="3.44"/><rect class="cls-1" x="377.93" y="289.85" width="13.78" height="3.44"/><rect class="cls-1" x="230.3" y="289.85" width="14.76" height="3.44"/><rect class="cls-1" x="304.12" y="289.85" width="14.76" height="3.44"/><rect class="cls-1" x="156.49" y="289.85" width="14.76" height="3.44"/><rect class="cls-1" x="181.09" y="289.85" width="14.76" height="3.44"/><rect class="cls-1" x="107.28" y="289.85" width="14.76" height="3.44"/><rect class="cls-1" x="131.88" y="289.85" width="14.76" height="3.44"/><rect class="cls-1" x="279.51" y="219.97" width="14.76" height="3.44"/><rect class="cls-1" x="304.12" y="219.97" width="14.76" height="3.44"/><rect class="cls-1" x="254.91" y="219.97" width="14.76" height="3.44"/><rect class="cls-1" x="82.67" y="219.97" width="14.76" height="3.44"/><rect class="cls-1" x="230.3" y="219.97" width="14.76" height="3.44"/><rect class="cls-1" x="131.88" y="219.97" width="14.76" height="3.44"/><rect class="cls-1" x="156.49" y="219.97" width="14.76" height="3.44"/><rect class="cls-1" x="205.7" y="219.97" width="14.76" height="3.44"/><rect class="cls-1" x="181.09" y="219.97" width="14.76" height="3.44"/><rect class="cls-1" x="353.33" y="219.97" width="14.76" height="3.44"/><rect class="cls-1" x="328.72" y="219.97" width="14.76" height="3.44"/><rect class="cls-1" x="107.28" y="219.97" width="14.76" height="3.44"/><path class="cls-1" d="M354.31,492.59v-60.04h13.78v-3.44h-13.78v-65.94h13.78v-3.44h-10.83c2.46-.49,4.43-1.48,6.89-2.46,.49-.49,.98-.49,1.48-.98,1.48-1.48,2.95-2.95,3.44-4.92,1.48-4.43,1.97-9.35,1.48-14.27l-1.97,.98c-4.92,2.46-9.35,5.41-13.29,9.35-1.97,2.95-2.95,6.4-2.46,10.33h-2.95c.49-3.44-.49-7.38-2.46-10.33-3.44-3.44-7.38-6.4-11.81-8.37l-2.46-1.97s-.98,11.81,2.95,17.72c.49,.49,.98,1.48,1.97,1.97,.49,.49,.98,.49,1.48,.98,2.95,1.48,6.4,2.46,9.84,2.95v132.37h-68.4v-60.53h12.79v-3.44h-12.79v-43.8h-4.92v107.28h-64.96v-60.04h8.86v-3.44h-14.76v3.44h.98v60.04H75.29v-150.09l131.39-39.86,69.88-45.77,123.02-28.54v-9.84l-8.37,1.97v-.49h-13.78v3.44h.98l-103.83,24.11-64.46,42.32h-4.92v2.95l-.98,.49-128.93,38.88V167.31h-10.83V503.91H402.54v-10.83h-48.23v-.49Z"/><path class="cls-1" d="M351.85,294.27s7.38-3.94,7.38-8.37c0-5.91-6.89-12.79-6.89-13.29,0,0-6.89,7.38-6.89,13.29-.98,4.43,4.43,7.38,6.4,8.37"/><path class="cls-1" d="M340.04,302.64s1.97,2.46,10.33,3.44c0,0,.98-7.87-1.97-11.32-3.44-3.44-7.38-6.4-11.81-8.37h-.49v3.44h-7.38v3.44h7.38v1.48c.49,2.95,1.97,5.91,3.94,7.87"/><path class="cls-1" d="M350.37,342.5s1.48-8.86-1.97-12.79c-3.44-3.94-7.38-7.38-12.3-9.84l-.98-.98c-.49,4.92-.49,10.33,.98,15.26,.49,1.48,1.48,2.95,2.95,3.94,2.95,2.46,6.89,3.94,11.32,4.43"/><path class="cls-1" d="M363.17,302.64c5.41-3.94,3.94-16.24,3.94-16.24-4.43,1.97-8.86,4.92-12.3,8.37-2.95,3.44-1.97,11.32-1.97,11.32,8.86-1.48,10.33-3.44,10.33-3.44"/><path class="cls-1" d="M355.29,311.01c-3.44,3.44-2.46,12.3-2.46,12.3,8.86-1.48,10.83-3.94,10.83-3.94,3.44-3.44,4.92-8.37,4.43-13.29v-4.43c-10.83,6.4-12.79,9.35-12.79,9.35"/><path class="cls-1" d="M364.15,338.07c5.91-3.94,3.94-18.7,3.94-18.7-11.32,6.4-13.29,10.33-13.29,10.33-2.95,3.44-1.97,12.3-1.97,12.3,9.35-.98,11.32-3.94,11.32-3.94"/><path class="cls-1" d="M339.05,272.62v-13.29c0-.49-.49-1.48-1.48-1.48-.49,0-1.48,.49-1.48,1.48v24.6l2.46,1.48v-12.79h.49Z"/><path class="cls-1" d="M341.51,284.43c.49-2.46,1.48-4.43,2.46-6.4v-23.13c0-.49-.49-1.48-1.48-1.48-.49,0-1.48,.49-1.48,1.48v29.53h.49Z"/><path class="cls-1" d="M347.91,272.62l1.97-2.46v-21.65c0-.49-.49-1.48-1.48-1.48-.49,0-1.48,.49-1.48,1.48v25.59l.98-1.48Z"/><path class="cls-1" d="M367.1,283.94v-24.6c0-.49-.49-1.48-1.48-1.48-.49,0-1.48,.49-1.48,1.48v26.08l2.95-1.48Z"/><path class="cls-1" d="M361.69,284.43h0v-29.53c0-.49-.49-1.48-1.48-1.48-.49,0-1.48,.49-1.48,1.48v23.13c1.48,1.97,2.46,3.94,2.95,6.4"/><path class="cls-1" d="M356.28,272.62v-24.6c0-.49-.49-1.48-1.48-1.48-.49,0-1.48,.49-1.48,1.48v22.14l1.97,2.46c0,.49,.49,.49,.49,.98v-.98h.49Z"/><path class="cls-1" d="M350.37,323.31s.98-8.86-2.46-12.3c-3.44-3.44-7.38-6.4-11.81-8.37l-1.48-.98v8.37c0,1.48,.49,3.44,.98,4.92,.49,1.97,1.48,3.44,2.95,4.43,.49-.49,2.95,2.46,11.81,3.94"/><path class="cls-1" d="M285.91,306.08c0-5.91-6.89-13.29-6.89-13.29,0,0-6.89,7.38-6.89,13.29,0,4.92,5.41,7.38,6.89,8.37-.49,0,6.89-3.44,6.89-8.37"/><path class="cls-1" d="M267.21,322.82s1.97,2.46,10.33,3.44c0,0,.98-7.87-2.46-11.32-3.44-3.44-7.38-6.4-11.81-8.37h-.49c0,2.95,0,5.41,.49,8.37,.49,2.95,1.48,5.91,3.94,7.87"/><path class="cls-1" d="M277.54,362.68s1.48-8.86-1.97-12.79c0,0-1.97-3.44-12.3-9.84l-.98-.98c-.49,4.92-.49,10.33,.98,15.26,.49,1.48,1.48,2.95,2.46,3.94,0,0,2.46,2.95,11.81,4.43"/><path class="cls-1" d="M277.05,380.88s.98-9.84-2.46-13.29c-3.44-3.44-7.38-6.4-11.81-8.37l-2.95-1.48v2.46h-5.41v3.44h5.41c0,3.94,.98,7.87,2.95,11.32,.49,.49,.98,1.48,1.97,1.97,3.94,2.46,7.87,3.94,12.3,3.94"/><path class="cls-1" d="M282.46,314.94c-2.95,3.44-1.97,11.32-1.97,11.32,8.37-1.48,10.33-3.44,10.33-3.44,2.46-1.97,3.94-4.92,3.94-8.37,.49-2.46,.49-5.41,0-7.87-4.92,1.97-8.86,4.92-12.3,8.37"/><path class="cls-1" d="M282.46,331.18c-3.44,3.44-2.46,12.3-2.46,12.3,8.86-1.48,10.83-3.94,10.83-3.94,1.48-.98,2.46-2.95,3.44-4.43,1.48-4.43,1.97-8.86,1.48-13.29l-1.48,.98c-4.43,1.97-8.37,4.92-11.81,8.37"/><path class="cls-1" d="M281.97,349.88c-3.44,3.44-1.97,12.79-1.97,12.79,3.94,0,7.87-1.48,11.32-3.94,1.48-.98,1.97-2.46,2.95-3.94,1.48-4.92,1.97-9.84,.98-14.76l-.98,.49c-10.33,5.91-12.3,9.35-12.3,9.35"/><path class="cls-1" d="M282.46,367.6c-3.44,3.44-2.46,13.29-2.46,13.29,4.43-.49,8.37-1.97,12.3-4.43,.49-.49,1.48-.98,1.97-1.97,2.46-5.41,3.44-11.32,2.95-17.22l-2.95,1.48c-4.43,2.46-8.37,5.41-11.81,8.86"/><path class="cls-1" d="M265.73,280v-.49c0-.49-.49-1.48-1.48-1.48s-1.48,.49-1.48,1.48v10.33h-8.37v3.44h8.37v10.83l2.46,1.48v-25.59h.49Z"/><path class="cls-1" d="M268.69,304.61c.49-2.46,1.48-4.43,2.46-6.4v-23.13c0-.49-.49-1.48-1.48-1.48s-1.48,.49-1.48,1.48c.49,0,.49,29.53,.49,29.53"/><path class="cls-1" d="M277.05,290.34v-22.14c0-.49-.49-1.48-1.48-1.48-.49,0-1.48,.49-1.48,1.48v25.59l2.95-3.44Z"/><path class="cls-1" d="M294.27,304.12v-24.6c0-.49-.49-1.48-1.48-1.48s-1.48,.49-1.48,1.48v26.08l2.95-1.48Z"/><path class="cls-1" d="M288.86,304.61h0v-29.53c0-.49-.49-1.48-1.48-1.48s-1.48,.49-1.48,1.48v23.13c1.48,1.97,2.46,4.43,2.95,6.4"/><path class="cls-1" d="M282.96,293.78v-25.59c0-.49-.49-1.48-1.48-1.48s-1.48,.49-1.48,1.48v22.14l2.95,3.44Z"/><path class="cls-1" d="M277.54,343.48s.98-8.86-2.46-12.3c-3.44-3.44-7.38-6.4-11.81-8.37l-1.48-.98v8.37c0,1.48,.49,3.44,.98,4.92,.49,1.97,1.48,3.44,2.95,4.43,.49,0,2.46,2.46,11.81,3.94"/><path class="cls-1" d="M216.03,349.88c0-5.91-6.89-13.29-6.89-13.29,0,0-6.89,7.38-6.89,13.29,0,4.43,5.41,7.38,6.89,8.37,0,0,6.89-3.94,6.89-8.37"/><path class="cls-1" d="M207.66,370.06s.98-7.87-2.46-11.32c-2.95-2.95-6.4-5.91-10.33-7.38l-1.48-.98c-.49,3.44,0,6.4,.49,9.84h-12.79v3.44h13.78c0,.49,.49,.98,.49,.98,.49,.98,.98,1.48,1.97,1.97,0,0,1.97,2.46,10.33,3.44"/><path class="cls-1" d="M205.7,393.68c-2.46-2.95-5.41-5.91-8.86-7.87-1.48-.98-2.46-1.48-4.43-2.95,0,0-1.97,14.76,3.94,18.7,.49,.49,.98,.98,1.48,.98,2.95,1.48,6.4,2.95,9.84,2.95,0,.98,1.48-7.87-1.97-11.81"/><path class="cls-1" d="M207.17,424.68s.98-9.84-1.97-13.29c-1.97-2.46-4.43-4.43-7.38-5.91-1.97-1.48-4.43-2.46-7.38-4.43,0,0-.98,15.26,4.92,19.19,.98,.98,1.97,1.48,3.44,1.97,2.46,1.48,5.41,1.97,8.37,2.46"/><path class="cls-1" d="M212.59,358.74c-2.95,3.44-2.46,11.32-2.46,11.32,8.37-1.48,10.33-3.44,10.33-3.44,2.95-2.95,4.43-6.89,4.43-10.83v-5.41c-4.43,1.97-8.86,4.92-12.3,8.37"/><path class="cls-1" d="M212.59,374.98c-3.44,3.44-2.46,12.3-2.46,12.3,8.86-1.48,10.83-3.94,10.83-3.94,1.97-1.48,2.95-3.44,3.94-5.41,.98-3.94,1.48-8.37,.98-12.3l-.98,.49c-4.43,2.46-8.86,5.41-12.3,8.86"/><path class="cls-1" d="M212.09,393.68c-3.44,3.44-1.97,12.79-1.97,12.79,3.94,0,8.37-1.97,11.32-4.43,1.48-.98,2.46-2.46,3.44-4.43,.98-4.43,1.48-9.35,.98-14.27l-.98,.49c-10.83,6.4-12.79,9.84-12.79,9.84"/><path class="cls-1" d="M212.59,411.39c-3.44,3.44-2.46,13.29-2.46,13.29,4.43-.49,8.37-1.97,12.3-4.43,.98-.49,1.48-1.48,1.97-2.46,1.97-5.41,2.95-11.32,2.46-16.73l-1.97,1.48c-4.43,2.46-8.86,5.41-12.3,8.86"/><path class="cls-1" d="M196.35,323.31c0-.49-.49-1.48-1.48-1.48s-1.48,.49-1.48,1.48v24.6l.98,.49,1.48,.98v-26.08h.49Z"/><path class="cls-1" d="M198.81,348.4h0c.49-2.46,1.48-4.43,2.46-6.4v-23.13q0-.49-.49-.98t-.98-.49-.98,.49c0,.49-.49,.49-.49,.98v29.53h.49Z"/><path class="cls-1" d="M207.17,334.13v-21.65c0-.49-.49-1.48-.98-1.48s-1.48,.49-1.48,.98v26.08l2.46-3.94Z"/><path class="cls-1" d="M224.4,323.31c0-.49-.49-1.48-1.48-1.48s-1.48,.49-1.48,1.48v26.08l2.46-1.48v-24.6h.49Z"/><path class="cls-1" d="M216.52,342.01c.98,1.97,1.97,4.43,2.46,6.4v-29.53c0-.49-.49-1.48-1.48-1.48s-1.48,.49-1.48,1.48v23.13h.49Z"/><path class="cls-1" d="M213.57,337.58v-25.59c0-.49-.49-1.48-1.48-1.48s-1.48,.49-1.48,1.48v21.65c.98,1.48,1.97,2.95,2.95,3.94"/><path class="cls-1" d="M207.66,387.28s.98-8.86-2.46-12.3c-2.46-2.95-5.91-5.41-9.35-6.89l-3.44-1.97v8.37c0,3.44,1.48,6.89,4.43,9.35-.49-.49,1.48,1.97,10.83,3.44"/><path class="cls-1" d="M146.15,371.04c0-5.91-6.89-12.79-6.89-12.79,0,0-6.89,7.38-6.89,12.79,0,4.92,5.41,7.38,6.89,8.37,0,0,6.89-3.44,6.89-8.37"/><path class="cls-1" d="M127.45,387.77s1.97,2.46,10.33,3.44c0,0,.98-7.87-2.46-11.32-3.44-3.44-7.38-6.4-11.81-8.37h-.49c0,2.95,0,5.41,.49,8.37,.49,2.95,1.97,5.91,3.94,7.87"/><path class="cls-1" d="M137.79,427.63s1.48-8.86-1.97-12.79c-3.44-3.94-7.38-7.38-12.3-9.84l-.98-.98c-.49,4.92-.49,10.33,.98,15.26,.49,1.48,1.48,2.95,2.46,3.94,3.44,2.46,7.38,3.94,11.81,4.43"/><path class="cls-1" d="M137.3,445.84s.98-9.84-2.46-13.29c-3.44-3.44-7.38-6.4-11.81-8.37l-2.95-1.48v6.89h-13.29v3.44h14.27c.49,2.46,.98,4.92,2.46,6.89,.49,.49,.98,1.48,1.97,1.97,3.44,2.46,7.87,3.94,11.81,3.94"/><path class="cls-1" d="M142.71,379.9c-2.95,3.44-2.46,11.32-2.46,11.32,8.37-1.48,10.33-3.44,10.33-3.44,3.94-2.46,4.43-9.35,4.43-13.29v-2.95c-4.43,1.97-8.86,4.92-12.3,8.37"/><path class="cls-1" d="M142.71,396.14c-3.44,3.44-2.46,12.3-2.46,12.3,8.86-1.48,10.83-3.94,10.83-3.94,1.97-1.48,2.95-3.44,3.44-5.41,.98-3.94,1.48-7.87,.98-11.81h-.49c-4.43,2.46-8.86,5.41-12.3,8.86"/><path class="cls-1" d="M142.22,414.84c-3.44,3.44-1.97,12.79-1.97,12.79,8.86-1.48,11.32-3.94,11.32-3.94,1.48-1.48,2.46-2.95,2.95-4.92,.98-4.43,1.48-9.35,.98-13.78l-.98,.49c-10.33,5.91-12.3,9.35-12.3,9.35"/><path class="cls-1" d="M142.71,432.55c-3.44,3.44-1.97,13.29-1.97,13.29,4.43-.49,8.37-1.97,11.81-4.43,.98-.49,1.48-1.48,2.46-2.46,.98-1.97,1.97-4.43,1.97-6.4h14.27v-3.44h-13.78v-6.89l-2.46,1.48c-4.43,2.46-8.86,5.41-12.3,8.86"/><path class="cls-1" d="M126.47,344.47c0-.49-.49-1.48-1.48-1.48s-1.48,.49-1.48,1.48v24.6l2.46,1.48v-26.08h.49Z"/><path class="cls-1" d="M130.41,339.05c-.49,0-1.48,.49-1.48,1.48v29.53c.49-2.46,1.48-4.43,2.46-6.4v-23.13c.49-.98,0-1.48-.98-1.48"/><path class="cls-1" d="M137.3,355.29v-21.65c0-.49-.49-1.48-1.48-1.48s-1.48,.49-1.48,1.48v25.59l2.95-3.94Z"/><path class="cls-1" d="M154.52,344.47c0-.49-.49-1.48-1.48-1.48s-1.48,.49-1.48,1.48v26.08l2.46-1.48v-24.6h.49Z"/><path class="cls-1" d="M149.11,369.56v-29.53c0-.49-.49-1.48-1.48-1.48s-1.48,.49-1.48,1.48v23.13c1.48,1.97,2.46,4.43,2.95,6.4"/><path class="cls-1" d="M143.69,358.74v-25.59c0-.49-.49-1.48-1.48-1.48-.49,0-1.48,.49-1.48,1.48v21.65l2.95,3.94Z"/><path class="cls-1" d="M137.79,408.44s.98-8.86-2.46-12.3c-3.44-3.44-7.38-6.4-11.81-8.37l-1.48-.98v8.37c0,1.48,.49,3.44,.98,4.92,.49,1.97,1.48,3.44,2.95,4.43,.98,0,2.95,2.46,11.81,3.94"/></g></svg>