<?xml version="1.0" encoding="UTF-8"?><svg id="Capa_1" xmlns="http://www.w3.org/2000/svg" viewBox="0 0 467 568.37"><defs><style>.cls-1{fill:#e63428;}.cls-2{fill:#fff;}</style></defs><path class="cls-1" d="M4.92,80.7H461.59V4.92H4.92V80.7Zm462.08,4.92H0V0H466.51V85.62h.49Z"/><polygon class="cls-1" points="16.73 17.72 38.88 17.72 38.88 24.6 32.48 24.6 32.48 67.91 23.62 67.91 23.62 24.6 16.73 24.6 16.73 17.72"/><path class="cls-1" d="M49.21,52.16h6.89l-3.44-20.18-3.44,20.18Zm-10.33,15.75l9.35-50.19h9.35l9.84,50.19h-8.86l-1.48-9.35h-8.86l-1.48,9.35h-7.87Z"/><path class="cls-1" d="M80.21,24.6v15.75h2.95c2.95,0,3.94-1.48,3.94-3.94v-7.38c0-2.95-1.48-3.94-3.94-3.94h-2.95v-.49Zm0,20.18v23.13h-8.37V17.72h12.3c8.37,0,11.81,4.43,11.81,11.32v6.4c0,5.41-1.97,8.37-6.89,9.84l7.87,22.64h-8.86l-7.87-23.13Z"/><path class="cls-1" d="M113.67,41.34h11.81v26.57h-5.91v-5.41c-.98,3.94-3.44,5.91-7.87,5.91-7.38,0-10.33-5.91-10.33-13.29V31c0-7.87,3.94-13.29,12.79-13.29,9.35,0,11.81,5.41,11.81,12.79v4.43h-7.87v-4.92c0-2.95-.98-4.92-4.43-4.92-2.95,0-4.43,1.97-4.43,4.92v27.07c0,2.95,1.48,4.92,3.94,4.92,2.95,0,3.94-1.48,3.94-4.92v-9.35h-3.94v-6.4h.49Z"/><polygon class="cls-1" points="132.37 17.72 152.55 17.72 152.55 24.6 140.74 24.6 140.74 38.88 149.11 38.88 149.11 45.77 140.74 45.77 140.74 61.02 152.55 61.02 152.55 67.91 132.37 67.91 132.37 17.72"/><polygon class="cls-1" points="156.49 17.72 178.63 17.72 178.63 24.6 171.74 24.6 171.74 67.91 163.38 67.91 163.38 24.6 156.49 24.6 156.49 17.72"/><path class="cls-1" d="M423.7,55.11V31c0-7.87,3.94-13.29,12.3-13.29,9.35,0,11.81,5.41,11.81,12.79v5.91h-7.87v-7.38c0-2.95-.98-4.92-3.94-4.92s-4.43,1.97-4.43,4.92v27.07c0,2.95,1.48,4.92,4.43,4.92s3.94-1.97,3.94-4.92v-9.35h7.87v8.86c0,7.38-2.95,12.3-11.81,12.3-8.37,.49-12.3-4.92-12.3-12.79"/><path class="cls-1" d="M393.19,44.78v12.3c0,6.89-3.44,11.32-11.81,11.32s-11.81-4.92-11.81-12.3v-5.91h7.87v6.4c0,2.95,.98,4.92,3.94,4.92,2.46,0,3.44-1.97,3.44-4.43v-12.3c0-2.95-.98-4.43-3.44-4.43s-3.94,1.48-3.94,4.43v.98h-7.87V17.72h22.14v6.89h-14.27v12.3c1.48-2.46,3.94-3.44,6.89-3.44,4.92,0,8.86,3.44,8.86,11.32"/><polygon class="cls-1" points="404.01 32.48 404.01 53.15 414.84 42.81 404.01 32.48"/><g><rect class="cls-1" y="101.86" width="466.51" height="466.51"/><path class="cls-2" d="M311.5,207.66c11.81,0,21.16-9.35,21.16-21.16s-9.35-21.16-21.16-21.16-21.16,9.35-21.16,21.16c.49,11.81,9.84,21.16,21.16,21.16"/><path class="cls-2" d="M164.36,209.14c11.32,0,20.67-9.35,20.67-20.67s-9.35-20.67-20.67-20.67-20.67,9.35-20.67,20.67,9.35,20.67,20.67,20.67"/><path class="cls-2" d="M109.25,304.12c8.86,2.46,11.32-7.38,11.32-7.38l13.78-46.75s.98-3.44,3.44-2.95c2.46,.49,1.97,4.43,1.97,4.43l-24.11,87.59h22.64v62.99c.49,5.91,5.41,10.33,11.32,9.84,5.41,0,9.84-4.43,9.84-9.84v-62.99h5.91v62.99c.49,5.91,5.41,10.33,11.32,9.84,5.41,0,9.84-4.43,9.84-9.84v-62.99h22.64l-21.65-78.74c-.98-4.92,0-9.84,1.97-14.27l14.27-25.59,26.57-44.78,31,40.84,19.19,27.07c1.97,3.44,3.44,7.38,3.44,11.32v146.64c0,6.4,5.41,11.81,11.81,11.81s11.81-5.41,11.81-11.81v-86.61c0-1.97,.98-3.44,2.95-3.44h.49c1.97,0,3.44,.98,3.44,2.95v86.61c0,6.4,5.41,11.32,11.81,11.32s11.32-5.41,11.32-11.32V251.46c0-1.48,.49-3.94,2.95-3.94,3.44,0,3.94,2.46,3.94,4.43v49.7c.49,4.43,4.43,7.87,8.86,7.38,3.94-.49,6.89-3.44,7.38-7.38v-58.07c0-14.76-11.32-26.57-25.59-28.05h-41.34c-5.91,.49-11.81-2.46-15.26-6.89l-39.86-48.72c-1.97-2.46-3.94-4.43-6.4-5.91-3.94-1.97-8.86-.49-11.32,3.44v.49l-35.92,56.1c-3.44,3.44-7.87,5.41-12.79,4.92h-31.99c-13.78,0-19.68,16.24-19.68,16.24l-17.22,56.1c.49,0-2.46,10.33,5.91,12.79"/><path class="cls-2" d="M421.23,435.51H44.78c-1.48,0-2.46,.98-2.95,2.46v17.72c0,1.48,1.48,2.95,2.95,2.95H421.73c1.48,0,2.95-.98,2.95-2.95v-17.72c-.49-.98-1.97-1.97-3.44-2.46"/><path class="cls-2" d="M230.79,467.49l-26.08,45.27c-.98,1.48,0,3.44,1.48,3.94,.49,0,.49,.49,.98,.49h52.65c1.48,0,2.95-.98,2.95-2.46,0-.49,0-1.48-.49-1.97l-26.08-45.27c-.98-1.48-2.95-1.97-4.43-.98,0,.49-.49,.98-.98,.98"/></g></svg>