<?xml version="1.0" encoding="UTF-8"?><svg id="Capa_1" xmlns="http://www.w3.org/2000/svg" viewBox="0 0 467 568.37"><defs><style>.cls-1{fill:#006da3;}.cls-2{fill:#fff;}</style></defs><path class="cls-1" d="M4.92,80.7H461.59V4.92H4.92V80.7Zm462.08,4.92H0V0H466.51V85.62h.49Z"/><polygon class="cls-1" points="16.73 17.72 38.88 17.72 38.88 24.6 32.48 24.6 32.48 67.91 23.62 67.91 23.62 24.6 16.73 24.6 16.73 17.72"/><path class="cls-1" d="M49.21,52.16h6.89l-3.44-20.18-3.44,20.18Zm-10.33,15.75l9.35-50.19h9.35l9.84,50.19h-8.86l-1.48-9.35h-8.86l-1.48,9.35h-7.87Z"/><path class="cls-1" d="M80.21,24.6v15.75h2.95c2.95,0,3.94-1.48,3.94-3.94v-7.38c0-2.95-1.48-3.94-3.94-3.94h-2.95v-.49Zm0,20.18v23.13h-8.37V17.72h12.3c8.37,0,11.81,4.43,11.81,11.32v6.4c0,5.41-1.97,8.37-6.89,9.84l7.87,22.64h-8.86l-7.87-23.13Z"/><path class="cls-1" d="M113.67,41.34h11.81v26.57h-5.91v-5.41c-.98,3.94-3.44,5.91-7.87,5.91-7.38,0-10.33-5.91-10.33-13.29V31c0-7.87,3.94-13.29,12.79-13.29,9.35,0,11.81,5.41,11.81,12.79v4.43h-7.87v-4.92c0-2.95-.98-4.92-4.43-4.92-2.95,0-4.43,1.97-4.43,4.92v27.07c0,2.95,1.48,4.92,3.94,4.92,2.95,0,3.94-1.48,3.94-4.92v-9.35h-3.94v-6.4h.49Z"/><polygon class="cls-1" points="132.37 17.72 152.55 17.72 152.55 24.6 140.74 24.6 140.74 38.88 149.11 38.88 149.11 45.77 140.74 45.77 140.74 61.02 152.55 61.02 152.55 67.91 132.37 67.91 132.37 17.72"/><polygon class="cls-1" points="156.49 17.72 178.63 17.72 178.63 24.6 171.74 24.6 171.74 67.91 163.38 67.91 163.38 24.6 156.49 24.6 156.49 17.72"/><polygon class="cls-1" points="367.1 17.72 367.1 67.91 358.74 67.91 358.74 29.53 352.83 35.43 352.83 27.07 360.71 18.21 367.1 18.21 367.1 17.72"/><path class="cls-1" d="M390.23,56.59v-8.86c0-3.44-.98-4.92-3.94-4.92-2.46,0-3.94,1.97-3.94,4.92v9.35c0,2.95,.98,4.92,3.94,4.92,2.95-.49,3.94-1.97,3.94-5.41m-16.24-1.48V30.51c0-7.87,3.44-13.29,12.3-13.29,9.35,0,11.81,5.41,11.81,12.79v2.46h-7.87v-3.44c0-2.95-.98-4.92-3.94-4.92s-3.94,1.97-3.94,4.92v10.83c1.48-2.46,3.44-3.94,6.89-3.94,5.91,0,9.35,3.94,9.35,12.3v7.38c0,7.87-3.44,12.79-12.3,12.79s-12.3-5.41-12.3-13.29"/><path class="cls-1" d="M412.38,36.91c3.44,0,5.91,2.95,5.91,5.91,0,3.44-2.95,5.91-5.91,5.91-3.44,0-5.91-2.95-5.91-5.91-.49-2.95,2.46-5.91,5.91-5.91"/><path class="cls-1" d="M425.66,58.56c0-4.92,1.48-8.37,6.4-13.29l4.92-4.92c2.95-2.95,2.95-4.43,2.95-8.86v-3.44c0-2.95-1.48-3.94-2.95-3.94-1.97,0-3.44,.98-3.44,3.94v6.4h-7.87v-6.4c0-6.89,3.94-10.83,11.32-10.83s10.83,3.44,10.83,10.33v4.92c0,4.92-.98,7.87-5.41,12.79l-5.41,5.91c-1.97,2.46-3.44,3.94-3.44,7.87v2.46h13.78v6.89h-21.65v-9.84Z"/><g><rect class="cls-1" x="0" y="101.86" width="466.51" height="466.51"/><path class="cls-2" d="M25.1,516.21s127.95-73.81,134.34-79.72c10.83-11.32,26.57-16.73,42.32-14.27,21.65,3.44,34.45,5.41,45.27,6.89,10.83,1.48,18.21,0,18.7,3.94,.98,4.92-4.92,9.84-13.78,10.83-8.86,.98-24.11-.49-27.07-.49s-5.41,.98-4.43,3.44c.98,2.46,18.21,3.44,23.62,2.95,12.3-.98,23.62-4.43,34.94-9.35,9.35-4.92,27.56-18.21,30.51-19.19,2.95-.98,8.86-3.94,10.83-.98,1.97,2.95-1.97,7.38-5.41,10.83-15.25,14.27-31.99,27.07-50.19,37.89-15.25,8.37-19.19,9.84-34.94,8.37-15.75-1.48-28.54-6.89-36.91-5.41-9.35,1.48-18.21,4.92-25.59,10.83-3.44,2.46-67.91,62.5-67.91,62.5H25.1v-29.03Z"/><path class="cls-2" d="M262.29,182.08c.98-8.37-5.41-15.75-13.78-16.73h-.98c-4.43,0-9.84,4.92-12.79,7.87-2.95-2.46-7.87-7.38-12.3-7.38-8.86,0-15.75,7.38-15.25,16.24v.49c0,4.43,1.97,8.86,4.92,11.81l22.64,22.64,23.13-23.13c2.95-2.95,4.92-6.89,4.43-11.81"/><path class="cls-2" d="M280,262.29c11.32,0,20.67-9.35,20.67-20.67s-9.35-20.67-20.67-20.67-20.67,9.35-20.67,20.67,9.35,20.67,20.67,20.67"/><path class="cls-2" d="M330.2,322.82c0-.98-6.4-15.75-7.87-20.18-12.3-31.99-14.76-31.99-26.08-32.48h-31.99c-11.32,.49-13.29,0-26.08,32.48-.98,1.97-2.95,6.89-4.92,11.81l-9.84-30.51c-2.46-5.41-6.89-8.86-12.3-10.83-3.44-.49-6.4-.49-9.84-.49h-25.59s-6.4,0-9.84,.49c-5.41,.98-9.84,5.41-11.81,10.83l-15.26,45.27s-2.46,7.38,4.43,8.86c3.94,.98,7.87-1.48,8.86-5.41l12.79-38.88s.49-2.46,2.46-1.97c1.97,.49,1.48,3.44,1.48,3.44l-.98,3.44-13.29,47.24-.49,2.46h11.32v33.95c0,5.91,4.92,10.33,10.33,10.33,5.91,0,10.33-4.92,10.33-10.33v-33.95h6.4v33.95c0,5.91,4.43,10.33,10.33,10.33s10.33-4.43,10.83-10.33v-34.45h11.32l-.49-2.46-14.27-46.75-.98-3.44s-.98-2.46,1.48-3.44c2.46-.98,2.46,1.97,2.46,1.97l12.79,38.88c1.48,2.95,4.43,5.41,7.87,5.41,5.41,0,7.87-7.87,7.87-7.87l12.79-31.49s.49-.49,.98-.49,.49,.49,.49,.98v81.69c0,5.91,4.43,10.83,10.33,11.32h.49c5.91,0,10.33-4.92,10.33-10.83v-32.97s-.49-4.92,3.44-4.92,3.44,4.92,3.44,4.92v32.48c0,5.91,4.43,10.83,10.33,11.32h.49c5.91,0,10.33-4.92,10.33-10.83v-81.69q0-.98,.49-.98c.49,0,.98,.98,.98,.98l11.32,28.05s3.44,7.38,9.84,4.43c2.46-1.97,3.94-5.91,2.46-9.35"/><path class="cls-2" d="M191.43,263.27c11.81,0,21.16-9.35,21.16-20.67s-9.35-21.16-20.67-21.16c-11.32-.98-21.16,8.37-21.16,20.18s9.35,21.16,20.67,21.65"/></g></svg>