<?xml version="1.0" encoding="UTF-8"?><svg id="Capa_1" xmlns="http://www.w3.org/2000/svg" viewBox="0 0 467 568.37"><defs><style>.cls-1{fill:#0096d6;}.cls-2{fill:#fff;}</style></defs><path class="cls-1" d="M4.92,80.7H461.59V4.92H4.92V80.7Zm462.08,4.92H0V0H466.51V85.62h.49Z"/><polygon class="cls-1" points="16.73 17.72 38.88 17.72 38.88 24.6 32.48 24.6 32.48 67.91 23.62 67.91 23.62 24.6 16.73 24.6 16.73 17.72"/><path class="cls-1" d="M49.21,52.16h6.89l-3.44-20.18-3.44,20.18Zm-10.33,15.75l9.35-50.19h9.35l9.84,50.19h-8.86l-1.48-9.35h-8.86l-1.48,9.35h-7.87Z"/><path class="cls-1" d="M80.21,24.6v15.75h2.95c2.95,0,3.94-1.48,3.94-3.94v-7.38c0-2.95-1.48-3.94-3.94-3.94h-2.95v-.49Zm0,20.18v23.13h-8.37V17.72h12.3c8.37,0,11.81,4.43,11.81,11.32v6.4c0,5.41-1.97,8.37-6.89,9.84l7.87,22.64h-8.86l-7.87-23.13Z"/><path class="cls-1" d="M113.67,41.34h11.81v26.57h-5.91v-5.41c-.98,3.94-3.44,5.91-7.87,5.91-7.38,0-10.33-5.91-10.33-13.29V31c0-7.87,3.94-13.29,12.79-13.29,9.35,0,11.81,5.41,11.81,12.79v4.43h-7.87v-4.92c0-2.95-.98-4.92-4.43-4.92-2.95,0-4.43,1.97-4.43,4.92v27.07c0,2.95,1.48,4.92,3.94,4.92,2.95,0,3.94-1.48,3.94-4.92v-9.35h-3.94v-6.4h.49Z"/><polygon class="cls-1" points="132.37 17.72 152.55 17.72 152.55 24.6 140.74 24.6 140.74 38.88 149.11 38.88 149.11 45.77 140.74 45.77 140.74 61.02 152.55 61.02 152.55 67.91 132.37 67.91 132.37 17.72"/><polygon class="cls-1" points="156.49 17.72 178.63 17.72 178.63 24.6 171.74 24.6 171.74 67.91 163.38 67.91 163.38 24.6 156.49 24.6 156.49 17.72"/><path class="cls-1" d="M432.06,45.27v15.75h3.94c2.95,0,3.94-1.48,3.94-3.94v-7.38c0-2.46-1.48-3.94-4.43-3.94h-3.44v-.49Zm0-6.4h2.95c2.95,0,3.94-1.48,3.94-3.94v-5.91c0-2.95-1.48-3.94-3.94-3.94h-2.95v13.78Zm-8.37-21.16h12.3c8.37,0,11.32,3.94,11.32,10.83v4.92c0,4.43-1.48,6.89-4.92,7.87,4.43,.98,6.4,3.94,6.4,8.37v6.4c0,6.89-2.95,10.83-11.81,10.83h-13.29V17.72Z"/><polygon class="cls-1" points="361.69 17.72 361.69 67.91 353.33 67.91 353.33 29.53 347.42 35.43 347.42 27.07 355.29 18.21 361.69 18.21 361.69 17.72"/><path class="cls-1" d="M374.49,53.15h7.87v-20.67l-7.87,20.67Zm-7.38,1.48l14.76-36.91h8.37V53.15h3.44v6.4h-3.44v8.37h-7.87v-8.37h-14.76v-4.92h-.49Z"/><polygon class="cls-1" points="404.01 32.48 404.01 53.15 414.84 42.81 404.01 32.48"/><g><rect class="cls-1" y="101.86" width="466.51" height="466.51"/><path class="cls-2" d="M210.62,494.07c-2.95,0-5.41-2.46-5.41-5.41s2.46-5.41,5.41-5.41,5.41,2.46,5.41,5.41-2.46,5.41-5.41,5.41m23.13-2.46c-1.97-2.95-14.76-19.19-32.97-19.19-15.75,0-32.48,14.27-32.48,14.27-3.94-7.38-10.83-12.79-19.19-14.27h-.49c-.49,0-.49,.49-.49,.49v.49c3.44,5.41,5.41,11.81,5.91,18.7-.49,6.4-2.46,12.79-5.91,18.21v.49q0,.49,.49,.49c8.37-1.48,15.25-6.89,19.19-14.27,0,0,16.73,14.27,32.48,14.27,18.21,0,31.49-16.73,33.46-19.68"/><path class="cls-2" d="M113.18,494.07c-2.95,0-5.41-2.46-5.41-5.41s2.46-5.41,5.41-5.41,5.41,2.46,5.41,5.41-2.46,5.41-5.41,5.41m23.13-2.46c-1.97-2.95-14.76-19.19-32.97-19.19-15.75,0-32.48,14.27-32.48,14.27-3.94-7.38-10.83-12.79-19.19-14.27h-.49c-.49,0-.49,.49-.49,.49v.49c3.44,5.41,5.41,11.81,5.91,18.7-.49,6.4-2.46,12.79-5.91,18.7v.49q0,.49,.49,.49h.49c8.37-1.48,15.25-6.89,19.19-14.27,0,0,16.73,14.27,32.48,14.27,18.21,0,31-16.24,32.97-19.19v-.98Z"/><path class="cls-2" d="M306.08,494.07c-2.95,0-5.41-2.46-5.41-5.41s2.46-5.41,5.41-5.41,5.41,2.46,5.41,5.41-2.46,5.41-5.41,5.41m23.13-2.46c-1.97-2.95-14.76-19.19-32.97-19.19-15.75,0-32.48,14.27-32.48,14.27-3.94-7.38-10.83-12.79-19.19-14.27h-.49c-.49,0-.49,.49-.49,.49v.49c3.44,5.41,5.41,11.81,5.91,18.7-.49,6.4-2.46,12.79-5.91,18.7v.49q0,.49,.49,.49h.49c8.37-1.48,15.25-6.89,19.19-14.27,0,0,16.73,14.27,32.48,14.27,18.21,0,31-16.24,32.97-19.19v-.98Z"/><path class="cls-2" d="M403.03,494.07c-2.95,0-5.41-2.46-5.41-5.41s2.46-5.41,5.41-5.41,5.41,2.46,5.41,5.41c-.49,2.95-2.46,5.41-5.41,5.41m22.64-2.46c-1.97-2.95-14.76-19.19-32.97-19.19-15.75,0-32.48,14.27-32.48,14.27-3.94-7.38-10.83-12.79-19.19-14.27h-.49c-.49,0-.49,.49-.49,.49v.49c3.44,5.41,5.41,11.81,5.91,18.7-.49,6.4-2.46,12.79-5.91,18.7v.49q0,.49,.49,.49c8.37-1.48,15.26-6.89,19.19-14.27,0,0,16.73,14.27,32.48,14.27,18.21,0,31-16.24,32.97-19.19q.49-.49,.49-.98"/><path class="cls-2" d="M358.74,355.29c-5.41,0-9.84,4.43-9.84,9.84s4.43,9.84,9.84,9.84,9.84-4.43,9.84-9.84-4.43-9.84-9.84-9.84"/><path class="cls-2" d="M319.86,319.37h-32.48v-31.49h38.88l-6.4,31.49Zm-38.38,0h-26.08v-31.49h26.08v31.49Zm-70.37-39.37v66.93h82.67l5.41-15.25h95.47v-10.83h-63.97l8.86-40.35-128.44-.49Z"/><rect class="cls-2" x="211.11" y="263.27" width="116.13" height="12.3"/><path class="cls-2" d="M358.74,379.9c-8.37,0-14.76-6.4-14.76-14.76s6.4-14.76,14.76-14.76,14.76,6.4,14.76,14.76-6.4,14.76-14.76,14.76m-154.52-26.57h-17.72l17.72-119.09v119.09Zm-34.45,0h-6.4l-1.48-7.87h-10.83c0-9.35-7.38-17.22-16.73-17.72v-18.7h5.41v-3.44h-14.76v3.44h5.41v19.19h-.49L46.26,238.17c27.56,6.4,106.78,17.22,156.49-8.86l-.98,10.33-16.73,113.67h-15.25Zm-52.16-15.25l-59.05-82.67,68.4,73.32c-4.43,1.97-7.38,5.41-9.35,9.35m185.52-1.48l-5.91,16.73h-89.56v-125.98h5.41v-4.43h-5.41v-63.48h-3.44v62.99h-5.91v4.43h3.94c-50.19,26.57-132.87,14.76-157.96,8.37h-.49l-.98,2.95v8.86h-.49v4.43h.49v2.95c-.98,1.48-1.97,2.95-1.97,4.92,0,1.48,.49,2.46,.98,3.44,.49,.49,1.48,.98,1.97,.98,1.97,0,3.44-1.97,2.95-3.44v-.98h-1.48v.98c0,.98-.49,1.97-1.48,1.97q-.49,0-.98-.49c-.49-.49-.49-1.48-.49-2.46,.49-1.48,.98-2.95,1.97-3.94v-3.44h.49v-4.43h-.49v-4.92l2.95,1.97,68.89,96.94c0,.98-.49,2.46-.49,3.44h-28.54l10.33,63.97c14.76-1.97,28.54-8.86,38.88-19.19l.98-.98h1.48c.49,0,.98,.49,.98,.98,9.84,7.38,55.61,38.38,95.96,.49l.49-.49c.49-.49,.98-.49,1.48-.49s.98,.49,1.48,.49l.49,.49c40.84,37.89,86.12,6.89,95.96-.49q.49-.49,.98-.98h1.48l.98,.98c9.84,9.84,22.14,16.24,35.92,18.7l35.92-72.34-107.77,.49Z"/><path class="cls-2" d="M426.65,419.27c0-.98-.98-1.97-1.97-1.97h-.49l-.98,.49c-27.07,14.76-60.04,10.33-82.18-11.32l-.98-.98h-1.97c-.49,0-.98,.49-.98,.98-9.84,7.87-55.61,38.38-95.96,.49h-.98c-.49-.49-.98-.49-1.48-.49s-.98,.49-1.48,.49h-.49c-40.35,37.89-86.12,6.89-95.96-.49q-.49-.49-.98-.98h-1.48c0,.49-.49,.98-.98,1.48-21.65,21.16-55.11,26.08-81.69,11.32l-.98-.49h-1.97c-.98,0-1.97,.98-1.97,1.97v16.24c0,.49,0,.98,.49,1.48,38.38,33.46,74.8,1.97,83.66-6.4,0-.49,.49-.49,.49-.49,.49-.49,.98-.49,.98-.49,.49,0,.98,0,1.48,.49,43.3,41.34,89.07,7.87,98.42,0l.98-.98h1.97l.98,.98c9.35,7.87,55.11,41.34,98.42,0,.49-.49,.98-.49,1.48-.49s.98,0,.98,.49c.49,0,.49,.49,.49,.49,8.37,8.37,44.78,39.86,83.66,6.4,.49-.49,.49-.98,.49-1.48l.98-16.73q0,.49,0,0"/></g></svg>