<?xml version="1.0" encoding="UTF-8"?><svg id="Capa_1" xmlns="http://www.w3.org/2000/svg" viewBox="0 0 467 568.37"><defs><style>.cls-1{fill:#fff;}.cls-2{fill:#24a038;}</style></defs><path class="cls-2" d="M4.92,80.7H461.59V4.92H4.92V80.7Zm462.08,4.92H0V0H466.51l.49,85.62Z"/><polygon class="cls-2" points="16.73 17.72 38.88 17.72 38.88 24.6 32.48 24.6 32.48 67.91 23.62 67.91 23.62 24.6 16.73 24.6 16.73 17.72"/><path class="cls-2" d="M49.21,52.16h6.89l-3.44-20.18-3.44,20.18Zm-10.33,15.75l9.35-50.19h9.35l9.84,50.19h-8.86l-1.48-9.35h-8.86l-1.48,9.35h-7.87Z"/><path class="cls-2" d="M80.21,24.6v15.75h2.95c2.95,0,3.94-1.48,3.94-3.94v-7.38c0-2.95-1.48-3.94-3.94-3.94l-2.95-.49Zm0,20.18v23.13h-8.37V17.72h12.3c8.37,0,11.81,4.43,11.81,11.32v6.4c0,5.41-1.97,8.37-6.89,9.84l7.87,22.64h-8.86l-7.87-23.13Z"/><path class="cls-2" d="M113.67,41.34h11.81v26.57h-5.91v-5.41c-.98,3.94-3.44,5.91-7.87,5.91-7.38,0-10.33-5.91-10.33-13.29V31c0-7.87,3.94-13.29,12.79-13.29,9.35,0,11.81,5.41,11.81,12.79v4.43h-7.87v-4.92c0-2.95-.98-4.92-4.43-4.92-2.95,0-4.43,1.97-4.43,4.92v27.07c0,2.95,1.48,4.92,3.94,4.92,2.95,0,3.94-1.48,3.94-4.92v-9.35h-3.94v-6.4h.49Z"/><polygon class="cls-2" points="132.37 17.72 152.55 17.72 152.55 24.6 140.74 24.6 140.74 38.88 149.11 38.88 149.11 45.77 140.74 45.77 140.74 61.02 152.55 61.02 152.55 67.91 132.37 67.91 132.37 17.72"/><polygon class="cls-2" points="156.49 17.72 178.63 17.72 178.63 24.6 171.74 24.6 171.74 67.91 163.38 67.91 163.38 24.6 156.49 24.6 156.49 17.72"/><path class="cls-2" d="M423.7,55.11V31c0-7.87,3.94-13.29,12.3-13.29,9.35,0,11.81,5.41,11.81,12.79v5.91h-7.87v-7.38c0-2.95-.98-4.92-3.94-4.92s-4.43,1.97-4.43,4.92v27.07c0,2.95,1.48,4.92,4.43,4.92s3.94-1.97,3.94-4.92v-9.35h7.87v8.86c0,7.38-2.95,12.3-11.81,12.3-8.37,.49-12.3-4.92-12.3-12.79"/><path class="cls-2" d="M392.69,28.54v4.43c0,4.43-2.46,6.89-5.91,8.37,4.43,.98,6.4,3.94,6.4,8.37v7.38c0,6.89-3.94,11.32-12.3,11.32s-11.81-4.92-11.81-12.3v-6.4h7.87v7.38c0,2.95,.98,4.92,3.94,4.92,2.46,0,3.94-1.97,3.94-4.43v-8.37c0-2.46-.98-3.94-3.94-3.94h-3.44v-6.4h2.95c2.95,0,4.43-1.48,4.43-3.94v-6.4c0-2.95-.98-4.43-3.44-4.43s-3.94,1.97-3.94,4.92v4.92h-7.87v-4.43c0-7.38,2.95-12.79,11.81-12.79,7.87,.49,11.32,4.92,11.32,11.81"/><polygon class="cls-2" points="404.01 32.48 404.01 53.15 414.84 42.81 404.01 32.48"/><g><rect class="cls-2" x="0" y="101.86" width="466.51" height="466.51"/><path class="cls-1" d="M136.8,303.62c-27.56,0-49.21-22.14-49.21-49.7s22.14-49.21,49.7-49.21,49.21,22.14,49.21,49.7-22.14,49.21-49.7,49.21m79.72-59.05c0-1.97-1.97-3.94-3.94-3.44h-5.91c-1.97,0-4.43-.49-4.92-2.95-.98-3.94-2.46-7.38-3.94-11.32-.98-1.97-.49-4.43,1.48-5.91,1.97-1.48,3.44-2.46,4.92-4.43,1.48-.98,1.97-3.44,.98-4.92-2.46-4.43-5.41-8.37-8.86-12.3-1.48-1.48-3.94-1.97-5.41-.49-1.97,.98-2.95,1.97-4.92,3.44-1.97,1.48-3.94,1.97-5.41,.49-3.44-2.46-7.38-5.41-9.84-6.89-1.97-1.48-2.46-3.44-1.97-5.41,.49-2.46,.98-3.94,1.48-6.4,.49-1.97-.49-3.94-2.46-4.92-4.43-1.97-9.35-3.44-14.27-4.43-1.97-.49-3.94,.49-4.92,2.95-.98,1.97-1.48,3.44-1.97,5.41-.49,1.97-1.97,3.94-4.43,3.94h-11.81c-1.97,0-3.94-.98-4.92-2.95-.98-1.97-1.48-3.94-2.46-5.91-.49-1.97-2.46-2.95-4.43-2.46-4.92,.98-9.84,2.46-14.27,4.92-1.97,.49-2.95,2.95-2.46,4.92,0,0,0,.49,.49,.49,.49,1.97,.98,3.44,1.48,5.91,.49,2.46,.49,4.43-1.48,5.41-1.97,.98-6.89,4.92-9.35,6.89-1.48,1.48-3.94,1.48-5.91,.49s-3.44-2.46-5.41-3.44c-1.48-.98-3.94-.98-4.92,.49-4.43,3.44-6.89,7.38-9.35,12.3-.98,1.97-.49,3.94,.98,5.41,1.97,1.48,2.95,2.46,4.92,3.44,1.97,.98,2.95,2.95,1.97,5.41-.98,2.46-2.95,8.86-3.44,11.32-.49,1.97-2.46,3.44-4.43,3.94-2.46,0-4.43,.49-6.4,.49s-3.44,1.48-3.94,3.44c-.49,4.92-.49,10.33,.49,15.25,0,1.97,1.97,3.94,3.94,3.44h5.91c2.46,0,4.43,.49,4.92,2.95,.98,3.94,2.46,7.87,3.94,11.32,.98,1.97,.49,4.43-1.48,5.91-1.97,1.48-2.95,2.46-4.92,3.94-1.48,.98-1.97,3.44-.98,4.92,2.46,4.43,5.41,8.86,8.86,12.3,1.48,1.48,3.94,1.97,5.41,.49,1.97-.98,2.95-1.97,4.92-3.44,1.97-1.48,3.94-1.97,5.41-.49,1.48,1.48,7.38,5.41,9.84,6.89,1.97,.98,2.95,3.44,2.46,5.41-.49,1.97-.98,3.94-1.48,6.4-.49,1.97,.49,3.94,2.46,4.92,4.43,1.97,9.35,3.44,14.27,4.43,1.97,.49,4.43-.49,4.92-2.46,.98-1.97,1.48-3.44,1.97-5.41,.49-1.97,1.97-3.94,4.43-3.94h11.81c1.97,0,3.94,.98,4.92,2.95,.98,1.97,1.48,3.94,2.46,5.91,.49,1.97,2.46,2.95,4.43,2.46,4.92-.98,9.84-2.46,14.27-4.92,1.97-.98,2.95-2.95,1.97-4.92-.49-1.97-.98-3.44-1.48-5.91-.49-2.46-.98-3.94,1.48-5.41,2.46-1.48,7.38-5.91,9.35-7.38,1.48-1.48,3.94-1.48,5.91-.49,1.97,1.48,3.44,1.97,5.41,3.44,1.48,.98,3.44,.49,4.92-.49,3.44-3.94,6.4-7.87,8.86-12.3,1.48-1.48,.98-3.94-.98-5.41-1.48-1.48-2.95-2.46-4.43-3.44s-2.95-2.95-2.46-5.41c.49-2.46,2.95-8.37,3.44-11.32,.49-1.97,2.46-3.94,4.43-3.94,2.46,0,3.94-.49,6.4-.49,1.97,0,3.44-1.48,3.94-3.44,.49-4.92,.49-10.33-.49-15.26"/><path class="cls-1" d="M100.39,240.14c.98,.98,1.97,0,2.46-.49,.49-.49,.49-1.48,0-1.97,0-.49,.49-.98,.98-.98,.98-.49,2.46-.98,3.44-1.97,1.97-.49,4.43-.49,6.89,0,1.48,.98,3.44,.49,4.43-.98,.98-.98,1.97-1.97,2.95-2.46,.49-.49-1.48-2.46-3.44,0-1.97,2.46-2.95,2.46-3.44,2.46s-5.91-1.48-6.4-2.95c-.49-1.48,1.48-2.95,3.44-3.94,2.95-.49,5.41-.98,8.37-.98,2.46-.49,5.91-1.97,7.87-.98,1.97,.98-7.38,2.95-4.43,4.92,.98,.49,5.91-2.46,7.38-3.44,3.94-1.97-3.44-2.46-2.46-6.4,.98-3.94-8.86-2.95-13.78-2.46-2.46,1.48-4.92,3.44-6.89,5.41,.49,0,1.48,.49,1.48,.98,0,.98,0,1.97-.49,2.95-1.48,1.48-2.95,1.97-4.92,1.97q-.49,0-.98-.49c-.98,.98-1.48,1.97-2.46,2.95,.98-.49,1.97-.98,3.44-.98,.98,0,2.46,.49,2.46,.98s-2.46,1.97-3.44,2.46c-1.48,1.48-3.94,4.43-5.41,4.43h-.98c-.49,.98-.49,1.97-.98,2.95,1.48-1.48,3.44-1.48,4.92-.98"/><path class="cls-1" d="M173.22,264.75c-1.48,.49-2.95,.49-3.94-.49-.98-.98,.98-2.46,1.48-2.46,.98,0,2.95,1.97,2.46,2.95m-5.91-5.91c-.49-.98,.49-1.48,1.48-1.48s1.97,1.97,1.97,2.95-1.97,.49-2.46,.49-.98-.98-.98-1.97m-18.21,1.48c-1.48,.49-2.95,.49-3.94-.49-.98-.98,.49-2.46,1.48-2.46,.98,.49,3.44,2.46,2.46,2.95m-17.72,8.86c-.49,.98-2.46,8.37-3.44,7.38-.98-.98,.49-8.37,.98-8.86,1.48-3.44,4.92-3.44,2.46,1.48m40.84-17.22c-1.48,.98-2.95,1.48-4.43,1.97-1.48,1.48-2.46,3.44-2.46,5.41,.49,1.48,4.43,6.4,1.48,5.91-2.95-1.48-4.92-3.44-6.89-5.91-.98-2.46-1.97-4.92-2.46-6.4-.49-1.48-1.97-1.97-3.44-1.48-.49,0-.49,.49-.98,.49-1.48,.98,.49,1.97-.49,4.43-.98,2.46-1.97,4.43-3.44,2.46-4.43-4.92-10.33-2.46-11.32-7.87-.49-2.95-2.95-2.46-4.92-4.43-1.97-1.97-3.44-2.46-3.94-1.48-.49,.98,6.89,6.4,7.38,7.87,.49,1.48-1.97,3.94-4.43,4.43-2.46,.49-2.95-.98-4.92-3.44-1.97-2.46-2.95-3.44-2.95-1.97,0,2.95,1.48,5.41,3.94,7.38,1.97,.98,3.94,1.48,2.95,3.44-.98,1.97,0,.98-1.97,2.46-1.48,.98-2.46,2.95-2.46,4.92,0,2.95-.49,2.95-.98,4.92-.49,1.97-1.48,.49-2.46,3.44-.49,1.97-1.48,3.94-2.46,5.41-1.48,1.48-3.94,2.46-5.91,2.46s-2.46-5.41-2.46-8.37c0-.98-1.48,1.97-1.97-3.94-.49-3.44-2.95,.49-2.95-1.97s-1.48-1.97-2.46-3.44c-.98-1.48-2.95,0-4.43,.98-1.48,.98-.98,.98-3.44,.49,4.92,12.3,15.26,21.16,28.05,25.1-.49-.49-.98-1.48-.49-1.97,1.97-2.95,4.92-4.92,8.37-4.92,6.89-.49,16.24,4.43,17.72,3.94s4.43-4.92,8.86-4.43c1.48,0,2.95,0,3.94,.98,1.48-.98,2.95-2.46,4.43-3.94-.49,0-.98-.49-1.48-.49-2.46-.98-1.97,.98-3.44,.49-1.48-.49,1.48-2.95-1.97-.98-3.44,1.97-2.46-.49-3.94-4.43-.98-3.94,.98-7.87,4.43-9.35,2.46-.98,5.41-1.48,7.87-1.97,5.41-1.48,6.4-4.43,7.38-2.46l.49,.98c.49,.98,.49,1.48,.49,2.46,.98-1.97,1.48-4.43,1.97-6.4-.98-.49-5.91-7.38-1.97-11.32,.49-.98-1.48-2.95-.98-2.95,1.48,0,3.44,.98,3.44,2.46,0-2.46-.49-4.43-.98-6.89v1.48c-.49,1.48-2.46,1.97-3.94,1.48-.49,0-.98-.49-.98-.98-.49-.49-2.46-2.46-2.46,.49s3.44,3.44,.49,5.41"/><path class="cls-1" d="M98.91,244.57c2.46,.49,4.92,.98,7.38,1.97,2.46,.98,6.4,2.95,8.86,2.46,2.46-.49,2.95-1.48,2.95-2.95s-1.48-1.97-3.44-.98c-.49,.49-1.97-2.46-2.95-2.46s1.48,3.44,.49,3.94c-.98,.49-2.46-3.44-2.95-3.94-.49-.49-1.48-1.97-2.95-.98-2.46,2.46-6.89,2.46-7.38,2.95-.49,0-.49,.49-.98,.49-1.48,.49-2.46-.98-2.46-2.46-.98,2.46-1.48,4.92-1.48,7.38v-.49c1.48-2.46,1.97-2.95,1.97-3.44l1.97-.49,.98-.98Z"/><path class="cls-1" d="M334.63,172.23c-16.24,0-29.53,13.29-29.53,29.53s13.29,29.53,29.53,29.53,29.53-13.29,29.53-29.53-13.29-29.53-29.53-29.53"/><path class="cls-1" d="M335.12,166.33c9.84,.49,18.7,4.43,25.59,11.32l12.3-13.29c-10.33-9.84-23.62-15.75-37.89-16.24-14.76,.49-29.03,6.4-39.37,17.22l14.76,11.32c6.89-5.91,15.75-9.84,24.6-10.33"/><path class="cls-1" d="M334.63,294.27c-2.95,0-4.92-1.97-4.92-4.92s1.97-4.92,4.92-4.92,4.92,1.97,4.92,4.92-2.46,4.92-4.92,4.92m0,37.89c-2.95,0-4.92-1.97-4.92-4.92s1.97-4.92,4.92-4.92,4.92,1.97,4.92,4.92-2.46,4.92-4.92,4.92m0,39.37c-2.95,0-4.92-1.97-4.92-4.92s1.97-4.92,4.92-4.92,4.92,1.97,4.92,4.92-2.46,4.92-4.92,4.92m83.66-24.11l-24.6-79.72s-8.86-23.13-28.05-23.13h-62c-19.19,0-28.05,23.13-28.05,23.13l-24.6,79.72s-4.43,14.76,7.87,18.21c12.3,3.44,15.75-10.83,15.75-10.83l19.68-66.43s.98-4.92,4.92-3.94c3.94,.98,2.46,6.4,2.46,6.4l-34.45,124.5h31.99v89.07c.49,8.37,7.87,14.76,16.24,14.27,7.87-.49,13.78-6.89,14.27-14.27v-88.58h8.86v89.07c0,8.37,6.89,15.25,15.26,15.25s15.26-6.89,15.26-15.25v-89.07h31.99l-34.45-124.5s-1.48-5.41,2.46-6.4c3.94-.98,4.92,3.94,4.92,3.94l19.68,66.43s3.94,14.27,16.24,10.83c12.3-3.44,8.37-18.7,8.37-18.7"/><path class="cls-1" d="M129.91,501.94c-2.95,1.97-5.91,2.95-8.86,3.94-9.35,2.46-18.7,3.94-28.05,3.44-4.43,0-9.35-.49-13.78-.98-2.95-.49-5.41-.98-8.37-1.48-1.48-.49-2.95-.49-3.94-.98-3.94-.98-7.38-2.95-10.83-4.92-.98-.98-2.46-1.97-2.95-3.44v8.86c0,2.46,1.48,4.43,3.44,5.91,6.4,4.43,14.27,7.38,22.14,8.37,5.41,.98,10.83,.98,15.75,.98,7.87,0,15.25-.98,23.13-2.46,3.94-.98,7.87-2.46,11.81-4.43,3.94-2.46,5.91-4.92,5.91-7.87,0,0,.49-8.37,0-8.86-1.97,.98-3.44,2.46-5.41,3.94"/><path class="cls-1" d="M52.16,449.28c.49-1.97,1.48-3.44,3.44-4.43,.98,.98,2.46,2.46,3.94,2.95,10.83,4.92,22.14,6.89,33.95,6.89,9.84,0,19.68-1.48,29.03-4.43,1.48-.49,2.46-.98,3.44-1.48v.98c0,5.91-15.26,12.3-36.91,12.3s-36.91-6.89-36.91-12.79m41.83-31.99c21.65,0,37.4,6.4,37.4,12.3s-15.26,12.3-36.91,12.3-36.91-6.4-36.91-12.3,14.27-12.3,36.42-12.3m-4.43,56.59c22.64,0,40.84-6.89,40.84-15.25,0,0,.49-7.87,.49-9.35,0-.98-.49-2.46-.49-3.44,2.46-1.48,4.43-3.94,4.92-6.89,0,0,.49-8.86,0-10.33-.98-10.33-21.65-15.75-41.34-15.75s-41.34,5.91-41.34,16.73c0,.49,.49,9.35,.49,9.35,0,.49,0,1.48,.49,1.97-2.95,1.97-4.92,4.92-4.92,8.37,0,.49,.49,9.35,.49,9.35,0,2.46,1.48,4.43,3.44,5.91,6.4,4.43,13.78,7.38,21.65,7.87,4.43,.98,9.84,1.48,15.26,1.48"/><path class="cls-1" d="M77.26,505.38c5.41,.98,10.83,.98,15.75,.98,7.87,0,15.25-.98,23.13-2.46,3.94-.98,7.87-2.46,11.81-4.43,.98-.49,1.97-.98,2.46-1.97,1.48-.98,2.46-2.46,2.95-3.94,.49-.49,.49-1.48,.49-1.97v-8.86c-1.48,1.48-4.92,6.89-21.16,10.33-6.89,.98-13.78,1.97-20.67,1.97-13.29,0-26.57-2.46-32.97-6.4-1.97-.98-3.44-1.97-4.92-3.44-.98-.98-1.97-1.97-2.46-2.95v9.84c0,2.46,1.48,4.43,3.44,5.91,6.4,3.94,14.27,6.89,22.14,7.38"/><path class="cls-1" d="M133.85,464.05q-.49-.49-.98-.98c-.49-.49-.98-.49-1.97-.98-.49,.98-.98,1.48-1.97,2.46,.49,0,.98,.49,1.48,.98,.98,.49,1.97,1.97,1.97,2.95s-.49,1.97-1.48,2.95l-1.48,.98-2.46,1.48s-2.46,.98-3.44,1.48c0,0-2.46,.98-3.44,.98-.49,0-3.44,.98-4.92,.98-.49,0-4.43,.98-6.4,.98l-6.4,.49c-.49,0-6.89,.49-9.35,.49-4.43,0-8.86-.49-13.29-.98-2.95-.49-6.4-.98-9.35-1.48-3.44-.98-6.89-1.97-9.84-2.95-1.97-.98-3.44-1.97-4.92-3.44-1.48-1.48-2.46-2.95-3.44-4.43v10.33c0,2.46,1.48,4.43,3.44,5.91,6.4,4.43,13.78,7.38,21.65,8.37,5.41,.98,10.83,.98,15.75,.98,7.87,0,15.26-.98,23.13-2.46,3.94-.98,7.87-2.46,11.81-4.43,.98-.49,1.97-.98,2.46-1.97,1.48-.98,2.46-2.46,2.95-3.94,.49-.49,.49-1.48,.49-1.97l.49-8.86c0-.49,0-1.48-.49-1.97,.49-.98,.49-1.48,0-1.97"/><path class="cls-1" d="M147.14,419.76c0-1.97,1.48-3.94,3.44-4.92,1.48,.98,2.46,1.97,3.94,2.95,10.83,4.92,22.14,7.38,33.95,6.89,9.84,0,19.68-1.48,29.03-4.43,1.48-.49,2.46-.98,3.44-1.48v.98c0,5.91-15.26,12.3-36.91,12.3s-36.91-6.4-36.91-12.3m41.34-31.99c22.14,0,36.91,6.4,36.91,12.3s-15.25,12.3-36.91,12.3-37.4-6.4-37.4-12.3,15.26-12.3,37.4-12.3m-4.43,56.59c22.64,0,40.84-6.89,40.84-15.25,0,0,.49-7.87,.49-9.35,0-.98-.49-2.46-.98-3.44,2.46-1.48,4.43-3.94,4.92-6.89,0,0,.49-8.86,0-10.33-.98-10.33-21.65-15.75-41.34-15.75s-41.34,5.91-41.34,16.73c0,.49,.49,9.35,.49,9.35,0,.49,0,1.48,.49,1.97-2.95,1.97-4.92,4.92-4.92,8.37,0,.49,.49,9.35,.49,9.35,0,2.46,1.48,4.43,3.44,5.91,6.4,4.43,13.78,7.38,21.65,8.37,4.92,.49,10.33,.98,15.75,.98"/><path class="cls-1" d="M229.32,436c0-.49-.49-.98-.98-1.48l-.98-.98c-.49-.49-.98-.49-1.48-.98-.49,.98-.98,1.48-1.97,2.46,.49,0,.98,.49,1.48,.98,.98,.49,1.97,1.97,1.97,2.95s-.49,1.97-1.48,2.95c-.49,.49-.98,.98-1.48,.98l-2.46,1.48-3.44,1.48-3.44,.98-4.92,.98c-.49,0-4.43,.98-6.4,.98-.49,0-4.92,.49-6.4,.49-.49,0-6.89,.49-9.35,.49-4.43,0-8.86-.49-13.29-.98-2.95-.49-6.4-.98-9.35-1.48-3.44-.98-6.89-1.97-9.84-2.95-1.97-.98-3.44-1.97-4.92-3.44-1.48-1.48-2.46-2.46-3.44-4.43v10.33c0,2.46,1.48,4.43,3.44,5.91,6.4,4.43,13.78,7.38,21.65,8.37,5.41,.98,10.83,1.48,15.75,.98,7.87,0,15.25-.98,23.13-2.46h.49c3.94-.98,7.87-2.46,11.32-4.43,.98-.49,1.97-.98,2.46-1.97,1.48-.98,2.46-2.46,2.95-3.94,.49-.49,.49-1.48,.49-1.97l.49-8.86c.49-.98,.49-1.48,0-2.46"/><path class="cls-1" d="M224.4,472.41c-2.95,1.97-5.91,2.95-8.86,3.94-9.35,2.46-18.7,3.94-28.05,3.44-4.43,0-9.35-.49-13.78-.98-2.95-.49-5.41-.98-8.37-1.48-1.48-.49-2.95-.98-3.94-.98-3.94-.98-7.87-2.95-10.83-5.41-.98-.98-2.46-1.97-2.95-3.44v8.86c0,2.46,1.48,4.43,3.44,5.91,6.4,4.43,14.27,7.38,22.14,8.37,5.41,.98,10.83,.98,15.75,.98,7.87,0,15.25-.98,23.13-2.46,3.94-.98,7.87-2.46,11.81-4.43,3.94-2.46,5.91-4.92,5.91-7.87,0,0,.49-8.37,0-8.86-1.48,1.48-3.44,2.95-5.41,4.43"/><path class="cls-1" d="M150.09,467.49c6.4,4.43,13.78,7.38,21.65,8.37,5.41,.98,10.83,1.48,15.75,.98,7.87,0,15.26-.98,23.13-2.46h.49c3.94-.98,7.87-2.46,11.32-4.43,.98-.49,1.97-.98,2.46-1.97,1.48-.98,2.46-2.46,2.95-3.94,.49-.49,.49-1.48,.49-1.97v-8.86c-1.48,1.97-4.92,6.89-21.16,10.33-6.89,.98-13.78,1.97-20.67,1.97-13.29-.49-26.57-2.46-32.97-6.4-1.97-.98-3.44-1.97-4.92-3.44-.98-.98-1.97-1.97-2.46-2.95v9.84c.98,1.97,1.97,3.94,3.94,4.92"/><path class="cls-1" d="M229.81,497.02c-1.48,1.97-2.95,3.44-4.92,4.92-2.95,1.97-5.91,2.95-8.86,3.94-9.35,2.46-18.7,3.94-28.05,3.44-4.43,0-9.35-.49-13.78-.98-2.95-.49-5.41-.98-8.37-1.48-1.48-.49-2.95-.98-3.94-.98-3.94-.98-7.38-2.95-10.83-5.41-.98-.98-2.46-1.97-2.95-3.44v8.86c0,2.46,1.48,4.43,3.44,5.91,6.4,4.43,14.27,7.38,22.14,8.37,5.41,.98,10.83,1.48,15.75,.98,7.87,0,15.26-.98,23.13-2.46,3.94-.98,7.87-2.46,11.32-4.43,3.94-2.46,5.91-4.92,5.91-7.87-.49-.49,0-8.86,0-9.35"/><path class="cls-1" d="M172.23,505.38c5.41,.98,10.83,.98,15.75,.98,7.87,0,15.25-.98,23.13-2.46,3.94-.98,7.87-2.46,11.81-4.43,.98-.49,1.97-.98,2.46-1.97,1.48-.98,2.46-2.46,2.95-3.94,.49-.49,.49-1.48,.49-1.97v-8.86c-1.48,1.48-4.92,6.89-21.16,10.33-6.89,.98-13.78,1.97-20.67,1.97-13.29-.49-26.57-2.46-32.97-6.4-1.97-.98-3.44-1.97-4.92-3.44-.98-.98-1.97-1.97-2.46-2.95v9.84c0,2.46,1.48,4.43,3.44,5.91,6.4,3.94,14.27,6.89,22.14,7.38"/></g></svg>