<?xml version="1.0" encoding="UTF-8"?><svg id="Capa_1" xmlns="http://www.w3.org/2000/svg" viewBox="0 0 467 568.37"><defs><style>.cls-1{fill:#fff;}.cls-2{fill:#c88b0c;}</style></defs><path class="cls-2" d="M4.92,80.7H461.59V4.92H4.92V80.7Zm462.08,4.92H0V0H466.51V85.62h.49Z"/><polygon class="cls-2" points="16.73 17.72 38.88 17.72 38.88 24.6 32.48 24.6 32.48 67.91 23.62 67.91 23.62 24.6 16.73 24.6 16.73 17.72"/><path class="cls-2" d="M49.21,52.16h6.89l-3.44-20.18-3.44,20.18Zm-10.33,15.75l9.35-50.19h9.35l9.84,50.19h-8.86l-1.48-9.35h-8.86l-1.48,9.35h-7.87Z"/><path class="cls-2" d="M80.21,24.6v15.75h2.95c2.95,0,3.94-1.48,3.94-3.94v-7.38c0-2.95-1.48-3.94-3.94-3.94h-2.95v-.49Zm0,20.18v23.13h-8.37V17.72h12.3c8.37,0,11.81,4.43,11.81,11.32v6.4c0,5.41-1.97,8.37-6.89,9.84l7.87,22.64h-8.86l-7.87-23.13Z"/><path class="cls-2" d="M113.67,41.34h11.81v26.57h-5.91v-5.41c-.98,3.94-3.44,5.91-7.87,5.91-7.38,0-10.33-5.91-10.33-13.29V31c0-7.87,3.94-13.29,12.79-13.29,9.35,0,11.81,5.41,11.81,12.79v4.43h-7.87v-4.92c0-2.95-.98-4.92-4.43-4.92-2.95,0-4.43,1.97-4.43,4.92v27.07c0,2.95,1.48,4.92,3.94,4.92,2.95,0,3.94-1.48,3.94-4.92v-9.35h-3.94v-6.4h.49Z"/><polygon class="cls-2" points="132.37 17.72 152.55 17.72 152.55 24.6 140.74 24.6 140.74 38.88 149.11 38.88 149.11 45.77 140.74 45.77 140.74 61.02 152.55 61.02 152.55 67.91 132.37 67.91 132.37 17.72"/><polygon class="cls-2" points="156.49 17.72 178.63 17.72 178.63 24.6 171.74 24.6 171.74 67.91 163.38 67.91 163.38 24.6 156.49 24.6 156.49 17.72"/><polygon class="cls-2" points="368.09 17.72 368.09 67.91 359.72 67.91 359.72 29.53 353.82 35.43 353.82 27.07 361.69 18.21 368.09 18.21 368.09 17.72"/><path class="cls-2" d="M374.98,58.56c0-4.92,1.48-8.37,6.4-13.29l4.92-4.92c2.95-2.95,2.95-4.43,2.95-8.86v-3.44c0-2.95-1.48-3.94-2.95-3.94-1.97,0-3.44,.98-3.44,3.94v6.4h-7.87v-6.4c0-6.89,3.94-10.83,11.32-10.83s10.83,3.44,10.83,10.83v4.92c0,4.92-.98,7.87-5.41,12.79l-5.41,5.91c-1.97,2.46-3.44,3.94-3.44,7.87v2.46h13.78v6.89h-21.65v-10.33Z"/><path class="cls-2" d="M410.9,36.91c3.44,0,5.91,2.95,5.91,5.91,0,3.44-2.95,5.91-5.91,5.91-3.44,0-5.91-2.95-5.91-5.91s2.46-5.91,5.91-5.91"/><path class="cls-2" d="M447.81,28.54v4.43c0,4.43-2.46,6.89-5.91,8.37,4.43,.98,6.4,3.94,6.4,8.37v7.38c0,6.89-3.94,11.32-12.3,11.32s-11.81-4.92-11.81-12.3v-6.4h7.87v7.38c0,2.95,.98,4.92,3.94,4.92,2.46,0,3.94-1.97,3.94-4.43v-8.37c0-2.46-.98-3.94-3.94-3.94h-3.44v-6.4h2.95c2.95,0,4.43-1.48,4.43-3.94v-5.91c0-2.95-.98-4.43-3.44-4.43s-3.44,1.97-3.44,4.92v4.92h-7.87v-4.43c0-7.38,2.95-12.79,11.81-12.79,7.38,0,10.83,4.43,10.83,11.32"/><g><rect class="cls-2" x="0" y="101.86" width="466.51" height="466.51"/><path class="cls-1" d="M337.58,491.6H129.42l-17.72-259.34h243.1l-17.22,259.34Zm29.03-274.1H99.9c-1.97,0-3.94,1.48-3.94,3.94l18.7,281.48c0,1.97,1.48,3.94,3.44,3.94h229.81c1.97,0,3.94-1.48,3.94-3.94l18.7-281.48c0-2.46-1.48-3.94-3.94-3.94"/><path class="cls-1" d="M370.55,179.12h-96.94v-11.32c0-1.97-1.48-3.94-3.94-3.94h-73.32c-1.97,0-3.94,1.48-3.94,3.94v11.32H96.45c-1.97,0-3.94,1.48-3.94,3.44l2.46,15.75c0,1.97,1.48,3.94,3.94,3.94H368.09c1.97,0,3.94-1.48,3.94-3.94l2.46-15.75c0-1.48-1.97-2.95-3.94-3.44"/><path class="cls-1" d="M261.8,309.04c-2.95,0-4.92-1.97-4.92-4.92s1.97-4.92,4.92-4.92,4.92,1.97,4.92,4.92-1.97,4.92-4.92,4.92m-20.67-1.97h0c1.97,2.95,13.78,17.72,30.02,17.72,14.27,0,29.53-12.79,29.53-12.79,3.44,6.89,9.84,11.81,17.72,12.79,0,0,.49,0,.49-.49-2.95-4.92-4.92-10.83-5.41-16.73,.49-5.91,1.97-11.81,5.41-16.73v-.49l-.49-.49c-7.38,1.48-13.78,5.91-17.72,12.79,0,0-15.25-12.79-29.53-12.79-16.73-.49-28.54,14.27-30.02,17.22"/><path class="cls-1" d="M201.76,405v19.68c0,11.32-5.41,18.7-19.19,18.7s-18.7-7.87-18.7-20.18v-8.86h12.3v10.33c0,4.92,1.48,7.87,6.4,7.87s5.91-2.95,5.91-7.38v-19.68c0-4.43-1.48-7.38-5.91-7.38s-5.91,2.46-5.91,7.38v1.48h-12.3v-45.77h35.92v11.32h-23.62v20.18c2.46-3.94,6.89-5.91,11.32-5.41,6.89,0,13.78,4.92,13.78,17.72"/><path class="cls-1" d="M233.75,423.7v-43.8c0-4.92-1.97-8.37-6.4-8.37s-6.4,3.44-6.4,8.37v43.3c0,4.92,1.97,8.37,6.4,8.37s6.4-2.95,6.4-7.87m-26.57-1.97v-39.37c0-12.79,6.4-21.65,20.18-21.65s20.18,9.35,20.18,21.65v39.37c0,12.79-6.4,21.65-20.18,21.65s-20.18-9.35-20.18-21.65"/><path class="cls-1" d="M299.69,429.11v-6.4c0-3.44-.98-5.91-4.43-5.91s-4.92,2.46-4.92,5.91v6.4c0,3.44,.98,5.91,4.92,5.91s4.43-2.46,4.43-5.91m-19.68-1.48v-3.44c0-9.35,4.92-15.75,15.25-15.75s15.26,6.4,15.26,15.75v3.44c0,9.35-4.92,15.75-15.26,15.75s-15.25-6.4-15.25-15.75m-7.87-46.26v-6.4c0-3.44-.98-5.91-4.92-5.91s-4.92,2.46-4.92,5.91v6.4c0,3.44,.98,5.91,4.92,5.91s4.92-1.97,4.92-5.91m35.43-19.68l-44.29,81.2h-8.37l44.29-81.2h8.37Zm-55.11,18.21v-3.44c0-9.35,4.92-15.75,15.25-15.75s15.25,6.4,15.25,15.75v3.44c0,9.35-4.92,15.75-15.25,15.75s-15.25-5.91-15.25-15.75"/><path class="cls-1" d="M176.17,321.34v1.97c0,.49,.49,.98,.98,.98h22.14c.49,0,.98,0,.98-.49v-1.97c12.3-3.94,21.16-13.78,23.62-26.57,0-.49-.49-.98-.98-.98h-70.37c-.49,0-.98,.49-.98,.98v.49c2.95,12.3,12.3,22.14,24.6,25.59"/><path class="cls-1" d="M200.28,263.76c-.49,.49-6.89,10.33,0,18.21,2.46,2.46,3.44,5.91,1.97,8.86h4.43c.98-3.94,0-8.37-3.44-11.32-5.41-5.91,0-13.78,0-13.78,.49-.98,.49-1.97-.49-2.46h-.49c-.49-.49-1.48-.49-1.97,.49"/><path class="cls-1" d="M188.47,290.83h4.43c.98-3.94,0-8.37-3.44-11.32-5.41-5.91,0-13.78,0-13.78,.49-.98,.49-1.97-.49-2.46h-.49c-.98-.49-2.46-.49-2.95,.49-.49,.49-6.89,10.33,0,18.21,2.95,1.97,3.94,5.91,2.95,8.86"/><path class="cls-1" d="M172.23,263.76c-.49,.49-6.89,10.33,0,18.21,2.46,2.46,3.44,5.91,1.97,8.86h4.43c.98-3.94,0-8.37-3.44-11.32-5.41-5.91,0-13.78,0-13.78,.49-.98,.49-1.97-.49-2.46h-.49c-.49-.49-1.48-.49-1.97,.49"/></g></svg>