<?xml version="1.0" encoding="UTF-8"?><svg id="Capa_1" xmlns="http://www.w3.org/2000/svg" viewBox="0 0 467 568.37"><defs><style>.cls-1{fill:#fff;}.cls-2{fill:#d5102b;}</style></defs><path class="cls-2" d="M4.92,80.7H461.59V4.92H4.92V80.7Zm462.08,4.92H0V0H466.51V85.62h.49Z"/><polygon class="cls-2" points="16.73 17.72 38.88 17.72 38.88 24.6 32.48 24.6 32.48 67.91 23.62 67.91 23.62 24.6 16.73 24.6 16.73 17.72"/><path class="cls-2" d="M49.21,52.16h6.89l-3.44-20.18-3.44,20.18Zm-10.33,15.75l9.35-50.19h9.35l9.84,50.19h-8.86l-1.48-9.35h-8.86l-1.48,9.35h-7.87Z"/><path class="cls-2" d="M80.21,24.6v15.75h2.95c2.95,0,3.94-1.48,3.94-3.94v-7.38c0-2.95-1.48-3.94-3.94-3.94h-2.95v-.49Zm0,20.18v23.13h-8.37V17.72h12.3c8.37,0,11.81,4.43,11.81,11.32v6.4c0,5.41-1.97,8.37-6.89,9.84l7.87,22.64h-8.86l-7.87-23.13Z"/><path class="cls-2" d="M113.67,41.34h11.81v26.57h-5.91v-5.41c-.98,3.94-3.44,5.91-7.87,5.91-7.38,0-10.33-5.91-10.33-13.29V31c0-7.87,3.94-13.29,12.79-13.29,9.35,0,11.81,5.41,11.81,12.79v4.43h-7.87v-4.92c0-2.95-.98-4.92-4.43-4.92-2.95,0-4.43,1.97-4.43,4.92v27.07c0,2.95,1.48,4.92,3.94,4.92,2.95,0,3.94-1.48,3.94-4.92v-9.35h-3.94v-6.4h.49Z"/><polygon class="cls-2" points="132.37 17.72 152.55 17.72 152.55 24.6 140.74 24.6 140.74 38.88 149.11 38.88 149.11 45.77 140.74 45.77 140.74 61.02 152.55 61.02 152.55 67.91 132.37 67.91 132.37 17.72"/><polygon class="cls-2" points="156.49 17.72 178.63 17.72 178.63 24.6 171.74 24.6 171.74 67.91 163.38 67.91 163.38 24.6 156.49 24.6 156.49 17.72"/><path class="cls-2" d="M380.88,53.15h7.38v-20.67l-7.38,20.67Zm-7.38,1.48l14.76-36.91h8.37V53.15h3.44v6.4h-3.44v8.37h-7.87v-8.37h-14.76v-4.92h-.49Z"/><path class="cls-2" d="M413.36,36.91c3.44,0,5.91,2.95,5.91,5.91,0,3.44-2.95,5.91-5.91,5.91-3.44,0-5.91-2.95-5.91-5.91s2.46-5.91,5.91-5.91"/><polygon class="cls-2" points="427.14 17.72 448.3 17.72 448.3 25.59 437.47 67.91 429.11 67.91 440.43 24.6 427.63 24.6 427.63 17.72 427.14 17.72"/><g><rect class="cls-2" x="0" y="101.86" width="466.51" height="466.51"/><path class="cls-1" d="M159.44,260.32l-55.11-60.04c-13.78,13.29-25.59,28.54-34.94,45.27l72.83,36.42c4.92-7.87,10.83-14.76,17.22-21.65"/><path class="cls-1" d="M300.18,253.92l55.11-60.04c-14.76-12.79-31-22.64-48.72-30.51l-29.53,76.27c8.37,3.94,16.24,8.37,23.13,14.27"/><path class="cls-1" d="M337.58,319.86l81.2-7.87c-2.46-18.7-7.38-37.4-15.75-54.62l-72.83,36.42c3.44,8.37,5.91,17.22,7.38,26.08"/><path class="cls-1" d="M325.28,283.45l72.83-36.42c-8.86-16.73-20.67-31.99-33.95-45.27l-55.11,60.04c6.4,6.4,11.81,13.78,16.24,21.65"/><path class="cls-1" d="M127.95,335.12v-4.92l-80.7-6.89c-.49,3.94-.49,8.37-.49,12.3,0,15.26,1.97,30.51,5.41,45.27l78.24-22.64c-1.48-7.38-2.46-15.25-2.46-23.13"/><path class="cls-1" d="M295.26,420.74l42.81,69.39c15.75-10.83,30.02-24.11,41.83-38.88l-64.96-49.21c-5.91,6.89-12.3,13.29-19.68,18.7"/><path class="cls-1" d="M419.76,323.8l-81.2,7.87v3.94c0,7.38-.98,15.25-2.46,22.64l78.24,22.64c3.44-14.76,5.41-30.02,5.41-44.78,.49-4.43,.49-8.37,0-12.3"/><path class="cls-1" d="M153.53,403.52l-64.96,49.21c12.3,14.76,26.57,28.05,42.32,38.38l42.81-69.39c-7.38-4.92-14.27-11.32-20.18-18.21"/><path class="cls-1" d="M137.3,292.31l-72.83-36.42c-8.37,17.22-13.78,35.92-16.24,55.11l81.2,7.38c1.48-8.86,3.94-17.72,7.87-26.08"/><path class="cls-1" d="M260.32,437.47l15.25,80.21c18.7-4.43,36.42-11.32,53.15-21.16l-42.81-69.39c-8.37,4.43-16.73,7.87-25.59,10.33"/><path class="cls-1" d="M321.83,392.69l64.96,49.21c10.83-15.25,19.19-31.99,24.6-50.19l-78.24-22.64c-2.95,8.37-6.4,16.24-11.32,23.62"/><path class="cls-1" d="M233.25,440.92c-3.94,0-8.37-.49-12.3-.98l-14.76,80.21c19.19,2.95,38.38,2.46,57.58-.49l-15.25-80.21c-4.92,.98-9.84,1.48-15.25,1.48"/><path class="cls-1" d="M295.75,158.95c-17.72-6.4-36.42-9.84-55.11-10.33v81.69c8.86,.49,17.72,1.97,26.08,4.92l29.03-76.28Z"/><path class="cls-1" d="M183.55,428.12l-42.81,69.39c16.73,9.35,34.94,16.73,53.64,20.67l15.25-80.21c-8.86-1.97-17.72-5.41-26.08-9.84"/><path class="cls-1" d="M228.33,230.3v-81.69c-19.19,.49-37.89,3.94-56.1,10.33l29.53,76.27c8.86-2.95,17.72-4.43,26.57-4.92"/><path class="cls-1" d="M133.85,369.56l-78.24,22.64c5.91,18.7,14.76,35.92,26.08,51.67l64.96-49.21c-5.91-7.87-9.84-16.24-12.79-25.1"/><path class="cls-1" d="M190.93,239.16l-29.53-76.27c-17.22,7.38-33.46,17.22-48.23,29.53l55.11,60.04c6.89-5.41,14.27-9.84,22.64-13.29"/><polygon class="cls-1" points="182.08 373.5 231.78 388.76 231.78 300.67 182.08 280 182.08 373.5"/><polygon class="cls-1" points="287.88 280 237.68 301.16 237.68 388.76 287.88 373.5 287.88 280"/><polygon class="cls-1" points="176.66 378.42 176.66 280 171.25 283.94 171.25 382.36 231.78 399.09 234.73 399.09 235.22 399.09 237.68 399.09 293.78 381.38 298.7 379.9 298.7 283.94 293.29 280 293.29 375.96 237.68 394.17 235.22 394.17 234.73 394.17 231.78 394.17 176.66 378.42"/></g></svg>