<?xml version="1.0" encoding="UTF-8"?><svg id="Capa_1" xmlns="http://www.w3.org/2000/svg" viewBox="0 0 467 568.37"><defs><style>.cls-1{fill:#006da3;}.cls-2{fill:#fff;}</style></defs><path class="cls-1" d="M4.92,80.7H461.59V4.92H4.92V80.7Zm462.08,4.92H0V0H466.51V85.62h.49Z"/><polygon class="cls-1" points="16.73 17.72 38.88 17.72 38.88 24.6 32.48 24.6 32.48 67.91 23.62 67.91 23.62 24.6 16.73 24.6 16.73 17.72"/><path class="cls-1" d="M49.21,52.16h6.89l-3.44-20.18-3.44,20.18Zm-10.33,15.75l9.35-50.19h9.35l9.84,50.19h-8.86l-1.48-9.35h-8.86l-1.48,9.35h-7.87Z"/><path class="cls-1" d="M80.21,24.6v15.75h2.95c2.95,0,3.94-1.48,3.94-3.94v-7.38c0-2.95-1.48-3.94-3.94-3.94h-2.95v-.49Zm0,20.18v23.13h-8.37V17.72h12.3c8.37,0,11.81,4.43,11.81,11.32v6.4c0,5.41-1.97,8.37-6.89,9.84l7.87,22.64h-8.86l-7.87-23.13Z"/><path class="cls-1" d="M113.67,41.34h11.81v26.57h-5.91v-5.41c-.98,3.94-3.44,5.91-7.87,5.91-7.38,0-10.33-5.91-10.33-13.29V31c0-7.87,3.94-13.29,12.79-13.29,9.35,0,11.81,5.41,11.81,12.79v4.43h-7.87v-4.92c0-2.95-.98-4.92-4.43-4.92-2.95,0-4.43,1.97-4.43,4.92v27.07c0,2.95,1.48,4.92,3.94,4.92,2.95,0,3.94-1.48,3.94-4.92v-9.35h-3.94v-6.4h.49Z"/><polygon class="cls-1" points="132.37 17.72 152.55 17.72 152.55 24.6 140.74 24.6 140.74 38.88 149.11 38.88 149.11 45.77 140.74 45.77 140.74 61.02 152.55 61.02 152.55 67.91 132.37 67.91 132.37 17.72"/><polygon class="cls-1" points="156.49 17.72 178.63 17.72 178.63 24.6 171.74 24.6 171.74 67.91 163.38 67.91 163.38 24.6 156.49 24.6 156.49 17.72"/><polygon class="cls-1" points="364.15 17.72 364.15 67.91 355.79 67.91 355.79 29.53 349.88 35.43 349.88 27.07 357.75 18.21 364.15 18.21 364.15 17.72"/><path class="cls-1" d="M387.28,56.59v-8.86c0-3.44-.98-4.92-3.94-4.92-2.46,0-3.94,1.97-3.94,4.43v9.35c0,2.95,.98,4.92,3.94,4.92s3.94-1.48,3.94-4.92m-16.24-1.48V30.51c0-7.87,3.44-13.29,12.3-13.29,9.35,0,11.81,5.41,11.81,12.79v2.46h-7.87v-3.44c0-2.95-.98-4.92-3.94-4.92s-3.94,1.97-3.94,4.92v10.83c1.48-2.46,3.44-3.94,6.89-3.94,5.91,0,9.35,3.94,9.35,12.3v7.38c0,7.87-3.44,12.79-12.3,12.79s-12.3-5.41-12.3-13.29"/><path class="cls-1" d="M409.42,36.91c3.44,0,5.91,2.95,5.91,5.91,0,3.44-2.95,5.91-5.91,5.91-3.44,0-5.91-2.95-5.91-5.91-.49-2.95,2.46-5.91,5.91-5.91"/><path class="cls-1" d="M429.6,53.15h7.38v-20.67l-7.38,20.67Zm-7.38,1.48l14.76-36.91h8.37V53.15h3.44v6.4h-3.44v8.37h-7.87v-8.37h-14.76v-4.92h-.49Z"/><g><rect class="cls-1" x="0" y="101.86" width="466.51" height="466.51"/><path class="cls-2" d="M185.03,282.96c1.97,0,4.43,.49,5.91,1.97,1.48,1.48,2.46,3.44,2.46,5.41v42.81c0,2.46,1.97,4.43,4.43,4.43s4.43-1.97,4.43-4.43v-59.54c0-3.94,2.95-7.87,7.38-8.37,1.97,0,4.43,.49,5.91,1.97,1.48,1.48,2.46,3.44,2.46,5.41v51.18c0,2.46,1.97,4.43,4.43,4.43s4.43-1.97,4.43-4.43v-59.54c0-1.97,.98-3.94,2.46-5.41,1.48-1.48,3.94-2.46,5.91-1.97,3.94,.49,7.38,3.94,7.38,8.37v63.97c-.49,2.46,1.48,4.92,3.94,4.92,2.46,.49,4.92-1.48,4.92-3.94v-55.11c0-3.94,2.95-7.87,7.38-7.87s7.87,2.95,7.87,7.38v93.5l35.92-24.6c1.97-1.48,3.94-1.97,6.4-1.97,1.97,.49,3.44,1.48,4.43,2.95,2.95,2.95,2.95,7.87-.49,10.83h-.49l-41.83,40.35c-9.84,9.84-21.65,17.72-33.95,23.13-1.48,.49-2.95,.98-4.43,.98l-4.92,.49c-2.46,.49-4.92,.49-7.38,.49-23.62-1.48-42.32-21.65-41.83-45.27v-83.66c-.49-4.92,2.95-7.87,6.89-8.86"/><path class="cls-2" d="M372.03,281.97c.49,.98,.98,2.46,.98,3.94-1.48-.49-2.46-.49-3.94-.98-1.48-.98-2.46-2.46-3.94-3.44-1.97,2.95-.98,7.38,1.97,8.86,2.46,1.97,6.4,1.48,8.86-.98,2.46-1.97,2.95-5.91,.98-8.86-1.97-3.44-5.91-4.43-9.35-2.46,1.97,.98,2.95,2.46,4.43,3.94m9.84-36.42l19.68-10.83,4.43,7.38,17.72-10.33,3.44,5.91-35.92,23.13c9.84,10.33,21.16,18.7,33.46,25.1l-7.87,20.18c-11.81-4.92-22.64-11.81-31.99-20.67-4.92,11.32-10.33,13.29-21.65,8.86l.98,25.59-19.19-.98c.49-5.91,.98-10.83,1.97-15.75,1.48-11.32,.49-11.81-9.84-7.38l-3.94-5.91-5.41,2.46-3.44-6.4,4.92-3.44-2.95-5.41c1.48-.98,2.95-1.97,4.43-2.46,11.81-6.89,24.11-13.78,36.42-20.18l14.76-8.86Z"/><path class="cls-2" d="M356.77,410.41l-17.22-20.67c-5.41,4.92-5.41,13.78-.49,18.7,4.92,4.92,12.3,5.91,17.72,1.97"/><path class="cls-2" d="M359.23,390.72c-4.43-5.41-12.3-6.4-18.21-1.97l17.22,20.67c5.41-5.41,5.91-13.29,.98-18.7"/><path class="cls-2" d="M360.22,373.5l10.33-24.6c-7.38-1.97-14.76,1.97-16.73,9.35-1.48,5.91,.98,12.3,6.4,15.25"/><path class="cls-2" d="M378.42,366.61c2.95-6.4,0-13.78-5.91-17.22l-10.33,24.6c6.89,2.46,13.78-.98,16.24-7.38"/><path class="cls-2" d="M409.92,356.77c.49-.98,1.48-.98,1.97-.98l18.7,8.37c.49,0,.49,.49,.98,.98v.98l-17.22,37.4-21.16-9.84,16.73-36.91Zm-6.89,49.21c.49-.49,.98-.98,1.48-.49l5.91,2.46c.49,0,.98,.98,.49,1.48-.49,.49-.98,.98-1.48,.49l-5.91-2.46c0-.49-.49-.98-.49-1.48m-4.43,9.84c0-.49,.98-.98,1.48-.49l5.91,2.46c.49,0,.98,.98,.49,1.48-.49,.49-.98,.98-1.48,.49l-5.91-2.95c-.49,0-.49-.49-.49-.98m-4.43,9.84c0-.49,.98-.98,1.48-.49l5.91,2.95c.49,0,.98,.98,.49,1.48,0,.49-.98,.98-1.48,.49l-5.91-2.46c-.49-.98-.49-1.48-.49-1.97m14.27-69.88l-32.48,71.35c-.49,1.48,0,3.44,1.48,4.43l5.41,2.46-2.46,5.41c-.49,.49,0,1.48,.49,1.48l2.46,.98-6.89,14.27v.98h.98l6.4-14.76,2.95,.98c.49,.49,1.48,0,1.48-.49l2.46-4.92,4.92,2.46c1.48,.49,3.44,0,4.43-1.48l32.48-71.35c.98-1.48,0-3.44-1.48-4.43l-5.91-2.46,6.4-13.29,6.89,2.95c.49,.49,1.48,0,1.48-.49l.49-1.48c.49-.49,0-1.48-.49-1.48l-21.16-9.84c-.49-.49-1.48,0-1.48,.49l-.49,1.48c-.49,.49,0,1.48,.49,1.48l7.38,3.44-5.91,12.79-5.91-2.95c-1.97-.49-3.94,.49-4.43,1.97"/><path class="cls-2" d="M375.47,460.11c.49-.98,1.97-3.94-.98-1.48-.49,.49-1.97,0-1.97,1.48s.98,1.48,1.48,1.48,.98-.98,1.48-1.48"/><path class="cls-2" d="M342.01,474.38l-12.79-10.33c-.98-.98-2.95-.98-3.94,0-40.84,48.72-110.23,54.13-159.44,14.76-1.48-.98-2.95-2.46-4.43-3.94l14.27-8.86c1.48-.98-.49-1.97-.49-1.97l-49.7-25.1c-1.48-.98-1.97,0-1.97,.98v57.08c0,.49,.49,1.97,1.48,.98l16.24-10.33c2.95,2.95,6.4,5.91,9.84,8.86,59.05,46.75,142.22,40.35,190.44-16.73l.49-.49c1.48-1.48,1.48-3.44,0-4.92,.49,.49,0,.49,0,0"/><path class="cls-2" d="M341.51,223.9h0l-3.44-56.1c0-.49-.49-1.97-1.48-.98l-15.75,11.32c-3.44-2.95-6.89-5.91-10.33-8.37-61.51-43.3-144.18-31.99-188.97,28.05l-.49,.49c-.98,.98-.98,2.95,.49,3.94h.49l13.29,9.35c.98,.98,2.95,.98,3.94-.49,37.89-50.69,106.78-60.04,158.46-23.62,1.48,.98,2.95,2.46,4.43,3.44l-13.78,9.84c-1.48,.98,.49,1.97,.49,1.97l50.69,22.14c1.97,.98,1.97,.49,1.97-.98"/><path class="cls-2" d="M79.23,368.58c-1.97,.98-3.94,1.97-5.91,2.46-5.91,1.48-11.81,2.46-18.21,1.97-2.95,0-5.91-.49-8.86-.98-1.97-.49-3.44-.49-5.41-.98-.98,0-1.97-.49-2.95-.98-2.46-.49-4.92-1.48-6.89-2.95-.98-.49-1.48-1.48-1.97-1.97v5.91c0,1.48,.98,2.95,1.97,3.94,4.43,2.95,8.86,4.92,14.27,5.41,3.44,.49,6.89,.98,10.33,.98,4.92,0,9.84-.49,14.76-1.48,2.46-.49,4.92-1.48,7.38-2.95,2.46-1.48,3.94-3.44,3.94-4.92v-5.91c-.49,.49-1.48,1.48-2.46,2.46"/><path class="cls-2" d="M29.03,334.63c0-1.48,.98-2.46,1.97-2.95,.98,.98,1.48,1.48,2.46,1.97,6.89,2.95,14.27,4.43,22.14,4.43,6.4,0,12.79-.98,18.7-2.95,.98-.49,1.48-.49,2.46-.98v.49c0,3.94-9.84,7.87-24.11,7.87s-23.62-3.94-23.62-7.87m27.07-20.67c14.27,0,24.11,4.43,24.11,7.87s-9.84,7.87-24.11,7.87-24.11-4.43-24.11-7.87,9.84-7.87,24.11-7.87m-2.95,36.42c14.76,0,26.57-4.43,26.57-9.84,0,0,.49-4.92,0-5.91,0-.49,0-1.48-.49-1.97,1.48-.98,2.95-2.46,2.95-4.43v-6.89c-.49-6.4-14.27-10.33-26.57-10.33s-26.57,3.94-26.57,10.83v5.91c0,.49,0,.98,.49,.98-1.97,.98-3.44,2.95-3.44,5.41v5.91c0,1.48,.98,2.95,1.97,3.94,4.43,2.95,8.86,4.43,14.27,4.92,3.44,1.48,6.89,1.48,10.83,1.48"/><path class="cls-2" d="M45.27,371.04c3.44,.49,6.89,.98,10.33,.98,4.92,0,9.84-.49,14.76-1.48,2.46-.49,4.92-1.48,7.38-2.95,.49-.49,.98-.49,1.48-.98,.98-.49,1.48-1.48,1.97-2.46v-7.38c-.98,.98-2.95,4.43-13.78,6.89-4.43,.98-8.86,.98-13.78,.98-7.38,0-14.76-.98-21.16-3.94-.98-.49-2.46-1.48-3.44-2.46-.49-.49-.98-1.48-1.48-1.97v6.4c0,1.48,.98,2.95,1.97,3.94,5.41,1.97,10.33,3.94,15.75,4.43"/><path class="cls-2" d="M81.69,343.98l-.49-.49c-.49,0-.49-.49-.98-.49-.49,.49-.49,.98-.98,1.48,.49,0,.49,.49,.98,.49,.98,.49,.98,.98,1.48,1.97,0,.49-.49,1.48-.98,1.48q-.49,.49-.98,.98l-1.48,.98-2.46,.98-2.46,.98-3.44,.49-3.94,.49-3.94,.49-5.91,.49c-2.95,0-5.91,0-8.37-.49-2.95-.49-4.92-.98-6.89-.98-1.97-.49-4.43-.98-6.4-1.97-.98-.49-2.46-1.48-3.44-1.97-.98-.98-1.48-1.97-1.97-2.95v6.89c0,1.48,.98,2.95,1.97,3.94,4.43,2.95,8.86,4.92,14.27,5.41,3.44,.49,6.89,.98,10.33,.98,4.92,0,9.84-.49,14.76-1.48,2.46-.49,4.92-1.48,7.38-2.95,.49-.49,.98-.98,1.48-.98,.98-.49,1.48-1.48,1.97-2.46,0-.49,.49-.98,.49-1.48v-9.84Z"/><path class="cls-2" d="M90.05,315.43c0-1.48,.98-2.46,1.97-2.95,.98,.98,1.48,1.48,2.46,1.97,6.89,2.95,14.27,4.43,22.14,4.43,6.4,0,12.79-.98,18.7-2.95l2.46-.98v.49c0,3.94-9.84,7.87-24.11,7.87s-23.62-3.94-23.62-7.87m27.07-20.18c14.27,0,24.11,3.94,24.11,7.87s-9.84,7.87-24.11,7.87-24.11-3.94-24.11-7.87,9.84-7.87,24.11-7.87m-2.95,36.42c14.76,0,26.57-4.43,26.57-9.84,0,0,.49-4.92,0-5.91,0-.49,0-1.48-.49-1.97,1.48-.98,2.95-2.46,2.95-4.43v-6.89c-.98-6.4-14.27-10.33-26.57-10.33s-26.57,3.94-26.57,10.83v5.91c0,.49,0,.98,.49,.98-1.97,1.48-3.44,3.44-3.44,5.41v5.91c0,1.48,.98,2.95,1.97,3.94,3.94,2.95,8.86,4.92,14.27,5.41,3.94,.49,7.38,.98,10.83,.98"/><path class="cls-2" d="M143.69,326.26c0-.49-.49-.49-.49-.98l-.49-.49-1.48-.98c-.49,.49-.49,.98-.98,1.48,.49,0,.49,.49,.98,.49,.98,.49,.98,.98,1.48,1.97,0,.49-.49,1.48-.98,1.48l-.98,.98-1.48,.98-2.95,1.48-2.46,.49-2.95,.98-3.94,.49-3.94,.49c-.49,0-4.43,.49-5.91,.49-2.95,0-5.91,0-8.37-.49-1.97-.49-3.94-.49-5.91-.98-1.97-.49-4.43-.98-6.4-1.97-.98-.49-2.46-1.48-3.44-2.46-.98-.98-1.48-1.97-1.97-2.95v6.4c0,1.48,.98,2.95,1.97,3.94,4.43,2.95,9.35,4.92,14.27,5.41,3.44,.49,6.89,.98,10.33,.98,4.92,0,9.84-.49,14.76-1.48,2.46-.49,4.92-1.48,7.38-2.95,.49-.49,.98-.98,1.48-.98,.98-.49,1.48-1.48,1.97-2.46,0-.49,.49-.98,.49-1.48v-7.87Z"/><path class="cls-2" d="M140.25,349.39c-1.97,.98-3.94,1.97-5.91,2.46-5.91,1.48-11.81,2.46-18.21,2.46-2.95,0-5.91-.49-8.86-.49-1.97-.49-3.44-.49-5.41-.98l-2.46-.98c-2.46-.49-4.92-1.97-6.89-3.44-.98-.49-1.48-1.48-1.97-1.97v5.91c0,1.48,.98,2.95,1.97,3.94,4.43,2.95,9.35,4.92,14.27,5.41,3.44,.49,6.89,.98,10.33,.98,4.92,0,9.84-.49,14.76-1.48,2.46-.49,4.92-1.48,7.38-2.95,2.46-1.48,3.94-3.44,3.94-4.92v-5.91c-.49,.49-1.48,1.48-2.95,1.97"/><path class="cls-2" d="M92.51,346.44c4.43,2.95,8.86,4.92,14.27,5.41,3.44,.49,6.89,.98,10.33,.98,4.92,0,9.84-.49,14.76-1.48,2.46-.49,5.41-1.48,7.87-2.95,.49-.49,.98-.49,1.48-.98,.98-.49,1.48-1.48,1.97-2.46v-7.38c-.98,.98-2.95,4.43-13.78,6.89-4.43,.98-8.86,.98-13.78,.98-7.38,0-14.76-1.48-21.16-3.94-.98-.49-2.46-1.48-3.44-2.46-.49-.49-.98-1.48-1.48-1.97v5.91c.49,1.48,1.48,2.95,2.95,3.44"/><path class="cls-2" d="M143.69,365.14c-.98,.98-1.97,2.46-2.95,2.95-1.97,.98-3.94,1.97-5.91,2.46-5.91,1.48-11.81,2.46-18.21,2.46-2.95,0-5.91-.49-8.86-.49-1.97,0-3.44-.49-5.41-.98l-2.46-.49c-2.46-.49-4.92-1.97-6.89-3.44-.98-.49-1.48-1.48-1.97-1.97v5.41c0,1.48,.98,2.95,1.97,3.94,4.43,2.95,8.86,4.43,14.27,4.92,3.44,.49,6.89,.98,10.33,.98,4.92,0,9.84-.49,14.76-1.48,2.46-.49,4.92-1.48,7.38-2.95,2.46-1.48,3.94-3.44,3.94-4.92v-6.4Z"/><path class="cls-2" d="M106.79,370.55c3.44,.49,6.89,.98,10.33,.98,4.92,0,9.84-.49,14.76-1.48,2.46-.49,4.92-1.48,7.38-2.95l1.97-1.48c.98-.49,1.48-1.48,1.97-2.46,0-.49,.49-.98,.49-1.48v-5.91c-.98,.98-2.95,4.43-13.78,6.89-4.43,.98-8.86,.98-13.78,.98-7.38,0-14.76-.98-21.16-3.94-.98-.49-2.46-1.48-3.44-2.46-.49-.49-.98-1.48-1.48-1.97v6.4c0,1.48,.98,2.95,1.97,3.94,4.43,2.95,9.35,4.43,14.76,4.92"/></g></svg>