<?xml version="1.0" encoding="UTF-8"?><svg id="Capa_1" xmlns="http://www.w3.org/2000/svg" viewBox="0 0 467 568.37"><defs><style>.cls-1{fill:#fff;}.cls-2{fill:#fcbc00;}</style></defs><path class="cls-2" d="M4.92,80.7H461.59V4.92H4.92V80.7Zm462.08,4.92H0V0H466.51V85.62h.49Z"/><polygon class="cls-2" points="16.73 17.72 38.88 17.72 38.88 24.6 32.48 24.6 32.48 67.91 23.62 67.91 23.62 24.6 16.73 24.6 16.73 17.72"/><path class="cls-2" d="M49.21,52.16h6.89l-3.44-20.18-3.44,20.18Zm-10.33,15.75l9.35-50.19h9.35l9.84,50.19h-8.86l-1.48-9.35h-8.86l-1.48,9.35h-7.87Z"/><path class="cls-2" d="M80.21,24.6v15.75h2.95c2.95,0,3.94-1.48,3.94-3.94v-7.38c0-2.95-1.48-3.94-3.94-3.94h-2.95v-.49Zm0,20.18v23.13h-8.37V17.72h12.3c8.37,0,11.81,4.43,11.81,11.32v6.4c0,5.41-1.97,8.37-6.89,9.84l7.87,22.64h-8.86l-7.87-23.13Z"/><path class="cls-2" d="M113.67,41.34h11.81v26.57h-5.91v-5.41c-.98,3.94-3.44,5.91-7.87,5.91-7.38,0-10.33-5.91-10.33-13.29V31c0-7.87,3.94-13.29,12.79-13.29,9.35,0,11.81,5.41,11.81,12.79v4.43h-7.87v-4.92c0-2.95-.98-4.92-4.43-4.92-2.95,0-4.43,1.97-4.43,4.92v27.07c0,2.95,1.48,4.92,3.94,4.92,2.95,0,3.94-1.48,3.94-4.92v-9.35h-3.94v-6.4h.49Z"/><polygon class="cls-2" points="132.37 17.72 152.55 17.72 152.55 24.6 140.74 24.6 140.74 38.88 149.11 38.88 149.11 45.77 140.74 45.77 140.74 61.02 152.55 61.02 152.55 67.91 132.37 67.91 132.37 17.72"/><polygon class="cls-2" points="156.49 17.72 178.63 17.72 178.63 24.6 171.74 24.6 171.74 67.91 163.38 67.91 163.38 24.6 156.49 24.6 156.49 17.72"/><polygon class="cls-2" points="375.96 17.72 397.12 17.72 397.12 25.59 386.3 67.91 377.44 67.91 388.76 24.6 375.96 24.6 375.96 17.72"/><path class="cls-2" d="M410.9,36.91c3.44,0,5.91,2.95,5.91,5.91,0,3.44-2.95,5.91-5.91,5.91-3.44,0-5.91-2.95-5.91-5.91s2.46-5.91,5.91-5.91"/><path class="cls-2" d="M447.81,28.54v4.43c0,4.43-2.46,6.89-5.91,8.37,4.43,.98,6.4,3.94,6.4,8.37v7.38c0,6.89-3.94,11.32-12.3,11.32s-11.81-4.92-11.81-12.3v-6.4h7.87v7.38c0,2.95,.98,4.92,3.94,4.92,2.46,0,3.94-1.97,3.94-4.43v-8.37c0-2.46-.98-3.94-3.94-3.94h-3.44v-6.4h2.95c2.95,0,4.43-1.48,4.43-3.94v-5.91c0-2.95-.98-4.43-3.44-4.43s-3.44,1.97-3.44,4.92v4.92h-7.87v-4.43c0-7.38,2.95-12.79,11.81-12.79,7.38,0,10.83,4.43,10.83,11.32"/><g><rect class="cls-2" x="0" y="101.86" width="466.51" height="466.51"/><path class="cls-1" d="M100.88,338.07c0,3.44,2.46,6.4,5.91,6.4h33.46c3.44,0,6.4-2.95,6.4-6.4s-2.95-6.4-6.4-6.4h-33.46c-3.44,.49-5.91,2.95-5.91,6.4"/><path class="cls-1" d="M365.63,338.07c0-3.44-2.46-5.91-5.91-6.4h-33.46c-3.44,0-6.4,2.95-6.4,6.4s2.95,6.4,6.4,6.4h33.46c3.44-.49,5.91-2.95,5.91-6.4"/><path class="cls-1" d="M239.65,245.06v-33.46c0-3.44-2.95-6.4-6.4-6.4s-6.4,2.95-6.4,6.4v33.46c0,3.44,2.95,6.4,6.4,6.4s6.4-2.95,6.4-6.4"/><path class="cls-1" d="M226.86,431.57v33.46c0,3.44,2.95,6.4,6.4,6.4s6.4-2.95,6.4-6.4v-33.46c0-3.44-2.95-6.4-6.4-6.4s-6.4,2.95-6.4,6.4"/><path class="cls-1" d="M149.11,297.23c2.95,1.48,6.89,0,8.37-3.44,.98-2.46,.49-5.91-1.97-7.38l-29.03-16.24c-2.95-1.48-6.89-.49-8.37,2.46-1.48,2.95-.49,6.89,2.46,8.37l28.54,16.24Z"/><path class="cls-1" d="M311.01,390.23l29.03,16.73c2.95,1.48,6.89,0,8.37-3.44,.98-2.46,.49-5.91-1.97-7.38l-29.03-16.73c-2.95-1.48-6.89,0-8.37,2.95-1.48,2.46-.49,5.91,1.97,7.87"/><path class="cls-1" d="M284.92,260.32l16.73-29.03c1.48-2.95,.49-6.4-2.46-8.37-2.95-1.48-6.4-.98-8.37,1.97l-16.73,29.53c-1.48,2.95,0,6.89,3.44,8.37,2.46,.98,5.91,0,7.38-2.46"/><path class="cls-1" d="M181.58,415.82l-16.73,29.03c-.98,3.44,.49,6.89,3.94,7.87,2.46,.98,5.41,0,6.89-1.97l16.73-29.03c1.97-2.95,.49-6.89-2.46-8.37-2.95-1.48-6.89,0-8.37,2.46"/><path class="cls-1" d="M189.46,262.78c2.95-1.48,3.94-5.41,2.46-8.37l-16.24-29.03c-1.97-2.95-5.91-3.44-8.86-1.97-2.46,1.97-3.44,4.92-1.97,7.87l16.73,29.03c1.48,2.95,5.41,3.94,7.87,2.46"/><path class="cls-1" d="M276.56,413.85c-2.95,1.48-3.94,5.41-2.46,8.37l16.73,29.03c1.97,2.95,5.41,3.94,8.37,2.46,2.95-1.97,3.94-5.41,2.46-8.37l-16.73-29.03c-1.48-2.95-5.41-3.94-8.37-2.46"/><path class="cls-1" d="M317.4,297.23l29.03-16.73c2.95-1.97,3.44-5.41,1.97-8.37-1.48-2.95-5.41-3.94-8.37-2.46l-29.03,16.73c-2.46,1.97-3.44,5.41-1.97,8.37,1.48,2.95,5.41,3.94,8.37,2.46"/><path class="cls-1" d="M126.47,406.96l29.03-16.73c2.95-1.97,3.94-5.41,2.46-8.37-1.97-2.95-5.41-3.94-8.37-2.46l-29.03,16.73c-2.95,1.97-3.44,5.91-1.97,8.86,1.48,2.46,4.92,3.44,7.87,1.97"/><path class="cls-1" d="M274.1,320.85c.49,7.87-2.95,15.25-8.86,20.67l-8.86,9.35c-3.44,2.95-5.91,7.38-5.41,12.3v3.94h22.64v10.33h-35.43v-14.76c0-7.87,2.95-13.29,10.33-21.16l7.38-8.37c3.94-3.44,5.41-8.86,4.92-13.78v-6.4c0-4.92-2.46-5.91-4.92-5.91s-5.41,1.48-5.41,6.4v9.84h-12.3v-9.84c0-11.32,5.91-17.72,18.21-17.72s17.72,5.41,17.72,17.22v7.87Zm-58.56,57.08l-7.87-25.59-7.87,25.59h-12.3l11.32-36.42-10.33-31.49h13.29l6.89,21.65,6.89-21.65h12.3l-10.33,31.99,11.81,35.43h-13.78v.49Zm17.72-117.12c-43.3,0-78.24,34.94-78.24,78.24s34.94,77.75,78.24,77.75,78.24-34.94,78.24-78.24-34.94-77.75-78.24-77.75"/><path class="cls-1" d="M426.65,358.25l-15.26-1.97c-.98,0-2.46,.49-2.46,1.97-12.79,98.42-103.34,167.31-201.27,154.03-42.32-5.41-81.2-26.08-109.74-57.58l4.92-4.43,11.32-10.33,.49-.49c.49-.49,.49-1.97,0-2.46s-.49-.49-.98-.49h-.49l-50.19-8.86h-.49c-.49,0-.98,0-1.48,.49-.49,.49-.49,.98-.49,.98v.98l4.43,50.19v.49c0,.49,0,.98,.49,1.48s1.97,.49,2.46,0l.49-.49,11.32-10.33,3.44-2.95c73.81,81.69,199.3,88.09,280.99,14.76,34.94-31.49,58.07-74.8,63.97-122.04,.49-1.97-.49-2.95-1.48-2.95"/><path class="cls-1" d="M233.75,157.47c51.18,0,99.9,21.65,133.85,60.04l-4.43,2.95-12.79,8.86-.49,.49c-.98,.49-.98,1.48-.49,2.46,0,.49,.49,.49,.98,.98h.49l48.23,16.73h.49c.49,0,.98,0,1.48-.49l.98-.98v-.98l2.95-50.19v-1.97c-.49-.98-1.48-.98-2.46-.49h-.49l-13.29,8.86-4.43,2.95c-71.85-83.16-197.33-92.02-280.5-20.18-37.89,32.48-62,78.24-67.42,127.95,0,1.48,.98,2.46,1.97,2.46l15.25,1.48c.98,0,2.46-.98,2.46-1.97,9.35-90.55,86.12-158.95,177.65-158.95"/></g></svg>