<?xml version="1.0" encoding="UTF-8"?><svg id="Capa_1" xmlns="http://www.w3.org/2000/svg" viewBox="0 0 467 568.37"><defs><style>.cls-1{fill:#fff;}.cls-2{fill:#c88b0c;}</style></defs><path class="cls-2" d="M4.92,80.7H461.59V4.92H4.92V80.7Zm462.08,4.92H0V0H466.51V85.62h.49Z"/><polygon class="cls-2" points="16.73 17.72 38.88 17.72 38.88 24.6 32.48 24.6 32.48 67.91 23.62 67.91 23.62 24.6 16.73 24.6 16.73 17.72"/><path class="cls-2" d="M49.21,52.16h6.89l-3.44-20.18-3.44,20.18Zm-10.33,15.75l9.35-50.19h9.35l9.84,50.19h-8.86l-1.48-9.35h-8.86l-1.48,9.35h-7.87Z"/><path class="cls-2" d="M80.21,24.6v15.75h2.95c2.95,0,3.94-1.48,3.94-3.94v-7.38c0-2.95-1.48-3.94-3.94-3.94h-2.95v-.49Zm0,20.18v23.13h-8.37V17.72h12.3c8.37,0,11.81,4.43,11.81,11.32v6.4c0,5.41-1.97,8.37-6.89,9.84l7.87,22.64h-8.86l-7.87-23.13Z"/><path class="cls-2" d="M113.67,41.34h11.81v26.57h-5.91v-5.41c-.98,3.94-3.44,5.91-7.87,5.91-7.38,0-10.33-5.91-10.33-13.29V31c0-7.87,3.94-13.29,12.79-13.29,9.35,0,11.81,5.41,11.81,12.79v4.43h-7.87v-4.92c0-2.95-.98-4.92-4.43-4.92-2.95,0-4.43,1.97-4.43,4.92v27.07c0,2.95,1.48,4.92,3.94,4.92,2.95,0,3.94-1.48,3.94-4.92v-9.35h-3.94v-6.4h.49Z"/><polygon class="cls-2" points="132.37 17.72 152.55 17.72 152.55 24.6 140.74 24.6 140.74 38.88 149.11 38.88 149.11 45.77 140.74 45.77 140.74 61.02 152.55 61.02 152.55 67.91 132.37 67.91 132.37 17.72"/><polygon class="cls-2" points="156.49 17.72 178.63 17.72 178.63 24.6 171.74 24.6 171.74 67.91 163.38 67.91 163.38 24.6 156.49 24.6 156.49 17.72"/><polygon class="cls-2" points="376.95 17.72 376.95 67.91 368.58 67.91 368.58 29.53 362.68 35.92 362.68 27.07 370.55 18.21 376.95 18.21 376.95 17.72"/><path class="cls-2" d="M383.84,58.56c0-4.92,1.48-8.37,6.4-13.29l4.92-4.92c2.95-2.95,2.95-4.43,2.95-8.86v-3.44c0-2.95-1.48-3.94-2.95-3.94-1.97,0-3.44,.98-3.44,3.94v6.4h-7.87v-6.4c0-6.89,3.94-10.83,11.32-10.83s10.83,3.44,10.83,10.33v4.92c0,4.92-.98,7.87-5.41,12.79l-5.41,5.91c-1.97,2.46-3.44,3.94-3.44,7.87v2.46h13.78v6.89h-21.65v-9.84Z"/><path class="cls-2" d="M419.76,36.91c3.44,0,5.91,2.95,5.91,5.91,0,3.44-2.95,5.91-5.91,5.91-3.44,0-5.91-2.95-5.91-5.91-.49-2.95,2.46-5.91,5.91-5.91"/><polygon class="cls-2" points="446.82 17.72 446.82 67.91 438.46 67.91 438.46 29.53 432.55 35.43 432.55 27.07 440.43 18.21 446.82 18.21 446.82 17.72"/><g><rect class="cls-2" x="0" y="101.86" width="466.51" height="466.51"/><path class="cls-1" d="M380.39,334.13c0-32.97-13.78-50.69-25.59-59.54-13.78-10.33-30.51-15.75-47.24-15.75-3.94,0-7.87,.49-11.32,.98l-.98,.49c-11.32,2.46-30.02,6.89-52.16,34.45l-.49,.98c-.49,.49-.49,.98-.49,1.48s0,.98,.49,1.48l.49,.98c3.44,5.91,6.4,11.32,8.86,15.75,.49,1.48,2.46,1.97,3.94,1.48,.49,0,.49-.49,.98-.98l.49-.49c18.7-26.08,33.95-29.53,43.8-31.99l.98-.49c1.97-.49,3.94-.49,5.91-.49,11.81,0,23.13,3.44,32.97,10.33,10.83,8.86,16.73,22.64,16.73,41.34,0,31.49-15.26,43.8-28.05,48.23-4.92,1.97-10.33,2.95-15.75,2.95-7.87,0-16.24-1.97-23.13-5.41l-.98-.49c-10.83-4.92-27.07-14.76-42.81-45.76-31.99-63.97-58.56-69.39-76.28-73.81h-.98c-3.94-.98-7.38-.98-11.32-.98-16.73,0-32.97,4.92-46.26,15.25-11.32,9.35-25.1,27.07-25.1,59.54-2.46,37.89,26.08,70.86,63.97,73.32h5.91c5.41,0,10.83-.49,16.24-1.48,9.84-1.97,19.68-6.4,27.56-12.79l9.35,8.37c.98,.98,2.95,.98,3.94,0,.49-.49,.49-.98,.49-1.97l7.38-44.29v-.49c0-1.48-1.48-2.46-2.46-2.46l-43.8,12.3h-.98c-.49,0-.98,.49-1.48,.98-.49,.49-.98,1.48-.49,1.97,0,.49,.49,1.48,.98,1.97l8.86,7.87c-4.43,2.46-8.86,4.43-13.78,5.91-3.94,.49-7.38,.98-11.32,.98-14.27,.49-27.56-5.91-36.91-16.73v-.49c-7.38-9.84-9.84-18.21-9.84-32.97,0-18.7,5.41-32.48,16.24-41.34,9.35-6.89,20.67-10.33,31.99-10.33,1.97,0,3.94,0,5.91,.49h.98c13.78,3.44,33.46,7.38,60.04,61.02,14.27,28.54,31.99,46.75,54.13,56.59,10.33,5.41,22.14,7.87,33.95,8.37,7.87,0,16.24-1.48,23.62-4.43,12.3-4.43,42.81-21.16,42.81-69.88"/><path class="cls-1" d="M430.58,135.33h-.98l-44.29,4.92s-1.48,0-1.97,.49c-.49,.49,0,1.48,.49,1.97l.49,.49,9.84,9.84-56.1,54.13c-.49,.49-.49,1.48,0,1.97l16.73,17.72c.49,.49,1.48,.49,1.97,0l56.1-54.13,9.84,10.33q.98,.98,1.97,.49c.49-.49,.98-.98,.98-1.48l6.4-44.78v-.49c0-.49-.49-.98-.49-1.48h-.98Z"/><path class="cls-1" d="M36.91,135.33h.98l44.29,4.92s1.97,0,1.97,.49c.49,.49,0,1.48-.49,1.97l-.49,.49-9.84,9.84,56.1,54.13c.49,.49,.49,1.48,0,1.97l-16.73,17.72c-.49,.49-1.48,.49-1.97,0l-56.1-54.13-9.84,10.33c-.49,.98-1.48,.98-1.97,.49-.49-.49-.98-.98-.98-1.48l-6.4-44.78v-.49c0-.49,0-.98,.49-1.48h.98Z"/><path class="cls-1" d="M36.42,535.4h.98l44.29-4.92s1.97,0,1.97-.98,0-1.48-.49-1.97l-.49-.49-9.84-9.84,56.1-54.13c.49-.49,.49-1.48,0-1.97l-16.73-17.72c-.49-.49-1.48-.49-1.97,0l-56.1,54.13-9.84-10.33c-.49-.98-.98-.98-1.97-.49-.49,.49-.98,.98-.98,1.48l-6.4,44.78v.49c0,.49,.49,.98,.49,1.48,.49,.49,.98,.49,.98,.49"/><path class="cls-1" d="M430.09,535.4h-.98l-44.29-4.92s-1.48,0-1.97-.98c-.49-.98,0-1.48,.49-1.97l.49-.49,9.84-9.84-56.1-54.13c-.49-.49-.49-1.48,0-1.97l16.73-17.72c.49-.49,1.48-.49,1.97,0l56.1,54.13,9.84-10.33c.98-.98,1.48-.98,1.97-.49,.49,.49,.49,.98,.98,1.48l6.4,44.78v.49c0,.49,0,.98-.49,1.48q-.49,.49-.98,.49"/></g></svg>