<?xml version="1.0" encoding="UTF-8"?><svg id="Capa_1" xmlns="http://www.w3.org/2000/svg" viewBox="0 0 467 568.37"><defs><style>.cls-1{fill:#0096d6;}.cls-2{fill:#fff;}</style></defs><path class="cls-1" d="M4.92,80.7H461.59V4.92H4.92V80.7Zm462.08,4.92H0V0H466.51V85.62h.49Z"/><polygon class="cls-1" points="16.73 17.72 38.88 17.72 38.88 24.6 32.48 24.6 32.48 67.91 23.62 67.91 23.62 24.6 16.73 24.6 16.73 17.72"/><path class="cls-1" d="M49.21,52.16h6.89l-3.44-20.18-3.44,20.18Zm-10.33,15.75l9.35-50.19h9.35l9.84,50.19h-8.86l-1.48-9.35h-8.86l-1.48,9.35h-7.87Z"/><path class="cls-1" d="M80.21,24.6v15.75h2.95c2.95,0,3.94-1.48,3.94-3.94v-7.38c0-2.95-1.48-3.94-3.94-3.94h-2.95v-.49Zm0,20.18v23.13h-8.37V17.72h12.3c8.37,0,11.81,4.43,11.81,11.32v6.4c0,5.41-1.97,8.37-6.89,9.84l7.87,22.64h-8.86l-7.87-23.13Z"/><path class="cls-1" d="M113.67,41.34h11.81v26.57h-5.91v-5.41c-.98,3.94-3.44,5.91-7.87,5.91-7.38,0-10.33-5.91-10.33-13.29V31c0-7.87,3.94-13.29,12.79-13.29,9.35,0,11.81,5.41,11.81,12.79v4.43h-7.87v-4.92c0-2.95-.98-4.92-4.43-4.92-2.95,0-4.43,1.97-4.43,4.92v27.07c0,2.95,1.48,4.92,3.94,4.92,2.95,0,3.94-1.48,3.94-4.92v-9.35h-3.94v-6.4h.49Z"/><polygon class="cls-1" points="132.37 17.72 152.55 17.72 152.55 24.6 140.74 24.6 140.74 38.88 149.11 38.88 149.11 45.77 140.74 45.77 140.74 61.02 152.55 61.02 152.55 67.91 132.37 67.91 132.37 17.72"/><polygon class="cls-1" points="156.49 17.72 178.63 17.72 178.63 24.6 171.74 24.6 171.74 67.91 163.38 67.91 163.38 24.6 156.49 24.6 156.49 17.72"/><polygon class="cls-1" points="369.07 17.72 369.07 67.91 360.71 67.91 360.71 29.53 354.8 35.43 354.8 27.07 362.68 18.21 369.07 18.21 369.07 17.72"/><path class="cls-1" d="M381.87,53.15h7.38v-20.67l-7.38,20.67Zm-7.38,1.48l14.76-36.91h7.87V53.15h3.44v6.4h-3.44v8.37h-7.87v-8.37h-14.76v-4.92Z"/><path class="cls-1" d="M414.35,36.91c3.44,0,5.91,2.95,5.91,5.91,0,3.44-2.95,5.91-5.91,5.91-3.44,0-5.91-2.95-5.91-5.91-.49-2.95,2.46-5.91,5.91-5.91"/><polygon class="cls-1" points="427.14 17.72 448.3 17.72 448.3 25.59 437.47 67.91 429.11 67.91 440.43 24.6 427.63 24.6 427.63 17.72 427.14 17.72"/><g><rect class="cls-1" x="0" y="101.86" width="466.51" height="466.51"/><path class="cls-2" d="M382.85,293.78c-4.43-.49-8.37,2.95-8.86,7.38-.49,4.43,2.95,8.37,7.38,8.86h1.48c4.43-.49,7.87-4.43,7.38-8.86,0-3.94-3.44-6.89-7.38-7.38"/><path class="cls-2" d="M350.37,259.83h-27.07v-26.57h32.48l-5.41,26.57Zm-32.48,0h-22.14v-26.57h22.14v26.57Zm-58.07-32.97v55.61h68.89l4.43-12.79h79.72v-9.35h-53.64l7.38-33.46h-106.78Z"/><rect class="cls-2" x="259.83" y="213.08" width="96.94" height="10.33"/><path class="cls-2" d="M382.85,313.96c-6.89,0-12.3-5.41-12.3-12.3s5.41-12.3,12.3-12.3,12.3,5.41,12.3,12.3-5.41,12.3-12.3,12.3m-128.93-22.14h-14.76l14.76-98.91v98.91Zm-29.03,0l27.07-94.48-14.27,94.97-12.79-.49Zm-5.41,0l-1.48-6.4h-8.86c0-7.87-5.91-14.27-13.78-14.76v-15.25h4.92v-2.95h-12.3v2.95h4.92v15.25h-.49l-69.88-74.8c22.64,5.41,89.07,14.27,130.41-7.38l-29.53,103.34h-3.94Zm-37.89-12.79l-49.21-68.89,57.08,61.51c-3.44,1.48-6.4,3.94-7.87,7.38m-1.48,6.4h-22.64l-34.94-84.15,58.07,81.2c-.49,.98-.49,1.97-.49,2.95m155.99-7.38l-4.92,13.78h-74.31v-104.82h4.43v-3.94h-4.43v-52.65h-2.95v52.65h-4.92v3.94h3.44c-41.83,22.14-110.72,12.3-131.39,6.89h-.49l-1.48,1.97v7.38h-.49v3.44h.49v2.46c-.98,.98-1.48,2.46-1.97,3.94,0,.98,0,1.97,.98,2.95,.49,.49,.98,.49,1.97,.49,1.48,0,2.46-1.48,2.46-2.95v-.49h-1.48v.49c0,.98-.49,1.97-.98,1.97s-.49,0-.49-.49c-.49-.49-.49-1.48-.49-1.97,0-1.48,.98-2.46,1.48-3.44v-2.95h.49v-3.44h-.49v-3.94l35.43,86.12,5.91,35.43c8.86,6.89,47.73,32.48,82.18,.49l.49-.49c.49-.49,.98-.49,1.48-.49s.98,0,1.48,.49l.49,.49c34.94,32.48,73.81,5.91,82.18-.49,0-.49,.49-.49,.98-.98h1.48l.98,.98c18.21,17.72,45.27,22.14,67.91,10.83l26.57-53.64h-92.02Z"/><path class="cls-2" d="M55.61,494.07c.98,0,1.97,.98,1.97,1.97s-.98,1.97-1.97,1.97-1.97-.98-1.97-1.97,.98-1.48,1.97-1.97m-14.76,4.92c2.95,2.46,6.89,4.43,10.83,4.92,4.43-.49,8.37-2.95,11.32-6.4-2.46-3.94-6.4-6.4-11.32-6.89-3.94,.49-7.87,2.46-10.83,4.92-1.48-2.46-3.44-4.43-6.4-4.92,2.46,3.94,2.46,8.86,0,12.3,2.46,0,4.92-1.48,6.4-3.94"/><path class="cls-2" d="M147.14,436.49c.98,0,1.97,.98,1.97,1.97s-.98,1.97-1.97,1.97-1.97-.98-1.97-1.97,.98-1.97,1.97-1.97m-23.62,10.33h0c3.44-.49,6.4-2.46,7.87-5.41,3.44,2.95,7.87,4.92,12.3,5.41,4.92-.49,9.35-2.95,12.3-6.89-2.95-3.94-7.38-6.89-12.3-7.38-4.43,.49-8.86,2.46-12.3,4.92-1.48-2.95-3.94-4.92-7.38-5.41,1.48,1.97,1.97,4.43,2.46,6.89-.49,2.95-1.48,5.41-2.95,7.87"/><path class="cls-2" d="M55.11,432.55c.98,0,1.97,.98,1.97,1.97s-.98,1.97-1.97,1.97-1.97-.98-1.97-1.97,.98-1.97,1.97-1.97m-16.24,4.92c3.44,2.95,7.87,4.92,12.3,5.41,4.92-.49,9.35-2.95,12.3-7.38-2.95-3.94-7.38-6.89-12.3-7.38-4.43,.49-8.86,2.46-12.3,5.41-1.48-2.95-3.94-4.92-7.38-5.41,1.48,1.97,1.97,4.43,1.97,6.89s-.98,4.92-1.97,6.89c3.44,.49,5.91-1.48,7.38-4.43"/><path class="cls-2" d="M54.13,388.26c.98,0,1.97,.49,2.46,1.48,0,.98-.49,1.97-1.48,2.46h-.49c-.98,0-1.97-.98-1.48-2.46-.49-.49,.49-.98,.98-1.48m-15.75,5.41c3.44,2.95,7.87,4.92,12.3,5.41,4.92-.49,9.35-2.95,12.3-7.38-2.95-3.94-7.38-6.89-12.3-7.38-4.43,.49-8.86,2.46-12.3,5.41-1.48-2.95-3.94-4.92-7.38-5.41,2.95,4.43,2.95,9.84,0,13.78,2.95,0,5.41-1.97,7.38-4.43"/><path class="cls-2" d="M112.2,475.86c-.98,0-1.97-.98-1.97-1.97s.98-1.97,1.97-1.97,1.97,.98,1.97,1.97c-.49,1.48-.98,1.97-1.97,1.97m-7.87-.49h0c2.46,3.44,6.89,5.91,11.32,6.4,3.94-.49,7.87-2.46,10.83-4.92,1.48,2.46,3.44,4.43,6.4,4.92-2.46-3.94-2.46-8.86,0-12.3-2.95,.49-5.41,2.46-6.4,4.92-2.95-2.46-6.89-4.43-10.83-4.92-4.43,0-8.86,2.46-11.32,5.91"/><path class="cls-2" d="M67.91,457.65c-1.48,0-2.46-.98-2.46-2.46s.98-2.46,2.46-2.46,2.46,.98,2.46,2.46c0,.98-.98,1.97-2.46,2.46m-9.84-1.48h0c3.44,4.92,8.37,7.87,14.27,8.86,5.41-.49,10.33-2.95,14.27-6.4,1.48,3.44,4.92,5.41,8.37,6.4-3.44-4.92-3.44-11.32,0-16.24-3.44,.49-6.89,2.95-8.37,6.4-3.94-3.94-8.86-6.4-14.27-6.89-5.91,.49-10.83,3.44-14.27,7.87"/><path class="cls-2" d="M84.15,407.95c-1.48,0-2.95-1.48-2.95-2.95s1.48-2.95,2.95-2.95,2.95,1.48,2.95,2.95-.98,2.95-2.95,2.95m34.94-11.81h0c-4.92,.49-8.86,3.44-10.83,7.38-4.92-4.43-11.32-6.89-18.21-7.87-7.38,.49-14.27,4.43-18.21,10.83,.98,1.48,8.37,10.83,18.21,10.83,6.89-.98,12.79-3.44,18.21-7.87,1.97,4.43,5.91,7.38,10.83,7.87,0,0,.49,0,.49-.49-1.97-2.95-2.95-6.4-3.44-9.84,0-3.44,.98-7.38,2.95-10.83,0,.49,0,0,0,0"/><path class="cls-2" d="M170.76,530.48v-10.33c3.94-2.46,6.89-4.92,8.86-6.4v9.84c-2.95,2.46-5.91,4.92-8.86,6.89m0-25.1c2.95-1.97,5.91-4.43,8.86-6.89v11.32c-2.95,2.46-5.91,4.92-8.86,6.89v-11.32Zm0-15.75c3.94-2.46,6.89-4.92,8.86-6.4v11.81h-.49c-2.46,2.46-5.41,4.92-8.37,6.89v-12.3Zm0-13.78c3.44-3.44,6.4-6.89,8.86-11.32v14.76c-2.95,2.46-5.91,4.92-8.86,6.89v-10.33Zm-3.44,12.79c-2.46,1.48-5.41,3.44-8.86,5.41v-8.37c2.95-1.97,5.91-3.94,8.86-6.4v9.35Zm0,15.75c-2.46,1.48-5.41,3.44-8.86,5.41v-12.3c3.44-1.97,5.91-3.94,8.86-5.41v12.3Zm0,14.76c-2.46,1.48-5.41,3.44-8.86,5.41v-10.83c3.44-1.97,5.91-3.94,8.86-5.41v10.83Zm0,14.27c-2.46,1.48-5.41,3.44-8.86,5.41v-10.83c3.44-1.97,5.91-3.44,8.86-5.41v10.83Zm-12.3-36.91c-2.46,1.48-5.41,2.95-8.86,4.92v-8.37c2.95-1.48,5.91-3.44,8.86-4.92v8.37Zm0,15.75c-2.46,1.48-5.41,2.95-8.86,4.43v-12.3c2.95-1.48,5.91-2.95,8.86-4.43v12.3Zm0,14.27c-2.46,1.48-5.41,2.95-8.86,4.43v-10.83c2.95-1.48,5.91-2.95,8.86-4.43v10.83Zm-12.3-23.62c-2.46,1.48-5.41,2.46-8.86,3.94v-8.37c2.95-1.48,5.91-2.46,8.86-3.94v8.37Zm0,15.75c-2.46,1.48-5.41,2.46-8.86,3.94v-12.3c2.95-1.48,5.91-2.46,8.86-3.94v12.3Zm0,13.78c-2.46,1.48-5.41,2.46-8.86,3.94v-10.83c2.95-1.48,5.91-2.46,8.86-3.94v10.83Zm-12.3-24.11l-8.86,3.44v-8.37c2.95-.98,5.91-2.46,8.86-3.44v8.37Zm0,15.75c-2.95,.98-5.41,2.46-8.86,3.44v-12.3c2.95-.98,5.91-2.46,8.86-3.44v12.3Zm-12.79-10.83c-2.95,.98-5.41,1.97-8.86,2.95v-8.37l8.86-2.95v8.37Zm0,15.75c-2.95,.98-5.91,1.97-8.86,2.95v-12.3l8.86-2.95v12.3Zm-12.3-11.32l-8.86,2.95v-8.37l8.86-2.95v8.37Zm0,15.25c-2.95,.98-5.91,1.97-8.86,2.46v-12.3l8.86-2.95v12.79Zm-12.3-11.32c-2.95,.98-5.91,1.48-8.86,2.46v-8.37l8.86-2.46v8.37Zm0,15.25c-2.95,.98-5.41,1.48-8.86,2.46v-11.81c2.95-.98,5.91-1.48,8.86-2.46v11.81Zm-12.3-11.81l-8.86,1.97v-8.37c2.95-.49,5.91-1.48,8.86-2.46v8.86Zm-12.3,2.95c-2.95,.49-5.91,.98-8.86,1.97v-7.87l8.86-1.97v7.87Zm-12.3,2.46l-8.86,1.48v-7.38l8.86-1.97v7.87Zm-12.79,1.97l-10.33,1.48v-6.89c2.95-.49,6.4-.98,10.33-1.97v7.38Zm140.25-95.47c0-3.44-.49-6.89-1.48-9.84-13.29-41.83-128.93-64.46-155.01-68.89v5.91c27.07,4.92,137.79,27.07,149.6,64.96,1.97,6.4,2.46,12.79,1.97,19.19v1.97c-.49,2.46-.98,4.92-1.48,7.38-11.81,36.42-114.17,58.56-146.15,64.46-.98,0-.98,2.46-.98,3.94v15.75h3.94v-4.92l10.33-1.48v6.4h3.94v-6.89l8.86-1.48v8.86h3.94v-9.35c2.95-.49,5.91-.98,8.86-1.97v11.32h3.94v-12.3c2.95-.49,5.91-1.48,8.86-1.97v14.27h3.94c2.95-.98,5.91-1.48,8.86-2.46v2.46h1.48v-3.44l8.86-2.46v5.91h3.94v-7.38c2.95-.98,5.91-1.97,8.86-2.95v9.84h2.95v-11.32c2.95-.98,5.91-2.46,8.86-3.44v14.76h3.94v-1.97c2.95-1.48,5.91-2.46,8.86-3.94v6.4h2.95v-7.87c2.95-1.48,5.91-2.95,8.86-4.43v12.3h3.94c3.44-1.97,5.91-3.44,8.37-5.41v5.41h3.44v-7.87c2.95-1.97,5.91-4.43,8.86-6.89v14.76h3.94v-105.31Z"/><path class="cls-2" d="M260.81,511.78c-1.97,0-3.44,.98-3.94,0-.49-.98-.49-3.44,.49-3.94,.98-.49,2.46-.98,3.44-.98,1.48,0,.98-1.48-.49-1.48s-2.46,.49-2.46-.49,.49-3.94-.98-3.94-.98,.98-.98,1.48,.49,3.94-.49,3.44c-.98-.49-1.48-.98-1.97-1.97-.49-.98-1.97-.49-1.48,.49,.49,.98,.98,1.97,1.48,2.46,1.48,1.97,1.48,2.46,.98,3.44-.98,1.48-2.46,2.95-3.94,3.94-.98,0-1.97,0-1.97-2.46s0-8.37-1.48-8.86-1.97,.49-1.97,1.48,.49,2.95,.49,3.94-.98,.49-1.48,0c-.49-.49-2.46-1.48-2.95-.49-.49,.49-.49,1.48,0,1.97,.98,.49,1.97,.49,2.46,1.48,.98,1.48,1.48,2.95,.49,4.43-1.97,2.95-4.43,5.91-6.89,8.37-1.48,1.48-5.41,.98-4.92-1.48,.49-2.46,.49-4.92,2.46-4.92s5.41,0,5.41-1.48-1.97-1.48-3.44-1.48c-.98,0-1.48-.49-1.48-.98v-.98c.49-.98,3.94-8.86,4.92-11.81,0,0,.49-1.48,1.48-1.48s2.46,0,3.44,.49c1.48,.49,1.97,0,1.97-.49s-.49-1.48-1.97-1.97c-1.48-.49-2.46-.98-2.46-1.48,.49-1.48,1.97-1.97,3.44-1.97,1.97,.49,3.44,.98,4.92,2.46,1.48,.98,2.46-.49,1.48-.98-.98-.49-2.46-1.97-2.95-2.95s0-1.48,.98-1.48,4.43-1.48,4.92-2.95c.49-1.48-1.48-1.97-3.44-.98-1.97,.98-3.44,1.97-3.94,.98v-3.94c0-.98-1.48-1.48-1.97-.49,0,.98-.49,2.46-.49,3.44-.49,1.97-1.97,3.44-3.94,4.43-.98,0-1.48-.49-1.48-1.48s0-3.44,1.48-3.94c1.48-.49,2.46-1.48,2.46-2.46s-1.97,0-2.95,.49c-.98,.49-2.46,.49-1.97-.98,0-1.97,.49-3.94,1.48-5.41,1.48-1.48,.98-1.97,0-2.46-.98-.49-1.48,.49-2.46,1.48-.98,.98-1.97,.98-2.46-.49-.49-1.48-2.46-3.94-3.94-2.95-1.48,.98-1.48,2.95-.49,4.92,.98,1.97,2.95,4.43,1.97,4.92-.98,.49-1.97,0-3.44-.49-.49-.49-.98-.49-1.48,0s-.49,.98,0,1.48h.49c1.97,.98,3.44,2.46,4.92,3.94,.98,1.97,1.48,3.94,1.48,6.4,0,2.95-.49,4.92-.98,3.94-1.48-1.48-2.95-3.44-4.92-4.43-2.46-1.48-3.94-1.48-3.94-3.44s.49-5.41-1.97-5.41-1.97,2.46-1.97,2.95,0,3.44-.98,2.95c-.98-.49-5.41-3.44-6.4-1.48-.98,1.97,.98,2.46,1.97,2.95,.98,.49,4.43,1.48,4.92,2.46,.49,.98-.49,.98-1.48,1.48-.98,.49-3.94,1.97-3.44,3.44,.49,1.48,1.48,.98,2.46,.49,1.97-1.48,3.94-2.46,6.4-2.95,2.95,.49,4.92,2.46,5.91,4.92,.49,1.97,.49,3.94,.49,6.4,0,.98-.98,1.48-2.46-.49-1.48-1.97-5.91-3.94-7.38-1.97-1.48,1.97,.98,1.97,2.46,3.44,1.48,1.48,3.94,2.95,3.94,4.92,0,2.95-.98,5.41-2.46,7.87-.98,.98-3.94,0-3.94-2.46s0-4.43-1.97-4.43-.98,2.95-2.46,2.95c-1.97-.49-2.95-2.46-2.95-4.43s.49-3.94,1.97-5.41c.98-.98,1.97-1.97,.98-2.95-.98-.98-1.97,0-2.95,.98-.98,.98-1.48,2.46-2.46,1.97-.98-1.48-1.97-2.95-3.44-3.94-1.48-1.48-3.44-1.48-4.43-.49-.98,.98-.49,1.48,.98,3.44,1.48,1.97,3.44,2.95,3.44,4.43s-.49,1.97-1.97,1.97-3.94,0-3.94,.98,.98,.98,3.44,1.48,4.43,1.48,5.41,3.44c1.48,1.97,4.43,5.41,3.94,6.89-.49,1.48-1.97,1.48-3.94-.98-1.97-2.46-2.95-1.97-3.44-.98-.49,1.48,0,2.46,.98,3.44,.98,.98,.49,1.48-.98,1.97-1.48,.49-3.44,.49-2.95,1.97,.49,1.48,1.48,1.97,2.95,.98,1.48-.98,1.97-1.48,3.44-1.97,1.48-.49,1.48,0,1.48,.98-.49,1.48-.98,2.46-.98,3.94,0,.98,1.48,1.97,1.97,.49,.49-1.48,1.97-5.91,3.44-6.4,2.46-.98,4.92,0,6.89,1.97,3.44,2.95,.98,7.87,1.48,9.35,2.95,.49,5.91,.98,6.4-.49,0-.49,.49-1.48,1.48-3.94,1.48-3.44,2.46-3.44,3.94-3.44s3.94,2.46,4.43,2.46,1.48,.49,1.97-.98c.49-1.48-.98-1.48-1.97-1.97s-2.95-1.48-3.44-2.95,0-2.95,1.97-2.95,5.41-.49,6.89,.98c.98,.98,1.97,2.95,1.48,4.43v2.95c.49,.49,.98,.98,1.48,.49,.98,0,.49-.98,.49-1.97v-2.95c.49-.98,.98-.49,.98,0,1.48,1.48,2.95,2.46,4.43,3.44,.49,0,1.48-.49,1.48-.98s0-.98-.49-.98c-.98-.98-1.97-1.97-2.95-2.95-.49-.98,0-.98,.49-1.48,.49-.49,1.97-1.97,1.48-2.95-.49-.98-1.97,0-3.44,.98-.98,.98-2.46,.98-3.94,0-1.48-.98-2.46-1.48-3.94-1.97-1.48-.49-1.97-1.48-.98-2.46,1.48-1.48,3.44-1.97,5.41-2.46,1.48,0,2.95,.49,3.44,1.48,.98,.98,2.46,.98,2.95,.49,.49-.49,.49-1.48-.49-2.46-.98-.98-1.48-.98-1.48-1.48s2.46-.49,4.43-.49,3.94-.98,3.44-2.46c-.49-1.48,1.97-2.95-.49-2.95"/><path class="cls-2" d="M394.17,489.64c-.49,.98-.98,1.97-1.48,2.95l31.49,22.64c0-8.86,2.95-17.22,8.86-24.11l-38.88-4.43v2.95Z"/><path class="cls-2" d="M273.11,432.06c-.98,0-1.97,.49-2.46,.98l-3.94-18.21-2.95,.49,4.43,19.19c-1.48,1.48-2.95,3.44-3.44,5.41-.49,0-.98,0-1.48,.49l-1.48,.98c-.98,.98-1.48,2.46-.98,3.44l5.41,8.86c.98,.98,2.46,1.48,3.44,.98l.49-.49c2.46,1.48,5.41,1.97,8.37,.98,3.94-.98,6.89-3.44,8.37-6.89l.49-.98c.49-1.97,.98-4.43,.49-6.89-1.97-5.41-8.37-9.84-14.76-8.37"/><path class="cls-2" d="M403.03,451.74h0l36.42-6.89c-6.4-5.91-10.33-14.27-10.83-23.13l-28.05,23.13c.98,.98,1.48,1.97,1.97,2.95,0,1.48,.49,2.95,.49,3.94"/><path class="cls-2" d="M359.72,467.98l3.44,.98h.98l31-11.32c.49,0,.98-.49,1.48-.98,1.97-1.48,2.95-3.44,2.95-5.41,0-.98,0-1.48-.49-2.46-.49-.98-.49-1.48-.98-1.97-1.48-1.48-2.95-2.46-4.92-2.46-.98,0-1.48,0-1.97,.49l-28.05,10.33-12.3-.98c.98,1.97,1.48,3.94,1.48,5.91l7.38,7.87Z"/><path class="cls-2" d="M386.3,480.29l-28.54-8.86-9.84-9.35v-1.48c0-.49,0-1.48-.49-1.97-.49-.98-.49-1.97-.98-2.46-1.48-2.46-3.94-4.43-6.89-4.92l-36.91-7.38h-1.97c-4.92,0-9.84,3.44-10.83,8.86-.98,5.41,1.97,10.33,6.89,12.3,1.48,1.97,2.46,4.43,3.94,6.4l-8.37,11.81c-2.46,1.97-2.46,5.41-.49,7.87l.49,.49c.49,.49,1.48,.98,2.46,.98,1.97-.49,3.94-1.48,5.41-2.95,.49-.49,1.97-2.46,3.94-4.92,3.94-4.92,9.84-11.81,9.84-11.81,.98-1.48,.98-2.95,.49-3.94l21.16,4.43h3.94l10.33,9.84,.98,.98,31.49,9.84c.49,0,.98,0,1.48,.49h.49c3.44,0,6.4-2.95,6.4-6.4,0-3.94-1.97-6.89-4.43-7.87"/><path class="cls-2" d="M238.67,435.51c1.48-1.97,.98-4.92-.98-6.89-1.97-1.48-4.92-.98-6.89,.98-1.48,1.97-.98,5.41,.98,6.89,2.46,1.48,5.41,.98,6.89-.98"/><path class="cls-2" d="M234.24,402.53c.98-1.48,.98-3.94-.49-4.92-1.48-.98-3.94-.98-4.92,.49-.98,1.48-.98,3.94,.49,4.92,1.48,.98,3.44,.98,4.92-.49"/><path class="cls-2" d="M323.8,512.76h-8.86c-1.97,0-2.95,0-3.44-1.97-.98-2.46-1.48-4.43-1.48-6.89,0-.98,0-1.48-.98-1.48s-.98,0-1.97,.98c-1.48,2.46-2.46,4.92-2.95,7.87,0,0-.49,1.97-1.97,1.97h-9.84s-1.48-.49-1.97,.98c-.49,1.48,.98,1.48,1.48,1.97l7.38,4.92s.98,.49,.49,1.97l-2.95,8.37s-.49,.98,0,1.48c.49,.49,1.48,.49,1.97,0,2.46-1.48,4.92-3.44,7.38-5.91,.49-.49,1.48-.49,2.46,0,2.46,1.97,4.92,3.94,7.38,5.41,0,0,.98,.98,1.97,.49,0,0,.98-.49,.49-1.48-.49-.98-3.44-7.87-3.44-8.37,0-.98,.49-1.97,.98-2.46,1.48-.98,6.89-3.94,7.87-4.92,.98-.98,1.48-2.95,0-2.95"/><path class="cls-2" d="M341.52,405.98c1.48,0,2.46,.98,2.46,2.46s-.98,2.46-2.46,2.46-2.46-.98-2.46-2.46,.98-2.46,2.46-2.46m-27.07,11.81h0c3.94-.49,6.89-2.46,8.86-5.91,3.94,3.44,8.86,5.41,13.78,5.91,5.91-.49,10.83-3.44,14.27-8.37-3.44-4.43-8.37-7.87-14.27-8.37-4.92,.49-9.84,2.46-13.78,5.91-1.48-3.44-4.92-5.41-8.37-5.91,3.44,4.92,3.44,11.32,0,15.75l-.49,.98Z"/><path class="cls-2" d="M376.95,407.46c0-2.95-1.97-4.92-4.92-4.92s-4.92,1.97-4.92,4.92,1.97,4.92,4.92,4.92,4.92-2.46,4.92-4.92"/><path class="cls-2" d="M394.66,396.63c1.48,0,2.46-.98,2.46-2.46s-.98-2.46-2.46-2.46-2.46,.98-2.46,2.46,.98,2.46,2.46,2.46"/><path class="cls-2" d="M405.49,346.44h0l-1.48,.49c-23.13,12.3-52.16,8.37-71.35-9.84-.49-.49-.98-.98-1.48-.98s-.98,.49-1.48,.98c-8.37,6.4-48.23,33.46-83.16,.49l-.49-.49c-.49-.49-.98-.49-1.48-.49s-.98,0-1.48,.49l-.49,.49c-35.43,32.97-74.8,5.91-83.66-.49-.49-.49-.98-.49-1.48-.98-.98,0-1.48,.49-1.48,2.46v16.73c0,.98,.49,1.97,1.48,2.95,37.89,35.92,77.26,6.89,85.62,0l.98-.98s.49-.49,.98-.49,.49,0,.98,.49l.98,.98c8.37,6.89,47.73,35.92,85.62,0,.49-.49,.98-.49,1.48-.49s.98,0,.98,.49l.49,.49c7.38,7.38,38.88,34.45,72.34,5.41,.49-.49,.49-.98,.49-1.48v-13.78c-.98-1.48-1.97-2.46-2.95-2.46"/></g></svg>