<?xml version="1.0" encoding="UTF-8"?><svg id="Capa_1" xmlns="http://www.w3.org/2000/svg" viewBox="0 0 467 568.37"><defs><style>.cls-1{fill:#00486e;}.cls-2{fill:#fff;}</style></defs><path class="cls-1" d="M4.92,80.7H461.59V4.92H4.92V80.7Zm462.08,4.92H0V0H466.51V85.62h.49Z"/><polygon class="cls-1" points="16.73 17.72 38.88 17.72 38.88 24.6 32.48 24.6 32.48 67.91 23.62 67.91 23.62 24.6 16.73 24.6 16.73 17.72"/><path class="cls-1" d="M49.21,52.16h6.89l-3.44-20.18-3.44,20.18Zm-10.33,15.75l9.35-50.19h9.35l9.84,50.19h-8.86l-1.48-9.35h-8.86l-1.48,9.35h-7.87Z"/><path class="cls-1" d="M80.21,24.6v15.75h2.95c2.95,0,3.94-1.48,3.94-3.94v-7.38c0-2.95-1.48-3.94-3.94-3.94h-2.95v-.49Zm0,20.18v23.13h-8.37V17.72h12.3c8.37,0,11.81,4.43,11.81,11.32v6.4c0,5.41-1.97,8.37-6.89,9.84l7.87,22.64h-8.86l-7.87-23.13Z"/><path class="cls-1" d="M113.67,41.34h11.81v26.57h-5.91v-5.41c-.98,3.94-3.44,5.91-7.87,5.91-7.38,0-10.33-5.91-10.33-13.29V31c0-7.87,3.94-13.29,12.79-13.29,9.35,0,11.81,5.41,11.81,12.79v4.43h-7.87v-4.92c0-2.95-.98-4.92-4.43-4.92-2.95,0-4.43,1.97-4.43,4.92v27.07c0,2.95,1.48,4.92,3.94,4.92,2.95,0,3.94-1.48,3.94-4.92v-9.35h-3.94v-6.4h.49Z"/><polygon class="cls-1" points="132.37 17.72 152.55 17.72 152.55 24.6 140.74 24.6 140.74 38.88 149.11 38.88 149.11 45.77 140.74 45.77 140.74 61.02 152.55 61.02 152.55 67.91 132.37 67.91 132.37 17.72"/><polygon class="cls-1" points="156.49 17.72 178.63 17.72 178.63 24.6 171.74 24.6 171.74 67.91 163.38 67.91 163.38 24.6 156.49 24.6 156.49 17.72"/><polygon class="cls-1" points="368.58 17.72 368.58 67.91 360.21 67.91 360.21 29.53 354.31 35.43 354.31 27.07 362.18 18.21 368.58 18.21 368.58 17.72"/><polygon class="cls-1" points="374.49 17.72 395.65 17.72 395.65 25.59 384.82 67.91 376.45 67.91 387.77 24.6 374.98 24.6 374.98 17.72 374.49 17.72"/><path class="cls-1" d="M409.42,36.91c3.44,0,5.91,2.95,5.91,5.91,0,3.44-2.95,5.91-5.91,5.91-3.44,0-5.91-2.95-5.91-5.91-.49-2.95,2.46-5.91,5.91-5.91"/><path class="cls-1" d="M429.6,53.15h7.38v-20.67l-7.38,20.67Zm-7.38,1.48l14.76-36.91h8.37V53.15h3.44v6.4h-3.44v8.37h-7.87v-8.37h-14.76v-4.92h-.49Z"/><g><rect class="cls-1" x="0" y="101.86" width="466.51" height="466.51"/><path class="cls-2" d="M402.54,363.17h-.49l-32.97-1.48h-.98c-.49,.49-.49,.98-.49,1.48l.49,.49,5.91,8.37,2.95,3.94-57.58,34.45-110.72,16.73h-.98l-95.47,66.43,5.41,8.37,93.5-64.96,111.71-16.73,59.54-35.43,2.95,4.43,5.91,8.37v.49c.49,.49,.98,.49,1.48,.49l.49-.49v-.49l10.33-31.99v-.49c0-.49,0-.98-.49-.98q-.49-.49-.49-.98"/><polygon class="cls-2" points="84.15 330.2 70.86 330.2 70.86 273.11 84.15 273.11 84.15 263.27 70.86 263.27 70.86 206.19 84.15 206.19 84.15 196.35 70.86 196.35 70.86 159.93 61.02 159.93 61.02 510.8 70.86 510.8 70.86 474.38 84.15 474.38 84.15 464.54 70.86 464.54 70.86 407.46 84.15 407.46 84.15 397.61 70.86 397.61 70.86 340.04 84.15 340.04 405.98 340.04 405.98 330.2 84.15 330.2"/><path class="cls-2" d="M207.17,284.92c-2.46,1.48-4.92,2.46-7.87,3.44-7.87,2.46-15.75,3.44-24.11,2.95-3.94,0-7.87-.49-11.81-.98-2.46-.49-4.92-.98-7.38-1.48-1.48-.49-2.46-.49-3.44-.98-3.44-.98-6.4-2.46-9.35-4.43-.98-.98-1.97-1.48-2.46-2.95v8.37c0,1.97,.98,3.94,2.95,4.92,5.41,3.94,11.81,6.4,18.7,6.89,4.43,.49,9.35,.98,13.78,.98,6.4,0,13.29-.49,19.68-2.46,3.44-.98,6.89-1.97,9.84-3.94,3.44-1.97,5.41-4.43,5.41-6.89,0,0,.49-7.38,0-7.87-1.48,1.97-2.46,3.44-3.94,4.43"/><path class="cls-2" d="M140.74,239.65c.49-1.48,1.48-2.95,2.95-3.94,.98,.98,2.46,1.97,3.44,2.46,9.35,3.94,19.19,6.4,29.03,5.91,8.37,0,16.73-.98,25.1-3.94,.98-.49,1.97-.98,2.95-1.48v.98c0,4.92-13.29,10.83-31.99,10.83s-31.49-5.91-31.49-10.83m35.43-27.56c18.7,0,31.99,5.91,31.99,10.83s-12.79,10.83-31.99,10.83-31.99-5.41-31.99-10.83,13.29-10.83,31.99-10.83m-3.44,48.72c19.68,0,35.43-5.91,35.43-13.29,0,0,.49-6.89,.49-8.37,0-.98-.49-1.97-.49-2.95,1.97-.98,3.44-3.44,3.94-5.91,0,0,.49-7.38,0-8.86-.98-8.86-18.7-13.78-35.43-13.78s-35.43,4.92-35.43,14.27c0,.49,.49,8.37,.49,8.37,0,.49,0,.98,.49,1.48-2.46,1.48-4.43,3.94-4.43,7.38,0,.49,.49,8.37,.49,8.37,0,1.97,.98,3.94,2.95,4.92,5.41,3.94,11.81,6.4,18.7,6.89,3.44,.98,8.37,1.48,12.79,1.48"/><path class="cls-2" d="M162.39,287.88c4.43,.98,8.86,.98,13.29,.98,6.4,0,13.29-.49,19.68-2.46,3.44-.98,6.89-1.97,9.84-3.94,.98-.49,1.48-.98,2.46-1.48,.98-.98,1.97-1.97,2.46-3.44,0-.49,.49-.98,.49-1.97v-7.87c-.98,1.48-4.43,5.91-18.21,8.86-5.91,.98-11.81,1.48-18.21,1.48-11.32,0-23.13-2.46-28.05-5.41-1.48-.98-2.95-1.97-4.43-2.95-.98-.98-1.48-1.48-1.97-2.46v8.37c0,1.97,.98,3.94,2.95,4.92,5.41,4.43,12.3,6.89,19.68,7.38"/><path class="cls-2" d="M207.17,259.83l-1.97,.98-2.95,1.48s-1.97,.98-2.95,.98-2.95,.98-4.43,.98c0,0-3.94,.49-5.41,.98l-5.41,.49c-.49,0-5.91,.49-8.37,.49-3.94,0-7.38-.49-11.32-.98-2.46-.49-5.41-.98-7.87-1.48-2.95-.49-5.91-1.48-8.37-2.46-1.48-.49-2.95-1.48-4.43-2.95-.98-.98-1.97-2.46-2.95-3.94v8.86c0,1.97,.98,3.94,2.95,4.92,5.41,3.94,11.81,6.4,18.7,6.89,4.43,.49,9.35,.98,13.78,.98,6.4,0,13.29-.49,19.68-2.46,3.44-.98,6.89-1.97,9.84-3.94,.98-.49,1.48-.98,2.46-1.48,.98-.98,1.97-1.97,2.46-3.44,0-.49,.49-.98,.49-1.97l.49-7.38c0-.49,0-.98-.49-1.97,0-.49-.49-.98-.98-1.48q-.49-.49-.98-.98c-.49-.49-.98-.49-1.48-.98-.49,.98-.98,1.48-1.48,1.97,.49,0,.98,.49,1.48,.98,.98,.49,1.48,1.48,1.48,2.46s-.49,1.97-1.48,2.46l-.49,1.97Z"/><path class="cls-2" d="M370.06,284.92c-2.46,1.48-4.92,2.46-7.87,3.44-7.87,2.46-15.75,3.44-24.11,2.95-3.94,0-7.87-.49-11.81-.98l-7.38-1.48c-.98-.49-2.46-.49-3.44-.98-3.44-.98-6.4-2.46-9.35-4.43-.98-.98-1.97-1.48-2.46-2.95v8.37c0,1.97,.98,3.94,2.95,4.92,5.41,3.94,11.81,6.4,18.7,6.89,4.43,.49,8.86,.98,13.78,.98,6.4,0,13.29-.49,19.68-2.46,3.44-.98,6.89-1.97,9.84-3.94,3.44-1.97,5.41-4.43,5.41-6.89v-7.87c-1.48,1.97-2.46,3.44-3.94,4.43"/><path class="cls-2" d="M303.62,239.65c.49-1.48,1.48-2.95,2.95-3.94,.98,.98,2.46,1.97,3.44,2.46,9.35,4.43,19.19,6.4,29.03,5.91,8.37,0,16.73-.98,25.1-3.94,.98-.49,1.97-.98,2.95-1.48,0,.49,.49,.49,.49,.98,0,4.92-13.29,10.83-31.99,10.83s-31.99-5.91-31.99-10.83m35.43-27.56c18.7,0,31.99,5.91,31.99,10.83s-13.29,10.83-31.99,10.83-31.99-5.41-31.99-10.83,13.29-10.83,31.99-10.83m-3.44,48.72c19.68,0,35.43-5.91,35.43-13.29,0,0,.49-6.89,.49-8.37,0-.98,0-1.97-.49-2.95,2.46-.98,3.94-3.44,3.94-5.91,0,0,.49-7.38,0-8.86-.98-8.86-18.7-13.78-35.43-13.78s-35.43,4.92-35.43,14.27c0,.49,.49,8.37,.49,8.37,0,.49,0,.98,.49,1.48-2.46,1.48-4.43,3.94-4.43,7.38,0,.49,.49,8.37,.49,8.37,0,1.97,.98,3.94,2.95,4.92,5.41,3.94,11.81,6.4,18.7,6.89,3.44,.98,8.37,1.48,12.79,1.48"/><path class="cls-2" d="M325.28,287.88c4.43,.49,8.86,.98,13.78,.98,6.4,0,13.29-.49,19.68-2.46,3.44-.98,6.89-1.97,9.84-3.94,.98-.49,1.48-.98,1.97-1.48,.98-.98,1.97-1.97,2.46-3.44,.49-.49,.49-.98,.49-1.97v-7.87c-.98,1.48-3.94,5.91-18.21,8.86-5.91,.98-11.81,1.48-18.21,1.48-11.32,0-23.13-2.46-28.05-5.41-1.48-.98-2.95-1.97-4.43-2.95-.98-.98-1.48-1.48-1.97-2.46v8.37c0,1.97,.98,3.94,2.95,4.92,5.91,4.43,12.3,6.89,19.68,7.38"/><path class="cls-2" d="M370.06,259.83l-1.97,.98-2.95,1.48s-1.97,.98-2.95,.98-3.44,.49-4.43,.98c-.49,0-3.94,.49-5.41,.98l-5.41,.49c-.49,0-5.91,.49-8.37,.49-3.94,0-7.38-.49-11.32-.98-2.46-.49-5.41-.98-7.87-1.48-2.95-.49-5.91-1.48-8.37-2.46-1.48-.49-2.95-1.48-4.43-2.95-.98-.98-1.97-2.46-2.95-3.44v8.86c0,1.97,.98,3.94,2.95,4.92,5.41,3.94,11.81,6.4,18.7,6.89,4.43,.49,9.35,.98,13.78,.98,6.4,0,13.29-.49,19.68-2.46,3.44-.98,6.89-1.97,9.84-3.94,.98-.49,1.48-.98,1.97-1.48,.98-.98,1.97-1.97,2.46-3.44,0-.49,.49-.98,.49-1.97l.49-7.38v-1.97c0-.49-.49-.98-.98-1.48-.49-.49-.98-.98-.98-.98-.49-.49-.98-.49-1.48-.98-.49,.98-.98,1.48-1.48,1.97,.49,0,.98,.49,1.48,.98,.98,.49,1.48,1.48,1.48,2.46s-.49,1.97-.98,2.46l-.98,1.48Z"/><path class="cls-2" d="M221.94,214.06c.49-1.97,1.48-3.44,2.95-3.94,.98,.98,2.46,1.97,3.44,2.46,9.35,3.94,19.19,5.91,29.03,5.91,8.37,.49,16.73-.98,24.6-3.44l2.95-1.48v.98c0,4.92-13.29,10.83-31.99,10.83s-31-5.91-31-11.32m35.43-27.56c18.7,0,31.99,5.41,31.99,10.83s-13.29,10.83-31.99,10.83-31.99-5.91-31.99-10.83,13.29-10.83,31.99-10.83m-3.44,49.21c19.68,0,35.43-5.91,35.43-13.29,0,0,.49-6.89,.49-8.37,0-.98-.49-1.97-.49-2.95,1.97-.98,3.44-3.44,3.94-5.91,0,0,.49-7.38,0-8.86-.98-8.86-18.7-13.78-35.43-13.78s-35.43,4.92-35.43,14.27c0,.49,.49,8.37,.49,8.37,0,.49,0,.98,.49,1.48-2.46,1.48-4.43,4.43-4.43,7.38,0,.49,.49,8.37,.49,8.37,0,1.97,.98,3.94,2.95,4.92,5.41,3.94,12.3,6.4,18.7,7.38,3.44,.49,8.37,.98,12.79,.98"/><path class="cls-2" d="M292.8,228.33c0-.49-.49-.98-.98-1.48l-.98-.98c-.49-.49-.98-.49-1.48-.98-.49,.98-.98,1.48-1.48,1.97,.49,0,.98,.49,1.48,.98,.98,.49,1.48,1.48,1.48,2.46s-.49,1.97-1.48,2.46c-.49,.49-.98,.49-1.48,.98-.49,.49-1.48,.98-1.97,.98l-2.95,1.48-2.95,.98-4.43,.98-4.92,1.48-5.41,.49c-.49,0-5.91,.49-8.37,.49-3.94,0-7.38-.49-11.32-.98-2.46-.49-5.41-.98-7.87-1.48-2.95-.49-5.91-1.48-8.37-2.46-1.48-.49-2.95-1.97-4.43-2.95-.98-.98-1.97-2.46-2.95-3.94v9.35c0,1.97,.98,3.94,2.95,4.92,5.41,3.94,11.81,6.4,18.7,6.89,4.43,.49,9.35,.98,13.78,.98,6.4,0,13.29-.49,19.68-2.46,3.44-.98,6.89-1.97,9.84-3.94,.98-.49,1.48-.98,2.46-1.48,.98-.98,1.97-1.97,2.46-3.44,0-.49,.49-.98,.49-1.97l.49-7.38v-1.97Z"/><path class="cls-2" d="M288.86,259.33c-2.46,1.48-4.92,2.46-7.87,3.44-7.87,2.46-15.75,3.44-24.11,2.95-3.94,0-7.87-.49-11.81-.98-2.46-.49-4.92-.98-7.38-1.48-1.48-.49-2.46-.49-3.44-.98-3.44-.98-6.4-2.46-9.35-4.43-.98-.98-1.97-1.97-2.46-2.95v7.87c0,1.97,.98,3.94,2.95,4.92,5.41,3.94,11.81,6.4,18.7,6.89,4.43,.49,9.35,.98,13.78,.98,6.4,0,13.29-.49,19.68-2.46,3.44-.98,6.89-1.97,9.84-3.94,3.44-1.97,5.41-4.43,5.41-6.89v-7.87c-1.48,2.46-2.46,3.94-3.94,4.92"/><path class="cls-2" d="M224.89,255.4c5.41,3.94,11.81,6.4,18.7,6.89,4.43,.49,9.35,.98,13.78,.98,6.4,0,13.29-.49,19.68-2.46,3.44-.98,6.89-1.97,9.84-3.94,.98-.49,1.48-.98,2.46-1.48,.98-.98,1.97-1.97,2.46-3.44,0-.49,.49-.98,.49-1.97v-7.87c-.98,1.48-3.94,5.91-18.21,8.86-5.91,.98-11.81,1.48-18.21,1.48-9.84,.49-19.19-1.48-28.05-5.41-1.48-.98-2.95-1.97-4.43-2.95-.98-.98-1.48-1.48-1.97-2.46v8.37c0,2.95,1.48,4.43,3.44,5.41"/><path class="cls-2" d="M293.29,280.5c-.98,1.48-2.46,2.95-4.43,3.94-2.46,1.48-4.92,2.46-7.87,3.44-7.87,2.46-15.75,3.44-24.11,2.95-3.94,0-7.87-.49-11.81-.98-2.46-.49-4.92-.98-7.38-1.48l-3.44-.98c-3.44-.98-6.4-2.46-9.35-4.43-.98-.98-1.97-1.48-2.46-2.95v8.86c0,1.97,.98,3.94,2.95,4.92,5.41,3.94,11.81,6.4,18.7,6.89,4.43,.49,8.86,.98,13.78,.98,6.4,0,13.29-.49,19.68-2.46,3.44-.98,6.89-1.97,9.84-3.94,3.44-1.97,4.92-4.43,4.92-6.89,.49,0,.98-7.38,.98-7.87"/><path class="cls-2" d="M243.59,287.88c4.43,.49,9.35,.98,13.78,.98,6.4,0,13.29-.49,19.68-2.46,3.44-.98,6.89-1.97,9.84-3.94,.98-.49,1.48-.98,1.97-1.48,.98-.98,1.97-1.97,2.46-3.44,0-.49,.49-.98,.49-1.97v-7.87c-.98,1.48-3.94,5.91-18.21,8.86-5.91,.98-11.81,1.48-18.21,1.48-9.84,0-19.19-1.48-28.05-5.41-1.48-.98-2.95-1.97-4.43-2.95-.98-.98-1.48-1.48-1.97-2.46v8.37c0,1.97,.98,3.94,2.95,4.92,5.91,4.43,12.79,6.89,19.68,7.38"/></g></svg>