<?xml version="1.0" encoding="UTF-8"?><svg id="Capa_1" xmlns="http://www.w3.org/2000/svg" viewBox="0 0 467 568.37"><defs><style>.cls-1{fill:#00486e;}.cls-2{fill:#fff;}</style></defs><path class="cls-1" d="M4.92,80.7H461.59V4.92H4.92V80.7Zm462.08,4.92H0V0H466.51V85.62h.49Z"/><polygon class="cls-1" points="16.73 17.72 38.88 17.72 38.88 24.6 32.48 24.6 32.48 67.91 23.62 67.91 23.62 24.6 16.73 24.6 16.73 17.72"/><path class="cls-1" d="M49.21,52.16h6.89l-3.44-20.18-3.44,20.18Zm-10.33,15.75l9.35-50.19h9.35l9.84,50.19h-8.86l-1.48-9.35h-8.86l-1.48,9.35h-7.87Z"/><path class="cls-1" d="M80.21,24.6v15.75h2.95c2.95,0,3.94-1.48,3.94-3.94v-7.38c0-2.95-1.48-3.94-3.94-3.94h-2.95v-.49Zm0,20.18v23.13h-8.37V17.72h12.3c8.37,0,11.81,4.43,11.81,11.32v6.4c0,5.41-1.97,8.37-6.89,9.84l7.87,22.64h-8.86l-7.87-23.13Z"/><path class="cls-1" d="M113.67,41.34h11.81v26.57h-5.91v-5.41c-.98,3.94-3.44,5.91-7.87,5.91-7.38,0-10.33-5.91-10.33-13.29V31c0-7.87,3.94-13.29,12.79-13.29,9.35,0,11.81,5.41,11.81,12.79v4.43h-7.87v-4.92c0-2.95-.98-4.92-4.43-4.92-2.95,0-4.43,1.97-4.43,4.92v27.07c0,2.95,1.48,4.92,3.94,4.92,2.95,0,3.94-1.48,3.94-4.92v-9.35h-3.94v-6.4h.49Z"/><polygon class="cls-1" points="132.37 17.72 152.55 17.72 152.55 24.6 140.74 24.6 140.74 38.88 149.11 38.88 149.11 45.77 140.74 45.77 140.74 61.02 152.55 61.02 152.55 67.91 132.37 67.91 132.37 17.72"/><polygon class="cls-1" points="156.49 17.72 178.63 17.72 178.63 24.6 171.74 24.6 171.74 67.91 163.38 67.91 163.38 24.6 156.49 24.6 156.49 17.72"/><polygon class="cls-1" points="348.4 17.72 348.4 67.91 340.04 67.91 340.04 29.53 334.13 35.43 334.13 27.07 342.01 18.21 348.4 18.21 348.4 17.72"/><polygon class="cls-1" points="354.31 17.72 375.47 17.72 375.47 25.59 364.64 67.91 356.28 67.91 367.6 24.6 354.8 24.6 354.8 17.72 354.31 17.72"/><path class="cls-1" d="M388.76,36.91c3.44,0,5.91,2.95,5.91,5.91,0,3.44-2.95,5.91-5.91,5.91-3.44,0-5.91-2.95-5.91-5.91s2.95-5.91,5.91-5.91"/><polygon class="cls-1" points="416.81 17.72 416.81 67.91 408.44 67.91 408.44 29.53 402.54 35.43 402.54 27.07 410.41 18.21 416.81 18.21 416.81 17.72"/><path class="cls-1" d="M429.6,53.15h7.38v-20.67l-7.38,20.67Zm-7.38,1.48l14.76-36.91h8.37V53.15h3.44v6.4h-3.44v8.37h-7.87v-8.37h-14.76v-4.92h-.49Z"/><g><rect class="cls-1" y="101.86" width="466.51" height="466.51"/><path class="cls-2" d="M197.82,317.89c1.97-2.95,3.94-5.91,6.4-8.37l-21.65-23.62c-5.41,5.41-10.33,11.32-13.78,18.21l29.03,13.78Z"/><path class="cls-2" d="M250.48,301.16c3.44,1.48,6.4,3.44,8.86,5.91l21.65-23.62c-5.91-4.92-12.3-8.86-19.19-11.81l-11.32,29.53Z"/><path class="cls-2" d="M300.18,308.05l-28.54,14.27c1.48,3.44,2.46,6.89,2.95,10.33l31.99-2.95c-.98-7.38-2.95-14.76-6.4-21.65"/><path class="cls-2" d="M269.67,318.39l28.54-14.27c-3.44-6.4-8.37-12.79-13.29-17.72l-21.65,23.62c2.46,2.46,4.43,5.41,6.4,8.37"/><path class="cls-2" d="M191.92,339.05v-1.97l-31.99-2.95v4.92c0,5.91,.49,11.81,1.97,17.72l31-8.86c-.49-2.95-.98-5.91-.98-8.86"/><path class="cls-2" d="M265.73,365.14c-2.46,2.95-4.92,5.41-7.87,7.38l16.73,27.56c6.4-4.43,11.81-9.35,16.73-15.25l-25.59-19.68Z"/><path class="cls-2" d="M275.08,339.05c0,2.95,0,5.91-.98,8.86l31,8.86c1.48-5.91,1.97-11.81,1.97-17.72v-4.43l-31.99,2.95v1.48"/><path class="cls-2" d="M201.76,365.63l-25.59,19.68c4.92,5.91,10.33,10.83,16.73,15.25l17.22-27.56c-2.95-1.97-5.91-4.43-8.37-7.38"/><path class="cls-2" d="M192.41,332.17c.49-3.44,1.48-6.89,2.95-10.33l-28.54-14.27c-3.44,6.89-5.41,14.27-6.4,21.65l31.99,2.95Z"/><path class="cls-2" d="M270.65,402.54l-16.73-27.56c-2.95,1.97-6.4,2.95-9.84,3.94l5.91,31.49c7.38-1.48,14.27-4.43,20.67-7.87"/><path class="cls-2" d="M272.62,352.34c-.98,3.44-2.46,6.4-4.43,9.35l25.59,19.19c4.43-5.91,7.38-12.79,9.84-19.68l-31-8.86Z"/><path class="cls-2" d="M239.65,379.9c-1.97,.49-3.94,.49-5.91,.49-1.48,0-3.44,0-4.92-.49l-6.4,31.99c3.44,.49,7.38,.98,10.83,.98,3.94,0,7.87-.49,11.81-.98l-5.41-31.99Z"/><path class="cls-2" d="M236.21,297.23c3.44,0,6.89,.98,10.33,1.97l11.32-30.02c-6.89-2.46-14.27-3.94-21.65-3.94v31.99Z"/><path class="cls-2" d="M223.9,379.41c-3.44-.98-6.89-1.97-10.33-3.94l-16.73,27.56c6.4,3.94,13.78,6.4,21.16,7.87l5.91-31.49Z"/><path class="cls-2" d="M220.95,299.19c3.44-.98,6.89-1.48,10.33-1.97v-31.99c-7.38,0-15.25,1.48-22.14,3.94l11.81,30.02Z"/><path class="cls-2" d="M199.3,362.18c-1.97-2.95-3.94-6.4-4.92-9.84l-31,8.86c2.46,7.38,5.91,14.27,10.33,20.18l25.59-19.19Z"/><path class="cls-2" d="M207.66,306.08c2.95-1.97,5.91-3.94,8.86-5.41l-11.32-29.53c-6.89,2.95-13.29,6.89-18.7,11.81l21.16,23.13Z"/><polygon class="cls-2" points="350.87 297.72 345.94 297.72 345.94 392.69 415.82 392.69 415.82 386.79 350.87 386.79 350.87 297.72"/><path class="cls-2" d="M416.31,338.07h-51.18q-.49,0-.49-.49v-7.87s0-.49,.49-.49h50.69l.49,8.86Zm0,14.76h0c0,.49-.49,.49,0,0l-51.18,.49s-.49,0-.49-.49v-7.87q0-.49,.49-.49h50.69s.49,0,.49,.49v7.87Zm0,15.25h0q0,.49,0,0l-51.18,.49q-.49,0-.49-.49v-7.87s0-.49,.49-.49h50.69s.49,0,.49,.49v7.87Zm-60.04,12.79h67.91v-94.97h-67.91v94.97Z"/><polygon class="cls-2" points="47.24 297.72 42.32 297.72 42.32 392.69 112.69 392.69 112.69 386.79 47.24 386.79 47.24 297.72"/><path class="cls-2" d="M112.69,338.07H61.51q-.49,0-.49-.49v-7.87q0-.49,.49-.49h50.69l.49,8.86Zm0,14.76h0c0,.49-.49,.49,0,0l-51.18,.49s-.49,0-.49-.49v-7.87q0-.49,.49-.49h50.19s.49,0,.49,.49l.49,7.87Zm0,15.25h0q0,.49,0,0l-51.18,.49q-.49,0-.49-.49v-7.87s0-.49,.49-.49h50.19s.49,0,.49,.49l.49,7.87Zm-60.04,12.79H121.06v-94.97H52.65v94.97Z"/><path class="cls-2" d="M344.47,463.06l-13.78-10.83c-.98-.98-2.95-1.48-3.94,0-43.3,51.67-118.1,57.08-171.25,14.76-1.48-1.48-2.95-2.46-4.43-3.94l15.75-9.84c1.48-.98-.49-2.46-.49-2.46l-53.15-26.57c-1.48-.98-1.97,0-1.97,.98v.49l-.98,60.04c0,.49,.49,1.97,1.97,.98l17.22-10.83c3.44,3.44,6.89,6.4,10.83,9.35,62.99,50.69,152.06,43.8,204.22-17.22l.49-.49c.98-.98,.98-2.95-.49-4.43"/><path class="cls-2" d="M110.72,214.06l14.27,10.33c.98,.98,2.95,.98,3.94-.49,40.35-54.13,114.66-63.97,169.77-24.6,1.48,.98,3.44,2.46,4.92,3.94l-14.76,10.83c-1.48,.98,.98,2.46,.98,2.46l55.11,23.13c1.48,.98,1.97-.49,1.97-.98v-.49l-3.44-60.53c0-.49-.49-1.97-1.97-.98l-16.73,11.81c-3.44-2.95-7.38-5.91-11.32-8.86-65.94-46.75-154.52-34.94-202.74,29.03l-.49,.49c-.98,1.97-.98,3.94,.49,4.92"/></g></svg>