<?xml version="1.0" encoding="UTF-8"?><svg id="Capa_1" xmlns="http://www.w3.org/2000/svg" viewBox="0 0 467 568.37"><defs><style>.cls-1{fill:#00486e;}.cls-2{fill:#fff;}</style></defs><path class="cls-1" d="M4.92,80.7H461.59V4.92H4.92V80.7Zm462.08,4.92H0V0H466.51V85.62h.49Z"/><polygon class="cls-1" points="16.73 17.72 38.88 17.72 38.88 24.6 32.48 24.6 32.48 67.91 23.62 67.91 23.62 24.6 16.73 24.6 16.73 17.72"/><path class="cls-1" d="M49.21,52.16h6.89l-3.44-20.18-3.44,20.18Zm-10.33,15.75l9.35-50.19h9.35l9.84,50.19h-8.86l-1.48-9.35h-8.86l-1.48,9.35h-7.87Z"/><path class="cls-1" d="M80.21,24.6v15.75h2.95c2.95,0,3.94-1.48,3.94-3.94v-7.38c0-2.95-1.48-3.94-3.94-3.94h-2.95v-.49Zm0,20.18v23.13h-8.37V17.72h12.3c8.37,0,11.81,4.43,11.81,11.32v6.4c0,5.41-1.97,8.37-6.89,9.84l7.87,22.64h-8.86l-7.87-23.13Z"/><path class="cls-1" d="M113.67,41.34h11.81v26.57h-5.91v-5.41c-.98,3.94-3.44,5.91-7.87,5.91-7.38,0-10.33-5.91-10.33-13.29V31c0-7.87,3.94-13.29,12.79-13.29,9.35,0,11.81,5.41,11.81,12.79v4.43h-7.87v-4.92c0-2.95-.98-4.92-4.43-4.92-2.95,0-4.43,1.97-4.43,4.92v27.07c0,2.95,1.48,4.92,3.94,4.92,2.95,0,3.94-1.48,3.94-4.92v-9.35h-3.94v-6.4h.49Z"/><polygon class="cls-1" points="132.37 17.72 152.55 17.72 152.55 24.6 140.74 24.6 140.74 38.88 149.11 38.88 149.11 45.77 140.74 45.77 140.74 61.02 152.55 61.02 152.55 67.91 132.37 67.91 132.37 17.72"/><polygon class="cls-1" points="156.49 17.72 178.63 17.72 178.63 24.6 171.74 24.6 171.74 67.91 163.38 67.91 163.38 24.6 156.49 24.6 156.49 17.72"/><polygon class="cls-1" points="369.07 17.72 369.07 67.91 360.71 67.91 360.71 29.53 354.8 35.43 354.8 27.07 362.68 18.21 369.07 18.21 369.07 17.72"/><polygon class="cls-1" points="374.98 17.72 396.14 17.72 396.14 25.59 385.31 67.91 376.95 67.91 388.26 24.6 375.47 24.6 375.47 17.72 374.98 17.72"/><path class="cls-1" d="M409.42,36.91c3.44,0,5.91,2.95,5.91,5.91,0,3.44-2.95,5.91-5.91,5.91-3.44,0-5.91-2.95-5.91-5.91s2.95-5.91,5.91-5.91"/><path class="cls-1" d="M439.93,56.59v-8.86c0-3.44-.98-4.92-3.94-4.92-2.46,0-3.94,1.97-3.94,4.43v9.35c0,2.95,.98,4.92,3.94,4.92,2.46,0,3.94-1.48,3.94-4.92m-16.73-1.48V30.51c0-7.87,3.44-13.29,12.3-13.29,9.35,0,11.81,5.41,11.81,12.79v2.46h-7.87v-3.44c0-2.95-.98-4.92-3.94-4.92s-3.94,1.97-3.94,4.92v10.83c1.48-2.46,3.44-3.94,6.89-3.94,5.91,0,9.35,3.94,9.35,12.3v7.38c0,7.87-3.44,12.79-12.3,12.79s-12.3-5.41-12.3-13.29"/><g><rect class="cls-1" y="101.86" width="466.51" height="466.51"/><path class="cls-2" d="M251.95,382.36c0,13.29-10.83,24.11-24.11,24.11s-24.11-10.83-24.11-24.11,10.83-24.11,24.11-24.11,24.11,10.83,24.11,24.11m-65.45-127.45c0-22.64,18.7-41.34,41.34-41.34s41.34,18.7,41.34,41.34-18.7,41.34-41.34,41.34-41.34-18.21-41.34-41.34m-69.39-39.37c-13.29,0-24.11-10.83-24.11-24.11s10.83-24.11,24.11-24.11,24.11,10.83,24.11,24.11-10.83,24.11-24.11,24.11m219.97-48.23c13.29,0,24.11,10.83,24.11,24.11s-10.83,24.11-24.11,24.11-24.11-10.83-24.11-24.11c.49-13.29,10.83-24.11,24.11-24.11m-60.53,87.59c0-7.38-1.48-14.76-4.92-21.16l39.37-23.62c10.33,14.27,30.51,17.72,44.78,7.38,14.27-10.33,17.72-30.51,7.38-44.78-10.33-14.27-30.51-17.72-44.78-7.38-8.37,5.91-13.29,15.75-13.29,26.08,0,3.94,.98,7.87,2.46,11.81l-39.37,23.62c-15.75-22.14-46.26-27.56-68.4-11.81-4.92,3.44-8.86,7.38-12.3,12.3l-40.35-24.6c1.48-3.44,1.97-7.38,1.97-11.32,0-17.72-14.27-32.48-32.48-32.48s-32.48,14.27-32.48,32.48,14.27,32.48,32.48,32.48c10.33,0,20.18-4.92,26.57-13.29l40.35,24.11c-11.32,24.6-.98,53.64,23.62,64.96,5.41,2.46,10.83,3.94,16.73,4.43v46.26c-17.72,2.46-30.02,18.21-28.05,35.92,2.46,17.72,18.21,30.02,35.92,28.05,17.72-1.97,30.02-18.21,28.05-35.92-1.97-14.76-13.29-26.08-28.05-28.05v-46.75c25.1-2.46,44.78-23.13,44.78-48.72"/><path class="cls-2" d="M136.8,391.71c0-15.25-12.3-28.05-28.05-28.05s-28.05,12.3-28.05,28.05,12.3,28.05,28.05,28.05,28.05-12.3,28.05-28.05q.49,0,0,0"/><path class="cls-2" d="M109.74,498c-1.97,0-3.94-1.97-3.94-3.94s1.97-3.94,3.94-3.94,3.94,1.97,3.94,3.94-1.97,3.94-3.94,3.94m31.99-71.85h-15.26l-17.72,40.84-16.73-41.34h-15.26c-19.19,1.97-33.95,17.72-33.95,36.91v48.72h21.65v-37.89c0-2.46,.49-5.91,5.41-5.91,2.95,0,3.94,3.44,3.94,5.41v38.38h70.86v-38.38c0-1.97,.98-5.41,3.94-5.41,4.43,0,5.41,3.44,5.41,5.91v37.89h21.65v-48.72c0-18.7-14.76-34.94-33.95-36.42"/><path class="cls-2" d="M345.94,364.15c-15.75,0-29.03,12.79-29.03,29.03s12.79,29.03,29.03,29.03,29.03-12.79,29.03-29.03-12.79-29.03-29.03-29.03"/><path class="cls-2" d="M345.94,500.46c-1.97,0-3.94-1.97-3.94-3.94s1.97-3.94,3.94-3.94,3.94,1.97,3.94,3.94-1.48,3.94-3.94,3.94m34.94-34.45c3.94-.98,4.92,3.94,4.92,3.94l12.3,41.83h25.59l-19.19-62s-8.86-22.64-27.56-22.64h-14.27l-17.72,40.84-16.73-40.84h-12.79c-19.19,0-27.56,22.64-27.56,22.64l-18.7,62h25.59l12.3-41.83s.98-4.92,4.92-3.94c3.94,.98,2.46,6.4,2.46,6.4l-10.83,38.88h85.62l-10.83-38.88s-.98-5.41,2.46-6.4"/></g></svg>