<?xml version="1.0" encoding="UTF-8"?><svg id="Capa_1" xmlns="http://www.w3.org/2000/svg" viewBox="0 0 467 568.37"><defs><style>.cls-1{fill:#f49400;}.cls-2{fill:#fff;}</style></defs><path class="cls-1" d="M4.92,80.7H461.59V4.92H4.92V80.7Zm462.08,4.92H0V0H466.51l.49,85.62Z"/><polygon class="cls-1" points="16.73 17.72 38.88 17.72 38.88 24.6 32.48 24.6 32.48 67.91 23.62 67.91 23.62 24.6 16.73 24.6 16.73 17.72"/><path class="cls-1" d="M49.21,52.16h6.89l-3.44-20.18-3.44,20.18Zm-10.33,15.75l9.35-50.19h9.35l9.84,50.19h-8.86l-1.48-9.35h-8.86l-1.48,9.35h-7.87Z"/><path class="cls-1" d="M80.21,24.6v15.75h2.95c2.95,0,3.94-1.48,3.94-3.94v-7.38c0-2.95-1.48-3.94-3.94-3.94l-2.95-.49Zm0,20.18v23.13h-8.37V17.72h12.3c8.37,0,11.81,4.43,11.81,11.32v6.4c0,5.41-1.97,8.37-6.89,9.84l7.87,22.64h-8.86l-7.87-23.13Z"/><path class="cls-1" d="M113.67,41.34h11.81v26.57h-5.91v-5.41c-.98,3.94-3.44,5.91-7.87,5.91-7.38,0-10.33-5.91-10.33-13.29V31c0-7.87,3.94-13.29,12.79-13.29,9.35,0,11.81,5.41,11.81,12.79v4.43h-7.87v-4.92c0-2.95-.98-4.92-4.43-4.92-2.95,0-4.43,1.97-4.43,4.92v27.07c0,2.95,1.48,4.92,3.94,4.92,2.95,0,3.94-1.48,3.94-4.92v-9.35h-3.94v-6.4h.49Z"/><polygon class="cls-1" points="132.37 17.72 152.55 17.72 152.55 24.6 140.74 24.6 140.74 38.88 149.11 38.88 149.11 45.77 140.74 45.77 140.74 61.02 152.55 61.02 152.55 67.91 132.37 67.91 132.37 17.72"/><polygon class="cls-1" points="156.49 17.72 178.63 17.72 178.63 24.6 171.74 24.6 171.74 67.91 163.38 67.91 163.38 24.6 156.49 24.6 156.49 17.72"/><path class="cls-1" d="M431.08,52.16h6.89l-3.44-20.18-3.44,20.18Zm-10.33,15.75l9.35-50.19h9.35l9.35,50.19h-8.86l-1.48-9.35h-8.86l-1.48,9.35h-7.38Z"/><polygon class="cls-1" points="372.03 17.72 372.03 67.91 363.66 67.91 363.66 29.53 357.75 35.43 357.75 27.07 365.63 18.21 372.03 17.72"/><polygon class="cls-1" points="391.71 17.72 391.71 67.91 383.34 67.91 383.34 29.53 377.44 35.43 377.44 27.07 385.31 18.21 391.71 17.72"/><polygon class="cls-1" points="404.01 32.48 404.01 53.15 414.84 42.81 404.01 32.48"/><g><rect class="cls-1" x="0" y="101.86" width="466.51" height="466.51"/><path class="cls-2" d="M287.38,235.22h-116.13c-.98,0-1.97,.98-1.97,1.97v4.92c0,.98,.98,1.97,1.97,1.97h116.63c.98,0,1.97-.98,1.97-1.97v-4.92c0-.98-.98-1.97-2.46-1.97"/><path class="cls-2" d="M287.38,322.82h-116.13c-.98,0-1.97,.98-1.97,1.97v9.35c0,.98,.98,1.97,1.97,1.97h116.63c.98,0,1.97-.98,1.97-1.97v-9.35c0-.98-.98-1.97-2.46-1.97"/><path class="cls-2" d="M289.35,226.86c-6.4-27.56-30.51-47.73-60.04-47.73s-53.64,20.67-60.04,47.73v.98c0,.98,.98,1.48,1.97,1.97h116.63c.98,0,1.97-.98,1.97-1.97l-.49-.98Z"/><path class="cls-2" d="M271.15,309.04h-18.7v-50.19h18.7v50.19Zm-31.49,0h-18.7v-50.19h18.7v50.19Zm-31.49,0h-18.7v-50.19h18.7v50.19Zm75.78-58.56h-108.75c-.98,0-1.97,.98-1.97,1.97v62.99c0,.98,.98,1.97,1.97,1.97h108.75c.98,0,1.97-.98,1.97-1.97v-62.99c.49-.98-.49-1.97-1.97-1.97"/><path class="cls-2" d="M229.32,171.25v-22.64h5.41s5.41-.49,9.35,2.46c3.94,2.95,6.89,5.41,13.29,5.41h8.37v22.14h-8.86s-5.91,0-9.84-3.44c-1.97-1.48-4.43-3.44-11.32-3.94-6.89-.49-6.4,0-6.4,0"/><path class="cls-2" d="M93.01,318.39h-18.21v-18.7h18.21v18.7Zm49.7-36.91H60.04c-.49,0-.49,.49-.49,.49v54.62c0,.49,.49,.49,.49,.49h47.73v-36.42h19.68v36.42h15.26c.49,0,.49-.49,.49-.49l-.49-55.11c.49,0,0,0,0,0"/><path class="cls-2" d="M101.86,234.73h0q-.98-.98-1.48-.98c-.49,0-.98,.49-.98,.49l-.98,.49-44.29,41.34q-.49,.49,.49,.98h93.99q.49,0,.49-.49v-.49l-47.24-41.34Z"/><path class="cls-2" d="M389.74,322.32v13.78q0,.49,.49,.49h6.4q.49,0,.49-.49v-13.78c9.84-1.97,16.73-10.83,16.24-20.67,0-12.3-9.35-32.48-20.67-32.48s-20.18,20.18-20.18,32.48c-.49,10.33,6.89,19.19,17.22,20.67"/><path class="cls-2" d="M349.39,218c0,.49-.49,.49-.49,.49h-9.84c-.49,0-.49-.49-.49-.49v-10.83c0-.49,.49-.49,.49-.49h9.84c.49,0,.49,.49,.49,.49v10.83Zm0,25.1c0,.49-.49,.49-.49,.49h-9.84c-.49,0-.49-.49-.49-.49v-10.83c0-.49,.49-.49,.49-.49h9.84c.49,0,.49,.49,.49,.49v10.83Zm0,25.59c0,.49-.49,.49-.49,.49h-9.84c-.49,0-.49-.49-.49-.49v-10.83c0-.49,.49-.49,.49-.49h9.84c.49,0,.49,.49,.49,.49v10.83Zm0,25.1c0,.49-.49,.49-.49,.49h-9.84c-.49,0-.49-.49-.49-.49v-10.83c0-.49,.49-.49,.49-.49h9.84c.49,0,.49,.49,.49,.49v10.83Zm0,25.59c0,.49-.49,.49-.49,.49h-9.84c-.49,0-.49-.49-.49-.49v-10.83c0-.49,.49-.49,.49-.49h9.84c.49,0,.49,.49,.49,.49v10.83Zm-19.19-101.37c0,.49-.49,.49-.49,.49h-9.84c-.49,0-.49-.49-.49-.49v-10.83c0-.49,.49-.49,.49-.49h9.84c.49,0,.49,.49,.49,.49v10.83Zm0,25.1c0,.49-.49,.49-.49,.49h-9.84c-.49,0-.49-.49-.49-.49v-10.83c0-.49,.49-.49,.49-.49h9.84c.49,0,.49,.49,.49,.49v10.83Zm0,25.59c0,.49-.49,.49-.49,.49h-9.84c-.49,0-.49-.49-.49-.49v-10.83c0-.49,.49-.49,.49-.49h9.84c.49,0,.49,.49,.49,.49v10.83Zm0,25.1c0,.49-.49,.49-.49,.49h-9.84c-.49,0-.49-.49-.49-.49v-10.83c0-.49,.49-.49,.49-.49h9.84c.49,0,.49,.49,.49,.49v10.83Zm0,25.59c0,.49-.49,.49-.49,.49h-9.84c-.49,0-.49-.49-.49-.49v-10.83c0-.49,.49-.49,.49-.49h9.84c.49,0,.49,.49,.49,.49v10.83Zm25.59-132.87h-2.95v-9.84c1.48-.49,2.95-1.97,2.95-3.94s-1.48-3.94-3.94-3.94c-1.97,0-3.94,1.48-3.94,3.94,0,1.48,.98,2.95,2.95,3.94v9.84h-37.89c-.49,0-.98,.49-.98,.98v148.12c0,.49,.49,.98,.98,.98h43.3c.49,0,.98-.49,.98-.98V187.49c-.49-.49-.98-.98-1.48-.98"/><path class="cls-2" d="M296.24,422.71c-2.95,0-4.92-2.46-4.92-4.92,0-2.95,2.46-4.92,4.92-4.92,2.95,0,4.92,2.46,4.92,4.92,.49,2.46-1.97,4.92-4.92,4.92m-37.4,15.75l3.44-4.43h31.99l3.44,4.43h-38.88Zm-3.94-21.16c0-2.95,2.46-4.92,4.92-4.92s4.92,2.46,4.92,4.92c0,2.95-2.46,4.92-4.92,4.92s-4.92-1.97-4.92-4.92m1.97-37.4c0-.98,.98-1.97,1.97-1.97h38.88c.98,0,1.97,.98,1.97,1.97l1.48,17.72c0,.98-.49,1.97-1.48,1.97h-42.32c-.98,0-1.48-.98-1.48-1.97l.98-17.72Zm44.29,53.15c4.92-1.97,7.87-6.4,7.87-11.32l-2.95-41.34c0-6.89-5.41-12.3-12.3-12.3h-31.49c-6.89,0-12.3,5.41-12.3,12.3l-2.95,41.34c0,5.41,3.44,9.84,7.87,11.32l-10.33,13.78h7.87l2.95-3.94h45.77l2.95,3.94h7.87l-10.83-13.78Z"/><path class="cls-2" d="M214.06,431.57c-2.95,0-4.92-1.97-4.92-4.92s1.97-4.92,4.92-4.92,4.92,1.97,4.92,4.92-1.97,4.92-4.92,4.92m-9.84-6.4h-20.18v-2.95h20.18v2.95Zm0,6.4h-20.18v-2.95h20.18v2.95Zm-30.02,0c-2.95,0-4.92-1.97-4.92-4.92s1.97-4.92,4.92-4.92,4.92,1.97,4.92,4.92-2.46,4.92-4.92,4.92m-1.97-48.72c0-1.48,1.48-2.46,2.95-2.46h37.89c1.48,0,2.95,.98,2.95,2.46l2.95,28.05c0,1.48-1.48,2.46-2.95,2.46h-43.3c-1.48,0-2.95-.98-2.95-2.46l2.46-28.05Zm60.04-3.44h-9.35c0-2.95,.49-4.92-2.95-4.92h-51.18c-3.44,0-2.95,2.46-2.95,4.92h-9.84c-.49,0-.98,.49-.98,.98v11.81c0,.49,.49,.98,.98,.98h5.41c.49,0,.98-.49,.98-.98v-7.87h2.95l-2.46,35.92v17.72h2.46v5.41c0,1.48,1.48,2.95,2.95,2.95h2.46c1.48,0,2.95-1.48,2.95-2.95v-5.41h40.84v5.41c0,1.48,1.48,2.95,2.95,2.95h2.46c1.48,0,2.95-1.48,2.95-2.95v-5.41h2.46v-17.72l-2.46-35.92h2.95v7.87c0,.49,.49,.98,.98,.98h5.41c.49,0,.98-.49,.98-.98v-11.81c-.49-.98-.98-.98-.98-.98"/><rect class="cls-2" x="285.42" y="494.07" width="11.81" height="9.84"/><rect class="cls-2" x="309.04" y="494.07" width="11.81" height="9.84"/><rect class="cls-2" x="261.3" y="494.07" width="11.81" height="9.84"/><rect class="cls-2" x="333.15" y="494.07" width="11.81" height="9.84"/><rect class="cls-2" x="356.77" y="494.07" width="11.81" height="9.84"/><path class="cls-1" d="M70.86,489.14c5.43,0,9.84,4.41,9.84,9.84s-4.41,9.84-9.84,9.84-9.84-4.41-9.84-9.84,4.41-9.84,9.84-9.84"/><path class="cls-1" d="M243.1,498.99c0-5.41-4.43-9.84-9.84-9.84s-9.84,4.43-9.84,9.84,4.43,9.84,9.84,9.84c5.41-.49,9.84-4.92,9.84-9.84"/><path class="cls-2" d="M233.25,508.34c-5.41,0-9.84-4.43-9.84-9.84s4.43-9.84,9.84-9.84,9.84,4.43,9.84,9.84-4.43,9.84-9.84,9.84m-162.39,0c-5.41,0-9.84-4.43-9.84-9.84s4.43-9.84,9.84-9.84,9.84,4.43,9.84,9.84-4.43,9.84-9.84,9.84m162.39-29.53c-9.35,0-17.22,6.4-19.19,15.26H90.05c-1.97-8.37-9.84-15.26-19.19-15.26-10.83,0-20.18,8.86-20.18,20.18s8.86,20.18,20.18,20.18c9.35,0,17.22-6.4,19.19-15.26h124.01c1.97,8.37,9.84,15.26,19.19,15.26,10.83,0,20.18-8.86,20.18-20.18s-8.86-20.18-20.18-20.18"/><path class="cls-1" d="M396.14,489.14c5.43,0,9.84,4.41,9.84,9.84s-4.41,9.84-9.84,9.84-9.84-4.41-9.84-9.84,4.41-9.84,9.84-9.84"/><path class="cls-2" d="M396.14,508.34c-5.41,0-9.84-4.43-9.84-9.84s4.43-9.84,9.84-9.84,9.84,4.43,9.84,9.84-4.43,9.84-9.84,9.84m0-29.53c-10.83,0-20.18,8.86-20.18,20.18s8.86,20.18,20.18,20.18,20.18-8.86,20.18-20.18c-.49-11.32-9.35-20.18-20.18-20.18"/></g></svg>