<?xml version="1.0" encoding="UTF-8"?><svg id="Capa_1" xmlns="http://www.w3.org/2000/svg" viewBox="0 0 467 568.37"><defs><style>.cls-1{fill:#fff;}.cls-2{fill:#b11546;}</style></defs><path class="cls-2" d="M386.79,32.48v-3.44c0-2.95-.98-4.92-3.94-4.92s-3.94,1.97-3.94,4.92v3.44c0,2.95,.98,4.92,3.94,4.92,2.46-.49,3.94-1.97,3.94-4.92m0,24.11v-7.87c0-2.95-.98-4.92-3.94-4.92s-3.94,1.97-3.94,4.92v7.87c0,2.95,.98,4.92,3.94,4.92s3.94-1.97,3.94-4.92m-16.73-.98v-5.41c0-4.92,1.48-8.37,5.41-9.84-3.44-1.48-4.92-4.43-4.92-8.86v-1.97c0-7.87,3.94-11.81,11.81-11.81s11.81,4.43,11.81,11.81v1.97c0,3.94-1.48,6.89-4.92,8.86,3.94,1.97,5.41,5.41,5.41,9.84v5.41c0,7.38-3.44,12.79-12.3,12.79-8.37,0-12.3-4.92-12.3-12.79"/><path class="cls-2" d="M409.42,36.91c3.44,0,5.91,2.95,5.91,5.91,0,3.44-2.95,5.91-5.91,5.91-3.44,0-5.91-2.95-5.91-5.91-.49-2.95,2.46-5.91,5.91-5.91"/><path class="cls-2" d="M429.6,53.15h7.38v-20.67l-7.38,20.67Zm-7.38,1.48l14.76-36.91h8.37V53.15h3.44v6.4h-3.44v8.37h-7.87v-8.37h-14.76v-4.92h-.49Z"/><path class="cls-2" d="M4.92,80.7H461.59V4.92H4.92V80.7Zm462.08,4.92H0V0H466.51V85.62h.49Z"/><polygon class="cls-2" points="16.73 17.72 38.88 17.72 38.88 24.6 32.48 24.6 32.48 67.91 23.62 67.91 23.62 24.6 16.73 24.6 16.73 17.72"/><path class="cls-2" d="M49.21,52.16h6.89l-3.44-20.18-3.44,20.18Zm-10.33,15.75l9.35-50.19h9.35l9.84,50.19h-8.86l-1.48-9.35h-8.86l-1.48,9.35h-7.87Z"/><path class="cls-2" d="M80.21,24.6v15.75h2.95c2.95,0,3.94-1.48,3.94-3.94v-7.38c0-2.95-1.48-3.94-3.94-3.94h-2.95v-.49Zm0,20.18v23.13h-8.37V17.72h12.3c8.37,0,11.81,4.43,11.81,11.32v6.4c0,5.41-1.97,8.37-6.89,9.84l7.87,22.64h-8.86l-7.87-23.13Z"/><path class="cls-2" d="M113.67,41.34h11.81v26.57h-5.91v-5.41c-.98,3.94-3.44,5.91-7.87,5.91-7.38,0-10.33-5.91-10.33-13.29V31c0-7.87,3.94-13.29,12.79-13.29,9.35,0,11.81,5.41,11.81,12.79v4.43h-7.87v-4.92c0-2.95-.98-4.92-4.43-4.92-2.95,0-4.43,1.97-4.43,4.92v27.07c0,2.95,1.48,4.92,3.94,4.92,2.95,0,3.94-1.48,3.94-4.92v-9.35h-3.94v-6.4h.49Z"/><polygon class="cls-2" points="132.37 17.72 152.55 17.72 152.55 24.6 140.74 24.6 140.74 38.88 149.11 38.88 149.11 45.77 140.74 45.77 140.74 61.02 152.55 61.02 152.55 67.91 132.37 67.91 132.37 17.72"/><polygon class="cls-2" points="156.49 17.72 178.63 17.72 178.63 24.6 171.74 24.6 171.74 67.91 163.38 67.91 163.38 24.6 156.49 24.6 156.49 17.72"/><g><rect class="cls-2" x="0" y="101.86" width="466.51" height="466.51"/><path class="cls-1" d="M419.76,427.14h0l-19.19-10.33c4.92-11.81,8.86-24.6,11.32-37.4,11.81-64.46-11.81-130.41-62-172.73-1.48-1.48-3.94-.98-5.41,.49l-9.84,11.81c-1.48,1.48-.98,3.94,.49,5.41,43.8,36.91,64.46,94.48,54.13,151.07-1.97,10.33-4.92,20.67-8.86,30.02l-21.65-11.81c-.49,0-2.46-.49-1.97,.98l1.48,23.62c1.48,18.7,.98,18.21,1.48,28.54l.98,20.67c0,1.97,2.46,.49,2.46,.49l56.1-38.38c1.97-1.48,.98-2.46,.49-2.46"/><path class="cls-1" d="M61.02,307.07l14.76,3.44c1.97,.49,4.43-.49,4.92-2.46,16.73-63.48,69.88-110.72,135.33-119.09v4.92l.49,21.16c0,1.97,2.46,.49,2.46,.49l57.08-36.91c1.97-.98,.98-1.97,0-2.46h-.49l-59.05-34.94c-.49,0-2.46-.49-2.46,.98l.98,23.62c-75.29,8.86-137.79,62.99-156.98,136.31-.49,2.46,.49,4.43,2.95,4.92"/><path class="cls-1" d="M298.7,494.06c-.98-1.97-2.95-2.95-4.92-1.97-70.37,28.05-151.07,2.46-192.9-61.02l21.65-11.81c.49-.49,1.97-1.48,0-2.46l-20.67-11.32c-16.73-8.86-16.24-8.86-24.6-13.78l-18.21-10.33c-1.97-.98-1.97,1.97-1.97,1.97l2.46,67.91c0,1.97,.98,1.97,1.97,1.48l.49-.49,19.19-10.33c27.56,42.81,70.86,71.85,121.06,81.2,10.83,1.97,22.14,2.95,33.46,2.95,23.13,0,46.26-4.43,67.91-13.29,1.97-.98,2.95-2.95,1.97-4.92l-6.89-13.78Z"/><path class="cls-1" d="M258.35,415.33h34.45c.98,0,1.97-.98,1.97-1.97v-124.99c0-.98-.98-2.95-2.95-.98l-33.46,31.99c-1.48,.98-1.97,2.95-1.97,4.92v89.07c0,.98,.49,1.97,1.97,1.97"/><path class="cls-1" d="M161.9,415.33h34.45c.98,0,1.97-.98,1.97-1.97v-83.66c0-.98-.98-2.95-2.95-.98l-33.46,31.99c-1.48,1.48-1.97,2.95-1.97,4.92v47.73c0,.98,.98,1.97,1.97,1.97"/><path class="cls-1" d="M305.59,248.02h0l-26.08,5.91h-.98c-.49,.49-.49,.98,0,1.48v.49l5.91,5.91-57.58,58.07-26.57-26.57c-.49-.49-.98-.49-.98,0l-7.38,7.38-42.81,42.81c-.49,.49-.49,.98,0,.98l7.38,7.38c.49,.49,.98,.49,.98,0l42.32-42.32,19.68,19.68,7.38,7.38c.49,.49,.98,.49,.98,0l65.94-65.94,5.91,5.91c.49,.49,.98,.49,1.48,0v-.49l5.91-26.08v-.49q0-.49-.49-.98c-.49,0-.49-.49-.98-.49"/><path class="cls-1" d="M210.62,415.33h34.45c.98,0,1.97-.98,1.97-1.97v-77.75c0-.98-.98-2.95-3.44-.49l-16.24,16.24c-.49,.49-.98,.49-.98,0l-14.76-14.76c-2.46-2.46-3.44-.49-3.44,.49v76.77c.49,.98,1.48,1.48,2.46,1.48"/></g></svg>