<?xml version="1.0" encoding="UTF-8"?><svg id="Capa_1" xmlns="http://www.w3.org/2000/svg" viewBox="0 0 467 568.37"><defs><style>.cls-1{fill:#fff;}.cls-2{fill:#fcbc00;}</style></defs><path class="cls-2" d="M4.92,80.7H461.59V4.92H4.92V80.7Zm462.08,4.92H0V0H466.51V85.62h.49Z"/><polygon class="cls-2" points="16.73 17.72 38.88 17.72 38.88 24.6 32.48 24.6 32.48 67.91 23.62 67.91 23.62 24.6 16.73 24.6 16.73 17.72"/><path class="cls-2" d="M49.21,52.16h6.89l-3.44-20.18-3.44,20.18Zm-10.33,15.75l9.35-50.19h9.35l9.84,50.19h-8.86l-1.48-9.35h-8.86l-1.48,9.35h-7.87Z"/><path class="cls-2" d="M80.21,24.6v15.75h2.95c2.95,0,3.94-1.48,3.94-3.94v-7.38c0-2.95-1.48-3.94-3.94-3.94h-2.95v-.49Zm0,20.18v23.13h-8.37V17.72h12.3c8.37,0,11.81,4.43,11.81,11.32v6.4c0,5.41-1.97,8.37-6.89,9.84l7.87,22.64h-8.86l-7.87-23.13Z"/><path class="cls-2" d="M113.67,41.34h11.81v26.57h-5.91v-5.41c-.98,3.94-3.44,5.91-7.87,5.91-7.38,0-10.33-5.91-10.33-13.29V31c0-7.87,3.94-13.29,12.79-13.29,9.35,0,11.81,5.41,11.81,12.79v4.43h-7.87v-4.92c0-2.95-.98-4.92-4.43-4.92-2.95,0-4.43,1.97-4.43,4.92v27.07c0,2.95,1.48,4.92,3.94,4.92,2.95,0,3.94-1.48,3.94-4.92v-9.35h-3.94v-6.4h.49Z"/><polygon class="cls-2" points="132.37 17.72 152.55 17.72 152.55 24.6 140.74 24.6 140.74 38.88 149.11 38.88 149.11 45.77 140.74 45.77 140.74 61.02 152.55 61.02 152.55 67.91 132.37 67.91 132.37 17.72"/><polygon class="cls-2" points="156.49 17.72 178.63 17.72 178.63 24.6 171.74 24.6 171.74 67.91 163.38 67.91 163.38 24.6 156.49 24.6 156.49 17.72"/><path class="cls-2" d="M432.06,45.27v15.75h3.94c2.95,0,3.94-1.48,3.94-3.94v-7.38c0-2.46-1.48-3.94-4.43-3.94h-3.44v-.49Zm0-6.4h2.95c2.95,0,3.94-1.48,3.94-3.94v-5.91c0-2.95-1.48-3.94-3.94-3.94h-2.95v13.78Zm-8.37-21.16h12.3c8.37,0,11.32,3.94,11.32,10.83v4.92c0,4.43-1.48,6.89-4.92,7.87,4.43,.98,6.4,3.94,6.4,8.37v6.4c0,6.89-2.95,10.83-11.81,10.83h-13.29V17.72Z"/><polygon class="cls-2" points="372.03 17.72 393.19 17.72 393.19 25.59 382.36 67.91 373.99 67.91 385.31 24.6 372.52 24.6 372.52 17.72 372.03 17.72"/><polygon class="cls-2" points="404.01 32.48 404.01 53.15 414.84 42.81 404.01 32.48"/><g><rect class="cls-2" y="101.86" width="466.51" height="466.51"/><path class="cls-1" d="M153.53,336.1c0-44.78,36.42-81.2,81.2-80.7,44.78,0,81.2,36.42,80.7,81.2,0,44.78-36.42,80.7-81.2,80.7s-80.7-36.42-80.7-81.2m262.29-.49c0-100.88-81.69-182.57-182.57-182.57S50.69,234.73,51.18,335.61c0,74.8,45.76,141.72,114.66,169.28,13.78,6.4,29.03,9.35,44.29,8.37,10.83-.49,30.51-4.43,30.51-35.43v-33.95h4.92c3.44-.49,6.89,1.97,8.37,5.41,1.48,3.44,2.46,6.4,3.94,9.84,.98,2.95,4.43,4.92,7.38,3.94,8.37-1.48,16.24-4.43,23.62-7.87,3.44-1.48,4.92-4.92,3.44-8.37-.98-3.44-1.48-5.91-2.46-9.35-.98-3.44-.98-6.89,1.97-8.86,2.95-1.97,12.3-8.86,15.75-11.81,2.95-2.46,6.89-2.95,9.84-.49,3.44,1.97,5.91,3.44,8.86,5.41,2.46,1.97,6.4,1.48,8.37-.98,5.41-6.4,9.84-13.29,13.29-20.67,1.97-2.95,.98-6.89-1.97-8.86-2.95-1.97-4.92-3.94-7.87-5.91-2.95-1.97-4.92-4.92-3.44-8.37,1.48-3.44,4.43-13.78,5.91-18.7,.98-3.44,3.94-5.91,7.38-6.4,3.94,0,6.89-.49,10.83-.98,3.44,0,5.91-2.46,6.4-5.91,.98-8.37,.98-16.24-.49-24.6,0-3.44-2.95-6.4-6.4-5.91-3.44,0-6.4-.49-9.84-.49s-6.89-.98-7.87-4.92c-1.48-6.4-3.44-12.3-6.4-18.7-1.48-3.44-.49-7.38,2.46-9.35,2.95-2.46,5.41-4.43,7.87-6.89,2.46-1.97,2.95-5.41,1.48-8.37-3.94-7.38-8.86-13.78-14.76-19.68-2.46-2.46-6.4-2.95-8.86-.98-2.95,1.97-4.92,3.44-7.87,5.41-2.95,1.97-6.4,3.44-9.35,.98-5.41-3.94-12.3-8.86-15.75-11.32-2.95-1.97-4.43-5.41-3.44-8.86,.98-3.94,1.48-6.4,2.46-10.33,.98-2.95-.49-6.4-3.44-7.87-7.38-3.44-15.25-5.91-23.62-7.38-3.44-.98-6.89,.98-7.87,4.43-1.48,3.44-1.97,5.91-3.44,8.86-1.48,2.95-2.95,6.4-6.89,5.91h-19.68c-3.44,0-6.4-1.97-7.87-4.92-1.48-3.44-2.46-6.4-3.94-9.84-.98-2.95-4.43-4.92-7.38-3.94-8.37,1.48-16.24,4.43-23.62,7.87-3.44,1.48-4.92,4.92-3.44,8.37,.98,3.44,1.48,5.91,2.46,9.35s1.48,6.89-1.97,8.86c-3.44,1.97-11.32,7.87-15.75,11.81-2.95,2.46-6.89,2.95-9.84,.49-3.44-1.97-5.91-3.44-8.86-5.41-2.46-1.97-6.4-1.48-8.37,.98-5.41,5.91-10.33,12.79-14.27,20.18-1.97,2.95-.98,6.89,1.97,8.86,2.95,2.46,4.92,3.94,7.38,5.91,2.46,1.97,4.92,4.92,3.44,8.37-1.48,3.44-4.43,14.76-5.91,18.7-.98,3.44-3.94,5.91-7.38,6.4-3.94,0-6.89,.49-10.33,.98-3.44,0-5.91,2.46-6.4,5.91-.98,8.37-.98,16.24,.49,24.6,0,3.44,3.44,5.91,6.89,5.91s6.4,.49,9.84,.49,6.89,.98,7.87,4.92c1.48,6.4,3.94,12.3,6.4,18.7,1.48,3.44,.49,7.38-2.46,9.35-2.95,2.46-5.41,4.43-7.87,6.89-2.46,1.97-3.44,5.41-1.48,8.37,3.94,7.38,8.86,13.78,14.76,19.68,2.46,2.46,6.4,2.95,8.86,.98,2.95-1.97,4.92-3.44,7.87-5.41,2.95-1.97,6.4-3.44,9.35-.98,2.95,2.46,12.3,8.86,15.75,11.32,2.95,1.97,4.43,5.41,3.44,8.86-.98,3.94-1.48,6.4-2.46,10.33-.98,2.95,.49,6.4,3.44,7.87,7.38,3.44,15.25,5.91,23.62,7.38,3.44,.98,6.89-.98,7.87-4.43,1.48-3.44,1.97-5.91,3.44-8.86,1.48-2.95,2.95-6.4,6.89-5.91h2.95l.49,33.95c1.48,11.32-5.91,21.65-17.22,23.62h-1.97c-13.78,.98-27.07-1.97-39.37-7.87-87.59-34.94-129.91-134.34-94.97-221.44,34.94-87.1,134.34-129.91,221.44-94.97,87.1,34.94,129.91,134.34,94.97,221.44-.49,.98-.98,1.97-1.48,2.95-7.87,18.21-18.7,34.94-31.99,49.21-.49,.49-.98,1.48-1.97,.98-5.41-2.46-11.32-3.44-17.22-1.97-5.41,.98-10.83,3.94-14.76,7.87-.98,.98-12.3,14.76-12.3,14.76-.49,.49-.49,.98,0,1.48l7.38,6.4c.49,.49,.49,.98,0,1.48l-9.84,12.3c-.98,1.48-.98,3.44,.49,4.92,.98,1.48,3.44,1.97,4.92,.49l.49-.49,10.33-12.79c.49-.49,.98-.49,1.48,0,.98,.98,11.81,9.84,11.81,9.84,0,0,.49,.49,0,.98l-9.84,12.3c-.98,1.97-.98,3.94,.49,5.41,1.48,1.48,3.94,1.48,5.41,0l10.33-13.29s.49-.98,.98-.49c.49,.49,7.38,5.91,7.38,5.91,.49,.49,1.48,.49,1.97,0,0,0,10.33-12.79,11.81-14.76,2.95-4.43,4.92-9.84,4.43-15.25,0-6.4-2.46-12.79-6.4-17.72,0,0-.49-.49,.49-1.48,31.99-31.49,49.21-75.78,49.21-122.04"/><path class="cls-1" d="M174.69,312.97c1.97,1.48,3.44-.49,3.94-.98,.49-.49,.49-1.97,0-2.95-.49-.98,.98-1.48,1.97-1.97s3.94-2.46,5.41-3.44c3.44-.98,7.38-.98,10.83,0,2.46,1.48,5.41,.49,7.38-1.48,1.48-1.97,3.44-2.95,5.41-4.43,.98-.49-2.46-3.94-5.41,0-2.95,3.44-4.43,3.94-5.91,3.94s-9.84-1.97-10.83-4.92c-.98-2.95,2.46-4.43,5.41-5.91,4.43-.98,8.86-1.48,13.78-1.97,4.43-.98,9.84-2.95,12.79-.98,2.95,1.97-11.81,4.92-6.89,7.87,1.48,.98,9.35-4.43,11.81-5.91,5.91-2.95-5.91-4.43-4.43-10.83,1.48-6.4-14.27-4.92-22.64-3.94-3.94,2.46-7.87,5.41-11.32,8.86,.98,0,1.97,.49,2.46,.98,0,1.48,0,2.95-.98,4.43-1.97,1.97-4.92,3.44-7.38,3.44-.49,0-.98-.49-1.48-.49-1.48,1.48-2.46,3.44-3.44,4.92,1.48-.98,3.44-1.48,5.41-1.97s3.94,.49,4.43,1.97c.49,1.48-4.43,3.44-5.41,3.94-2.46,2.46-6.4,6.89-8.37,7.38h-1.48c-.49,1.48-.98,2.95-1.48,4.92,.98-.98,3.94-1.48,6.4-.49"/><path class="cls-1" d="M254.41,346.44c-2.46,.98-4.92,.98-6.89-.49-1.97-1.48,.98-3.94,2.46-3.94,1.97,0,5.91,3.44,4.43,4.43m-29.53,14.27c-.98,1.48-3.94,13.78-5.41,12.3-1.48-1.48,.98-13.78,1.48-14.76,2.95-5.41,8.86-5.41,3.94,2.46m59.05-16.73c-.49-1.97,.98-2.95,2.46-1.97,1.48,.98,2.95,2.46,3.44,3.94,0,.98-2.95,.98-3.44,.49s-1.97-.98-2.46-2.46m9.35,9.35c-1.97,.98-4.92,.98-6.89-.49-1.97-1.48,.98-3.94,2.46-3.94,2.46,0,5.91,2.95,4.43,4.43m-36.42,45.27c2.46-1.48,7.38-7.87,14.76-7.38,2.46,0,4.43,.49,6.4,1.48,2.46-1.97,4.92-3.94,7.38-5.91-.98,0-1.48-.49-2.46-.98-3.94-1.97-3.44,.98-5.41,.49-1.97-.49,2.46-4.92-3.44-1.48-5.91,3.44-4.43-.49-6.89-6.89-1.48-5.91,1.48-12.79,7.38-15.26,4.43-1.48,8.37-2.46,12.79-3.44,8.86-1.97,10.33-7.38,11.81-3.94l.98,1.48c.49,1.48,.98,2.95,.98,4.43,1.48-3.44,2.46-6.89,2.95-10.83-1.97-.98-9.84-11.81-3.44-18.7,.98-.98-1.97-4.92-.98-4.92,2.95,0,5.41,1.48,5.91,4.43,0-3.94-.98-7.38-1.48-10.83,0,.98,0,1.48-.49,2.46-.98,2.46-3.44,3.44-5.91,2.46-.98-.49-1.97-.98-2.46-1.97-.98-.98-3.94-3.94-3.94,.98s4.92,5.41,0,8.37c-2.46,1.48-4.92,2.46-7.38,2.95-2.46,1.97-3.94,5.41-3.94,8.37,.49,2.95,6.89,10.33,2.46,9.84-4.43-1.97-8.37-5.41-10.83-9.84-1.48-3.94-2.95-7.87-4.43-10.83-.98-2.46-2.95-3.44-5.41-2.46-.49,0-.98,.49-1.48,.49-2.46,1.48,.98,3.44-.98,7.38-1.97,3.94-2.95,6.89-5.91,3.94-6.89-7.87-17.22-3.94-18.7-12.79-.98-4.92-4.92-4.43-8.37-6.89-3.44-2.46-5.41-3.94-5.91-1.97-.49,1.97,10.83,10.83,11.81,13.29,.98,3.44-3.44,6.4-6.89,7.38-3.44,.98-4.92-1.97-8.37-5.41-3.44-3.44-4.92-5.91-4.92-3.44,.49,4.92,2.46,9.35,6.4,11.81,2.95,1.97,5.91,2.46,4.92,5.91-.98,3.44,0,1.48-3.44,4.43-2.95,1.97-3.94,5.41-3.44,8.86,0,4.43-.98,4.92-1.48,8.37-.49,3.44-2.46,.49-3.94,5.91-.49,3.44-1.97,6.4-4.43,8.86-2.95,2.46-6.4,3.94-9.84,3.94s-3.94-8.86-3.44-13.29c0-1.48-2.46,2.95-3.44-6.4-.49-5.91-4.43,.49-4.92-3.44-.49-3.94-1.97-3.44-3.94-5.91-1.97-2.46-4.43,0-7.38,1.48-2.95,1.48-1.48,1.97-5.41,.49,8.37,19.68,25.1,34.94,45.76,40.84-.98-.98-1.48-2.46-.98-3.44,2.95-4.92,8.37-8.37,14.27-8.37,11.81-1.48,27.07,7.38,29.53,5.91"/><path class="cls-1" d="M172.23,320.85c3.94,.49,7.87,1.48,11.81,2.95,3.94,1.48,10.83,4.92,14.27,3.44,2.95-.98,4.92-2.46,4.92-4.92s-2.46-3.44-5.41-1.48c-.98,.98-2.95-4.43-4.92-3.94-1.97,.49,1.97,5.91,.49,6.4-1.48,.49-4.43-5.91-4.92-6.89-.49-.98-2.46-3.44-4.92-1.48-4.43,3.94-10.83,3.94-12.3,4.92-.49,.49-.98,.49-1.48,.98-2.95,.98-3.94-1.48-3.94-3.94-.98,3.94-1.97,7.87-2.46,11.81l.49-.49c2.46-4.43,2.95-4.92,3.44-5.41,.49-.49,2.46-.98,2.46-.98l2.46-.98Z"/></g></svg>