<?xml version="1.0" encoding="UTF-8"?><svg id="Capa_1" xmlns="http://www.w3.org/2000/svg" viewBox="0 0 467 568.37"><defs><style>.cls-1{fill:#fff;}.cls-2{fill:#48ad37;}</style></defs><path class="cls-2" d="M4.92,80.7H461.59V4.92H4.92V80.7Zm462.08,4.92H0V0H466.51V85.62h.49Z"/><polygon class="cls-2" points="16.73 17.72 38.88 17.72 38.88 24.61 32.48 24.61 32.48 67.91 23.62 67.91 23.62 24.61 16.73 24.61 16.73 17.72"/><path class="cls-2" d="M49.21,52.16h6.89l-3.44-20.18-3.44,20.18Zm-10.33,15.75l9.35-50.19h9.35l9.84,50.19h-8.86l-1.48-9.35h-8.86l-1.48,9.35h-7.87Z"/><path class="cls-2" d="M80.21,24.61v15.75h2.95c2.95,0,3.94-1.48,3.94-3.94v-7.38c0-2.95-1.48-3.94-3.94-3.94h-2.95v-.49Zm0,20.18v23.13h-8.37V17.72h12.3c8.37,0,11.81,4.43,11.81,11.32v6.4c0,5.41-1.97,8.37-6.89,9.84l7.87,22.64h-8.86l-7.87-23.13Z"/><path class="cls-2" d="M113.67,41.34h11.81v26.57h-5.91v-5.41c-.98,3.94-3.44,5.91-7.87,5.91-7.38,0-10.33-5.91-10.33-13.29V31c0-7.87,3.94-13.29,12.79-13.29,9.35,0,11.81,5.41,11.81,12.79v4.43h-7.87v-4.92c0-2.95-.98-4.92-4.43-4.92-2.95,0-4.43,1.97-4.43,4.92v27.07c0,2.95,1.48,4.92,3.94,4.92,2.95,0,3.94-1.48,3.94-4.92v-9.35h-3.94v-6.4h.49Z"/><polygon class="cls-2" points="132.37 17.72 152.55 17.72 152.55 24.61 140.74 24.61 140.74 38.88 149.11 38.88 149.11 45.77 140.74 45.77 140.74 61.02 152.55 61.02 152.55 67.91 132.37 67.91 132.37 17.72"/><polygon class="cls-2" points="156.49 17.72 178.63 17.72 178.63 24.61 171.74 24.61 171.74 67.91 163.38 67.91 163.38 24.61 156.49 24.61 156.49 17.72"/><polygon class="cls-2" points="365.14 17.72 365.14 67.91 356.77 67.91 356.77 29.53 350.86 35.43 350.86 27.07 358.74 18.21 365.14 18.21 365.14 17.72"/><path class="cls-2" d="M396.14,44.78v12.3c0,6.89-3.44,11.32-11.81,11.32s-11.81-4.92-11.81-12.3v-5.91h7.87v6.4c0,2.95,.98,4.92,3.94,4.92,2.46,0,3.44-1.97,3.44-4.43v-12.3c0-2.95-.98-4.43-3.44-4.43s-3.94,1.48-3.94,4.43v.98h-7.87V17.72h22.14v6.89h-14.27v12.3c1.48-2.46,3.94-3.44,6.89-3.44,4.92,.49,8.86,3.44,8.86,11.32"/><path class="cls-2" d="M409.42,36.91c3.44,0,5.91,2.95,5.91,5.91,0,3.44-2.95,5.91-5.91,5.91-3.44,0-5.91-2.95-5.91-5.91s2.95-5.91,5.91-5.91"/><path class="cls-2" d="M431.57,29.03v8.86c0,3.44,.98,4.92,3.94,4.92,2.46,0,3.94-1.97,3.94-4.43v-9.35c0-2.95-.98-4.92-3.94-4.92s-3.94,1.97-3.94,4.92m16.24,1.48v24.11c0,7.87-3.44,13.29-12.3,13.29-9.35,0-11.81-4.92-11.81-12.3v-2.46h7.87v3.44c0,2.95,.98,4.92,3.94,4.92s4.43-1.97,4.43-4.92v-10.83c-1.48,2.46-3.44,3.94-6.89,3.94-5.91,0-9.35-3.94-9.35-12.3v-7.38c0-7.87,3.44-12.79,12.3-12.79,8.37,0,11.81,5.91,11.81,13.29"/><g><rect class="cls-2" y="101.86" width="466.51" height="466.51"/><path class="cls-1" d="M364.15,265.73c1.48,3.94,3.94,7.87,7.38,10.83,5.41,5.41,11.32,8.37,12.79,6.89,1.48-1.48,0-4.43-2.95-8.37,4.43,.98,7.87,.98,8.86-.49,.98-1.48-3.94-6.4-11.32-8.86-3.94-1.97-8.37-2.95-12.79-2.46,0-.49,.49-1.48,.49-1.97v-2.95c0-.98-.49-2.46-.49-3.44l-.98-.49c-.98,0-2.46,.49-3.44,.98-.98,.49-1.97,.98-2.46,1.48l-1.48,1.48c-1.48-4.43-4.43-7.87-7.87-10.33-5.91-4.92-11.81-7.38-13.29-5.91-1.48,1.48,.49,4.43,3.44,7.87-4.92-.98-8.37-.49-8.86,.98-.49,1.48,4.43,5.91,11.81,8.37,3.94,1.48,8.37,1.97,12.79,1.48l8.37,4.92Z"/><path class="cls-1" d="M361.69,268.68l-8.37-4.92c-.49,.98-.98,2.46-.98,3.44l6.89,3.94c.98-.98,1.48-1.48,2.46-2.46"/><polygon class="cls-1" points="356.77 274.1 351.36 270.16 349.88 273.61 354.31 276.56 356.77 274.1"/><path class="cls-1" d="M351.85,279.02l-2.95-1.97c-.49,1.48-.98,2.95-1.48,4.43l.98,.49,3.44-2.95Z"/><path class="cls-1" d="M167.81,309.04h131.88c1.48,0,2.46,.98,2.46,2.46v5.41c0,1.48-.98,2.46-2.46,2.46H167.81c-1.48,0-2.46-.98-2.46-2.46v-5.41c0-1.48,.98-2.46,2.46-2.46"/><path class="cls-1" d="M167.81,407.95h131.88c1.48,0,2.46,.98,2.46,2.46v10.33c0,1.48-.98,2.46-2.46,2.46H167.81c-1.48,0-2.46-.98-2.46-2.46v-10.33c0-1.48,.98-2.46,2.46-2.46"/><path class="cls-1" d="M165.84,299.69v.98c0,.98,.98,1.97,1.97,1.97h131.88c.98,0,1.97-.98,1.97-1.97v-.98c-8.37-37.4-45.76-61.02-83.16-52.16-26.08,5.41-46.75,25.59-52.65,52.16"/><path class="cls-1" d="M188.97,335.61h21.16v56.59h-21.16v-56.59Zm34.94,0h21.16v56.59h-21.16v-56.59Zm35.92,0h21.16v56.59h-21.16v-56.59Zm35.43,66.43c1.48,0,2.46-.98,2.46-2.46v-71.35c0-1.48-.98-2.46-2.46-2.46h-123.02c-1.48,0-2.46,.98-2.46,2.46v71.35c0,1.48,.98,2.46,2.46,2.46h123.02Z"/><path class="cls-1" d="M239.65,211.11h-6.4v25.59c2.46-.49,5.41-.49,7.87,0,4.92,0,9.35,1.97,12.79,4.92,3.44,2.46,7.38,3.44,11.32,3.94h9.84v-25.59h-9.84c-5.41,0-10.83-1.97-15.26-5.91-2.95-1.97-6.4-2.95-10.33-2.95"/><path class="cls-1" d="M61.51,191.92l73.81,33.46,7.38-2.46-13.78-5.91-20.18-19.68,3.94-4.92,47.73-28.05-57.58-2.95-14.76,20.67-19.68-3.94s-17.22,10.83-13.78,17.72c1.48-2.46,6.89-3.94,6.89-3.94"/><path class="cls-1" d="M387.77,153.53c-12.3,0-22.14,9.84-22.14,22.14s9.84,22.14,22.14,22.14,22.14-9.84,22.14-22.14-9.84-22.14-22.14-22.14"/><path class="cls-1" d="M351.36,177.65h9.84c.98,0,1.48-.98,1.48-1.97s-.98-1.97-1.48-1.97h-9.84c-.98,0-1.97,.98-1.48,1.97-.49,.98,.49,1.97,1.48,1.97"/><path class="cls-1" d="M413.36,175.68c0,.98,.98,1.97,1.48,1.97h9.84c.98,0,1.48-.98,1.48-1.97s-.98-1.97-1.48-1.97h-9.84c-.98,0-1.48,.98-1.48,1.97"/><path class="cls-1" d="M387.77,150.09c.98,0,1.97-.98,1.97-1.48v-9.84c0-.98-.98-1.48-1.97-1.97-.98,0-1.97,.98-1.97,1.97v9.84c0,.98,.98,1.48,1.97,1.48"/><path class="cls-1" d="M387.77,200.78c-.98,0-1.97,.98-1.97,1.48v9.84c0,.98,.98,1.48,1.97,1.48s1.48-.98,1.97-1.48v-9.84c0-.49-.98-1.48-1.97-1.48"/><path class="cls-1" d="M354.8,158.95l8.37,4.92c.98,.49,1.97,0,2.46-.98,.49-.98,0-1.97-.49-2.46l-8.37-4.92c-.98-.49-1.97,0-2.46,.98s0,1.97,.49,2.46"/><path class="cls-1" d="M410.41,190.44l8.37,4.92c.98,.49,1.97,0,2.46-.98,.49-.98,0-1.97-.49-2.46l-8.37-4.92c-.98-.49-1.97,0-2.46,.98s0,1.97,.49,2.46"/><path class="cls-1" d="M403.03,153.04l4.92-8.37c.49-.98,0-1.97-.98-2.46-.98-.49-1.48,0-1.97,.49l-4.92,8.37c-.49,.98,0,1.97,.98,2.46,0,.49,1.48,0,1.97-.49"/><path class="cls-1" d="M373.01,198.32l-4.92,8.37c-.49,.98,0,1.97,.98,2.46,.49,.49,1.48,0,1.97-.49l4.92-8.37c.49-.98,0-1.97-.98-2.46-.49-.49-1.48-.49-1.97,.49"/><path class="cls-1" d="M373.01,153.04c.49,.98,1.48,.98,2.46,.49,.98-.49,.98-1.48,.49-2.46l-4.92-8.37c-.49-.98-1.48-.98-2.46-.49-.98,.49-.98,1.48-.98,2.46l5.41,8.37Z"/><path class="cls-1" d="M400.57,197.33c-.98,.49-.98,1.48-.98,2.46l4.92,8.37c.49,.98,1.48,.98,2.46,.49,.98-.49,.98-1.48,.49-2.46l-4.92-8.37c0-.49-.98-.98-1.97-.49"/><path class="cls-1" d="M412.38,163.38l8.37-4.92c.98-.49,.98-1.48,.49-2.46-.49-.98-1.48-.98-2.46-.98l-8.37,4.92c-.98,.49-.98,1.48-.49,2.46s1.48,1.48,2.46,.98"/><path class="cls-1" d="M363.66,187.49l-8.37,4.92c-.98,.49-.98,1.48-.49,2.46,.49,.98,1.48,.98,2.46,.98l8.37-4.92c.98-.49,.98-1.48,.49-2.46-.49-.98-1.48-1.48-2.46-.98"/><path class="cls-1" d="M72.83,391.71h8.37v30.51c0,.49,.49,.98,.98,.98h13.78c.49,0,.98-.49,.98-.98v-31h14.76c11.32,0,20.18-9.35,20.18-20.67,0-4.92-1.97-9.84-5.41-13.78,9.35-5.41,12.3-16.73,7.38-26.08-3.44-5.91-9.84-9.84-16.73-9.84h-.98c-.98-14.27-13.29-25.1-27.56-24.6-13.78,.98-24.6,12.3-24.6,26.57,0,3.94,.98,7.87,2.46,11.32-15.75,3.44-25.59,19.19-21.65,34.94,2.95,13.29,14.27,22.64,28.05,22.64"/><path class="cls-1" d="M421.73,370.06l1.97-3.94,.98-6.89c1.48-1.97,1.48-4.92,.49-7.38-2.46-.49-4.43,2.95-4.43,2.95-1.48-.49-3.44-.49-4.92-.49s-2.95,0-4.43,.49c-.98-1.97-2.95-2.46-4.92-1.97-.49,1.48-.49,3.44,.49,4.92l-18.7,9.35-22.64,2.46c-14.76,0-21.16,7.87-21.65,19.19-.49,6.89-2.46,13.78-5.91,19.68-5.91,5.91-9.84-3.94-9.35-5.91,2.46-.98,3.94-2.95,3.94-5.91,0,0-11.32,.98-3.94,12.79,1.97,3.44,6.4,4.43,9.35,2.46,.49,0,.49-.49,.98-.49l2.46,10.83,.98,1.48h6.4l.49-2.95-2.95-1.48-1.48-6.4,17.72-20.67,9.35,2.95,25.1,1.97,5.41,20.67,.98,4.43,6.89,.98,1.97-2.46-4.92-3.44v-22.64l10.33-22.64,3.94-1.97Z"/><path class="cls-1" d="M367.6,423.2h5.41l.98-2.95-4.43-1.97-3.44-6.4,5.91-15.75-7.87-1.97-3.44,3.94c1.97,4.43,1.97,9.84-.49,13.78l7.38,11.32Z"/><path class="cls-1" d="M429.6,501.45h0l-1.48,.49c-12.3,6.4-51.18,21.16-86.12-12.3-.49-.49-1.48-.98-1.97-.98-.98,0-1.48,.49-1.97,.98-10.33,7.87-58.56,40.35-101.37,.49l-.49-.49c-.49-.49-.98-.49-1.97-.49-.49,0-.98,.49-1.48,.49l-.49,.49c-42.81,39.86-91.04,7.38-101.37-.49-.49-.49-.98-.98-1.97-.98s-1.48,.49-1.97,.98c-34.94,33.46-73.81,18.21-86.12,12.3l-.98-.49h-1.97c-1.48,0-2.46,.98-2.46,2.46v16.73c0,.49,.49,.98,.49,1.48,40.35,35.43,79.23,2.46,88.09-6.4l.98-.98c.49,0,.49-.49,.98-.49s1.48,.49,1.97,.98c45.77,43.8,93.99,8.37,103.83,0l.98-.98s.49-.49,.98-.49,.49,0,.98,.49l.98,.98c9.84,8.37,58.07,43.8,103.83,0,.49-.49,.98-.49,1.48-.49s.98,0,1.48,.49c.49,0,.49,.49,.49,.49,8.86,8.86,47.24,41.83,88.09,6.4,.49-.49,.49-.98,.49-1.48v-16.73c0-.98-.98-1.97-1.97-2.46"/><path class="cls-1" d="M37.89,445.35H429.6c1.48,0,2.95,1.48,2.95,2.95v17.72c0,1.48-1.48,2.95-2.95,2.95H37.89c-1.48,0-2.95-1.48-2.95-2.95v-17.72c.49-1.48,1.48-2.95,2.95-2.95"/></g></svg>