<?xml version="1.0" encoding="UTF-8"?><svg id="Capa_1" xmlns="http://www.w3.org/2000/svg" viewBox="0 0 467 568.37"><defs><style>.cls-1{fill:#eb6220;}.cls-2{fill:#fff;}</style></defs><path class="cls-1" d="M4.92,80.7H461.59V4.92H4.92V80.7Zm462.08,4.92H0V0H466.51V85.62h.49Z"/><polygon class="cls-1" points="16.73 17.72 38.88 17.72 38.88 24.6 32.48 24.6 32.48 67.91 23.62 67.91 23.62 24.6 16.73 24.6 16.73 17.72"/><path class="cls-1" d="M49.21,52.16h6.89l-3.44-20.18-3.44,20.18Zm-10.33,15.75l9.35-50.19h9.35l9.84,50.19h-8.86l-1.48-9.35h-8.86l-1.48,9.35h-7.87Z"/><path class="cls-1" d="M80.21,24.6v15.75h2.95c2.95,0,3.94-1.48,3.94-3.94v-7.38c0-2.95-1.48-3.94-3.94-3.94h-2.95v-.49Zm0,20.18v23.13h-8.37V17.72h12.3c8.37,0,11.81,4.43,11.81,11.32v6.4c0,5.41-1.97,8.37-6.89,9.84l7.87,22.64h-8.86l-7.87-23.13Z"/><path class="cls-1" d="M113.67,41.34h11.81v26.57h-5.91v-5.41c-.98,3.94-3.44,5.91-7.87,5.91-7.38,0-10.33-5.91-10.33-13.29V31c0-7.87,3.94-13.29,12.79-13.29,9.35,0,11.81,5.41,11.81,12.79v4.43h-7.87v-4.92c0-2.95-.98-4.92-4.43-4.92-2.95,0-4.43,1.97-4.43,4.92v27.07c0,2.95,1.48,4.92,3.94,4.92,2.95,0,3.94-1.48,3.94-4.92v-9.35h-3.94v-6.4h.49Z"/><polygon class="cls-1" points="132.37 17.72 152.55 17.72 152.55 24.6 140.74 24.6 140.74 38.88 149.11 38.88 149.11 45.77 140.74 45.77 140.74 61.02 152.55 61.02 152.55 67.91 132.37 67.91 132.37 17.72"/><polygon class="cls-1" points="156.49 17.72 178.63 17.72 178.63 24.6 171.74 24.6 171.74 67.91 163.38 67.91 163.38 24.6 156.49 24.6 156.49 17.72"/><path class="cls-1" d="M427.14,52.64V28.53c0-7.87,3.94-13.29,12.3-13.29,9.35,0,11.81,5.41,11.81,12.79v5.91h-7.87v-7.38c0-2.95-.98-4.92-3.94-4.92s-4.43,1.97-4.43,4.92v27.07c0,2.95,1.48,4.92,4.43,4.92s3.94-1.97,3.94-4.92v-9.35h7.87v8.86c0,7.38-2.95,12.3-11.81,12.3-8.37,.49-12.3-4.92-12.3-12.79"/><path class="cls-1" d="M376.45,29.03v8.86c0,3.44,.98,4.92,3.94,4.92,2.46,0,3.94-1.97,3.94-4.43v-9.35c0-2.95-.98-4.92-3.94-4.92-2.46,0-3.94,1.97-3.94,4.92m16.73,1.48v24.11c0,7.87-3.44,13.29-12.3,13.29-9.35,0-11.81-4.92-11.81-12.3v-2.46h7.87v3.44c0,2.95,.98,4.92,3.94,4.92s4.43-1.97,4.43-4.92v-10.83c-1.48,2.46-3.44,3.94-6.89,3.94-5.91,0-9.35-3.94-9.35-12.3v-7.38c0-7.87,3.44-12.79,12.3-12.79,8.37,0,11.81,5.41,11.81,13.29"/><polygon class="cls-1" points="407.46 30 407.46 50.67 418.28 40.34 407.46 30"/><g><rect class="cls-1" x="0" y="101.86" width="466.51" height="466.51"/><path class="cls-2" d="M202.74,250.48H76.77v-75.29h125.98v75.29Zm5.91-77.26c0-1.97-1.48-3.94-3.94-3.94H74.31c-1.97,0-3.94,1.48-3.94,3.94v82.67H208.65v-82.67Z"/><path class="cls-2" d="M151.07,269.18h-23.13v-2.46h23.13v2.46Zm57.58-10.33H70.86l-11.32,8.86v3.94c0,1.48,2.46,1.48,2.46,1.48H218c1.97,0,1.97-1.97,1.97-1.97v-3.94l-11.32-8.37Z"/><path class="cls-2" d="M395.15,253.43h-55.11v-80.21h55.11v80.21Zm-27.56,20.67c-3.44,0-5.91-2.46-5.91-5.91s2.46-5.91,5.91-5.91,5.91,2.46,5.91,5.91-2.46,5.91-5.91,5.91m29.03-106.79h-58.07c-1.97,0-3.94,1.97-3.94,3.94v104.32c0,1.97,1.97,3.94,3.94,3.94h58.07c1.97,0,3.94-1.97,3.94-3.94v-104.32c0-1.97-1.97-3.94-3.94-3.94"/><path class="cls-2" d="M249,201.76c1.97,3.94,2.95,7.87,2.95,12.3,0,4.92-1.48,9.84-3.44,14.27l5.91,3.94c3.44-5.41,4.92-11.81,4.92-18.21,0-5.41-1.48-11.32-3.94-16.24l-6.4,3.94Z"/><path class="cls-2" d="M265.73,190.44c8.37,15.26,7.87,33.95-.49,48.72l5.91,3.94c5.41-8.86,7.87-19.19,7.87-29.53,0-9.35-2.46-19.19-7.38-27.07l-5.91,3.94Z"/><path class="cls-2" d="M288.37,175.19l-5.91,3.94c12.79,22.14,12.79,49.21-.49,71.35l5.91,3.94c14.76-24.6,15.26-54.62,.49-79.23"/><path class="cls-2" d="M369.56,348.4c8.86,0,15.75-6.89,15.75-15.75s-6.89-15.75-15.75-15.75-15.75,6.89-15.75,15.75,7.38,15.75,15.75,15.75"/><path class="cls-2" d="M388.26,354.31h-36.42c-10.83,.98-19.19,10.33-19.19,21.16v43.8c.49,3.44,3.44,5.91,6.89,5.41,2.95-.49,5.41-2.46,5.41-5.41v-37.89c0-1.48,.49-3.44,2.95-3.44,1.97,0,1.97,1.97,1.97,2.95v112.69c0,4.92,3.94,8.86,8.86,8.86s8.86-3.94,8.86-8.86v-64.46c0-1.48,.98-2.46,1.97-2.46h.49c1.48,0,2.46,.98,2.46,1.97v65.45c0,4.92,3.94,8.86,8.86,8.86s8.86-3.94,8.86-8.86v-112.69c0-.98,.49-2.95,2.46-2.95s2.95,1.97,2.95,3.44v37.89c0,3.44,2.95,5.91,5.91,5.91s5.91-2.95,5.91-5.91v-43.8c0-11.32-8.37-20.67-19.19-21.65"/><path class="cls-2" d="M189.95,350.86c8.37,0,15.75-6.89,15.75-15.25s-6.89-15.75-15.26-15.75-15.75,6.89-15.75,15.25c0,8.86,6.89,15.75,15.26,15.75"/><path class="cls-2" d="M234.24,412.38l-12.79-41.83s-4.43-12.3-14.76-12.3h-32.97c-10.33,0-14.76,12.3-14.76,12.3l-12.79,41.83s-2.46,7.87,4.43,9.84c6.89,1.97,8.37-5.41,8.37-5.41l10.33-34.94s.49-2.46,2.46-1.97c1.97,.49,.98,3.44,.98,3.44l-18.21,65.45h16.73v47.24c0,4.43,3.44,7.87,7.87,7.87s7.87-3.44,7.87-7.87v-47.24h4.43v47.24c0,4.43,3.44,7.87,7.87,7.87s7.87-3.44,7.87-7.87v-47.24h16.73l-18.21-65.45s-.98-2.95,1.48-3.44c2.46-.49,2.46,1.97,2.46,1.97l10.33,34.94s1.97,7.38,8.37,5.41c6.4-1.97,5.91-9.84,5.91-9.84"/><path class="cls-2" d="M319.86,427.63l-10.83-34.94s-3.94-10.33-12.3-10.33h-27.07c-8.37,0-12.3,10.33-12.3,10.33l-10.83,34.94s-1.97,6.4,3.44,7.87c5.41,1.48,6.89-4.43,6.89-4.43l8.86-29.03s.49-1.97,1.97-1.48,.98,2.95,.98,2.95l-14.76,54.13h13.78v38.88c0,3.94,2.95,6.89,6.89,6.89s6.89-2.95,6.89-6.89v-38.38h3.94v38.88c0,3.94,2.95,6.89,6.89,6.89,3.44,0,6.89-2.95,6.89-6.89v-38.88h13.78l-14.76-54.13s-.49-2.46,.98-2.95,1.97,1.48,1.97,1.48l8.86,29.03s1.48,6.4,6.89,4.43c5.41-1.97,2.95-8.37,2.95-8.37"/><path class="cls-2" d="M260.81,361.69c.49-.98,1.48-2.95,5.91-3.94,.98,0,1.48-.49,2.46-.49,.49-1.48,1.48-2.46,2.46-3.94v-.98c0-1.97-2.46-4.43-6.4-1.97-5.41,2.46-4.92,10.33-4.92,10.33,0,0,.49,1.48,.49,.98"/><path class="cls-2" d="M298.7,357.26c.98,.49,1.48,.49,2.46,.98,4.43,.49,5.41,2.46,5.91,3.94,0,.49,0,0,.49-.98,.49-.98,.49-7.87-4.92-10.33-4.43-1.97-6.4,.49-6.4,1.97v.98c.98,.98,1.48,2.46,2.46,3.44"/><path class="cls-2" d="M283.94,379.9c8.37,0,14.76-6.4,14.76-14.76s-6.4-14.76-14.76-14.76-14.76,6.4-14.76,14.76c0,7.87,6.4,14.76,14.27,14.76h.49Z"/><path class="cls-2" d="M129.91,396.63v32.48c0,2.95-2.46,5.41-5.41,5.41s-5.41-2.46-5.41-5.41v-33.46c0-1.48-.49-2.95-2.46-2.95s-1.97,1.48-1.97,2.95v99.9c0,4.43-3.44,7.87-7.87,7.87s-7.87-3.44-7.87-7.87v-58.07c0-.98-.49-1.97-1.97-2.46h-.49c-.98,0-1.97,.98-2.46,1.97v58.56c0,4.43-3.44,7.87-7.87,7.87s-7.87-3.44-7.87-7.87v-100.39c0-.98-.49-2.95-1.97-2.95s-2.46,1.48-2.46,2.95v33.46c.49,2.95-1.97,5.91-4.92,5.91-2.95,.49-5.91-1.97-5.91-4.92v-39.86c0-9.84,7.38-17.72,17.22-18.7h32.48c9.84,.98,17.22,8.86,17.22,18.7v6.89Z"/><path class="cls-2" d="M105.8,349.88c-.98-.98-2.46-1.97-4.43-.98q-1.97,.98-3.44,1.97c-2.95,1.48-5.91,1.97-8.86,2.46-2.46,.49-4.43,.49-6.89,.49,.49,7.87,7.38,13.29,15.26,12.79,6.4-.49,11.81-5.91,12.79-12.3-1.48-1.48-2.95-2.95-4.43-4.43"/><path class="cls-2" d="M88.58,350.37c2.95-.49,5.41-1.48,7.87-2.46,1.48-.49,2.95-1.48,4.43-1.97,.98-.49,1.97-.49,2.95-.49,.49,0,.98,.49,.98,.98l.98,.98s.49,.49,3.94,2.95q.49,.49,.98,.49c.49,0,.49-2.46,0-3.44-.49-3.44-1.97-6.89-4.43-9.84-.49-.98-1.97-1.48-2.95-1.48-1.97,.49-1.97-.98-2.95-1.48-3.94-1.48-8.86-.98-12.3,1.97-3.94,3.44-7.38,7.87-9.35,12.79-.49,.98,.98,1.97,2.46,1.97,2.95-.49,5.41-.49,7.38-.98"/></g></svg>