<?xml version="1.0" encoding="UTF-8"?><svg id="Capa_1" xmlns="http://www.w3.org/2000/svg" viewBox="0 0 467 568.37"><defs><style>.cls-1{fill:#fff;}.cls-2{fill:#d5102b;}</style></defs><path class="cls-2" d="M4.92,80.7H461.59V4.92H4.92V80.7Zm462.08,4.92H0V0H466.51V85.62h.49Z"/><polygon class="cls-2" points="16.73 17.72 38.88 17.72 38.88 24.6 32.48 24.6 32.48 67.91 23.62 67.91 23.62 24.6 16.73 24.6 16.73 17.72"/><path class="cls-2" d="M49.21,52.16h6.89l-3.44-20.18-3.44,20.18Zm-10.33,15.75l9.35-50.19h9.35l9.84,50.19h-8.86l-1.48-9.35h-8.86l-1.48,9.35h-7.87Z"/><path class="cls-2" d="M80.21,24.6v15.75h2.95c2.95,0,3.94-1.48,3.94-3.94v-7.38c0-2.95-1.48-3.94-3.94-3.94h-2.95v-.49Zm0,20.18v23.13h-8.37V17.72h12.3c8.37,0,11.81,4.43,11.81,11.32v6.4c0,5.41-1.97,8.37-6.89,9.84l7.87,22.64h-8.86l-7.87-23.13Z"/><path class="cls-2" d="M113.67,41.34h11.81v26.57h-5.91v-5.41c-.98,3.94-3.44,5.91-7.87,5.91-7.38,0-10.33-5.91-10.33-13.29V31c0-7.87,3.94-13.29,12.79-13.29,9.35,0,11.81,5.41,11.81,12.79v4.43h-7.87v-4.92c0-2.95-.98-4.92-4.43-4.92-2.95,0-4.43,1.97-4.43,4.92v27.07c0,2.95,1.48,4.92,3.94,4.92,2.95,0,3.94-1.48,3.94-4.92v-9.35h-3.94v-6.4h.49Z"/><polygon class="cls-2" points="132.37 17.72 152.55 17.72 152.55 24.6 140.74 24.6 140.74 38.88 149.11 38.88 149.11 45.77 140.74 45.77 140.74 61.02 152.55 61.02 152.55 67.91 132.37 67.91 132.37 17.72"/><polygon class="cls-2" points="156.49 17.72 178.63 17.72 178.63 24.6 171.74 24.6 171.74 67.91 163.38 67.91 163.38 24.6 156.49 24.6 156.49 17.72"/><path class="cls-2" d="M432.06,45.27v15.75h3.94c2.95,0,3.94-1.48,3.94-3.94v-7.38c0-2.46-1.48-3.94-4.43-3.94h-3.44v-.49Zm0-6.4h2.95c2.95,0,3.94-1.48,3.94-3.94v-5.91c0-2.95-1.48-3.94-3.94-3.94h-2.95v13.78Zm-8.37-21.16h12.3c8.37,0,11.32,3.94,11.32,10.83v4.92c0,4.43-1.48,6.89-4.92,7.87,4.43,.98,6.4,3.94,6.4,8.37v6.4c0,6.89-2.95,10.83-11.81,10.83h-13.29V17.72Z"/><path class="cls-2" d="M374.49,53.15h7.87v-20.67l-7.87,20.67Zm-7.38,1.48l14.76-36.91h8.37V53.15h3.44v6.4h-3.44v8.37h-7.87v-8.37h-14.76v-4.92h-.49Z"/><polygon class="cls-2" points="404.01 32.48 404.01 53.15 414.84 42.81 404.01 32.48"/><g><rect class="cls-2" y="101.86" width="466.51" height="466.51"/><path class="cls-1" d="M92.02,285.91v20.67c0,11.81,31,22.64,55.61,22.64s55.61-10.33,55.61-22.14v-20.67l-56.1,16.24-55.11-16.73Z"/><path class="cls-1" d="M244.08,264.75l-95.96-30.02-95.47,29.53,9.84,2.95,15.75,4.92v42.32c-.98,.49-1.48,1.48-1.48,2.46l-1.48,25.59h7.87l-.98-26.08c0-.98-.49-1.97-1.48-2.46v-41.34l3.94,.98v-.49l62.99,19.19,96.45-27.56Z"/><path class="cls-1" d="M413.85,346.44l-23.13-74.8s-8.37-21.65-26.08-21.65h-40.84c-6.4,.49-12.79-1.97-17.22-6.4l-50.19-74.8c-2.95-5.41-9.84-7.87-15.25-4.92-5.41,2.95-7.87,9.84-4.92,15.25l43.8,72.83,18.7,34.45c2.95,5.91,3.94,12.79,2.95,19.19l-29.03,104.82h30.02v83.66c0,7.87,6.4,14.27,14.27,14.27s14.27-6.4,14.27-14.27v-83.66h7.87v83.66c0,7.87,6.4,14.27,14.27,14.27s14.27-6.4,14.27-14.27v-83.66h30.02l-31.49-116.63s-1.48-4.92,2.46-5.91,4.43,3.94,4.43,3.94l18.7,62s3.44,13.29,14.76,9.84c11.32-3.44,7.38-17.22,7.38-17.22"/><path class="cls-1" d="M366.12,194.38l4.43,1.48c8.37,.98,10.83,4.92,11.32,7.38,0,.49,.49-.49,.49-1.48,0,0,.98-14.76-8.86-19.68-8.37-3.94-12.3,.49-12.79,4.43v1.48c1.97,1.48,3.94,3.94,5.41,6.4"/><path class="cls-1" d="M291.81,202.74c.98-2.46,3.44-5.91,11.81-7.38,1.97,0,3.44-.49,4.92-1.48,1.48-2.46,2.95-4.43,4.43-6.4v-1.97c-.49-3.94-4.43-8.37-12.79-4.43-10.33,4.92-8.86,19.68-8.86,19.68,0,1.48,0,2.46,.49,1.97"/><path class="cls-1" d="M337.09,238.17c15.75,0,28.05-12.79,28.05-28.54s-12.79-28.05-28.54-28.05-28.05,12.79-28.05,28.54,12.79,28.05,28.54,28.05c-.49,0,0,0,0,0"/><path class="cls-1" d="M140.25,491.11c-2.95,1.48-5.91,2.95-8.86,3.94-8.86,2.46-18.21,3.44-27.07,3.44-4.43,0-8.86-.49-13.78-.98-2.95-.49-5.41-.98-8.37-1.48-1.48-.49-2.95-.49-3.94-.98-3.94-.98-7.38-2.46-10.33-4.92-.98-.98-1.97-1.97-2.95-2.95v8.86c0,2.46,1.48,4.43,2.95,5.91,6.4,4.43,13.78,6.89,21.16,7.87,4.92,.98,10.33,.98,15.75,.98,7.38,0,15.25-.98,22.14-2.46,3.94-.98,7.87-2.46,11.32-4.43,3.94-2.46,5.91-4.92,5.91-7.87,0,0,.49-8.37,0-8.86-.98,.98-2.46,2.46-3.94,3.94"/><path class="cls-1" d="M64.46,439.93c.49-1.97,1.48-3.44,2.95-4.43,.98,.98,2.46,1.97,3.94,2.95,10.33,4.92,21.65,6.89,32.97,6.4,9.35,0,19.19-1.48,28.05-4.43,1.48-.49,2.46-.98,3.44-1.48v.98c0,5.91-14.76,11.81-35.92,11.81s-35.43-6.4-35.43-11.81m40.35-31.49c21.16,0,35.92,6.4,35.92,12.3s-14.76,11.81-35.92,11.81-35.92-5.91-35.92-11.81,14.76-12.3,35.92-12.3m-3.94,55.61c22.14,0,39.86-6.4,39.86-14.76,0,0,.49-7.38,.49-9.35,0-.98-.49-1.97-.49-2.95,2.46-1.48,3.94-3.94,4.43-6.89,0,0,.49-8.37,0-10.33-.98-9.84-21.16-15.25-39.86-15.25s-40.35,5.91-40.35,16.24c0,.49,.49,9.35,.49,9.35,0,.49,0,.98,.49,1.97-2.95,1.97-4.92,4.92-4.92,8.37,0,.49,.49,9.35,.49,9.35,0,2.46,1.48,4.43,2.95,5.91,6.4,4.43,13.78,6.89,21.16,7.87,4.92,0,9.84,.49,15.26,.49"/><path class="cls-1" d="M89.07,494.56c4.92,.98,10.33,.98,15.25,.98,7.38,0,15.25-.98,22.14-2.46,3.94-.98,7.87-2.46,11.32-4.43,.98-.49,1.48-.98,2.46-1.48,1.48-.98,2.46-2.46,2.95-3.94,.49-.49,.49-1.48,.49-1.97v-8.86c-1.48,1.48-4.92,6.89-20.67,9.84-6.89,.98-13.78,1.97-20.18,1.97-12.79,0-26.08-2.46-31.99-6.4-1.97-.98-3.44-1.97-4.92-3.44-.98-.98-1.97-1.97-2.46-2.95v9.84c0,2.46,1.48,4.43,2.95,5.91,6.89,3.94,14.76,6.4,22.64,7.38"/><path class="cls-1" d="M143.69,454.21q-.49-.49-.98-.98c-.49-.49-.98-.49-1.48-.98-.49,.98-.98,1.48-1.97,2.46,.49,0,.98,.49,1.48,.98,.98,.49,1.97,1.97,1.97,2.95s-.98,1.97-1.48,2.46c-.49,.49-.98,.98-1.48,.98,0,0-1.48,.98-2.46,1.48-.98,.49-2.46,.98-3.44,1.48,0,0-2.46,.98-3.44,.98s-3.44,.98-4.92,.98c-.49,0-4.43,.98-5.91,.98-.49,0-4.43,.49-6.4,.49-.49,0-6.4,.49-9.35,.49-4.43,0-8.37-.49-12.79-.98l-8.86-1.48c-3.44-.49-6.4-1.48-9.84-2.95-1.97-.98-3.44-1.97-4.92-3.44-1.48-.98-2.46-2.46-2.95-3.94v9.84c0,2.46,1.48,4.43,2.95,5.91,6.4,4.43,13.78,7.38,21.16,7.87,4.92,.98,10.33,.98,15.25,.98,7.38,0,15.26-.98,22.14-2.46,3.94-.98,7.87-2.46,11.32-4.43,.98-.49,1.48-.98,2.46-1.97,1.48-.98,2.46-2.46,2.95-3.94,.49-.49,.49-1.48,.49-1.97,0,0,.49-8.37,.49-8.86s0-1.48-.49-1.97c.98,0,.98-.49,.49-.98"/><path class="cls-1" d="M156.49,410.9c.49-1.97,1.48-3.44,2.95-4.43,.98,.98,2.46,1.97,3.94,2.95,10.33,4.92,21.65,6.89,32.97,6.4,9.35,0,19.19-1.48,28.05-4.43,.98-.49,2.46-.98,3.44-1.48v.98c0,5.91-14.76,12.3-35.92,12.3s-35.43-6.4-35.43-12.3m40.35-31c21.16,0,35.92,6.4,35.92,11.81s-14.76,12.3-35.92,12.3-35.92-6.4-35.92-12.3,14.76-11.81,35.92-11.81m-3.94,55.11c22.14,0,39.86-6.4,39.86-14.76,0,0,.49-7.87,.49-9.35,0-.98-.49-1.97-.49-2.95,2.46-1.48,3.94-3.94,4.43-6.89,0,0,.49-8.37,0-10.33-.98-9.84-21.16-15.25-39.86-15.25s-40.35,5.91-40.35,16.24c0,.49,.49,9.35,.49,9.35,0,.49,0,.98,.49,1.97-2.95,1.48-4.92,4.92-4.92,7.87,0,.49,.49,9.35,.49,9.35,0,2.46,1.48,4.43,3.44,5.91,6.4,4.43,13.78,6.89,21.16,7.87,4.43,.49,9.35,.98,14.76,.98"/><path class="cls-1" d="M236.7,427.14c0-.49-.49-.98-.98-1.48q-.49-.49-.98-.98c-.49-.49-.98-.49-1.48-.98-.49,.98-.98,1.48-1.97,2.46,.49,0,.98,.49,1.48,.98,.98,.49,1.97,1.97,1.97,2.95s-.49,1.97-1.48,2.46l-1.48,.98s-1.48,.98-2.46,.98c-.98,.49-2.46,.98-3.44,1.48,0,0-2.46,.98-3.44,.98s-3.44,.98-4.92,.98c-.49,0-4.43,.98-5.91,.98-.49,0-4.43,.49-6.4,.49-.49,0-6.4,.49-9.35,.49-4.43,0-8.37-.49-12.79-.98-2.95-.49-5.91-.98-8.86-1.48-3.44-.49-6.4-1.97-9.84-2.95-1.97-.98-3.44-1.97-4.92-3.44-1.48-.98-2.46-2.46-2.95-3.94v10.33c0,2.46,1.48,4.43,2.95,5.91,6.4,4.43,13.78,7.38,21.65,7.87,4.92,.98,10.33,.98,15.75,.98,7.38,0,15.26-.98,22.14-2.46,3.94-.98,7.87-2.46,11.32-4.43,.98-.49,1.48-.98,2.46-1.97,1.48-.98,2.46-2.46,2.95-3.94,.49-.49,.49-1.48,.49-1.97,0,0,.49-8.37,.49-8.86v-1.48Z"/><path class="cls-1" d="M232.27,462.08c-2.46,1.97-5.91,2.95-8.86,3.94-8.86,2.46-18.21,3.44-27.07,3.44-4.43,0-8.86-.49-13.78-.98-2.95-.49-5.41-.98-8.37-1.48l-3.94-.98c-3.94-.98-7.38-2.46-10.83-4.92-.98-.98-1.97-1.97-2.95-3.44v8.86c0,2.46,1.48,4.43,2.95,5.91,6.4,4.43,13.78,7.38,21.16,7.87,4.92,.98,10.33,.98,15.75,.98,7.38,0,15.25-.98,22.14-2.46,3.94-.98,7.87-2.46,11.32-4.43,3.94-2.46,5.91-4.92,5.91-7.87,0,0,.49-7.87,0-8.86-.49,1.97-1.97,3.44-3.44,4.43"/><path class="cls-1" d="M159.93,457.65c6.4,4.43,13.78,6.89,21.16,7.87,4.92,.98,10.33,.98,15.75,.98,7.38,0,15.25-.98,22.14-2.46,3.94-.98,7.87-2.46,11.32-4.43,.98-.49,1.48-.98,2.46-1.48,1.48-.98,2.46-2.46,2.95-3.94,.49-.49,.49-1.48,.49-1.97v-8.86c-1.48,1.48-4.92,6.89-20.67,10.33-6.89,.98-13.29,1.97-20.18,1.48-12.79,0-26.08-2.46-31.99-6.4-1.97-.98-3.44-1.97-4.92-3.44-.98-.98-1.48-1.97-2.46-2.95v9.84c.49,2.46,1.97,4.43,3.94,5.41"/><path class="cls-1" d="M237.19,486.19c-1.48,1.97-2.95,3.44-4.92,4.43-2.95,1.48-5.91,2.95-8.86,3.94-8.86,2.46-18.21,3.44-27.07,3.44-4.43,0-8.86-.49-13.29-.98-2.95-.49-5.41-.98-8.37-1.48-1.48-.49-2.95-.49-3.94-.98-3.94-.98-7.38-2.46-10.83-4.92l-2.95-2.95v8.86c0,2.46,1.48,4.43,2.95,5.91,6.4,4.43,13.78,7.38,21.16,7.87,4.92,.98,10.33,.98,15.75,.98,7.38,0,15.25-.98,22.14-2.46,3.94-.98,7.87-2.46,11.32-4.43,3.94-2.46,5.91-4.92,5.91-7.87,.49-.49,.98-8.86,.98-9.35"/><path class="cls-1" d="M181.09,494.06c4.92,.98,10.33,.98,15.75,.98,7.38,0,15.25-.98,22.14-2.46,3.94-.98,7.87-2.46,11.32-4.43,.98-.49,1.48-.98,2.46-1.97,1.48-.98,2.46-2.46,2.95-3.94,.49-.49,.49-1.48,.49-1.97v-8.86c-1.48,1.48-4.92,6.89-20.67,9.84-6.89,.98-13.29,1.97-20.18,1.97-12.79,0-26.08-2.46-31.99-6.4-1.97-.98-3.44-1.97-4.92-3.44-.98-.98-1.48-1.97-2.46-2.95v9.84c0,2.46,1.48,4.43,2.95,5.41,6.89,4.92,14.27,7.87,22.14,8.37"/></g></svg>