<?xml version="1.0" encoding="UTF-8"?><svg id="Capa_1" xmlns="http://www.w3.org/2000/svg" viewBox="0 0 467 568.37"><defs><style>.cls-1{fill:#010101;}.cls-2{fill:#fff;}.cls-3{fill:#e4003b;}</style></defs><path class="cls-3" d="M4.92,80.7H461.59V4.92H4.92V80.7Zm462.08,4.92H0V0H466.51V85.62h.49Z"/><polygon class="cls-3" points="16.73 17.72 38.88 17.72 38.88 24.6 32.48 24.6 32.48 67.91 23.62 67.91 23.62 24.6 16.73 24.6 16.73 17.72"/><path class="cls-3" d="M49.21,52.16h6.89l-3.44-20.18-3.44,20.18Zm-10.33,15.75l9.35-50.19h9.35l9.84,50.19h-8.86l-1.48-9.35h-8.86l-1.48,9.35h-7.87Z"/><path class="cls-3" d="M80.21,24.6v15.75h2.95c2.95,0,3.94-1.48,3.94-3.94v-7.38c0-2.95-1.48-3.94-3.94-3.94h-2.95v-.49Zm0,20.67v23.13h-8.37V17.72h12.3c8.37,0,11.81,4.43,11.81,11.32v6.4c0,5.41-1.97,8.37-6.89,9.84l7.87,22.64h-8.86l-7.87-22.64Z"/><path class="cls-3" d="M113.67,41.34h11.81v26.57h-5.91v-5.41c-.98,3.94-3.44,5.91-7.87,5.91-7.38,0-10.33-5.91-10.33-13.29V31c0-7.87,3.94-13.29,12.79-13.29,9.35,0,11.81,5.41,11.81,12.79v4.43h-7.87v-4.92c0-2.95-.98-4.92-4.43-4.92-2.95,0-4.43,1.97-4.43,4.92v27.07c0,2.95,1.48,4.92,3.94,4.92,2.95,0,3.94-1.48,3.94-4.92v-9.35h-3.94v-6.4h.49Z"/><polygon class="cls-3" points="132.37 17.72 152.55 17.72 152.55 24.6 140.74 24.6 140.74 38.88 149.11 38.88 149.11 45.77 140.74 45.77 140.74 61.02 152.55 61.02 152.55 67.91 132.37 67.91 132.37 17.72"/><polygon class="cls-3" points="156.49 17.72 178.63 17.72 178.63 24.6 171.74 24.6 171.74 67.91 163.38 67.91 163.38 24.6 156.49 24.6 156.49 17.72"/><polygon class="cls-3" points="394.66 17.72 394.66 67.91 386.3 67.91 386.3 29.53 380.39 35.43 380.39 27.07 388.26 18.21 394.66 18.21 394.66 17.72"/><path class="cls-3" d="M409.92,36.91c3.44,0,5.91,2.95,5.91,5.91,0,3.44-2.95,5.91-5.91,5.91-3.44,0-5.91-2.95-5.91-5.91-.49-2.95,2.46-5.91,5.91-5.91"/><path class="cls-3" d="M448.3,44.78v12.3c0,6.89-3.44,11.32-11.81,11.32s-11.81-4.92-11.81-12.3v-5.91h7.87v6.4c0,2.95,.98,4.92,3.94,4.92,2.46,0,3.44-1.97,3.44-4.43v-12.3c0-2.95-.98-4.43-3.44-4.43s-3.94,1.48-3.94,4.43v.98h-7.87V17.72h22.14v6.89h-14.27v12.3c1.48-2.46,3.94-3.44,6.89-3.44,4.43,.49,8.86,3.44,8.86,11.32"/><g><rect class="cls-3" y="101.86" width="466.51" height="466.51"/><rect class="cls-2" x="32.48" y="402.04" width="92.51" height="27.56"/><rect class="cls-2" x="133.85" y="402.04" width="92.51" height="27.56"/><rect class="cls-2" x="235.22" y="402.04" width="92.51" height="27.56"/><rect class="cls-2" x="336.59" y="402.04" width="92.51" height="27.56"/><rect class="cls-2" x="33.46" y="440.92" width="396.14" height="27.56"/><path class="cls-2" d="M67.42,344.96h9.84v25.59c0,.49,.49,.98,.98,.98h11.81c.49,0,.98-.49,.98-.98v-26.08h19.19c12.3,0,22.14-9.84,22.14-22.64,0-5.91-1.97-11.32-5.91-15.25,9.84-5.91,13.78-18.21,7.87-28.54-3.94-6.4-10.83-10.83-18.21-10.83h-1.48c-1.48-15.75-14.76-27.07-30.51-26.08-14.76,.98-26.08,13.29-26.08,28.05,0,4.43,.98,8.37,2.95,12.3-17.22,3.94-27.56,20.67-23.62,37.89,2.95,15.25,15.75,25.59,30.02,25.59"/><path class="cls-2" d="M37.4,384.82c2.46,0,4.43-1.97,4.43-3.94,0-2.46-1.97-4.43-3.94-4.43s-4.43,1.97-4.43,3.94c0,2.95,1.48,4.43,3.94,4.43"/><path class="cls-2" d="M51.67,380.88c0,2.46,1.97,3.94,3.94,3.94,2.46,0,4.43-1.97,4.43-3.94,0-2.46-1.97-3.94-3.94-3.94-2.46-.49-4.43,1.48-4.43,3.94"/><path class="cls-2" d="M74.8,376.45c-2.46,0-4.43,1.97-4.43,3.94,0,2.46,1.97,3.94,4.43,3.94s4.43-1.97,4.43-3.94c-.49-1.97-2.46-3.94-4.43-3.94"/><path class="cls-2" d="M89.07,380.88c0,2.46,1.97,3.94,3.94,3.94,2.46,0,4.43-1.97,4.43-3.94,0-2.46-1.97-3.94-3.94-3.94-2.46-.49-4.43,1.48-4.43,3.94"/><path class="cls-2" d="M107.77,380.88c0,2.46,1.97,3.94,3.94,3.94,2.46,0,4.43-1.97,4.43-3.94,0-2.46-1.97-3.94-3.94-3.94-2.46-.49-4.43,1.48-4.43,3.94"/><path class="cls-2" d="M126.47,380.88c0,2.46,1.97,3.94,4.43,3.94s3.94-1.97,3.94-4.43-1.97-3.94-4.43-3.94c-1.97,.49-3.94,1.97-3.94,4.43"/><path class="cls-2" d="M42.32,366.61c0,2.46,1.97,4.43,3.94,4.43,2.46,0,4.43-1.97,4.43-3.94,0-2.46-1.97-4.43-3.94-4.43-2.46-.49-4.43,1.48-4.43,3.94"/><path class="cls-2" d="M61.02,366.61c0,2.46,1.97,4.43,3.94,4.43,2.46,0,4.43-1.97,4.43-3.94,0-2.46-1.97-4.43-3.94-4.43-2.46-.49-4.43,1.48-4.43,3.94"/><path class="cls-2" d="M98.42,366.61c0,2.46,1.97,4.43,3.94,4.43s4.43-1.97,4.43-3.94c0-2.46-1.97-4.43-3.94-4.43-2.46-.49-4.43,1.48-4.43,3.94"/><path class="cls-2" d="M117.12,366.61c0,2.46,1.97,4.43,3.94,4.43s4.43-1.97,4.43-3.94c0-2.46-1.97-4.43-3.94-4.43-2.95-.49-4.43,1.48-4.43,3.94"/><path class="cls-2" d="M266.22,303.62c4.43,0,8.37-3.94,8.37-8.37s-3.94-8.37-8.37-8.37-8.37,3.94-8.37,8.37c.49,4.43,3.94,8.37,8.37,8.37"/><path class="cls-2" d="M289.85,336.59l-6.89-22.14s-2.46-6.4-7.87-6.4h-17.72c-5.41,0-7.87,6.4-7.87,6.4l-6.89,22.14s-.98,3.94,2.46,4.92c3.44,.98,4.43-2.95,4.43-2.95l5.41-18.7s.49-1.48,1.48-.98c.98,.49,.49,1.97,.49,1.97l-9.84,34.94h8.86v25.1c.49,2.46,2.46,3.94,4.92,3.94,1.97,0,3.44-1.97,3.94-3.94v-25.1h2.46v25.1c.49,2.46,2.46,3.94,4.92,3.94,1.97,0,3.44-1.97,3.94-3.94v-25.1h8.86l-9.84-34.94s-.49-1.48,.49-1.97c.98-.49,1.48,.98,1.48,.98l5.41,18.7s.98,3.94,4.43,2.95c3.44-.98,2.95-4.92,2.95-4.92"/><path class="cls-2" d="M187,300.67c4.92,0,8.86-3.94,8.86-8.86s-3.94-8.86-8.86-8.86-8.86,3.94-8.86,8.86c.49,4.92,4.43,8.86,8.86,8.86"/><path class="cls-2" d="M197.33,304.12h-20.18c-5.91,.49-10.33,5.41-10.33,11.32v24.11c0,.98,.49,1.97,1.48,2.46l-7.87,40.35c0,.49,.49,1.48,.98,1.48s.98-.49,1.48-.98l7.38-40.35c1.48,0,2.95-1.48,2.95-3.44v-20.67c0-.98,0-1.97,1.48-1.97s.98,.98,.98,1.48v61.51c.49,2.46,3.44,4.43,5.91,3.94,1.97-.49,3.44-1.97,3.94-3.94v-35.43c0-.49,.49-1.48,.98-1.48s1.48,.49,1.48,1.48v35.43c0,2.95,1.97,4.92,4.92,4.92s4.92-1.97,4.92-4.92v-60.53c0-.49,0-1.48,.98-1.48s1.48,.98,1.48,1.97v20.67c0,1.97,1.48,3.44,3.44,3.44s3.44-1.48,3.44-3.44v-24.11c.49-6.4-3.94-11.32-9.84-11.81"/><path class="cls-2" d="M239.65,337.09c-1.48-.49-2.95,0-3.44,.98-1.48,2.46-2.95,4.43-4.43,6.89-.49,.49-1.48,.98-1.97,.98h-8.37c-.98,0-1.48-.49-1.97-.98-1.48-.98-4.43-6.89-4.92-6.89-.49-1.48-1.97-1.97-2.95-1.97-1.48,.49-1.97,1.97-1.97,2.95v.98l6.89,12.3c.49,.49,.49,.98,.49,1.48v1.97c0,.49,0,1.48-.49,1.97l-3.44,13.29h3.94v9.84c0,1.97,1.48,3.44,3.44,3.44s3.44-1.48,3.44-3.44v-9.84h1.97v9.84c0,1.97,1.48,3.44,3.44,3.44s3.44-1.48,3.44-3.44v-9.84h3.94l-3.44-13.29c0-.49,0-.98-.49-1.48v-2.46c0-.49,0-.98,.49-1.48l6.4-11.81,.49-.98c.98-.49,.49-1.97-.49-2.46"/><path class="cls-2" d="M225.38,341.52c3.94,0,6.89-2.95,6.89-6.89s-2.95-6.89-6.89-6.89-6.89,2.95-6.89,6.89,2.95,6.89,6.89,6.89"/><path class="cls-2" d="M361.69,358.25h-24.11v-24.11h24.11v24.11Zm64.96-47.24h-108.26c-.49,0-.49,.49-.98,.49v71.35c0,.49,.49,.98,.98,.98h62v-49.7h25.59v50.19h20.67c.49,0,.98-.49,.98-.98v-71.35c0-.49-.49-.98-.98-.98"/><path class="cls-2" d="M372.52,249.49c-.49-.49-.98-.49-1.48-.49s-1.48,.49-1.48,.98l-.49,.49-58.56,54.13s-.49,.49,0,.98h124.01c.49,0,.49-.49,.49-.49v-.49l-62.5-55.11Z"/><path class="cls-2" d="M283.45,198.81c-1.48,0-2.46-.98-2.46-2.46s.98-2.46,2.46-2.46,2.46,.98,2.46,2.46-1.48,2.46-2.46,2.46m.49,7.87c-.49,.49-.98,.49-1.48,.49h-.49c-1.48,0-1.97-1.48-1.97-2.46,0-1.48,.98-2.46,2.46-2.46s2.46,.98,2.46,2.46v.49c-.49,.49-.49,.98-.98,1.48m-.98,6.89c-.49,.98-.98,1.48-2.46,1.48h-.98c-.49,0-.98-.49-1.48-.98-.49-.49-.49-.98,0-1.97,0-.49,.49-.98,.98-1.48,.98-.49,2.46,0,2.95,.98,.98,.98,.98,1.48,.98,1.97m-3.94,7.87c-.49,.49-.98,.98-1.97,.98-.49,0-.98,0-.98-.49-.49-.49-.98-.98-.98-1.48-.49-.49-.49-.98,0-1.97,.49-.49,.98-.98,1.48-.98,1.48-.49,2.46,.49,2.95,1.48-.49,.98-.49,1.97-.49,2.46m-5.41-53.64c-.49,.49-.98,.49-1.48,.49s-.98-.49-1.48-.98c-.49-.49-.98-.98-.98-1.97,0-.49,.49-.98,.98-1.48,.98-.98,2.46-.98,3.44,0,.98,.98,.98,2.46,0,3.44l-.49,.49Zm0,60.53c-.49,.49-.98,.98-1.48,.98-.98,0-1.97-.98-2.46-1.97,0-.49,0-1.48,.49-1.48,.49-.49,.98-.98,1.48-.98s1.48,0,1.48,.49c.49,.49,.98,.98,.98,1.48,.49,.49,0,.98-.49,1.48m-5.41-66.43c-.49,.49-.98,.98-1.48,.98s-.98,0-1.48-.49c-.98-.49-.98-.98-.98-1.97,0-1.48,.98-2.46,1.97-2.46,.49,0,1.48,0,1.97,.49,.49,.49,.98,.98,.98,1.48-.49,.98-.98,1.48-.98,1.97m-.49,72.83c-.49,.49-.98,.49-1.48,.49-1.48,0-2.46-.98-2.46-2.46,0-.49,.49-.98,.98-1.48,.49-.49,.98-.49,1.48-.49s.98,.49,1.48,.98c.98,.49,.98,1.97,0,2.95m-7.38,4.92h-1.48c-.49,0-.98-.49-1.48-.98-.49-.49-.49-.98,0-1.97,0-.49,.49-.98,.98-1.48h1.97c.49,0,.98,.49,1.48,.98,0,1.48,0,2.95-1.48,3.44m-6.4,2.46c-.49,.49-.49,.98-1.48,.98h-1.97c-.49,0-.98-.49-.98-1.48v-1.97c.49-.49,.98-.98,1.48-.98,.98-.49,2.46,0,2.95,1.48,.49,.98,.49,1.48,0,1.97m-7.87,2.46c-.49,.49-.98,.98-1.48,.98h-.49c-1.48,0-2.46-.98-2.46-1.97,0-1.48,.98-2.46,1.97-2.46,.49,0,1.48,0,1.97,.49,.49,.49,.98,.98,.98,1.48s-.49,.98-.49,1.48m-10.33,1.48c-1.48,0-2.46-.98-2.46-2.46s.98-2.46,2.46-2.46,2.46,.98,2.46,2.46-.98,2.46-2.46,2.46m-8.37-.98h0c-1.48-.49-2.46-1.48-2.46-2.95s1.48-1.97,2.95-1.97,1.97,1.48,1.97,2.95-.98,1.97-2.46,1.97m-5.41-3.44c-.49,.98-1.48,1.48-2.46,1.48h-.98c-.98-.49-1.97-1.97-1.48-2.95,.49-1.48,1.48-1.97,2.95-1.48,1.48,.49,2.46,1.48,1.97,2.95m-7.87-2.95c-.49,.98-.98,.98-1.97,.98-.49,0-.98,0-.98-.49-.49-.49-.98-.98-.98-1.48v-1.97c.49-.49,.98-.98,1.48-.98h1.97c.49,.49,1.48,1.97,.49,3.94,.49-.49,0,0,0,0m-6.4-23.13h1.97v-2.95s0-.49,.49-.49h51.67s.49,0,.49,.49v2.95h1.97v3.44h-56.59v-3.44Zm-.49,18.7c-.49,.49-.98,.49-1.97,.49-.49,0-.98,0-1.48-.49-.49-.49-.98-.98-.98-1.48s0-1.48,.49-1.48c.49-.49,.98-.49,1.48-.98,.49,0,1.48,0,1.97,.49,.49,.49,.98,.98,.98,1.48,0,.98,0,1.48-.49,1.97m-6.4-5.91c-.49,.49-.98,.49-1.48,.49s-1.48-.49-1.97-.98c-.98-.98-.98-2.46,0-3.44,.49-.49,.98-.49,1.48-.49s.98,.49,1.48,.98c1.97,1.48,1.97,2.95,.49,3.44q.49,.49,0,0m-2.95-63.97c.49-.49,.98-.98,1.48-.98s1.48,0,1.48,.49c.49,.49,.98,.98,.98,1.48,0,1.48-.98,2.46-1.97,2.46-.49,0-.98,0-1.48-.49-1.48-.49-1.48-1.97-.49-2.95m-.98,56.59c0,.49-.49,.98-.98,1.48-.49,0-.98,.49-.98,.49-.98,0-1.48-.49-1.97-.98-.49-.98,0-2.46,.98-3.44,.98-.49,2.46-.49,2.95,.49,0,.49,.49,.98,0,1.97m-5.41-5.91c-1.48,0-2.46-.98-2.46-2.46s.98-2.46,2.46-2.46c.98,0,1.97,.49,2.46,1.48,.49,.98,0,2.46-1.48,2.95-.49,.49-.98,.49-.98,.49m-4.92-9.84c0-1.48,.49-2.46,1.97-2.95,1.48,0,2.46,.49,2.95,1.97,0,1.48-.49,2.46-1.97,2.95h-.49c-.98,0-1.97-.98-2.46-1.97m-.49-8.86c0-1.48,.98-2.46,2.46-2.46s2.46,.98,2.46,2.46-.98,2.46-2.46,2.46-2.46-.98-2.46-2.46m3.44-10.33c.49,0,.98,.49,1.48,.98,.49,.49,.49,.98,.49,1.97s-.49,1.48-.98,1.97c-.49,.49-.98,.49-1.48,.49h-.49c-1.48-.49-1.97-1.48-1.97-2.95,.49-1.48,1.48-2.46,2.95-2.46m-.49-6.89c.49-.49,.98-.98,1.48-.98h1.97c.49,0,.98,.49,1.48,.98,.49,.49,.49,.98,0,1.97-.49,.98-.98,1.48-2.46,1.48h-.98c-.98,0-1.97-1.48-1.48-3.44q0,.49,0,0m3.44-7.87c.49-.98,1.97-1.48,3.44-.98,1.48,.49,1.48,1.97,.98,3.44-.49,.49-.98,.98-1.97,.98-.49,0-.98,0-.98-.49-1.48,0-1.97-1.48-1.48-2.95m11.32-12.79c.49-.49,.98-.49,1.48-.49s.98,.49,1.48,.98c.98,.98,.49,2.46-.49,3.44-.49,.49-.98,.49-1.48,.49s-1.48-.49-1.97-.98c0-1.48,0-2.46,.98-3.44m6.89-4.92h1.97c.49,0,.98,.49,1.48,.98,.49,.98,0,2.46-.98,3.44-.49,0-.98,.49-.98,.49-.98,0-1.48-.49-1.97-.98-.98-1.97-.49-3.44,.49-3.94m6.89-2.46c.49-.49,.98-.98,1.48-.98,.49-.49,.98-.49,1.97,0,.49,.49,.98,.49,.98,1.48v1.97c-.49,.49-.98,.98-1.48,.98h-1.97c-.49-.49-.98-.98-.98-1.48-.49-.98-.49-1.48,0-1.97m7.87-2.46c.49-.49,.98-.98,1.48-.98s1.48,0,1.97,.49c.49,.49,.98,.98,.98,1.48s0,1.48-.49,1.97c-.49,.49-.98,.98-1.48,.98h-.49c-.98,0-1.97-.98-2.46-1.97,0-.98,.49-1.48,.49-1.97m10.33-1.97c1.48,0,2.46,.98,2.46,2.46s-.98,2.46-2.46,2.46-2.46-.98-2.46-2.46,.98-2.46,2.46-2.46m6.89,.98c.49-.49,.98-.49,1.97-.49,1.48,0,1.97,1.48,1.97,2.46,0,.49-.49,.98-.98,1.48-.49,.49-.98,.49-1.48,.49h-.49c-.49,0-.98-.49-1.48-.98-.49-.49-.49-.98-.49-1.97,0,0,.49-.49,.98-.98m6.89,3.44c.49-.98,1.97-1.97,2.95-1.48,.49,0,.98,.49,1.48,.98v1.97c0,.49-.49,.98-.98,1.48h-1.97c-.49,0-.98-.49-1.48-.98v-1.97Zm-13.29,29.53h-28.05l-.98-.98c-.49-.49-.49-.98,0-.98l29.03-10.83,29.03,10.83c.49,.49,.49,.98,0,.98l-1.48,.98h-27.56Zm-23.13,9.84c-.49,0-.98-.49-.98-.98v-3.44h8.37v3.44c0,.49-.49,.98-.98,.98v20.18h-6.4v-20.18Zm19.68,0c-.49,0-.98-.49-.98-.98v-3.44h8.37v3.44q0,.49-.49,.98v20.18h-6.4v-20.18h-.49Zm3.44-6.4h-26.08v-1.97h52.65v1.97h-26.57Zm16.24,6.4c-.49,0-.98-.49-.98-.98v-3.44h8.37v3.44c0,.49,0,.98-.49,.98v20.18h-6.4v-20.18h-.49Zm4.92-35.92h0c.49-.98,1.97-1.48,3.44-.98,.49,.49,.98,.98,.98,1.48v1.97c-.49,.49-.98,.98-1.48,.98h-.98c-.49,0-.98,0-.98-.49-.49-.49-.98-.98-.98-1.48-.49-.49-.49-.98,0-1.48m17.22,17.72c0-.49,.49-.98,.98-1.48,.98-.49,2.46,0,2.95,.98,.49,.98,0,2.46-.98,2.95-.49,0-.98,.49-.98,.49h-.49c-.98-.49-1.97-1.48-1.48-2.95m7.87,7.38v1.97c-.49,.49-.98,.98-1.48,.98h-1.97c-.49-.49-.98-.98-.98-1.48-.49-.49-.49-.98,0-1.97,.49-.49,.49-.98,1.48-.98,.98-.49,2.46,0,2.95,1.48m2.46,8.37c0,1.48-.49,2.46-1.97,2.46h-.49c-.98,0-1.97-.98-2.46-1.97,0-.49,0-1.48,.49-1.97,.49-.49,.98-.98,1.48-.98,1.48,0,2.46,.98,2.95,2.46q-.49,0,0,0m-49.21-46.26c-30.02,0-54.62,24.6-54.62,54.62s24.6,54.62,54.62,54.62,54.62-24.6,54.62-54.62-24.6-54.62-54.62-54.62"/><path class="cls-2" d="M235.71,253.92c-31.49,0-57.58-25.59-57.58-57.58s25.59-57.58,57.58-57.58,57.58,25.59,57.58,57.58-26.08,57.58-57.58,57.58m0-119.58c-34.45,0-62,28.05-62,62s28.05,62,62,62,62-28.05,62-62-27.56-62-62-62"/><path class="cls-1" d="M426.65,498.99h-.49l-.98,.49c-12.3,6.4-51.18,21.16-86.12-12.3-.49-.49-1.48-.98-1.97-.98s-1.48,.49-1.97,.98c-10.33,7.87-58.56,40.35-101.37,.49l-.49-.49c-.49-.49-.98-.49-1.48-.49s-.98,.49-1.48,.49l-.49,.49c-42.81,39.86-91.04,7.38-101.37-.49-.49-.49-.98-.98-1.97-.98s-1.48,.49-1.97,.98c-34.94,33.46-73.81,18.21-86.12,12.3l-.98-.49h-.49c-1.48,0-2.46,.98-2.46,2.46v16.73c0,.49,.49,.98,.49,1.48,40.35,35.43,79.23,2.46,87.59-6.4q.49-.49,.98-.98c.49,0,.49-.49,.98-.49s1.48,.49,1.97,.98c45.76,43.8,93.99,8.37,103.83,0l.98-.98c.49,0,.49-.49,.98-.49s.49,0,.98,.49l.98,.98c9.84,8.37,58.07,43.8,103.83,0,.98-.98,1.97-.98,2.95,0,.49,0,.49,.49,.49,.49,8.86,8.86,47.24,41.83,88.09,6.4,.49-.49,.49-.98,.98-1.48v-16.73c-1.48-.98-2.46-1.97-3.94-2.46"/></g></svg>