<?xml version="1.0" encoding="UTF-8"?><svg id="Capa_1" xmlns="http://www.w3.org/2000/svg" viewBox="0 0 467 568.37"><defs><style>.cls-1{fill:#00b3dc;}.cls-2{fill:#fff;}</style></defs><path class="cls-1" d="M4.92,80.7H461.59V4.92H4.92V80.7Zm462.08,4.92H0V0H466.51V85.62h.49Z"/><polygon class="cls-1" points="16.73 17.72 38.88 17.72 38.88 24.6 32.48 24.6 32.48 67.91 23.62 67.91 23.62 24.6 16.73 24.6 16.73 17.72"/><path class="cls-1" d="M49.21,52.16h6.89l-3.44-20.18-3.44,20.18Zm-10.33,15.75l9.35-50.19h9.35l9.84,50.19h-8.86l-1.48-9.35h-8.86l-1.48,9.35h-7.87Z"/><path class="cls-1" d="M80.21,24.6v15.75h2.95c2.95,0,3.94-1.48,3.94-3.94v-7.38c0-2.95-1.48-3.94-3.94-3.94h-2.95v-.49Zm0,20.67v23.13h-8.37V17.72h12.3c8.37,0,11.81,4.43,11.81,11.32v6.4c0,5.41-1.97,8.37-6.89,9.84l7.87,22.64h-8.86l-7.87-22.64Z"/><path class="cls-1" d="M113.67,41.34h11.81v26.57h-5.91v-5.41c-.98,3.94-3.44,5.91-7.87,5.91-7.38,0-10.33-5.91-10.33-13.29V31c0-7.87,3.94-13.29,12.79-13.29,9.35,0,11.81,5.41,11.81,12.79v4.43h-7.87v-4.92c0-2.95-.98-4.92-4.43-4.92-2.95,0-4.43,1.97-4.43,4.92v27.07c0,2.95,1.48,4.92,3.94,4.92,2.95,0,3.94-1.48,3.94-4.92v-9.35h-3.94v-6.4h.49Z"/><polygon class="cls-1" points="132.37 17.72 152.55 17.72 152.55 24.6 140.74 24.6 140.74 38.88 149.11 38.88 149.11 45.77 140.74 45.77 140.74 61.02 152.55 61.02 152.55 67.91 132.37 67.91 132.37 17.72"/><polygon class="cls-1" points="156.49 17.72 178.63 17.72 178.63 24.6 171.74 24.6 171.74 67.91 163.38 67.91 163.38 24.6 156.49 24.6 156.49 17.72"/><path class="cls-1" d="M386.79,56.59v-8.86c0-3.44-.98-4.92-3.94-4.92-2.46,0-3.94,1.97-3.94,4.43v9.35c0,2.95,.98,4.92,3.94,4.92,2.46,0,3.94-1.48,3.94-4.92m-16.73-1.48V30.51c0-7.87,3.44-13.29,12.3-13.29,9.35,0,11.81,5.41,11.81,12.79v2.46h-7.87v-3.44c0-2.95-.98-4.92-3.94-4.92s-3.94,1.97-3.94,4.92v10.83c1.48-2.46,3.44-3.94,6.89-3.94,5.91,0,9.35,3.94,9.35,12.3v7.38c0,7.87-3.44,12.79-12.3,12.79s-12.3-5.41-12.3-13.29"/><path class="cls-1" d="M408.93,36.91c3.44,0,5.91,2.95,5.91,5.91,0,3.44-2.95,5.91-5.91,5.91-3.44,0-5.91-2.95-5.91-5.91s2.46-5.91,5.91-5.91"/><path class="cls-1" d="M439.93,56.59v-8.86c0-3.44-.98-4.92-3.94-4.92-2.46,0-3.94,1.97-3.94,4.43v9.35c0,2.95,.98,4.92,3.94,4.92,2.46,0,3.94-1.48,3.94-4.92m-16.73-1.48V30.51c0-7.87,3.44-13.29,12.3-13.29,9.35,0,11.81,5.41,11.81,12.79v2.46h-7.87v-3.44c0-2.95-.98-4.92-3.94-4.92s-3.94,1.97-3.94,4.92v10.83c1.48-2.46,3.44-3.94,6.89-3.94,5.91,0,9.35,3.94,9.35,12.3v7.38c0,7.87-3.44,12.79-12.3,12.79s-12.3-5.41-12.3-13.29"/><g><rect class="cls-1" y="101.86" width="466.51" height="466.51"/><path class="cls-2" d="M421.23,439.88h-.49l-.98,.49-.98,.98-.98,.98-.49,.49c-15.25,9.84-51.67,26.07-88.09-1.48h-.98l-.49-.49h-.49c-6.4-4.92-10.83-11.81-13.29-19.68-2.46-11.81,19.68-20.66,19.68-20.66,53.64-19.68,77.75-26.07,35.92-53.13-19.68-12.3-20.67-14.76-41.83-28.54-17.72-11.32,8.86-8.85,26.57-20.66,5.41-2.95,7.38-9.35,4.43-14.76l60.04,89.54h12.3l-3.44-5.91-102.36-152.52-33.95,49.69-90.05-123.99L34.94,372.96h12.79l107.28-149.57,75.78,28.54,23.62-21.16,37.4,51.66,34.45-49.2,28.54,42.8c1.97,3.94,7.87,18.7-19.68,24.11-46.75,9.84-25.59,24.6-8.86,34.93,41.34,25.59,41.34,31.98,9.84,42.31-7.87,2.46-15.25,5.41-22.64,8.85-17.22,6.89-26.08,19.68-26.08,31.49,0,3.44,.49,6.89,1.48,10.33,.49,2.46,10.83,37.88-31,26.57-8.37-3.44-16.24-7.38-23.13-12.79l-.98-.49h-.49q-.49,0-.98,.49h-.49l-.98,.98c-12.79,8.85-53.15,31.98-89.07-1.48l-.49-.98c-.49-.49-.98-.49-1.48-.49s-.98,0-1.48,.49l-.49,.49c-36.42,33.95-77.26,9.84-89.56,.98l-.98-.49h-.49c-.98,0-1.97,.98-1.97,1.97v20.17c0,.49,0,.98,.49,1.47l.98,.98c40.84,35.92,82.67,4.92,91.53-2.46l.98-.98h1.97l.98,.98c8.86,7.38,50.69,38.37,91.53,1.97,38.38,34.44,77.75,8.86,90.05-.49,2.46,1.48,3.94,2.46,3.94,2.46,11.32,6.4,23.62,11.32,35.92,13.78,15.75,3.94,32.48,1.48,45.77-7.38,4.43-2.46,8.86-4.92,12.79-8.37l1.48-.98c.49-.49,.49-.98,.49-1.48v-21.16c-.49-.98-1.48-1.97-2.46-1.97"/><path class="cls-2" d="M176.66,405.49h6.89q.49,0,.49-.49v-15.26h16.24c.49,0,.98-.49,.98-.98v-.49l-20.18-64.96c0-.49-.49-.49-.98-.49s-.49,0-.98,.49v.49l-20.18,64.46v.49c0,.49,.49,.98,.98,.98h16.24l.49,15.75q-.49-.49,0,0"/><path class="cls-2" d="M124.99,405.49h6.4q.49,0,.49-.49v-15.26h16.24c.49,0,.98-.49,.98-.98v-.49l-19.68-64.96c0-.49-.49-.49-.98-.49s-.49,0-.98,.49l-20.18,64.46v.49c0,.49,.49,.98,.98,.98h16.24l.49,16.24q-.49-.49,0,0"/><path class="cls-2" d="M227.84,405.49h6.89q.49,0,.49-.49v-15.26h16.24c.49,0,.98-.49,.98-.98v-.49l-20.18-64.96c-.49-.49-.98-.49-1.48-.49l-.49,.49v.49l-20.18,63.97v.49c0,.49,.49,.98,.98,.98h16.24l.49,16.24q-.49-.49,0,0"/><path class="cls-2" d="M124.5,496.03c-2.95,0-4.92,1.97-4.92,4.92s1.97,4.92,4.92,4.92,4.92-1.97,4.92-4.92-1.97-4.92-4.92-4.92"/><path class="cls-2" d="M147.14,492.1c0-1.97-1.48-3.94-3.94-3.94-1.97,0-3.94,1.48-3.94,3.94,0,1.97,1.48,3.94,3.94,3.94,1.97,0,3.94-1.48,3.94-3.94"/><path class="cls-2" d="M88.09,512.76c-1.97,0-3.94-1.97-3.94-3.94s1.97-3.94,3.94-3.94,3.94,1.97,3.94,3.94-1.48,3.94-3.94,3.94m17.22-1.97h0c-1.48-1.97-11.32-14.27-24.6-14.27-11.81,0-24.11,10.83-24.11,10.83-2.95-5.41-8.37-9.35-14.27-10.33,0,0-.49,0-.49,.49v.49c5.91,8.37,5.91,19.19,0,27.56,0,0,0,.49,.49,.49,5.91-.98,11.32-4.43,14.27-10.33,0,0,12.3,10.83,24.11,10.83,13.29,0,23.13-12.3,24.6-14.27v-1.48Z"/><path class="cls-2" d="M160.42,517.19c-1.97,0-3.94-1.97-3.94-3.94s1.97-3.94,3.94-3.94,3.94,1.97,3.94,3.94-1.97,3.94-3.94,3.94m46.26,12.3c-5.91-8.37-5.91-19.19,0-27.56v-.49s0-.49-.49-.49c-6.4,.98-11.32,4.92-14.27,10.33,0,0-12.3-10.83-24.11-10.83-13.29,0-23.13,12.3-24.6,14.27v.49c1.48,1.97,11.32,14.27,24.6,14.27,11.81,0,24.11-10.83,24.11-10.83,2.95,5.91,7.87,9.84,14.27,10.83q.49,.49,.49,0"/><path class="cls-2" d="M423.2,496.03v-1.48c0-.98-.98-1.48-1.97-1.48q-.49,0-.98,.49l-.98,.98c-13.29,9.35-54.13,32.97-90.55-1.48l-.49-.49c-.98-.98-1.97-.98-2.95,0l-.49,.49c-37.4,34.94-78.74,9.84-91.53,.98l-.98-.49h-.49c-.98,0-1.97,.98-1.97,1.97v15.75c0,.49,0,.98,.49,1.48l.98,.98c26.57,22.14,65.45,23.62,93.5,2.95l.98-.98h1.97l.49-.49c8.86,7.38,54.62,32.48,94.48-3.94q.49-.49,.49-.98v-14.27Z"/></g></svg>