<?xml version="1.0" encoding="UTF-8"?><svg id="Capa_1" xmlns="http://www.w3.org/2000/svg" viewBox="0 0 467 568.37"><defs><style>.cls-1{fill:#010101;}.cls-2{fill:#fff;}.cls-3{fill:#1c5125;}.cls-4{fill:#24a038;}</style></defs><path class="cls-4" d="M4.92,80.71H461.59V4.92H4.92V80.71Zm462.08,4.92H0V0H466.51V85.63h.5Z"/><polygon class="cls-4" points="16.73 17.72 38.88 17.72 38.88 24.61 32.48 24.61 32.48 67.91 23.62 67.91 23.62 24.61 16.73 24.61 16.73 17.72"/><path class="cls-4" d="M49.21,52.16h6.89l-3.44-20.18-3.45,20.18Zm-10.33,15.75l9.35-50.19h9.35l9.84,50.19h-8.86l-1.48-9.35h-8.86l-1.48,9.35h-7.87Z"/><path class="cls-4" d="M80.21,24.61v15.75h2.95c2.95,0,3.94-1.48,3.94-3.94v-7.38c0-2.95-1.48-3.94-3.94-3.94h-2.95v-.49Zm0,20.67v23.13h-8.37V17.72h12.3c8.37,0,11.81,4.43,11.81,11.32v6.4c0,5.41-1.97,8.37-6.89,9.84l7.87,22.64h-8.86l-7.87-22.64Z"/><path class="cls-4" d="M113.68,41.34h11.81v26.57h-5.91v-5.41c-.98,3.93-3.44,5.91-7.87,5.91-7.38,0-10.33-5.91-10.33-13.29V31.01c0-7.87,3.94-13.29,12.79-13.29,9.35,0,11.81,5.42,11.81,12.8v4.43h-7.87v-4.92c0-2.95-.98-4.92-4.43-4.92-2.95,0-4.43,1.97-4.43,4.92v27.07c0,2.96,1.48,4.92,3.94,4.92,2.95,0,3.94-1.47,3.94-4.92v-9.35h-3.94v-6.4h.49Z"/><polygon class="cls-4" points="132.38 17.72 152.55 17.72 152.55 24.61 140.74 24.61 140.74 38.88 149.11 38.88 149.11 45.77 140.74 45.77 140.74 61.02 152.55 61.02 152.55 67.91 132.38 67.91 132.38 17.72"/><polygon class="cls-4" points="156.49 17.72 178.63 17.72 178.63 24.61 171.74 24.61 171.74 67.91 163.38 67.91 163.38 24.61 156.49 24.61 156.49 17.72"/><path class="cls-4" d="M395.15,29.04v3.94c0,4.43-2.46,6.89-5.9,8.37,4.43,.98,6.4,3.94,6.4,8.36v7.38c0,6.89-3.94,11.32-12.3,11.32s-11.81-4.92-11.81-12.3v-6.4h7.88v7.38c0,2.96,.98,4.92,3.94,4.92,2.46,0,3.94-1.97,3.94-4.43v-8.37c0-2.46-.99-3.93-3.94-3.93h-3.44v-6.4h2.95c2.96,0,4.43-1.48,4.43-3.94v-5.9c0-2.95-.99-4.43-3.45-4.43s-3.44,1.97-3.44,4.92v4.92h-7.87v-4.43c0-7.38,2.95-12.79,11.81-12.79,7.38,0,10.82,4.43,10.82,11.81"/><path class="cls-4" d="M409.92,36.91c3.44,0,5.91,2.95,5.91,5.91,0,3.45-2.95,5.91-5.91,5.91-3.44,0-5.9-2.95-5.9-5.91-.5-2.95,2.46-5.91,5.9-5.91"/><path class="cls-4" d="M447.81,44.78v12.3c0,6.89-3.44,11.32-11.81,11.32s-11.81-4.92-11.81-12.3v-5.91h7.87v6.4c0,2.95,.98,4.92,3.94,4.92,2.46,0,3.44-1.97,3.44-4.43v-12.3c0-2.95-.98-4.43-3.44-4.43s-3.94,1.48-3.94,4.43v.98h-7.87V17.72h22.14v6.89h-14.27v12.3c1.48-2.46,3.94-3.44,6.89-3.44,4.92,.5,8.86,3.44,8.86,11.32"/><g><rect class="cls-4" x="0" y="101.87" width="466.51" height="466.51"/><rect class="cls-3" x="56.17" y="372.85" width="72.34" height="36.42" transform="translate(-261.69 201.02) rotate(-48.49)"/><path class="cls-1" d="M81.69,430.1l-27.56-24.12,48.23-54.13,27.07,24.12-47.73,54.13Zm110.72-149.6l-2.95-2.46-4.92-4.43-29.53,33.47c-3.44,3.44-7.87,5.9-12.79,7.38-7.87,1.47-10.83,1.47-14.76,2.46-6.4,1.47-11.81,6.39-21.16,16.73L31,418.28s-3.44,2.96,.49,8.37l32.97,29.04c5.41,3.44,8.37-.5,8.37-.5,0,0,65.45-73.81,74.8-84.64,9.35-10.82,13.29-16.24,14.27-23.13,.49-3.94,0-6.89,.49-15.25,.49-4.92,2.46-9.35,5.91-13.29l29.53-33.46-5.41-4.92Z"/><path class="cls-1" d="M101.37,289.85h-30.02c.49,8.37,7.38,14.76,15.75,14.27,7.38-.98,13.78-6.89,14.27-14.27"/><path class="cls-1" d="M86.12,273.61c-7.87,0-14.27,5.91-14.76,13.78h30.02c-.49-7.87-7.38-14.27-15.25-13.78"/><path class="cls-1" d="M52.66,313.47l-13.78-26.57c-6.89,4.43-9.35,13.29-4.92,20.67,3.94,6.4,11.81,8.86,18.7,5.91"/><path class="cls-1" d="M60.04,292.31c-3.44-6.89-11.81-9.84-19.19-6.89l13.78,26.58c6.89-3.94,9.35-12.3,5.41-19.68"/><path class="cls-1" d="M84.15,318.39l-26.57,13.78c4.43,7.38,13.29,9.35,20.67,5.41,6.4-3.44,9.35-11.81,5.91-19.19"/><path class="cls-1" d="M63.48,311.01c-6.89,3.44-9.84,11.81-6.89,19.19l26.58-13.78c-3.94-6.4-12.79-8.86-19.68-5.41"/><rect class="cls-1" x="95.51" y="485.67" width="94" height="18.7" transform="translate(-174.21 88.76) rotate(-21.88)"/><rect class="cls-1" x="83.09" y="507.93" width="5.9" height="18.7" transform="translate(-186.3 69.16) rotate(-21.85)"/><rect class="cls-1" x="90.93" y="504.81" width="5.9" height="18.7" transform="translate(-185 72.12) rotate(-21.9)"/><rect class="cls-1" x="117.54" y="446.8" width="93.99" height="18.7" transform="translate(-100.8 50.26) rotate(-13.34)"/><rect class="cls-1" x="102.86" y="461.1" width="5.91" height="18.7" transform="translate(-105.91 37.22) rotate(-13.37)"/><rect class="cls-1" x="110.71" y="459.12" width="5.9" height="18.7" transform="translate(-104.81 38.76) rotate(-13.31)"/><path class="cls-1" d="M165.35,184.05c-2.46-2.46-14.76-14.76-17.72-17.22l11.81-11.81q.49-.49,.98-.49c.49,0,.98,0,.98,.49l15.25,15.25c.49,.49,.49,1.48,0,2.46l-11.32,11.32Zm-19.68-2.95l-4.92-4.92c-.49-.49-.49-.98,0-1.48,.49-.49,.98-.49,1.48,0l4.92,4.92c.49,.49,0,.98-.49,1.48h-.98Zm-8.37,7.87l-4.92-4.92c-.49-.49-.49-.98,0-1.48,.49-.49,.98-.49,1.48,0l4.92,4.92c.49,.49,.49,.98,0,1.48,0,.49-.98,.98-1.48,0q0,.49,0,0m-7.87,8.37l-4.92-4.92c-.49-.49,0-.98,.49-1.48,.49-.49,.98-.49,1.48,0l4.92,4.92c.49,.49,0,.98-.49,1.48h-1.48Zm-7.87,7.87l-4.92-4.92c-.49-.49-.49-.98,0-1.48,.49-.49,.98-.49,1.48,0l4.92,4.92c.49,.49,.49,.98,0,1.48-.49,.49-.98,.49-1.48,0m-7.87,7.87l-4.92-4.92c-.49-.49,0-.98,.49-1.48,.49-.49,.98-.49,1.48,0l4.92,4.92c.49,.49,.49,.98,0,1.48-.98,.49-1.48,.49-1.97,0m64.46-44.29l-4.92-4.92,10.33-10.83,5.91,5.91c.49,.49,1.48,.49,1.97,0l.98-.98c.49-.49,.49-1.48,0-1.97l-17.22-16.73c-.49-.49-1.48-.49-1.97,0l-.98,.98c-.49,.49-.49,1.48,0,1.97l5.91,5.91-10.33,10.83-4.92-4.43c-1.48-1.48-3.44-1.48-4.92,0l-58.07,59.05c-.49,.49-.98,1.48-.98,2.46s.49,1.97,.98,2.46l4.43,3.94-4.43,4.43c-.49,.49-.49,1.48,0,1.97l1.97,.98-11.81,11.81v.98h.98l11.81-11.81,1.97,1.97c.49,.49,1.48,.49,1.97,0l4.43-4.43,4.43,3.94c1.48,1.48,3.44,1.48,4.92,0l58.07-59.05c.98-.98,.98-2.95-.49-4.43"/><path class="cls-1" d="M88.09,244.57c.49-.98,2.95-3.44,1.97,.49,0,.98,.49,1.97-.49,2.46-.99,0-1.48,0-1.97-.98-.49-.49,0-1.48,.49-1.97"/><path class="cls-2" d="M404.51,272.62c0-17.72-11.32-31.99-28.54-31.99-8.37,0-18.7,9.35-24.6,15.25-5.42-5.9-15.26-15.25-23.62-15.25-17.22,0-29.04,14.27-29.04,31.99,0,8.37,3.44,16.73,8.86,22.63l43.8,44.29,43.79-44.29c6.4-5.9,9.84-14.27,9.35-22.63"/><path class="cls-2" d="M237.19,455.19h-8.37v-23.62h8.37v23.62Zm0,43.3h-8.37v-23.13h8.37v23.13Zm0,43.31h-8.37v-23.13h8.37v23.13Z"/><path class="cls-2" d="M237.19,368.58h-8.37v-23.13h8.37v23.13Zm0,43.3h-8.37v-23.13h8.37v23.13Z"/><path class="cls-2" d="M237.19,238.67h-8.37v-23.13h8.37v23.13Zm0,43.3h-8.37v-23.13h8.37v23.13Zm0,43.8h-8.37v-23.13h8.37v23.13Z"/><path class="cls-2" d="M237.19,152.55h-8.37v-23.13h8.37v23.13Zm0,43.3h-8.37v-23.13h8.37v23.13Z"/><path class="cls-2" d="M283.45,370.06c2.46,.98,18.2,12.3,26.08,16.24,9.35,4.43,19.19,6.89,29.53,7.88,4.43,0,19.19-.5,19.68-2.46,.49-1.97-1.48-2.96-3.94-2.96s-15.26,1.97-22.64,1.47c-7.38-.49-12.3-4.92-11.32-8.85,.49-2.95,5.91-1.97,15.75-3.45,9.84-1.47,19.68-3.93,37.89-6.89,13.28-1.97,26.57,2.46,35.43,11.81,8.37,6.89,17.72,13.29,27.07,18.71v45.27s-31-23.62-33.46-25.58c-5.91-4.92-13.29-7.88-21.16-9.35-6.89-.98-17.71,3.44-31.49,4.92-13.78,1.48-16.73,0-29.53-7.38-15.26-9.35-29.53-20.17-42.32-32.48-2.95-2.96-6.39-6.4-4.43-8.86,1.97-2.46,5.91,.99,8.86,1.97"/></g></svg>