<?xml version="1.0" encoding="UTF-8"?><svg id="Capa_1" xmlns="http://www.w3.org/2000/svg" viewBox="0 0 467 568.37"><defs><style>.cls-1{fill:#f49400;}.cls-2{fill:#fff;}</style></defs><path class="cls-1" d="M4.92,80.7H461.59V4.92H4.92V80.7Zm462.08,4.92H0V0H466.51V85.62h.49Z"/><polygon class="cls-1" points="16.73 17.72 38.88 17.72 38.88 24.6 32.48 24.6 32.48 67.91 23.62 67.91 23.62 24.6 16.73 24.6 16.73 17.72"/><path class="cls-1" d="M49.21,52.16h6.89l-3.44-20.18-3.44,20.18Zm-10.33,15.75l9.35-50.19h9.35l9.84,50.19h-8.86l-1.48-9.35h-8.86l-1.48,9.35h-7.87Z"/><path class="cls-1" d="M80.21,24.6v15.75h2.95c2.95,0,3.94-1.48,3.94-3.94v-7.38c0-2.95-1.48-3.94-3.94-3.94h-2.95v-.49Zm0,20.18v23.13h-8.37V17.72h12.3c8.37,0,11.81,4.43,11.81,11.32v6.4c0,5.41-1.97,8.37-6.89,9.84l7.87,22.64h-8.86l-7.87-23.13Z"/><path class="cls-1" d="M113.67,41.34h11.81v26.57h-5.91v-5.41c-.98,3.94-3.44,5.91-7.87,5.91-7.38,0-10.33-5.91-10.33-13.29V31c0-7.87,3.94-13.29,12.79-13.29,9.35,0,11.81,5.41,11.81,12.79v4.43h-7.87v-4.92c0-2.95-.98-4.92-4.43-4.92-2.95,0-4.43,1.97-4.43,4.92v27.07c0,2.95,1.48,4.92,3.94,4.92,2.95,0,3.94-1.48,3.94-4.92v-9.35h-3.94v-6.4h.49Z"/><polygon class="cls-1" points="132.37 17.72 152.55 17.72 152.55 24.6 140.74 24.6 140.74 38.88 149.11 38.88 149.11 45.77 140.74 45.77 140.74 61.02 152.55 61.02 152.55 67.91 132.37 67.91 132.37 17.72"/><polygon class="cls-1" points="156.49 17.72 178.63 17.72 178.63 24.6 171.74 24.6 171.74 67.91 163.38 67.91 163.38 24.6 156.49 24.6 156.49 17.72"/><path class="cls-1" d="M432.06,45.27v15.75h3.94c2.95,0,3.94-1.48,3.94-3.94v-7.38c0-2.46-1.48-3.94-4.43-3.94h-3.44v-.49Zm0-6.4h2.95c2.95,0,3.94-1.48,3.94-3.94v-5.91c0-2.95-1.48-3.94-3.94-3.94h-2.95v13.78Zm-8.37-21.16h12.3c8.37,0,11.32,3.94,11.32,10.83v4.92c0,4.43-1.48,6.89-4.92,7.87,4.43,.98,6.4,3.94,6.4,8.37v6.4c0,6.89-2.95,10.83-11.81,10.83h-13.29V17.72Z"/><polygon class="cls-1" points="372.03 17.72 372.03 67.91 363.66 67.91 363.66 29.53 357.75 35.43 357.75 27.07 365.63 18.21 372.03 18.21 372.03 17.72"/><polygon class="cls-1" points="391.71 17.72 391.71 67.91 383.34 67.91 383.34 29.53 377.44 35.43 377.44 27.07 385.31 18.21 391.71 18.21 391.71 17.72"/><polygon class="cls-1" points="404.01 32.48 404.01 53.15 414.84 42.81 404.01 32.48"/><g><rect class="cls-1" y="101.86" width="466.51" height="466.51"/><polygon class="cls-2" points="183.55 272.13 176.17 272.13 176.17 411.39 276.07 411.39 276.07 403.03 183.55 403.03 183.55 272.13"/><path class="cls-2" d="M279.02,328.72c0,.49-.49,.49-.98,.49h-73.81c-.49,0-.98,0-.98-.49v-11.81s.49-.49,.98-.49h73.81c.49,0,.98,0,.98,.49v11.81Zm0,21.16s-.49,.49-.98,.49h-73.81c-.49,0-.98,0-.98-.49v-11.81s.49-.49,.98-.49h73.81c.49,0,.98,.49,.98,.49v11.81Zm0,20.18c0,.49-.49,.49-.98,.49h-73.81c-.49,0-.98,0-.98-.49v-11.81c0-.49,.49-.49,.98-.49h73.81c.49,0,.98,0,.98,.49v11.81Zm-87.59,24.6h99.4V255.4h-99.4v139.26Z"/><path class="cls-2" d="M291.81,150.09c-6.4-4.92-14.76-7.38-22.64-7.38-1.97,0-3.94,0-5.41,.49h-.49c-10.33,1.97-19.19,7.87-25.1,16.73l-.49,.49v1.97c1.97,2.95,3.44,5.41,4.43,7.38,.49,.49,1.48,.98,1.97,.49h.49c9.35-12.79,16.24-14.27,21.16-15.26h3.44c5.91,0,11.32,1.48,15.75,4.92,5.41,4.92,8.37,12.3,7.87,19.68,0,15.26-7.38,21.16-13.29,23.13-2.46,.98-4.92,1.48-7.38,1.48-3.94,0-7.87-.98-11.32-2.46h-.49c-5.41-2.46-13.29-6.89-20.67-22.14-15.25-30.51-28.05-33.46-36.42-35.43h-.49c-1.97-.49-3.44-.49-5.41-.49-8.37,0-16.24,2.46-22.64,7.38-8.37,7.38-12.79,17.72-12.3,28.54-.98,18.21,12.79,33.95,31,35.43h2.46c2.46,0,5.41-.49,7.87-.98,4.92-.98,9.35-2.95,13.29-5.91l4.43,3.94c.49,.49,1.48,.49,1.97,0,0,0,.49-.49,.49-.98l3.44-21.16q0-.49-.49-.98c-.49,0-.49-.49-.98-.49l-20.67,4.92q-.49,0-.49,.49c-.49,0-.49,.49-.49,.98s0,.49,.49,.98l4.43,3.94c-1.97,1.48-4.43,2.46-6.89,2.46-1.97,.49-3.44,.49-5.41,.49-6.89,0-13.29-2.95-17.72-7.87-3.44-4.43-5.41-10.33-4.92-15.75-.49-7.38,2.46-14.76,7.87-19.68,4.43-3.44,9.84-4.92,15.25-4.92h3.44c6.89,1.48,16.24,3.44,29.03,29.53,4.92,11.81,14.27,21.65,26.08,27.07,4.92,2.46,10.83,3.94,16.24,3.94,3.94,0,7.87-.49,11.32-1.97,6.4-2.46,20.67-10.33,20.67-33.95,.98-11.32-3.44-22.14-12.3-29.03"/><path class="cls-2" d="M376.95,351.36h9.35c.49,0,.49,.49,.49,.49v22.64c0,.49-.49,.49-.49,.49h-9.35c-.49,0-.49-.49-.49-.49v-22.64c-.49,0,0-.49,.49-.49"/><path class="cls-2" d="M343.98,308.54c0-8.86,7.38-16.24,16.24-16.24h.98c.98-12.3,11.81-21.16,24.11-20.18,11.32,.98,20.18,10.33,20.18,21.65,0,3.44-.98,6.89-1.97,9.84,13.78,1.48,23.62,13.78,22.14,27.56-1.48,13.78-13.78,23.62-27.56,21.65h-32.97c-9.84,0-17.72-7.87-17.72-17.72,0-4.43,1.48-8.86,4.92-11.81-5.41-2.95-8.86-8.86-8.37-14.76"/><path class="cls-2" d="M336.1,385.31c2.17,0,3.94,1.76,3.94,3.94s-1.76,3.94-3.94,3.94-3.94-1.76-3.94-3.94,1.76-3.94,3.94-3.94"/><path class="cls-2" d="M353.82,385.31c2.17,0,3.94,1.76,3.94,3.94s-1.76,3.94-3.94,3.94-3.94-1.76-3.94-3.94,1.76-3.94,3.94-3.94"/><path class="cls-2" d="M371.53,385.31c2.17,0,3.94,1.76,3.94,3.94s-1.76,3.94-3.94,3.94-3.94-1.76-3.94-3.94,1.76-3.94,3.94-3.94"/><path class="cls-2" d="M389.25,385.31c2.17,0,3.94,1.76,3.94,3.94s-1.76,3.94-3.94,3.94-3.94-1.76-3.94-3.94,1.76-3.94,3.94-3.94"/><path class="cls-2" d="M406.96,385.31c2.17,0,3.94,1.76,3.94,3.94s-1.76,3.94-3.94,3.94-3.94-1.76-3.94-3.94,1.76-3.94,3.94-3.94"/><path class="cls-2" d="M424.68,385.31c2.17,0,3.94,1.76,3.94,3.94s-1.76,3.94-3.94,3.94-3.94-1.76-3.94-3.94,1.76-3.94,3.94-3.94"/><path class="cls-2" d="M344.96,371.53c2.17,0,3.94,1.76,3.94,3.94s-1.76,3.94-3.94,3.94-3.94-1.76-3.94-3.94,1.76-3.94,3.94-3.94"/><path class="cls-2" d="M362.68,371.53c2.17,0,3.94,1.76,3.94,3.94s-1.76,3.94-3.94,3.94-3.94-1.76-3.94-3.94,1.76-3.94,3.94-3.94"/><path class="cls-2" d="M398.11,371.53c2.17,0,3.94,1.76,3.94,3.94s-1.76,3.94-3.94,3.94-3.94-1.76-3.94-3.94,1.76-3.94,3.94-3.94"/><path class="cls-2" d="M415.82,371.53c2.17,0,3.94,1.76,3.94,3.94s-1.76,3.94-3.94,3.94-3.94-1.76-3.94-3.94,1.76-3.94,3.94-3.94"/><rect class="cls-2" x="299.26" y="191.86" width="149.6" height="6.4" transform="translate(-27.72 323.67) rotate(-45.29)"/><rect class="cls-2" x="370.45" y="396.89" width="6.4" height="149.6" transform="translate(-223.73 399.32) rotate(-44.71)"/><rect class="cls-2" x="89.49" y="120.23" width="6.4" height="149.6" transform="translate(-110.39 121.63) rotate(-44.71)"/><rect class="cls-2" x="18.24" y="468.36" width="149.6" height="6.4" transform="translate(-307.55 205.94) rotate(-45.29)"/><path class="cls-2" d="M86.12,304.12c6.4,0,11.81-4.92,11.81-11.32s-4.92-11.81-11.32-11.81-11.81,4.92-11.81,11.32c0,6.89,4.92,11.81,11.32,11.81"/><path class="cls-2" d="M134.34,375.47l-4.92-9.35-11.32-23.13c-.98-1.97-3.44-3.44-5.41-2.95h-16.24l-.49-20.67c0-6.4-1.48-9.84-6.4-11.32-2.46-.49-4.92-.49-6.89,0h-.49l-19.19,6.4h-.98c-.98,.49-1.97,1.48-1.97,2.46l-5.41,15.75c-.98,2.46,.49,5.41,2.95,6.4,2.46,.98,5.41-.49,6.4-2.95l4.92-13.29,7.38-2.46h.49v21.65c0,4.92,1.48,9.84,6.4,11.32l1.48,.49h27.07l6.4,12.3v.49l2.46,4.43,2.46,4.43v.49l2.46,4.43c1.48,2.95,5.41,3.94,8.37,2.46,2.95-1.48,3.94-5.41,2.46-8.37l-1.97,.98Z"/><path class="cls-2" d="M107.28,360.71h-8.86v1.97c0,12.3-9.84,22.64-22.64,22.64s-22.64-9.84-22.64-22.64c0-4.92,1.48-10.33,4.92-14.27l.49-.49-6.89-5.41-.49,.49c-10.83,13.78-8.37,33.46,5.41,44.29,13.78,10.83,33.46,8.37,44.29-5.41,4.43-5.41,6.4-12.3,6.89-19.19l-.49-1.97Z"/><path class="cls-2" d="M233.75,453.71l-25.59,21.65h-27.07v28.05h27.07l25.59,22.14c1.97,1.97,4.43,.98,4.43-.98v-69.88c0-1.97-1.97-3.44-4.43-.98"/><path class="cls-2" d="M257.86,475.37c4.43,9.35,3.94,20.18-.98,29.53l6.4,4.43c3.44-5.91,5.41-13.29,5.41-20.18,0-6.4-1.48-12.3-4.43-18.21l-6.4,4.43Z"/><path class="cls-2" d="M276.07,463.06c4.43,7.87,6.89,16.73,6.89,26.08,0,9.84-2.46,19.68-7.38,28.05l6.4,3.94c11.32-19.19,11.81-43.3,.49-62.5l-6.4,4.43Z"/></g></svg>