<?xml version="1.0" encoding="UTF-8"?><svg id="Capa_1" xmlns="http://www.w3.org/2000/svg" viewBox="0 0 467 568.37"><defs><style>.cls-1{fill:#fff;}.cls-2{fill:#24a038;}</style></defs><path class="cls-2" d="M4.92,80.7H461.59V4.92H4.92V80.7Zm462.08,4.92H0V0H466.51V85.62h.49Z"/><polygon class="cls-2" points="16.73 17.72 38.88 17.72 38.88 24.6 32.48 24.6 32.48 67.91 23.62 67.91 23.62 24.6 16.73 24.6 16.73 17.72"/><path class="cls-2" d="M49.21,52.16h6.89l-3.44-20.18-3.44,20.18Zm-10.33,15.75l9.35-50.19h9.35l9.84,50.19h-8.86l-1.48-9.35h-8.86l-1.48,9.35h-7.87Z"/><path class="cls-2" d="M80.21,24.6v15.75h2.95c2.95,0,3.94-1.48,3.94-3.94v-7.38c0-2.95-1.48-3.94-3.94-3.94h-2.95v-.49Zm0,20.18v23.13h-8.37V17.72h12.3c8.37,0,11.81,4.43,11.81,11.32v6.4c0,5.41-1.97,8.37-6.89,9.84l7.87,22.64h-8.86l-7.87-23.13Z"/><path class="cls-2" d="M113.67,41.34h11.81v26.57h-5.91v-5.41c-.98,3.94-3.44,5.91-7.87,5.91-7.38,0-10.33-5.91-10.33-13.29V31c0-7.87,3.94-13.29,12.79-13.29,9.35,0,11.81,5.41,11.81,12.79v4.43h-7.87v-4.92c0-2.95-.98-4.92-4.43-4.92-2.95,0-4.43,1.97-4.43,4.92v27.07c0,2.95,1.48,4.92,3.94,4.92,2.95,0,3.94-1.48,3.94-4.92v-9.35h-3.94v-6.4h.49Z"/><polygon class="cls-2" points="132.37 17.72 152.55 17.72 152.55 24.6 140.74 24.6 140.74 38.88 149.11 38.88 149.11 45.77 140.74 45.77 140.74 61.02 152.55 61.02 152.55 67.91 132.37 67.91 132.37 17.72"/><polygon class="cls-2" points="156.49 17.72 178.63 17.72 178.63 24.6 171.74 24.6 171.74 67.91 163.38 67.91 163.38 24.6 156.49 24.6 156.49 17.72"/><path class="cls-2" d="M405.49,28.54v4.43c0,4.43-2.46,6.89-5.91,8.37,4.43,.98,6.4,3.94,6.4,8.37v7.38c0,6.89-3.94,11.32-12.3,11.32s-11.81-4.92-11.81-12.3v-6.4h7.87v7.38c0,2.95,.98,4.92,3.94,4.92,2.46,0,3.94-1.97,3.94-4.43v-8.37c0-2.46-.98-3.94-3.94-3.94h-3.44v-6.4h2.95c2.95,0,4.43-1.48,4.43-3.94v-5.91c0-2.95-.98-4.43-3.44-4.43s-3.44,1.97-3.44,4.92v4.92h-8.37v-4.43c0-7.38,2.95-12.79,11.81-12.79,7.87,0,11.32,4.43,11.32,11.32"/><path class="cls-2" d="M419.76,36.91c3.44,0,5.91,2.95,5.91,5.91,0,3.44-2.95,5.91-5.91,5.91-3.44,0-5.91-2.95-5.91-5.91-.49-2.95,2.46-5.91,5.91-5.91"/><polygon class="cls-2" points="446.82 17.72 446.82 67.91 438.46 67.91 438.46 29.53 432.55 35.43 432.55 27.07 440.43 18.21 446.82 18.21 446.82 17.72"/><g><rect class="cls-2" y="101.86" width="466.51" height="466.51"/><path class="cls-1" d="M233.25,206.19c18.21,0,32.97-14.76,32.97-32.97s-14.76-32.97-32.97-32.97-32.97,14.76-32.97,32.97,14.76,32.97,32.97,32.97"/><path class="cls-1" d="M277.05,349.88c0,24.11-19.68,43.3-43.3,43.3s-43.3-19.68-43.3-43.3,19.68-43.3,43.3-43.3,43.3,19.19,43.3,43.3m-51.67-87.1c4.92,0,6.4,5.41,8.37,6.89,1.97-1.97,4.43-6.89,8.86-6.89,5.41,0,8.86,4.92,8.86,10.33,0,2.95-.98,5.41-2.95,7.38l-14.27,14.27-14.27-14.27c-1.97-1.97-2.95-4.43-2.95-7.38-.49-4.92,2.95-9.84,7.87-10.33h.49Zm101.86,74.31l-27.56-89.07s-9.84-25.59-31.49-25.59h-69.39c-21.65,0-31.49,25.59-31.49,25.59l-27.56,89.07s-4.92,16.24,8.86,20.67c13.78,4.43,18.21-11.81,18.21-11.81l22.14-74.31s.98-5.91,5.41-4.43c4.43,1.48,2.46,7.38,2.46,7.38l-38.38,139.26h35.92v99.9c0,9.35,7.87,17.22,17.22,17.22s17.22-7.87,17.22-17.22v-100.39h9.84v99.9c0,9.35,7.87,17.22,17.22,17.22s17.22-7.87,17.22-17.22v-99.9h35.43l-38.38-139.26s-1.48-5.91,2.46-7.38c3.94-1.48,5.41,4.43,5.41,4.43l22.14,74.31s3.94,15.75,18.21,12.3c14.27-3.44,8.86-20.67,8.86-20.67"/><path class="cls-1" d="M245.56,330.69c-5.91,0-9.84,7.38-12.3,9.84-2.46-2.46-4.92-9.84-11.81-9.84-7.87,0-12.3,6.4-12.3,14.76,0,3.94,1.48,7.38,3.94,10.33l20.18,20.18,20.18-20.18c2.46-2.95,3.94-6.4,3.94-10.33,.49-8.37-3.94-14.76-11.81-14.76"/></g></svg>