<?xml version="1.0" encoding="UTF-8"?><svg id="Capa_1" xmlns="http://www.w3.org/2000/svg" viewBox="0 0 467 568.37"><defs><style>.cls-1{fill:#00486e;}.cls-2{fill:#fff;}</style></defs><path class="cls-1" d="M4.92,80.7H461.59V4.92H4.92V80.7Zm462.08,4.92H0V0H466.51V85.62h.49Z"/><polygon class="cls-1" points="16.73 17.72 38.88 17.72 38.88 24.6 32.48 24.6 32.48 67.91 23.62 67.91 23.62 24.6 16.73 24.6 16.73 17.72"/><path class="cls-1" d="M49.21,52.16h6.89l-3.44-20.18-3.44,20.18Zm-10.33,15.75l9.35-50.19h9.35l9.84,50.19h-8.86l-1.48-9.35h-8.86l-1.48,9.35h-7.87Z"/><path class="cls-1" d="M80.21,24.6v15.75h2.95c2.95,0,3.94-1.48,3.94-3.94v-7.38c0-2.95-1.48-3.94-3.94-3.94h-2.95v-.49Zm0,20.18v23.13h-8.37V17.72h12.3c8.37,0,11.81,4.43,11.81,11.32v6.4c0,5.41-1.97,8.37-6.89,9.84l7.87,22.64h-8.86l-7.87-23.13Z"/><path class="cls-1" d="M113.67,41.34h11.81v26.57h-5.91v-5.41c-.98,3.94-3.44,5.91-7.87,5.91-7.38,0-10.33-5.91-10.33-13.29V31c0-7.87,3.94-13.29,12.79-13.29,9.35,0,11.81,5.41,11.81,12.79v4.43h-7.87v-4.92c0-2.95-.98-4.92-4.43-4.92-2.95,0-4.43,1.97-4.43,4.92v27.07c0,2.95,1.48,4.92,3.94,4.92,2.95,0,3.94-1.48,3.94-4.92v-9.35h-3.94v-6.4h.49Z"/><polygon class="cls-1" points="132.37 17.72 152.55 17.72 152.55 24.6 140.74 24.6 140.74 38.88 149.11 38.88 149.11 45.77 140.74 45.77 140.74 61.02 152.55 61.02 152.55 67.91 132.37 67.91 132.37 17.72"/><polygon class="cls-1" points="156.49 17.72 178.63 17.72 178.63 24.6 171.74 24.6 171.74 67.91 163.38 67.91 163.38 24.6 156.49 24.6 156.49 17.72"/><polygon class="cls-1" points="370.06 17.72 370.06 67.91 361.69 67.91 361.69 29.53 355.79 35.43 355.79 27.07 363.66 18.21 370.06 18.21 370.06 17.72"/><polygon class="cls-1" points="376.45 17.72 397.12 17.72 397.12 25.59 386.3 67.91 377.93 67.91 389.25 24.6 376.45 24.6 376.45 17.72"/><path class="cls-1" d="M410.9,36.91c3.44,0,5.91,2.95,5.91,5.91,0,3.44-2.95,5.91-5.91,5.91-3.44,0-5.91-2.95-5.91-5.91s2.46-5.91,5.91-5.91"/><path class="cls-1" d="M447.81,28.54v4.43c0,4.43-2.46,6.89-5.91,8.37,4.43,.98,6.4,3.94,6.4,8.37v7.38c0,6.89-3.94,11.32-12.3,11.32s-11.81-4.92-11.81-12.3v-6.4h7.87v7.38c0,2.95,.98,4.92,3.94,4.92,2.46,0,3.94-1.97,3.94-4.43v-8.37c0-2.46-.98-3.94-3.94-3.94h-3.44v-6.4h2.95c2.95,0,4.43-1.48,4.43-3.94v-5.91c0-2.95-.98-4.43-3.44-4.43s-3.44,1.97-3.44,4.92v4.92h-7.87v-4.43c0-7.38,2.95-12.79,11.81-12.79,7.38,0,10.83,4.43,10.83,11.32"/><g><rect class="cls-1" x="0" y="101.37" width="466.51" height="467"/><path class="cls-2" d="M232.27,286.89c-29.03,0-52.16-23.62-52.16-52.65s23.62-52.16,52.65-52.16,52.16,23.62,52.16,52.65-23.62,52.16-52.65,52.16m84.15-62.5c0-2.46-1.97-3.94-4.43-3.94h-6.4c-2.46,0-4.43-.49-4.92-2.95-.98-3.94-2.46-7.87-3.94-11.81-.98-1.97-.49-4.43,1.48-5.91,1.97-1.48,3.44-2.95,4.92-4.43,1.48-1.48,1.97-3.44,.98-5.41-2.46-4.92-5.91-8.86-9.84-12.79-1.48-1.97-3.94-1.97-5.91-.49-1.97,1.48-3.44,1.97-4.92,3.44-1.48,1.48-3.94,1.97-5.91,.49-3.44-2.46-7.87-5.91-10.33-7.38-1.97-.98-2.95-3.44-2.46-5.91,.49-2.46,.98-4.43,1.48-6.4,.49-1.97-.49-3.94-2.46-4.92-4.92-1.97-9.84-3.94-14.76-4.43-1.97-.49-4.43,.98-4.92,2.95-.98,1.97-1.48,3.94-1.97,5.91-.49,1.97-1.97,3.94-4.43,3.94h-12.3c-2.46,.49-4.92-.98-5.41-3.44-.98-2.46-1.48-3.94-2.46-6.4-.49-1.97-2.95-2.95-4.92-2.46-5.41,.98-10.33,2.95-15.25,4.92-1.97,.98-2.95,3.44-1.97,5.41,.49,2.46,.98,3.94,1.48,5.91,.49,1.97,.98,4.43-1.48,5.91-2.46,1.48-7.38,4.92-10.33,7.38-1.48,1.48-4.43,1.97-6.4,.49-1.97-1.48-3.94-2.46-5.91-3.44-1.97-.98-3.94-.98-5.41,.49-3.44,3.94-6.89,8.37-9.35,13.29-.98,1.97-.49,4.43,1.48,5.41,1.97,1.48,2.95,2.46,4.92,3.94,1.97,1.48,3.44,2.95,2.46,5.41-.98,2.46-2.95,9.35-3.94,11.81-.49,2.46-2.46,3.94-4.92,3.94s-4.43,.49-6.89,.49c-1.97,0-3.94,1.48-3.94,3.94-.49,5.41-.49,10.83,.49,15.75,0,2.46,1.97,3.94,4.43,3.94h6.4c2.46,0,4.43,.49,4.92,2.95,.98,3.94,2.46,7.87,3.94,11.81,.98,1.97,.49,4.92-1.48,5.91-1.97,1.48-3.44,2.95-5.41,4.43-1.48,1.48-1.97,3.44-.98,5.41,2.46,4.43,5.91,8.86,9.84,12.79,1.48,1.97,3.94,1.97,5.91,.49,1.97-1.48,3.44-1.97,4.92-3.44,1.48-1.48,3.94-1.97,5.91-.49,1.97,1.48,7.87,5.91,10.33,7.38,1.97,.98,2.95,3.44,2.46,5.91-.49,2.46-.98,4.43-1.48,6.4-.49,1.97,.49,3.94,2.46,4.92,4.92,2.46,9.84,3.94,15.25,4.92,1.97,.49,4.43-.98,4.92-2.95,.98-1.97,1.48-3.94,1.97-5.91,.49-1.97,1.97-3.94,4.43-3.94h12.79c2.46,0,4.43,.98,5.41,3.44,.98,2.46,1.48,3.94,2.46,6.4,.49,1.97,2.95,2.95,4.92,2.46,5.41-.98,10.33-2.46,15.26-4.92,1.97-.98,3.44-2.95,2.46-5.41v-.49c-.49-2.46-.98-3.94-1.48-5.91-.49-1.97-.98-4.43,1.48-5.91,2.46-1.48,7.87-5.91,9.84-7.38,1.48-1.48,4.43-1.97,6.4-.49,1.97,1.48,3.94,2.46,5.91,3.44,1.97,1.48,4.43,.98,5.91-.49,3.44-3.94,6.89-8.37,9.35-13.29,.98-1.97,.49-4.43-.98-5.41-1.97-1.48-2.95-2.46-4.92-3.94-1.97-1.48-3.44-2.95-2.46-5.41,.98-2.46,2.95-8.86,3.94-11.81,.49-2.46,2.46-3.94,4.92-3.94s4.43-.49,6.89-.49c1.97,0,3.94-1.48,3.94-3.94-.98-4.92-.98-10.33-1.97-15.75"/><path class="cls-2" d="M193.89,219.48c.98,.98,1.97,0,2.46-.49,.49-.49,.49-1.48,0-1.97s.49-.98,1.48-1.48c.98-.49,2.46-1.48,3.44-1.97,2.46-.49,4.92-.49,6.89,0,1.48,.98,3.44,.49,4.43-.98,.98-.98,1.97-1.97,3.44-2.95,.49-.49-1.48-2.46-3.44,0-1.97,2.46-2.95,2.46-3.94,2.46s-6.4-1.48-6.89-2.95c-.49-1.48,1.48-2.95,3.44-3.94,2.95-.49,5.91-.98,8.86-.98,2.95-.49,6.4-1.97,8.37-.98,1.97,.98-7.38,3.44-4.43,4.92,.98,.49,5.91-2.95,7.87-3.44,3.94-1.97-3.94-2.95-2.95-6.89,.98-3.94-8.86-2.95-14.76-2.46-2.46,1.48-4.92,3.44-7.38,5.41,.49,0,1.48,.49,1.48,.98,0,.98,0,1.97-.49,2.95-1.48,1.48-2.95,1.97-4.92,2.46q-.49,0-.98-.49c-.98,.98-1.48,1.97-2.46,3.44,.98-.49,1.97-.98,3.44-.98,.98,0,2.46,.49,2.95,.98s-2.95,1.97-3.44,2.46c-1.48,1.48-3.94,4.43-5.41,4.92h-.98c-.49,.98-.98,1.97-.98,2.95,1.48-1.48,2.95-1.48,4.92-.98"/><path class="cls-2" d="M270.65,245.56c-1.48,.98-2.95,.49-4.43-.49-.98-.98,.98-2.46,1.48-2.46,1.48,0,3.94,1.97,2.95,2.95m-6.4-5.91c-.49-.98,.49-1.97,1.48-1.48,.98,.49,1.97,1.48,1.97,2.46s-1.97,.49-2.46,.49-.49-.49-.98-1.48m-19.19,1.48c-1.48,.49-2.95,.49-4.43-.49-.98-.98,.98-2.46,1.48-2.46,1.48,0,3.94,1.97,2.95,2.95m-18.7,8.86c-.49,.98-2.46,8.86-3.44,7.87-.98-.98,.49-8.86,.98-9.84,1.48-2.95,5.41-2.46,2.46,1.97m43.3-17.72c-1.48,.98-2.95,1.48-4.92,1.97-1.48,.49-2.46,3.94-2.46,5.41s4.43,6.4,1.48,6.4c-2.95-1.48-5.41-3.44-6.89-6.4-.98-2.46-1.97-4.92-2.95-6.89-.49-1.48-1.97-1.97-3.44-1.48-.49,0-.49,.49-.98,.49-1.48,.98,.49,2.46-.98,4.43-1.48,1.97-1.97,4.43-3.94,2.46-4.43-4.92-10.83-2.46-12.3-8.37-.49-2.95-3.44-2.95-5.41-4.43-1.97-1.48-3.44-2.46-3.94-1.48-.49,.98,6.89,6.89,7.38,8.37,.49,1.48-2.46,3.94-4.43,4.92-1.97,.98-2.95-.98-5.41-3.44-2.46-2.46-2.95-3.94-3.44-1.97,0,2.95,1.48,5.91,4.43,7.87,1.97,.98,3.94,1.48,3.44,3.44-.49,1.97,0,.98-1.97,2.95-1.97,1.48-2.95,3.44-2.46,5.41,0,2.95-.49,2.95-.98,5.41-.49,2.46-1.48,.49-2.46,3.94-.49,1.97-1.48,4.43-2.95,5.91-1.97,1.48-3.94,2.46-6.4,2.46-1.97,0-2.46-5.91-2.46-8.86,0-.98-1.48,1.97-1.97-3.94-.49-3.94-2.95,.49-2.95-1.97s-1.48-1.97-2.46-3.44c-.98-1.48-2.95,0-4.92,.98-1.97,.98-.98,.98-3.44,.49,5.41,12.79,16.24,22.64,29.53,26.57-.49-.49-.98-1.48-.49-2.46,1.97-3.44,5.41-5.41,8.86-5.41,7.38-.49,17.22,4.92,18.7,3.94,1.48-.98,4.92-4.92,9.35-4.92,1.48,0,2.95,.49,3.94,.98,1.48-.98,2.95-2.46,4.43-3.94-.49,0-.98-.49-1.48-.49-2.46-1.48-2.46,.98-3.44,.49-.98-.49,1.48-3.44-2.46-.98-3.94,2.46-2.46-.49-4.43-4.43-.98-3.94,.98-8.37,4.92-9.84,2.95-.98,5.41-1.48,8.37-1.97,5.41-1.48,6.89-4.43,7.87-2.46,0,.49,.49,.49,.49,.98,.49,.98,.49,1.97,.49,2.95,.98-2.46,1.48-4.43,1.97-6.89-1.48-.49-6.4-7.38-2.46-12.3,.49-.98-1.48-2.95-.98-2.95,1.97,0,3.44,.98,3.94,2.95,0-2.46-.49-4.92-.98-7.38v1.48c-.49,1.48-2.46,2.46-3.94,1.48-.49-.49-.98-.49-1.48-1.48-.49-.49-2.46-2.46-2.46,.49s4.92,2.95,1.97,4.92"/><path class="cls-2" d="M192.41,224.4c2.46,.49,4.92,.98,7.38,1.97,2.46,.98,6.89,3.44,9.35,2.46,2.46-.98,2.95-1.48,2.95-3.44s-1.48-2.46-3.44-.98c-.49,.49-1.97-2.95-2.95-2.46-.98,.49,1.48,3.94,.49,3.94s-2.95-3.94-2.95-4.43-1.97-2.46-2.95-.98c-2.46,2.46-7.38,2.46-7.87,2.95-.49,0-.49,.49-.98,.49-1.97,.98-2.46-.98-2.46-2.46-.98,2.46-1.48,5.41-1.48,7.87v-.49c1.48-2.95,1.97-2.95,2.46-3.44s.98-.49,1.97-.98h.49Z"/><path class="cls-2" d="M221.44,501.94c-2.46,1.48-4.92,2.46-7.38,3.44-7.87,2.46-15.75,3.44-23.62,2.95-3.94,0-7.87-.49-11.81-.98-2.46-.49-4.92-.98-7.38-1.48-.98-.49-2.46-.49-3.44-.98-3.44-.98-6.4-2.46-9.35-4.43-.98-.98-1.97-1.48-2.46-2.95v7.38c0,1.97,.98,3.94,2.46,4.92,5.41,3.94,11.81,6.4,18.21,6.89,4.43,.49,8.86,.98,13.29,.98,6.4,0,12.79-.49,19.19-1.97,3.44-.98,6.89-1.97,9.84-3.94,3.44-1.97,4.92-4.43,4.92-6.89,0,0,.49-6.89,0-7.87,.49,2.46-.98,3.94-2.46,4.92"/><path class="cls-2" d="M156.49,457.65c.49-1.48,1.48-2.95,2.46-3.94,.98,.98,2.46,1.97,3.44,2.46,8.86,3.94,18.7,5.91,28.54,5.91,8.37,0,16.73-.98,24.6-3.94,.98-.49,1.97-.98,2.95-1.48v.98c0,4.92-12.79,10.33-31.49,10.33s-30.51-5.41-30.51-10.33m34.94-27.07c18.7,0,31.49,5.41,31.49,10.33s-13.29,10.33-31.49,10.33-31.49-5.41-31.49-10.33,12.79-10.33,31.49-10.33m-3.94,47.73c19.19,0,34.45-5.91,34.45-12.79,0,0,.49-6.4,.49-7.87,0-.98,0-1.97-.49-2.95,1.97-.98,3.44-3.44,3.94-5.91,0,0,.49-7.38,0-8.86-.98-8.37-18.7-13.29-34.94-13.29s-34.94,4.92-34.94,14.27c0,.49,.49,7.87,.49,7.87,0,.49,0,.98,.49,1.48-2.46,1.48-3.94,3.94-4.43,6.89,0,.49,.49,7.87,.49,7.87,0,1.97,.98,3.94,2.95,4.92,5.41,3.94,11.81,6.4,18.21,6.89,4.43,.98,8.86,1.48,13.29,1.48"/><path class="cls-2" d="M177.15,504.89c4.43,.49,8.86,.98,13.29,.98,6.4,0,12.79-.49,19.19-1.97,3.44-.98,6.89-1.97,9.84-3.94,.98-.49,1.48-.98,1.97-1.48,.98-.98,1.97-1.97,2.46-3.44,0-.49,.49-.98,.49-1.97v-7.87c-.98,1.48-3.94,5.91-17.72,8.86-5.91,.98-11.81,1.48-17.72,1.48-9.35,0-19.19-1.48-27.56-5.41-1.48-.98-2.95-1.97-4.43-2.95-.98-.98-1.48-1.48-1.97-2.46v8.37c0,1.97,.98,3.94,2.46,4.92,6.4,3.94,12.79,6.4,19.68,6.89"/><path class="cls-2" d="M224.89,469.95q-.49-.49-.98-.98c-.49-.49-.98-.49-1.48-.98-.49,.98-.98,1.48-1.48,1.97,.49,0,.98,.49,1.48,.98,.98,.49,1.48,1.48,1.48,2.46s-.49,1.97-.98,2.46-.98,.49-1.48,.98-1.48,.98-1.97,.98c0,0-1.97,.98-2.95,1.48,0,0-1.97,.98-2.95,.98l-3.94,.98s-3.44,.49-5.41,.98l-5.41,.49c-.49,0-5.91,.49-7.87,.49-3.94,0-7.38-.49-10.83-.98-2.46-.49-5.41-.98-7.87-1.48-2.95-.49-5.41-1.48-8.37-2.46-1.48-.49-2.95-1.48-4.43-2.95-.98-.98-1.97-2.46-2.46-3.44v8.86c0,1.97,.98,3.94,2.95,4.92,5.41,3.94,11.81,6.4,18.21,6.89,4.43,.49,8.86,.98,13.29,.98,6.4,0,12.79-.49,19.19-1.97,3.44-.98,6.89-1.97,9.84-3.94,.98-.49,1.48-.98,1.97-1.48,.98-.98,1.97-1.97,2.46-3.44,0-.49,.49-.98,.49-1.97l.49-7.38c0-.49,0-.98-.49-1.97,0-.49-.49-.98-.49-1.48"/><path class="cls-2" d="M71.85,482.25c.49-1.48,1.48-2.95,2.46-3.94,.98,.98,2.46,1.97,3.44,2.46,8.86,3.94,18.7,5.91,28.54,5.41,8.37,0,16.73-.98,24.6-3.94,.98-.49,1.97-.98,2.95-1.48v.98c0,4.92-12.79,10.33-31.49,10.33s-30.51-4.92-30.51-9.84m34.94-27.07c18.7,0,31.49,5.41,31.49,10.33s-12.79,10.33-31.49,10.33-31.49-4.92-31.49-9.84,12.79-10.83,31.49-10.83m-3.94,48.23c19.19,0,34.45-5.91,34.45-12.79,0,0,.49-6.4,.49-7.87,0-.98,0-1.97-.49-2.95,1.97-.98,3.44-3.44,3.94-5.91,0,0,.49-7.38,0-8.86-.49-8.86-18.21-13.29-34.45-13.29s-34.94,4.92-34.94,14.27c0,.49,.49,7.87,.49,7.87,0,.49,0,.98,.49,1.48-2.46,1.48-3.94,3.94-4.43,6.89,0,.49,.49,7.87,.49,7.87,0,1.97,.98,3.94,2.46,4.92,5.41,3.94,11.81,6.4,18.21,6.89,4.43,.98,8.86,1.48,13.29,1.48"/><path class="cls-2" d="M140.25,495.05q-.49-.49-.98-.98c-.49-.49-.98-.49-1.48-.98-.49,.98-.98,1.48-1.48,2.46,.49,0,.98,.49,1.48,.98,.98,.49,1.48,1.48,1.48,2.46s-.49,1.97-.98,2.46-.98,.49-1.48,.98l-1.97,.98-2.95,1.48s-1.97,.98-2.95,.98-2.95,.98-3.94,.98c-.49,0-3.94,.49-5.41,.98-.49,0-3.94,.49-5.41,.49-.49,0-5.91,.49-7.87,.49-3.94,0-7.38-.49-10.83-.98-2.46-.49-5.41-.98-7.87-1.48-2.95-.49-5.41-1.48-8.37-2.46-1.48-.49-2.95-1.48-4.43-2.95-.98-.98-1.97-2.46-2.46-3.44v8.37c0,1.97,.98,3.94,2.95,4.92,5.41,3.94,11.81,6.4,18.21,6.89,4.43,.49,8.86,.98,13.29,.98,6.4,0,13.29-.49,19.19-1.97,3.44-.98,6.89-1.97,9.84-3.94,.98-.49,1.48-.98,1.97-1.48,.98-.98,1.97-1.97,2.46-3.44,.49-.49,.98-1.48,.98-1.97l.49-7.38v-1.97c-.49-.98-.98-1.48-1.48-1.48"/><path class="cls-2" d="M104.32,345.94l25.1,31.99c.49,.49,.49,.98,.49,1.48,0,.98-.49,.98-1.48,.98h-12.79v40.84c0,.49-.49,.98-.98,.98h-22.64c-.49,0-1.48-.49-1.48-.98v-40.84h-12.79c-.98,0-1.48,0-1.48-.98,0-.49,0-.98,.49-1.48l24.11-31.99c.49-.49,.98-.98,1.97-.98,.49,0,.98,.49,1.48,.98"/><path class="cls-2" d="M189.46,345.45l25.59,31.99c.49,.49,.49,.98,.49,1.48,0,.98-.49,.98-1.48,.98h-12.79v17.22c0,.49-.49,.98-1.48,.98h-22.14c-.49,0-1.48-.49-1.48-.98v-16.73h-12.79c-.98,0-1.48,0-1.48-.98,0-.49,0-.98,.49-1.48l24.6-31.99c.49-.98,1.48-.98,2.46-.49"/><path class="cls-2" d="M395.65,501.94c-2.46,1.48-4.92,2.46-7.87,3.44-7.87,2.46-15.75,3.44-23.62,2.95-3.94,0-7.87-.49-11.81-.98-2.46-.49-4.43-.98-6.89-1.48l-3.44-.98c-3.44-.98-6.4-2.46-9.35-4.43-.98-.98-1.97-1.48-2.46-2.95v7.38c0,1.97,.98,3.94,2.95,4.92,5.41,3.94,11.81,6.4,18.7,6.89,4.43,.49,8.86,.98,13.29,.98,6.4,0,12.79-.49,19.19-1.97,3.44-.98,6.89-1.97,9.84-3.94,3.44-1.97,4.92-4.43,4.92-6.89,0,0,.49-6.89,0-7.87-.98,2.46-1.97,3.94-3.44,4.92"/><path class="cls-2" d="M330.2,457.65c.49-1.48,1.48-2.95,2.95-3.94,.98,.98,1.97,1.97,3.44,2.46,8.86,3.94,18.7,5.91,28.54,5.91,8.37,0,16.73-.98,24.6-3.94,.98-.49,1.97-.98,2.95-1.48v.98c0,4.92-12.79,10.33-31.49,10.33s-31-5.41-31-10.33m34.94-27.07c18.7,0,31.49,5.41,31.49,10.33s-12.79,10.33-31.49,10.33-31.49-5.41-31.49-10.33,13.29-10.33,31.49-10.33m-3.44,47.73c19.19,0,34.45-5.91,34.45-12.79,0,0,.49-6.4,.49-7.87,0-.98-.49-1.97-.49-2.95,1.97-.98,3.44-3.44,3.94-5.91,0,0,.49-7.38,0-8.86-1.48-8.37-18.7-13.29-35.43-13.29s-34.94,4.92-34.94,14.27c0,.49,.49,7.87,.49,7.87,0,.49,0,.98,.49,1.48-2.46,1.48-3.94,3.94-4.43,6.89,0,.49,.49,7.87,.49,7.87,0,1.97,.98,3.94,2.95,4.92,5.41,3.94,11.81,6.4,18.7,6.89,3.94,.98,8.37,1.48,13.29,1.48"/><path class="cls-2" d="M351.36,504.89c4.43,.49,8.86,.98,13.29,.98,6.4,0,12.79-.49,19.19-1.97,3.44-.98,6.89-1.97,9.84-3.94,.98-.49,1.48-.98,1.97-1.48,.98-.98,1.97-1.97,2.46-3.44,0-.49,.49-.98,.49-1.97v-7.87c-.98,1.48-3.94,5.91-17.72,8.86-5.91,.98-11.81,1.48-17.72,1.48-9.35,0-19.19-1.48-27.56-5.41-1.48-.98-2.95-1.97-4.43-2.95-.98-.98-1.48-1.48-1.97-2.46v8.37c0,1.97,.98,3.94,2.95,4.92,5.91,3.94,12.3,6.4,19.19,6.89"/><path class="cls-2" d="M399.09,469.95q-.49-.49-.98-.98c-.49-.49-.98-.49-1.48-.98-.49,.98-.98,1.48-1.48,1.97,.49,0,.98,.49,1.48,.98,.98,.49,1.48,1.48,1.48,2.46s-.49,1.97-.98,2.46c-.49,.49-.98,.49-1.48,.98-.49,.49-1.48,.98-1.97,.98l-2.95,1.48s-1.97,.98-2.95,.98l-3.94,.98c-.49,0-3.44,.49-5.41,.98l-5.41,.49c-.49,0-5.91,.49-7.87,.49-3.44,0-7.38-.49-10.83-.98-2.46-.49-5.41-.98-7.87-1.48-2.95-.49-5.41-1.48-8.37-2.46-1.48-.49-2.95-1.48-4.43-2.95-.98-.98-1.97-2.46-2.95-3.44v8.86c0,1.97,.98,3.94,2.95,4.92,5.41,3.94,11.81,6.4,18.21,6.89,4.43,.49,8.86,.98,13.29,.98,6.4,0,12.79-.49,19.19-1.97,3.44-.98,6.89-1.97,9.84-3.94,.98-.49,1.97-.98,2.95-1.48,.98-.98,1.97-1.97,2.46-3.44,0-.49,.49-.98,.49-1.97l.49-7.38c0-.49,0-.98-.49-1.97-.49-.49-.49-.98-.98-1.48"/><path class="cls-2" d="M245.56,482.25c.49-1.48,1.48-2.95,2.46-3.94,.98,.98,2.46,1.97,3.44,2.46,8.86,3.94,18.7,5.91,28.54,5.91,8.37,0,16.73-.98,24.6-3.94l2.95-1.48v.98c0,4.92-12.79,10.33-31.49,10.33s-30.51-5.41-30.51-10.33m34.94-27.07c18.7,0,31.49,5.41,31.49,10.33s-12.79,10.33-31.49,10.33-31.49-4.92-31.49-9.84,12.79-10.83,31.49-10.83m-3.44,48.23c19.19,0,34.45-5.91,34.45-12.79,0,0,.49-6.4,.49-7.87,0-.98,0-1.97-.49-2.95,1.97-.98,3.44-3.44,3.94-5.91,0,0,.49-7.38,0-8.86-.98-8.86-18.21-13.29-34.94-13.29s-34.94,4.92-34.94,14.27c0,.49,.49,7.87,.49,7.87,0,.49,0,.98,.49,1.48-2.46,1.48-4.43,3.94-4.43,6.89,0,.49,.49,7.87,.49,7.87,0,1.97,.98,3.94,2.46,4.92,5.41,3.94,11.81,6.4,18.7,6.89,3.94,.98,8.37,1.48,13.29,1.48"/><path class="cls-2" d="M314.45,495.05l-.98-.98c-.49-.49-.98-.49-1.48-.98-.49,.98-.98,1.48-1.48,1.97,.49,0,.98,.49,1.48,.98,.98,.49,1.48,1.48,1.48,2.46s-.49,1.97-1.48,2.46c-.49,.49-.98,.49-1.48,.98l-1.97,.98-2.95,1.48s-1.97,.98-2.95,.98-2.95,.98-3.94,.98c0,0-3.44,.49-5.41,.98-.49,0-3.94,.49-5.41,.49-.49,0-5.91,.49-7.87,.49-3.44,0-7.38-.49-10.83-.98-2.46-.49-5.41-.98-7.87-1.48-2.95-.49-5.41-1.48-8.37-2.46-2.95-1.48-5.41-3.44-6.89-6.4v8.37c0,1.97,.98,3.94,2.46,4.92,5.41,3.94,11.81,6.4,18.7,6.89,4.43,.49,8.86,.98,13.29,.98,6.4,0,13.29-.49,19.19-1.97h.49c3.44-.98,6.89-1.97,9.84-3.94,.98-.49,1.48-.98,1.97-1.48,.98-.98,1.97-1.97,2.46-3.44,0-.49,.49-.98,.49-1.97l.49-7.38c0-.49,0-.98-.49-1.97,0-.49-.49-.98-.49-.98"/><path class="cls-2" d="M278.03,345.94l25.59,31.99c.49,.49,.49,.98,.49,1.48,0,.98-.49,.98-1.48,.98h-12.79v40.84c0,.49-.49,.98-1.48,.98h-22.14c-.49,0-1.48-.49-1.48-.98v-40.84h-12.79c-.98,0-1.48,0-1.48-.98,0-.49,0-.98,.49-1.48l24.11-31.99c.49-.49,.98-.98,1.48-.98,.98,0,1.48,.49,1.48,.98"/><path class="cls-2" d="M363.66,345.45l25.1,31.99c.49,.49,.49,.98,.49,1.48,0,.98-.49,.98-1.48,.98h-12.79v17.22c0,.49-.49,.98-1.48,.98h-22.14c-.49,0-1.48-.49-1.48-.98v-16.73h-12.79c-.98,0-1.48,0-1.48-.98,0-.49,0-.98,.49-1.48l24.11-31.99c.49-.49,.98-.98,1.48-.98,.98,0,1.48,.49,1.97,.49"/></g></svg>