<?xml version="1.0" encoding="UTF-8"?><svg id="Capa_1" xmlns="http://www.w3.org/2000/svg" viewBox="0 0 467 568.37"><defs><style>.cls-1{fill:#00486e;}.cls-2{fill:#fff;}</style></defs><path class="cls-1" d="M4.92,80.7H461.59V4.92H4.92V80.7Zm462.08,4.92H0V0H466.51V85.62h.49Z"/><polygon class="cls-1" points="16.73 17.72 38.88 17.72 38.88 24.6 32.48 24.6 32.48 67.91 23.62 67.91 23.62 24.6 16.73 24.6 16.73 17.72"/><path class="cls-1" d="M49.21,52.16h6.89l-3.44-20.18-3.44,20.18Zm-10.33,15.75l9.35-50.19h9.35l9.84,50.19h-8.86l-1.48-9.35h-8.86l-1.48,9.35h-7.87Z"/><path class="cls-1" d="M80.21,24.6v15.75h2.95c2.95,0,3.94-1.48,3.94-3.94v-7.38c0-2.95-1.48-3.94-3.94-3.94h-2.95v-.49Zm0,20.18v23.13h-8.37V17.72h12.3c8.37,0,11.81,4.43,11.81,11.32v6.4c0,5.41-1.97,8.37-6.89,9.84l7.87,22.64h-8.86l-7.87-23.13Z"/><path class="cls-1" d="M113.67,41.34h11.81v26.57h-5.91v-5.41c-.98,3.94-3.44,5.91-7.87,5.91-7.38,0-10.33-5.91-10.33-13.29V31c0-7.87,3.94-13.29,12.79-13.29,9.35,0,11.81,5.41,11.81,12.79v4.43h-7.87v-4.92c0-2.95-.98-4.92-4.43-4.92-2.95,0-4.43,1.97-4.43,4.92v27.07c0,2.95,1.48,4.92,3.94,4.92,2.95,0,3.94-1.48,3.94-4.92v-9.35h-3.94v-6.4h.49Z"/><polygon class="cls-1" points="132.37 17.72 152.55 17.72 152.55 24.6 140.74 24.6 140.74 38.88 149.11 38.88 149.11 45.77 140.74 45.77 140.74 61.02 152.55 61.02 152.55 67.91 132.37 67.91 132.37 17.72"/><polygon class="cls-1" points="156.49 17.72 178.63 17.72 178.63 24.6 171.74 24.6 171.74 67.91 163.38 67.91 163.38 24.6 156.49 24.6 156.49 17.72"/><polygon class="cls-1" points="352.83 17.72 352.83 67.91 344.47 67.91 344.47 29.53 338.56 35.43 338.56 27.07 346.44 18.21 352.83 18.21 352.83 17.72"/><polygon class="cls-1" points="358.74 17.72 379.9 17.72 379.9 25.59 369.07 67.91 360.71 67.91 372.03 24.6 359.23 24.6 359.23 17.72 358.74 17.72"/><path class="cls-1" d="M393.68,36.91c3.44,0,5.91,2.95,5.91,5.91,0,3.44-2.95,5.91-5.91,5.91-3.44,0-5.91-2.95-5.91-5.91-.49-2.95,2.46-5.91,5.91-5.91"/><polygon class="cls-1" points="421.23 17.72 421.23 67.91 412.87 67.91 412.87 29.53 406.96 35.92 406.96 27.07 414.84 18.21 421.23 18.21 421.23 17.72"/><polygon class="cls-1" points="427.63 17.72 448.79 17.72 448.79 25.59 437.97 67.91 429.6 67.91 440.92 24.6 428.12 24.6 428.12 17.72 427.63 17.72"/><g><rect class="cls-1" y="101.86" width="466.51" height="466.51"/><path class="cls-2" d="M264.26,244.08c9.35-8.37,14.76-20.67,14.76-33.46,0-1.97,0-3.94-.49-5.91,19.68,2.46,33.95,20.18,31.99,39.86-.98,8.86-5.41,16.73-11.81,22.64-6.89-12.3-19.68-21.16-34.45-23.13m30.51,44.78c0,20.18-16.24,36.42-36.42,36.42-6.4,0-12.3-1.48-17.72-4.92,7.87-8.37,12.3-19.68,12.3-31,0-2.95-.49-5.91-.98-8.86,6.89,3.94,14.27,5.91,22.14,5.91,6.89,0,13.78-1.48,19.68-4.43,.49,2.46,.98,4.92,.98,6.89m-123.52,.49c0-2.46,.49-4.92,.98-7.38,13.29,6.4,29.03,5.91,41.83-.98-.49,2.95-.98,5.41-.98,8.37,0,11.81,4.43,23.13,12.79,31.49-17.22,10.33-39.37,4.43-49.7-12.79-3.44-5.91-4.92-12.3-4.92-18.7m-15.75-48.23c0-18.7,13.78-33.95,32.48-35.92-.49,1.97-.49,3.94-.49,5.91,0,12.79,5.41,25.1,14.76,33.46-14.76,1.48-28.05,10.33-34.94,23.62-7.38-7.38-11.81-17.22-11.81-27.07m77.75-66.93c14.27,0,27.56,8.37,33.46,21.65-14.76,2.46-27.07,12.3-33.46,25.59-6.4-13.29-18.7-23.13-33.46-25.59,5.91-12.79,18.7-21.16,33.46-21.65m8.37,82.67c17.72-9.35,39.86-2.46,48.72,15.75,0,0,0,.49,.49,.49-17.72,9.35-39.86,2.46-48.72-15.75,0,0-.49,0-.49-.49m-17.22,.49c-5.91,12.3-18.7,20.18-32.48,20.18-5.91,0-11.32-1.48-16.73-3.94,5.91-12.3,18.7-20.18,32.48-20.18,5.91,0,11.32,1.48,16.73,3.94m-27.07-52.16c17.72,2.46,31,17.72,31,35.92,0,1.97,0,3.94-.49,5.41-17.72-2.46-31-17.72-31-35.92,0-1.48,0-3.44,.49-5.41m35.92,109.74c-14.27-13.78-14.76-36.91-.98-51.18l.49-.49c14.27,13.78,14.76,36.91,.98,51.18,0,.49-.49,.49-.49,.49m35.92-104.32c0,18.21-13.29,33.46-31,35.92-.49-1.97-.49-3.94-.49-5.41,0-18.21,13.29-32.97,31-35.92,.98,1.97,.98,3.94,.49,5.41m50.69,30.51c0-24.6-19.19-44.78-43.8-45.76-8.37-23.62-34.45-35.92-58.07-27.07-12.79,4.43-22.64,14.76-27.07,27.07-25.1,.98-44.78,22.14-43.8,47.24,.49,13.29,6.89,26.08,17.72,34.45-.98,3.94-1.97,8.37-1.97,12.79,0,25.1,20.18,45.27,45.27,45.27,9.35,0,18.21-2.95,25.59-7.87,21.16,13.78,49.21,8.37,62.99-12.79,7.38-10.83,9.35-24.6,5.91-37.4,10.83-8.86,17.22-22.14,17.22-35.92"/><path class="cls-2" d="M397.61,436.98l-33.46-61.02c-.49-.98-1.97-1.48-2.95-.98l-42.81,21.16c-.98,.49-2.46,.98-3.94,.98s-2.95-.49-4.43-.98l-3.94-1.97c-9.84-4.92-39.37-19.68-43.3-21.16-1.97-.49-3.94-.49-5.91,0-.98,.49-26.08,8.86-31.99,10.83-2.95,.98-5.91,1.97-8.86,3.94-1.97,1.48-34.45,25.1-36.91,27.07-.98,.49-1.48,1.48-1.48,2.46-.49,2.95,.49,5.91,2.46,8.37,1.97,2.46,4.92,3.44,8.37,3.44,2.46,0,4.43-.49,6.89-.98,1.97-.49,46.26-19.19,46.26-19.19,.98-.49,2.46-.49,3.44-.98,1.48,0,2.95,.49,4.43,1.48,3.44,2.95,83.66,65.94,86.12,68.4,.49,.49,1.48,.49,1.97,0l.49-.49,59.05-37.89c1.48-1.48,.98-1.97,.49-2.46"/><path class="cls-2" d="M328.23,482.75l-79.23-63.48c-1.48-.98-2.95-1.48-4.43-1.97h-.98c-.98,0-1.48,0-2.46,.49l-40.84,17.22c-3.44,1.48-7.38,2.46-10.83,2.46-5.91,0-11.32-2.46-15.25-6.4-4.43-3.44-6.4-8.37-5.91-13.78,.49-3.94,2.95-7.38,6.4-8.86l2.46-1.48h-1.48l-3.94,.49c-8.37,1.48-17.22,.98-25.59-1.48-11.81-3.94-45.76-19.68-45.76-19.68h-.49c-.98,0-1.97,.49-2.46,.98l-28.05,50.19v.98c0,.49,.49,.49,.98,.98l57.58,28.54,6.89,3.44v-1.97c3.44-8.86,13.29-13.29,21.65-9.84,3.94,1.48,6.89,4.43,8.86,7.87,7.38-5.91,17.72-4.92,23.62,2.46,.49,.49,.98,1.48,1.48,1.97,2.95-2.46,6.89-3.94,10.83-3.94,7.87,0,14.76,5.41,16.73,13.29,1.97-.98,4.43-1.48,6.4-1.48,9.35,0,17.22,7.87,17.22,17.22v2.46l25.1,19.68c1.48,.98,2.95,1.97,4.92,1.97,4.43,0,7.87-3.94,7.87-8.37,0-2.46-.98-4.92-2.95-6.4l-49.21-38.88h-.49l-.49-.49c-2.46-1.48-2.95-4.43-1.48-6.89,0-.49,.49-.49,.49-.98,2.46-2.95,6.4-.98,7.87,0l60.53,48.23c2.95,3.44,8.37,3.44,11.32,0,3.44-2.95,3.44-8.37,0-11.32-.49-.49-.98-.98-1.97-1.48l-60.04-48.23c-1.48-1.48-3.94-3.94-1.48-7.38,1.48-1.97,4.43-1.97,6.4-.49l70.37,57.08c2.95,2.95,8.37,2.95,11.32,0,2.95-2.95,2.95-8.37,0-11.32-.49-.49-.98-.98-1.48-1.48"/><path class="cls-2" d="M245.06,516.7l-6.89-5.41-4.92,14.76c0,.49-.49,.98-.49,1.48l2.46,1.97c3.44,2.95,8.37,2.46,11.32-1.48,2.95-2.95,2.46-7.87-1.48-11.32q0,.49,0,0"/><path class="cls-2" d="M229.32,491.6l-1.48-.98c-.98-.49-1.97-.49-3.44-.49-.98,0-1.48,0-2.46,.49-1.48,.49-2.95,1.48-3.94,2.46-.49,.49-.49,.98-.98,1.48v.49l-3.94,10.83-1.48,4.92-1.97,5.91-.49,1.48c-.49,.98-.49,1.48-.49,2.46s0,1.97,.49,3.44c.49,1.48,1.48,2.46,2.95,3.44,.49,.49,.98,.49,1.48,.98,.98,.49,1.97,.49,3.44,.49,2.95,0,5.41-1.48,6.89-3.44,.49-.49,.98-1.48,.98-2.46l.49-1.48,5.41-16.24,1.48-3.94v-.98c0-.98,.49-1.97,.49-2.95,.49-1.97-.98-4.43-3.44-5.91"/><path class="cls-2" d="M209.14,489.14s0-.49,0,0v-2.95c0-4.43-3.44-8.37-7.87-8.37-1.48,0-2.95,.49-3.94,.98-1.48,.98-2.95,2.46-3.44,3.94v.49l-2.95,10.33-3.94,10.83-.49,1.48c-.49,.98-.49,1.48-.49,2.46,0,2.95,1.48,5.91,4.43,7.38,.49,.49,1.48,.49,1.97,.98h1.48c3.94,0,6.89-2.46,8.37-5.91l2.46-6.4,4.92-15.26c-.49,.49-.49,0-.49,0"/><path class="cls-2" d="M176.17,473.4c-1.48,0-3.44,.49-4.43,1.48-.98,.49-1.48,1.48-2.46,2.46-.49,.49-.49,.98-.98,1.48v.49l-3.94,11.32-.49,1.97c-.49,.98-.49,1.48-.49,2.46,0,4.43,3.44,7.87,8.37,8.37,2.95,0,5.41-1.48,6.89-3.44,.49-.49,.98-1.48,.98-2.46l2.95-8.86,.98-2.95c0-.49,.49-.98,.49-1.97v-1.97c0-4.43-3.44-8.37-7.87-8.37"/><path class="cls-2" d="M156.98,471.92c-.98-1.48-1.97-2.46-3.44-2.95-.98-.49-1.97-.49-2.95-.49-1.48,0-3.44,.49-4.43,1.48-.49,.49-1.48,.98-1.97,1.48-.49,.49-.98,1.48-.98,1.97l-.98,3.44s-.49,1.48-.98,2.95c0,.49-.49,1.48-.49,1.97v1.48c.98,3.94,3.94,6.4,7.87,6.4,1.97,0,3.44-.49,4.92-1.48,.49-.49,1.48-.98,1.97-1.97,.49-.49,.98-1.48,.98-2.46l.98-3.94v-.98c0-.49,0-1.48,.49-1.97v-.98c0-.98,0-1.97-.49-3.44,0,.49,0,0-.49-.49"/></g></svg>