<?xml version="1.0" encoding="UTF-8"?><svg id="Capa_1" xmlns="http://www.w3.org/2000/svg" viewBox="0 0 467 568.37"><defs><style>.cls-1{fill:#fff;}.cls-2{fill:#b11546;}</style></defs><path class="cls-2" d="M4.92,80.7H461.59V4.92H4.92V80.7Zm462.08,4.92H0V0H466.51V85.62h.49Z"/><polygon class="cls-2" points="16.73 17.72 38.88 17.72 38.88 24.6 32.48 24.6 32.48 67.91 23.62 67.91 23.62 24.6 16.73 24.6 16.73 17.72"/><path class="cls-2" d="M49.21,52.16h6.89l-3.44-20.18-3.44,20.18Zm-10.33,15.75l9.35-50.19h9.35l9.84,50.19h-8.86l-1.48-9.35h-8.86l-1.48,9.35h-7.87Z"/><path class="cls-2" d="M80.21,24.6v15.75h2.95c2.95,0,3.94-1.48,3.94-3.94v-7.38c0-2.95-1.48-3.94-3.94-3.94h-2.95v-.49Zm0,20.18v23.13h-8.37V17.72h12.3c8.37,0,11.81,4.43,11.81,11.32v6.4c0,5.41-1.97,8.37-6.89,9.84l7.87,22.64h-8.86l-7.87-23.13Z"/><path class="cls-2" d="M113.67,41.34h11.81v26.57h-5.91v-5.41c-.98,3.94-3.44,5.91-7.87,5.91-7.38,0-10.33-5.91-10.33-13.29V31c0-7.87,3.94-13.29,12.79-13.29,9.35,0,11.81,5.41,11.81,12.79v4.43h-7.87v-4.92c0-2.95-.98-4.92-4.43-4.92-2.95,0-4.43,1.97-4.43,4.92v27.07c0,2.95,1.48,4.92,3.94,4.92,2.95,0,3.94-1.48,3.94-4.92v-9.35h-3.94v-6.4h.49Z"/><polygon class="cls-2" points="132.37 17.72 152.55 17.72 152.55 24.6 140.74 24.6 140.74 38.88 149.11 38.88 149.11 45.77 140.74 45.77 140.74 61.02 152.55 61.02 152.55 67.91 132.37 67.91 132.37 17.72"/><polygon class="cls-2" points="156.49 17.72 178.63 17.72 178.63 24.6 171.74 24.6 171.74 67.91 163.38 67.91 163.38 24.6 156.49 24.6 156.49 17.72"/><path class="cls-2" d="M386.3,32.48v-3.44c0-2.95-.98-4.92-3.94-4.92s-3.94,1.97-3.94,4.92v3.44c0,2.95,.98,4.92,3.94,4.92,2.95-.49,3.94-1.97,3.94-4.92m.49,24.11v-7.87c0-2.95-.98-4.92-3.94-4.92s-3.94,1.97-3.94,4.92v7.87c0,2.95,.98,4.92,3.94,4.92s3.94-1.97,3.94-4.92m-16.73-.98v-5.41c0-4.92,1.48-8.37,5.41-9.84-3.44-1.48-4.92-4.43-4.92-8.86v-1.97c0-7.87,3.94-11.81,11.81-11.81s11.81,4.43,11.81,11.81v1.97c0,3.94-1.48,6.89-4.92,8.86,3.94,1.97,5.41,5.41,5.41,9.84v5.41c0,7.38-3.44,12.79-12.3,12.79-8.37,0-12.3-4.92-12.3-12.79"/><path class="cls-2" d="M409.42,36.91c3.44,0,5.91,2.95,5.91,5.91,0,3.44-2.95,5.91-5.91,5.91-3.44,0-5.91-2.95-5.91-5.91-.49-2.95,2.46-5.91,5.91-5.91"/><path class="cls-2" d="M439.44,32.48v-3.44c0-2.95-.98-4.92-3.94-4.92s-3.94,1.97-3.94,4.92v3.44c0,2.95,.98,4.92,3.94,4.92,2.95-.49,3.94-1.97,3.94-4.92m0,24.11v-7.87c0-2.95-.98-4.92-3.94-4.92s-3.94,1.97-3.94,4.92v7.87c0,2.95,.98,4.92,3.94,4.92s3.94-1.97,3.94-4.92m-16.73-.98v-5.41c0-4.92,1.48-8.37,5.41-9.84-3.44-1.48-4.92-4.43-4.92-8.86v-1.97c0-7.87,3.94-11.81,11.81-11.81s11.81,4.43,11.81,11.81v1.97c0,3.94-1.48,6.89-4.92,8.86,3.94,1.97,5.41,5.41,5.41,9.84v5.41c0,7.38-3.44,12.79-12.3,12.79-8.37,0-12.3-4.92-12.3-12.79"/><g><rect class="cls-2" x="0" y="101.86" width="466.51" height="466.51"/><path class="cls-1" d="M409.42,345.94l-22.14-73.32s-7.87-21.16-26.08-21.16h-57.58c-17.72,0-26.08,21.16-26.08,21.16l-22.64,73.32s-3.94,13.29,7.38,16.73c11.32,3.44,14.76-9.84,14.76-9.84l18.21-61.51s.98-4.92,4.43-3.94c3.44,.98,1.97,5.91,1.97,5.91l-31.49,115.15h29.53v82.18c.49,7.87,7.38,13.78,14.76,13.29,7.38-.49,12.79-5.91,13.29-13.29v-81.69h7.87v82.18c.49,7.87,7.38,13.78,14.76,13.29,7.38-.49,12.79-5.91,13.29-13.29v-82.18h29.53l-30.51-114.66s-1.48-4.92,1.97-5.91c3.44-.98,4.43,3.94,4.43,3.94l18.21,60.53s3.44,13.29,14.76,9.84c11.32-3.44,7.38-16.73,7.38-16.73"/><path class="cls-1" d="M305.1,211.11c0,14.76,12.3,27.07,27.07,27.07h.98c15.25,0,27.56-12.3,27.56-27.07,0-1.97,0-3.94-.49-5.91h-54.13c-.49,1.48-.98,3.94-.98,5.91"/><path class="cls-1" d="M363.66,189.46h-2.95c-1.97-7.87-7.38-14.27-14.76-17.72l-3.94,12.79v-19.19h-14.76v18.7l-4.92-13.29c-8.37,3.44-14.27,10.33-16.73,18.7h-2.95v10.33h61.02v-10.33Z"/><polygon class="cls-1" points="66.43 427.63 65.94 256.38 56.59 256.38 56.59 438.46 187.49 438.46 187.49 427.63 66.43 427.63"/><path class="cls-1" d="M186.5,393.68H96.94c-.49,0-.98,0-.98-.49v-14.27c0-.49,.49-.49,.98-.49h89.56c.49,0,.98,.49,.98,.49v14.27c-.49,0-.49,.49-.98,.49m-90.55-40.35c0-.49,.49-.49,.98-.49h89.56c.49,0,.98,0,.98,.49v14.27c0,.49-.49,.49-.98,.49H96.45c-.49,0-.98,0-.98-.49l.49-14.27Zm35.92-66.43h0c-3.44-2.95-4.92-7.38-4.92-11.81v-.98c0-7.87,4.92-13.29,14.76-13.29,7.38-.98,13.78,4.43,14.76,11.81v5.91h-9.84v-3.44c.49-2.95-1.48-5.41-4.43-5.91h-.98c-3.44,0-5.41,1.48-5.41,4.43v.98c0,2.46,.98,3.44,3.94,5.41l11.32,6.89c4.92,1.97,8.37,6.89,8.37,12.3,0,4.92-3.44,9.35-8.37,10.83v.49c3.44,2.46,5.41,6.89,5.41,11.32v1.97c0,8.37-4.43,13.78-14.76,13.78-7.38,.49-14.27-4.92-14.76-12.3v-6.89h9.84v4.43c0,2.95,1.97,4.92,4.43,5.41h.49c3.44,0,5.41-1.48,5.41-4.92v-.98c0-2.46-.98-3.94-4.92-5.91l-10.83-6.4c-4.92-2.46-7.87-7.38-8.37-12.79,.49-4.92,3.94-9.35,8.86-10.33m74.8-52.65H76.28v182.08H207.17l-.49-182.08Z"/><path class="cls-1" d="M137.3,301.66l8.37,4.92c2.46-.49,3.94-2.95,4.43-5.41,0-3.44-.98-4.43-4.92-6.4l-8.86-5.41c-2.46,.98-3.94,2.95-3.94,5.41,.49,3.44,1.48,4.92,4.92,6.89"/></g></svg>