<?xml version="1.0" encoding="UTF-8"?><svg id="Capa_1" xmlns="http://www.w3.org/2000/svg" viewBox="0 0 467 568.37"><defs><style>.cls-1{fill:#eb6220;}.cls-2{fill:#fff;}</style></defs><path class="cls-1" d="M4.92,80.7H461.59V4.92H4.92V80.7Zm462.08,4.92H0V0H466.51V85.62h.49Z"/><polygon class="cls-1" points="16.73 17.72 38.88 17.72 38.88 24.6 32.48 24.6 32.48 67.91 23.62 67.91 23.62 24.6 16.73 24.6 16.73 17.72"/><path class="cls-1" d="M49.21,52.16h6.89l-3.44-20.18-3.44,20.18Zm-10.33,15.75l9.35-50.19h9.35l9.84,50.19h-8.86l-1.48-9.35h-8.86l-1.48,9.35h-7.87Z"/><path class="cls-1" d="M80.21,24.6v15.75h2.95c2.95,0,3.94-1.48,3.94-3.94v-7.38c0-2.95-1.48-3.94-3.94-3.94h-2.95v-.49Zm0,20.18v23.13h-8.37V17.72h12.3c8.37,0,11.81,4.43,11.81,11.32v6.4c0,5.41-1.97,8.37-6.89,9.84l7.87,22.64h-8.86l-7.87-23.13Z"/><path class="cls-1" d="M113.67,41.34h11.81v26.57h-5.91v-5.41c-.98,3.94-3.44,5.91-7.87,5.91-7.38,0-10.33-5.91-10.33-13.29V31c0-7.87,3.94-13.29,12.79-13.29,9.35,0,11.81,5.41,11.81,12.79v4.43h-7.87v-4.92c0-2.95-.98-4.92-4.43-4.92-2.95,0-4.43,1.97-4.43,4.92v27.07c0,2.95,1.48,4.92,3.94,4.92,2.95,0,3.94-1.48,3.94-4.92v-9.35h-3.94v-6.4h.49Z"/><polygon class="cls-1" points="132.37 17.72 152.55 17.72 152.55 24.6 140.74 24.6 140.74 38.88 149.11 38.88 149.11 45.77 140.74 45.77 140.74 61.02 152.55 61.02 152.55 67.91 132.37 67.91 132.37 17.72"/><polygon class="cls-1" points="156.49 17.72 178.63 17.72 178.63 24.6 171.74 24.6 171.74 67.91 163.38 67.91 163.38 24.6 156.49 24.6 156.49 17.72"/><path class="cls-1" d="M432.06,45.27v15.75h3.94c2.95,0,3.94-1.48,3.94-3.94v-7.38c0-2.46-1.48-3.94-4.43-3.94h-3.44v-.49Zm0-6.4h2.95c2.95,0,3.94-1.48,3.94-3.94v-5.91c0-2.95-1.48-3.94-3.94-3.94h-2.95v13.78Zm-8.37-21.16h12.3c8.37,0,11.32,3.94,11.32,10.83v4.92c0,4.43-1.48,6.89-4.92,7.87,4.43,.98,6.4,3.94,6.4,8.37v6.4c0,6.89-2.95,10.83-11.81,10.83h-13.29V17.72Z"/><path class="cls-1" d="M376.45,29.03v8.86c0,3.44,.98,4.92,3.94,4.92,2.46,0,3.94-1.97,3.94-4.43v-9.35c0-2.95-.98-4.92-3.94-4.92-2.46,0-3.94,1.97-3.94,4.92m16.73,1.48v24.11c0,7.87-3.44,13.29-12.3,13.29-9.35,0-11.81-4.92-11.81-12.3v-2.46h7.87v3.44c0,2.95,.98,4.92,3.94,4.92s4.43-1.97,4.43-4.92v-10.83c-1.48,2.46-3.44,3.94-6.89,3.94-5.91,0-9.35-3.94-9.35-12.3v-7.38c0-7.87,3.44-12.79,12.3-12.79,8.37,0,11.81,5.41,11.81,13.29"/><polygon class="cls-1" points="404.01 32.48 404.01 53.15 414.84 42.81 404.01 32.48"/><g><rect class="cls-1" x="0" y="101.86" width="466.51" height="466.51"/><path class="cls-2" d="M281.48,407.95v-44.78l39.37-22.64v29.53l-13.29,7.38c-.98,.49-1.97,1.97-1.48,2.95v13.78l-24.6,13.78Zm-2.95-50.19l-38.88-22.64,39.37-22.64,39.37,22.64-39.86,22.64Zm-41.83-69.39l35.92,20.67-35.92,20.67v-41.34Zm-5.91,41.83l-35.92-20.67,35.92-20.67v41.34Zm0,52.16l-35.92-20.67,35.92-20.67v41.34Zm-39.37,26.08v-41.83l35.92,20.67-35.92,21.16Zm0-146.15l35.92,20.67-35.92,20.67v-41.34Zm.49-43.8v-43.3l38.38,21.65v32.97l-9.35,5.41-29.03-16.73Zm54.62,16.73l-9.35-5.41v-32.97l37.89-21.65v43.3l-28.54,16.73Zm29.03,27.07v41.83l-35.92-20.67,35.92-21.16Zm82.67,189.46v-43.8l37.89-21.65v43.3l-37.89,22.14Zm-45.27-65.45l38.38,21.65v43.8l-38.38-22.14v-43.3Zm-127.45,22.14l-24.6-14.27v-14.27c0-1.48-.49-2.46-1.48-2.95l-13.29-7.38v-29.03l39.37,22.64v45.27Zm-69.88,43.3v-43.8l37.89-21.65v43.3l-37.89,22.14Zm-3.44-49.7l-38.38-21.65,38.38-21.65,37.89,21.65-37.89,21.65Zm289.35-25.1l-45.27-25.59c-.98-.49-2.46-.49-3.44,0l-26.08,15.25v-31c0-.98-.49-1.97-1.48-2.46l-43.8-25.1v-50.69c0-.98-.49-1.97-1.48-2.46l-26.57-15.25,27.07-15.75c.98-.49,1.97-1.97,1.48-2.95v-51.67c0-1.48-.49-2.46-1.97-2.95l-45.27-25.59c-.98-.49-2.46-.49-3.44,0l-45.27,25.59c-.98,.49-1.97,1.97-1.48,2.95v51.18c0,1.48,.49,2.46,1.48,2.95l27.07,15.75-27.07,15.75c-.98,.49-1.48,1.48-1.48,2.46v50.19l-43.8,25.1c-.98,.49-1.48,1.48-1.48,2.46v31l-26.08-14.76c-.98-.49-2.46-.49-3.44,0l-44.29,26.08c-.98,.49-1.97,1.97-1.97,2.95v51.18c0,1.48,.49,2.46,1.97,2.95l45.27,26.08c.49,.49,.98,.49,1.48,.49s.98,0,1.97-.49l45.27-26.08c.98-.49,1.48-1.97,1.48-2.95v-30.51l26.08,14.76c.49,0,.98,.49,1.48,.49s.98,0,1.48-.49l43.8-25.1,43.8,25.1c.98,.49,1.97,.49,2.95,0l26.08-14.76v30.51c0,1.48,.49,2.46,1.48,2.95l45.27,26.08c.49,.49,.98,.49,1.97,.49,.49,0,.98,0,1.48-.49l45.27-26.08c.98-.49,1.97-1.97,1.48-2.95v-51.67c-.49-.98-.98-2.46-1.97-2.95"/><path class="cls-2" d="M112.2,260.81l-38.38-21.65,38.38-21.65,37.89,21.65-37.89,21.65Zm-3.44,49.7l-37.89-21.65v-43.8l38.38,21.65-.49,43.8Zm52.16-19.68v-51.67c0-1.48-.49-2.46-1.48-2.95l-45.27-25.59c-.98-.49-2.46-.49-3.44,0l-45.27,25.59c-.98,.49-1.97,1.97-1.97,2.95v51.18c0,1.48,.49,2.46,1.97,2.95l45.27,26.08c.49,.49,.98,.49,1.97,.49,.49,0,.98,0,1.97-.49l45.27-26.08c.49,0,.98-1.48,.98-2.46"/><path class="cls-2" d="M354.8,261.8l-38.38-21.65,38.38-21.65,37.89,21.65-37.89,21.65Zm-3.94,49.7l-38.38-22.14v-43.3l38.38,21.65v43.8Zm50.69-74.8l-45.27-25.59c-.98-.49-2.46-.49-3.44,0l-45.27,26.08c-.98,.49-1.97,1.97-1.48,2.95v51.18c0,1.48,.49,2.46,1.48,2.95l45.27,26.08c.49,.49,.98,.49,1.97,.49,.49,0,.98,0,1.48-.49l45.27-26.08c.98-.49,1.97-1.97,1.48-2.95v-51.67c0-.98-.49-2.46-1.48-2.95"/><path class="cls-2" d="M233.25,471.43l-37.89-21.65,38.38-21.65,37.89,21.65-38.38,21.65Zm-3.44,49.7l-38.38-22.14v-42.81l38.38,21.65v43.3Zm50.69-74.31l-44.78-25.59c-.98-.49-2.46-.49-3.44,0l-45.27,26.08c-.98,.49-1.97,1.97-1.97,2.95v51.18c0,1.48,.49,2.46,1.97,2.95l45.27,26.08c.98,.49,2.46,.49,3.44,0l45.27-26.08c.98-.49,1.97-1.97,1.97-2.95v-51.67c-.98-1.48-1.48-2.46-2.46-2.95"/></g></svg>