<?xml version="1.0" encoding="UTF-8"?><svg id="Capa_1" xmlns="http://www.w3.org/2000/svg" viewBox="0 0 467 568.37"><defs><style>.cls-1{fill:#e63428;}.cls-2{fill:#fff;}</style></defs><path class="cls-1" d="M4.92,80.7H461.59V4.92H4.92V80.7Zm462.08,4.92H0V0H466.51V85.62h.49Z"/><polygon class="cls-1" points="16.73 17.72 38.88 17.72 38.88 24.6 32.48 24.6 32.48 67.91 23.62 67.91 23.62 24.6 16.73 24.6 16.73 17.72"/><path class="cls-1" d="M49.21,52.16h6.89l-3.44-20.18-3.44,20.18Zm-10.33,15.75l9.35-50.19h9.35l9.84,50.19h-8.86l-1.48-9.35h-8.86l-1.48,9.35h-7.87Z"/><path class="cls-1" d="M80.21,24.6v15.75h2.95c2.95,0,3.94-1.48,3.94-3.94v-7.38c0-2.95-1.48-3.94-3.94-3.94h-2.95v-.49Zm0,20.18v23.13h-8.37V17.72h12.3c8.37,0,11.81,4.43,11.81,11.32v6.4c0,5.41-1.97,8.37-6.89,9.84l7.87,22.64h-8.86l-7.87-23.13Z"/><path class="cls-1" d="M113.67,41.34h11.81v26.57h-5.91v-5.41c-.98,3.94-3.44,5.91-7.87,5.91-7.38,0-10.33-5.91-10.33-13.29V31c0-7.87,3.94-13.29,12.79-13.29,9.35,0,11.81,5.41,11.81,12.79v4.43h-7.87v-4.92c0-2.95-.98-4.92-4.43-4.92-2.95,0-4.43,1.97-4.43,4.92v27.07c0,2.95,1.48,4.92,3.94,4.92,2.95,0,3.94-1.48,3.94-4.92v-9.35h-3.94v-6.4h.49Z"/><polygon class="cls-1" points="132.37 17.72 152.55 17.72 152.55 24.6 140.74 24.6 140.74 38.88 149.11 38.88 149.11 45.77 140.74 45.77 140.74 61.02 152.55 61.02 152.55 67.91 132.37 67.91 132.37 17.72"/><polygon class="cls-1" points="156.49 17.72 178.63 17.72 178.63 24.6 171.74 24.6 171.74 67.91 163.38 67.91 163.38 24.6 156.49 24.6 156.49 17.72"/><path class="cls-1" d="M405.49,44.78v12.3c0,6.89-3.44,11.32-11.81,11.32s-11.81-4.92-11.81-12.3v-5.91h7.87v6.4c0,2.95,.98,4.92,3.94,4.92,2.46,0,3.44-1.97,3.44-4.43v-12.3c0-2.95-.98-4.43-3.44-4.43s-3.94,1.48-3.94,4.43v.98h-7.38V17.72h22.14v6.89h-14.27v12.3c1.48-2.46,3.94-3.44,6.89-3.44,4.43,.49,8.37,3.44,8.37,11.32"/><path class="cls-1" d="M419.76,36.91c3.44,0,5.91,2.95,5.91,5.91,0,3.44-2.95,5.91-5.91,5.91-3.44,0-5.91-2.95-5.91-5.91-.49-2.95,2.46-5.91,5.91-5.91"/><polygon class="cls-1" points="446.82 17.72 446.82 67.91 438.46 67.91 438.46 29.53 432.55 35.43 432.55 27.07 440.43 18.21 446.82 18.21 446.82 17.72"/><g><rect class="cls-1" x="0" y="101.86" width="466.51" height="466.51"/><path class="cls-2" d="M225.38,259.83h0c11.32,0,20.18-8.86,20.18-20.18s-8.86-20.18-20.18-20.18-20.18,8.86-20.18,20.18,9.35,20.18,20.18,20.18"/><path class="cls-2" d="M357.75,271.15c11.32,0,20.18-8.86,20.18-20.18,0-7.87-4.43-14.76-11.32-18.21,.49-.98,.98-1.97,.98-2.95-1.48-5.41-6.89-8.86-12.3-7.87-3.94,.98-6.89,3.94-7.87,7.87,0,1.48,.49,2.46,.98,3.44-9.84,5.41-13.29,17.22-7.87,27.07,3.44,6.4,10.33,10.83,17.72,10.33l-.49,.49Z"/><path class="cls-2" d="M407.46,355.79q0-.49-.49-.98c5.91-3.44,3.44-10.83,3.44-10.83l-2.95-8.37-13.29-42.81s-5.41-15.25-18.21-15.25l-29.53-.49c-4.43,0-8.86-1.48-11.81-4.43l-36.91-55.11-.49-.49c-.98-1.97-2.95-3.44-4.92-3.94-.98,0-1.97-.49-2.95,0-1.48,0-2.95,0-6.89,4.43l-35.43,44.78c-3.94,3.44-8.86,4.92-13.78,4.92h-16.73c-4.92,0-9.84-1.48-13.78-4.92l-35.43-44.78c-3.94-4.43-4.92-4.43-6.89-4.43h-2.95c-2.46,.49-3.94,2.46-4.92,4.43l-35.92,55.11c-3.44,2.95-7.38,4.43-11.81,4.43l-29.53,.49c-12.3,0-18.21,15.25-18.21,15.25l-15.75,51.18s-2.95,9.35,4.92,11.81c7.87,2.46,10.33-6.89,10.33-6.89l12.79-42.81s.49-3.44,2.95-2.46c2.46,.98,1.48,4.43,1.48,4.43l-22.14,80.21h20.67v57.58c0,5.41,4.43,9.84,9.84,9.84s9.84-4.43,9.84-9.84v-58.07h7.38v57.58c0,5.41,4.43,9.84,9.84,9.84s9.84-4.43,9.84-9.84v-57.58h20.67l-19.68-72.83c-.98-4.43,0-9.35,1.97-13.29l12.79-23.62,23.13-38.88s1.97-2.95,3.94-5.91l23.13,34.45,13.78,25.1c2.46,4.43,2.95,9.35,1.97,14.27l-21.16,76.77h21.65v61.02c.49,5.91,5.41,10.33,11.32,9.84,5.41-.49,9.35-4.43,9.84-9.84v-61.02h5.91v61.02c.49,5.91,5.41,10.33,11.32,9.84,5.41-.49,9.35-4.43,9.84-9.84v-61.02h22.14l-21.16-76.77c-.98-4.92,0-9.84,1.97-14.27l13.78-25.1,23.13-34.94c1.97,3.44,3.94,6.4,3.94,6.4l23.13,38.88,12.79,23.62c1.97,3.94,2.95,8.86,1.97,13.29l-20.18,72.83h20.67v57.58c0,5.41,4.43,9.84,9.84,9.84s9.84-4.43,9.84-9.84v-57.58h6.89v57.58c0,5.41,4.43,9.84,9.84,9.84s9.84-4.43,9.84-9.84v-57.58h20.67l-21.16-80.21s-.98-3.44,1.48-4.43c2.46-.98,2.95,2.46,2.95,2.46l9.84,33.95,2.46,8.37s1.48,6.4,6.89,7.38v.98l18.21,95.96c.49,1.48,1.48,2.46,2.95,2.46h.49c1.48-.49,2.46-1.97,2.46-3.44l-17.72-95.47Z"/><path class="cls-2" d="M79.72,236.21c-.49-2.46-2.95-5.41-8.37-2.95-6.89,2.95-5.91,12.79-5.91,12.79,0,.98,0,1.48,.49,.98,.49-1.48,1.97-3.94,7.38-4.92,.98,0,1.97-.49,2.95-.98,.98-1.48,1.97-3.44,3.44-4.43v-.49Z"/><path class="cls-2" d="M119.09,233.25c-5.41-2.46-7.87,.49-8.37,2.95v1.48c.98,1.48,1.97,2.46,2.95,4.43,.98,.49,1.97,.98,2.95,.98,5.41,.98,6.89,3.44,7.38,4.92,0,.49,.49,0,.49-.98,.98-.98,1.48-10.33-5.41-13.78"/><path class="cls-2" d="M95.47,233.75c-10.33,0-18.21,8.37-18.21,18.21s8.37,18.21,18.21,18.21,18.21-8.37,18.21-18.21-7.87-18.21-18.21-18.21"/></g></svg>