<?xml version="1.0" encoding="UTF-8"?><svg id="Capa_1" xmlns="http://www.w3.org/2000/svg" viewBox="0 0 467 569.36"><defs><style>.cls-1{fill:#010101;}.cls-2{fill:#006c9c;}.cls-3{fill:#0096d6;}.cls-4{fill:#fff;}</style></defs><path class="cls-3" d="M4.92,80.71H461.59V4.92H4.92V80.71Zm462.08,4.92H0V0H466.51V85.63h.5Z"/><polygon class="cls-3" points="16.73 17.72 38.88 17.72 38.88 24.61 32.48 24.61 32.48 67.91 23.62 67.91 23.62 24.61 16.73 24.61 16.73 17.72"/><path class="cls-3" d="M49.21,52.16h6.89l-3.44-20.18-3.45,20.18Zm-10.33,15.75l9.35-50.19h9.35l9.84,50.19h-8.86l-1.48-9.35h-8.86l-1.48,9.35h-7.87Z"/><path class="cls-3" d="M80.21,24.61v15.75h2.95c2.95,0,3.94-1.48,3.94-3.94v-7.38c0-2.95-1.48-3.94-3.94-3.94h-2.95v-.49Zm0,20.18v23.13h-8.37V17.72h12.3c8.37,0,11.81,4.43,11.81,11.32v6.4c0,5.41-1.97,8.37-6.89,9.84l7.87,22.64h-8.86l-7.87-23.13Z"/><path class="cls-3" d="M113.68,41.34h11.81v26.57h-5.91v-5.41c-.98,3.93-3.44,5.91-7.87,5.91-7.38,0-10.33-5.91-10.33-13.29V31.01c0-7.87,3.94-13.29,12.79-13.29,9.35,0,11.81,5.41,11.81,12.79v4.43h-7.87v-4.92c0-2.96-.98-4.92-4.43-4.92-2.95,0-4.43,1.97-4.43,4.92v27.07c0,2.95,1.48,4.92,3.94,4.92,2.95,0,3.94-1.48,3.94-4.92v-9.35h-3.94v-6.4h.49Z"/><polygon class="cls-3" points="132.38 17.72 152.55 17.72 152.55 24.61 140.74 24.61 140.74 38.88 149.11 38.88 149.11 45.77 140.74 45.77 140.74 61.02 152.55 61.02 152.55 67.91 132.38 67.91 132.38 17.72"/><polygon class="cls-3" points="156.49 17.72 178.63 17.72 178.63 24.61 171.74 24.61 171.74 67.91 163.38 67.91 163.38 24.61 156.49 24.61 156.49 17.72"/><polygon class="cls-3" points="365.63 17.72 365.63 67.91 357.27 67.91 357.27 29.53 351.36 35.43 351.36 27.07 359.23 18.21 365.63 18.21 365.63 17.72"/><path class="cls-3" d="M378.43,53.15h7.38v-20.67l-7.38,20.67Zm-7.38,1.48l14.76-36.91h8.37V53.15h2.95v6.4h-3.45v8.37h-7.87v-8.37h-14.76v-4.92Z"/><path class="cls-3" d="M410.9,36.91c3.44,0,5.91,2.95,5.91,5.91,0,3.45-2.95,5.91-5.91,5.91-3.44,0-5.91-2.96-5.91-5.91s2.46-5.91,5.91-5.91"/><path class="cls-3" d="M447.81,28.54v4.43c0,4.43-2.46,6.89-5.91,8.37,4.43,.98,6.4,3.94,6.4,8.37v7.38c0,6.89-3.94,11.32-12.3,11.32s-11.81-4.92-11.81-12.3v-6.4h7.87v7.38c0,2.95,.98,4.92,3.94,4.92,2.46,0,3.94-1.97,3.94-4.43v-8.37c0-2.46-.99-3.94-3.94-3.94h-3.44v-6.4h2.95c2.96,0,4.43-1.48,4.43-3.94v-5.91c0-2.95-.99-4.43-3.45-4.43s-3.44,1.97-3.44,4.92v4.92h-7.87v-4.43c0-7.38,2.95-12.79,11.81-12.79,7.38,0,10.83,4.43,10.83,11.32"/><g><rect class="cls-3" x="0" y="102.85" width="466.51" height="466.51"/><path class="cls-1" d="M216.52,256.38l.98-.98,.49-.49-1.48-.98v1.48c0,.49,.49,.49,0,.98"/><path class="cls-1" d="M196.84,222.92l-53.15,53.15-7.38,7.38c1.48,2.95,3.45,5.41,5.41,7.87l8.37-8.37,53.15-53.15c1.48,1.48,2.96,2.46,4.43,3.44v2.46c0,.98,0,1.97,.49,3.44l-50.19,49.7-9.35,9.35c2.46,1.97,4.92,3.44,7.87,4.92l11.32-11.32,43.8-43.8c1.48,1.97,3.44,3.94,5.41,5.41l1.48,.98-.5,.49-.98,.98-36.42,36.91-13.78,13.78c3.44,.49,6.39,.98,9.84,.98h1.97l42.81-42.81v-1.97c0-2.46,0-4.43-.49-6.4,2.95,1.48,6.39,1.97,9.35,1.97,3.94,0,7.88-.98,11.32-3.44,7.87,17.72,29.03,25.1,46.25,17.22,6.4-2.95,11.81-7.87,15.75-14.27,9.84,9.84,25.59,9.84,35.92,0,2.46-2.46,3.94-4.92,5.42-7.87,13.28,18.21,38.87,22.14,56.59,8.86,18.2-13.29,22.14-38.88,8.86-56.59-12.3-16.73-35.92-21.65-53.64-10.83-2.95-13.78-16.73-23.13-30.51-20.18-5.9,.98-10.82,4.43-14.76,8.86-3.44-2.95-7.87-4.92-12.3-4.92s-8.36,1.48-11.81,3.94c-1.48-11.32-11.32-19.19-22.64-18.21-7.87,.98-14.76,6.4-17.22,13.78-15.25-11.81-37.4-8.86-49.21,6.4-7.38,9.84-9.35,22.64-4.92,33.95,.98,2.46,1.97,4.92,3.94,6.89l-.49,.98Z"/><polygon class="cls-1" points="57.58 361.2 57.09 361.2 83.17 387.28 86.12 382.85 64.47 361.2 57.58 361.2"/><path class="cls-1" d="M96.95,361.2h-.49l1.97,1.97v-.49c-.49-.99-.98-1.48-1.48-1.48"/><path class="cls-1" d="M85.14,290.83c0-.49-.49-.98-.98-.98h-6.89l8.37,8.37-.49-7.38Z"/><polygon class="cls-1" points="69.39 360.22 88.09 378.92 90.55 374.98 69.39 353.82 69.39 360.22"/><polygon class="cls-1" points="69.39 334.14 85.13 350.38 85.13 343.49 69.39 327.74 69.39 334.14"/><path class="cls-1" d="M70.37,289.36c-.49,0-.98,.49-.98,.98v4.43l15.75,15.75v-6.89l-14.76-14.27Z"/><polygon class="cls-1" points="69.39 308.05 85.13 324.29 85.13 317.4 69.39 301.66 69.39 308.05"/><polygon class="cls-1" points="69.39 321.34 85.13 337.09 85.13 330.69 69.39 314.45 69.39 321.34"/><polygon class="cls-1" points="69.39 347.42 93.01 371.04 95.47 367.11 90.06 361.2 85.13 361.2 85.13 356.77 69.39 340.53 69.39 347.42"/><path class="cls-1" d="M76.77,393.68c0,.5,.49,.5,.98,.5s.49,0,.98-.5v-.49l1.48-2.46-16.24-16.24,12.3,18.7,.49,.49Z"/><path class="cls-1" d="M408.94,360.71h0l1.97,1.97v-.49c0-.5-.49-1.48-1.48-1.48h-.49Z"/><polygon class="cls-1" points="407.95 366.61 402.54 360.71 398.11 360.71 398.11 356.28 381.87 340.53 381.87 346.93 405.49 370.55 407.95 366.61"/><polygon class="cls-1" points="403.03 374.49 381.87 353.33 381.87 359.73 400.57 378.43 403.03 374.49"/><polygon class="cls-1" points="398.11 382.36 376.45 360.71 370.06 360.71 369.57 360.71 395.15 386.3 398.11 382.36"/><path class="cls-1" d="M383.35,289.36c-.5,0-.98,.49-.98,.98v4.43l15.75,15.75v-6.89l-14.76-14.27Z"/><path class="cls-1" d="M398.11,290.34c0-.49-.5-.98-.98-.98h-7.38l8.37,8.37v-7.38Z"/><polygon class="cls-1" points="381.87 308.05 398.11 323.8 398.11 317.4 381.87 301.16 381.87 308.05"/><polygon class="cls-1" points="381.87 334.14 398.11 349.88 398.11 343.49 381.87 327.24 381.87 334.14"/><polygon class="cls-1" points="381.87 320.85 398.11 337.09 398.11 330.2 381.87 314.45 381.87 320.85"/><path class="cls-1" d="M389.25,393.68q.49,.5,.98,.5t.98-.5v-.49l1.48-2.46-16.24-16.24,12.3,18.7,.5,.49Z"/><path class="cls-1" d="M302.15,360.71h0l1.97,1.97v-.49c0-.5-.49-1.48-1.48-1.48h-.49Z"/><polygon class="cls-1" points="301.66 366.61 295.75 360.71 291.32 360.71 291.32 356.28 275.09 340.53 275.09 346.93 298.71 370.55 301.66 366.61"/><polygon class="cls-1" points="296.24 374.49 275.08 353.33 275.08 359.73 293.78 378.43 296.24 374.49"/><polygon class="cls-1" points="291.32 382.36 269.67 360.71 263.27 360.71 262.78 360.71 288.37 386.79 291.32 382.36"/><path class="cls-1" d="M276.56,289.36c-.49,0-.98,.49-.98,.98v4.43l15.75,15.75v-6.89l-14.76-14.27Z"/><path class="cls-1" d="M291.32,290.34c0-.49-.49-.98-.98-.98h-7.38l8.37,8.37v-7.38Z"/><polygon class="cls-1" points="275.09 308.05 291.32 323.8 291.32 317.4 275.09 301.16 275.09 308.05"/><polygon class="cls-1" points="275.09 334.14 291.32 349.88 291.32 343.49 275.09 327.24 275.09 334.14"/><polygon class="cls-1" points="275.09 320.85 291.32 337.09 291.32 330.2 275.09 314.45 275.09 320.85"/><path class="cls-1" d="M282.47,393.68q.49,.5,.98,.5t.98-.5v-.49l1.48-2.46-16.24-16.24,12.3,18.7,.5,.49Z"/><path class="cls-1" d="M216.03,283.94l-18.7,18.7c8.37-4.43,14.76-10.83,18.7-18.7"/><path class="cls-1" d="M176.67,218h-.98l-39.37,39.37-4.92,4.92v.98c0,3.44,.49,7.38,1.47,10.83l5.91-5.91,48.72-48.23c-3.94-1.48-7.38-1.97-10.83-1.97"/><path class="cls-1" d="M96.95,271.64c8.86,0,15.75-7.38,15.75-15.75,0-.98,0-2.46-.49-3.44,7.87,2.95,16.24,2.46,23.62-.98,9.84-4.43,16.24-13.78,17.22-24.6l4.43-4.43c-1.48,.49-2.95,1.48-4.43,2.46v-.49c0-1.48,0-2.95-.49-3.94-2.46-16.73-17.72-28.05-34.45-26.08-16.73,2.46-28.05,17.72-26.08,34.45,.49,3.94,1.97,7.87,3.94,11.32-8.86-.49-16.24,6.4-16.73,15.25-.49,8.86,6.4,16.24,15.25,16.73,1.48-.49,1.97-.49,2.46-.49"/><path class="cls-2" d="M410.9,159.93c-10.33,0-18.7,8.37-18.7,18.7,0,4.42,1.47,8.35,4.41,11.79,.19,.1,.37,.19,.56,.3,2.29,1.19,4.56,2.68,6.58,4.47,.47,.39,.93,.79,1.37,1.2,1.93,.48,3.85,.95,5.77,.95,10.34,0,18.7-8.36,18.7-18.7s-8.36-18.7-18.7-18.7"/><path class="cls-1" d="M396.61,190.42s.01,.02,.02,.02c.18,.09,.35,.18,.53,.27-.18-.1-.37-.2-.55-.3m7.14,4.76c.42,.38,.84,.76,1.24,1.17,.05,0,.09,.02,.14,.03-.45-.41-.91-.81-1.37-1.2"/><path class="cls-2" d="M53.15,209.63c-10.33,0-18.7,8.37-18.7,18.7s8.37,18.7,18.7,18.7,18.7-8.37,18.7-18.7-8.37-18.7-18.7-18.7"/><path class="cls-2" d="M176.67,211.6c-9.08,0-17.48,2.96-24.26,7.98,.05,.29,.1,.58,.14,.88,.49,.98,.49,2.46,.49,3.94v.49c1.48-.98,2.95-1.97,4.43-2.46l-4.43,4.43c-.98,10.82-7.38,20.17-17.21,24.6,0,.33-.01,.66-.01,.99,0,1.73,.11,3.43,.32,5.1l.18-.18,39.37-39.37h.99c3.44,0,6.89,.49,10.82,1.97l-48.58,48.09c1.21,2.92,2.75,5.68,4.58,8.21l.21-.21,53.15-53.15,.49-.98c-1.93-1.93-2.91-4.32-3.87-6.73-5.12-2.32-10.81-3.6-16.79-3.6m26.57,18.21l-53.15,53.15-.27,.27c2.49,2.17,5.24,4.05,8.21,5.57l50.13-49.64c-.5-1.48-.5-2.46-.5-3.44v-2.46c-1.47-.98-2.95-1.97-4.43-3.44m8.37,18.21l-43.8,43.8-.42,.42c2.98,.69,6.08,1.06,9.28,1.06,1.21,0,2.41-.05,3.6-.16l.34-.34,36.34-36.83-.42,.42c.49-.49,0-.49,0-.98v-1.48l.93,.62c.02-.27,.02-.53,.03-.8l-.47-.31c-1.97-1.48-3.93-3.44-5.41-5.41m-1.97,28.54l-8.86,8.86c3.39-2.48,6.38-5.47,8.86-8.86"/><path class="cls-1" d="M216.52,253.92v1.48c0,.49,.49,.49,0,.98l.42-.42,.07-.07,.38-.38c.02-.32,.05-.65,.06-.97l-.93-.62Z"/><path class="cls-1" d="M193.46,215.2c.96,2.41,1.95,4.81,3.88,6.73l-.49,.99-53.15,53.14-.21,.21c1.84,2.55,3.97,4.89,6.33,6.95l.27-.27,53.15-53.15c1.48,1.48,2.95,2.46,4.43,3.45v2.46c0,.98,0,1.97,.49,3.44l-50.13,49.64c2.93,1.51,6.07,2.67,9.36,3.43l.42-.42,43.8-43.8c1.48,1.97,3.44,3.93,5.41,5.41l.47,.31c.02-.43,.02-.86,.02-1.29,0-16.57-9.87-30.84-24.05-37.25m23.94,40.31l-.38,.38-.07,.08-36.34,36.83-.34,.34c7.63-.66,14.66-3.43,20.51-7.71l8.86-8.86c4.39-5.98,7.18-13.21,7.76-21.04"/><path class="cls-1" d="M176.67,218h-.98l-39.37,39.37-.18,.18c.46,3.68,1.41,7.2,2.77,10.51l48.58-48.09c-3.94-1.48-7.38-1.97-10.83-1.97"/><path class="cls-1" d="M152.41,219.58c-9.82,7.26-16.27,18.8-16.58,31.88,9.84-4.43,16.23-13.78,17.21-24.6l4.43-4.43c-1.48,.49-2.95,1.47-4.43,2.46v-.49c0-1.48,0-2.96-.49-3.94-.04-.3-.09-.59-.14-.88"/><path class="cls-4" d="M299.69,221.44c0-2.46,.98-3.94,3.44-3.94s3.44,1.48,3.44,3.94v3.94h-6.89v-3.94Zm10.33,7.38v-6.89c0-4.92-2.46-7.87-7.38-7.87-3.94-.49-7.38,2.46-7.38,6.4v14.27c-.49,3.94,1.97,7.38,5.91,7.87h1.48c4.92,0,7.38-2.95,7.38-7.87v-2.95h-3.94v3.44c0,2.46-.98,3.94-3.44,3.94s-3.44-1.48-3.44-3.94v-6.4h10.83Z"/><path class="cls-4" d="M285.42,213.57c-2.95-.49-5.91,1.97-6.4,4.92v4.92h4.92v-3.44c0-1.48,.99-2.46,1.97-2.46s1.48,.49,1.48,1.97v2.46c.49,1.97-.5,3.44-1.48,4.92l-2.96,2.95c-2.46,1.97-3.94,4.43-3.94,7.38v5.41h12.3v-3.94h-7.38v-1.47c0-1.48,.49-3.45,1.97-4.43l2.95-2.95c1.97-1.97,2.95-4.43,2.95-7.38v-2.95c0-3.94-1.97-5.91-6.4-5.91"/><path class="cls-4" d="M267.21,224.89c0,2.46-.98,4.92-3.94,4.92s-3.94-1.97-3.94-4.92v-24.6c0-2.95,1.48-4.92,3.94-4.92s3.94,1.97,3.94,4.92v24.6Zm-3.94-35.92c-5.91-.49-11.32,3.94-11.81,10.33v24.6c-.5,6.4,4.43,12.3,10.82,12.3s12.3-4.43,12.3-10.82v-23.62c.98-5.9-3.44-11.81-9.35-12.3-.5-.49-1.48-.49-1.97-.49"/><path class="cls-4" d="M235.72,188.97c-5.91-.49-11.32,3.94-11.81,10.33v24.6c-.98,5.91,3.45,11.32,9.35,12.3h2.46c8.37,0,10.83-4.92,10.83-11.32v-7.87h-6.89v7.87c0,2.95-.99,4.43-3.94,4.43s-3.94-1.97-3.94-4.92v-24.6c0-2.96,.98-4.92,3.94-4.92s3.94,1.48,3.94,4.43v5.91h6.89v-4.92c0-6.4-2.46-11.32-10.83-11.32"/><path class="cls-4" d="M429.6,423.2h-.49l-.99,.5c-12.3,6.4-51.17,21.16-86.12-12.3-.49-.5-1.47-.98-1.97-.98s-1.48,.49-1.97,.98c-10.33,8.36-58.56,40.84-101.37,.49h-.98c-.49-.49-.98-.49-1.48-.49s-.98,.49-1.47,.49l-.49,.49c-42.82,39.86-91.04,7.38-101.38-.49-.49-.49-.98-.98-1.97-.98-.5,0-1.48,.5-1.97,.98-34.94,33.46-73.81,18.21-86.12,12.3l-.99-.49h-.49c-1.47,0-2.46,.98-2.46,2.46v16.73c0,.5,0,1.48,.49,1.48,40.36,35.43,78.74,2.46,87.6-6.4q.49-.49,.98-.98c.5,0,.5-.49,.99-.49s1.47,.49,1.47,.99c45.77,43.79,93.99,8.37,103.84,0l.98-.99c0-.49,.49-.49,.98-.49s.5,.49,.99,.49l.98,.99c9.84,8.37,58.07,43.79,103.84,0,.49-.5,.98-.5,1.48-.5s.98,0,1.48,.5c.49,0,.49,.49,.49,.49,9.35,8.37,47.73,41.34,88.58,6.4,.5-.49,.98-.98,.98-1.48v-16.73c-.49-1.97-1.97-2.96-3.44-2.96"/><path class="cls-4" d="M429.6,484.23h-.49l-.99,.49c-12.3,6.4-51.17,21.16-86.12-12.3-.49-.49-1.47-.98-1.97-.98s-.98,.5-1.97,.98c-10.33,8.37-58.56,40.36-101.37,.5l-.49-.5c-.49-.49-.98-.49-1.47-.49s-.99,0-1.48,.49l-.49,.5c-42.82,39.86-91.04,7.38-101.37-.5-.5-.49-.99-.98-1.97-.98s-1.48,.5-1.97,.98c-34.94,33.46-73.81,18.21-86.12,12.3l-.98-.49h-.5c-1.47,0-2.46,.98-2.46,2.46v16.73c0,.5,0,1.48,.5,1.48,40.35,35.43,79.23,2.46,88.08-6.4l.99-.98c.49,0,.49-.5,.98-.5s1.48,.5,1.48,.99c45.76,43.8,93.99,8.37,103.83,0l.98-.99s.5-.49,.99-.49,.49,0,.98,.49l.99,.99c9.84,8.37,58.06,43.8,103.83,0,.98-.49,1.97-.49,2.96,0,.49,0,.49,.49,.49,.49,8.86,8.86,47.24,41.83,87.59,6.4,.5-.5,.5-.98,.98-1.48v-16.73c-.98-.98-1.97-1.97-3.44-2.46"/></g></svg>