<?xml version="1.0" encoding="UTF-8"?><svg id="Capa_1" xmlns="http://www.w3.org/2000/svg" viewBox="0 0 467 568.37"><defs><style>.cls-1{fill:#006da3;}.cls-2{fill:#fff;}</style></defs><path class="cls-1" d="M4.92,80.7H461.59V4.92H4.92V80.7Zm462.08,4.92H0V0H466.51V85.62h.49Z"/><polygon class="cls-1" points="16.73 17.72 38.88 17.72 38.88 24.6 32.48 24.6 32.48 67.91 23.62 67.91 23.62 24.6 16.73 24.6 16.73 17.72"/><path class="cls-1" d="M49.21,52.16h6.89l-3.44-20.18-3.44,20.18Zm-10.33,15.75l9.35-50.19h9.35l9.84,50.19h-8.86l-1.48-9.35h-8.86l-1.48,9.35h-7.87Z"/><path class="cls-1" d="M80.21,24.6v15.75h2.95c2.95,0,3.94-1.48,3.94-3.94v-7.38c0-2.95-1.48-3.94-3.94-3.94h-2.95v-.49Zm0,20.18v23.13h-8.37V17.72h12.3c8.37,0,11.81,4.43,11.81,11.32v6.4c0,5.41-1.97,8.37-6.89,9.84l7.87,22.64h-8.86l-7.87-23.13Z"/><path class="cls-1" d="M113.67,41.34h11.81v26.57h-5.91v-5.41c-.98,3.94-3.44,5.91-7.87,5.91-7.38,0-10.33-5.91-10.33-13.29V31c0-7.87,3.94-13.29,12.79-13.29,9.35,0,11.81,5.41,11.81,12.79v4.43h-7.87v-4.92c0-2.95-.98-4.92-4.43-4.92-2.95,0-4.43,1.97-4.43,4.92v27.07c0,2.95,1.48,4.92,3.94,4.92,2.95,0,3.94-1.48,3.94-4.92v-9.35h-3.94v-6.4h.49Z"/><polygon class="cls-1" points="132.37 17.72 152.55 17.72 152.55 24.6 140.74 24.6 140.74 38.88 149.11 38.88 149.11 45.77 140.74 45.77 140.74 61.02 152.55 61.02 152.55 67.91 132.37 67.91 132.37 17.72"/><polygon class="cls-1" points="156.49 17.72 178.63 17.72 178.63 24.6 171.74 24.6 171.74 67.91 163.38 67.91 163.38 24.6 156.49 24.6 156.49 17.72"/><g><rect class="cls-1" y="101.86" width="466.51" height="466.51"/><path class="cls-2" d="M336.1,435.01v-.49c0-.49-.49-.98-.49-.98l-.49-.98-.49-.98-.49-.49-.98-.98-18.21-19.68c-2.46-2.46-.49-3.94-.49-3.94l15.75-16.24-24.6-25.1s-15.75,16.24-22.64,22.64c-5.91,5.91-5.91,15.25,0,21.16l35.43,35.43c1.97,1.97,4.43,2.95,7.38,2.95h1.48l1.48-.49c4.43-1.48,7.38-5.41,7.38-9.84v-.49s.49-.49,0-1.48"/><path class="cls-2" d="M373.99,365.14l-24.6,25.1,15.75,16.24s1.48,1.48-.49,3.94l-18.21,19.68-.98,1.48-.49,.49-.49,.49-.49,.98c0,.49-.49,.98-.49,.98v3.44c0,4.43,2.95,8.37,7.38,9.84l1.48,.49h1.48c2.95,0,5.41-.98,7.38-2.95l35.43-35.43c5.91-5.91,5.91-15.26,0-21.16-6.4-7.38-22.64-23.62-22.64-23.62"/><path class="cls-2" d="M418.28,344.96q0-.49-.49-.98c-.49-.98-.98-1.97-1.97-2.95,0,0-41.83-41.83-47.24-47.24-1.97-1.97-4.43-3.44-7.38-3.44h-42.81c-2.95,0-5.41,.98-7.38,3.44-4.92,4.92-47.24,47.24-47.24,47.24-.98,.98-1.48,1.97-1.97,2.95,0,.49-.49,.49-.49,.98-.49,.98-.49,1.97-.49,3.44,0,5.41,4.92,9.84,10.33,9.35,1.48,0,3.44-.49,4.92-1.48l.98-.98,1.48-1.48,23.62-24.6s3.94-3.94,4.43,.49v22.14h66.43v-21.65c.98-3.94,4.43-.49,4.43-.49l23.62,24.6,1.48,1.48,.98,.98c4.92,2.95,10.83,.98,13.29-3.44,.98-1.48,1.48-2.95,1.48-4.43,.49-1.48,.49-2.95,0-3.94"/><path class="cls-2" d="M339.55,283.45c16.73,0,30.51-13.78,30.51-30.51s-13.78-30.51-30.51-30.51-30.51,13.78-30.51,30.51c.49,16.73,13.78,30.51,30.51,30.51"/><polygon class="cls-2" points="66.43 263.27 58.07 263.27 58.07 429.11 176.66 429.11 176.66 419.27 66.43 419.27 66.43 263.27"/><path class="cls-2" d="M180.11,330.69c0,.49-.49,.49-.98,.49H91.04c-.49,0-.98-.49-.98-.49v-13.78c0-.49,.49-.49,.98-.49h87.59c.49,0,.98,0,.98,.49l.49,13.78Zm0,25.1c0,.49-.49,.49-.98,.49H91.04c-.49,0-.98,0-.98-.49v-13.78c0-.49,.49-.49,.98-.49h87.59c.49,0,.98,.49,.98,.49l.49,13.78Zm0,26.08c0,.49-.49,.49-.98,.49H91.04c-.49,0-.98-.49-.98-.49v-13.78c0-.49,.49-.49,.98-.49h87.59c.49,0,.98,0,.98,.49l.49,13.78Zm14.27-138.77H75.78v165.84h118.6V243.1Z"/><path class="cls-2" d="M232.76,249.99c-.49-4.92-4.43-8.37-9.35-7.87-4.43,.49-7.38,3.94-7.87,7.87v8.86h17.22v-8.86Z"/><polygon class="cls-2" points="217.01 380.88 215.05 380.88 223.41 409.42 232.27 380.88 229.81 380.88 232.27 380.88 232.76 265.24 230.79 265.24 228.33 265.24 226.36 265.24 221.94 265.24 219.97 265.24 217.51 265.24 215.54 265.24 215.05 380.88 217.01 380.88"/></g><polygon class="cls-1" points="364.15 17.72 364.15 67.91 355.79 67.91 355.79 29.53 349.88 35.43 349.88 27.07 357.75 17.72 364.15 17.72"/><path class="cls-1" d="M387.77,56.59v-8.86c0-3.44-.98-4.92-3.94-4.92-2.46,0-3.94,1.97-3.94,4.43v9.35c0,2.95,.98,4.92,3.94,4.92,2.46,0,3.94-1.48,3.94-4.92m-16.24-1.48V30.51c0-7.87,3.44-13.29,12.3-13.29,9.35,0,11.81,5.41,11.81,12.79v2.46h-7.87v-3.44c0-2.95-.98-4.92-3.94-4.92s-3.94,1.97-3.94,4.92v10.83c1.48-2.46,3.44-3.94,6.89-3.94,5.91,0,9.35,3.94,9.35,12.3v7.38c0,7.87-3.44,12.79-12.3,12.79s-12.3-5.41-12.3-13.29"/><path class="cls-1" d="M409.42,36.91c3.44,0,5.91,2.95,5.91,5.91,0,3.44-2.95,5.91-5.91,5.91-3.44,0-5.91-2.95-5.91-5.91s2.95-5.91,5.91-5.91"/><path class="cls-1" d="M431.57,29.03v8.86c0,3.44,.98,4.92,3.94,4.92,2.46,0,3.94-1.97,3.94-4.43v-9.35c0-2.95-.98-4.92-3.94-4.92s-3.94,1.97-3.94,4.92m16.24,1.48v24.11c0,7.87-3.44,13.29-12.3,13.29-9.35,0-11.81-4.92-11.81-12.3v-2.46h7.87v3.44c0,2.95,.98,4.92,3.94,4.92s4.43-1.97,4.43-4.92v-10.83c-1.48,2.46-3.44,3.94-6.89,3.94-5.91,0-9.35-3.94-9.35-12.3v-7.38c0-7.87,3.44-12.79,12.3-12.79,8.37,0,11.81,5.91,11.81,13.29"/></svg>