<?xml version="1.0" encoding="UTF-8"?><svg id="Capa_1" xmlns="http://www.w3.org/2000/svg" viewBox="0 0 467 568.37"><defs><style>.cls-1{fill:#010101;}.cls-2{fill:#fff;}.cls-3{fill:#48ad37;}</style></defs><path class="cls-3" d="M4.92,80.7H461.59V4.92H4.92V80.7Zm462.08,4.92H0V0H466.51V85.62h.49Z"/><polygon class="cls-3" points="16.73 17.72 38.88 17.72 38.88 24.6 32.48 24.6 32.48 67.91 23.62 67.91 23.62 24.6 16.73 24.6 16.73 17.72"/><path class="cls-3" d="M49.21,52.16h6.89l-3.44-20.18-3.44,20.18Zm-10.33,15.75l9.35-50.19h9.35l9.84,50.19h-8.86l-1.48-9.35h-8.86l-1.48,9.35h-7.87Z"/><path class="cls-3" d="M80.21,24.6v15.75h2.95c2.95,0,3.94-1.48,3.94-3.94v-7.38c0-2.95-1.48-3.94-3.94-3.94h-2.95v-.49Zm0,20.18v23.13h-8.37V17.72h12.3c8.37,0,11.81,4.43,11.81,11.32v6.4c0,5.41-1.97,8.37-6.89,9.84l7.87,22.64h-8.86l-7.87-23.13Z"/><path class="cls-3" d="M113.67,41.34h11.81v26.57h-5.91v-5.41c-.98,3.94-3.44,5.91-7.87,5.91-7.38,0-10.33-5.91-10.33-13.29V31c0-7.87,3.94-13.29,12.79-13.29,9.35,0,11.81,5.41,11.81,12.79v4.43h-7.87v-4.92c0-2.95-.98-4.92-4.43-4.92-2.95,0-4.43,1.97-4.43,4.92v27.07c0,2.95,1.48,4.92,3.94,4.92,2.95,0,3.94-1.48,3.94-4.92v-9.35h-3.94v-6.4h.49Z"/><polygon class="cls-3" points="132.37 17.72 152.55 17.72 152.55 24.6 140.74 24.6 140.74 38.88 149.11 38.88 149.11 45.77 140.74 45.77 140.74 61.02 152.55 61.02 152.55 67.91 132.37 67.91 132.37 17.72"/><polygon class="cls-3" points="156.49 17.72 178.63 17.72 178.63 24.6 171.74 24.6 171.74 67.91 163.38 67.91 163.38 24.6 156.49 24.6 156.49 17.72"/><polygon class="cls-3" points="366.61 17.72 366.61 67.91 358.25 67.91 358.25 29.53 352.34 35.43 352.34 27.07 360.21 18.21 366.61 18.21 366.61 17.72"/><path class="cls-3" d="M397.12,44.78v12.3c0,6.89-3.44,11.32-11.81,11.32s-11.81-4.92-11.81-12.3v-5.91h7.87v6.4c0,2.95,.98,4.92,3.94,4.92,2.46,0,3.44-1.97,3.44-4.43v-12.3c0-2.95-.98-4.43-3.44-4.43s-3.94,1.48-3.94,4.43v.98h-7.87V17.72h22.14v6.89h-14.27v12.3c1.48-2.46,3.94-3.44,6.89-3.44,4.92,.49,8.86,3.44,8.86,11.32"/><path class="cls-3" d="M410.9,36.91c3.44,0,5.91,2.95,5.91,5.91,0,3.44-2.95,5.91-5.91,5.91-3.44,0-5.91-2.95-5.91-5.91s2.46-5.91,5.91-5.91"/><path class="cls-3" d="M447.81,28.54v4.43c0,4.43-2.46,6.89-5.91,8.37,4.43,.98,6.4,3.94,6.4,8.37v7.38c0,6.89-3.94,11.32-12.3,11.32s-11.81-4.92-11.81-12.3v-6.4h7.87v7.38c0,2.95,.98,4.92,3.94,4.92,2.46,0,3.94-1.97,3.94-4.43v-8.37c0-2.46-.98-3.94-3.94-3.94h-3.44v-6.4h2.95c2.95,0,4.43-1.48,4.43-3.94v-5.91c0-2.95-.98-4.43-3.44-4.43s-3.44,1.97-3.44,4.92v4.92h-7.87v-4.43c0-7.38,2.95-12.79,11.81-12.79,7.38,0,10.83,4.43,10.83,11.32"/><g><rect class="cls-3" x="0" y="101.86" width="466.51" height="466.51"/><path class="cls-1" d="M126.47,306.08c-.49,.49-.49,1.48,.49,1.97l13.29,9.84,15.25,11.32c-.49,15.75-.49,37.4,0,44.29,0,1.48,3.94,1.48,3.94,1.48h.98c1.48,0,4.43,0,4.92-1.48,.49-9.84-.98-48.72-1.48-59.05v-3.44l23.62-24.6c.49-.49,.98-1.48,0-2.46-.98-.98-1.48-.98-2.46,0l-5.41,5.91v-15.75c0-.98-.49-1.48-1.48-1.48s-1.97,1.48-2.46,2.46v19.19l-12.79,13.29-.98-22.14c-.49-9.84-.49-20.18-1.48-30.02,0,0,0-.49-.98-.49s-.98,.49-.98,.49c-.98,9.84-.49,19.68-.98,30.02l-9.84-9.84c-.49-.49-1.97-.49-2.46,.49-.49,.49-.49,1.48,0,1.97l2.95,2.95-6.89,2.46c-.98,.49-1.48,.98-.98,1.97,0,.49,.98,.98,1.48,.98h.49l8.37-2.95,6.89,6.89-1.48,25.1c0,2.46,0,5.91-.49,10.83l-12.3-9.35v-18.21c0-.98-.98-1.48-1.97-1.48-.49,0-.98,.49-1.48,1.48v15.26l-10.83-8.37c-.49-.49-1.48-.49-2.46,.49"/><path class="cls-1" d="M62.99,296.24h0l21.16,15.75c-.49,21.65-.98,51.67,0,61.51,0,1.97,5.41,1.97,5.41,1.97h1.48c1.97,0,6.4,0,6.4-1.97,.98-13.78-.98-67.91-1.97-81.69v-4.43l32.48-33.95c.98-.98,.98-2.46,0-3.44-.98-.98-2.46-.98-2.95,0l-8.37,8.37v-22.14c0-.98-.98-2.46-1.97-2.46-1.48,0-2.46,.98-2.46,2.46v27.07l-17.22,18.21-1.48-31c-.98-13.78-.98-28.05-1.97-41.83,0,0,0-.49-1.48-.49s-1.48,.98-1.48,.98c-.98,13.78-.98,27.56-1.97,41.83v.49l-13.78-14.27c-.98-.98-2.46-.98-2.95,0s-.98,2.46,0,2.95l3.94,3.94-9.84,3.44c-.98,.49-1.97,1.48-1.48,2.95,.49,.98,.98,1.48,1.97,1.48h.49l11.81-3.94,9.35,9.35-1.97,35.43c0,2.95-.49,8.37-.49,14.76l-17.22-13.78v-24.6c0-1.48-.98-2.46-2.46-2.46s-2.46,.98-2.46,2.46v21.16l-14.76-11.32c-.98-.49-2.46-.49-2.95,.98-.49,.98-.49,1.97,.49,2.95l18.7,13.29Z"/><rect class="cls-1" x="228.83" y="475.37" width="8.37" height="23.62"/><rect class="cls-1" x="228.83" y="518.67" width="8.37" height="23.13"/><rect class="cls-1" x="228.83" y="345.45" width="8.37" height="23.13"/><rect class="cls-1" x="228.83" y="215.54" width="8.37" height="23.13"/><rect class="cls-1" x="228.83" y="302.15" width="8.37" height="23.13"/><rect class="cls-1" x="228.83" y="258.84" width="8.37" height="23.62"/><rect class="cls-1" x="228.83" y="172.23" width="8.37" height="23.13"/><rect class="cls-1" x="228.83" y="128.93" width="8.37" height="23.13"/><path class="cls-1" d="M32.97,388.76c-.98,0-1.48,.49-1.48,1.48v20.18c0,.98,.98,1.48,1.48,1.48h34.94l-25.1,33.95,18.7,20.67-17.72,28.54,4.43,2.46,19.68-31.99-18.7-20.18,14.76-19.68,28.05,17.22,2.46-3.94-27.56-17.22,7.38-9.84h31l21.65,19.68-5.91,20.18-24.11,12.79,2.46,4.43,23.13-12.3,31,29.53,3.44-3.44-31.49-29.53,6.4-22.64-19.68-17.72h57.08l-20.18,29.53,39.86,13.29-13.29,44.78,4.92,1.48,7.87-26.08,18.7,6.4,1.48-4.43-19.19-6.89,5.91-19.19-38.38-12.79,18.7-27.07h57.08v-23.13H32.97Z"/><path class="cls-2" d="M434.03,388.76H232.76v23.13h200.78c.98,0,1.48-.49,1.48-1.48v-19.68c.49-.98,0-1.97-.98-1.97"/><path class="cls-2" d="M433.54,428.62H234.73c-.98,0-1.48,.49-1.48,1.48v20.18c0,.98,.98,1.48,1.48,1.48h198.81c.98,0,1.48-.49,1.48-1.48v-20.18c0-.98-.98-1.48-1.48-1.48"/><path class="cls-2" d="M319.37,333.64h10.83v40.84c0,.98,.49,1.48,1.48,1.48h18.7c.98,0,1.48-.49,1.48-1.48v-41.34h19.19c15.25,0,27.07-12.3,27.07-27.56,0-6.89-2.46-13.78-7.38-18.7,12.3-6.89,16.24-22.64,9.35-34.94-4.92-7.38-13.29-12.3-22.14-12.3h-1.48c-1.48-19.19-18.21-32.97-36.91-31.49-18.7,1.48-32.97,18.21-31.49,36.91,.49,4.43,1.48,8.37,3.44,12.3-20.67,4.43-33.95,25.1-29.53,45.77,3.44,17.72,19.19,30.51,37.4,30.51"/></g></svg>