<?xml version="1.0" encoding="UTF-8"?><svg id="Capa_1" xmlns="http://www.w3.org/2000/svg" viewBox="0 0 467 568.37"><defs><style>.cls-1{fill:#006da3;}.cls-2{fill:#fff;}</style></defs><path class="cls-1" d="M4.92,80.7H461.59V4.92H4.92V80.7Zm462.08,4.92H0V0H466.51V85.62h.49Z"/><polygon class="cls-1" points="16.73 17.72 38.88 17.72 38.88 24.6 32.48 24.6 32.48 67.91 23.62 67.91 23.62 24.6 16.73 24.6 16.73 17.72"/><path class="cls-1" d="M49.21,52.16h6.89l-3.44-20.18-3.44,20.18Zm-10.33,15.75l9.35-50.19h9.35l9.84,50.19h-8.86l-1.48-9.35h-8.86l-1.48,9.35h-7.87Z"/><path class="cls-1" d="M80.21,24.6v15.75h2.95c2.95,0,3.94-1.48,3.94-3.94v-7.38c0-2.95-1.48-3.94-3.94-3.94h-2.95v-.49Zm0,20.18v23.13h-8.37V17.72h12.3c8.37,0,11.81,4.43,11.81,11.32v6.4c0,5.41-1.97,8.37-6.89,9.84l7.87,22.64h-8.86l-7.87-23.13Z"/><path class="cls-1" d="M113.67,41.34h11.81v26.57h-5.91v-5.41c-.98,3.94-3.44,5.91-7.87,5.91-7.38,0-10.33-5.91-10.33-13.29V31c0-7.87,3.94-13.29,12.79-13.29,9.35,0,11.81,5.41,11.81,12.79v4.43h-7.87v-4.92c0-2.95-.98-4.92-4.43-4.92-2.95,0-4.43,1.97-4.43,4.92v27.07c0,2.95,1.48,4.92,3.94,4.92,2.95,0,3.94-1.48,3.94-4.92v-9.35h-3.94v-6.4h.49Z"/><polygon class="cls-1" points="132.37 17.72 152.55 17.72 152.55 24.6 140.74 24.6 140.74 38.88 149.11 38.88 149.11 45.77 140.74 45.77 140.74 61.02 152.55 61.02 152.55 67.91 132.37 67.91 132.37 17.72"/><polygon class="cls-1" points="156.49 17.72 178.63 17.72 178.63 24.6 171.74 24.6 171.74 67.91 163.38 67.91 163.38 24.6 156.49 24.6 156.49 17.72"/><polygon class="cls-1" points="365.63 17.72 365.63 67.91 357.26 67.91 357.26 29.53 351.36 35.43 351.36 27.07 359.23 18.21 365.63 18.21 365.63 17.72"/><path class="cls-1" d="M388.76,56.59v-8.86c0-3.44-.98-4.92-3.94-4.92-2.46,0-3.94,1.97-3.94,4.43v9.35c0,2.95,.98,4.92,3.94,4.92s3.94-1.48,3.94-4.92m-16.24-1.48V30.51c0-7.87,3.44-13.29,12.3-13.29,9.35,0,11.81,5.41,11.81,12.79v2.46h-7.87v-3.44c0-2.95-.98-4.92-3.94-4.92s-3.94,1.97-3.94,4.92v10.83c1.48-2.46,3.44-3.94,6.89-3.94,5.91,0,9.35,3.94,9.35,12.3v7.38c0,7.87-3.44,12.79-12.3,12.79s-12.3-5.41-12.3-13.29"/><path class="cls-1" d="M410.9,36.91c3.44,0,5.91,2.95,5.91,5.91,0,3.44-2.95,5.91-5.91,5.91-3.44,0-5.91-2.95-5.91-5.91s2.46-5.91,5.91-5.91"/><path class="cls-1" d="M447.81,28.54v4.43c0,4.43-2.46,6.89-5.91,8.37,4.43,.98,6.4,3.94,6.4,8.37v7.38c0,6.89-3.94,11.32-12.3,11.32s-11.81-4.92-11.81-12.3v-6.4h7.87v7.38c0,2.95,.98,4.92,3.94,4.92,2.46,0,3.94-1.97,3.94-4.43v-8.37c0-2.46-.98-3.94-3.94-3.94h-3.44v-6.4h2.95c2.95,0,4.43-1.48,4.43-3.94v-5.91c0-2.95-.98-4.43-3.44-4.43s-3.44,1.97-3.44,4.92v4.92h-7.87v-4.43c0-7.38,2.95-12.79,11.81-12.79,7.38,0,10.83,4.43,10.83,11.32"/><g><rect class="cls-1" x="0" y="101.86" width="466.51" height="466.51"/><path class="cls-2" d="M382.85,375.47c0,7.38,5.91,13.78,13.78,13.78s13.78-5.91,13.78-13.78c0-7.38-5.91-13.78-13.78-13.78-7.87,.49-13.78,6.4-13.78,13.78"/><path class="cls-2" d="M412.38,394.66h-31.99c-9.35,.98-16.73,8.86-16.73,18.21v37.89c-.49,2.95,1.97,5.41,4.92,5.91,2.95,.49,5.41-1.97,5.91-4.92v-33.46c0-.98,.49-2.95,2.46-2.95s1.97,1.48,1.97,2.46v97.44c.49,4.43,3.94,7.38,8.37,6.89,3.94-.49,6.89-3.44,6.89-6.89v-56.1c0-.98,.98-1.97,1.97-2.46,.98,0,1.97,.98,1.97,1.97v56.59c0,4.43,3.44,7.38,7.87,7.38s7.38-3.44,7.38-7.38v-97.44c0-.98,.49-2.46,1.97-2.46s2.46,1.48,2.46,2.95v32.48c0,2.95,2.46,5.41,5.41,5.41s5.41-2.46,5.41-5.41v-37.89c.49-9.35-6.89-17.22-16.24-18.21"/><path class="cls-2" d="M268.68,382.85c0,6.89,5.91,12.79,12.79,12.79s12.79-5.91,12.79-12.79-5.91-12.79-12.79-12.79-12.79,5.91-12.79,12.79"/><path class="cls-2" d="M297.23,419.76c1.48-.49,1.97,1.97,1.97,1.97l8.86,29.03s1.48,6.4,6.89,4.43c5.41-1.97,3.44-7.87,3.44-7.87l-10.83-34.94s-3.94-9.84-12.3-9.84h-27.56c-8.37,0-12.3,9.84-12.3,9.84l-10.83,34.94s-1.97,6.4,3.44,7.87c5.41,1.48,6.89-4.43,6.89-4.43l8.86-29.03s.49-2.46,1.97-1.97c1.48,.49,.98,2.95,.98,2.95l-15.25,54.62h13.78v39.37c-.49,3.94,2.46,6.89,5.91,7.38,3.94,.49,6.89-2.46,7.38-5.91v-40.35h3.94v39.37c-.49,3.94,2.46,6.89,5.91,7.38,3.94,.49,6.89-2.46,7.38-5.91v-40.35h13.78l-15.26-54.62c1.48-.98,.98-3.44,2.95-3.94"/><path class="cls-2" d="M191.43,382.85c0,7.38,5.91,12.79,12.79,12.79,7.38,0,12.79-5.91,12.79-12.79,0-7.38-5.91-12.79-12.79-12.79s-12.79,5.41-12.79,12.79"/><path class="cls-2" d="M230.3,411.88s-3.94-9.84-12.3-9.84h-27.56c-8.37,0-12.3,9.84-12.3,9.84l-10.83,34.94s-1.97,6.4,3.44,7.87c5.41,1.48,6.89-4.43,6.89-4.43l8.86-29.03s.49-2.46,1.97-1.97c1.48,.49,.98,2.95,.98,2.95l-15.25,54.62h13.78v39.37c-.49,3.94,2.46,6.89,5.91,7.38,3.94,.49,6.89-2.46,7.38-5.91v-40.35h3.94v39.37c-.49,3.94,2.46,6.89,5.91,7.38,3.94,.49,6.89-2.46,7.38-5.91v-40.35h13.78l-15.25-54.62s-.49-2.46,.98-2.95c1.48-.49,1.97,1.97,1.97,1.97l8.86,29.03s1.48,6.4,6.89,4.43c5.41-1.97,3.44-7.87,3.44-7.87l-8.86-35.92Z"/><path class="cls-2" d="M80.21,390.72c7.38,0,13.29-5.91,13.29-13.78,0-7.38-5.91-13.29-13.78-13.29-7.38,0-13.29,5.91-13.29,13.78,0,7.38,6.4,13.29,13.78,13.29"/><path class="cls-2" d="M95.96,396.14h-31.49c-9.35,.98-16.73,8.37-16.73,18.21v36.91c0,1.48,.98,2.95,1.97,3.94l-11.81,63.48c0,.98,.49,1.97,1.48,2.46h.49c.98,0,1.97-.49,1.97-1.48l11.81-62.99c2.46-.49,4.43-2.46,4.43-4.92v-32.48c0-.98,.49-2.95,2.46-2.95s1.97,1.48,1.97,2.46v96.45c0,3.94,3.44,7.38,7.38,7.38s7.38-3.44,7.38-7.38v-55.11c0-.98,.98-1.97,1.97-1.97h.49c.98,0,1.97,.98,1.97,1.97v56.1c.49,3.94,3.94,7.38,8.37,6.89,3.94-.49,6.89-3.44,6.89-6.89v-96.94c0-.98,.49-2.46,1.97-2.46s2.46,1.48,2.46,2.95v31.49c-.49,2.95,1.97,5.41,4.92,5.91,2.95,.49,5.41-1.97,5.91-4.92v-38.38c0-8.86-6.89-16.73-16.24-17.72"/><path class="cls-2" d="M327.74,443.38c0,5.91,4.92,10.83,10.83,10.83s10.83-4.92,10.83-10.83-4.92-10.83-10.83-10.83c-5.91-.49-10.83,4.43-10.83,10.83"/><path class="cls-2" d="M361.2,475.37c-6.4-17.22-7.87-16.73-13.78-17.22h-16.73c-5.91,0-6.89,0-13.78,17.22-.98,2.46-4.92,11.81-4.92,12.3s-1.48,3.94,1.97,5.41c3.44,1.48,4.43-2.95,4.43-2.95l6.89-16.73s0-.49,.49-.49,0,.49,0,.49v43.3c0,2.95,2.46,5.91,5.41,5.91s5.41-2.46,5.41-5.41v-17.72s0-2.46,1.48-2.46,1.48,2.46,1.48,2.46v17.22c0,2.95,2.46,5.91,5.41,5.91s5.41-2.46,5.41-5.41v-44.29l.49,.49,5.91,14.76s1.97,3.94,4.92,2.46c2.95-1.48,1.48-4.92,1.48-4.92,0,0-1.48-7.87-1.97-10.33"/><path class="cls-2" d="M161.9,447.81c-1.97-.98-4.43,0-5.41,1.97-1.97,3.44-4.43,6.89-6.89,10.33-.98,.98-1.97,1.48-3.44,1.48h-13.29c-1.48,0-2.46-.49-3.44-1.48-1.48-1.48-6.89-10.83-6.89-10.83-.49-.98-1.97-1.97-3.44-1.97-1.97,0-3.94,1.97-3.94,3.94,0,.49,0,.98,.49,1.48l10.83,19.68c.49,.98,.49,1.48,.49,2.46v2.95c0,.98,0,2.46-.49,3.44l-5.41,20.67h5.91v15.26c.49,2.95,2.95,4.92,5.91,4.92,2.46,0,4.43-2.46,4.92-4.92v-15.26h3.44v15.26c.49,2.95,2.95,4.92,5.91,4.92,2.46,0,4.43-2.46,4.92-4.92v-15.26h5.91l-5.41-20.67c-.49-.98-.49-1.97-.49-2.95v-3.94c0-.98,.49-1.97,.49-2.46l9.84-18.21,.98-1.97c.98-.98,.49-2.95-1.48-3.94"/><path class="cls-2" d="M139.76,454.7c5.91,0,10.83-4.92,10.83-10.83s-4.92-10.83-10.83-10.83-10.83,4.92-10.83,10.83,4.92,10.83,10.83,10.83"/><path class="cls-2" d="M266.72,262.29l29.53-78.24,29.53,78.24h-59.05Zm-66.93,0h-58.56l30.02-78.24,28.54,78.24Zm137.79,1.97h0l-37.4-99.4c-.49-.98-.98-1.48-1.97-1.48h-60.04v-15.75h-11.32v15.25h-57.58c-.98,0-1.48,.49-1.97,1.48l-38.38,99.4v.98c0,21.16,18.7,38.38,41.83,38.38s41.83-17.22,41.83-38.38v-.98l-32.97-90.05h48.23l.98,136.8h-34.94v11.32h81.2v-11.32h-35.43l-.98-136.8h50.19l-33.46,89.56v.98c0,21.16,18.7,38.38,41.83,38.38s40.84-16.73,40.35-38.38c.49,.49,0,0,0,0"/></g></svg>