<?xml version="1.0" encoding="UTF-8"?><svg id="Capa_1" xmlns="http://www.w3.org/2000/svg" viewBox="0 0 467 568.37"><defs><style>.cls-1{fill:#f49400;}.cls-2{fill:#fff;}</style></defs><path class="cls-1" d="M4.92,80.7H461.59V4.92H4.92V80.7Zm462.08,4.92H0V0H466.51V85.62h.49Z"/><polygon class="cls-1" points="16.73 17.72 38.88 17.72 38.88 24.6 32.48 24.6 32.48 67.91 23.62 67.91 23.62 24.6 16.73 24.6 16.73 17.72"/><path class="cls-1" d="M49.21,52.16h6.89l-3.44-20.18-3.44,20.18Zm-10.33,15.75l9.35-50.19h9.35l9.84,50.19h-8.86l-1.48-9.35h-8.86l-1.48,9.35h-7.87Z"/><path class="cls-1" d="M80.21,24.6v15.75h2.95c2.95,0,3.94-1.48,3.94-3.94v-7.38c0-2.95-1.48-3.94-3.94-3.94h-2.95v-.49Zm0,20.18v23.13h-8.37V17.72h12.3c8.37,0,11.81,4.43,11.81,11.32v6.4c0,5.41-1.97,8.37-6.89,9.84l7.87,22.64h-8.86l-7.87-23.13Z"/><path class="cls-1" d="M113.67,41.34h11.81v26.57h-5.91v-5.41c-.98,3.94-3.44,5.91-7.87,5.91-7.38,0-10.33-5.91-10.33-13.29V31c0-7.87,3.94-13.29,12.79-13.29,9.35,0,11.81,5.41,11.81,12.79v4.43h-7.87v-4.92c0-2.95-.98-4.92-4.43-4.92-2.95,0-4.43,1.97-4.43,4.92v27.07c0,2.95,1.48,4.92,3.94,4.92,2.95,0,3.94-1.48,3.94-4.92v-9.35h-3.94v-6.4h.49Z"/><polygon class="cls-1" points="132.37 17.72 152.55 17.72 152.55 24.6 140.74 24.6 140.74 38.88 149.11 38.88 149.11 45.77 140.74 45.77 140.74 61.02 152.55 61.02 152.55 67.91 132.37 67.91 132.37 17.72"/><polygon class="cls-1" points="156.49 17.72 178.63 17.72 178.63 24.6 171.74 24.6 171.74 67.91 163.38 67.91 163.38 24.6 156.49 24.6 156.49 17.72"/><polygon class="cls-1" points="384.33 17.72 384.33 67.91 375.96 67.91 375.96 29.53 370.06 35.43 370.06 27.07 377.93 18.21 384.33 18.21 384.33 17.72"/><polygon class="cls-1" points="404.5 17.72 404.5 67.91 396.14 67.91 396.14 29.53 390.23 35.43 390.23 27.07 398.11 18.21 404.5 18.21 404.5 17.72"/><path class="cls-1" d="M419.76,36.91c3.44,0,5.91,2.95,5.91,5.91,0,3.44-2.95,5.91-5.91,5.91-3.44,0-5.91-2.95-5.91-5.91-.49-2.95,2.46-5.91,5.91-5.91"/><polygon class="cls-1" points="446.82 17.72 446.82 67.91 438.46 67.91 438.46 29.53 432.55 35.43 432.55 27.07 440.43 18.21 446.82 18.21 446.82 17.72"/><g><rect class="cls-1" x="0" y="101.86" width="466.51" height="466.51"/><path class="cls-2" d="M262.78,193.39c0,.49-.49,.98-.98,.98h-19.68c-.49,0-.98-.49-.98-.98v-21.65c0-.49,.49-.98,.98-.98h19.68c.49,0,.98,.49,.98,.98v21.65Zm0,41.83c0,.49-.49,.98-.98,.98h-19.68c-.49,0-.98-.49-.98-.98v-21.65c0-.49,.49-.98,.98-.98h19.68c.49,0,.98,.49,.98,.98v21.65Zm0,41.34c0,.49-.49,.98-.98,.98h-19.68c-.49,0-.98-.49-.98-.98v-21.65c0-.49,.49-.98,.98-.98h19.68c.49,0,.98,.49,.98,.98v21.65Zm0,41.83c0,.49-.49,.98-.98,.98h-19.68c-.49,0-.98-.49-.98-.98v-21.65c0-.49,.49-.98,.98-.98h19.68c.49,0,.98,.49,.98,.98v21.65Zm0,41.83c0,.49-.49,.98-.98,.98h-19.68c-.49,0-.98-.49-.98-.98v-21.65c0-.49,.49-.98,.98-.98h19.68c.49,0,.98,.49,.98,.98v21.65Zm0,41.34c0,.49-.49,.98-.98,.98h-19.68c-.49,0-.98-.49-.98-.98v-21.65c0-.49,.49-.98,.98-.98h19.68c.49,0,.98,.49,.98,.98v21.65Zm-30.02-208.16c0,.49-.49,.98-.98,.98h-19.68c-.49,0-.98-.49-.98-.98v-21.65c0-.49,.49-.98,.98-.98h19.68c.49,0,.98,.49,.98,.98v21.65Zm0,41.83c0,.49-.49,.98-.98,.98h-19.68c-.49,0-.98-.49-.98-.98v-21.65c0-.49,.49-.98,.98-.98h19.68c.49,0,.98,.49,.98,.98v21.65Zm0,41.34c0,.49-.49,.98-.98,.98h-19.68c-.49,0-.98-.49-.98-.98v-21.65c0-.49,.49-.98,.98-.98h19.68c.49,0,.98,.49,.98,.98v21.65Zm0,41.83c0,.49-.49,.98-.98,.98h-19.68c-.49,0-.98-.49-.98-.98v-21.65c0-.49,.49-.98,.98-.98h19.68c.49,0,.98,.49,.98,.98v21.65Zm0,41.83c0,.49-.49,.98-.98,.98h-19.68c-.49,0-.98-.49-.98-.98v-21.65c0-.49,.49-.98,.98-.98h19.68c.49,0,.98,.49,.98,.98v21.65Zm-30.02-166.82c0,.49-.49,.98-.98,.98h-19.68c-.49,0-.98-.49-.98-.98v-21.65c0-.49,.49-.98,.98-.98h19.68c.49,0,.98,.49,.98,.98v21.65Zm0,41.83c0,.49-.49,.98-.98,.98h-19.68c-.49,0-.98-.49-.98-.98v-21.65c0-.49,.49-.98,.98-.98h19.68c.49,0,.98,.49,.98,.98v21.65Zm0,41.34c0,.49-.49,.98-.98,.98h-19.68c-.49,0-.98-.49-.98-.98v-21.65c0-.49,.49-.98,.98-.98h19.68c.49,0,.98,.49,.98,.98v21.65Zm0,41.83c0,.49-.49,.98-.98,.98h-19.68c-.49,0-.98-.49-.98-.98v-21.65c0-.49,.49-.98,.98-.98h19.68c.49,0,.98,.49,.98,.98v21.65Zm0,41.34c0,.49-.49,.98-.98,.98h-19.68c-.49,0-.98-.49-.98-.98v-21.65c0-.49,.49-.98,.98-.98h19.68c.49,0,.98,.49,.98,.98v21.65Zm0,41.83c0,.49-.49,.98-.98,.98h-19.68c-.49,0-.98-.49-.98-.98v-21.65c0-.49,.49-.98,.98-.98h19.68c.49,0,.98,.49,.98,.98v21.65Zm66.43-244.57h-96.45c-1.48,0-2.46,.98-2.46,1.97V421.23c0,1.48,.98,2.46,1.97,2.46h37.4v-44.78h24.11v44.78h35.43c1.48,0,2.46-.98,2.46-1.97V159.44c0-1.48-.98-2.46-2.46-2.46"/><rect class="cls-2" x="34.45" y="448.3" width="92.51" height="27.56"/><rect class="cls-2" x="135.82" y="448.3" width="92.51" height="27.56"/><rect class="cls-2" x="236.7" y="448.3" width="92.51" height="27.56"/><rect class="cls-2" x="338.07" y="448.3" width="92.51" height="27.56"/><rect class="cls-2" x="34.45" y="487.18" width="396.14" height="27.56"/><path class="cls-2" d="M84.15,401.55h-22.14v-22.64h22.14v22.64Zm60.53,22.14s.49-.49,0,0l.49-66.93q0-.49-.49-.49H43.8q-.49,0-.49,.49v66.43q0,.49,.49,.49h58.07v-44.78h24.11v44.78h18.7Z"/><path class="cls-2" d="M36.91,350.87h114.66q.49,0,.49-.49v-.49l-57.58-50.69-.49-.49c-.49-.49-.98-.49-1.48-.49s-.98,.49-1.48,.49l-.49,.49-54.13,50.69q-.49,.49,.49,.98"/><path class="cls-2" d="M404.01,405.98v17.22q0,.49,.49,.49h7.87q.49,0,.49-.49v-17.72c12.3-2.46,21.16-13.29,20.67-26.08,0-15.25-11.81-41.34-26.08-41.34s-25.59,25.59-25.59,41.34c-.98,13.29,8.86,24.6,22.14,26.57"/><path class="cls-2" d="M348.9,254.41c0,.49-.49,.98-.98,.98h-13.78c-.49,0-.98-.49-.98-.98v-15.25c0-.49,.49-.98,.98-.98h13.78c.49,0,.98,.49,.98,.98v15.25Zm0,35.92c0,.49-.49,.98-.98,.98h-13.78c-.49,0-.98-.49-.98-.98v-15.26c0-.49,.49-.98,.98-.98h13.78c.49,0,.98,.49,.98,.98v15.26Zm0,36.42c0,.49-.49,.98-.98,.98h-13.78c-.49,0-.98-.49-.98-.98v-15.26c0-.49,.49-.98,.98-.98h13.78c.49,0,.98,.49,.98,.98v15.26Zm0,36.42c0,.49-.49,.98-.98,.98h-13.78c-.49,0-.98-.49-.98-.98v-15.25c0-.49,.49-.98,.98-.98h13.78c.49,0,.98,.49,.98,.98v15.25Zm0,36.42c0,.49-.49,.98-.98,.98h-13.78c-.49,0-.98-.49-.98-.98v-15.25c0-.49,.49-.98,.98-.98h13.78c.49,0,.98,.49,.98,.98v15.25Zm-28.05-145.17c0,.49-.49,.98-.98,.98h-13.78c-.49,0-.98-.49-.98-.98v-15.25c0-.49,.49-.98,.98-.98h13.78c.49,0,.98,.49,.98,.98v15.25Zm0,35.92c0,.49-.49,.98-.98,.98h-13.78c-.49,0-.98-.49-.98-.98v-15.26c0-.49,.49-.98,.98-.98h13.78c.49,0,.98,.49,.98,.98v15.26Zm0,36.42c0,.49-.49,.98-.98,.98h-13.78c-.49,0-.98-.49-.98-.98v-15.26c0-.49,.49-.98,.98-.98h13.78c.49,0,.98,.49,.98,.98v15.26Zm0,36.42c0,.49-.49,.98-.98,.98h-13.78c-.49,0-.98-.49-.98-.98v-15.25c0-.49,.49-.98,.98-.98h13.78c.49,0,.98,.49,.98,.98v15.25Zm0,36.42c0,.49-.49,.98-.98,.98h-13.78c-.49,0-.98-.49-.98-.98v-15.25c0-.49,.49-.98,.98-.98h13.78c.49,0,.98,.49,.98,.98v15.25Zm36.91-190.44h-4.43v-14.27c2.46-.98,3.94-2.95,3.94-5.41,0-2.95-2.46-5.41-5.41-5.41s-5.41,2.46-5.41,5.41c0,2.46,1.48,4.43,3.94,5.41v14.27h-54.62c-.49,0-1.48,.49-1.48,.98v212.59c0,.49,.49,1.48,.98,1.48h62.5c.49,0,1.48-.49,1.48-.98V210.62c0-.98-.49-1.48-1.48-1.48"/></g></svg>