<?xml version="1.0" encoding="UTF-8"?><svg id="Capa_1" xmlns="http://www.w3.org/2000/svg" viewBox="0 0 467 568.37"><defs><style>.cls-1{fill:#00486e;}.cls-2{fill:#fff;}</style></defs><path class="cls-1" d="M4.92,80.7H461.59V4.92H4.92V80.7Zm462.08,4.92H0V0H466.51V85.62h.49Z"/><polygon class="cls-1" points="16.73 17.72 38.88 17.72 38.88 24.6 32.48 24.6 32.48 67.91 23.62 67.91 23.62 24.6 16.73 24.6 16.73 17.72"/><path class="cls-1" d="M49.21,52.16h6.89l-3.44-20.18-3.44,20.18Zm-10.33,15.75l9.35-50.19h9.35l9.84,50.19h-8.86l-1.48-9.35h-8.86l-1.48,9.35h-7.87Z"/><path class="cls-1" d="M80.21,24.6v15.75h2.95c2.95,0,3.94-1.48,3.94-3.94v-7.38c0-2.95-1.48-3.94-3.94-3.94h-2.95v-.49Zm0,20.18v23.13h-8.37V17.72h12.3c8.37,0,11.81,4.43,11.81,11.32v6.4c0,5.41-1.97,8.37-6.89,9.84l7.87,22.64h-8.86l-7.87-23.13Z"/><path class="cls-1" d="M113.67,41.34h11.81v26.57h-5.91v-5.41c-.98,3.94-3.44,5.91-7.87,5.91-7.38,0-10.33-5.91-10.33-13.29V31c0-7.87,3.94-13.29,12.79-13.29,9.35,0,11.81,5.41,11.81,12.79v4.43h-7.87v-4.92c0-2.95-.98-4.92-4.43-4.92-2.95,0-4.43,1.97-4.43,4.92v27.07c0,2.95,1.48,4.92,3.94,4.92,2.95,0,3.94-1.48,3.94-4.92v-9.35h-3.94v-6.4h.49Z"/><polygon class="cls-1" points="132.37 17.72 152.55 17.72 152.55 24.6 140.74 24.6 140.74 38.88 149.11 38.88 149.11 45.77 140.74 45.77 140.74 61.02 152.55 61.02 152.55 67.91 132.37 67.91 132.37 17.72"/><polygon class="cls-1" points="156.49 17.72 178.63 17.72 178.63 24.6 171.74 24.6 171.74 67.91 163.38 67.91 163.38 24.6 156.49 24.6 156.49 17.72"/><polygon class="cls-1" points="347.91 17.72 347.91 67.91 339.55 67.91 339.55 29.53 333.64 35.43 333.64 27.07 341.52 18.21 347.91 18.21 347.91 17.72"/><polygon class="cls-1" points="353.82 17.72 374.98 17.72 374.98 25.59 364.15 67.91 355.79 67.91 367.1 24.6 354.31 24.6 354.31 17.72 353.82 17.72"/><path class="cls-1" d="M388.76,36.91c3.44,0,5.91,2.95,5.91,5.91,0,3.44-2.95,5.91-5.91,5.91-3.44,0-5.91-2.95-5.91-5.91-.49-2.95,2.46-5.91,5.91-5.91"/><polygon class="cls-1" points="416.31 17.72 416.31 67.91 407.95 67.91 407.95 29.53 402.04 35.92 402.04 27.07 409.92 18.21 416.31 18.21 416.31 17.72"/><path class="cls-1" d="M439.44,32.48v-3.44c0-2.95-.98-4.92-3.94-4.92s-3.94,1.97-3.94,4.92v3.44c0,2.95,.98,4.92,3.94,4.92,2.95-.49,3.94-1.97,3.94-4.92m.49,24.11v-7.87c0-2.95-.98-4.92-3.94-4.92s-3.94,1.97-3.94,4.92v7.87c0,2.95,.98,4.92,3.94,4.92s3.94-1.97,3.94-4.92m-16.73-.98v-5.41c0-4.92,1.48-8.37,5.41-9.84-3.44-1.48-4.92-4.43-4.92-8.86v-1.97c0-7.87,3.94-11.81,11.81-11.81s11.81,4.43,11.81,11.81v1.97c0,3.94-1.48,6.89-4.92,8.86,3.94,1.97,5.41,5.41,5.41,9.84v5.41c0,7.38-3.44,12.79-12.3,12.79-8.37,0-12.3-4.92-12.3-12.79"/><g><rect class="cls-1" y="101.86" width="466.51" height="466.51"/><path class="cls-2" d="M345.45,435.51c.49-1.48,.49-2.95,.49-4.43,0-1.97-.49-4.43-.98-6.4l82.18-84.15c-.98,39.86-14.27,78.74-37.89,110.72-14.27-5.91-29.03-11.32-43.8-15.75m-87.59,92.51c25.1-11.32,46.75-39.37,61.51-77.75,1.97,.49,4.43,.98,6.4,.98,8.37,0,15.75-4.92,19.19-12.3,14.27,3.94,28.54,9.35,42.32,15.25-31.49,40.84-78.24,67.42-129.91,73.81h.49Zm-22.64-35.92c6.89-.98,11.81-6.4,12.3-13.29l61.02-36.42c1.97,2.95,4.43,4.92,7.38,6.4-18.7,48.23-48.23,79.72-81.2,81.2l.49-37.89Zm.49-68.89c23.13,.49,46.26,2.46,68.89,6.89v.98c0,2.46,.49,5.41,1.48,7.87l-59.54,35.92c-1.48-5.41-6.4-9.84-11.81-10.33l.98-41.34Zm0-58.56c6.89-.49,12.79-3.44,17.72-8.37l58.07,59.54c-2.95,2.46-4.92,5.91-5.91,9.84-23.13-4.43-46.75-6.4-69.88-6.89v-54.13Zm.49-114.66c23.62,0,47.73-1.97,71.35-5.41,.49,2.95,1.97,5.91,4.43,7.87l-58.56,63.97c-4.92-4.92-10.83-7.38-17.72-8.37l.49-58.07Zm0-45.76c5.41-.98,9.84-4.92,11.32-10.33l61.02,40.84c-.98,1.97-1.48,3.94-1.48,5.91-23.62,3.44-47.24,5.41-71.35,5.41l.49-41.83Zm0-61.02c33.46,1.48,62.99,34.45,80.7,84.15-2.46,.98-4.43,2.46-5.91,4.43l-62.99-41.34c-.49-6.4-4.92-12.3-11.81-13.29v-33.95Zm151.57,76.77c-16.73,6.4-33.95,11.32-51.18,15.25-2.46-5.41-7.87-9.35-13.78-9.35h-1.97c-14.27-39.86-36.42-69.39-62-81.2,51.18,6.89,97.93,33.95,128.93,75.29m-49.7,130.41c6.4-.49,11.81-5.91,12.3-12.79h73.81l-81.2,83.66c-2.95-4.92-7.38-8.37-12.79-9.84,4.43-20.18,6.89-40.35,7.87-61.02m-76.77-12.79h61.02c.49,6.4,5.41,11.81,11.81,12.79-.98,20.18-3.44,40.35-7.87,60.53h-.98c-3.94,0-7.87,.98-10.83,3.44l-59.05-60.53c3.94-4.92,5.91-10.33,5.91-16.24m67.91-82.67c2.46-.98,4.43-2.95,5.91-4.92l89.07,83.66h-73.81c-.98-5.91-5.91-10.83-12.3-11.32-.49-22.64-3.94-45.27-8.86-67.42m4.92,67.42c-5.91,.98-10.83,5.41-11.81,11.32h-61.02c-.49-5.41-2.46-10.33-5.91-14.27l59.54-64.96c2.46,1.48,4.92,1.97,7.38,1.97,.98,0,1.97,0,2.95-.49,5.41,22.14,8.37,44.29,8.86,66.43m93.01,8.86l-90.55-84.64c.49-1.97,.98-3.44,.98-5.41v-2.46c17.72-3.94,35.43-8.86,52.65-15.75,22.64,31.99,35.43,69.39,36.91,108.26M231.29,176.17c-6.89,.49-12.3,6.4-12.79,13.29l-59.05,37.4c-1.97-2.46-4.92-4.43-7.38-5.41,18.7-46.75,47.73-77.26,80.21-78.74l-.98,33.46Zm0,69.88c-22.14,0-43.8-1.97-65.45-5.41,0-3.94-.98-7.38-2.95-10.83l57.08-35.92c1.48,5.91,6.4,9.84,12.3,10.33l-.98,41.83Zm0,62c-4.92,0-9.35,1.48-13.29,4.43l-59.05-56.59c3.44-2.95,5.41-6.89,6.4-11.32,22.14,3.44,44.29,5.41,66.43,5.41l-.49,58.07Zm-.49,111.21c-23.62,0-47.24,1.97-70.86,5.91-.98-2.46-1.97-4.92-3.94-6.89l57.08-62c4.92,4.92,11.32,7.87,18.21,8.37l-.49,54.62Zm0,45.27c-5.91,.98-10.33,4.92-11.81,10.33l-60.04-36.42c1.48-2.46,1.97-4.92,1.97-7.87v-.98c23.13-3.94,46.75-5.91,69.88-5.91v40.84Zm0,65.45c-33.46-1.48-62.99-33.95-80.7-83.66,2.46-.98,4.92-2.95,6.89-4.92l62,37.4c.49,6.89,5.41,12.3,12.3,13.29l-.49,37.89Zm-151.57-76.77c15.75-6.89,32.48-12.3,49.21-16.73,2.46,6.4,8.86,10.83,15.75,10.83h2.46c14.27,39.86,35.92,69.39,61.51,81.2-51.18-6.89-97.93-33.95-128.93-75.29m-39.37-115.64l88.09,87.59c-.49,1.48-.98,3.44-.98,5.41v2.46c-17.22,4.43-34.45,10.33-50.69,17.22-23.13-32.97-36.42-72.34-36.42-112.69m37.89-116.13c15.25,6.4,31,11.32,46.75,15.26-.49,.98-.49,2.46-.49,3.94,0,3.44,.98,6.4,2.46,9.35l-86.61,82.67c.98-39.86,14.27-78.74,37.89-111.21m126.96,112.2h-60.04c-.98-5.91-5.91-10.33-11.81-11.32,.98-20.67,3.44-41.34,7.87-61.51,1.48,.49,2.95,.49,3.94,.49,3.94,0,7.38-.98,10.83-2.95l59.54,56.1c-5.91,4.92-9.35,11.81-10.33,19.19m-71.85,16.24c6.4-.98,11.32-6.4,11.81-12.79h60.04c0,5.91,1.97,11.32,5.91,16.24l-57.58,62.99c-2.46-1.48-5.91-2.46-8.86-2.46-.98,0-2.46,0-3.44,.49-4.43-21.65-7.38-42.81-7.87-64.46m-87.59-16.73l83.66-79.72c1.97,2.95,4.92,4.92,8.37,6.4-4.43,20.67-7.38,41.34-7.87,62.5-5.91,.49-10.83,5.41-12.3,11.32H45.27v-.49Zm71.35,3.94c.49,6.89,5.91,12.3,12.3,12.79,.49,21.65,3.44,43.8,8.37,64.96-2.95,1.48-5.41,3.44-7.38,6.4l-85.13-84.15H116.63Zm93.01-192.9c-24.6,10.83-45.77,38.38-60.53,75.78h-3.94c-8.37,0-16.24,4.92-19.19,13.29-15.75-3.94-31-8.86-45.77-14.76,31.49-41.34,78.24-67.91,129.42-74.31m24.6-5.41c-109.25-.49-197.82,87.59-198.32,196.84-.49,109.25,87.59,197.82,196.84,198.32,109.25,.49,197.82-87.59,198.32-196.84,.49-108.75-87.59-197.82-196.84-198.32"/></g></svg>