<?xml version="1.0" encoding="UTF-8"?><svg id="Capa_1" xmlns="http://www.w3.org/2000/svg" viewBox="0 0 467 568.37"><defs><style>.cls-1{fill:#fff;}.cls-2{fill:#24a038;}</style></defs><path class="cls-2" d="M4.92,80.7H461.59V4.92H4.92V80.7Zm462.08,4.92H0V0H466.51V85.62h.49Z"/><polygon class="cls-2" points="16.73 17.72 38.88 17.72 38.88 24.6 32.48 24.6 32.48 67.91 23.62 67.91 23.62 24.6 16.73 24.6 16.73 17.72"/><path class="cls-2" d="M49.21,52.16h6.89l-3.44-20.18-3.44,20.18Zm-10.33,15.75l9.35-50.19h9.35l9.84,50.19h-8.86l-1.48-9.35h-8.86l-1.48,9.35h-7.87Z"/><path class="cls-2" d="M80.21,24.6v15.75h2.95c2.95,0,3.94-1.48,3.94-3.94v-7.38c0-2.95-1.48-3.94-3.94-3.94h-2.95v-.49Zm0,20.18v23.13h-8.37V17.72h12.3c8.37,0,11.81,4.43,11.81,11.32v6.4c0,5.41-1.97,8.37-6.89,9.84l7.87,22.64h-8.86l-7.87-23.13Z"/><path class="cls-2" d="M113.67,41.34h11.81v26.57h-5.91v-5.41c-.98,3.94-3.44,5.91-7.87,5.91-7.38,0-10.33-5.91-10.33-13.29V31c0-7.87,3.94-13.29,12.79-13.29,9.35,0,11.81,5.41,11.81,12.79v4.43h-7.87v-4.92c0-2.95-.98-4.92-4.43-4.92-2.95,0-4.43,1.97-4.43,4.92v27.07c0,2.95,1.48,4.92,3.94,4.92,2.95,0,3.94-1.48,3.94-4.92v-9.35h-3.94v-6.4h.49Z"/><polygon class="cls-2" points="132.37 17.72 152.55 17.72 152.55 24.6 140.74 24.6 140.74 38.88 149.11 38.88 149.11 45.77 140.74 45.77 140.74 61.02 152.55 61.02 152.55 67.91 132.37 67.91 132.37 17.72"/><polygon class="cls-2" points="156.49 17.72 178.63 17.72 178.63 24.6 171.74 24.6 171.74 67.91 163.38 67.91 163.38 24.6 156.49 24.6 156.49 17.72"/><path class="cls-2" d="M397.61,28.54v4.43c0,4.43-2.46,6.89-5.91,8.37,4.43,.98,6.4,3.94,6.4,8.37v7.38c0,6.89-3.94,11.32-12.3,11.32s-11.81-4.92-11.81-12.3v-6.4h8.37v7.38c0,2.95,.98,4.92,3.94,4.92,2.46,0,3.94-1.97,3.94-4.43v-8.37c0-2.46-.98-3.94-3.94-3.94h-3.94v-6.4h2.95c2.95,0,4.43-1.48,4.43-3.94v-5.91c0-2.95-.98-4.43-3.44-4.43s-3.94,1.48-3.94,4.43v4.92h-7.87v-3.94c0-7.38,2.95-12.79,11.81-12.79,7.87,0,11.32,4.43,11.32,11.32"/><path class="cls-2" d="M412.38,36.91c3.44,0,5.91,2.95,5.91,5.91,0,3.44-2.95,5.91-5.91,5.91-3.44,0-5.91-2.95-5.91-5.91-.49-2.95,2.46-5.91,5.91-5.91"/><path class="cls-2" d="M425.66,58.56c0-4.92,1.48-8.37,6.4-13.29l4.92-4.92c2.95-2.95,2.95-4.43,2.95-8.86v-3.44c0-2.95-1.48-3.94-2.95-3.94-1.97,0-3.44,.98-3.44,3.94v6.4h-7.87v-6.4c0-6.89,3.94-10.83,11.32-10.83s10.83,3.44,10.83,10.33v4.92c0,4.92-.98,7.87-5.41,12.79l-5.41,5.91c-1.97,2.46-3.44,3.94-3.44,7.87v2.46h13.78v6.89h-21.65v-9.84Z"/><g><rect class="cls-2" y="101.86" width="466.51" height="466.51"/><path class="cls-1" d="M321.83,381.87v14.76c0,8.37-3.94,13.78-14.27,13.78s-13.78-5.91-13.78-15.26v-6.89h9.35v7.38c0,3.44,1.48,5.91,4.92,5.91s4.43-1.97,4.43-5.41v-14.76c0-3.44-.98-5.41-4.43-5.41s-4.43,1.97-4.43,5.41v1.48h-9.35v-33.95h27.07v8.37h-17.72v15.26c1.97-2.95,4.92-4.43,8.37-3.94,4.92,0,9.84,3.44,9.84,13.29"/><polygon class="cls-1" points="353.82 386.79 353.82 409.92 343.48 409.92 343.48 386.79 332.17 349.39 342.99 349.39 348.9 372.52 354.8 349.39 364.64 349.39 353.82 386.79"/><path class="cls-1" d="M379.9,357.26v18.7h3.44c2.46,.49,4.43-1.48,4.92-3.94v-9.84c0-3.44-1.48-4.92-4.92-4.92h-3.44Zm0,24.6v27.56h-10.33v-60.04h14.76c10.33,0,13.78,4.92,13.78,13.78v7.87c0,6.4-2.46,10.33-8.37,11.81l9.84,27.56h-10.83l-8.86-28.54Z"/><path class="cls-1" d="M404.01,396.63v-8.37h9.35v8.86c0,3.44,1.48,5.41,4.92,5.41s4.92-1.97,4.92-5.41v-2.46c0-3.44-1.97-6.4-4.43-8.86l-5.91-5.91c-5.91-5.91-8.37-9.35-8.37-16.24v-1.97c-.49-6.89,4.92-12.79,11.81-13.29h2.46c10.33,0,14.27,4.92,14.27,13.78v4.92h-9.35v-5.41c0-3.44-1.48-4.92-4.92-4.92-2.46-.49-4.43,1.48-4.92,3.94v1.97c0,3.44,1.97,5.41,4.92,8.37l6.89,5.91c5.41,5.41,8.37,8.86,8.37,15.75v2.95c.49,7.38-4.43,13.78-11.81,14.27h-2.95c-11.32,.49-15.25-5.41-15.25-13.29"/><path class="cls-1" d="M113.67,443.87v-.49c0-.49-.49-.98-.49-1.48s-.49-.49-.49-.98l-.98-.49-.49-.49q-.49-.49-.98-.98l-19.68-21.16c-2.46-2.95-.49-3.94-.49-3.94l17.22-17.72-26.57-27.56s-17.22,17.72-24.6,24.6c-11.32,11.32,0,23.13,0,23.13l38.88,38.88c1.97,1.97,4.92,3.44,7.87,3.44h1.48c.49,0,.98,0,1.48-.49,4.92-1.48,7.87-5.91,7.87-10.83v-3.44Z"/><path class="cls-1" d="M154.52,368.09l-26.57,27.56,17.22,17.72s1.97,1.48-.98,3.94l-19.68,21.16-.98,.98-.49,.49-.49,.49c0,.49-.49,.49-.49,.98s-.49,.98-.49,1.48v.49c0,.98-.49,1.97-.49,2.95v.49c0,4.92,3.44,9.35,7.87,10.83,.49,0,.98,.49,1.48,.49h1.97c2.95,0,5.91-.98,7.87-3.44l38.88-38.88s11.32-11.81,0-23.13c-7.38-6.89-24.6-24.6-24.6-24.6"/><path class="cls-1" d="M117.12,279.02c18.21,0,33.46-14.76,33.46-32.97s-14.76-33.46-32.97-33.46-33.46,14.76-33.46,32.97,14.76,33.46,32.97,33.46"/><path class="cls-1" d="M435.51,300.67h0l-25.1-18.7c-.49-.49-.98-.49-1.48,0l-.49,.49v13.78h-59.05v-10.33h-4.92v10.33h-60.53c-2.46,0-4.92,1.48-5.91,3.94l-17.72,50.69-25.59-110.72c-.49-2.95-2.95-4.92-5.91-4.92s-5.41,1.97-5.91,4.43l-27.56,96.94-46.26-46.26c-1.97-2.46-4.92-3.44-7.87-3.44h-47.24c-2.95,0-5.91,1.48-7.87,3.44l-51.67,51.18c-.98,.98-1.48,1.97-1.97,3.44-.49,1.48-.98,2.95-.98,4.43,0,5.91,4.92,10.33,10.33,10.33,1.97,0,4.43-.49,5.91-1.97l.98-.98,1.97-1.97,26.08-26.57s3.94-3.94,4.92,.49v24.11h72.34v-24.11c.98-4.43,4.92-.49,4.92-.49l26.08,26.57,1.48,1.97,.98,.98c1.48,.98,3.94,1.97,5.91,1.97,4.43,0,8.37-2.46,9.84-6.4,0-.49,.49-.49,.49-.98l25.59-86.61,25.1,108.75c.49,2.95,2.95,4.92,5.91,4.92h.49c2.46,0,4.92-1.48,5.91-3.94l22.14-67.42h55.11v10.33h4.92v-10.33h59.05v13.78c0,.49,.49,.98,.98,.98h.98l25.1-19.68h.49c0-.49,.49-.49,.49-.98s-.49-.98-.49-1.48"/></g></svg>