<?xml version="1.0" encoding="UTF-8"?><svg id="Capa_1" xmlns="http://www.w3.org/2000/svg" viewBox="0 0 467 568.37"><defs><style>.cls-1{fill:#00b3dc;}.cls-2{fill:#fff;}</style></defs><path class="cls-1" d="M4.92,80.7H461.59V4.92H4.92V80.7Zm462.08,4.92H0V0H466.51V85.62h.49Z"/><polygon class="cls-1" points="16.73 17.72 38.88 17.72 38.88 24.6 32.48 24.6 32.48 67.91 23.62 67.91 23.62 24.6 16.73 24.6 16.73 17.72"/><path class="cls-1" d="M49.21,52.16h6.89l-3.44-20.18-3.44,20.18Zm-10.33,15.75l9.35-50.19h9.35l9.84,50.19h-8.86l-1.48-9.35h-8.86l-1.48,9.35h-7.87Z"/><path class="cls-1" d="M80.21,24.6v15.75h2.95c2.95,0,3.94-1.48,3.94-3.94v-7.38c0-2.95-1.48-3.94-3.94-3.94h-2.95v-.49Zm0,20.18v23.13h-8.37V17.72h12.3c8.37,0,11.81,4.43,11.81,11.32v6.4c0,5.41-1.97,8.37-6.89,9.84l7.87,22.64h-8.86l-7.87-23.13Z"/><path class="cls-1" d="M113.67,41.34h11.81v26.57h-5.91v-5.41c-.98,3.94-3.44,5.91-7.87,5.91-7.38,0-10.33-5.91-10.33-13.29V31c0-7.87,3.94-13.29,12.79-13.29,9.35,0,11.81,5.41,11.81,12.79v4.43h-7.87v-4.92c0-2.95-.98-4.92-4.43-4.92-2.95,0-4.43,1.97-4.43,4.92v27.07c0,2.95,1.48,4.92,3.94,4.92,2.95,0,3.94-1.48,3.94-4.92v-9.35h-3.94v-6.4h.49Z"/><polygon class="cls-1" points="132.37 17.72 152.55 17.72 152.55 24.6 140.74 24.6 140.74 38.88 149.11 38.88 149.11 45.77 140.74 45.77 140.74 61.02 152.55 61.02 152.55 67.91 132.37 67.91 132.37 17.72"/><polygon class="cls-1" points="156.49 17.72 178.63 17.72 178.63 24.6 171.74 24.6 171.74 67.91 163.38 67.91 163.38 24.6 156.49 24.6 156.49 17.72"/><path class="cls-1" d="M431.94,45.52v15.75h3.94c2.95,0,3.94-1.48,3.94-3.94v-7.38c0-2.46-1.48-3.94-4.43-3.94h-3.44v-.49Zm0-6.4h2.95c2.95,0,3.94-1.48,3.94-3.94v-5.91c0-2.95-1.48-3.94-3.94-3.94h-2.95v13.78Zm-8.37-21.16h12.3c8.37,0,11.32,3.94,11.32,10.83v4.92c0,4.43-1.48,6.89-4.92,7.87,4.43,.98,6.4,3.94,6.4,8.37v6.4c0,6.89-2.95,10.83-11.81,10.83h-13.29V17.96Z"/><path class="cls-1" d="M384.7,56.84v-8.86c0-3.44-.98-4.92-3.94-4.92-2.46,0-3.94,1.97-3.94,4.43v9.35c0,2.95,.98,4.92,3.94,4.92,2.46,0,3.94-1.97,3.94-4.92m-16.24-1.48V30.76c0-7.87,3.44-13.29,12.3-13.29,9.35,0,11.81,5.41,11.81,12.79v2.46h-7.87v-3.44c0-2.95-.98-4.92-3.94-4.92s-3.94,1.97-3.94,4.92v10.83c1.48-2.46,3.44-3.94,6.89-3.94,5.91,0,9.35,3.94,9.35,12.3v7.38c0,7.87-3.44,12.79-12.3,12.79s-12.3-5.41-12.3-13.29"/><polygon class="cls-1" points="403.89 32.72 403.89 53.39 414.71 43.06 403.89 32.72"/><g><rect class="cls-1" x="0" y="101.86" width="466.51" height="466.51"/><path class="cls-2" d="M360.22,463.06l-13.78-10.83c-.98-.98-2.95-1.48-3.94,0-43.3,51.67-118.1,57.08-171.25,14.76-1.48-1.48-2.95-2.46-4.43-3.94l15.75-9.84c1.48-.98-.49-2.46-.49-2.46l-53.15-26.57c-1.48-.98-1.97,0-1.97,.98v60.53c0,.49,.49,1.97,1.97,.98l17.22-10.83c3.44,3.44,6.89,6.4,10.83,9.35,62.99,50.19,152.06,43.8,203.73-17.22l.49-.49c.49-.98,.49-2.95-.98-4.43,.49,0,0,0,0,0"/><path class="cls-2" d="M126.47,214.06l14.76,10.33c.98,.98,2.95,.98,3.94-.49,40.35-54.13,114.66-63.97,169.77-24.6,1.48,.98,3.44,2.46,4.92,3.94l-14.76,10.83c-1.48,.98,.49,2.46,.49,2.46l54.13,23.62c1.48,.98,1.97-.49,1.97-.98v-.49l-3.44-60.53c0-.49-.49-1.97-1.97-.98l-16.73,11.81c-3.44-2.95-7.38-5.91-11.32-8.86-65.94-46.75-154.52-34.94-202.74,29.53l-.49,.49c0,.98,0,2.46,1.48,3.94"/><path class="cls-2" d="M330.2,454.21h0c-1.48,1.97,0,0,0,0"/><polygon class="cls-2" points="160.42 284.43 160.42 372.52 45.27 372.52 45.27 284.43 40.84 284.43 40.84 376.45 164.85 376.45 164.85 284.43 160.42 284.43"/><path class="cls-2" d="M52.16,327.74h0c22.64,20.67,45.76,3.44,50.69-.49l.49-.49h.98l.49,.49c4.92,3.94,27.56,20.67,49.7,.98l.49-.49v-11.32c0-.49-.49-.98-.98-.98h-.49l-.49,.49c-6.89,4.92-29.03,18.21-48.72-.49l-.49-.49s-.49-.49-.98-.49-.49,0-.98,.49l-.49,.49c-19.68,18.21-41.34,5.91-48.72,.49l-.49-.49h-.49c-.49,0-.98,.49-.98,.98v10.83c.98,0,.98,.49,1.48,.49"/><path class="cls-2" d="M52.16,352.83h0c22.64,20.67,45.76,3.44,50.69-.49l.49-.49h.98l.49,.49c4.92,3.94,27.56,20.67,49.7,.98l.49-.49v-11.81c0-.49-.49-.98-.98-.98h-.49l-.49,.49c-6.89,4.92-29.03,18.21-48.72-.49l-.49-.49s-.49-.49-.98-.49-.49,0-.98,.49l-.49,.49c-19.68,18.21-41.34,5.91-48.72,.49l-.49-.49h-.49c-.49,0-.98,.49-.98,.98v10.83c.98,.49,.98,.98,1.48,.98"/><path class="cls-2" d="M53.64,305.59c.98,0,1.97-.49,1.97-1.48s-.98-1.48-1.97-1.48-1.48,.49-1.48,1.48c0,.49,.49,1.48,1.48,1.48"/><path class="cls-2" d="M61.51,302.15c.81,0,1.48,.66,1.48,1.48s-.66,1.48-1.48,1.48-1.48-.66-1.48-1.48,.66-1.48,1.48-1.48"/><path class="cls-2" d="M68.89,302.15c.81,0,1.48,.66,1.48,1.48s-.66,1.48-1.48,1.48-1.48-.66-1.48-1.48,.66-1.48,1.48-1.48"/><path class="cls-2" d="M76.77,305.59c.98,0,1.48-.49,1.97-1.48,0-.98-.98-1.48-1.97-1.48s-1.97,.98-1.97,1.48,.98,1.48,1.97,1.48"/><path class="cls-2" d="M84.64,305.59c.98,0,1.97-.98,1.97-1.48s-.98-1.48-1.97-1.48-1.97,.98-1.97,1.48,.98,1.48,1.97,1.48"/><path class="cls-2" d="M92.02,302.15c.81,0,1.48,.66,1.48,1.48s-.66,1.48-1.48,1.48-1.48-.66-1.48-1.48,.66-1.48,1.48-1.48"/><path class="cls-2" d="M99.9,305.59c.98,0,1.97-.49,1.97-1.48v-.49c0-.98-.98-1.48-1.97-1.48s-1.97,.98-1.97,1.48c.49,.98,.98,1.97,1.97,1.97"/><path class="cls-2" d="M107.77,305.59c.98,0,1.97-.98,1.97-1.48s-.98-1.48-1.97-1.48-1.97,.98-1.97,1.48,.98,1.48,1.97,1.48"/><path class="cls-2" d="M115.64,305.59c.98,0,1.97-.98,1.97-1.48,0-.98-.98-1.48-1.97-1.48s-1.48,.49-1.48,1.48c-.49,.49,.49,1.48,1.48,1.48"/><path class="cls-2" d="M123.02,305.59c.98,0,1.97-.49,1.97-1.48-.49-.98-1.48-1.48-1.97-.98-.49,0-.98,.49-.98,.98-.49,.49,0,1.48,.98,1.48"/><path class="cls-2" d="M130.9,305.59c.98,0,1.97-.49,1.97-1.48s-.98-1.48-1.97-1.48-1.48,.49-1.48,1.48c-.49,.49,.49,1.48,1.48,1.48"/><path class="cls-2" d="M138.77,302.15c.81,0,1.48,.66,1.48,1.48s-.66,1.48-1.48,1.48-1.48-.66-1.48-1.48,.66-1.48,1.48-1.48"/><path class="cls-2" d="M146.15,305.59c.98,0,1.48-.49,1.48-1.48s-.98-1.48-1.48-1.48-1.48,.98-1.48,1.48,.49,1.48,1.48,1.48"/><path class="cls-2" d="M154.03,302.15c.81,0,1.48,.66,1.48,1.48s-.66,1.48-1.48,1.48-1.48-.66-1.48-1.48,.66-1.48,1.48-1.48"/><path class="cls-2" d="M58.07,299.69c.98,0,1.48-.98,1.48-1.97s-.49-1.48-1.48-1.48-1.48,.98-1.48,1.97c0,.49,.49,.98,1.48,1.48"/><path class="cls-2" d="M65.45,299.69c.98,0,1.48-.98,1.48-1.97s-.49-1.48-1.48-1.48-1.48,.98-1.48,1.97c.49,.49,.98,.98,1.48,1.48"/><path class="cls-2" d="M73.32,299.69c.98,0,1.97-.98,1.97-1.97s-.98-1.97-1.97-1.97-1.97,.98-1.97,1.97,.98,1.97,1.97,1.97"/><path class="cls-2" d="M81.2,299.69c.98,0,1.97-.98,1.97-1.97s-.98-1.97-1.97-1.97-1.97,.98-1.97,1.97,.98,1.97,1.97,1.97"/><path class="cls-2" d="M88.58,299.69c.98,0,1.97-.49,1.97-1.48s-.49-1.97-1.48-1.97h-.49c-.98,0-1.48,.98-1.48,1.97,.49,.49,.98,.98,1.48,1.48"/><path class="cls-2" d="M96.45,299.69c.98,0,1.48-.98,1.48-1.97s-.49-1.48-1.48-1.48-1.48,.98-1.48,1.97c0,.49,.98,.98,1.48,1.48"/><path class="cls-2" d="M104.32,299.69c.98,0,1.48-.98,1.48-1.97s-.49-1.48-1.48-1.48-1.48,.98-1.48,1.97c0,.49,.49,.98,1.48,1.48"/><path class="cls-2" d="M111.71,299.69c.98,0,1.48-.98,1.48-1.97s-.49-1.48-1.48-1.48-1.48,.98-1.48,1.97c.49,.49,.98,.98,1.48,1.48"/><path class="cls-2" d="M119.58,299.69c.98,0,1.97-.98,1.97-1.48,0-.98-.98-1.97-1.48-1.97s-1.97,.98-1.97,1.48c0,.98,.49,1.97,1.48,1.97"/><path class="cls-2" d="M127.45,299.69c.98,0,1.48-.98,1.48-1.97s-.49-1.48-1.48-1.48-1.48,.98-1.48,1.97c0,.49,.49,.98,1.48,1.48"/><path class="cls-2" d="M135.33,299.69c.98,0,1.48-.98,1.48-1.97s-.49-1.48-1.48-1.48-1.48,.98-1.48,1.97c0,.49,.49,.98,1.48,1.48"/><path class="cls-2" d="M142.71,299.69c.98,0,1.48-.98,1.48-1.97s-.49-1.48-1.48-1.48-1.48,.98-1.48,1.97c.49,.49,.98,.98,1.48,1.48"/><path class="cls-2" d="M150.58,299.69c.98,0,1.97-.98,1.97-1.97s-.98-1.97-1.97-1.97-1.97,.98-1.97,1.97,.98,1.97,1.97,1.97"/><path class="cls-2" d="M54.13,293.78c.98,0,1.97-.98,1.97-1.48,0-.98-.98-1.48-1.97-1.48s-1.48,.49-1.48,1.48c-.49,.49,.49,1.48,1.48,1.48"/><path class="cls-2" d="M62,293.78c.98,0,1.97-.98,1.97-1.48,0-.98-.49-1.48-1.48-1.48s-1.48,.98-1.97,1.48c-.49,.49,.49,1.48,1.48,1.48"/><path class="cls-2" d="M69.39,293.78c.98,0,1.97-.98,1.97-1.48,0-.98-.49-1.48-1.48-1.48s-1.97,.98-1.97,1.48,.49,1.48,1.48,1.48"/><path class="cls-2" d="M77.26,293.78c.98,0,1.97-.98,1.97-1.48s-.98-1.48-1.97-1.97c-.98,0-1.97,.98-1.97,1.97,0,.49,.98,1.48,1.97,1.48"/><path class="cls-2" d="M85.13,293.78c.98,0,1.97-.98,1.97-1.48s-.98-1.48-1.97-1.97c-.98,0-1.97,.98-1.97,1.97,0,.49,.98,1.48,1.97,1.48"/><path class="cls-2" d="M92.51,293.78c.98,0,1.97-.98,1.97-1.48s-.98-1.48-1.97-1.48-1.48,.49-1.97,1.48c.49,.49,.98,1.48,1.97,1.48"/><path class="cls-2" d="M100.39,293.78c.98,0,1.97-.98,1.97-1.48s-.98-1.48-1.97-1.48-1.48,.49-1.97,1.48c.49,.49,.98,1.48,1.97,1.48"/><path class="cls-2" d="M108.26,293.78c.98,0,1.97-.98,1.97-1.48s-.98-1.48-1.97-1.48-1.48,.49-1.97,1.48c0,.49,.98,1.48,1.97,1.48"/><path class="cls-2" d="M115.64,293.78c.98,0,1.97-.98,1.97-1.48,0-.98-.98-1.48-1.97-1.48s-1.48,.49-1.48,1.48c0,.49,.49,1.48,1.48,1.48"/><path class="cls-2" d="M123.52,293.78c.98,0,1.97-.98,1.97-1.48,0-.98-.98-1.48-1.97-1.48s-1.48,.49-1.48,1.48c0,.49,.49,1.48,1.48,1.48"/><path class="cls-2" d="M131.39,293.78c.98,0,1.97-.98,1.97-1.48,0-.98-.98-1.48-1.97-1.48s-1.48,.49-1.48,1.48c0,.49,.49,1.48,1.48,1.48"/><path class="cls-2" d="M138.77,293.78c.98,0,1.97-.98,1.97-1.48,0-.98-.49-1.48-1.48-1.48s-1.97,.98-1.97,1.48,.49,1.48,1.48,1.48"/><path class="cls-2" d="M146.65,293.78c.98,0,1.48-.98,1.48-1.48,0-.98-.49-1.48-1.48-1.48s-1.48,.98-1.48,1.48,.49,1.48,1.48,1.48"/><path class="cls-2" d="M154.52,293.78c.98,0,1.48-.98,1.48-1.97s-.98-1.48-1.48-1.97c-.98,0-1.97,.98-1.97,1.97s.49,1.97,1.97,1.97c-.49,0,0,0,0,0"/><path class="cls-2" d="M213.57,284.92c4.92,0,9.35-3.94,9.35-9.35s-3.94-9.35-9.35-9.35c-4.92,0-9.35,3.94-9.35,9.35s4.43,9.35,9.35,9.35"/><path class="cls-2" d="M224.4,288.86h-21.65c-6.4,.49-11.32,5.91-11.32,12.3v25.59c0,1.97,1.48,3.44,3.44,3.44s3.44-1.48,3.44-3.44v-22.14c0-.98,0-1.97,1.97-1.97s1.48,.98,1.48,1.97v65.94c0,2.95,2.46,5.41,4.92,5.41s5.41-2.46,5.41-4.92v-38.38c0-.98,.49-1.48,1.48-1.48s1.48,.49,1.48,1.48v38.38c.49,2.95,2.95,4.92,5.91,4.92,2.46,0,4.43-1.97,4.92-4.92v-66.43c0-.49,0-1.97,1.48-1.97s1.48,.98,1.48,1.97v22.14c0,1.97,1.97,3.44,3.94,2.95,1.48,0,2.95-1.48,2.95-2.95v-25.59c0-6.4-4.92-11.81-11.32-12.3"/><path class="cls-2" d="M273.61,284.92c4.92,0,9.35-4.43,8.86-9.35,0-4.92-4.43-9.35-9.35-8.86-4.92,0-8.86,4.43-8.86,9.35s3.94,8.86,9.35,8.86"/><path class="cls-2" d="M292.31,296.73s-2.95-7.38-8.86-7.38h-19.68c-5.91,0-8.86,7.38-8.86,7.38l-7.87,25.1s-1.48,4.43,2.46,5.91c3.94,1.48,4.92-3.44,4.92-3.44l6.4-20.67s.49-1.48,1.48-1.48,.98,1.97,.98,1.97l-10.83,39.37h9.84v28.05c0,2.95,1.97,4.92,4.92,4.92s4.92-1.97,4.92-4.92v-28.54h2.95v28.05c0,2.95,1.97,4.92,4.92,4.92s4.92-1.97,4.92-4.92v-28.05h9.84l-10.83-39.37s-.49-1.48,.98-1.97,1.48,1.48,1.48,1.48l6.4,21.16s.98,4.43,4.92,3.44c3.94-.98,2.46-5.91,2.46-5.91l-7.87-25.1Z"/><path class="cls-2" d="M418.77,299.69c-2.95-.98-6.4-.98-8.86,.49-11.81,4.92-19.68,6.4-32.48,2.46-7.87-2.46-15.25-7.38-24.11-4.43-5.41,2.46-11.81,3.94-17.72,3.94l-3.94-19.19h90.05l-2.95,16.73Zm-30.02,57.58c-6.89,5.41-16.24,5.41-22.64,0-5.41-5.41-6.4-14.27-1.97-20.67,1.48-2.95,12.79-19.19,13.29-20.67,.98,1.48,11.81,18.21,13.29,20.67,3.94,6.4,3.44,14.76-1.97,20.67m36.91-77.75c0-.49-.49-.49-.98-.49h-95.47q-.49,0-.98,.49v.98l15.75,96.94c0,.49,.49,.98,.98,.98h21.16l.98,14.27h-6.4c-.49,0-.98,.49-.98,.98v.49l15.75,20.18s.49,.49,.98,.49,.49,0,.49-.49l15.26-20.18v-.49c0-.49-.49-.98-.98-.98h-5.41l.98-14.27h21.65c.49,0,.98-.49,.98-.98l15.26-97.44c1.48,0,.98-.49,.98-.49"/></g></svg>