<?xml version="1.0" encoding="UTF-8"?><svg id="Capa_1" xmlns="http://www.w3.org/2000/svg" viewBox="0 0 467 568.37"><defs><style>.cls-1{fill:#006da3;}.cls-2{fill:#fff;}</style></defs><path class="cls-1" d="M4.92,80.7H461.59V4.92H4.92V80.7Zm462.08,4.92H0V0H466.51V85.62h.49Z"/><polygon class="cls-1" points="16.73 17.72 38.88 17.72 38.88 24.61 32.48 24.61 32.48 67.91 23.62 67.91 23.62 24.61 16.73 24.61 16.73 17.72"/><path class="cls-1" d="M49.21,52.16h6.89l-3.44-20.18-3.44,20.18Zm-10.33,15.75l9.35-50.19h9.35l9.84,50.19h-8.86l-1.48-9.35h-8.86l-1.48,9.35h-7.87Z"/><path class="cls-1" d="M80.21,24.61v15.75h2.95c2.95,0,3.94-1.48,3.94-3.94v-7.38c0-2.95-1.48-3.94-3.94-3.94h-2.95v-.49Zm0,20.18v23.13h-8.37V17.72h12.3c8.37,0,11.81,4.43,11.81,11.32v6.4c0,5.41-1.97,8.37-6.89,9.84l7.87,22.64h-8.86l-7.87-23.13Z"/><path class="cls-1" d="M113.67,41.34h11.81v26.57h-5.91v-5.41c-.98,3.94-3.44,5.91-7.87,5.91-7.38,0-10.33-5.91-10.33-13.29V31c0-7.87,3.94-13.29,12.79-13.29,9.35,0,11.81,5.41,11.81,12.79v4.43h-7.87v-4.92c0-2.95-.98-4.92-4.43-4.92-2.95,0-4.43,1.97-4.43,4.92v27.07c0,2.95,1.48,4.92,3.94,4.92,2.95,0,3.94-1.48,3.94-4.92v-9.35h-3.94v-6.4h.49Z"/><polygon class="cls-1" points="132.37 17.72 152.55 17.72 152.55 24.61 140.74 24.61 140.74 38.88 149.11 38.88 149.11 45.77 140.74 45.77 140.74 61.02 152.55 61.02 152.55 67.91 132.37 67.91 132.37 17.72"/><polygon class="cls-1" points="156.49 17.72 178.63 17.72 178.63 24.61 171.74 24.61 171.74 67.91 163.38 67.91 163.38 24.61 156.49 24.61 156.49 17.72"/><polygon class="cls-1" points="364.15 17.72 364.15 67.91 355.79 67.91 355.79 29.53 349.88 35.43 349.88 27.07 357.75 18.21 364.15 18.21 364.15 17.72"/><path class="cls-1" d="M387.28,56.59v-8.86c0-3.44-.98-4.92-3.94-4.92-2.46,0-3.94,1.97-3.94,4.43v9.35c0,2.95,.98,4.92,3.94,4.92s3.94-1.48,3.94-4.92m-16.24-1.48V30.51c0-7.87,3.44-13.29,12.3-13.29,9.35,0,11.81,5.41,11.81,12.79v2.46h-7.87v-3.44c0-2.95-.98-4.92-3.94-4.92s-3.94,1.97-3.94,4.92v10.83c1.48-2.46,3.44-3.94,6.89-3.94,5.91,0,9.35,3.94,9.35,12.3v7.38c0,7.87-3.44,12.79-12.3,12.79s-12.3-5.41-12.3-13.29"/><path class="cls-1" d="M409.42,36.91c3.44,0,5.91,2.95,5.91,5.91,0,3.44-2.95,5.91-5.91,5.91-3.44,0-5.91-2.95-5.91-5.91-.49-2.95,2.46-5.91,5.91-5.91"/><path class="cls-1" d="M439.44,32.48v-3.44c0-2.95-.98-4.92-3.94-4.92s-3.94,1.97-3.94,4.92v3.44c0,2.95,.98,4.92,3.94,4.92,2.95-.49,3.94-1.97,3.94-4.92m0,24.11v-7.87c0-2.95-.98-4.92-3.94-4.92s-3.94,1.97-3.94,4.92v7.87c0,2.95,.98,4.92,3.94,4.92s3.94-1.97,3.94-4.92m-16.73-.98v-5.41c0-4.92,1.48-8.37,5.41-9.84-3.44-1.48-4.92-4.43-4.92-8.86v-1.97c0-7.87,3.94-11.81,11.81-11.81s11.81,4.43,11.81,11.81v1.97c0,3.94-1.48,6.89-4.92,8.86,3.94,1.97,5.41,5.41,5.41,9.84v5.41c0,7.38-3.44,12.79-12.3,12.79-8.37,0-12.3-4.92-12.3-12.79"/><g><rect class="cls-1" x="0" y="101.86" width="466.51" height="466.51"/><path class="cls-2" d="M232.27,228.82c15.75,0,29.03-12.79,29.03-29.03s-12.79-29.03-28.54-29.03-29.03,12.79-29.03,29.03,12.79,29.03,28.54,29.03"/><path class="cls-2" d="M266.22,239.65h-67.42c-17.72,1.48-31.99,15.26-34.45,32.48h136.31c-2.46-17.22-16.73-31-34.45-32.48"/><path class="cls-2" d="M264.26,381.87c-.49-.49-1.97-1.97-1.97,.49s2.46,2.95,0,4.43c-.98,.98-2.46,1.48-3.94,1.48-1.48,.98-1.97,2.46-1.97,4.43,.49,1.48,3.44,5.41,.98,4.92-2.46-.98-4.43-2.95-5.91-4.92-.98-1.97-1.48-3.94-1.97-5.41-.49-.98-1.48-1.97-2.95-1.48q-.49,0-.49,.49c-1.48,.98,.49,1.97-.49,3.94-.98,1.97-1.48,3.44-2.95,1.97-3.44-3.94-8.86-1.97-9.84-6.4-.49-2.46-2.46-2.46-4.43-3.94-1.97-1.48-2.95-1.97-2.95-.98s5.41,5.41,5.91,6.89c.49,1.48-1.97,3.44-3.44,3.94-1.48,.49-2.46-.98-4.43-2.95-1.97-1.97-2.46-2.95-2.46-1.97v.49c0,2.46,1.48,4.92,3.44,6.4,1.48,.98,2.95,1.48,2.46,2.95-.49,1.48,0,.49-1.48,2.46-1.48,.98-1.97,2.95-1.97,4.43,0,2.46-.49,2.46-.98,4.43-.49,1.97-.98,.49-1.97,2.95-.49,1.97-.98,3.44-2.46,4.92-1.48,.98-2.95,1.97-4.92,1.97q-.49,0-.98-.49c-.98-1.97-1.48-4.43-.98-6.4,0-.98-.98,1.48-1.48-3.44-.49-2.95-2.46,.49-2.46-1.97s-.98-1.48-1.97-2.95c-.98-1.48-2.46,0-3.94,.98-1.48,.98-.98,.98-1.97,.49-1.97-4.43-2.95-9.84-3.44-14.76,0-1.48,0-2.95,.49-4.43,.98-1.48,.98-1.97,1.48-1.97s.98-.49,1.48-.49h.98c1.97,.49,3.94,.98,5.91,1.48,1.97,.98,3.94,1.48,6.4,1.97h.98c1.48-.49,2.46-1.48,2.46-2.46s-1.48-1.97-2.46-.98c-.49,.49-1.48-1.97-2.46-1.97s.98,2.95,.49,2.95-2.46-2.95-2.46-3.44-1.48-1.97-2.46-.98c-1.97,1.97-5.91,1.97-6.4,2.46l-.98,.49c-.98,.49-1.48,0-1.97-.98-.49-.98,.49-1.48,.49-2.46,.98-.49,2.46-.49,3.44,0,.98,.49,1.48,0,1.97-.49,.49-.49,.49-.98,0-1.48,0-.49,.49-.98,.98-.98,.98-.49,1.97-.98,2.95-1.48,1.97-.49,3.94-.49,5.41,0s2.95,.49,3.44-.98c.98-.98,1.48-1.48,2.46-1.97,.49,0-1.48-1.97-2.95,0-1.48,1.97-2.46,1.97-2.95,1.97s-4.92-.98-5.41-2.46c-.49-1.48,1.48-2.46,2.95-2.95,2.46-.49,4.43-.98,6.89-.98,2.46-.49,4.92-1.48,6.4-.49,1.48,.98-5.91,2.46-3.44,3.94,.98,.49,4.92-2.46,5.91-2.95,2.95-1.48-2.95-1.97-2.46-5.41,.49-3.44-6.4-2.46-10.83-1.97,5.41-3.44,11.81-4.92,18.21-4.92,17.22,0,31.99,11.81,35.43,29.03,.49-.49-.98-.49-1.97-1.97q0,.49,0,0m3.94,6.4c0,2.46,0,4.43-.49,6.89-1.97-2.46-2.46-5.91-.49-8.86,.49-.49-.98-2.46-.49-2.46s1.48,0,1.97,.49c-.49,1.48-.49,2.46-.49,3.94m-5.41,9.35c-.98,.49-2.46,.49-3.44-.49-.98-.49,.49-1.97,.98-1.97s3.44,1.97,2.46,2.46m-3.94-3.44c-.49,0-.49-.49-.98-1.48,0-.49,0-.98,.49-.98h.98c.98,.49,1.48,1.48,1.97,1.97-.49,.49-1.97,.49-2.46,.49m-1.48,19.68c-1.48-.49-1.48,.49-2.46,.49s.98-2.46-1.97-.98c-2.95,1.48-1.97,0-3.44-3.44-.98-3.44,.49-6.89,3.94-7.87,1.97-.98,4.43-1.48,6.4-1.48,4.43-.98,5.41-3.94,5.91-1.97l.49,.98c-1.48,4.92-4.92,10.33-8.86,14.27m-16.73-22.14c.98,0,2.95,1.48,2.46,2.46-.98,.49-2.46,.49-3.44-.49-.98-.49,.49-1.97,.98-1.97m-14.76,8.37c1.48-2.46,4.43-2.46,1.97,1.48-.49,.98-1.97,6.89-2.95,6.4s.49-7.38,.98-7.87m6.4,23.62c-3.44,0-6.89-.49-10.33-1.48v-.49c1.48-2.46,4.43-4.43,7.38-4.43,5.91-.49,13.78,3.94,14.76,3.44,.98-.49,3.94-3.94,7.87-3.94h1.97c-6.4,4.43-13.78,6.89-21.65,6.89m-30.02-55.11c.49-.49,1.48-.49,2.46-.49s1.97,.49,2.46,.98c.49,.49-2.46,1.48-2.95,1.97-.98,.98-3.44,3.44-4.43,3.94h-.49c.98-2.46,1.97-4.43,2.95-6.4m5.91-6.4c.49,0,.98,.49,.98,.49,0,.98,0,1.48-.49,2.46-.98,.98-2.46,1.48-3.94,1.97h-.49c.98-1.97,2.46-3.44,3.94-4.92m24.11-13.29c-21.65,0-39.37,17.72-39.37,39.37s17.72,39.37,39.37,39.37,39.37-17.72,39.37-39.37-17.22-39.37-39.37-39.37"/><path class="cls-2" d="M299.69,393.68c0,1.48-1.48,2.95-3.44,2.95s-3.44,.49-5.41,.49-3.44,1.48-3.94,3.44c-.49,2.46-2.46,7.38-2.95,9.35-.49,1.97,0,3.44,1.97,4.43,1.97,.98,2.46,1.97,3.94,2.95,1.48,.98,1.97,2.95,.98,4.43-1.97,3.94-4.43,7.38-6.89,10.33-.98,1.48-2.95,1.48-4.43,.49l-4.43-2.95c-1.48-.98-3.44-.98-4.92,.49-1.48,1.48-6.4,4.92-7.87,5.91-1.48,.98-1.48,2.95-.98,4.43,.49,1.48,.98,2.95,1.48,4.92,.49,1.48,0,3.44-1.97,4.43-3.94,1.97-7.87,3.44-11.81,3.94-1.48,.49-3.44-.49-3.94-1.97-.98-1.97-1.48-3.44-1.97-4.92-.49-1.97-2.46-2.95-4.43-2.46h-9.84c-1.97,0-2.95,.98-3.44,2.95l-1.48,4.43c-.49,1.97-2.46,2.95-3.94,2.46-4.43-.49-8.37-1.97-12.3-3.94-1.48-.49-2.46-2.46-1.97-3.94,.49-1.97,.98-3.44,.98-5.41,.49-1.97-.49-3.94-2.46-4.92-1.97-1.48-6.89-4.92-8.37-5.91-1.48-.98-2.95-.98-4.92,.49l-3.94,2.95c-1.48,.98-3.44,.98-4.43-.49-2.95-2.95-5.41-6.4-7.38-10.33-.98-1.48-.49-3.44,.98-4.43,1.48-1.48,2.46-2.46,3.94-3.44,1.48-.98,1.97-2.95,.98-4.92-1.48-2.95-2.46-6.4-3.44-9.35-.49-1.97-1.97-2.46-3.94-2.46h-4.92c-1.97,0-3.44-1.48-3.44-2.95-.49-4.43-.49-8.37,0-12.79,0-1.48,1.48-2.95,3.44-2.95s3.44-.49,5.41-.49,3.44-1.48,3.94-3.44c.49-1.97,2.46-7.38,2.95-9.35,.49-1.97,0-3.44-1.97-4.43l-3.94-2.95c-1.48-.98-1.97-2.95-.98-4.43,1.97-3.94,4.43-7.38,7.38-10.33,.98-1.48,2.95-1.48,4.43-.49,1.48,.98,2.95,1.97,4.43,2.95,1.48,.98,3.44,.98,4.92-.49,2.46-1.97,6.89-4.92,7.87-5.91,.98-.98,1.48-2.95,.98-4.43-.49-1.48-.98-2.95-1.48-4.92-.49-1.48,0-3.44,1.97-3.94,3.94-1.97,7.87-3.44,11.81-3.94,1.48-.49,3.44,.49,3.94,1.97,.98,1.97,1.48,3.44,1.97,4.92,.49,1.97,2.46,2.95,4.43,2.46h9.84c1.97,0,2.95-.98,3.44-2.95,.49-1.97,.98-2.95,1.48-4.43,.49-1.97,2.46-2.95,3.94-2.46,3.94,.49,8.37,1.97,12.3,3.94,1.48,.49,2.46,2.46,1.97,3.94-.49,1.97-.98,3.44-1.48,5.41-.49,1.97,.49,3.44,1.97,4.43,1.97,1.48,5.41,3.44,8.37,5.91,1.48,.98,3.44,.98,4.92-.49l3.94-2.95c1.48-.98,3.44-.98,4.43,.49,2.95,2.95,5.41,6.4,7.87,10.33,.98,1.48,.49,3.44-.98,4.43-1.48,1.48-2.46,2.46-3.94,3.44-1.48,.98-1.97,2.95-.98,4.92,1.48,2.95,2.46,6.4,3.44,9.35,.49,1.97,1.97,2.46,3.94,2.46h4.92c1.97,0,3.44,1.48,3.44,2.95,.49,3.94,.49,8.37,0,12.79m5.41-107.77H137.3v17.72h13.78v198.32h164.36v-198.32h13.78v-17.72h-24.11Z"/></g></svg>