<?xml version="1.0" encoding="UTF-8"?><svg id="Capa_1" xmlns="http://www.w3.org/2000/svg" viewBox="0 0 467 568.37"><defs><style>.cls-1{fill:#f49400;}.cls-2{fill:#fff;}</style></defs><polygon class="cls-1" points="373.99 17.72 373.99 67.91 365.63 67.91 365.63 29.53 359.72 35.43 359.72 27.07 367.6 17.72 373.99 17.72"/><polygon class="cls-1" points="394.17 17.72 394.17 67.91 385.8 67.91 385.8 29.53 379.9 35.43 379.9 27.07 387.28 17.72 394.17 17.72"/><path class="cls-1" d="M409.42,36.91c3.44,0,5.91,2.95,5.91,5.91,0,3.44-2.95,5.91-5.91,5.91-3.44,0-5.91-2.95-5.91-5.91-.49-2.95,2.46-5.91,5.91-5.91"/><path class="cls-1" d="M429.6,53.15h7.38v-20.67l-7.38,20.67Zm-7.38,1.48l14.76-36.91h8.37V53.15h3.44v6.4h-3.44v8.37h-7.87v-8.37h-14.76v-4.92h-.49Z"/><path class="cls-1" d="M4.92,80.7H461.59V4.92H4.92V80.7Zm462.08,4.92H0V0H466.51V85.62h.49Z"/><polygon class="cls-1" points="16.73 17.72 38.88 17.72 38.88 24.6 32.48 24.6 32.48 67.91 23.62 67.91 23.62 24.6 16.73 24.6 16.73 17.72"/><path class="cls-1" d="M49.21,52.16h6.89l-3.44-20.18-3.44,20.18Zm-10.33,15.75l9.35-50.19h9.35l9.84,50.19h-8.86l-1.48-9.35h-8.86l-1.48,9.35h-7.87Z"/><path class="cls-1" d="M80.21,24.6v15.75h2.95c2.95,0,3.94-1.48,3.94-3.94v-7.38c0-2.95-1.48-3.94-3.94-3.94h-2.95v-.49Zm0,20.18v23.13h-8.37V17.72h12.3c8.37,0,11.81,4.43,11.81,11.32v6.4c0,5.41-1.97,8.37-6.89,9.84l7.87,22.64h-8.86l-7.87-23.13Z"/><path class="cls-1" d="M113.67,41.34h11.81v26.57h-5.91v-5.41c-.98,3.94-3.44,5.91-7.87,5.91-7.38,0-10.33-5.91-10.33-13.29V31c0-7.87,3.94-13.29,12.79-13.29,9.35,0,11.81,5.41,11.81,12.79v4.43h-7.87v-4.92c0-2.95-.98-4.92-4.43-4.92-2.95,0-4.43,1.97-4.43,4.92v27.07c0,2.95,1.48,4.92,3.94,4.92,2.95,0,3.94-1.48,3.94-4.92v-9.35h-3.94v-6.4h.49Z"/><polygon class="cls-1" points="132.37 17.72 152.55 17.72 152.55 24.6 140.74 24.6 140.74 38.88 149.11 38.88 149.11 45.77 140.74 45.77 140.74 61.02 152.55 61.02 152.55 67.91 132.37 67.91 132.37 17.72"/><polygon class="cls-1" points="156.49 17.72 178.63 17.72 178.63 24.6 171.74 24.6 171.74 67.91 163.38 67.91 163.38 24.6 156.49 24.6 156.49 17.72"/><g><rect class="cls-1" x="0" y="101.86" width="466.51" height="466.51"/><path class="cls-2" d="M405,487.67c-41.83-2.95-84.15-.98-125.48,6.89-7.87,1.48-14.76,2.46-22.14,3.44-9.35-3.44-10.83-9.35-10.33-11.32l1.48-8.86c.49-1.48,1.48-2.95,2.46-3.94,3.44-2.95,6.89-2.46,12.3-2.95,3.44,0,6.89-.98,9.84-3.44,2.46-1.97,3.94-3.94,2.95-5.41-.98-1.48-1.97-.98-2.95-.98s-2.95,2.95-3.94,3.44-.49-.49-.49-.49c0-1.97,.98-3.94,2.46-5.91,.98-.98,.98-2.46,0-3.94-4.43-1.97-6.89,5.41-6.89,6.89s-.98,4.92-2.46,5.41c-2.46,0-5.41,.49-7.87,.98-.98,.49-.49-.49-.49-.49l9.84-13.29c1.48-1.48,.49-1.97,6.89-4.92,3.44-.98,6.89-3.44,9.35-5.91,1.97-1.97,2.95-3.44,.98-4.92-1.97-1.48-4.43,1.97-5.91,3.44-.98,.98-1.97,1.48-2.95,1.48,.49-1.97,.98-3.44,2.46-4.92,.98-.98,.49-2.46-.49-3.44-.98-.98-2.46-.49-3.44,.49-1.97,1.48-2.95,5.91-3.44,8.37-.49,2.46-2.95,3.44-4.43,4.43-1.48,1.97-2.95,3.44-4.43,5.41-.49,.98-4.92,5.91-4.92,5.91-.49-4.92,.49-10.33,3.44-14.27,4.92-6.89,9.35-14.27,6.4-23.62,0,0-1.48-3.94-4.43-2.95-2.95,.98-2.46,2.95-1.48,5.41,.49,2.46,.49,4.92-.49,7.38-.49-.98-.98-1.48-1.48-2.46-1.97-1.97-2.95-4.43-2.95-7.38,0,0-1.48-2.95-3.44-1.97-1.97,.98-2.46,2.46-1.97,5.91l4.92,11.32c.98,2.95,.49,2.95-.49,3.94-.98,1.48-1.97,2.95-2.95,4.43q-.49,.98-.98-.49c-.98-2.95-1.97-5.91-3.44-8.86-.98-1.97-3.94-3.94-3.44-7.38,.98-3.94,.49-7.87-.98-11.81,0,0-1.48-2.95-3.94-1.97-1.48,.49-2.46,2.46-1.97,3.94,.98,2.46,.98,4.43,.98,6.89-1.48-.49-2.46-1.97-2.95-3.44-.98-2.46-3.44-7.87-6.4-6.4-2.95,1.48-2.46,3.44-.98,6.4,1.97,4.43,4.92,8.37,8.86,11.32,6.89,5.91,5.91,5.91,6.4,8.86,.49,2.95,6.89,20.67,6.89,20.67,0,0,0,.98-.98,0-2.95-1.48-6.4-2.95-9.35-3.94-1.97-.98-1.48-5.41-.98-7.87,.49-2.46,0-12.79-5.41-11.32-1.97,.49-2.95,2.95-1.97,4.43v.49c.98,2.46,.98,5.41,.49,8.37,0,0,0,1.48-.98,.49-.98-.98-2.46-5.41-3.94-5.91-1.48-.49-1.48-.98-3.94,.49-2.46,1.48-.98,4.43,1.48,7.87,2.46,3.94,6.4,6.89,10.83,8.37,6.4,2.95,5.91,4.92,9.35,10.33,1.97,3.44,1.97,7.87-.49,11.32-.98,1.97-1.97,3.94-3.44,5.91-1.48,2.95-4.43,5.41-7.38,6.89-2.46,.98-4.43,1.97-6.89,2.95-26.57,1.48-48.72,.49-75.78,3.44-14.27,1.48-25.59,2.46-35.43,2.95-.98-3.94,0-7.87,2.46-11.32,1.97-2.46,5.41-3.44,8.86-2.46,1.97,.49,3.44,5.91,4.43,8.37,.98,2.46,2.46,.98,2.95-.49,0-1.48-.49-3.44-.98-4.92-.49-1.48,0-1.48,1.48-.98,1.48,.49,2.46,1.48,4.43,2.46,1.97,.98,3.94,.49,3.94-1.48s-1.97-1.97-3.94-2.95c-1.97-.98-2.95-.98-1.48-2.46,1.48-.98,1.97-2.95,1.48-4.43-.49-1.48-2.46-1.97-4.43,.98-1.97,2.95-4.43,2.95-4.92,.98-.49-1.97,3.44-6.4,4.92-8.86,1.48-2.46,4.43-3.94,7.38-4.43,2.95-.98,4.43-.98,4.43-1.97s-3.44-.98-4.92-.98c-.98,0-1.97-.49-2.46-1.97v-.49c0-1.48,2.46-3.44,4.43-5.41,1.97-1.97,2.46-2.95,1.48-4.43-.98-1.48-3.44-.98-5.41,.98-1.48,1.48-2.95,3.44-4.43,5.41-.98,.98-1.97-.98-2.95-2.46s-2.95-2.46-3.94-1.48c-.98,.98,0,1.97,1.48,3.44,1.48,1.97,2.46,4.43,2.46,6.89s-1.48,4.92-3.94,5.91c-.98,.49-.98-3.44-2.95-3.44s-2.46,2.46-2.46,5.91-3.44,4.92-4.92,2.95c-1.97-2.95-2.95-6.4-2.95-9.84,0-2.46,3.44-4.92,5.41-6.4,1.97-1.48,4.92-1.97,3.44-3.94-1.48-1.97-7.38,.49-9.35,2.95-1.97,2.46-2.95,1.48-3.44,.49-.49-2.46-.49-4.92,0-7.38,.98-3.44,3.94-5.91,7.87-6.4,2.95,0,5.91,1.48,8.37,3.44,.98,.98,2.95,.98,3.44-.49,.49-1.48-2.95-3.44-4.43-4.43-1.48-.98-2.46-.98-1.97-1.97,.49-.98,4.43-2.95,5.91-3.44,1.48-.49,4.43-1.97,2.46-3.94-1.97-1.97-6.89,1.48-8.37,1.97-1.48,.49-.98-2.95-1.48-3.44-.49-.49,0-3.94-2.46-3.94s-1.97,4.43-2.46,6.89c-.49,2.46-1.97,1.97-4.92,4.43-1.97,1.97-4.43,3.94-5.91,5.91-.98,.98-1.48-1.48-1.48-5.41,0-2.95,.49-5.91,1.97-8.37,1.97-1.97,3.94-3.94,6.4-5.41,.49-.49,.98-1.48,.49-1.97-.49-.49-1.48-.98-1.97-.49-1.97,.98-3.44,1.48-4.43,.49-.98-.98,.98-3.94,2.46-6.4,1.48-2.46,1.48-5.41-.49-6.4-1.97-.98-4.43,1.48-4.92,3.94-.49,2.46-1.97,2.46-2.95,.49-.98-1.97-2.46-2.46-2.95-1.97-.49,.49-1.48,.98,.49,3.44,1.48,1.97,1.97,4.43,1.97,6.89,0,1.97-1.48,2.46-2.95,1.48s-3.44-1.97-3.94-.98c-.49,.98,.98,2.46,2.95,2.95s1.48,3.94,1.97,5.41c.49,1.48-.49,2.46-1.97,1.97-2.46-.98-4.43-3.44-4.92-5.91,0-1.48,0-2.95-.49-4.43-.49-.98-2.46-.49-2.46,.98v4.92c-.49,.98-2.46-.49-4.92-1.48-2.46-.98-4.92,0-4.92,1.48s4.92,3.94,5.91,3.94,1.97,.98,1.48,1.97c-.49,.98-2.95,2.46-3.94,3.44-.98,.98,.49,2.95,1.97,1.48,1.97-1.48,3.94-2.95,6.4-2.95,1.97,0,3.44,.98,4.43,2.46,.49,.98-.98,1.48-2.95,1.97-1.97,.49-2.46,1.48-2.46,2.46s.49,1.48,2.46,.98c1.48-.49,2.95-.98,4.43-.98,1.97,0,2.46,1.97,2.46,1.97,.98,3.44,5.41,13.78,5.91,15.25,.49,1.48,0,2.95-1.97,2.95s-4.43,0-4.43,1.97,4.43,1.97,6.89,1.97,2.46,2.95,2.95,6.4c.49,3.44-3.94,3.94-6.4,1.97-3.44-2.95-6.4-6.89-8.86-10.33-.49-1.97-.49-3.94,.98-5.41,.98-1.48,2.46-.98,3.44-1.48,.98-.49,.98-1.48,.49-2.46-.49-.98-2.95,0-3.44,.98-.49,.98-1.97,.98-1.97,0s.49-3.94,.49-4.92-.49-2.46-2.46-1.48c-1.97,.98-1.97,8.86-1.97,11.81s-1.48,3.44-2.46,2.95c-1.97-1.48-3.44-2.95-4.92-4.92-.49-1.48-.49-1.97,.98-4.43,.98-.98,1.48-1.97,1.97-3.44,0-.98-1.48-1.48-1.97-.49-.49,.98-1.48,1.97-2.46,2.46-.98,0-.49-3.94-.49-4.43s0-1.97-1.48-1.97-.98,4.43-.98,4.92-1.48,.49-3.44,.49-2.46,1.97-.98,1.97,2.95,.49,4.43,1.48c.98,.49,.98,3.94,.49,4.92-.49,.98-1.97,0-4.92,0s-5.91,0-5.91,1.48,1.97,3.44,4.92,3.44,5.41-.49,5.91,.49c.49,.98-.49,.98-1.48,1.97-.98,.98-1.48,1.97-.49,2.95,.98,.98,2.46,.49,3.94-.49,.98-1.48,2.95-1.97,4.92-1.48,2.46,.49,4.92,1.48,6.89,2.95,1.48,.98,.49,2.46-.98,2.95-1.97,.49-3.94,1.48-5.41,2.95-1.48,1.48-3.44,1.48-4.92,0-1.48-.98-3.44-2.46-3.94-1.48-.49,.98,.98,2.95,1.97,3.44,.98,.49,1.48,.49,.49,1.97-.98,1.48-2.46,2.95-3.94,3.94-.49,.49-.98,1.97,0,2.46,.49,.49,.98,.49,1.48,.49,1.97-.98,3.94-2.46,5.91-4.43,.49-.49,.98-1.48,1.48,0v3.94c0,.98-.49,1.97,.49,2.46,.49,0,1.48,0,1.97-.98,0-.98,.49-2.46,.49-3.94,0-1.97,.49-4.43,1.97-5.91,1.97-1.97,5.91-.98,8.86-.98s2.95,1.97,2.95,3.44-3.44,2.95-4.43,3.94c-.98,.98-3.44,.98-2.46,2.95,.98,1.97,1.48,.98,2.46,.98s3.94-2.95,5.91-3.44c1.97-.49,3.94,0,5.41,4.43,.49,1.97,1.48,3.44,1.97,5.41-16.24,.49-28.54-.49-43.8,0-18.7,0-23.62,4.92-23.62,7.87v3.94c0,2.95,1.48,4.43,5.91,4.43H429.6c3.44,0,5.91-.98,5.91-4.43v-21.16c-3.44-10.33-3.94-9.84-30.51-12.79"/><path class="cls-2" d="M378.42,458.63c-1.97,0-3.44-1.48-3.44-3.44s1.48-3.44,3.44-3.44,3.44,1.48,3.44,3.44-1.48,3.44-3.44,3.44m40.84,10.83c-5.41-7.38-5.41-16.73,0-24.11v-.49s0-.49-.49-.49c-5.41,.98-9.84,4.43-12.79,9.35,0,0-10.83-9.35-21.16-9.35-11.81,0-20.18,10.83-21.65,12.79,1.48,1.97,9.84,12.79,21.65,12.79,10.33,0,21.16-9.35,21.16-9.35,2.95,4.43,7.38,7.87,13.29,8.86"/><path class="cls-2" d="M189.46,477.33s7.87-5.41,8.37-5.41,1.97-.98,1.48-1.97c-.49-.98-1.97-.98-1.97-.98h-11.32c-1.97,0-1.97-1.97-1.97-1.97-.49-3.44-1.97-6.4-3.44-9.35-.98-1.48-1.48-1.48-1.97-1.48s-.98,.49-.98,1.97c0,2.95-.98,5.41-1.48,8.37-.98,2.46-1.97,2.46-3.94,2.46h-9.84c-.49,0-1.48,.49-1.48,.98s0,.98,.49,1.48c1.48,.98,7.87,4.43,9.35,5.41,.98,.49,1.48,1.97,1.48,2.95,0,.49-3.44,8.37-3.94,9.84-.49,1.48,.49,1.97,.49,1.97,.98,.49,2.46-.49,2.46-.49,2.95-1.48,6.89-4.92,8.37-6.4,.49-.49,1.97-.98,2.46,0,2.46,2.46,5.41,4.92,8.37,6.89,.49,.49,1.48,.49,1.97,0,.98-.49,0-1.97,0-1.97,0,0-2.46-7.87-3.44-9.84-.98-1.97,.49-2.46,.49-2.46"/><path class="cls-2" d="M321.83,455.19c0-1.48-1.48-2.95-2.95-2.95s-2.95,1.48-2.95,2.95,1.48,2.95,2.95,2.95,2.95-.98,2.95-2.95"/><path class="cls-2" d="M341.02,434.03c0-3.94-2.95-7.38-6.89-7.38s-7.38,2.95-7.38,6.89,2.95,7.38,6.89,7.38c4.43,.49,7.38-2.46,7.38-6.89"/><polygon class="cls-2" points="272.13 199.3 310.02 214.06 320.36 204.22 339.05 230.3 356.28 206.19 402.04 273.61 417.79 273.61 415.82 270.16 356.77 183.55 339.05 208.65 294.27 146.64 202.25 273.61 218.98 273.61 272.13 199.3"/><path class="cls-2" d="M344.96,301.16h4.92s.49,0,.49-.49v-11.32h12.3c.49,0,.98-.49,.98-.98v-.49l-14.76-48.72c0-.49-.49-.49-.98-.49,0,0-.49,0-.49,.49v.49l-15.26,49.21v.49c0,.49,.49,.98,.98,.98h12.3l-.49,10.83Z"/><path class="cls-2" d="M305.59,301.16h4.92s.49,0,.49-.49v-11.32h12.3c.49,0,.98-.49,.98-.98v-.49l-14.76-48.72c0-.49-.49-.49-.98-.49s-.49,0-.49,.49v.49l-15.26,48.72v.49c0,.49,.49,.98,.98,.98h12.3l-.49,11.32c.49,0,0,0,0,0"/><path class="cls-2" d="M265.73,301.16h4.92s.49,0,.49-.49v-11.32h12.3c.49,0,.98-.49,.98-.98v-.49l-15.25-48.23c0-.49-.49-.49-.98-.49s-.49,0-.98,.49l-15.26,48.72v.49c0,.49,.49,.98,.98,.98h12.3l.49,11.32Z"/><path class="cls-2" d="M298.21,417.3c0-1.48-1.48-2.95-2.95-2.95s-2.95,1.48-2.95,2.95,1.48,2.95,2.95,2.95,2.95-.98,2.95-2.95"/><path class="cls-2" d="M64.46,255.89v-41.83h.49c.98,0,1.48-.98,1.48-1.48v-6.4h-17.22v6.4c0,.98,.98,1.48,1.48,1.48h.49v41.83h13.29Z"/><path class="cls-2" d="M102.85,255.89v-41.83h.49c.98,0,1.48-.98,1.48-1.48v-6.4h-17.22v6.4c0,.98,.98,1.48,1.48,1.48h.49v41.83h13.29Z"/><path class="cls-2" d="M141.23,255.89v-41.83h.49c.98,0,1.48-.98,1.48-1.48v-6.4h-17.22v6.4c0,.98,.98,1.48,1.48,1.48h.49v41.83h13.29Z"/><path class="cls-2" d="M179.62,255.89v-41.83h.49c.98,0,1.48-.98,1.48-1.48v-6.4h-17.22v6.4c0,.98,.98,1.48,1.48,1.48h.49v41.83h13.29Z"/><path class="cls-2" d="M40.84,274.1H186.5v-6.89h-4.92v-6.4c0-.49-.49-.98-.98-.98H46.75c-.49,0-.98,.49-.98,.98v6.4h-4.92v6.89Z"/><path class="cls-2" d="M38.38,193.39H190.44l2.95-2.95c.98-.98,.98-2.46,0-2.95l-.49-.49-78.74-29.53-78.74,29.53c-.98,.49-1.48,1.97-.98,2.95,0,0,0,.49,.49,.49l3.44,2.95Z"/><polygon class="cls-2" points="181.58 197.33 113.18 197.33 44.78 197.33 44.78 201.27 113.18 201.27 181.58 201.27 181.58 197.33"/><path class="cls-2" d="M36.42,317.4H430.09c1.48,0,2.95,1.48,2.95,2.95v12.79c0,1.48-1.48,2.95-2.95,2.95H36.42c-1.48,0-2.95-1.48-2.95-2.95v-12.79c.49-1.48,1.48-2.95,2.95-2.95"/><path class="cls-2" d="M429.6,362.18h0l-1.97,.49c-12.3,6.4-51.18,21.16-86.12-12.3-.49-.49-1.48-.98-1.97-.98s-1.48,.49-1.97,.98c-10.33,7.87-58.56,40.35-101.37,.49l-.49-.49c-.49-.49-.98-.49-1.97-.49-.49,0-.98,.49-1.48,.49l-.49,.49c-42.81,39.86-91.04,7.38-101.37-.49-.49-.49-.98-.98-1.97-.98s-1.48,.49-1.97,.98c-34.94,33.46-73.81,18.21-86.12,12.3l-.98-.49h-1.48c-1.48,0-2.46,.98-2.46,2.46v12.79c0,.49,0,1.48,.49,1.48,40.35,35.43,79.23,2.46,88.09-6.4q.49-.49,.98-.98c.49-.49,.98-.49,1.48-.49s1.48,.49,1.48,.98c45.77,43.8,93.99,8.37,103.83,0l.98-.98c0-.49,.49-.49,.98-.49s.98,0,.98,.49l.98,.98c9.84,8.37,58.07,43.8,103.83,0,.98-.49,1.97-.49,2.95,0,.49,0,.49,.49,.49,.49,8.86,8.86,47.24,41.83,87.59,6.4,.49-.49,.98-.98,.98-1.48v-13.29c.49-.98-.49-1.97-1.97-1.97"/></g></svg>