<?xml version="1.0" encoding="UTF-8"?><svg id="Capa_1" xmlns="http://www.w3.org/2000/svg" viewBox="0 0 467 568.37"><defs><style>.cls-1{fill:#fff;}.cls-2{fill:#e9a30d;}</style></defs><path class="cls-2" d="M4.92,80.7H461.59V4.92H4.92V80.7Zm462.08,4.92H0V0H466.51V85.62h.49Z"/><polygon class="cls-2" points="16.73 17.72 38.88 17.72 38.88 24.6 32.48 24.6 32.48 67.91 23.62 67.91 23.62 24.6 16.73 24.6 16.73 17.72"/><path class="cls-2" d="M49.21,52.16h6.89l-3.44-20.18-3.44,20.18Zm-10.33,15.75l9.35-50.19h9.35l9.84,50.19h-8.86l-1.48-9.35h-8.86l-1.48,9.35h-7.87Z"/><path class="cls-2" d="M80.21,24.6v15.75h2.95c2.95,0,3.94-1.48,3.94-3.94v-7.38c0-2.95-1.48-3.94-3.94-3.94h-2.95v-.49Zm0,20.18v23.13h-8.37V17.72h12.3c8.37,0,11.81,4.43,11.81,11.32v6.4c0,5.41-1.97,8.37-6.89,9.84l7.87,22.64h-8.86l-7.87-23.13Z"/><path class="cls-2" d="M113.67,41.34h11.81v26.57h-5.91v-5.41c-.98,3.94-3.44,5.91-7.87,5.91-7.38,0-10.33-5.91-10.33-13.29V31c0-7.87,3.94-13.29,12.79-13.29,9.35,0,11.81,5.41,11.81,12.79v4.43h-7.87v-4.92c0-2.95-.98-4.92-4.43-4.92-2.95,0-4.43,1.97-4.43,4.92v27.07c0,2.95,1.48,4.92,3.94,4.92,2.95,0,3.94-1.48,3.94-4.92v-9.35h-3.94v-6.4h.49Z"/><polygon class="cls-2" points="132.37 17.72 152.55 17.72 152.55 24.6 140.74 24.6 140.74 38.88 149.11 38.88 149.11 45.77 140.74 45.77 140.74 61.02 152.55 61.02 152.55 67.91 132.37 67.91 132.37 17.72"/><polygon class="cls-2" points="156.49 17.72 178.63 17.72 178.63 24.6 171.74 24.6 171.74 67.91 163.38 67.91 163.38 24.6 156.49 24.6 156.49 17.72"/><path class="cls-2" d="M374.49,58.56c0-4.92,1.48-8.37,6.4-13.29l4.92-4.92c2.95-2.95,2.95-4.43,2.95-8.86v-3.44c0-2.95-1.48-3.94-2.95-3.94-1.97,0-3.44,.98-3.44,3.94v6.4h-7.87v-6.4c0-6.89,3.94-10.83,11.32-10.83,7.87,0,11.32,3.44,11.32,10.83v4.92c0,4.92-.98,7.87-5.41,12.79l-5.41,5.91c-1.97,2.46-3.44,3.94-3.44,7.87v2.46h13.78v6.89h-21.65v-10.33h-.49Z"/><path class="cls-2" d="M410.9,36.91c3.44,0,5.91,2.95,5.91,5.91,0,3.44-2.95,5.91-5.91,5.91-3.44,0-5.91-2.95-5.91-5.91s2.46-5.91,5.91-5.91"/><path class="cls-2" d="M447.81,28.54v4.43c0,4.43-2.46,6.89-5.91,8.37,4.43,.98,6.4,3.94,6.4,8.37v7.38c0,6.89-3.94,11.32-12.3,11.32s-11.81-4.92-11.81-12.3v-6.4h7.87v7.38c0,2.95,.98,4.92,3.94,4.92,2.46,0,3.94-1.97,3.94-4.43v-8.37c0-2.46-.98-3.94-3.94-3.94h-3.44v-6.4h2.95c2.95,0,4.43-1.48,4.43-3.94v-5.91c0-2.95-.98-4.43-3.44-4.43s-3.44,1.97-3.44,4.92v4.92h-7.87v-4.43c0-7.38,2.95-12.79,11.81-12.79,7.38,0,10.83,4.43,10.83,11.32"/><g><rect class="cls-2" x="0" y="101.86" width="466.51" height="466.51"/><path class="cls-1" d="M82.67,256.38s-11.32,12.3-11.32,21.16c0,7.38,8.86,12.3,11.32,13.78,0,0,11.81-5.91,11.81-13.78-.49-9.35-11.81-21.16-11.81-21.16"/><path class="cls-1" d="M57.08,278.53s-1.97,20.18,6.89,26.57c0,0,2.95,3.94,16.73,5.91,0,0,1.48-13.29-3.44-18.7-.49,0-2.95-3.94-20.18-13.78"/><path class="cls-1" d="M55.11,303.62s-1.97,22.14,7.38,29.03c0,0,2.95,3.94,17.72,6.4,0,0,1.48-14.27-3.94-20.18,0,0-2.46-4.43-21.16-15.26"/><path class="cls-1" d="M55.61,332.66s-2.95,24.11,6.4,30.51c0,0,3.94,4.43,18.7,6.89,0,0,2.46-14.76-2.95-20.67-.49,0-3.94-5.91-22.14-16.73"/><path class="cls-1" d="M52.16,361.69s-1.48,24.6,7.87,31.49c0,0,4.92,4.92,19.68,6.89,0,0,1.97-16.24-3.44-22.14,0,.49-4.92-6.4-24.11-16.24"/><path class="cls-1" d="M108.26,278.53s1.97,20.18-6.89,26.57c0,0-2.95,3.94-16.73,5.91,0,0-1.48-13.29,3.44-18.7,.49,0,2.95-3.94,20.18-13.78"/><path class="cls-1" d="M109.74,303.62s1.97,22.14-7.38,29.03c0,0-2.95,3.94-17.72,6.4,0,0-1.48-14.27,3.94-20.18,0,0,2.95-4.43,21.16-15.26"/><path class="cls-1" d="M109.74,332.66s2.95,24.11-6.4,30.51c0,0-3.94,4.43-18.7,6.89,0,0-2.46-14.76,3.44-20.67,0,0,2.95-5.91,21.65-16.73"/><path class="cls-1" d="M112.69,361.69s1.48,24.6-7.87,31.49c0,0-4.92,4.92-19.68,6.89,0,0-1.97-16.24,3.44-22.14,0,.49,4.92-6.4,24.11-16.24"/><rect class="cls-1" x="79.23" y="404.01" width="6.4" height="55.61"/><path class="cls-1" d="M61.51,231.29c0-.98-.98-1.97-1.97-1.97s-1.97,.98-1.97,1.97v43.3l4.43,2.46-.49-45.77Z"/><path class="cls-1" d="M70.37,224.4c0-.98-.98-1.97-1.97-1.97s-1.97,.98-1.97,1.97v51.18c.98-3.94,2.46-7.38,4.43-10.83l-.49-40.35Z"/><path class="cls-1" d="M79.72,213.57c0-.98-.98-1.97-1.97-1.97s-1.97,.98-1.97,1.97v44.78l4.43-5.91-.49-38.88Z"/><path class="cls-1" d="M103.34,231.29c0-.98,.98-1.97,1.97-1.97s1.97,.98,1.97,1.97v43.3l-4.43,2.46v-45.77h.49Z"/><path class="cls-1" d="M94.48,224.4c0-.98,.98-1.97,1.97-1.97s1.97,.98,1.97,1.97v51.18c-.98-3.94-2.46-7.38-4.43-10.83l.49-40.35Z"/><path class="cls-1" d="M85.62,213.57c0-.98,.98-1.97,1.97-1.97s1.97,.98,1.97,1.97v44.78l-4.43-5.91,.49-38.88Z"/><path class="cls-1" d="M150.09,256.38s-11.32,12.3-11.32,21.16c0,7.38,8.86,12.3,11.32,13.78,0,0,11.81-5.91,11.81-13.78,0-9.35-11.81-21.16-11.81-21.16"/><path class="cls-1" d="M124.5,278.53s-1.97,20.18,6.89,26.57c0,0,2.95,3.94,16.73,5.91,0,0,1.48-13.29-3.44-18.7-.49,0-2.95-3.94-20.18-13.78"/><path class="cls-1" d="M122.53,303.62s-1.97,22.14,7.38,29.03c0,0,2.95,3.94,17.72,6.4,0,0,1.48-14.27-3.94-20.18,0,0-2.46-4.43-21.16-15.26"/><path class="cls-1" d="M123.02,332.66s-2.95,24.11,6.4,30.51c0,0,3.94,4.43,18.7,6.89,0,0,2.46-14.76-3.44-20.67,0,0-3.44-5.91-21.65-16.73"/><path class="cls-1" d="M119.58,361.69s-1.48,24.6,7.87,31.49c0,0,4.92,4.92,19.68,6.89,0,0,1.97-16.24-3.44-22.14,0,.49-4.92-6.4-24.11-16.24"/><path class="cls-1" d="M175.68,278.53s1.97,20.18-6.89,26.57c0,0-2.95,3.94-16.73,5.91,0,0-1.48-13.29,3.44-18.7,.49,0,2.95-3.94,20.18-13.78"/><path class="cls-1" d="M177.65,303.62s1.97,22.14-7.38,29.03c0,0-2.95,3.94-17.72,6.4,0,0-1.48-14.27,3.94-20.18-.49,0,2.46-4.43,21.16-15.26"/><path class="cls-1" d="M177.15,332.66s3.44,24.11-6.4,30.51c0,0-3.94,4.43-18.7,6.89,0,0-2.46-14.76,3.44-20.67,0,0,2.95-5.91,21.65-16.73"/><path class="cls-1" d="M180.11,361.69s1.48,24.6-7.87,31.49c0,0-4.92,4.92-19.68,6.89,0,0-1.97-16.24,3.44-22.14,0,.49,4.92-6.4,24.11-16.24"/><rect class="cls-1" x="146.64" y="404.01" width="6.4" height="55.61"/><path class="cls-1" d="M128.93,231.29c0-.98-.98-1.97-1.97-1.97s-1.97,.98-1.97,1.97v43.3l4.43,2.46-.49-45.77Z"/><path class="cls-1" d="M138.28,224.4c0-.98-.98-1.97-1.97-1.97s-1.97,.98-1.97,1.97v51.18c.98-3.94,2.46-7.38,4.43-10.83l-.49-40.35Z"/><path class="cls-1" d="M147.14,213.57c0-.98-.98-1.97-1.97-1.97s-1.97,.98-1.97,1.97v44.78l4.43-5.91-.49-38.88Z"/><path class="cls-1" d="M170.76,231.29c0-.98,.98-1.97,1.97-1.97s1.97,.98,1.97,1.97v43.3l-3.94,2.46v-45.77Z"/><path class="cls-1" d="M161.9,224.4c0-.98,.98-1.97,1.97-1.97s1.97,.98,1.97,1.97v51.18c-.98-3.94-2.46-7.38-4.43-10.83l.49-40.35Z"/><path class="cls-1" d="M153.04,213.57c0-.98,.98-1.97,1.97-1.97s1.97,.98,1.97,1.97v44.78l-4.43-5.91,.49-38.88Z"/><path class="cls-1" d="M217.51,256.38s-11.32,12.3-11.32,21.16c0,7.38,8.86,12.3,11.32,13.78,0,0,11.81-5.91,11.81-13.78,0-9.35-11.81-21.16-11.81-21.16"/><path class="cls-1" d="M191.92,278.53s-1.97,20.18,6.89,26.57c0,0,2.95,3.94,16.73,5.91,0,0,1.48-13.29-3.44-18.7-.49,0-2.95-3.94-20.18-13.78"/><path class="cls-1" d="M189.95,303.62s-1.97,22.14,7.38,29.03c0,0,2.95,3.94,17.72,6.4,0,0,1.48-14.27-3.94-20.18,0,0-2.46-4.43-21.16-15.26"/><path class="cls-1" d="M190.44,332.66s-3.44,24.11,6.4,30.51c0,0,3.94,4.43,18.7,6.89,0,0,2.46-14.76-3.44-20.67,0,0-2.95-5.91-21.65-16.73"/><path class="cls-1" d="M187,361.69s-1.48,24.6,8.37,31.49c0,0,4.92,4.92,19.68,6.89,0,0,1.97-16.24-3.44-22.14-.49,.49-5.41-6.4-24.6-16.24"/><path class="cls-1" d="M243.1,278.53s1.97,20.18-6.89,26.57c0,0-2.95,3.94-16.73,5.91,0,0-1.48-13.29,3.44-18.7,.49,0,2.95-3.94,20.18-13.78"/><path class="cls-1" d="M245.06,303.62s1.97,22.14-7.38,29.03c0,0-2.95,3.94-17.72,6.4,0,0-1.48-14.27,3.94-20.18-.49,0,2.46-4.43,21.16-15.26"/><path class="cls-1" d="M244.57,332.66s3.44,24.11-6.4,30.51c0,0-3.94,4.43-18.7,6.89,0,0-2.46-14.76,3.44-20.67,0,0,2.95-5.91,21.65-16.73"/><path class="cls-1" d="M247.52,361.69s1.48,24.6-7.87,31.49c0,0-4.92,4.92-19.68,6.89,0,0-1.97-16.24,3.44-22.14,.49,.49,4.92-6.4,24.11-16.24"/><rect class="cls-1" x="214.06" y="404.01" width="6.4" height="55.61"/><path class="cls-1" d="M196.35,231.29c0-.98-.98-1.97-1.97-1.97s-1.97,.98-1.97,1.97v43.3l4.43,2.46-.49-45.77Z"/><path class="cls-1" d="M205.2,224.4c0-.98-.98-1.97-1.97-1.97s-1.97,.98-2.46,1.97v51.18c.98-3.94,2.46-7.38,4.43-10.83v-40.35Z"/><path class="cls-1" d="M214.55,213.57c0-.98-.98-1.97-1.97-1.97s-1.97,.98-1.97,1.97v44.78l4.43-5.91v-38.88h-.49Z"/><path class="cls-1" d="M238.67,231.29c0-.98,.98-1.97,1.97-1.97s1.97,.98,1.97,1.97v43.3l-4.43,2.46v-45.77h.49Z"/><path class="cls-1" d="M229.32,224.4c0-.98,.98-1.97,1.97-1.97s1.97,.98,1.97,1.97v51.18c-.98-3.94-2.46-7.38-4.43-10.83l.49-40.35Z"/><path class="cls-1" d="M220.46,213.57c0-.98,.98-1.97,2.46-1.97,.98,0,1.97,.98,1.97,1.97v44.78l-4.43-5.91v-38.88Z"/><polygon class="cls-1" points="340.53 288.86 323.8 341.52 342.99 400.07 320.85 400.07 308.05 358.25 295.26 400.07 275.08 400.07 293.78 340.53 276.56 288.86 298.7 288.86 309.53 324.78 320.35 288.86 340.53 288.86"/><path class="cls-1" d="M355.29,375.47c0-13.29,4.43-21.65,16.73-34.94l12.79-13.29c7.38-7.87,8.37-11.81,8.37-23.13v-10.83c0-8.37-3.94-9.84-7.87-9.84s-8.86,2.46-8.86,10.33v16.73h-20.67v-16.24c0-18.7,9.84-29.03,29.53-29.03s29.03,8.86,29.03,28.05v12.79c0,13.29-2.46,21.16-14.27,33.46l-14.27,15.26c-5.91,5.91-9.35,9.84-9.35,20.67v6.4h36.91v18.21h-58.07v-24.6Z"/></g></svg>