<?xml version="1.0" encoding="UTF-8"?><svg id="Capa_1" xmlns="http://www.w3.org/2000/svg" viewBox="0 0 467 568.37"><defs><style>.cls-1{fill:#006da3;}.cls-2{fill:#fff;}</style></defs><path class="cls-1" d="M4.92,80.7H461.59V4.92H4.92V80.7Zm462.08,4.92H0V0H466.51V85.62h.49Z"/><polygon class="cls-1" points="16.73 17.72 38.88 17.72 38.88 24.6 32.48 24.6 32.48 67.91 23.62 67.91 23.62 24.6 16.73 24.6 16.73 17.72"/><path class="cls-1" d="M49.21,52.16h6.89l-3.44-20.18-3.44,20.18Zm-10.33,15.75l9.35-50.19h9.35l9.84,50.19h-8.86l-1.48-9.35h-8.86l-1.48,9.35h-7.87Z"/><path class="cls-1" d="M80.21,24.6v15.75h2.95c2.95,0,3.94-1.48,3.94-3.94v-7.38c0-2.95-1.48-3.94-3.94-3.94h-2.95v-.49Zm0,20.18v23.13h-8.37V17.72h12.3c8.37,0,11.81,4.43,11.81,11.32v6.4c0,5.41-1.97,8.37-6.89,9.84l7.87,22.64h-8.86l-7.87-23.13Z"/><path class="cls-1" d="M113.67,41.34h11.81v26.57h-5.91v-5.41c-.98,3.94-3.44,5.91-7.87,5.91-7.38,0-10.33-5.91-10.33-13.29V31c0-7.87,3.94-13.29,12.79-13.29,9.35,0,11.81,5.41,11.81,12.79v4.43h-7.87v-4.92c0-2.95-.98-4.92-4.43-4.92-2.95,0-4.43,1.97-4.43,4.92v27.07c0,2.95,1.48,4.92,3.94,4.92,2.95,0,3.94-1.48,3.94-4.92v-9.35h-3.94v-6.4h.49Z"/><polygon class="cls-1" points="132.37 17.72 152.55 17.72 152.55 24.6 140.74 24.6 140.74 38.88 149.11 38.88 149.11 45.77 140.74 45.77 140.74 61.02 152.55 61.02 152.55 67.91 132.37 67.91 132.37 17.72"/><polygon class="cls-1" points="156.49 17.72 178.63 17.72 178.63 24.6 171.74 24.6 171.74 67.91 163.38 67.91 163.38 24.6 156.49 24.6 156.49 17.72"/><polygon class="cls-1" points="369.07 17.72 369.07 67.91 360.71 67.91 360.71 29.53 354.8 35.43 354.8 27.07 362.68 18.21 369.07 18.21 369.07 17.72"/><path class="cls-1" d="M392.2,56.59v-8.86c0-3.44-.98-4.92-3.94-4.92-2.46,0-3.94,1.97-3.94,4.43v9.35c0,2.95,.98,4.92,3.94,4.92s3.94-1.48,3.94-4.92m-16.24-1.48V30.51c0-7.87,3.44-13.29,12.3-13.29,9.35,0,11.81,5.41,11.81,12.79v2.46h-7.87v-3.44c0-2.95-.98-4.92-3.94-4.92s-3.94,1.97-3.94,4.92v10.83c1.48-2.46,3.44-3.94,6.89-3.94,5.91,0,9.35,3.94,9.35,12.3v7.38c0,7.87-3.44,12.79-12.3,12.79s-12.3-5.41-12.3-13.29"/><path class="cls-1" d="M414.35,36.91c3.44,0,5.91,2.95,5.91,5.91,0,3.44-2.95,5.91-5.91,5.91-3.44,0-5.91-2.95-5.91-5.91-.49-2.95,2.46-5.91,5.91-5.91"/><polygon class="cls-1" points="427.14 17.72 448.3 17.72 448.3 25.59 437.47 67.91 429.11 67.91 440.43 24.6 427.63 24.6 427.63 17.72 427.14 17.72"/><g><rect class="cls-1" x="0" y="101.86" width="466.51" height="466.51"/><path class="cls-2" d="M405.98,289.85c7.87,0,14.27-6.4,14.27-13.78s-6.4-14.27-13.78-14.27c-7.87,0-14.27,6.4-14.27,13.78,0,7.87,6.4,14.27,13.78,14.27"/><path class="cls-2" d="M422.71,296.24h-32.97c-9.84,.98-17.22,8.86-17.22,18.7v39.37c-.49,2.95,1.97,5.91,4.92,5.91s5.91-1.97,5.91-4.92v-34.94c0-.98,.49-2.95,2.46-2.95s1.97,1.48,1.97,2.95v101.37c0,4.43,3.44,7.87,7.87,7.87s7.87-3.44,7.87-7.87v-58.56c0-.98,.98-2.46,1.97-2.46h.49c.98,0,1.97,.98,2.46,1.97v59.05c-.49,4.43,2.95,8.37,7.38,8.37,4.43,.49,8.37-2.95,8.37-7.38v-102.36c0-.98,.49-2.95,1.97-2.95,2.46,0,2.95,1.48,2.95,2.95v33.46c-.49,2.95,1.97,5.91,4.92,5.91s5.91-1.97,5.91-4.92v-40.35c0-9.35-7.38-17.22-17.22-18.21"/><path class="cls-2" d="M325.28,296.24c7.38,0,13.29-5.91,13.29-13.29s-5.91-13.29-13.29-13.29-13.29,5.91-13.29,13.29c-.49,7.38,5.91,13.29,13.29,13.29"/><path class="cls-2" d="M352.34,314.45s-3.94-10.33-12.79-10.33h-28.54c-8.86,0-12.79,10.33-12.79,10.33l-11.32,36.42s-1.97,6.4,3.94,8.37c5.91,1.97,7.38-4.92,7.38-4.92l8.86-30.51s.49-2.46,2.46-1.97,.98,2.95,.98,2.95l-15.75,56.59h14.76v40.84c-.49,3.94,2.46,7.38,6.4,7.38,3.94,.49,7.38-2.46,7.38-6.4v-41.83h3.94v40.84c0,3.94,2.95,6.89,6.89,6.89s6.89-2.95,6.89-6.89v-40.84h14.76l-16.24-56.59s-.49-2.46,.98-2.95,2.46,1.97,2.46,1.97l8.86,30.51s1.48,6.4,7.38,4.92c5.91-1.48,3.44-8.37,3.44-8.37l-10.33-36.42Z"/><path class="cls-2" d="M69.39,297.23c7.38,0,13.78-5.91,13.78-13.78s-5.91-13.78-13.78-13.78-13.78,5.91-13.78,13.78,5.91,13.78,13.78,13.78"/><path class="cls-2" d="M85.13,302.15h-31.49c-9.35,.98-16.24,8.86-16.24,18.21v37.4c0,1.48,.98,2.95,1.97,3.94l-12.3,63.48c0,.98,.49,1.97,1.48,2.46h.49c.98,0,1.97-.49,1.97-1.48l11.81-63.48c2.95,0,4.92-2.46,4.92-5.41v-31.99c0-.98,.49-2.95,2.46-2.95s1.97,1.48,1.97,2.46v96.94c0,3.94,3.44,7.38,7.38,7.38s7.87-3.44,7.87-7.38v-55.61c0-.98,.98-1.97,1.97-1.97h.49c.98,0,1.97,.98,1.97,1.97v55.61c.49,3.94,3.94,7.38,8.37,6.89,3.94-.49,6.89-3.44,6.89-6.89v-96.45c0-.98,.49-2.46,1.97-2.46s2.46,1.48,2.46,2.95v31.99c-.49,2.95,1.97,5.41,4.92,5.91,2.95,.49,5.41-1.97,5.91-4.92v-38.38c-.98-9.35-7.87-17.22-17.22-18.21"/><path class="cls-2" d="M155.99,354.31c-1.97-.98-4.43-.49-5.41,1.97-1.97,3.44-4.43,6.89-6.89,10.33-.98,.98-1.97,1.48-3.44,1.48h-12.79c-1.48,0-2.46-.49-3.44-1.48-1.48-1.48-6.89-10.83-6.89-10.83-.49-.98-1.97-1.97-3.44-1.97-1.97,0-3.94,1.97-3.94,3.94,0,.49,0,.98,.49,1.48l10.83,19.68c.49,.98,.49,1.48,.49,2.46v2.95c0,.98,0,2.46-.49,3.44l-5.41,20.67h5.91v15.26c-.49,2.95,1.97,5.41,4.92,5.91,2.95,.49,5.41-1.97,5.91-4.92v-16.24h2.95v15.26c-.49,2.95,1.97,5.41,4.92,5.91,2.95,.49,5.41-1.97,5.91-4.92v-16.24h5.91l-5.41-20.67c-.49-.49-.49-1.48-.49-2.46v-3.94c0-.98,.49-1.97,.49-2.46l9.84-18.21,.98-1.97c.98-1.48,.49-3.44-1.48-4.43"/><path class="cls-2" d="M133.85,361.2c5.91,0,10.83-4.92,10.83-10.83s-4.92-10.83-10.83-10.83-10.83,4.92-10.83,10.83,4.92,10.83,10.83,10.83"/><path class="cls-2" d="M224.4,274.1c8.86,0,16.24-7.38,16.24-16.24s-7.38-16.24-16.24-16.24-16.24,7.38-16.24,16.24c-.49,8.86,6.89,16.24,16.24,16.24"/><path class="cls-2" d="M243.59,280.5h-38.38c-9.84,.98-18.21,8.37-19.68,18.7h77.75c-1.97-10.33-9.84-17.72-19.68-18.7"/><path class="cls-2" d="M253.92,333.64h-57.58v-10.33h57.08v10.33h.49Zm11.81-27.07h-95.47v9.84h7.87v112.69h93.5v-112.69h7.38v-9.84h-13.29Z"/></g></svg>