<?xml version="1.0" encoding="UTF-8"?><svg id="Capa_1" xmlns="http://www.w3.org/2000/svg" viewBox="0 0 467 568.37"><defs><style>.cls-1{fill:#0096d6;}.cls-2{fill:#fff;}</style></defs><path class="cls-1" d="M4.92,80.7H461.59V4.92H4.92V80.7Zm462.08,4.92H0V0H466.51V85.62h.49Z"/><polygon class="cls-1" points="16.73 17.72 38.88 17.72 38.88 24.6 32.48 24.6 32.48 67.91 23.62 67.91 23.62 24.6 16.73 24.6 16.73 17.72"/><path class="cls-1" d="M49.21,52.16h6.89l-3.44-20.18-3.44,20.18Zm-10.33,15.75l9.35-50.19h9.35l9.84,50.19h-8.86l-1.48-9.35h-8.86l-1.48,9.35h-7.87Z"/><path class="cls-1" d="M80.21,24.6v15.75h2.95c2.95,0,3.94-1.48,3.94-3.94v-7.38c0-2.95-1.48-3.94-3.94-3.94h-2.95v-.49Zm0,20.18v23.13h-8.37V17.72h12.3c8.37,0,11.81,4.43,11.81,11.32v6.4c0,5.41-1.97,8.37-6.89,9.84l7.87,22.64h-8.86l-7.87-23.13Z"/><path class="cls-1" d="M113.67,41.34h11.81v26.57h-5.91v-5.41c-.98,3.94-3.44,5.91-7.87,5.91-7.38,0-10.33-5.91-10.33-13.29V31c0-7.87,3.94-13.29,12.79-13.29,9.35,0,11.81,5.41,11.81,12.79v4.43h-7.87v-4.92c0-2.95-.98-4.92-4.43-4.92-2.95,0-4.43,1.97-4.43,4.92v27.07c0,2.95,1.48,4.92,3.94,4.92,2.95,0,3.94-1.48,3.94-4.92v-9.35h-3.94v-6.4h.49Z"/><polygon class="cls-1" points="132.37 17.72 152.55 17.72 152.55 24.6 140.74 24.6 140.74 38.88 149.11 38.88 149.11 45.77 140.74 45.77 140.74 61.02 152.55 61.02 152.55 67.91 132.37 67.91 132.37 17.72"/><polygon class="cls-1" points="156.49 17.72 178.63 17.72 178.63 24.6 171.74 24.6 171.74 67.91 163.38 67.91 163.38 24.6 156.49 24.6 156.49 17.72"/><path class="cls-1" d="M423.7,55.11V31c0-7.87,3.94-13.29,12.3-13.29,9.35,0,11.81,5.41,11.81,12.79v5.91h-7.87v-7.38c0-2.95-.98-4.92-3.94-4.92s-4.43,1.97-4.43,4.92v27.07c0,2.95,1.48,4.92,4.43,4.92s3.94-1.97,3.94-4.92v-9.35h7.87v8.86c0,7.38-2.95,12.3-11.81,12.3-8.37,.49-12.3-4.92-12.3-12.79"/><polygon class="cls-1" points="361.69 17.72 361.69 67.91 353.33 67.91 353.33 29.53 347.42 35.43 347.42 27.07 355.29 18.21 361.69 18.21 361.69 17.72"/><path class="cls-1" d="M374.49,53.15h7.87v-20.67l-7.87,20.67Zm-7.38,1.48l14.76-36.91h8.37V53.15h3.44v6.4h-3.44v8.37h-7.87v-8.37h-14.76v-4.92h-.49Z"/><polygon class="cls-1" points="404.01 32.48 404.01 53.15 414.84 42.81 404.01 32.48"/><g><rect class="cls-1" y="101.86" width="466.51" height="466.51"/><path class="cls-2" d="M315.43,208.16c-4.43,0-7.87,3.44-7.87,7.87v52.16c-.49,4.43,2.95,8.37,7.38,8.86,4.43,.49,8.37-2.95,8.86-7.38v-53.64c0-4.43-3.44-7.87-8.37-7.87"/><path class="cls-2" d="M419.27,208.16c-4.43,0-7.87,3.44-7.87,7.87v52.16c-.49,4.43,2.95,8.37,7.38,8.86,4.43,.49,8.37-2.95,8.86-7.38v-53.64c0-4.43-3.94-7.87-8.37-7.87"/><path class="cls-2" d="M404.01,214.06h-72.34c-.98,0-1.97,.98-1.97,1.97v51.18c0,.98,.98,1.97,1.97,2.46h27.56l-3.44,201.27c0,.98,.98,1.97,1.97,1.97h19.19c.98,0,1.97-.49,1.97-1.97l-4.43-201.27h28.54c.98,0,1.97-.98,1.97-2.46v-50.69c.98-1.48,0-2.46-.98-2.46"/><polygon class="cls-2" points="68.4 218.49 54.13 218.49 54.13 488.16 247.52 488.16 247.52 471.92 68.4 471.92 68.4 218.49"/><path class="cls-2" d="M104.32,305.1v-15.75c0-.98,.49-1.48,1.48-1.48h.98l.98,.49c10.33,7.38,41.83,25.59,70.37-.98l.49-.49c.49-.49,1.97-.49,2.46,0l.49,.49c29.03,27.07,61.02,7.87,70.86,.49l.49-.49h.49c.98,0,1.48,.49,1.48,1.48v15.75c0,.49,0,.98-.49,.98l-.98,.98c-31.99,28.54-65.45,4.43-72.34-1.48h-1.48l-.98,.49c-6.89,5.91-40.84,30.51-73.32,.98q-.49-.49-.98-1.48m0-35.92v-16.24c0-.98,.49-1.48,1.48-1.48h.98l.98,.49c10.33,7.38,41.83,25.59,70.37-.98l.49-.49q.49-.49,.98-.49c.49,0,.98,0,.98,.49l.49,.49c29.03,27.07,61.02,7.38,70.86,.49l.49-.49h.49c.98,0,1.48,.49,1.48,1.48v16.73c0,.49,0,.98-.49,.98l-.98,.98c-31.99,28.54-65.45,4.43-72.34-1.48v-.98h-.98l-.98,.49c-6.89,5.91-40.84,31-73.32,.98-.49,0-.49-.49-.98-.98m110.23,78.74c0-1.97,1.48-3.94,3.94-3.94,1.97,0,3.94,1.48,3.94,3.94,0,1.97-1.48,3.94-3.94,3.94s-3.94-1.97-3.94-3.94m-19.19,8.37c0-2.95,1.97-4.92,4.92-4.92s4.92,1.97,4.92,4.92-1.97,4.92-4.92,4.92-4.92-2.46-4.92-4.92m56.59,50.69h0s0,.49,0,0l-.49,.49c-5.91-.98-11.32-4.92-13.78-10.33,0,0-12.3,10.83-23.62,10.83-13.29,0-22.64-11.81-24.11-13.78v-.49c1.48-1.97,10.83-14.27,24.11-14.27,11.32,0,23.62,10.33,23.62,10.33,2.95-5.41,7.87-9.35,14.27-10.33,0,0,.49,0,.49,.49v.49c-6.4,7.87-6.4,18.7-.49,26.57m-62.99-37.89c-1.97,2.46-14.76,18.7-32.48,18.7-15.75,0-31.99-14.27-31.99-14.27-3.94,7.38-10.83,12.79-19.19,13.78h-.49l-.49-.49v-.49c3.44-5.41,5.41-11.81,5.91-18.21-.49-6.4-2.46-12.79-5.91-18.21v-.49s0-.49,.49-.49h.49c8.37,1.48,15.25,6.4,19.19,13.78,0,0,16.73-14.27,31.99-14.27,17.72,0,30.51,16.24,32.48,18.7v1.97ZM83.16,202.25v253.43h193.39V185.52H83.16v16.73Z"/><path class="cls-2" d="M166.33,360.21c-2.95,0-5.41,2.46-5.41,5.41s2.46,5.41,5.41,5.41,5.41-2.46,5.41-5.41-2.46-5.41-5.41-5.41"/><path class="cls-2" d="M206.19,387.28c-1.97,0-3.94,1.48-4.43,3.44,0,1.97,1.48,3.94,3.44,4.43h.98c1.97,0,3.94-1.48,4.43-3.44,0-1.97-1.48-3.94-3.44-4.43h-.98Z"/></g></svg>