<?xml version="1.0" encoding="UTF-8"?><svg id="Capa_1" xmlns="http://www.w3.org/2000/svg" viewBox="0 0 467 568.37"><defs><style>.cls-1{fill:#010101;}.cls-2{fill:#fff;}.cls-3{fill:#c88b0c;}</style></defs><g><path class="cls-3" d="M4.92,80.7H461.59V4.92H4.92V80.7Zm462.08,4.92H0V0H466.51V85.62h.49Z"/><polygon class="cls-3" points="16.73 17.72 38.88 17.72 38.88 24.6 32.48 24.6 32.48 67.91 23.62 67.91 23.62 24.6 16.73 24.6 16.73 17.72"/><path class="cls-3" d="M49.21,52.16h6.89l-3.44-20.18-3.44,20.18Zm-10.33,15.75l9.35-50.19h9.35l9.84,50.19h-8.86l-1.48-9.35h-8.86l-1.48,9.35h-7.87Z"/><path class="cls-3" d="M80.21,24.6v15.75h2.95c2.95,0,3.94-1.48,3.94-3.94v-7.38c0-2.95-1.48-3.94-3.94-3.94h-2.95v-.49Zm0,20.18v23.13h-8.37V17.72h12.3c8.37,0,11.81,4.43,11.81,11.32v6.4c0,5.41-1.97,8.37-6.89,9.84l7.87,22.64h-8.86l-7.87-23.13Z"/><path class="cls-3" d="M113.67,41.34h11.81v26.57h-5.91v-5.41c-.98,3.94-3.44,5.91-7.87,5.91-7.38,0-10.33-5.91-10.33-13.29V31c0-7.87,3.94-13.29,12.79-13.29,9.35,0,11.81,5.41,11.81,12.79v4.43h-7.87v-4.92c0-2.95-.98-4.92-4.43-4.92-2.95,0-4.43,1.97-4.43,4.92v27.07c0,2.95,1.48,4.92,3.94,4.92,2.95,0,3.94-1.48,3.94-4.92v-9.35h-3.94v-6.4h.49Z"/><polygon class="cls-3" points="132.37 17.72 152.55 17.72 152.55 24.6 140.74 24.6 140.74 38.88 149.11 38.88 149.11 45.77 140.74 45.77 140.74 61.02 152.55 61.02 152.55 67.91 132.37 67.91 132.37 17.72"/><polygon class="cls-3" points="156.49 17.72 178.63 17.72 178.63 24.6 171.74 24.6 171.74 67.91 163.38 67.91 163.38 24.6 156.49 24.6 156.49 17.72"/><path class="cls-3" d="M423.7,55.11V31c0-7.87,3.94-13.29,12.3-13.29,9.35,0,11.81,5.41,11.81,12.79v5.91h-7.87v-7.38c0-2.95-.98-4.92-3.94-4.92s-4.43,1.97-4.43,4.92v27.07c0,2.95,1.48,4.92,4.43,4.92s3.94-1.97,3.94-4.92v-9.35h7.87v8.86c0,7.38-2.95,12.3-11.81,12.3-8.37,.49-12.3-4.92-12.3-12.79"/><polygon class="cls-3" points="364.15 17.72 364.15 67.91 355.79 67.91 355.79 29.53 349.88 35.43 349.88 27.07 357.75 17.72 364.15 17.72"/><path class="cls-3" d="M371.04,58.56c0-4.92,1.48-8.37,6.4-13.29l4.92-4.92c2.95-2.95,2.95-4.43,2.95-8.86v-3.94c0-2.95-1.48-3.94-2.95-3.94-1.97,0-3.44,.98-3.44,3.94v6.4h-7.87v-5.91c0-6.89,3.94-10.83,11.32-10.83s10.83,3.44,10.83,10.33v4.92c0,4.92-.98,7.87-5.41,12.79l-5.41,5.91c-1.97,2.46-3.44,3.94-3.44,7.87v2.46h13.78v6.89h-21.65v-9.84Z"/><polygon class="cls-3" points="404.01 32.48 404.01 53.15 414.84 42.81 404.01 32.48"/></g><g><rect class="cls-3" x="0" y="101.86" width="466.51" height="466.51"/><path class="cls-1" d="M168.79,385.8h-37.89v-4.43c0-.98-.49-1.48-1.48-1.48h-28.54c-.98,0-1.48,.49-1.48,1.48v4.43H62c-.98,0-1.48,.49-1.48,1.48l.98,5.91c0,.98,.49,1.48,1.48,1.48h104.82c.98,0,1.48-.49,1.48-1.48l.98-5.91c0-.98-.49-1.48-1.48-1.48"/><path class="cls-1" d="M144.68,494.07c0,1.97-1.97,3.44-3.94,3.44s-3.44-1.97-3.44-3.94l4.43-74.31c0-1.97,1.97-3.44,3.94-3.44s3.44,1.97,3.44,3.94l-4.43,74.31Zm-25.59,0c0,1.97-1.48,3.94-3.94,3.94s-3.94-1.48-3.94-3.94v-74.31c0-1.97,1.48-3.94,3.94-3.94s3.94,1.48,3.94,3.94v74.31Zm-29.03,3.94h0c-1.97,0-3.44-1.48-3.94-3.44l-3.94-74.8c0-1.97,1.48-3.94,3.44-3.94s3.94,1.48,3.94,3.44l4.43,74.31c0,2.46-1.48,4.43-3.94,4.43q.49,0,0,0m77.26-97.44H62.99c-.98,0-1.48,.49-1.48,1.48l7.38,109.74c0,.98,.49,1.48,1.48,1.48h89.56c.98,0,1.48-.49,1.48-1.48l7.38-109.74c0-.98-.49-1.48-1.48-1.48"/><path class="cls-1" d="M162.39,263.27v-109.74c0-.98-.49-1.48-1.48-1.48H70.37c-.98,0-1.48,.49-1.48,1.48v109.74H33.95l82.18,82.18,82.18-82.18h-35.92Z"/><path class="cls-2" d="M237.19,455.19h-8.37v-23.62h8.37v23.62Zm0,43.3h-8.37v-23.13h8.37v23.13Zm0,43.3h-8.37v-23.13h8.37v23.13Z"/><path class="cls-2" d="M237.19,368.58h-8.37v-23.13h8.37v23.13Zm0,43.3h-8.37v-23.13h8.37v23.13Z"/><path class="cls-2" d="M237.19,238.67h-8.37v-23.13h8.37v23.13Zm0,43.3h-8.37v-23.13h8.37v23.13Zm0,43.3h-8.37v-23.13h8.37v23.13Z"/><path class="cls-2" d="M237.19,152.06h-8.37v-23.13h8.37v23.13Zm0,43.8h-8.37v-23.13h8.37v23.13Z"/><path class="cls-2" d="M421.24,192.41c-7.38-5.41-16.24-8.37-25.59-8.37-1.97,0-3.94,0-6.4,.49h-.49c-11.32,2.46-21.65,8.86-28.05,18.7l-.49,.49c0,.49-.49,.49-.49,.98v1.48c1.97,3.44,3.44,5.91,4.92,8.37,.49,.98,1.48,.98,1.97,.49,0,0,.49,0,.49-.49v-.49c10.33-14.27,18.21-16.24,23.62-17.22h.49c.98,0,1.97-.49,3.44-.49,6.4,0,12.79,1.97,17.72,5.91,6.89,5.41,10.33,13.78,9.84,22.64,0,17.22-8.37,23.62-15.25,26.08-2.46,.98-5.41,1.48-8.37,1.48-4.43,0-8.86-.98-12.79-2.95h-.49c-5.91-2.46-14.76-7.87-23.13-24.6-17.22-34.45-31.49-37.89-40.84-39.86h-.49c-1.97-.49-3.94-.49-5.91-.49-9.35,0-18.21,2.95-25.1,8.37-6.4,4.92-13.78,14.76-13.78,32.48-.98,20.67,15.25,38.38,35.92,38.88h2.46c2.95,0,5.91-.49,8.86-.98,5.41-.98,10.33-3.44,14.76-6.89l4.92,4.43c.49,.49,1.48,.49,1.97,0,.49,0,.49-.49,.49-.98l3.94-23.62v-.49c0-.49,0-.98-.49-.98h-1.97l-23.13,6.4h-.49q-.49,0-.98,.49t-.49,.98c0,.49,0,.98,.49,.98l4.92,4.43c-2.46,1.48-4.92,2.46-7.38,2.95-1.97,.49-3.94,.49-6.4,.49-7.38,0-14.76-3.44-19.68-8.86-3.94-4.92-5.91-11.32-5.41-18.21-.49-8.37,2.46-16.73,8.86-22.14,4.92-3.44,11.32-5.41,17.22-5.41h3.94c7.38,1.48,18.21,3.94,32.48,32.97,7.87,15.26,17.22,25.59,29.03,30.51,5.91,2.95,12.3,4.43,18.7,4.43,4.43,0,8.86-.49,12.79-1.97,6.89-2.46,23.62-11.81,23.62-37.89,.98-12.79-4.43-24.6-13.78-32.48"/><path class="cls-2" d="M309.53,402.04v109.74c0,.98,.49,1.48,1.48,1.48h90.05c.98,0,1.48-.49,1.48-1.48v-109.74h34.94l-82.18-82.18-81.69,82.18h35.92Z"/></g></svg>