<?xml version="1.0" encoding="UTF-8"?><svg id="Capa_1" xmlns="http://www.w3.org/2000/svg" viewBox="0 0 467 568.37"><defs><style>.cls-1{fill:#fff;}.cls-2{fill:#48ad37;}</style></defs><path class="cls-2" d="M431.08,52.16h6.89l-3.44-20.18-3.44,20.18Zm-10.33,15.75l9.35-50.19h9.35l9.35,50.19h-8.86l-1.48-9.35h-8.86l-1.48,9.35h-7.38Z"/><polygon class="cls-2" points="362.68 17.72 362.68 67.91 354.31 67.91 354.31 29.53 348.4 35.43 348.4 27.07 356.28 18.21 362.68 18.21 362.68 17.72"/><path class="cls-2" d="M393.68,44.78v12.3c0,6.89-3.44,11.32-11.81,11.32s-11.81-4.92-11.81-12.3v-5.91h7.38v6.4c0,2.95,.98,4.92,3.94,4.92,2.46,0,3.44-1.97,3.44-4.43v-12.3c0-2.95-.98-4.43-3.44-4.43s-3.94,1.48-3.94,4.43v.98h-7.87V17.72h22.64v6.89h-14.27v12.3c1.48-2.46,3.94-3.44,6.89-3.44,4.43,0,8.86,3.44,8.86,11.32"/><polygon class="cls-2" points="404.01 32.48 404.01 53.15 414.84 42.81 404.01 32.48"/><path class="cls-2" d="M4.92,80.7H461.59V4.92H4.92V80.7Zm462.08,4.92H0V0H466.51V85.62h.49Z"/><polygon class="cls-2" points="16.73 17.72 38.88 17.72 38.88 24.6 32.48 24.6 32.48 67.91 23.62 67.91 23.62 24.6 16.73 24.6 16.73 17.72"/><path class="cls-2" d="M49.21,52.16h6.89l-3.44-20.18-3.44,20.18Zm-10.33,15.75l9.35-50.19h9.35l9.84,50.19h-8.86l-1.48-9.35h-8.86l-1.48,9.35h-7.87Z"/><path class="cls-2" d="M80.21,24.6v15.75h2.95c2.95,0,3.94-1.48,3.94-3.94v-7.38c0-2.95-1.48-3.94-3.94-3.94h-2.95v-.49Zm0,20.18v23.13h-8.37V17.72h12.3c8.37,0,11.81,4.43,11.81,11.32v6.4c0,5.41-1.97,8.37-6.89,9.84l7.87,22.64h-8.86l-7.87-23.13Z"/><path class="cls-2" d="M113.67,41.34h11.81v26.57h-5.91v-5.41c-.98,3.94-3.44,5.91-7.87,5.91-7.38,0-10.33-5.91-10.33-13.29V31c0-7.87,3.94-13.29,12.79-13.29,9.35,0,11.81,5.41,11.81,12.79v4.43h-7.87v-4.92c0-2.95-.98-4.92-4.43-4.92-2.95,0-4.43,1.97-4.43,4.92v27.07c0,2.95,1.48,4.92,3.94,4.92,2.95,0,3.94-1.48,3.94-4.92v-9.35h-3.94v-6.4h.49Z"/><polygon class="cls-2" points="132.37 17.72 152.55 17.72 152.55 24.6 140.74 24.6 140.74 38.88 149.11 38.88 149.11 45.77 140.74 45.77 140.74 61.02 152.55 61.02 152.55 67.91 132.37 67.91 132.37 17.72"/><polygon class="cls-2" points="156.49 17.72 178.63 17.72 178.63 24.6 171.74 24.6 171.74 67.91 163.38 67.91 163.38 24.6 156.49 24.6 156.49 17.72"/><g><rect class="cls-2" y="101.86" width="466.51" height="466.51"/><path class="cls-1" d="M405,396.14l1.97-34.45-4.43-5.41-1.97,39.86c3.94,1.48,4.43,0,4.43,0"/><path class="cls-1" d="M350.87,396.14c3.94,1.48,4.92,0,4.92,0l1.48-32.48-3.94-14.76-2.46,47.24Z"/><path class="cls-1" d="M336.59,216.03c0,.98,0,2.46,.49,3.44-4.92,1.48-9.35,3.94-13.29,7.38-2.46,.98-4.43,3.44-4.43,6.4h18.7l15.25,81.69c-.98,3.44-.49,7.38,.49,10.83l15.75,69.88c3.94,1.48,4.92,0,4.92,0l-5.91-33.95c-3.44-25.1,1.97-27.07,1.97-27.07h22.64c4.92,9.84,11.32,19.19,19.19,27.07l6.4,33.95c3.94,1.48,4.43,0,4.43,0l-12.3-69.88,5.91,16.73,3.94,10.83s-2.46,6.4,2.46,7.87l-3.44-18.21-4.92-14.27s-.49-6.89-10.83-13.29l-33.95-20.18-23.62-70.86s4.43-5.41,1.97-5.91c-1.97,0-3.94,0-5.41,.98h-3.44c0-1.48-.49-2.95-.98-3.94,.49-.49,.49-.98,.49-1.48,0-1.48-.98-2.46-2.46-2.46s-2.46,.98-2.46,2.46c.49,.49,1.48,1.48,2.46,1.97"/><path class="cls-1" d="M266.22,232.27l-17.72,8.86-3.94-9.35,21.65,.49Zm-87.1,22.14h27.56c6.4,4.43,13.29,8.86,17.22,11.32,6.89,3.94,11.81,7.87,17.22,11.81l-6.4,115.64v.98c0,.49,.49,.98,.98,.98h33.46c.49,0,.98-.49,.98-1.48l-5.91-118.1c4.43-1.97,9.35-3.44,13.78-5.41,4.43-1.97,9.35-3.94,13.78-6.4,2.46-1.48,5.41-2.46,7.87-3.94h16.73c2.95,.49,5.91-.98,6.4-3.94,.49-2.95-.98-5.91-3.94-6.4h-5.41c0-.98-.49-1.97-1.48-2.46-3.44-1.48-6.89-1.97-10.83-.98-.49-.98-.98-1.48-1.48-1.97-2.95-2.95-14.27-3.44-20.18,0-1.97,.98-3.44,2.95-3.44,5.41-2.95-.49-5.91,.98-6.4,3.94-.49,2.95,.98,5.91,3.94,6.4h12.3c-3.44,.98-7.38,1.48-10.83,2.46-4.92,1.48-9.84,2.46-14.76,4.43l-7.87-17.72,23.13-16.73h22.64c4.92,0,8.86-3.94,8.86-8.86s-3.94-8.86-8.86-8.86h-8.37c-.49-1.48-1.48-2.95-2.46-3.94-2.95-2.46-11.32-3.44-18.21-2.46-.49-.98-1.48-1.97-2.46-2.46-4.43-3.94-19.68-4.43-27.56-.49-3.94,.98-5.91,5.41-4.43,8.86h-7.38c-4.92,0-8.86,3.94-8.86,8.86s3.94,8.86,8.86,8.86h14.76l9.35,37.89-1.97,.49c-6.4-3.94-12.79-6.89-19.68-10.33-3.44-1.48-6.89-3.44-10.83-5.41h13.78c4.92,0,8.86-2.95,8.86-5.91s-3.94-5.91-8.86-5.91h-4.43c-.49-1.48-1.48-2.95-2.46-4.43-3.94-3.44-17.72-3.94-24.6-.49-1.97,.98-3.44,2.46-3.94,4.43h-17.72c-4.92,0-8.86,2.95-8.86,5.91s3.44,6.4,8.37,6.4"/><path class="cls-1" d="M366.12,178.63l44.29,20.18,4.43-1.48-8.37-3.44-11.81-11.81,1.97-2.95,28.54-17.22-34.45-1.97-8.37,12.3-11.81-2.46s-10.33,6.4-8.37,10.83c.49-1.48,3.94-1.97,3.94-1.97"/><path class="cls-1" d="M212.09,498.49h0c46.26,42.81,94.48,7.38,104.82-.98l.98-.98h1.97l.98,.98c9.84,8.37,57.58,43.3,103.34,1.97l1.48-.98c.49-.49,.49-.98,.49-1.48v-22.64c0-.98-.98-1.97-1.97-1.97h-.98l-.98,.49c-13.78,9.84-60.04,37.4-100.88-.98l-.49-.49c-.49-.49-.98-.49-1.97-.49-.49,0-1.48,.49-1.48,.49l-.49,.49c-40.35,37.89-85.62,11.81-100.39,1.48l-1.48-.98c-.49,0-.98-.49-.98-.49-.98,0-1.97,.98-1.97,1.97v22.64c-.49,.98,0,1.48,0,1.97"/><path class="cls-1" d="M214.06,427.14h210.13c1.48,0,2.95,1.48,2.95,2.95v17.72c0,1.48-1.48,2.95-2.95,2.95H214.06"/><path class="cls-1" d="M174.2,440.43l-35.43,28.05c-.49,.49-.98,.49-1.48,.49-.98,0-.98-.49-.98-1.48v-14.27H43.3c-.49,0-1.48-.49-.98-1.48v-24.6c0-.49,.49-1.48,.98-1.48h93.01v-13.78c0-.98,0-1.48,.98-1.48,.49,0,.98,0,1.48,.49l35.43,27.07c.49,.49,.98,.98,.98,1.97,0,0-.49,.49-.98,.49"/><path class="cls-1" d="M99.4,377.93c-1.97,1.48-3.94,2.46-6.4,2.95-6.4,1.97-13.29,2.95-20.18,2.46-3.44,0-6.4-.49-9.84-.98-2.46-.49-3.94-.49-5.91-.98l-2.95-.98c-2.95-.98-5.41-1.97-7.87-3.94-.98-.49-1.48-1.48-1.97-2.46v6.4c0,1.48,.98,3.44,2.46,4.43,4.43,3.44,9.84,5.41,15.75,5.91,3.94,.49,7.38,.98,11.32,.98,5.41,0,10.83-.49,16.24-1.97,2.95-.49,5.91-1.97,8.37-3.44,2.46-1.48,4.43-3.44,4.43-5.91v-6.4c-.98,1.48-2.46,2.95-3.44,3.94"/><path class="cls-1" d="M44.29,340.04c.49-1.48,.98-2.46,2.46-3.44,.98,.98,1.97,1.48,2.95,1.97,7.38,3.44,15.75,5.41,24.11,4.92,6.89,0,14.27-.98,20.67-3.44,.98-.49,1.48-.49,2.46-.98v.49c0,3.94-10.83,8.86-26.57,8.86s-26.57-3.94-26.08-8.37m29.53-23.13c15.75,0,26.57,4.92,26.57,8.86s-10.83,8.86-26.57,8.86-26.57-4.43-26.57-8.86,10.83-8.37,26.57-8.86m-3.44,40.84c16.24,0,29.53-4.92,29.53-10.83,0,0,.49-5.41,0-6.89,0-.98,0-1.48-.49-2.46,1.97-.98,2.95-2.95,3.44-4.92,0,0,.49-6.4,0-7.38-.98-7.38-15.75-11.32-29.53-11.32s-29.53,3.94-29.53,11.81c0,.49,.49,6.89,.49,6.89,0,.49,0,.98,.49,1.48-1.97,1.48-3.44,3.44-3.94,5.91,0,.49,.49,6.89,.49,6.89,0,1.48,.98,3.44,2.46,4.43,4.43,3.44,9.84,5.41,15.75,5.91,3.44,0,7.38,.49,10.83,.49"/><path class="cls-1" d="M62,380.39c3.94,.49,7.38,.98,11.32,.98,5.41,0,10.83-.49,16.24-1.97,2.95-.49,5.91-1.97,8.37-3.44,.49-.49,1.48-.98,1.97-1.48,.98-.98,1.48-1.97,2.46-2.95,0-.49,.49-.98,.49-1.48v-6.4c-.98,.98-3.44,4.92-15.26,7.38-4.92,.98-9.84,1.48-14.76,1.48-7.87,0-16.24-1.48-23.62-4.43-1.48-.49-2.46-1.48-3.94-2.46-.49-.49-1.48-1.48-1.97-1.97v7.38c0,1.48,.98,2.95,2.46,3.94,4.92,2.95,10.33,4.92,16.24,5.41"/><path class="cls-1" d="M102.36,350.87l-.49-.49c-.49-.49-.98-.49-.98-.49-.49,.49-.98,1.48-1.48,1.48l.98,.49c.98,.49,1.48,1.48,1.48,2.46s-.49,1.48-.98,1.97l-.98,.98-2.46,.49s-1.97,.98-2.46,.98-1.97,.49-2.46,.98l-3.44,.98-4.43,.98-4.43,.49-6.89,.49c-2.95,0-6.4,0-9.35-.49-2.46-.49-4.43-.98-6.89-.98-2.46-.49-4.92-1.48-6.89-2.46-1.48-.49-2.46-1.48-3.44-2.46-.98-.98-1.97-1.97-2.46-2.95v7.38c0,1.48,.98,3.44,2.46,4.43,4.43,3.44,9.84,5.41,15.75,5.91,3.94,.49,7.38,.98,11.32,.98,5.41,0,10.83-.49,16.24-1.97,2.95-.49,5.91-1.97,8.37-3.44,.49-.49,1.48-.98,1.97-1.48,.98-.98,1.97-1.97,2.46-2.95,0-.49,.49-.98,.49-1.48v-7.87c-.98-1.48-.98-1.97-.98-1.97"/><path class="cls-1" d="M111.71,318.88c0-.98,.98-1.97,2.46-3.44,.98,.98,1.97,1.48,2.95,1.97,7.87,3.44,15.75,5.41,24.6,4.92,6.89,0,14.27-.98,20.67-3.44,.98-.49,1.97-.49,2.46-.98v.49c0,4.43-10.83,8.86-26.57,8.86s-26.57-3.94-26.57-8.37m29.53-22.64c15.75,0,26.57,4.92,26.57,8.86s-10.83,8.86-26.57,8.86-26.57-4.92-26.57-8.86,10.83-8.86,26.57-8.86m-2.95,40.35c16.24,0,29.53-4.92,29.53-10.83,0,0,.49-5.41,0-6.89,0-.98-.49-1.48-.49-2.46,1.97-.98,2.95-2.95,3.44-4.92v-7.38c-.98-7.38-15.75-11.32-29.53-11.32s-29.53,3.94-29.53,11.81c0,.49,.49,6.89,.49,6.89,0,.49,0,.98,.49,1.48-1.97,1.48-3.44,3.44-3.94,5.91,0,.49,.49,6.89,.49,6.89,0,1.48,.98,3.44,2.46,4.43,4.43,3.44,9.84,5.41,15.75,5.91,2.95,.49,6.89,.49,10.83,.49"/><path class="cls-1" d="M170.76,330.69c0-.49-.49-.98-.98-.98,0-.49-.49-.49-.98-.49-.49-.49-.98-.49-1.48-.49-.49,.49-.98,.98-1.48,1.48,.49,0,.98,.49,.98,.49,.98,.49,1.48,1.48,1.48,1.97,0,.98-.49,1.48-.98,1.97q-.49,.49-.98,.98l-1.48,.98-2.46,.98-2.46,.98s-2.46,.49-3.44,.98-2.95,.49-4.43,.98l-4.43,.49c-.49,0-4.92,.49-6.89,.49-2.95,0-6.4,0-9.35-.49-2.46-.49-4.43-.49-6.4-.98-2.46-.49-4.92-1.48-6.89-1.97-1.48-.49-2.46-1.48-3.44-2.46-.98-.98-1.48-1.97-2.46-2.95v7.38c0,1.48,.98,3.44,2.46,4.43,4.43,3.44,9.84,5.41,15.75,5.91,3.94,.49,7.87,.98,11.81,.98,5.41,0,10.83-.49,16.24-1.97,2.95-.49,5.41-1.97,8.37-3.44,.49-.49,1.48-.98,1.97-1.48,.98-.98,1.48-1.97,1.97-2.95,0-.49,.49-.98,.49-1.48v-6.4c-.49-1.97-.49-2.46-.49-2.95"/><path class="cls-1" d="M166.82,356.28c-1.97,1.48-3.94,2.46-6.4,2.95-6.4,1.97-13.29,2.95-20.18,2.46-3.44,0-6.4-.49-9.84-.98-1.97-.49-3.94-.49-5.91-.98l-2.95-.49c-2.95-.98-5.41-1.97-7.87-3.94-.98-.49-1.48-1.48-2.46-2.46v6.4c0,1.48,.98,3.44,2.46,4.43,4.43,3.44,9.84,5.41,15.75,5.91,3.94,.49,7.38,.98,11.32,.98,5.41,0,10.83-.49,16.24-1.97,2.95-.49,5.91-1.97,8.37-3.44,2.95-1.48,4.43-3.44,4.43-5.91v-6.4c-.49,1.48-1.48,2.95-2.95,3.44"/><path class="cls-1" d="M114.17,353.33c4.43,3.44,9.84,5.41,15.75,5.91,3.94,.49,7.38,.98,11.32,.98,5.41,0,10.83-.49,16.24-1.97,2.95-.49,5.91-1.97,8.37-3.44,.49-.49,1.48-.98,1.97-1.48,.98-.49,1.97-1.48,2.46-2.95,0-.49,.49-.98,.49-1.48v-6.4c-.98,.98-3.44,4.92-15.26,7.38-4.92,.98-9.84,1.48-14.76,1.48-7.87,0-16.24-1.48-23.62-4.43-1.48-.49-2.46-1.48-3.94-2.46-.49-.49-1.48-1.48-1.97-1.97v7.38c.49,.98,1.48,2.46,2.95,3.44"/><path class="cls-1" d="M170.76,373.99c-.98,1.48-1.97,2.46-3.44,3.44-1.97,1.48-3.94,2.46-6.4,2.95-6.4,1.97-13.29,2.95-20.18,2.46-3.44,0-6.4-.49-9.84-.98-2.46-.49-3.94-.49-5.91-.98l-2.95-.98c-2.95-.98-5.41-1.97-7.87-3.94-.98-.49-1.48-1.48-2.46-2.46v6.4c0,1.48,.98,3.44,2.46,4.43,4.43,3.44,9.84,5.41,15.75,5.91,3.94,.49,7.38,.98,11.32,.98,5.41,0,10.83-.49,16.24-1.97,2.95-.49,5.91-1.97,8.37-3.44,2.95-1.48,4.43-3.44,4.43-5.91,.49,.98,.49-5.41,.49-5.91"/><path class="cls-1" d="M129.42,380.39c3.94,.49,7.38,.98,11.32,.98,5.41,0,10.83-.49,16.24-1.97,2.95-.49,5.91-1.97,8.37-3.44,.49-.49,1.48-.98,1.97-1.48,.98-.98,1.97-1.97,2.46-2.95,0-.49,.49-.98,.49-1.48v-6.4c-.98,.98-3.44,4.92-15.26,7.38-4.92,.98-9.84,1.48-14.76,1.48-7.87,0-16.24-1.48-23.62-4.43-1.48-.49-2.46-1.48-3.94-2.46-.49-.49-1.48-1.48-1.97-1.97v7.38c0,1.48,.98,2.95,2.46,3.94,5.41,2.95,10.83,4.92,16.24,5.41"/></g></svg>