<?xml version="1.0" encoding="UTF-8"?><svg id="Capa_1" xmlns="http://www.w3.org/2000/svg" viewBox="0 0 467 568.37"><defs><style>.cls-1{fill:#006da3;}.cls-2{fill:#fff;}</style></defs><path class="cls-1" d="M4.92,80.7H461.59V4.92H4.92V80.7Zm462.08,4.92H0V0H466.51V85.62h.49Z"/><polygon class="cls-1" points="16.73 17.72 38.88 17.72 38.88 24.61 32.48 24.61 32.48 67.91 23.62 67.91 23.62 24.61 16.73 24.61 16.73 17.72"/><path class="cls-1" d="M49.21,52.16h6.89l-3.44-20.18-3.44,20.18Zm-10.33,15.75l9.35-50.19h9.35l9.84,50.19h-8.86l-1.48-9.35h-8.86l-1.48,9.35h-7.87Z"/><path class="cls-1" d="M80.21,24.61v15.75h2.95c2.95,0,3.94-1.48,3.94-3.94v-7.38c0-2.95-1.48-3.94-3.94-3.94h-2.95v-.49Zm0,20.18v23.13h-8.37V17.72h12.3c8.37,0,11.81,4.43,11.81,11.32v6.4c0,5.41-1.97,8.37-6.89,9.84l7.87,22.64h-8.86l-7.87-23.13Z"/><path class="cls-1" d="M113.67,41.34h11.81v26.57h-5.91v-5.41c-.98,3.94-3.44,5.91-7.87,5.91-7.38,0-10.33-5.91-10.33-13.29V31c0-7.87,3.94-13.29,12.79-13.29,9.35,0,11.81,5.41,11.81,12.79v4.43h-7.87v-4.92c0-2.95-.98-4.92-4.43-4.92-2.95,0-4.43,1.97-4.43,4.92v27.07c0,2.95,1.48,4.92,3.94,4.92,2.95,0,3.94-1.48,3.94-4.92v-9.35h-3.94v-6.4h.49Z"/><polygon class="cls-1" points="132.37 17.72 152.55 17.72 152.55 24.61 140.74 24.61 140.74 38.88 149.11 38.88 149.11 45.77 140.74 45.77 140.74 61.02 152.55 61.02 152.55 67.91 132.37 67.91 132.37 17.72"/><polygon class="cls-1" points="156.49 17.72 178.63 17.72 178.63 24.61 171.74 24.61 171.74 67.91 163.38 67.91 163.38 24.61 156.49 24.61 156.49 17.72"/><g><rect class="cls-1" y="101.86" width="466.51" height="466.51"/><polygon class="cls-2" points="135.33 215.05 121.06 215.05 121.06 488.16 316.91 488.16 316.91 471.43 135.33 471.43 135.33 215.05"/><path class="cls-2" d="M322.32,380.88c0,.49-.98,.98-1.48,.98H176.17c-.98,0-1.48-.49-1.48-.98v-23.13c0-.49,.49-.98,1.48-.98h144.18c.98,0,1.48,.49,1.48,.98l.49,23.13Zm0,40.35c0,.49-.98,.98-1.48,.98H176.17c-.98,0-1.48-.49-1.48-.98v-23.13c0-.49,.49-.98,1.48-.98h144.18c.98,0,1.48,.49,1.48,.98l.49,23.13Zm-141.72-106.79c0-1.97,1.48-3.44,2.95-3.44h1.97c1.97,0,2.95,1.97,2.95,3.44v6.4c0,1.97-.98,3.44-2.95,3.44h-1.97c-1.97,0-2.95-1.48-2.95-3.44v-6.4Zm9.84-1.48l40.35,.98v-13.29c-4.92-.49-9.35-1.48-14.27-2.95-7.87-2.46-16.24-10.33-23.62-12.79l-1.97-.49,1.97,.49c6.89,1.97,14.27,.98,20.67-2.46,8.86-5.91,9.35-9.84,15.75-12.3-11.81-.98-20.67-8.37-24.11-24.6-3.44-16.24-5.41-21.65-12.3-24.6,9.84-.98,23.62-.98,39.37,15.26,12.3,12.3,24.6,12.3,34.45,2.95,9.84-9.35,16.73-13.78,22.14-7.38,1.48,1.48,2.46,2.46,3.94,3.94,1.48-5.41,4.43-9.84,8.37-13.29,1.97-1.97,3.94-3.94,5.41-6.4l1.48,.98c-1.48,2.46-3.44,4.92-5.91,6.89-3.94,3.44-6.89,8.37-8.37,13.29,1.48,1.48,2.95,2.46,4.92,3.44h-4.92c0,3.94,.98,7.38,1.97,11.32h-1.48c-1.48-3.44-1.97-7.38-1.97-10.83-1.48,.49-3.44,.49-4.92,1.48-5.91,1.97-9.84,7.38-9.35,19.68,1.97,17.22-9.35,32.97-26.08,37.4-2.95,.98-5.91,1.48-8.86,1.97v13.78l22.64,.49,15.75-1.48v-7.38c0-.98,.98-1.97,1.97-1.97h23.62c.98,0,1.97,.98,1.97,1.97v23.62c0,.98-.98,1.97-1.97,1.97h-23.13c-.98,0-1.97-.98-1.97-1.97v-6.89l-15.75-1.48h-75.78v-9.35Zm101.37-99.4c4.43,1.48,6.4,6.4,4.92,10.83-.49,.98-.98,1.97-1.48,2.46-4.43-1.48-6.4-6.4-4.92-10.83,.49-.98,.98-1.97,1.48-2.46m7.87-8.37c4.43,1.48,6.4,6.4,4.43,10.83-.49,.98-.98,1.97-1.48,2.46-2.46-1.48-3.94-3.44-4.92-5.91,0-2.46,.49-5.41,1.97-7.38m7.38,17.72c1.48-1.97,3.44-3.44,5.91-3.94,2.46,0,4.92,.98,6.4,2.46-1.48,1.97-3.44,3.44-5.91,3.94-2.46,.49-4.92-.49-6.4-2.46m-7.38,7.38c1.97-1.48,4.43-2.46,6.4-2.46,2.46,.49,4.43,1.97,5.91,3.94-1.97,1.48-4.43,2.46-6.4,2.46-2.46-.49-4.43-1.97-5.91-3.94m12.3,107.28c0,1.97-1.48,3.44-3.44,3.44h-25.59c-1.97,0-3.94-.98-3.94-2.95s.98-3.94,2.95-3.94h26.57c1.97-.49,3.44,1.48,3.44,3.44q.49,0,0,0m-3.44-36.42h-25.59c-1.97,0-3.94-.98-3.94-2.95s.98-3.94,2.95-3.94h26.57c1.97,0,3.94,.98,3.94,2.95s-.98,3.94-2.95,3.94h-.98Zm3.44-94.48c1.97-1.97,4.92-2.46,7.87-2.46,0,2.95-.49,5.41-2.46,7.87-1.97,1.97-4.92,2.46-7.87,2.46-.49-2.95,.49-5.41,2.46-7.87m-161.9,249h195.36V182.57H150.09V455.68Z"/><rect class="cls-2" x="234.73" y="300.67" width="4.92" height="13.29"/></g><polygon class="cls-1" points="342.99 17.72 342.99 67.91 334.63 67.91 334.63 29.53 328.72 35.43 328.72 27.07 336.59 18.21 342.99 18.21 342.99 17.72"/><path class="cls-1" d="M366.61,56.59v-8.86c0-3.44-.98-4.92-3.94-4.92-2.46,0-3.94,1.97-3.94,4.43v9.35c0,2.95,.98,4.92,3.94,4.92,2.46,0,3.94-1.48,3.94-4.92m-16.24-1.48V30.51c0-7.87,3.44-13.29,12.3-13.29,9.35,0,11.81,5.41,11.81,12.79v2.46h-7.87v-3.44c0-2.95-.98-4.92-3.94-4.92s-3.94,1.97-3.94,4.92v10.83c1.48-2.46,3.44-3.94,6.89-3.94,5.91,0,9.35,3.94,9.35,12.3v7.38c0,7.87-3.44,12.79-12.3,12.79s-12.3-5.41-12.3-13.29"/><path class="cls-1" d="M388.76,36.91c3.44,0,5.91,2.95,5.91,5.91,0,3.44-2.95,5.91-5.91,5.91-3.44,0-5.91-2.95-5.91-5.91-.49-2.95,2.46-5.91,5.91-5.91"/><polygon class="cls-1" points="416.31 17.72 416.31 67.91 407.95 67.91 407.95 29.53 402.04 35.92 402.04 27.07 409.92 18.21 416.31 18.21 416.31 17.72"/><path class="cls-1" d="M439.93,56.59V29.53c0-2.95-.98-4.92-3.94-4.92s-3.94,1.97-3.94,4.92v27.07c0,2.95,.98,4.92,3.94,4.92s3.94-1.97,3.94-4.92m-16.73-1.48V31c0-7.87,3.94-13.29,12.3-13.29s12.3,5.91,12.3,13.29v24.11c0,7.87-3.94,13.29-12.3,13.29s-12.3-5.41-12.3-13.29"/></svg>