<?xml version="1.0" encoding="UTF-8"?><svg id="Capa_1" xmlns="http://www.w3.org/2000/svg" viewBox="0 0 467 568.37"><defs><style>.cls-1{fill:#e63428;}.cls-2{fill:#fff;}</style></defs><path class="cls-1" d="M4.92,80.7H461.59V4.92H4.92V80.7Zm462.08,4.92H0V0H466.51V85.62h.49Z"/><polygon class="cls-1" points="16.73 17.72 38.88 17.72 38.88 24.6 32.48 24.6 32.48 67.91 23.62 67.91 23.62 24.6 16.73 24.6 16.73 17.72"/><path class="cls-1" d="M49.21,52.16h6.89l-3.44-20.18-3.44,20.18Zm-10.33,15.75l9.35-50.19h9.35l9.84,50.19h-8.86l-1.48-9.35h-8.86l-1.48,9.35h-7.87Z"/><path class="cls-1" d="M80.21,24.6v15.75h2.95c2.95,0,3.94-1.48,3.94-3.94v-7.38c0-2.95-1.48-3.94-3.94-3.94h-2.95v-.49Zm0,20.18v23.13h-8.37V17.72h12.3c8.37,0,11.81,4.43,11.81,11.32v6.4c0,5.41-1.97,8.37-6.89,9.84l7.87,22.64h-8.86l-7.87-23.13Z"/><path class="cls-1" d="M113.67,41.34h11.81v26.57h-5.91v-5.41c-.98,3.94-3.44,5.91-7.87,5.91-7.38,0-10.33-5.91-10.33-13.29V31c0-7.87,3.94-13.29,12.79-13.29,9.35,0,11.81,5.41,11.81,12.79v4.43h-7.87v-4.92c0-2.95-.98-4.92-4.43-4.92-2.95,0-4.43,1.97-4.43,4.92v27.07c0,2.95,1.48,4.92,3.94,4.92,2.95,0,3.94-1.48,3.94-4.92v-9.35h-3.94v-6.4h.49Z"/><polygon class="cls-1" points="132.37 17.72 152.55 17.72 152.55 24.6 140.74 24.6 140.74 38.88 149.11 38.88 149.11 45.77 140.74 45.77 140.74 61.02 152.55 61.02 152.55 67.91 132.37 67.91 132.37 17.72"/><polygon class="cls-1" points="156.49 17.72 178.63 17.72 178.63 24.6 171.74 24.6 171.74 67.91 163.38 67.91 163.38 24.6 156.49 24.6 156.49 17.72"/><path class="cls-1" d="M397.12,44.78v12.3c0,6.89-3.44,11.32-11.81,11.32s-11.81-4.92-11.81-12.3v-5.91h7.87v6.4c0,2.95,.98,4.92,3.94,4.92,2.46,0,3.44-1.97,3.44-4.43v-12.3c0-2.95-.98-4.43-3.44-4.43s-3.94,1.48-3.94,4.43v.98h-7.87V17.72h22.14v6.89h-14.27v12.3c1.48-2.46,3.94-3.44,6.89-3.44,4.43,.49,8.86,3.44,8.86,11.32"/><path class="cls-1" d="M410.9,36.91c3.44,0,5.91,2.95,5.91,5.91,0,3.44-2.95,5.91-5.91,5.91-3.44,0-5.91-2.95-5.91-5.91s2.46-5.91,5.91-5.91"/><path class="cls-1" d="M447.81,28.54v4.43c0,4.43-2.46,6.89-5.91,8.37,4.43,.98,6.4,3.94,6.4,8.37v7.38c0,6.89-3.94,11.32-12.3,11.32s-11.81-4.92-11.81-12.3v-6.4h7.87v7.38c0,2.95,.98,4.92,3.94,4.92,2.46,0,3.94-1.97,3.94-4.43v-8.37c0-2.46-.98-3.94-3.94-3.94h-3.44v-6.4h2.95c2.95,0,4.43-1.48,4.43-3.94v-5.91c0-2.95-.98-4.43-3.44-4.43s-3.44,1.97-3.44,4.92v4.92h-7.87v-4.43c0-7.38,2.95-12.79,11.81-12.79,7.38,0,10.83,4.43,10.83,11.32"/><g><rect class="cls-1" x="0" y="101.86" width="466.51" height="466.51"/><path class="cls-2" d="M233.25,508.34c-33.46,0-65.94-11.32-92.02-32.97l54.62-54.62h7.38v48.72c0,8.37,3.94,14.76,11.81,14.76s11.81-6.4,11.81-14.76v-48.72l4.92-23.13-8.37,3.94,12.79-42.32-5.41,31.49,9.35-3.94-3.94,33.95v48.72c0,8.37,3.94,14.76,11.81,14.76s11.81-6.4,11.81-14.76v-48.72h16.24l-16.73-62.99,4.43-4.43,10.33,35.43s2.46,9.35,10.83,6.89c8.37-2.46,5.41-11.81,5.41-11.81l-13.29-43.3,69.39-69.39c50.69,62,41.34,153.53-21.16,204.22-25.59,21.16-58.07,32.97-92.02,32.97M88.09,362.68c0-80.21,64.96-145.66,145.66-145.66,35.43,0,69.88,13.29,96.94,36.91l-62.99,62c-3.44-4.92-8.86-8.37-14.76-8.37h-41.83c-12.79,0-18.7,15.25-18.7,15.25l-18.7,60.53s-2.95,9.84,5.41,11.81c8.37,1.97,10.83-6.89,10.83-6.89l15.25-51.67s.98-3.44,3.44-2.46c2.46,.98,1.48,4.43,1.48,4.43l-13.29,48.72-71.85,71.85c-24.11-26.57-36.91-61.02-36.91-96.45m172.23-166.82c-2.46-.49-4.92-.98-7.87-.98l7.38-9.84,16.73-23.62-23.13-22.14h-40.35l-23.13,22.14,20.67,29.03,3.44,4.92h-3.44c-92.51,12.3-156.98,97.44-144.68,189.95,12.3,92.51,97.44,156.98,189.95,144.68,92.51-12.3,156.98-97.44,144.68-189.95-9.84-73.32-66.93-131.88-140.25-144.18"/><path class="cls-2" d="M191.92,269.18c.98-1.97,2.95-5.41,10.33-6.4,1.48,0,2.46-.49,3.94-.98,1.48-2.46,2.95-4.43,4.43-6.4v-1.48c-.49-3.44-3.94-7.38-11.32-3.94-9.35,4.43-8.37,17.72-8.37,17.72,.49,1.48,.49,1.97,.98,1.48"/><path class="cls-2" d="M258.35,261.3c1.48,.98,2.95,1.48,4.43,1.48,7.38,.98,9.84,4.43,10.33,6.4,0,.49,.49-.49,.49-1.48,0,0,.98-13.78-8.37-17.72-7.38-3.44-10.83,.49-11.32,3.94v1.48c1.48,1.97,2.95,3.94,4.43,5.91"/><path class="cls-2" d="M232.27,301.16c13.78,0,25.59-11.32,25.59-25.59s-11.32-25.59-25.59-25.59-25.59,11.32-25.59,25.59,11.32,25.59,25.59,25.59"/></g></svg>