<?xml version="1.0" encoding="UTF-8"?><svg id="Capa_1" xmlns="http://www.w3.org/2000/svg" viewBox="0 0 467 568.37"><defs><style>.cls-1{fill:#fff;}.cls-2{fill:#d5102b;}</style></defs><path class="cls-2" d="M4.92,80.7H461.59V4.92H4.92V80.7Zm462.08,4.92H0V0H466.51V85.62h.49Z"/><polygon class="cls-2" points="16.73 17.72 38.88 17.72 38.88 24.6 32.48 24.6 32.48 67.91 23.62 67.91 23.62 24.6 16.73 24.6 16.73 17.72"/><path class="cls-2" d="M49.21,52.16h6.89l-3.44-20.18-3.44,20.18Zm-10.33,15.75l9.35-50.19h9.35l9.84,50.19h-8.86l-1.48-9.35h-8.86l-1.48,9.35h-7.87Z"/><path class="cls-2" d="M80.21,24.6v15.75h2.95c2.95,0,3.94-1.48,3.94-3.94v-7.38c0-2.95-1.48-3.94-3.94-3.94h-2.95v-.49Zm0,20.67v23.13h-8.37V17.72h12.3c8.37,0,11.81,4.43,11.81,11.32v6.4c0,5.41-1.97,8.37-6.89,9.84l7.87,22.64h-8.86l-7.87-22.64Z"/><path class="cls-2" d="M113.67,41.34h11.81v26.57h-5.91v-5.41c-.98,3.94-3.44,5.91-7.87,5.91-7.38,0-10.33-5.91-10.33-13.29V31c0-7.87,3.94-13.29,12.79-13.29,9.35,0,11.81,5.41,11.81,12.79v4.43h-7.87v-4.92c0-2.95-.98-4.92-4.43-4.92-2.95,0-4.43,1.97-4.43,4.92v27.07c0,2.95,1.48,4.92,3.94,4.92,2.95,0,3.94-1.48,3.94-4.92v-9.35h-3.94v-6.4h.49Z"/><polygon class="cls-2" points="132.37 17.72 152.55 17.72 152.55 24.6 140.74 24.6 140.74 38.88 149.11 38.88 149.11 45.77 140.74 45.77 140.74 61.02 152.55 61.02 152.55 67.91 132.37 67.91 132.37 17.72"/><polygon class="cls-2" points="156.49 17.72 178.63 17.72 178.63 24.6 171.74 24.6 171.74 67.91 163.38 67.91 163.38 24.6 156.49 24.6 156.49 17.72"/><path class="cls-2" d="M377.44,53.15h7.38v-20.67l-7.38,20.67Zm-7.38,1.48l14.76-36.91h8.37V53.15h3.44v6.4h-3.44v8.37h-7.87v-8.37h-14.76v-4.92h-.49Z"/><path class="cls-2" d="M409.92,36.91c3.44,0,5.91,2.95,5.91,5.91,0,3.44-2.95,5.91-5.91,5.91-3.44,0-5.91-2.95-5.91-5.91-.49-2.95,2.46-5.91,5.91-5.91"/><path class="cls-2" d="M448.3,44.78v12.3c0,6.89-3.44,11.32-11.81,11.32s-11.81-4.92-11.81-12.3v-5.91h7.87v6.4c0,2.95,.98,4.92,3.94,4.92,2.46,0,3.44-1.97,3.44-4.43v-12.3c0-2.95-.98-4.43-3.44-4.43s-3.94,1.48-3.94,4.43v.98h-7.87V17.72h22.14v6.89h-14.27v12.3c1.48-2.46,3.94-3.44,6.89-3.44,4.43,.49,8.86,3.44,8.86,11.32"/><g><rect class="cls-2" y="101.86" width="466.51" height="466.51"/><polygon class="cls-1" points="213.08 201.27 140.25 158.95 140.25 295.75 213.08 317.89 213.08 201.27"/><polygon class="cls-1" points="221.44 201.76 221.44 317.89 294.77 295.75 294.77 158.95 221.44 201.76"/><path class="cls-1" d="M352.34,155.99c0-4.92-3.94-8.86-8.86-8.86s-8.86,3.94-8.86,8.86v9.35h17.22v-9.35h.49Z"/><polygon class="cls-1" points="337.09 293.29 335.12 293.29 343.98 323.8 352.34 293.29 350.37 293.29 352.34 293.29 352.34 171.74 350.37 171.74 347.91 171.74 345.94 171.74 341.52 171.74 339.55 171.74 337.09 171.74 335.12 171.74 335.12 293.29 337.09 293.29"/><polygon class="cls-1" points="310.51 164.85 302.64 158.95 302.64 299.69 221.44 325.77 217.51 325.77 217.01 325.77 213.08 325.77 132.37 303.13 132.37 158.95 124.5 164.85 124.5 308.54 212.59 333.15 217.01 333.15 217.51 333.15 221.94 333.15 303.62 307.56 310.51 305.1 310.51 164.85"/><path class="cls-1" d="M417.3,451.74s-1.97-7.38-8.37-7.38h-23.13c-1.48,0-3.44-.98-4.43-1.97-1.97-1.97-8.86-13.78-8.86-13.78l-3.44-5.41c-.98-1.48-2.46-2.46-4.43-2.46-2.95,0-4.92,1.97-4.92,4.92,0,.98,0,1.48,.49,1.97l17.22,31c.49,.98,.98,1.97,.98,3.44v3.44c0,.98,0,1.97-.49,2.95l-6.89,25.59h7.38v22.14c0,3.94,2.95,6.89,6.89,6.89s6.89-2.95,6.89-6.89v-22.14h3.94v22.14c0,2.95,1.97,5.91,4.43,6.89,3.44,1.48,7.38-.49,8.86-4.43,.49-.49,.49-1.48,.49-2.46v-22.14h7.38l-9.84-34.94s-.49-1.97,.98-1.97,1.48,1.48,1.48,1.48l8.37,25.59c.49,2.46,2.95,3.94,5.91,3.44,4.43-.98,2.95-5.91,2.95-5.91l-9.84-30.02Z"/><path class="cls-1" d="M396.63,437.97c7.87,0,13.78-6.4,13.78-13.78,0-7.87-6.4-13.78-13.78-13.78-7.87,0-13.78,6.4-13.78,13.78-.49,7.87,5.91,13.78,13.78,13.78"/><path class="cls-1" d="M73.32,437.47c7.38,0,13.78-5.91,13.78-13.78,0-7.38-5.91-13.78-13.78-13.78-7.38,0-13.78,5.91-13.78,13.78s6.4,13.78,13.78,13.78"/><path class="cls-1" d="M106.29,477.33c0-.49-3.94-10.33-5.41-13.29-8.37-21.16-9.84-21.16-17.22-21.16h-20.67c-7.38,0-8.86,0-17.22,21.16-.98,2.95-5.91,14.76-6.4,15.25-.49,.49-1.97,4.92,2.46,6.4,4.43,1.48,5.91-3.44,5.91-3.44l8.37-20.67s0-.49,.49-.49,.49,.49,.49,.49v54.13c0,3.94,2.95,7.38,6.89,7.38h.49c3.94,0,6.89-2.95,6.89-6.89v-22.14s0-3.44,1.97-3.44,1.97,3.44,1.97,3.44v21.65c0,3.94,2.95,7.38,6.89,7.38h.49c3.94,0,6.89-2.95,6.89-6.89v-55.11l.49,.49,7.87,18.7s2.46,4.92,6.4,2.95c3.94-1.97,1.97-5.91,1.97-5.91"/><path class="cls-1" d="M259.83,473.4c-1.48-2.46-3.94-3.94-6.89-3.44h-13.29v-21.16c0-4.92-3.94-8.86-8.86-8.86h-5.91c-.49,0-.98,0-1.48,.49l-18.21,5.91h-.49c-.98,.49-1.48,1.48-1.97,2.46l-5.41,15.75c-.98,2.46,.49,5.41,2.95,6.4,2.46,.98,5.41-.49,6.4-2.95l4.92-13.29,7.38-2.46v25.1c0,1.48,.49,2.46,.98,3.94,1.48,2.95,4.43,4.92,7.38,4.92h25.59l11.32,19.19c1.97,2.95,5.91,4.43,8.86,2.46h.49c2.95-1.97,4.43-5.91,2.46-8.86l-16.24-25.59Z"/><path class="cls-1" d="M249.49,497.02h-7.38c-3.44,11.81-15.75,19.19-27.56,15.75-9.35-2.46-16.24-10.83-16.73-20.67,0-3.44,.98-7.38,2.46-10.33l-.49-.49-.49-.49-4.92-2.95-.49-.49-.49-.49c-2.46,4.43-3.94,9.84-3.94,14.76,0,17.22,14.27,31.49,31.49,31,15.25,0,28.05-11.32,30.51-26.08l-1.97,.49Z"/><path class="cls-1" d="M229.81,435.51c7.38,0,12.79-5.91,12.79-12.79,0-7.38-5.91-12.79-12.79-12.79-7.38,0-12.79,5.91-12.79,12.79,0,7.38,5.41,12.79,12.79,12.79"/><g><path class="cls-1" d="M162.39,413.85h-27.07c-7.87,.98-14.27,7.38-14.27,15.75v32.48c.49,2.46,2.46,4.43,4.92,3.94,1.97,0,3.94-1.97,3.94-3.94v-28.05c0-.98,.49-2.46,2.46-2.46s1.48,1.48,1.48,2.46v83.16c0,3.44,2.95,6.4,6.4,6.4s6.4-2.95,6.4-6.4v-48.23c0-.98,.49-1.97,1.48-1.97s1.97,.49,1.97,1.48v48.23c.49,3.44,3.44,6.4,6.89,5.91,2.95-.49,5.91-2.95,5.91-5.91v-82.67c0-.98,.49-2.46,1.48-2.46s2.46,1.48,2.46,2.46v28.05c.49,2.46,2.46,4.43,4.92,3.94,1.97,0,3.94-1.97,3.94-3.94v-32.48c.98-7.87-4.92-14.76-13.29-15.75"/><path class="cls-1" d="M136.8,383.34c0-1.97-1.97-3.94-6.4-1.97-4.92,2.46-4.43,9.84-4.43,9.84,0,0,0,.98,.49,.98,.49-.98,1.48-2.95,5.91-3.44,.98,0,1.48-.49,1.97-.49,.49-1.48,1.48-2.46,2.46-3.44v-1.48Z"/><path class="cls-1" d="M166.82,381.38c-3.94-1.97-5.91,.49-6.4,1.97v.98c.98,.98,1.48,1.97,2.46,3.44,.49,.49,1.48,.49,2.46,.98,3.94,.49,5.41,2.46,5.91,3.44,0,.49,0,0,.49-.98,.49-.98,0-7.38-4.92-9.84"/><path class="cls-1" d="M148.61,381.38c-7.87,0-13.78,6.4-13.78,13.78s6.4,13.78,13.78,13.78c7.87,0,13.78-6.4,13.78-13.78s-5.91-13.78-13.78-13.78"/></g><g><path class="cls-1" d="M327.74,409.42h-29.03c-8.37,.98-14.27,7.87-14.27,16.24v33.46c.98,2.46,3.44,3.94,6.4,3.44,1.48-.49,2.95-1.48,3.44-3.44v-29.03c0-.98,.49-2.46,2.46-2.46s1.48,1.48,1.48,2.46v86.61c.49,3.94,3.44,6.4,7.38,6.4,3.44-.49,5.91-2.95,6.4-6.4v-49.7c0-.98,.49-1.97,1.48-1.97h.49c.98,0,1.97,.49,1.97,1.48v50.19c.49,3.94,3.44,6.4,7.38,6.4,3.44-.49,5.91-2.95,6.4-6.4v-86.61c0-.98,.49-2.46,1.48-2.46s2.46,1.48,2.46,2.46v29.03c.98,2.46,3.44,3.94,6.4,3.44,1.48-.49,2.95-1.48,3.44-3.44v-33.46c-1.48-8.37-7.87-15.26-15.75-16.24"/><path class="cls-1" d="M322.32,389.25c-.98-.98-1.97-1.97-3.94-.98-1.97,.98-1.48,.98-3.44,1.48-2.95,.98-5.91,1.97-8.86,2.46-2.46,.49-4.43,.49-6.89,.49,.49,7.38,7.38,13.29,14.76,12.3,6.4-.49,11.81-5.41,12.3-12.3-.98-.98-2.46-1.97-3.94-3.44"/><path class="cls-1" d="M305.59,389.26c2.95-.49,5.41-.98,7.87-1.95,2.46-.98,4.43-1.95,4.43-1.95,.98-.49,1.97-.49,2.95-.49,.49,0,.98,.49,.98,.97l.98,.98c.98,.98,2.46,1.95,3.94,2.93q.49,.49,.98,.49c.49,0,.49-2.44,.49-3.42-.49-3.42-1.97-6.84-4.43-9.77-.49,0-1.48-1.46-2.95-.98s-3.44-.98-3.94-1.47c-3.44-.98-7.38-.49-10.83,1.47-4.43,2.93-7.38,7.33-9.35,12.21-.49,.98,1.48,1.47,2.46,1.47,1.97,0,4.43,0,6.4-.49"/></g></g></svg>