<?xml version="1.0" encoding="UTF-8"?><svg id="Capa_1" xmlns="http://www.w3.org/2000/svg" viewBox="0 0 467 568.37"><defs><style>.cls-1{fill:#fff;}.cls-2{fill:#e9a30d;}</style></defs><path class="cls-2" d="M4.92,80.7H461.59V4.92H4.92V80.7Zm462.08,4.92H0V0H466.51V85.62h.49Z"/><polygon class="cls-2" points="16.73 17.72 38.88 17.72 38.88 24.6 32.48 24.6 32.48 67.91 23.62 67.91 23.62 24.6 16.73 24.6 16.73 17.72"/><path class="cls-2" d="M49.21,52.16h6.89l-3.44-20.18-3.44,20.18Zm-10.33,15.75l9.35-50.19h9.35l9.84,50.19h-8.86l-1.48-9.35h-8.86l-1.48,9.35h-7.87Z"/><path class="cls-2" d="M80.21,24.6v15.75h2.95c2.95,0,3.94-1.48,3.94-3.94v-7.38c0-2.95-1.48-3.94-3.94-3.94h-2.95v-.49Zm0,20.18v23.13h-8.37V17.72h12.3c8.37,0,11.81,4.43,11.81,11.32v6.4c0,5.41-1.97,8.37-6.89,9.84l7.87,22.64h-8.86l-7.87-23.13Z"/><path class="cls-2" d="M113.67,41.34h11.81v26.57h-5.91v-5.41c-.98,3.94-3.44,5.91-7.87,5.91-7.38,0-10.33-5.91-10.33-13.29V31c0-7.87,3.94-13.29,12.79-13.29,9.35,0,11.81,5.41,11.81,12.79v4.43h-7.87v-4.92c0-2.95-.98-4.92-4.43-4.92-2.95,0-4.43,1.97-4.43,4.92v27.07c0,2.95,1.48,4.92,3.94,4.92,2.95,0,3.94-1.48,3.94-4.92v-9.35h-3.94v-6.4h.49Z"/><polygon class="cls-2" points="132.37 17.72 152.55 17.72 152.55 24.6 140.74 24.6 140.74 38.88 149.11 38.88 149.11 45.77 140.74 45.77 140.74 61.02 152.55 61.02 152.55 67.91 132.37 67.91 132.37 17.72"/><polygon class="cls-2" points="156.49 17.72 178.63 17.72 178.63 24.6 171.74 24.6 171.74 67.91 163.38 67.91 163.38 24.6 156.49 24.6 156.49 17.72"/><path class="cls-2" d="M432.06,45.27v15.75h3.94c2.95,0,3.94-1.48,3.94-3.94v-7.38c0-2.46-1.48-3.94-4.43-3.94h-3.44v-.49Zm0-6.4h2.95c2.95,0,3.94-1.48,3.94-3.94v-5.91c0-2.95-1.48-3.94-3.94-3.94h-2.95v13.78Zm-8.37-21.16h12.3c8.37,0,11.32,3.94,11.32,10.83v4.92c0,4.43-1.48,6.89-4.92,7.87,4.43,.98,6.4,3.94,6.4,8.37v6.4c0,6.89-2.95,10.83-11.81,10.83h-13.29V17.72Z"/><path class="cls-2" d="M371.04,58.56c0-4.92,1.48-8.37,6.4-13.29l4.92-4.92c2.95-2.95,2.95-4.43,2.95-8.86v-3.94c0-2.95-1.48-3.94-2.95-3.94-1.97,0-3.44,.98-3.44,3.94v6.4h-7.87v-5.91c0-6.89,3.94-10.83,11.32-10.83s10.83,3.44,10.83,10.33v4.92c0,4.92-.98,7.87-5.41,12.79l-5.41,5.41c-1.97,2.46-3.44,3.94-3.44,7.87v2.46h13.78v6.89h-21.65v-9.35Z"/><polygon class="cls-2" points="404.01 32.48 404.01 53.15 414.84 42.81 404.01 32.48"/><g><rect class="cls-2" x="0" y="101.86" width="466.51" height="466.51"/><path class="cls-1" d="M162.88,221.44s10.83-5.91,10.83-12.79c0-8.86-10.83-19.68-10.83-19.68,0,0-10.83,11.32-10.83,19.68,.49,6.89,8.37,11.32,10.83,12.79"/><path class="cls-1" d="M145.66,234.24s2.46,3.44,15.25,5.41c0,0,1.48-12.3-3.44-17.22,0,0-2.46-3.44-18.21-12.79,0,0-1.97,18.7,6.4,24.6"/><path class="cls-1" d="M144.18,259.34s2.95,3.94,16.73,5.91c0,0,1.48-13.29-3.44-18.7,0,0-2.46-3.94-19.68-13.78,0,0-1.97,20.67,6.4,26.57"/><path class="cls-1" d="M137.79,259.34s-2.95,22.14,5.91,28.54c0,0,3.44,3.94,17.22,6.4,0,0,1.97-13.78-2.95-19.19,0,0-2.95-5.41-20.18-15.75"/><path class="cls-1" d="M156.98,301.66s-4.43-5.91-22.14-15.25c0,0-1.48,23.13,7.38,29.03,0,0,4.43,4.43,18.21,6.4,0,0,1.97-14.76-3.44-20.18"/><path class="cls-1" d="M168.3,222.43c-4.92,4.92-3.44,17.22-3.44,17.22,12.79-1.97,15.26-5.41,15.26-5.41,8.37-5.91,6.4-24.6,6.4-24.6-15.75,9.35-18.21,12.79-18.21,12.79"/><path class="cls-1" d="M168.79,246.54c-4.92,5.41-3.44,18.7-3.44,18.7,13.78-1.97,16.73-5.91,16.73-5.91,8.86-5.91,6.89-26.57,6.89-26.57-17.72,9.84-20.18,13.78-20.18,13.78"/><path class="cls-1" d="M168.3,275.08c-4.92,5.41-2.95,19.19-2.95,19.19,13.78-1.97,17.22-6.4,17.22-6.4,8.86-5.91,5.91-28.54,5.91-28.54-17.72,10.33-20.18,15.75-20.18,15.75"/><path class="cls-1" d="M168.79,301.66c-4.92,5.41-3.44,20.18-3.44,20.18,13.78-1.97,18.21-6.4,18.21-6.4,8.86-5.91,7.38-29.03,7.38-29.03-17.72,9.35-22.14,15.25-22.14,15.25"/><rect class="cls-1" x="159.93" y="325.77" width="5.91" height="36.42"/><path class="cls-1" d="M143.69,168.79c0-.98-.49-1.97-1.48-2.46s-1.97,.49-2.46,1.48v37.89l3.94,2.46v-39.37Z"/><path class="cls-1" d="M152.06,196.84v-34.94c0-.98-.98-1.97-1.97-1.97s-1.97,.98-1.97,1.97v44.78c.98-3.44,1.97-6.89,3.94-9.84"/><path class="cls-1" d="M160.42,152.06c0-.98-.98-1.97-1.97-1.97s-1.97,.98-1.97,1.97v38.38l3.94-5.41v-32.97Z"/><path class="cls-1" d="M186.5,168.79c0-.98-.98-1.97-1.97-1.97s-1.97,.98-1.97,1.97v39.37l3.94-2.46v-36.91Z"/><path class="cls-1" d="M178.14,206.68v-44.29c0-.98-.98-1.97-2.46-1.48-.98,0-1.48,.98-1.48,1.48v34.45c1.48,3.44,2.95,6.89,3.94,9.84"/><path class="cls-1" d="M169.77,152.06c0-.98-.98-1.97-1.97-1.97s-1.97,.98-1.97,1.97v32.97l3.94,5.41v-38.38Z"/><path class="cls-1" d="M234.73,221.44s10.83-5.91,10.83-12.79c0-8.86-10.83-19.68-10.83-19.68,0,0-10.83,11.32-10.83,19.68,0,6.89,8.37,11.32,10.83,12.79"/><path class="cls-1" d="M217.01,234.24s2.46,3.44,15.25,5.41c0,0,1.48-12.3-3.44-17.22,0,0-2.46-3.94-18.21-12.79,0,0-1.48,18.7,6.4,24.6"/><path class="cls-1" d="M216.03,259.34s2.95,3.94,16.73,5.91c0,0,1.48-13.29-3.44-18.7,0,0-2.46-3.94-19.68-13.78-.49,0-2.46,20.67,6.4,26.57"/><path class="cls-1" d="M209.63,259.34s-2.95,22.14,5.91,28.54c0,0,3.44,3.94,17.22,6.4,0,0,1.97-13.78-2.95-19.19-.49,0-2.95-5.41-20.18-15.75"/><path class="cls-1" d="M228.83,301.66s-4.43-5.91-22.14-15.25c0,0-1.48,23.13,7.38,29.03,0,0,4.43,4.43,18.21,6.4,0,0,1.48-14.76-3.44-20.18"/><path class="cls-1" d="M240.14,222.43c-4.92,4.92-3.44,17.22-3.44,17.22,12.79-1.97,15.26-5.41,15.26-5.41,8.37-5.91,6.4-24.6,6.4-24.6-16.24,8.86-18.21,12.79-18.21,12.79"/><path class="cls-1" d="M240.14,246.54c-4.92,5.41-3.44,18.7-3.44,18.7,13.78-2.46,16.73-5.91,16.73-5.91,8.86-6.4,6.89-26.57,6.89-26.57-17.72,9.84-20.18,13.78-20.18,13.78"/><path class="cls-1" d="M253.92,287.88c8.86-5.91,5.91-28.54,5.91-28.54-17.22,9.84-20.18,15.75-20.18,15.75-4.92,5.41-2.95,19.19-2.95,19.19,13.78-2.46,17.22-6.4,17.22-6.4"/><path class="cls-1" d="M240.14,301.66c-4.92,5.41-3.44,20.18-3.44,20.18,13.78-1.97,18.21-6.4,18.21-6.4,8.86-6.4,7.38-29.03,7.38-29.03-17.72,9.35-22.14,15.25-22.14,15.25"/><rect class="cls-1" x="231.29" y="325.77" width="5.91" height="36.42"/><path class="cls-1" d="M215.05,168.79c0-.98-.98-1.97-1.97-1.97s-1.97,.98-1.97,1.97v37.4l3.94,2.46v-39.86Z"/><path class="cls-1" d="M223.41,196.84v-34.94c0-.98-.98-1.97-1.97-1.97s-1.97,.98-1.97,1.97v44.78c.98-3.44,2.46-6.89,3.94-9.84"/><path class="cls-1" d="M231.78,152.06c0-.98-.98-1.97-1.97-1.97s-1.97,.98-1.97,1.97v38.38l3.94-5.41v-32.97Z"/><path class="cls-1" d="M257.86,168.79c0-.98-.98-1.97-1.97-1.97s-1.97,.98-1.97,1.97v39.37l3.94-2.46v-36.91Z"/><path class="cls-1" d="M249.49,206.68v-44.29c0-.98-.49-1.97-1.48-2.46-.98,0-1.97,.49-2.46,1.48v34.94c1.48,3.94,2.95,7.38,3.94,10.33"/><path class="cls-1" d="M241.13,152.06c0-.98-.98-1.97-1.97-1.97s-1.97,.98-1.97,1.97v32.97l3.94,5.41v-38.38Z"/><path class="cls-1" d="M304.12,221.94s10.83-5.91,10.83-12.79c0-8.86-10.83-19.68-10.83-19.68,0,0-10.83,11.32-10.83,19.68,0,7.38,8.37,11.32,10.83,12.79"/><path class="cls-1" d="M286.4,234.73s2.46,3.44,15.25,5.41c0,0,1.48-12.3-3.44-17.22,0,0-2.46-3.94-18.21-12.79,0,0-1.48,18.7,6.4,24.6"/><path class="cls-1" d="M285.42,259.83s2.95,3.94,16.73,5.91c0,0,1.48-13.29-3.44-18.7,0,0-2.46-3.94-19.68-13.78-.49,0-2.46,20.67,6.4,26.57"/><path class="cls-1" d="M279.02,259.83s-2.95,22.14,5.91,28.54c0,0,3.44,3.94,17.22,6.4,0,0,1.97-13.78-2.95-19.19-.49,0-2.95-5.41-20.18-15.75"/><path class="cls-1" d="M283.45,315.93s4.43,4.43,18.21,6.4c0,0,1.48-14.76-3.44-20.18,0,0-4.43-5.91-22.14-15.25,0,0-1.48,23.13,7.38,29.03"/><path class="cls-1" d="M309.53,222.92c-4.92,4.92-3.44,17.22-3.44,17.22,12.79-1.97,15.26-5.41,15.26-5.41,8.37-5.91,6.4-24.6,6.4-24.6-16.24,9.35-18.21,12.79-18.21,12.79"/><path class="cls-1" d="M309.53,247.52c-4.92,5.41-3.44,18.7-3.44,18.7,13.78-2.46,16.73-5.91,16.73-5.91,8.86-6.4,6.89-26.57,6.89-26.57-17.72,9.35-20.18,13.78-20.18,13.78"/><path class="cls-1" d="M323.31,288.37c8.86-6.4,5.91-28.54,5.91-28.54-17.22,9.84-20.18,15.75-20.18,15.75-4.92,5.41-2.95,19.19-2.95,19.19,13.78-2.46,17.22-6.4,17.22-6.4"/><path class="cls-1" d="M309.53,302.15c-4.92,5.41-3.44,20.18-3.44,20.18,13.78-1.97,18.21-6.4,18.21-6.4,8.86-6.4,7.38-29.03,7.38-29.03-17.72,9.35-22.14,15.25-22.14,15.25"/><rect class="cls-1" x="300.67" y="326.26" width="5.91" height="36.42"/><path class="cls-1" d="M284.43,169.28c0-.98-.98-1.97-1.97-1.97s-1.97,.98-1.97,1.97v37.4l3.94,2.46v-39.86Z"/><path class="cls-1" d="M292.8,197.33v-34.45c0-.98-.98-1.97-1.97-1.97s-1.97,.98-1.97,1.97v44.29c.98-3.44,2.46-6.4,3.94-9.84"/><path class="cls-1" d="M301.16,152.55c0-.98-.98-1.97-1.97-1.97s-1.97,.98-1.97,1.97v38.38l3.94-5.41v-32.97Z"/><path class="cls-1" d="M327.24,169.28c0-.98-.98-1.97-1.97-1.97s-1.97,.98-1.97,1.97v39.37l3.94-2.46v-36.91Z"/><path class="cls-1" d="M318.88,207.17v-44.29c0-.98-.49-1.97-1.48-2.46-.98,0-1.97,.49-2.46,1.48v34.94c1.97,3.94,2.95,6.89,3.94,10.33"/><path class="cls-1" d="M310.51,152.55c0-.98-.98-1.97-1.97-1.97s-1.97,.98-1.97,1.97v32.97l3.94,5.41v-38.38Z"/><path class="cls-1" d="M331.18,427.14l-35.43,28.05c-.49,.49-.98,.49-1.48,.49-.98,0-.98-.98-.98-1.97v-14.27H146.64c-.49,0-.98-.49-.98-1.48v-24.6c0-.98,.49-1.48,.98-1.48h146.15v-13.78c0-.98,.49-1.48,.98-1.97,.49,0,.98,0,1.48,.49l35.43,27.07c.98,.49,.98,1.97,.49,2.95,.49,0,0,.49,0,.49"/><path class="cls-1" d="M136.31,497.02l35.43,28.05c.49,.49,.98,.49,1.48,.49,.98,0,.98-.49,.98-1.48v-14.27h146.64c.49,0,1.48-.49,.98-1.48v-24.6c0-.98-.49-1.48-.98-1.48H174.69v-13.78c0-.98,0-1.48-.98-1.48-.49,0-.98,0-1.48,.49l-35.43,27.07c-.49,.49-.98,.98-.98,1.97,0-.49,0,0,.49,.49"/></g></svg>