<?xml version="1.0" encoding="UTF-8"?><svg id="Capa_1" xmlns="http://www.w3.org/2000/svg" viewBox="0 0 467 568.37"><defs><style>.cls-1{fill:#006da3;}.cls-2{fill:#fff;}</style></defs><path class="cls-1" d="M4.92,80.7H461.59V4.92H4.92V80.7Zm462.08,4.92H0V0H466.51V85.62h.49Z"/><polygon class="cls-1" points="16.73 17.72 38.88 17.72 38.88 24.6 32.48 24.6 32.48 67.91 23.62 67.91 23.62 24.6 16.73 24.6 16.73 17.72"/><path class="cls-1" d="M49.21,52.16h6.89l-3.44-20.18-3.44,20.18Zm-10.33,15.75l9.35-50.19h9.35l9.84,50.19h-8.86l-1.48-9.35h-8.86l-1.48,9.35h-7.87Z"/><path class="cls-1" d="M80.21,24.6v15.75h2.95c2.95,0,3.94-1.48,3.94-3.94v-7.38c0-2.95-1.48-3.94-3.94-3.94h-2.95v-.49Zm0,20.18v23.13h-8.37V17.72h12.3c8.37,0,11.81,4.43,11.81,11.32v6.4c0,5.41-1.97,8.37-6.89,9.84l7.87,22.64h-8.86l-7.87-23.13Z"/><path class="cls-1" d="M113.67,41.34h11.81v26.57h-5.91v-5.41c-.98,3.94-3.44,5.91-7.87,5.91-7.38,0-10.33-5.91-10.33-13.29V31c0-7.87,3.94-13.29,12.79-13.29,9.35,0,11.81,5.41,11.81,12.79v4.43h-7.87v-4.92c0-2.95-.98-4.92-4.43-4.92-2.95,0-4.43,1.97-4.43,4.92v27.07c0,2.95,1.48,4.92,3.94,4.92,2.95,0,3.94-1.48,3.94-4.92v-9.35h-3.94v-6.4h.49Z"/><polygon class="cls-1" points="132.37 17.72 152.55 17.72 152.55 24.6 140.74 24.6 140.74 38.88 149.11 38.88 149.11 45.77 140.74 45.77 140.74 61.02 152.55 61.02 152.55 67.91 132.37 67.91 132.37 17.72"/><polygon class="cls-1" points="156.49 17.72 178.63 17.72 178.63 24.6 171.74 24.6 171.74 67.91 163.38 67.91 163.38 24.6 156.49 24.6 156.49 17.72"/><polygon class="cls-1" points="365.14 17.72 365.14 67.91 356.77 67.91 356.77 29.53 350.86 35.43 350.86 27.07 358.74 18.21 365.14 18.21 365.14 17.72"/><path class="cls-1" d="M388.76,56.59v-8.86c0-3.44-.98-4.92-3.94-4.92-2.46,0-3.94,1.97-3.94,4.43v9.35c0,2.95,.98,4.92,3.94,4.92,2.46,0,3.94-1.48,3.94-4.92m-16.73-1.48V30.51c0-7.87,3.44-13.29,12.3-13.29,9.35,0,11.81,5.41,11.81,12.79v2.46h-7.87v-3.44c0-2.95-.98-4.92-3.94-4.92s-3.94,1.97-3.94,4.92v10.83c1.48-2.46,3.44-3.94,6.89-3.94,5.91,0,9.35,3.94,9.35,12.3v7.38c0,7.87-3.44,12.79-12.3,12.79s-12.3-5.41-12.3-13.29"/><path class="cls-1" d="M410.41,36.91c3.44,0,5.91,2.95,5.91,5.91,0,3.44-2.95,5.91-5.91,5.91-3.44,0-5.91-2.95-5.91-5.91s2.46-5.91,5.91-5.91"/><path class="cls-1" d="M447.81,44.78v12.3c0,6.89-3.44,11.32-11.81,11.32s-11.81-4.92-11.81-12.3v-5.91h7.87v6.4c0,2.95,.98,4.92,3.94,4.92,2.46,0,3.44-1.97,3.44-4.43v-12.3c0-2.95-.98-4.43-3.44-4.43s-3.94,1.48-3.94,4.43v.98h-7.87V17.72h22.14v6.89h-14.27v12.3c1.48-2.46,3.94-3.44,6.89-3.44,4.92,.49,8.86,3.44,8.86,11.32"/><g><rect class="cls-1" y="101.86" width="466.51" height="466.51"/><path class="cls-2" d="M233.25,500.46c-42.32,0-83.16-15.75-114.17-44.78l83.66-83.66,4.92-.49c2.46-.49,5.41-.98,7.38-1.48,1.97,1.48,4.92,1.97,7.38,1.97h73.81c.98,0,1.48,.98,1.48,1.97s-.49,1.97-1.48,1.97h-61.02c-3.44,0-6.4,.98-8.86,2.95-2.46,1.97-3.44,4.43-3.94,7.38,.49,6.4,6.4,10.83,12.79,10.33h61.51c.98,0,1.48,.98,1.48,1.97s-.98,1.48-1.48,1.48h-42.81c-2.95,0-6.4,.98-8.86,2.95-1.97,1.97-3.44,4.43-3.44,7.38,.49,6.4,5.91,10.83,12.3,10.33l37.89,.98c19.19,.49,38.88,.98,40.35,.98,4.92,0,10.33,0,16.73-.49,3.94-.49,8.37-.49,12.79-.98,3.94-.49,9.35-.98,15.26-1.97-30.51,50.69-85.13,81.2-143.69,81.2m-11.32-199.3v10.33c-1.48-1.48-2.95-3.44-2.95-5.91v-.98c-.49-1.48,.98-2.95,2.95-3.44m4.92,29.53v1.97c0,1.97-.98,3.94-2.95,4.43v-12.3c1.97,1.48,2.95,3.94,2.95,5.91m-1.48-15.75l-.98-.98v-12.79c1.97,.49,2.95,1.97,2.95,3.94v3.94h6.89v-3.94c0-.98,0-1.97-.49-3.44-.49-4.43-4.92-7.87-9.35-7.38v-2.46h-2.46v2.46c-5.41,0-9.84,3.94-10.33,9.35v2.46c0,4.43,1.97,8.86,5.91,11.81q.49,.49,.98,.98l1.48,1.48,1.97,1.97v14.27c-1.97-.49-2.95-1.97-2.95-4.43v-6.4h-7.38v6.4c-.49,5.91,3.44,10.33,8.86,10.83h.98v2.95h2.46v-2.95c2.46,0,4.92-.98,6.89-2.46,.49,.98,.98,1.48,1.48,1.97,.49,.49,1.48,1.48,2.46,1.97,2.46,1.48,5.41,2.46,8.37,2.46h53.64c.98,0,1.97,.98,1.97,1.97s-.98,1.97-1.97,1.97h-74.31c-5.91-.49-10.83,3.44-12.3,8.86h-64.96v-78.74h15.75c.49,0,.98,.49,.98,.49l21.65,22.14s7.87,5.91,13.29,1.97c5.41-3.94,3.44-11.81,1.48-16.73-1.48-2.95-2.95-5.41-4.92-8.37h106.29v45.77h-56.59c-2.95,0-5.91,.98-8.37,2.46-.49-4.43-2.95-8.37-6.4-11.32l-2.95-2.46Zm-155.99,52.65h27.56c.98,0,1.97-.98,1.97-1.97v-103.83c0-.98-.98-1.97-1.97-1.97h-14.76c39.86-83.66,140.25-118.6,223.9-78.74,11.81,5.41,22.64,12.3,32.48,20.67l-70.86,70.86h-79.72c-5.91-9.35-12.3-18.7-12.3-18.7,0,0-1.48-3.44-9.35-3.44s-47.73,9.35-55.11,12.3c0,0-3.44,.98-3.44,3.44v93.99c0,1.48,.49,2.46,1.48,3.44,12.3,3.44,25.1,5.91,37.89,7.38,3.44,.49,6.4,.98,8.86,.98s5.41,.49,7.38,.49l3.94,.49-64.46,64.46c-16.73-20.18-28.05-44.29-33.46-69.88m264.75-42.32c0,.49-.98,.98-1.48,.98h-25.1v-19.68c.98,1.48,2.46,2.95,4.43,3.94l21.16,12.79c.98,.49,1.48,1.48,.98,1.97m67.42,3.94c-18.7-9.35-67.91-33.46-78.74-38.38-5.91-2.46-11.81-2.46-14.76,.49v-18.7h-5.41l54.13-54.13c28.05,30.02,43.8,69.39,44.78,110.72M233.25,139.76c-106.29,0-192.41,86.12-192.41,192.41s86.12,192.9,192.41,192.9,192.41-86.12,192.41-192.41c.49-106.79-86.12-192.9-192.41-192.9"/></g></svg>