<?xml version="1.0" encoding="UTF-8"?><svg id="Capa_1" xmlns="http://www.w3.org/2000/svg" viewBox="0 0 467 568.37"><defs><style>.cls-1{fill:#e63428;}.cls-2{fill:#fff;}</style></defs><path class="cls-1" d="M4.92,80.7H461.59V4.92H4.92V80.7Zm462.08,4.92H0V0H466.51V85.62h.49Z"/><polygon class="cls-1" points="16.73 17.72 38.88 17.72 38.88 24.6 32.48 24.6 32.48 67.91 23.62 67.91 23.62 24.6 16.73 24.6 16.73 17.72"/><path class="cls-1" d="M49.21,52.16h6.89l-3.44-20.18-3.44,20.18Zm-10.33,15.75l9.35-50.19h9.35l9.84,50.19h-8.86l-1.48-9.35h-8.86l-1.48,9.35h-7.87Z"/><path class="cls-1" d="M80.21,24.6v15.75h2.95c2.95,0,3.94-1.48,3.94-3.94v-7.38c0-2.95-1.48-3.94-3.94-3.94h-2.95v-.49Zm0,20.18v23.13h-8.37V17.72h12.3c8.37,0,11.81,4.43,11.81,11.32v6.4c0,5.41-1.97,8.37-6.89,9.84l7.87,22.64h-8.86l-7.87-23.13Z"/><path class="cls-1" d="M113.67,41.34h11.81v26.57h-5.91v-5.41c-.98,3.94-3.44,5.91-7.87,5.91-7.38,0-10.33-5.91-10.33-13.29V31c0-7.87,3.94-13.29,12.79-13.29,9.35,0,11.81,5.41,11.81,12.79v4.43h-7.87v-4.92c0-2.95-.98-4.92-4.43-4.92-2.95,0-4.43,1.97-4.43,4.92v27.07c0,2.95,1.48,4.92,3.94,4.92,2.95,0,3.94-1.48,3.94-4.92v-9.35h-3.94v-6.4h.49Z"/><polygon class="cls-1" points="132.37 17.72 152.55 17.72 152.55 24.6 140.74 24.6 140.74 38.88 149.11 38.88 149.11 45.77 140.74 45.77 140.74 61.02 152.55 61.02 152.55 67.91 132.37 67.91 132.37 17.72"/><polygon class="cls-1" points="156.49 17.72 178.63 17.72 178.63 24.6 171.74 24.6 171.74 67.91 163.38 67.91 163.38 24.6 156.49 24.6 156.49 17.72"/><path class="cls-1" d="M431.08,52.16h6.89l-3.44-20.18-3.44,20.18Zm-10.33,15.75l9.35-50.19h9.35l9.35,50.19h-8.86l-1.48-9.35h-8.86l-1.48,9.35h-7.38Z"/><path class="cls-1" d="M393.19,44.78v12.3c0,6.89-3.44,11.32-11.81,11.32s-11.81-4.92-11.81-12.3v-5.91h7.87v6.4c0,2.95,.98,4.92,3.94,4.92,2.46,0,3.44-1.97,3.44-4.43v-12.3c0-2.95-.98-4.43-3.44-4.43s-3.94,1.48-3.94,4.43v.98h-7.87V17.72h22.14v6.89h-14.27v12.3c1.48-2.46,3.94-3.44,6.89-3.44,4.92,0,8.86,3.44,8.86,11.32"/><polygon class="cls-1" points="404.01 32.48 404.01 53.15 414.84 42.81 404.01 32.48"/><g><rect class="cls-1" x="0" y="101.86" width="466.51" height="466.51"/><path class="cls-2" d="M121.06,280h-29.53v-29.53h29.53v29.53Zm79.72-57.58H67.91c-.49,0-.98,.49-.98,.98v87.1c0,.49,.49,.98,.98,.98h76.27v-61.02h31.49v61.02h25.1c.49,0,.98-.49,.98-.98v-87.1c0-.49-.49-.98-.98-.98"/><path class="cls-2" d="M134.34,147.14c-.49-.49-.98-.98-1.97-.98s-1.48,.49-1.97,.98l-.49,.49L58.56,214.55c-.49,0-.49,.49,0,.98l.49,.49H209.63q.49,0,.98-.49s0-.49-.49-.49l-75.29-67.42-.49-.49Z"/><path class="cls-2" d="M390.23,240.64c-1.48,0-2.95-1.48-2.95-2.95,0-.98,.49-1.48,.98-1.97,.49-.49,1.48-.98,1.97-.98,1.48,0,2.95,1.48,2.46,3.44,0,1.48-.98,2.46-2.46,2.46m.98,9.84c-.49,.49-.98,.49-1.48,.49h-.49c-1.48,0-2.46-1.48-2.46-3.44,.49-1.48,1.48-2.46,3.44-2.46,1.48,.49,2.46,1.97,2.46,3.44-.49,.49-.98,1.48-1.48,1.97m-1.48,8.37c-.49,.98-1.48,1.97-2.95,1.97h-.98c-.49-.49-1.48-.98-1.48-1.48-.49-.49-.49-1.48,0-2.46,.49-.49,.98-1.48,1.48-1.48,1.48-.49,2.95,0,3.94,1.48v1.97Zm-4.43,9.35c-.49,.98-1.48,1.48-2.46,1.48-.49,0-.98,0-1.48-.49-.49-.49-.98-.98-1.48-1.48,0-.49,0-1.48,.49-1.97,.49-.49,.98-.98,1.48-1.48,.98,0,1.48,0,1.97,.49,1.48,.49,1.97,1.97,1.48,3.44m-6.4-65.45c-.49,.49-.98,.49-1.97,.49s-1.48-.49-1.97-.98c-.98-.98-.98-2.95,.49-3.94,.98-.98,2.95-.98,3.94,.49,.49,.49,.49,1.48,.49,1.97,0,.98-.49,1.48-.98,1.97m0,74.31c-.49,.49-.98,.98-1.97,.98-.49,0-1.48,0-1.97-.49-.98-.98-1.48-2.95-.49-3.94,.49-.49,.98-.98,1.97-.98s1.48,0,1.97,.49c.49,.49,.98,.98,.98,1.97,.49,.49,0,.98-.49,1.97m-6.89-81.69c-.49,.49-.98,.98-1.97,.98-.49,0-1.48,0-1.97-.49-.49-.49-.98-.98-.98-1.97s0-1.48,.49-2.46c.98-.98,2.95-1.48,3.94-.49,1.48,.98,1.48,2.95,.49,4.43m-.49,88.58c-.49,.49-.98,.49-1.97,.49s-1.48,0-1.97-.49c-.49-.49-.49-1.48-.49-1.97,0-.98,.49-1.48,.98-1.97,.49-.49,1.48-.49,1.97-.49,.98,0,1.48,.49,1.97,.98,.98,.98,.49,2.46-.49,3.44m-8.86,6.4c-.49,.49-.98,.49-1.48,.49h-.98c-.98,0-1.48-.49-1.97-1.48-.49-.49-.49-1.48,0-1.97,0-.49,.49-1.48,1.48-1.48,.49-.49,1.48-.49,1.97-.49,.98,0,1.48,.49,1.97,1.48,.98,.98,.49,2.46-.98,3.44m-7.87,2.95c-.49,.49-.98,.98-1.48,1.48h-1.97c-.49-.49-.98-.98-1.48-1.48-.49-.49-.49-1.48,0-2.46,.49-.49,.98-.98,1.48-1.48,1.48-.49,2.95,.49,3.44,1.97v1.97Zm-9.84,2.95c-.49,.49-.98,.98-1.97,.98h-.49c-1.48,0-2.46-.98-2.95-2.46,0-1.48,.98-2.95,2.46-3.44,.98,0,1.48,0,1.97,.49,.49,.49,.98,.98,.98,1.97,.49,.98,.49,1.97,0,2.46m-12.79,2.46c-1.48,0-2.95-1.48-2.95-2.95s1.48-2.95,2.95-2.95,2.95,1.48,2.95,2.95-.98,2.46-2.95,2.95m-9.84-.98h-.49c-1.48-.49-2.46-1.97-2.46-3.44,.49-1.48,1.97-2.46,3.44-2.46s2.46,1.48,2.46,3.44c-.49,1.48-1.48,1.97-2.95,2.46m-6.89-4.43c-.49,.98-1.48,1.97-2.95,1.97h-.98c-1.48-.49-2.46-1.97-1.97-3.44,.49-1.48,1.97-2.46,3.44-1.97,1.97,0,2.95,1.97,2.46,3.44m-9.35-3.94c-.49,.98-1.48,1.48-2.46,1.48-.49,0-.98,0-1.48-.49-.49-.49-.98-.98-1.48-1.97,0-.49,0-1.48,.49-1.97,.98-1.48,2.46-1.97,3.94-.98,.98,.98,1.48,2.46,.98,3.94m-7.38-28.05h2.46v-3.94s0-.49,.49-.49h62.99s.49,0,.49,.49v3.94h2.46v3.94h-68.89v-3.94Zm-.98,22.64c-.49,.49-1.48,.98-1.97,.98s-1.48,0-1.97-.49c-.98-.98-1.48-2.95-.49-3.94,.98-.98,2.95-1.48,3.94-.49,.49,.49,.98,.98,.98,1.97,0,.49,0,1.48-.49,1.97m-7.87-6.89c-.49,.49-.98,.49-1.97,.49s-1.48-.49-2.46-.98c-.98-.98-.98-2.95,.49-3.94,.49-.49,1.48-.49,1.97-.49,.98,0,1.48,.49,1.97,.98,1.48,.98,1.48,2.95,0,3.94,.49,0,0,0,0,0m-3.94-78.74c.49-.49,.98-.98,1.97-.98s1.48,0,1.97,.49c.98,.98,1.48,2.95,.49,3.94-.49,.49-1.48,.98-1.97,.98s-1.48,0-1.97-.49c-1.48-.49-1.48-2.46-.49-3.94q0,.49,0,0m-.49,68.89c0,.49-.49,1.48-1.48,1.97-.49,.49-.98,.49-1.48,.49-1.48,0-2.95-1.48-2.95-2.95s1.48-2.95,2.95-2.95c.98,0,1.97,.49,2.46,1.48,.49,.49,.49,1.48,.49,1.97m-7.38-6.89c-.98,0-2.46-.49-2.46-1.97-.49-1.48,0-2.95,1.48-3.44,1.48-.49,2.95,0,3.44,1.48,.49,1.48,0,2.95-1.48,3.44,0,.49-.49,.49-.98,.49m-5.41-11.81c-.49-1.48,.98-2.95,2.46-3.44,1.48,0,2.95,.98,3.44,2.46,0,1.48-.98,2.95-2.46,3.44h-.49c-1.48-.49-2.46-1.48-2.95-2.46m-.98-10.83c0-1.48,.98-2.95,2.95-2.95,.98,0,1.48,.49,1.97,.98,.49,.49,.98,1.48,.98,1.97,0,1.48-1.48,2.95-3.44,2.46-.98,0-1.97-.98-2.46-2.46m4.43-12.79c.98,0,1.48,.49,1.97,.98,.49,.49,.49,1.48,.49,1.97,0,.98-.49,1.48-.98,1.97-.49,.49-.98,.49-1.48,.49h-.49c-1.48-.49-2.46-1.97-2.46-3.44,0-.98,1.48-2.46,2.95-1.97m0-7.87c.49-1.48,1.97-2.46,2.95-1.97,.49,.49,1.48,.98,1.48,1.48,.49,.49,.49,1.48,0,1.97-.49,.98-1.48,1.97-2.46,1.97h-.98c-1.48-.49-2.46-1.97-.98-3.44q-.49,0,0,0m4.43-9.84c.98-.98,2.95-1.48,3.94-.49,.98,.98,1.48,1.97,.98,3.44-.98,1.48-2.46,1.97-3.94,.98-1.48-.49-2.46-2.46-.98-3.94q-.49,0,0,0m13.29-16.24c.49-.49,1.48-.49,1.97-.49,.98,0,1.48,.49,1.97,.98,.98,.98,.98,2.95-.49,3.94-.49,.49-.98,.49-1.97,.49s-1.48-.49-2.46-.98c-.49-.98-.49-2.46,.98-3.94m8.86-5.91c.49-.49,1.48-.49,1.97,0,.49,0,1.48,.49,1.48,1.48,.98,1.48,.49,2.95-.98,3.94h-1.48c-.98,0-1.97-.49-2.46-1.48-.98-1.48-.49-2.95,1.48-3.94q-.49,0,0,0m7.87-2.95c.49-.49,.98-1.48,1.48-1.48,.49-.49,1.48-.49,1.97,0,.49,.49,.98,.98,1.48,1.48,.49,1.48,0,2.95-1.48,3.44h-.98c-.49,0-.98,0-.98-.49-.49-.49-1.48-.98-1.48-1.48-.49,0-.49-.98,0-1.48m9.84-2.95c.49-.49,.98-.98,1.97-.98s1.48,0,1.97,.49c.49,.49,.98,.98,.98,1.97s0,1.48-.49,1.97c-.49,.49-.98,.98-1.97,.98h-.49c-.49,0-.98,0-1.48-.49-.49-.49-.98-.98-.98-1.97s0-1.48,.49-1.97m12.3-2.46c1.48,0,2.95,1.48,2.95,2.95s-1.48,2.95-2.95,2.95-2.95-1.48-2.95-2.95,1.48-2.46,2.95-2.95m8.37,1.48c.49-.49,1.48-.49,1.97-.49,1.48,.49,2.46,1.48,2.46,3.44,0,.98-.49,1.48-.98,1.97-.49,.49-.98,.49-1.48,.49h-.49c-.98,0-1.48-.49-1.97-.98-.49-.49-.49-1.48-.49-1.97,0-.98,.49-1.97,.98-2.46m8.86,3.94c.49-1.48,2.46-1.97,3.94-1.48,.98,.49,1.48,.98,1.48,1.48,.49,.49,.49,1.48,0,1.97-.49,.98-1.48,1.97-2.95,1.97h-.98c-.49-.49-1.48-.98-1.48-1.48-.49-.49-.49-1.48,0-2.46m-16.73,35.92h-34.45l-1.48-1.48c-.49-.49-.49-.98,0-1.48h.49l35.43-13.29,34.94,13.29c.49,.49,.49,.98,0,1.48l-1.48,1.48h-33.46Zm-28.54,11.81c-.49,0-.98,0-.98-.98v-3.94h10.33v3.94c0,.49-.49,.98-.98,.98v24.6h-8.37v-24.6Zm24.6,0q-.98,0-.98-.98v-3.94h9.84v3.94c0,.49-.49,.98-.98,.98v24.6h-7.87v-24.6Zm3.94-7.38h-32.48v-2.46h63.97v2.46h-31.49Zm19.68,7.38c-.49,0-.98-.49-.98-.98v-3.94h10.33v3.94c0,.49-.49,.98-.98,.98v24.6h-7.87l-.49-24.6Zm5.91-43.8h0c.98-1.48,2.46-1.97,3.94-.98,.49,.49,.98,.98,1.48,1.97,.49,.49,.49,1.48,0,1.97-.49,.49-.98,.98-1.97,1.48h-.98c-.49,0-.98,0-1.48-.49-.49-.49-.98-.98-1.48-1.48,.49-.98,.49-1.97,.49-2.46m20.67,21.65c0-.49,.49-1.48,1.48-1.48,1.48-.98,2.95-.49,3.94,.98,.98,1.48,.49,2.95-.98,3.94-.49,.49-.98,.49-1.48,.49h-.98c-1.48-.49-1.97-1.97-1.97-3.94m9.84,9.35c.49,.49,.49,1.48,0,2.46-.49,.49-.98,1.48-1.48,1.48h-.98c-.98,0-2.46-.98-2.95-1.97-.49-.49-.49-1.48,0-1.97,.49-.49,.98-1.48,1.48-1.48,1.97-.98,3.44-.49,3.94,1.48q.49-.49,0,0m2.95,9.84c0,.98,0,1.48-.49,1.97-.49,.49-.98,.98-1.97,.98h-.49c-.49,0-.98,0-1.48-.49-.49-.49-.98-.98-.98-1.97,0-.49,0-1.48,.49-1.97,.49-.49,.98-.98,1.97-.98s2.46,.98,2.95,2.46m-59.54-56.1c-36.91,0-66.43,30.02-66.43,66.93s30.02,66.43,66.93,66.43,66.43-29.53,66.43-66.43c-.49-36.91-30.02-66.93-66.93-66.93"/><path class="cls-2" d="M332.66,307.56c-38.88,0-70.37-31.49-70.37-70.37s31.49-69.88,70.37-69.88,70.37,31.49,70.37,70.37c-.49,38.88-31.49,69.88-70.37,69.88m0-146.15c-41.83,0-76.28,33.95-76.28,76.28s33.95,75.78,76.28,75.78,76.27-33.95,76.27-76.27c-.49-41.34-34.45-75.78-76.27-75.78"/><path class="cls-2" d="M83.16,384.33s-7.87,8.37-7.87,14.76c0,5.41,5.91,8.37,7.87,9.35,0,0,7.87-4.43,7.87-9.84,0-6.4-7.87-14.27-7.87-14.27"/><path class="cls-2" d="M65.45,399.58s-.98,13.78,4.92,18.21c0,0,1.97,2.46,11.32,3.94,0,0,.98-8.86-2.46-12.79,0,0-1.97-2.46-13.78-9.35"/><path class="cls-2" d="M64.46,416.81s-1.48,15.26,5.41,19.68c0,0,1.97,2.95,12.3,4.43,0,0,.98-9.84-2.95-13.78,0,0-1.97-2.95-14.76-10.33"/><path class="cls-2" d="M64.96,436.49s-1.97,16.24,4.43,21.16c0,0,2.46,2.95,12.79,4.43,0,0,1.48-10.33-2.46-14.27,0,.49-1.97-3.94-14.76-11.32"/><path class="cls-2" d="M62.99,456.67s-.98,17.22,5.41,21.65c3.94,2.95,8.86,4.43,13.78,4.43,0,0,.98-10.83-2.46-15.25-4.92-4.43-10.83-7.87-16.73-10.83"/><path class="cls-2" d="M100.88,399.09s1.48,13.78-4.43,18.21c0,0-1.97,2.46-11.32,3.94,0,0-.98-8.86,2.46-12.79-.49,.49,1.48-1.97,13.29-9.35"/><path class="cls-2" d="M101.86,416.81s1.48,15.26-4.92,19.68c0,0-1.97,2.95-12.3,4.43,0,0-.98-9.84,2.46-13.78,.49,0,2.46-2.95,14.76-10.33"/><path class="cls-2" d="M101.86,436.49s2.46,16.24-3.94,21.16c0,0-2.46,2.95-12.79,4.92,0,0-1.48-9.84,1.97-14.27,0,0,2.46-4.43,14.76-11.81"/><path class="cls-2" d="M104.32,456.17s1.48,17.22-5.41,21.65c-3.94,2.95-8.86,4.43-13.29,4.92,0,0-1.48-10.83,2.46-15.25,4.43-4.43,10.33-8.37,16.24-11.32"/><path class="cls-2" d="M68.4,369.07c0-.98-.49-1.48-1.48-1.48s-1.48,.49-1.48,1.48l.49,28.05,2.95,1.48-.49-29.53Z"/><path class="cls-2" d="M74.31,364.15c0-.98-.49-1.48-1.48-1.48s-1.48,.49-1.48,1.48l.49,32.97c.49-2.46,1.48-4.92,2.95-7.38l-.49-25.59Z"/><path class="cls-2" d="M80.7,356.77c0-.98-.49-1.48-1.48-1.48s-1.48,.49-1.48,1.48v28.54l2.95-3.94v-24.6Z"/><path class="cls-2" d="M96.94,369.07c0-.98,.49-1.48,1.48-1.48s1.48,.49,1.48,1.48l.49,27.56-2.95,1.97-.49-29.53Z"/><path class="cls-2" d="M91.04,364.15c0-.98,.49-1.48,1.48-1.48s1.48,.49,1.48,1.48l.49,32.97c-.98-2.46-1.97-4.92-2.95-7.38l-.49-25.59Z"/><path class="cls-2" d="M84.64,356.77c0-.98,.49-1.48,1.48-1.48s1.48,.49,1.48,1.48l.49,28.54c-.98-1.48-2.46-2.95-2.95-3.94l-.49-24.6Z"/><rect class="cls-2" x="81.69" y="485.7" width="4.43" height="38.88"/><path class="cls-2" d="M382.85,381.38s-7.87,8.37-7.87,14.76c0,5.41,5.91,8.37,7.87,9.35,0,0,7.87-4.43,7.87-9.84,0-6.4-7.87-14.27-7.87-14.27"/><path class="cls-2" d="M365.14,396.63s-.98,13.78,4.92,18.21c0,0,1.97,2.46,11.32,3.94,0,0,.98-8.86-2.46-12.79,0,0-1.97-2.46-13.78-9.35"/><path class="cls-2" d="M364.15,413.85s-1.48,15.26,5.41,19.68c0,0,1.97,2.95,12.3,4.43,0,0,.98-9.84-2.95-13.78,0,0-1.97-2.95-14.76-10.33"/><path class="cls-2" d="M364.64,433.54s-1.97,16.24,4.43,21.16c0,0,2.46,2.95,12.79,4.43,0,0,1.48-9.84-2.46-14.27,0,.49-1.97-3.94-14.76-11.32"/><path class="cls-2" d="M362.68,453.71s-.98,17.22,5.41,21.65c3.94,2.95,8.86,4.43,13.78,4.92,0,0,.98-10.83-2.46-15.25-4.92-4.92-10.33-8.37-16.73-11.32"/><path class="cls-2" d="M400.57,396.14s1.48,13.78-4.43,18.21c0,0-1.97,2.46-11.32,3.94,0,0-.98-8.86,2.46-12.79-.49,.49,.98-2.46,13.29-9.35"/><path class="cls-2" d="M401.55,413.36s1.48,15.26-4.92,19.68c0,0-1.97,2.95-12.3,4.43,0,0-.98-9.84,2.46-13.78,.49,.49,2.46-2.46,14.76-10.33"/><path class="cls-2" d="M401.55,433.54s2.46,16.24-3.94,21.16c0,0-2.46,2.95-12.79,4.92,0,0-1.48-9.84,1.97-14.27,0,0,1.97-4.43,14.76-11.81"/><path class="cls-2" d="M404.01,453.22s.98,17.22-5.41,21.65c-3.94,2.95-8.37,4.43-13.29,4.92,0,0-1.48-10.83,2.46-15.25,4.43-4.43,10.33-8.37,16.24-11.32"/><path class="cls-2" d="M368.09,366.12c0-.98-.49-1.48-1.48-1.48s-1.48,.49-1.48,1.48v27.56l2.95,1.48v-29.03Z"/><path class="cls-2" d="M373.99,361.2c0-.98-.49-1.48-1.48-1.48s-1.48,.49-1.48,1.48l.49,32.97c.49-2.46,1.48-4.92,2.95-7.38l-.49-25.59Z"/><path class="cls-2" d="M380.39,353.82c0-.98-.49-1.48-1.48-1.48s-1.48,.49-1.48,1.48v28.54l2.95-3.94v-24.6Z"/><path class="cls-2" d="M396.63,366.12c0-.98,.49-1.48,.98-1.97,.49-.49,1.48,.49,1.97,.98v28.05l-2.46,1.97-.49-29.03Z"/><path class="cls-2" d="M390.72,361.2c0-.98,.49-1.48,1.48-1.48s1.48,.49,1.48,1.48l.49,32.97c-.98-2.46-1.97-4.92-2.95-7.38l-.49-25.59Z"/><path class="cls-2" d="M384.33,353.82c0-.98,.49-1.48,1.48-1.48s1.48,.49,1.48,1.48v28.54l-2.95-3.94v-24.6Z"/><rect class="cls-2" x="381.38" y="482.75" width="4.43" height="38.88"/><path class="cls-2" d="M292.8,377.93c-8.37,0-14.76-6.4-14.76-14.76s6.4-14.76,14.76-14.76,14.76,6.4,14.76,14.76-6.4,14.76-14.76,14.76"/><path class="cls-2" d="M275.08,383.84h34.94c10.33,.98,18.21,9.35,18.21,19.68v41.34c0,3.44-2.46,5.91-5.91,5.91s-5.91-2.46-5.91-5.91v-35.43c0-1.48-.49-2.95-2.95-2.95-1.48,0-1.97,1.97-1.97,2.95v106.79c.49,4.43-2.95,8.86-7.87,8.86-4.43,.49-8.86-2.95-8.86-7.87v-62.5c0-1.48-.98-2.46-1.97-2.46h-.49c-1.48,0-2.46,.98-2.46,1.97v62c.49,4.43-2.95,8.86-7.87,8.86-4.43,.49-8.86-2.95-8.86-7.87v-107.77c0-.98-.49-2.95-1.97-2.95s-2.95,1.97-2.95,2.95v35.43c0,3.44-2.46,5.91-5.91,5.91s-5.91-2.46-5.91-5.91v-41.34c.98-9.84,8.86-18.7,18.7-19.68"/><path class="cls-2" d="M181.09,380.39c8.37,0,14.76-6.4,14.76-14.76s-6.4-14.76-14.76-14.76-14.76,6.4-14.76,14.76,6.89,14.76,14.76,14.76"/><path class="cls-2" d="M223.41,438.46l-12.3-39.86s-4.43-11.32-14.27-11.32h-31.49c-9.84,0-14.27,11.32-14.27,11.32l-12.3,39.86s-2.46,7.38,3.94,8.86c6.4,1.97,8.37-5.41,8.37-5.41l9.84-32.97s.49-2.46,2.46-1.97c1.97,.49,.98,3.44,.98,3.44l-17.22,62h16.24v44.29c0,4.43,3.44,7.87,7.87,7.87s7.87-3.44,7.87-7.87v-44.29h4.43v44.29c.49,4.43,3.94,7.38,8.37,6.89,3.94-.49,6.89-3.44,6.89-6.89v-44.29h16.24l-17.22-62s-.49-2.95,.98-3.44c1.48-.49,2.46,1.97,2.46,1.97l9.84,32.97s1.97,6.89,8.37,5.41c6.4-1.48,3.94-8.86,3.94-8.86"/></g></svg>