<?xml version="1.0" encoding="UTF-8"?><svg id="Capa_1" xmlns="http://www.w3.org/2000/svg" viewBox="0 0 467 568.37"><defs><style>.cls-1{fill:#fff;}.cls-2{fill:#e9a30d;}</style></defs><path class="cls-2" d="M4.92,80.7H461.59V4.92H4.92V80.7Zm462.08,4.92H0V0H466.51V85.62h.49Z"/><polygon class="cls-2" points="16.73 17.72 38.88 17.72 38.88 24.6 32.48 24.6 32.48 67.91 23.62 67.91 23.62 24.6 16.73 24.6 16.73 17.72"/><path class="cls-2" d="M49.21,52.16h6.89l-3.44-20.18-3.44,20.18Zm-10.33,15.75l9.35-50.19h9.35l9.84,50.19h-8.86l-1.48-9.35h-8.86l-1.48,9.35h-7.87Z"/><path class="cls-2" d="M80.21,24.6v15.75h2.95c2.95,0,3.94-1.48,3.94-3.94v-7.38c0-2.95-1.48-3.94-3.94-3.94h-2.95v-.49Zm0,20.67v23.13h-8.37V17.72h12.3c8.37,0,11.81,4.43,11.81,11.32v6.4c0,5.41-1.97,8.37-6.89,9.84l7.87,22.64h-8.86l-7.87-22.64Z"/><path class="cls-2" d="M113.67,41.34h11.81v26.57h-5.91v-5.41c-.98,3.94-3.44,5.91-7.87,5.91-7.38,0-10.33-5.91-10.33-13.29V31c0-7.87,3.94-13.29,12.79-13.29,9.35,0,11.81,5.41,11.81,12.79v4.43h-7.87v-4.92c0-2.95-.98-4.92-4.43-4.92-2.95,0-4.43,1.97-4.43,4.92v27.07c0,2.95,1.48,4.92,3.94,4.92,2.95,0,3.94-1.48,3.94-4.92v-9.35h-3.94v-6.4h.49Z"/><polygon class="cls-2" points="132.37 17.72 152.55 17.72 152.55 24.6 140.74 24.6 140.74 38.88 149.11 38.88 149.11 45.77 140.74 45.77 140.74 61.02 152.55 61.02 152.55 67.91 132.37 67.91 132.37 17.72"/><polygon class="cls-2" points="156.49 17.72 178.63 17.72 178.63 24.6 171.74 24.6 171.74 67.91 163.38 67.91 163.38 24.6 156.49 24.6 156.49 17.72"/><path class="cls-2" d="M373.5,58.56c0-4.92,1.48-8.37,6.4-13.29l4.92-4.92c2.95-2.95,2.95-4.43,2.95-8.86v-3.44c0-2.95-1.48-3.94-2.95-3.94-1.97,0-3.44,.98-3.44,3.94v6.4h-7.87v-5.91c0-6.89,3.94-10.83,11.32-10.83s10.83,3.44,10.83,10.33v4.92c0,4.92-.98,7.87-5.41,12.79l-5.41,5.91c-1.97,2.46-3.44,3.94-3.44,7.87v2.46h13.78v6.89h-21.65v-10.33Z"/><path class="cls-2" d="M409.92,36.91c3.44,0,5.91,2.95,5.91,5.91,0,3.44-2.95,5.91-5.91,5.91-3.44,0-5.91-2.95-5.91-5.91-.49-2.95,2.46-5.91,5.91-5.91"/><path class="cls-2" d="M447.81,44.78v12.3c0,6.89-3.44,11.32-11.81,11.32s-11.81-4.92-11.81-12.3v-5.91h7.87v6.4c0,2.95,.98,4.92,3.94,4.92,2.46,0,3.44-1.97,3.44-4.43v-12.3c0-2.95-.98-4.43-3.44-4.43s-3.94,1.48-3.94,4.43v.98h-7.87V17.72h22.14v6.89h-14.27v12.3c1.48-2.46,3.94-3.44,6.89-3.44,4.92,.49,8.86,3.44,8.86,11.32"/><g><rect class="cls-2" y="101.86" width="466.51" height="466.51"/><path class="cls-1" d="M233.75,325.77c2.95-1.97,13.29-7.38,13.29-16.24,0-10.83-13.78-25.1-13.78-25.1,0,0-13.29,13.78-13.29,25.1,0,8.86,13.78,16.24,13.78,16.24"/><path class="cls-1" d="M240.14,326.75c-5.91,6.4-4.43,21.65-4.43,21.65,16.24-2.46,19.68-6.89,19.68-6.89,10.33-7.38,7.87-31.49,7.87-31.49-19.68,12.3-23.13,16.73-23.13,16.73"/><path class="cls-1" d="M240.64,357.75c-6.4,6.89-4.43,23.62-4.43,23.62,17.22-2.95,21.16-7.87,21.16-7.87,11.32-7.87,8.86-33.95,8.86-33.95-22.14,13.29-25.59,18.21-25.59,18.21"/><path class="cls-1" d="M240.14,394.17c-6.4,6.89-3.94,24.11-3.94,24.11,17.22-2.95,22.14-7.87,22.14-7.87,11.32-7.87,7.38-36.42,7.38-36.42-22.14,12.79-25.59,20.18-25.59,20.18"/><path class="cls-1" d="M240.64,428.12c-6.4,6.89-4.43,26.08-4.43,26.08,17.22-2.95,23.13-8.37,23.13-8.37,11.32-7.87,9.35-37.4,9.35-37.4-22.14,11.81-28.05,19.68-28.05,19.68"/><path class="cls-1" d="M211.11,341.52s3.44,4.43,19.68,6.89c0,0,1.48-15.75-4.43-21.65,0,0-2.95-4.43-23.62-16.24,.49,0-1.97,24.11,8.37,31"/><path class="cls-1" d="M209.63,373.99s3.44,4.92,21.16,7.87c0,0,1.97-16.73-4.43-23.62,0,0-3.44-4.92-25.1-17.72,0-.49-2.95,25.59,8.37,33.46"/><path class="cls-1" d="M201.27,373.99s-3.94,28.54,7.38,36.42c0,0,4.43,5.41,22.14,7.87,0,0,2.46-17.22-3.94-24.11,0,0-3.44-7.38-25.59-20.18"/><path class="cls-1" d="M225.87,428.12s-5.91-7.87-28.54-19.68c0,0-1.97,29.53,9.35,37.4,0,0,5.91,5.41,23.13,8.37,.49-.49,2.95-19.19-3.94-26.08"/><path class="cls-1" d="M263.27,258.35c-.49-1.48-1.97-1.97-2.95-1.97s-1.48,.98-1.97,1.97v50.19l4.92-2.95v-47.24Z"/><path class="cls-1" d="M252.94,306.58v-56.59c-.49-1.48-1.97-1.97-2.95-1.97s-1.48,.98-1.97,1.97v44.29c1.97,3.94,3.44,8.37,4.92,12.3"/><path class="cls-1" d="M242.11,236.7c0-1.48-.98-2.46-2.46-2.46s-2.46,.98-2.46,2.46v42.32l4.92,6.89v-49.21Z"/><path class="cls-1" d="M208.65,258.35c0-1.48-.98-2.46-2.46-2.46s-2.46,.98-2.46,2.46v47.24l4.92,2.95v-50.19Z"/><path class="cls-1" d="M218.98,294.27v-44.29c0-1.48-.98-2.46-2.46-2.46s-2.46,.98-2.46,2.46v57.08c1.48-4.43,2.95-8.86,4.92-12.79"/><path class="cls-1" d="M229.81,236.7c0-1.48-.98-2.46-2.46-2.46s-2.46,.98-2.46,2.46v49.21l4.92-6.89v-42.32Z"/><rect class="cls-1" x="228.83" y="465.52" width="9.84" height="59.05"/><path class="cls-1" d="M101.37,217.01c7.87,0,13.29-6.4,11.32-19.68-1.97-9.84-5.91-19.19-11.81-27.56,0,0-10.33,19.68-10.83,29.53-.49,9.84,1.97,17.72,11.32,17.72"/><path class="cls-1" d="M107.28,222.92c-5.41,8.37-7.87,16.73,0,21.16,4.92,2.95,14.76-1.97,19.68-14.27,3.44-8.86,4.92-18.7,4.43-28.54,0,.49-18.7,13.29-24.11,21.65"/><path class="cls-1" d="M107.28,259.34c-5.41,8.37-7.87,16.73,0,21.16,4.92,2.95,14.76-1.97,19.68-14.27,3.44-8.86,4.92-18.7,4.43-28.54,0,.49-18.7,13.29-24.11,21.65"/><path class="cls-1" d="M107.77,294.77c-5.41,8.37-7.87,16.73,0,21.16,4.92,2.95,14.76-1.97,19.68-14.27,3.44-8.86,4.92-18.7,4.43-28.54,0,0-18.7,13.29-24.11,21.65"/><path class="cls-1" d="M107.77,331.18c-5.41,8.37-7.87,16.73,0,21.16,4.92,2.95,14.76-1.97,19.68-14.27,3.44-9.35,4.92-18.7,4.43-28.54,0,0-18.7,13.29-24.11,21.65"/><path class="cls-1" d="M96.45,244.08c7.87-4.92,5.41-13.29,0-21.16-5.41-7.87-24.6-21.16-24.6-21.16-.49,9.84,.98,19.19,4.43,28.54,4.92,11.81,14.76,17.22,20.18,13.78"/><path class="cls-1" d="M96.45,280.5c7.87-4.92,5.41-13.29,0-21.16-5.41-7.87-24.6-21.16-24.6-21.16-.49,9.84,.98,19.19,4.43,28.54,4.92,11.81,14.76,16.73,20.18,13.78"/><path class="cls-1" d="M95.96,315.93c7.87-4.92,5.41-13.29,0-21.16-5.41-7.87-24.6-21.16-24.6-21.16-.49,9.84,1.48,19.19,4.43,28.54,4.92,11.81,14.76,16.73,20.18,13.78"/><path class="cls-1" d="M95.96,352.34c7.87-4.92,5.41-13.29,0-21.16-5.41-7.87-24.6-21.16-24.6-21.16,0,9.84,1.48,19.19,4.92,28.54,4.43,11.81,14.27,16.73,19.68,13.78"/><path class="cls-1" d="M128.44,350.87s-10.33,64.96-21.65,119.58v-105.31h-9.84v105.8c-11.32-54.13-21.65-120.07-21.65-120.07-2.95,49.7,4.43,99.4,21.65,145.66v28.05h9.84v-28.05c17.72-46.26,25.1-95.96,21.65-145.66"/><path class="cls-1" d="M365.63,404.5h-9.84v59.05l-7.38-22.14c-1.48-4.43-6.4-6.89-10.33-5.41-1.48,.49-2.46,.98-3.44,1.97l-41.83,43.8,45.27-19.19,18.21,36.42v26.08h9.84l-.49-120.56Z"/><path class="cls-1" d="M349.88,249h4.92c1.97,0,3.44,1.48,3.44,3.44v2.46c0,1.97-1.48,3.44-3.44,3.44h-4.92c-1.97,0-3.44-1.48-3.44-3.44v-2.46c-.49-1.48,1.48-3.44,3.44-3.44"/><path class="cls-1" d="M336.1,249h4.92c1.97,0,3.44,1.48,3.44,3.44v2.46c0,1.97-1.48,3.44-3.44,3.44h-4.92c-1.97,0-3.44-1.48-3.44-3.44v-2.46c0-1.48,1.48-3.44,3.44-3.44"/><path class="cls-1" d="M350.87,236.7h3.94c1.97,0,3.44,1.48,3.44,3.44v2.95c0,1.97-1.48,3.44-3.44,3.44h-3.94c-1.97,0-3.44-1.48-3.44-3.44v-2.95c0-1.97,1.48-3.44,3.44-3.44"/><path class="cls-1" d="M337.58,237.19h3.94c1.97,0,3.44,1.48,3.44,3.44v2.95c0,1.97-1.48,3.44-3.44,3.44h-3.94c-1.97,0-3.44-1.48-3.44-3.44v-2.95c-.49-1.97,1.48-3.44,3.44-3.44"/><path class="cls-1" d="M350.37,261.3h4.92c1.97,0,3.44,1.48,3.44,3.44v2.46c0,1.97-1.48,3.44-3.44,3.44h-4.92c-1.97,0-3.44-1.48-3.44-3.44v-2.46c-.49-1.97,1.48-3.44,3.44-3.44"/><path class="cls-1" d="M336.1,261.3h4.92c1.97,0,3.44,1.48,3.44,3.44v2.46c0,1.97-1.48,3.44-3.44,3.44h-4.92c-1.97,0-3.44-1.48-3.44-3.44v-2.46c0-1.97,1.48-3.44,3.44-3.44"/><path class="cls-1" d="M349.88,273.11h4.92c1.97,0,3.44,1.48,3.44,3.44v2.46c0,1.97-1.48,3.44-3.44,3.44h-4.92c-1.97,0-3.44-1.48-3.44-3.44v-2.46c-.49-1.97,1.48-3.44,3.44-3.44"/><path class="cls-1" d="M344.47,279.51v-2.46c0-1.97-1.48-3.44-3.44-3.44h-4.92c-1.48,0-2.46,.49-2.95,1.97,.98,1.97,2.95,4.92,4.43,7.87h3.44c1.48-.49,3.44-1.97,3.44-3.94"/><path class="cls-1" d="M350.37,284.92h4.92c1.97,0,3.44,1.48,3.44,3.44v2.46c0,1.97-1.48,3.44-3.44,3.44h-4.92c-1.97,0-3.44-1.48-3.44-3.44v-2.46c-.49-1.97,1.48-3.44,3.44-3.44"/><path class="cls-1" d="M344.47,291.32v-2.46c0-1.97-1.48-3.44-3.44-3.44h-2.95c1.48,2.95,2.95,6.4,3.94,9.35,1.48-.98,2.46-1.97,2.46-3.44"/><path class="cls-1" d="M350.37,296.73h4.92c1.97,0,3.44,1.48,3.44,3.44v2.46c0,1.97-1.48,3.44-3.44,3.44h-4.92c-1.97,0-3.44-1.48-3.44-3.44v-2.46c-.49-1.48,1.48-3.44,3.44-3.44"/><path class="cls-1" d="M350.37,318.88h4.92c1.97,0,3.44-1.48,3.44-3.44v-2.46c0-1.97-1.48-3.44-3.44-3.44h-4.92c-1.48,0-2.95,.98-3.44,2.46,.49,1.97,.98,4.43,1.48,6.89,.49-.49,.98,0,1.97,0"/><path class="cls-1" d="M354.8,330.2c1.97,0,3.44-1.48,3.44-3.44v-2.95c0-1.97-1.48-3.44-3.44-3.44h-4.92c-.49,0-.98,0-1.48,.49,.49,2.95,.98,6.4,1.97,9.84l4.43-.49Z"/><path class="cls-1" d="M352.83,342.5h1.97c1.97,0,3.44-1.48,3.44-3.44v-2.46c0-1.97-1.48-3.44-3.44-3.44h-3.94c.49,1.97,.49,3.94,.98,5.91q.49,1.97,.98,3.44"/><path class="cls-1" d="M358.74,350.37v-2.46c0-1.97-1.48-3.44-3.44-3.44h-1.97c.49,3.44,1.48,6.89,1.97,9.84,1.97-.49,3.44-1.97,3.44-3.94"/><path class="cls-1" d="M358.74,362.18v-2.46c0-1.97-1.48-3.44-2.95-3.44,.98,3.44,1.48,6.4,1.97,8.37,.49-.49,.98-1.48,.98-2.46"/><path class="cls-1" d="M350.87,225.87h5.41c1.48,0,2.46,.98,2.46,2.46v4.43c0,1.48-.98,2.46-2.46,2.46h-5.41c-1.48,0-2.46-.98-2.46-2.46v-4.43c0-1.48,.98-2.46,2.46-2.46"/><path class="cls-1" d="M351.36,215.05h4.43c1.48,0,2.46,.98,2.46,2.46v3.94c0,1.48-.98,2.46-2.46,2.46h-4.43c-1.48,0-2.46-.98-2.46-2.46v-3.94c0-1.48,.98-2.46,2.46-2.46"/><path class="cls-1" d="M338.56,214.55h4.43c1.48,0,2.46,.98,2.46,2.46v3.94c0,1.48-.98,2.46-2.46,2.46h-4.43c-1.48,0-2.46-.98-2.46-2.46v-3.94c.49-1.48,1.48-2.46,2.46-2.46"/><path class="cls-1" d="M341.52,203.73h3.94c1.48,0,2.46,.98,2.46,2.46v3.44c0,1.48-.98,2.46-2.46,2.46h-3.94c-1.48,0-2.46-.98-2.46-2.46v-3.44c0-.98,.98-2.46,2.46-2.46"/><path class="cls-1" d="M352.34,203.24h3.94c1.48,0,2.46,.98,2.46,2.46v3.44c0,1.48-.98,2.46-2.46,2.46h-3.94c-1.48,0-2.46-.98-2.46-2.46v-3.44c0-.98,.98-2.46,2.46-2.46"/><path class="cls-1" d="M352.83,194.38h2.95c1.48,0,2.46,.98,2.46,2.46v1.97c0,1.48-.98,2.46-2.46,2.46h-2.95c-1.48,0-2.46-.98-2.46-2.46v-1.97c.49-1.48,1.48-2.46,2.46-2.46"/><path class="cls-1" d="M342.99,194.38h2.95c1.48,0,2.46,.98,2.46,2.46v1.97c0,1.48-.98,2.46-2.46,2.46h-2.95c-1.48,0-2.46-.98-2.46-2.46v-1.97c0-1.48,.98-2.46,2.46-2.46"/><path class="cls-1" d="M346.44,185.52h1.97c1.48,0,2.46,.98,2.46,2.46v1.97c0,1.48-.98,2.46-2.46,2.46h-1.97c-1.48,0-2.46-.98-2.46-2.46v-1.97c0-1.48,.98-2.46,2.46-2.46"/><path class="cls-1" d="M354.31,185.52h1.97c1.48,0,2.46,.98,2.46,2.46v1.97c0,1.48-.98,2.46-2.46,2.46h-1.97c-1.48,0-2.46-.98-2.46-2.46v-1.97c0-1.48,1.48-2.46,2.46-2.46"/><path class="cls-1" d="M337.58,225.87h5.41c1.48,0,2.46,.98,2.46,2.46v4.43c0,1.48-.98,2.46-2.46,2.46h-5.41c-1.48,0-2.46-.98-2.46-2.46v-4.43c0-1.48,1.48-2.46,2.46-2.46"/><path class="cls-1" d="M355.79,180.6h1.97c.49,0,.98,.49,.98,.98v.98c0,.49-.49,.98-.98,.98h-1.97c-.49,0-.98-.49-.98-.98v-.98c0-.49,.49-.98,.98-.98"/><path class="cls-1" d="M348.9,180.6h1.97c.49,0,.98,.49,.98,.98v.98c0,.49-.49,.98-.98,.98h-1.97c-.49,0-.98-.49-.98-.98v-.98c0-.49,.49-.98,.98-.98"/><path class="cls-1" d="M351.85,175.19h1.97c.49,0,.98,.49,.98,.98v.98c0,.49-.49,.98-.98,.98h-1.97c-.49,0-.98-.49-.98-.98v-.98c0-.49,.49-.98,.98-.98"/><path class="cls-1" d="M357.26,170.27h.98c.49,0,.98,.49,.98,.98v.49c0,.49-.49,.98-.98,.98h-.98c-.49,0-.98-.49-.98-.98v-.49c-.49,0,0-.98,.98-.98"/><path class="cls-1" d="M364.64,249h4.92c1.97,0,3.44,1.48,3.44,3.44v2.46c0,1.97-1.48,3.44-3.44,3.44h-4.92c-1.97,0-3.44-1.48-3.44-3.44v-2.46c-.49-1.48,1.48-3.44,3.44-3.44"/><path class="cls-1" d="M378.91,249h4.92c1.97,0,3.44,1.48,3.44,3.44v2.46c0,1.97-1.48,3.44-3.44,3.44h-4.92c-1.97,0-3.44-1.48-3.44-3.44v-2.46c0-1.48,1.48-3.44,3.44-3.44"/><path class="cls-1" d="M364.15,236.7h3.94c1.97,0,3.44,1.48,3.44,3.44v2.95c0,1.97-1.48,3.44-3.44,3.44h-3.94c-1.97,0-3.44-1.48-3.44-3.44v-2.95c0-1.97,1.48-3.44,3.44-3.44"/><path class="cls-1" d="M378.42,237.19h3.94c1.97,0,3.44,1.48,3.44,3.44v2.95c0,1.97-1.48,3.44-3.44,3.44h-3.94c-1.97,0-3.44-1.48-3.44-3.44v-2.95c0-1.97,1.48-3.44,3.44-3.44"/><path class="cls-1" d="M364.64,261.3h4.92c1.97,0,3.44,1.48,3.44,3.44v2.46c0,1.97-1.48,3.44-3.44,3.44h-4.92c-1.97,0-3.44-1.48-3.44-3.44v-2.46c0-1.97,1.48-3.44,3.44-3.44"/><path class="cls-1" d="M378.91,261.3h4.92c1.97,0,3.44,1.48,3.44,3.44v2.46c0,1.97-1.48,3.44-3.44,3.44h-4.92c-1.97,0-3.44-1.48-3.44-3.44v-2.46c0-1.97,1.48-3.44,3.44-3.44"/><path class="cls-1" d="M364.15,273.11h4.92c1.97,0,3.44,1.48,3.44,3.44v2.46c0,1.97-1.48,3.44-3.44,3.44h-4.92c-1.97,0-3.44-1.48-3.44-3.44v-2.46c-.49-1.97,1.48-3.44,3.44-3.44"/><path class="cls-1" d="M378.91,273.11h4.92c1.97,0,3.44,1.48,3.44,3.44v2.46c0,1.97-1.48,3.44-3.44,3.44h-4.92c-1.97,0-3.44-1.48-3.44-3.44v-2.46c0-1.97,1.48-3.44,3.44-3.44"/><path class="cls-1" d="M365.14,284.92h4.92c1.97,0,3.44,1.48,3.44,3.44v2.46c0,1.97-1.48,3.44-3.44,3.44h-4.92c-1.97,0-3.44-1.48-3.44-3.44v-2.46c-.49-1.97,1.48-3.44,3.44-3.44"/><path class="cls-1" d="M378.91,284.92h4.92c1.97,0,3.44,1.48,3.44,3.44v2.46c0,1.97-1.48,3.44-3.44,3.44h-4.92c-1.97,0-3.44-1.48-3.44-3.44v-2.46c0-1.97,1.48-3.44,3.44-3.44"/><path class="cls-1" d="M364.15,296.73h4.92c1.97,0,3.44,1.48,3.44,3.44v2.46c0,1.97-1.48,3.44-3.44,3.44h-4.92c-1.97,0-3.44-1.48-3.44-3.44v-2.46c-.49-1.48,1.48-3.44,3.44-3.44"/><path class="cls-1" d="M374.49,300.67v2.95c0,1.48,.98,2.95,2.46,3.44,1.97-3.44,3.94-6.4,6.4-9.35h-5.91c-1.48,0-2.95,1.48-2.95,2.95"/><path class="cls-1" d="M364.15,308.54h4.92c1.97,0,3.44,1.48,3.44,3.44v2.46c0,1.97-1.48,3.44-3.44,3.44h-4.92c-1.97,0-3.44-1.48-3.44-3.44v-2.46c-.49-1.48,1.48-3.44,3.44-3.44"/><path class="cls-1" d="M371.04,321.34c-.49-.49-1.48-.98-2.46-.98h-4.43c-1.97,0-3.44,1.48-3.44,3.44v2.95c0,1.97,1.48,3.44,3.44,3.44h4.43c.49-2.95,1.48-6.4,2.46-8.86"/><path class="cls-1" d="M367.6,332.66h-3.94c-1.97,0-3.44,1.48-3.44,3.44v2.46c0,1.97,1.48,3.44,3.44,3.44h.98c1.48-2.95,2.46-6.4,2.95-9.35"/><path class="cls-1" d="M364.64,344.47h-.98c-1.97,0-3.44,1.48-3.44,3.44v2.95c0,1.48,.98,2.46,1.97,2.95,.98-2.95,1.48-6.4,2.46-9.35"/><path class="cls-1" d="M361.69,356.77c-.98,.49-1.48,1.48-1.48,2.95v2.95c.49-1.97,.98-3.94,1.48-5.91"/><path class="cls-1" d="M364.15,225.87h5.41c1.48,0,2.46,.98,2.46,2.46v4.43c0,1.48-.98,2.46-2.46,2.46h-5.41c-1.48,0-2.46-.98-2.46-2.46v-4.43c0-1.48,.98-2.46,2.46-2.46"/><path class="cls-1" d="M363.66,214.55h4.43c1.48,0,2.46,.98,2.46,2.46v3.94c0,1.48-.98,2.46-2.46,2.46h-4.43c-1.48,0-2.46-.98-2.46-2.46v-3.94c0-1.48,.98-2.46,2.46-2.46"/><path class="cls-1" d="M375.47,214.55h4.43c1.48,0,2.46,.98,2.46,2.46v3.94c0,1.48-.98,2.46-2.46,2.46h-4.43c-1.48,0-2.46-.98-2.46-2.46v-3.94c0-1.48,.98-2.46,2.46-2.46"/><path class="cls-1" d="M374.98,204.71h3.94c1.48,0,2.46,.98,2.46,2.46v3.44c0,1.48-.98,2.46-2.46,2.46h-3.94c-1.48,0-2.46-.98-2.46-2.46v-3.44c0-1.48,.98-2.46,2.46-2.46"/><path class="cls-1" d="M364.15,203.73h3.94c1.48,0,2.46,.98,2.46,2.46v3.44c0,1.48-.98,2.46-2.46,2.46h-3.94c-1.48,0-2.46-.98-2.46-2.46v-3.44c0-.98,.98-2.46,2.46-2.46"/><path class="cls-1" d="M363.17,194.38h2.95c1.48,0,2.46,.98,2.46,2.46v1.97c0,1.48-.98,2.46-2.46,2.46h-2.95c-1.48,0-2.46-.98-2.46-2.46v-1.97c0-1.48,1.48-2.46,2.46-2.46"/><path class="cls-1" d="M373.5,194.87h2.95c1.48,0,2.46,.98,2.46,2.46v1.97c0,1.48-.98,2.46-2.46,2.46h-2.95c-1.48,0-2.46-.98-2.46-2.46v-1.97c0-.98,.98-2.46,2.46-2.46"/><path class="cls-1" d="M371.53,185.52h1.97c1.48,0,2.46,.98,2.46,2.46v1.97c0,1.48-.98,2.46-2.46,2.46h-1.97c-1.48,0-2.46-.98-2.46-2.46v-1.97c0-1.48,1.48-2.46,2.46-2.46"/><path class="cls-1" d="M363.17,185.52h1.97c1.48,0,2.46,.98,2.46,2.46v1.97c0,1.48-.98,2.46-2.46,2.46h-1.97c-1.48,0-2.46-.98-2.46-2.46v-1.97c0-1.48,.98-2.46,2.46-2.46"/><path class="cls-1" d="M376.95,225.87h5.41c1.48,0,2.46,.98,2.46,2.46v4.43c0,1.48-.98,2.46-2.46,2.46h-5.41c-1.48,0-2.46-.98-2.46-2.46v-4.43c0-1.48,.98-2.46,2.46-2.46"/><path class="cls-1" d="M362.18,180.6h1.97c.49,0,.98,.49,.98,.98v.98c0,.49-.49,.98-.98,.98h-1.97c-.49,0-.98-.49-.98-.98v-.98c0-.49,.49-.98,.98-.98"/><path class="cls-1" d="M359.23,175.19h1.97c.49,0,.98,.49,.98,.98v.98c0,.49-.49,.98-.98,.98h-1.97c-.49,0-.98-.49-.98-.98v-.98c0-.49,.49-.98,.98-.98"/><path class="cls-1" d="M369.07,180.6h1.97c.49,0,.98,.49,.98,.98v.98c0,.49-.49,.98-.98,.98h-1.97c-.49,0-.98-.49-.98-.98v-.98c-.49-.49,0-.98,.98-.98"/><path class="cls-1" d="M365.14,175.19h1.97c.49,0,.98,.49,.98,.98v.98c0,.49-.49,.98-.98,.98h-1.97c-.49,0-.98-.49-.98-.98v-.98c0-.49,.49-.98,.98-.98"/><path class="cls-1" d="M361.69,170.27h.98c.49,0,.98,.49,.98,.98v.49c0,.49-.49,.98-.98,.98h-.98c-.49,0-.98-.49-.98-.98v-.49s.49-.98,.98-.98"/><path class="cls-1" d="M410.9,297.72c-4.92-5.41-13.29-6.4-19.19-2.46-2.95,2.95-5.41,5.91-7.87,9.35-3.94,6.4-7.38,13.29-9.35,20.18,0,.49-3.94,13.78-4.92,16.73,0,.49-1.97,8.37-2.95,11.81,0,.49-2.46,8.37-2.95,11.32-1.48,6.4-3.44,12.3-5.91,18.21,.98-4.43-.98-8.37-2.46-13.78-1.97-8.37-3.44-13.78-3.44-14.76-.49-2.95-7.38-37.4-9.84-45.27-2.46-10.33-5.91-20.18-10.33-29.53-.49-.49-3.94-7.38-5.41-9.84-4.92-7.87-10.83-15.25-18.7-20.67,5.91,6.89,13.29,31.99,14.76,42.32,2.95,13.29,4.43,27.07,5.41,40.84,.98,20.67,7.38,40.35,19.19,57.58,0,0,3.44,4.43,13.78,4.43,5.91,.49,11.32-1.48,15.26-5.41,4.43-4.92,7.87-10.83,10.33-17.22,3.44-9.84,4.92-20.18,4.92-30.51,.49-7.87,3.94-31,4.92-35.92,2.95,.98,5.91,2.46,8.86,3.94,5.91,2.95,11.32,7.38,14.27,13.29,1.48-8.86-1.97-18.21-8.37-24.6"/><path class="cls-1" d="M343.98,297.23h0c0,1.48,.98,2.95,.98,4.43v-1.97c0-.49-.49-2.46-.98-2.46"/></g></svg>