<?xml version="1.0" encoding="UTF-8"?><svg id="Capa_1" xmlns="http://www.w3.org/2000/svg" viewBox="0 0 467 568.37"><defs><style>.cls-1{fill:#eb6220;}.cls-2{fill:#fff;}</style></defs><path class="cls-1" d="M378.91,29.03v8.86c0,3.44,.98,4.92,3.94,4.92,2.46,0,3.94-1.97,3.94-4.43v-9.35c0-2.95-.98-4.92-3.94-4.92s-3.94,1.97-3.94,4.92m16.24,1.48v24.11c0,7.87-3.44,13.29-12.3,13.29-9.35,0-11.81-4.92-11.81-12.3v-2.46h7.87v3.44c0,2.95,.98,4.92,3.94,4.92s4.43-1.97,4.43-4.92v-10.83c-1.48,2.46-3.44,3.94-6.89,3.94-5.91,0-9.35-3.94-9.35-12.3v-7.38c0-7.87,3.44-12.79,12.3-12.79,8.37,0,11.81,5.91,11.81,13.29"/><path class="cls-1" d="M409.42,36.91c3.44,0,5.91,2.95,5.91,5.91,0,3.44-2.95,5.91-5.91,5.91-3.44,0-5.91-2.95-5.91-5.91s2.46-5.91,5.91-5.91"/><path class="cls-1" d="M429.6,53.15h7.38v-20.67l-7.38,20.67Zm-7.38,1.48l14.76-36.91h8.37V53.15h3.44v6.4h-3.44v8.37h-7.87v-8.37h-14.76v-4.92h-.49Z"/><path class="cls-1" d="M4.92,80.7H461.59V4.92H4.92V80.7Zm462.08,4.92H0V0H466.51V85.62h.49Z"/><polygon class="cls-1" points="16.73 17.72 38.88 17.72 38.88 24.6 32.48 24.6 32.48 67.91 23.62 67.91 23.62 24.6 16.73 24.6 16.73 17.72"/><path class="cls-1" d="M49.21,52.16h6.89l-3.44-20.18-3.44,20.18Zm-10.33,15.75l9.35-50.19h9.35l9.84,50.19h-8.86l-1.48-9.35h-8.86l-1.48,9.35h-7.87Z"/><path class="cls-1" d="M80.21,24.6v15.75h2.95c2.95,0,3.94-1.48,3.94-3.94v-7.38c0-2.95-1.48-3.94-3.94-3.94h-2.95v-.49Zm0,20.18v23.13h-8.37V17.72h12.3c8.37,0,11.81,4.43,11.81,11.32v6.4c0,5.41-1.97,8.37-6.89,9.84l7.87,22.64h-8.86l-7.87-23.13Z"/><path class="cls-1" d="M113.67,41.34h11.81v26.57h-5.91v-5.41c-.98,3.94-3.44,5.91-7.87,5.91-7.38,0-10.33-5.91-10.33-13.29V31c0-7.87,3.94-13.29,12.79-13.29,9.35,0,11.81,5.41,11.81,12.79v4.43h-7.87v-4.92c0-2.95-.98-4.92-4.43-4.92-2.95,0-4.43,1.97-4.43,4.92v27.07c0,2.95,1.48,4.92,3.94,4.92,2.95,0,3.94-1.48,3.94-4.92v-9.35h-3.94v-6.4h.49Z"/><polygon class="cls-1" points="132.37 17.72 152.55 17.72 152.55 24.6 140.74 24.6 140.74 38.88 149.11 38.88 149.11 45.77 140.74 45.77 140.74 61.02 152.55 61.02 152.55 67.91 132.37 67.91 132.37 17.72"/><polygon class="cls-1" points="156.49 17.72 178.63 17.72 178.63 24.6 171.74 24.6 171.74 67.91 163.38 67.91 163.38 24.6 156.49 24.6 156.49 17.72"/><g><rect class="cls-1" x="0" y="101.86" width="466.51" height="466.51"/><path class="cls-2" d="M320.36,429.11c-9.84-7.38-21.65-11.32-33.95-11.32-2.95,0-5.41,0-8.37,.98h-.98c-7.87,1.97-21.65,4.92-37.4,24.6v.49c-.49,.49-.49,.98-.49,.98,0,.49,0,.98,.49,.98l.49,.49c2.46,4.43,4.92,8.37,6.4,11.32,.49,.98,1.97,1.48,2.95,.98l.49-.49,.49-.49c13.78-18.7,24.11-21.16,31-23.13h.98c1.48-.49,2.95-.49,4.43-.49,8.37,0,16.73,2.46,23.62,7.38,7.87,6.4,11.81,16.24,11.81,29.53,0,22.64-10.83,31-20.18,34.45-3.44,1.48-7.38,1.97-11.32,1.97-5.91,0-11.32-1.48-16.73-3.94l-.49-.49c-7.87-3.44-19.68-10.33-30.51-32.97-23.13-43.8-41.83-48.23-54.62-51.18h-.49c-2.46-.49-5.41-.98-8.37-.98-12.3,0-23.62,3.44-33.46,10.83-8.37,6.4-18.21,19.19-18.21,42.81-1.48,27.56,19.19,50.69,46.75,52.65h3.94c3.94,0,7.87-.49,11.32-.98,7.38-1.48,13.78-4.43,19.68-8.86l6.4,5.91c.98,.49,1.97,.49,2.46,0,.49-.49,.49-.98,.49-1.48l4.92-31.49v-.49c0-.49,0-.98-.49-1.48-.49-.49-.98-.49-1.48-.49l-31,8.37h-.49c-.49,0-.49,.49-.98,.49-.49,.49-.49,.98-.49,1.48s.49,.98,.49,1.48l6.4,5.91c-2.95,1.97-6.4,3.44-9.84,3.94-2.46,.49-5.41,.98-8.37,.98-10.33,0-19.68-4.43-26.08-12.3-5.41-6.89-7.87-15.25-6.89-23.62,0-13.29,3.94-23.62,11.81-29.53,6.89-4.92,14.76-7.38,23.13-7.38,1.48,0,2.95,0,4.43,.49h.49c9.84,2.46,23.62,5.41,42.81,43.8,9.84,20.18,22.64,33.46,38.88,40.35,7.87,3.44,16.24,5.41,24.6,5.91,5.91,0,11.81-.98,17.22-2.95,9.35-3.44,31-15.25,31-50.19-.49-23.13-10.33-35.92-18.7-42.81"/><path class="cls-2" d="M154.52,158.95c-10.33,.49-18.21,8.86-17.72,18.7,.49,10.33,8.86,18.21,18.7,17.72,9.84-.49,18.21-8.37,17.72-18.7,0-9.84-8.37-17.72-18.7-17.72"/><path class="cls-2" d="M185.52,175.19h-7.87c-.98,0-1.48,.49-1.48,1.48s.49,1.48,1.48,1.48h7.87c.98,0,1.48-.49,1.48-1.48s-.49-1.48-1.48-1.48"/><path class="cls-2" d="M133.85,177.65c0-.98-.49-1.48-1.48-1.48h-7.87c-.98,0-1.48,.49-1.48,1.48s.49,1.48,1.48,1.48h7.87c.98,0,1.48-.49,1.48-1.48"/><path class="cls-2" d="M154.52,155.99c.98,0,1.48-.49,1.48-1.48v-7.87c0-.98-.49-1.48-1.48-1.48s-1.48,.49-1.48,1.48v7.87c0,.98,.98,1.48,1.48,1.48"/><path class="cls-2" d="M155.5,198.31c-.98,0-1.48,.49-1.48,1.48v7.87c0,.98,.98,1.48,1.48,1.48,.98,0,1.48-.49,1.48-1.48v-7.87c0-.98-.49-1.48-1.48-1.48"/><path class="cls-2" d="M175.19,166.82l6.89-3.94c.49-.49,.98-1.48,.49-1.97-.49-.49-1.48-.98-1.97-.49l-6.89,3.94c-.49,.49-.98,1.48-.49,1.97,.49,.49,.98,.98,1.97,.49"/><path class="cls-2" d="M135.33,187.49l-6.89,3.94c-.49,.49-.98,1.48-.49,1.97,.49,.49,1.48,.98,1.97,.49l6.89-3.94c.49-.49,.98-1.48,.49-1.97-.49-.49-1.48-.98-1.97-.49"/><path class="cls-2" d="M142.22,158.95c.49,.49,1.48,.98,1.97,.49,.49-.49,.98-1.48,.49-1.97l-3.94-6.89c-.49-.49-1.48-.49-1.97,0-.49,.49-.49,.98-.49,1.48l3.94,6.89Z"/><path class="cls-2" d="M167.81,195.85c-.49-.49-1.48-.98-1.97-.49-.49,.49-.98,1.48-.49,1.97l3.94,6.89c.49,.49,1.48,.98,1.97,.49,.49-.49,.98-1.48,.49-1.97l-3.94-6.89Z"/><path class="cls-2" d="M167.31,157.96l3.44-6.89c.49-.49,0-1.48-.49-1.97-.49-.49-1.48,0-1.97,.49l-3.94,6.89c-.49,.49,0,1.48,.49,1.97,.98,.49,1.97,.49,2.46-.49"/><path class="cls-2" d="M143.2,196.35l-3.94,6.89c-.49,.49,0,1.48,.49,1.97,.49,.49,1.48,0,1.97-.49l3.94-6.89c.49-.49,0-1.48-.49-1.97-.49-.49-1.48-.49-1.97,.49"/><path class="cls-2" d="M134.83,167.81c.49,.49,1.48,0,1.97-.49,.49-.49,0-1.48-.49-1.97l-6.89-3.94c-.49-.49-1.48,0-1.97,.49-.49,.49,0,1.48,.49,1.97l6.89,3.94Z"/><path class="cls-2" d="M175.68,186.5c-.49-.49-1.48,0-1.97,.49-.49,.49,0,1.48,.49,1.97l6.89,3.94c.98,0,1.48-.49,1.97-.98,0-.49,0-.98-.49-1.48l-6.89-3.94Z"/><path class="cls-2" d="M213.08,237.19l2.95-20.67-7.38,2.95-4.43-11.81c-.49-1.48-1.97-1.97-3.44-1.48-1.48,.49-1.97,1.97-1.48,3.44l4.43,11.81-7.38,2.95,16.73,12.79Z"/><path class="cls-2" d="M186.5,227.97l-7.38,2.93-4.43-11.25c-.49-1.47-1.97-1.96-3.44-1.47-1.48,.49-1.97,1.96-1.48,3.43l4.43,11.25-7.38,2.94,16.24,12.72,3.44-20.55Z"/><path class="cls-2" d="M156.49,240.14l-7.38,2.95-4.43-11.81c-.49-1.48-1.97-1.97-3.44-1.48s-1.97,1.97-1.48,3.44l4.43,11.81-7.38,2.95,16.24,12.79,3.44-20.67Z"/><path class="cls-2" d="M349.88,333.64l10.83-23.13v46.26l-10.83-23.13Zm-14.27,31.99l12.3-26.57,11.81,26.08-24.11,.49Zm-1.48-7.38v-48.72l11.32,24.11-11.32,24.6Zm0-115.64l11.32,24.6-11.32,24.6v-49.21Zm25.1-6.4l-11.32,24.6-11.32-25.1,22.64,.49Zm0,66.93l-11.32,25.1-11.32-25.1h22.64Zm-23.13-4.92l11.81-26.08,11.81,25.59-23.62,.49Zm24.6-54.62v46.26l-10.83-23.13,10.83-23.13Zm-43.3,90.05l11.81-26.08v51.67l-11.81-25.59Zm-14.27,31.99l11.81-26.08,11.81,26.08h-23.62Zm-4.92-62.5h0l14.27,30.51-14.27,31.49v-62Zm0-67.42l14.27,31-14.27,31.49v-62.5Zm28.05,.49l-11.32,25.1-11.32-25.1h22.64Zm0,66.93l-11.32,25.1-11.32-25.1h22.64Zm-23.13-4.92l11.81-26.08,11.81,26.08h-23.62Zm26.08-57.58v51.67l-11.81-25.59,11.81-26.08Zm-41.83,87.59c0,.98-.98,1.97-1.97,1.97h-31.99c-.98,0-1.97-.98-1.97-1.97v-17.22c0-.98,.98-1.97,1.97-1.97h31.99c.98,0,1.97,.98,1.97,1.97v17.22Zm0,32.48c0,.98-.98,1.97-1.97,1.97h-31.99c-.98,0-1.97-.98-1.97-1.97v-17.22c0-.98,.98-1.97,1.97-1.97h31.99c.98,0,1.97,.98,1.97,1.97v17.22Zm-46.75-32.48c0,.98-.98,1.97-1.97,1.97h-31.99c-.98,0-1.48-.98-1.48-1.97v-17.22c0-.98,.98-1.97,1.97-1.97h31.99c.98,0,1.97,.98,1.97,1.97l-.49,17.22Zm0,32.48c0,.98-.98,1.97-1.97,1.97h-31.99c-.98,0-1.97-.98-1.97-1.97v-17.22c0-.98,.98-1.97,1.97-1.97h31.99c.98,0,1.97,.98,1.97,1.97v17.22Zm-46.26-32.48c0,.98-.98,1.97-1.97,1.97h-31.99c-.98,0-1.97-.98-1.97-1.97v-17.22c0-.98,.98-1.97,1.97-1.97h31.99c.98,0,1.97,.98,1.97,1.97v17.22Zm0,32.48c0,.98-.98,1.97-1.97,1.97h-31.99c-.98,0-1.97-.98-1.97-1.97v-17.22c0-.98,.98-1.97,1.97-1.97h31.99c.98,0,1.97,.98,1.97,1.97v17.22Zm-46.75-32.48c0,.98-.98,1.97-1.97,1.97h-32.48c-.98,0-1.97-.49-1.97-1.48v-17.22c0-.98,.98-1.97,1.97-1.97h32.97c.98,0,1.97,.98,1.97,1.97l-.49,16.73Zm218-110.72h-4.92v13.78h-26.57v-13.78h-4.92v13.78h-32.97l-192.9,63.97c-.98,0-1.97,.98-1.97,1.97v93.5h10.33v-47.24c0-.98,.98-1.97,1.97-1.97h32.48c.98,0,1.97,.98,1.97,1.97v47.24h148.61c.98,0,1.48-.49,1.48-1.48v-19.19l31.49-.49v21.16h4.92v-21.16h26.57v21.16h4.92l-.49-173.22Z"/><path class="cls-2" d="M102.36,285.91l189.46-62.99c.98-.49,1.48,0,1.97,.98l.98,2.46c.49,.98,0,1.48-.98,1.97l-189.46,62.99c-.98,.49-1.48,0-1.97-.98l-.98-2.46c0-.98,.49-1.48,.98-1.97"/></g></svg>