<?xml version="1.0" encoding="UTF-8"?><svg id="Capa_1" xmlns="http://www.w3.org/2000/svg" viewBox="0 0 467 568.37"><defs><style>.cls-1{fill:#0096d6;}.cls-2{fill:#fff;}</style></defs><path class="cls-1" d="M4.92,80.7H461.59V4.92H4.92V80.7Zm462.08,4.92H0V0H466.51V85.62h.49Z"/><polygon class="cls-1" points="16.73 17.72 38.88 17.72 38.88 24.6 32.48 24.6 32.48 67.91 23.62 67.91 23.62 24.6 16.73 24.6 16.73 17.72"/><path class="cls-1" d="M49.21,52.16h6.89l-3.44-20.18-3.44,20.18Zm-10.33,15.75l9.35-50.19h9.35l9.84,50.19h-8.86l-1.48-9.35h-8.86l-1.48,9.35h-7.87Z"/><path class="cls-1" d="M80.21,24.6v15.75h2.95c2.95,0,3.94-1.48,3.94-3.94v-7.38c0-2.95-1.48-3.94-3.94-3.94h-2.95v-.49Zm0,20.18v23.13h-8.37V17.72h12.3c8.37,0,11.81,4.43,11.81,11.32v6.4c0,5.41-1.97,8.37-6.89,9.84l7.87,22.64h-8.86l-7.87-23.13Z"/><path class="cls-1" d="M113.67,41.34h11.81v26.57h-5.91v-5.41c-.98,3.94-3.44,5.91-7.87,5.91-7.38,0-10.33-5.91-10.33-13.29V31c0-7.87,3.94-13.29,12.79-13.29,9.35,0,11.81,5.41,11.81,12.79v4.43h-7.87v-4.92c0-2.95-.98-4.92-4.43-4.92-2.95,0-4.43,1.97-4.43,4.92v27.07c0,2.95,1.48,4.92,3.94,4.92,2.95,0,3.94-1.48,3.94-4.92v-9.35h-3.94v-6.4h.49Z"/><polygon class="cls-1" points="132.37 17.72 152.55 17.72 152.55 24.6 140.74 24.6 140.74 38.88 149.11 38.88 149.11 45.77 140.74 45.77 140.74 61.02 152.55 61.02 152.55 67.91 132.37 67.91 132.37 17.72"/><polygon class="cls-1" points="156.49 17.72 178.63 17.72 178.63 24.6 171.74 24.6 171.74 67.91 163.38 67.91 163.38 24.6 156.49 24.6 156.49 17.72"/><path class="cls-1" d="M431.08,52.16h6.89l-3.44-20.18-3.44,20.18Zm-10.33,15.75l9.35-50.19h9.35l9.35,50.19h-8.86l-1.48-9.35h-8.86l-1.48,9.35h-7.38Z"/><polygon class="cls-1" points="361.69 17.72 361.69 67.91 353.33 67.91 353.33 29.53 347.42 35.43 347.42 27.07 355.29 18.21 361.69 18.21 361.69 17.72"/><path class="cls-1" d="M374.49,53.15h7.87v-20.67l-7.87,20.67Zm-7.38,1.48l14.76-36.91h8.37V53.15h3.44v6.4h-3.44v8.37h-7.87v-8.37h-14.76v-4.92h-.49Z"/><polygon class="cls-1" points="404.01 32.48 404.01 53.15 414.84 42.81 404.01 32.48"/><g><rect class="cls-1" x="0" y="101.86" width="466.51" height="466.51"/><polygon class="cls-2" points="122.53 339.55 133.85 379.41 145.17 339.55 122.53 339.55"/><path class="cls-2" d="M144.68,166.82c0-6.4-4.92-11.32-11.32-11.32s-11.32,4.92-11.32,11.32v167.31h22.64V166.82Z"/><path class="cls-2" d="M252.94,235.22v-65.94h31v65.94l24.6,45.77c-5.41,8.37-22.14,31.99-41.83,36.42-16.24,3.44-43.3-6.4-52.16-9.35l38.38-72.83Zm56.1,95.96c-3.94,0-6.89-2.95-6.89-6.89s2.95-6.89,6.89-6.89,6.89,2.95,6.89,6.89-2.95,7.38-6.89,6.89q0,.49,0,0m-30.02,16.24c0-6.4,5.41-11.32,11.32-11.32s11.32,5.41,11.32,11.32c0,6.4-5.41,11.32-11.32,11.32-5.91,.49-11.32-4.92-11.32-11.32m78.24,12.79l-67.42-126.47v-64.46h7.87c1.97,0,3.94-1.97,3.94-3.94v-5.91c0-1.97-1.97-3.94-3.94-3.94h-59.05c-1.97,0-3.94,1.97-3.94,3.94v5.91c0,1.97,1.48,3.94,3.94,3.94h7.87v64.46l-66.93,126.47c-3.44,5.91-1.48,13.78,4.43,17.72,1.97,.98,4.43,1.97,6.4,1.97h155.5c6.89,0,12.79-5.41,12.79-12.79,0-2.46-.49-4.92-1.48-6.89"/><path class="cls-2" d="M420.74,431.08h0l-1.48,.49c-27.07,14.76-60.53,9.84-82.67-11.32-.49-.49-.98-.98-1.97-.98s-.98,.49-1.97,.98c-9.84,7.87-56.1,38.88-97.44,.49l-.49-.49c-.49-.49-.98-.49-1.48-.49s-.98,0-1.48,.49l-.49,.49c-40.84,38.38-87.1,6.89-97.44-.49-.49-.49-.98-.98-1.97-.98s-1.48,.49-1.97,.98c-22.14,21.65-55.61,26.08-82.67,11.81l-.98-.49h-.49c-1.48,0-2.46,.98-2.46,2.46v16.24c0,.49,.49,.98,.49,1.48,38.88,33.95,75.78,1.97,84.15-6.4q.49-.49,.98-.98c.49,0,.49-.49,.98-.49s.98,.49,1.48,.49c43.8,41.83,90.05,7.87,99.4,0l.98-.98c0-.49,.49-.49,.98-.49s.49,0,.98,.49l.98,.98c9.84,7.87,55.61,41.83,99.4,0,.49-.49,.98-.49,1.48-.49s.98,0,1.48,.49c.49,0,.49,.49,.49,.49,8.37,8.37,45.27,39.86,84.15,6.4,.49-.49,.49-.98,.49-1.48v-16.24c.98-1.48-.49-2.46-1.48-2.46"/><path class="cls-2" d="M420.74,480.29h0l-1.48,.49c-11.81,5.91-49.21,20.18-82.67-11.81-.49-.49-.98-.98-1.97-.98s-.98,.49-1.97,.98c-9.84,7.87-56.1,38.88-97.44,.49l-.49-.49c-.49-.49-.98-.49-1.48-.49s-.98,0-1.48,.49l-.49,.49c-40.84,38.38-87.1,6.89-97.44-.49-.49-.49-.98-.98-1.97-.98s-1.48,.49-1.97,.98c-33.46,31.99-70.86,17.72-82.67,11.81-.49,0-.98-.49-.98-.49h-.49c-1.48,0-2.46,.98-2.46,2.46v16.24c0,.49,.49,.98,.49,1.48,38.88,33.95,75.78,1.97,84.15-6.4,0-.49,.49-.49,.98-.98,.49,0,.49-.49,.98-.49s1.48,.49,1.48,.98c43.8,41.83,90.05,7.87,99.4,0l.98-.98s.49-.49,.98-.49,.49,0,.98,.49l.98,.98c9.84,7.87,55.61,41.83,99.4,0,.49-.49,.98-.49,1.48-.49s.98,0,1.48,.49c.49,0,.49,.49,.49,.49,8.37,8.37,45.27,39.86,84.15,6.4,.49-.49,.49-.98,.49-1.48v-16.24c.98-1.48-.49-2.46-1.48-2.46"/></g></svg>