<?xml version="1.0" encoding="UTF-8"?><svg id="Capa_1" xmlns="http://www.w3.org/2000/svg" viewBox="0 0 467 568.37"><defs><style>.cls-1{fill:#fff;}.cls-2{fill:#24a038;}</style></defs><path class="cls-2" d="M4.92,80.7H461.59V4.92H4.92V80.7Zm462.08,4.92H0V0H466.51V85.62h.49Z"/><polygon class="cls-2" points="16.73 17.72 38.88 17.72 38.88 24.6 32.48 24.6 32.48 67.91 23.62 67.91 23.62 24.6 16.73 24.6 16.73 17.72"/><path class="cls-2" d="M49.21,52.16h6.89l-3.44-20.18-3.44,20.18Zm-10.33,15.75l9.35-50.19h9.35l9.84,50.19h-8.86l-1.48-9.35h-8.86l-1.48,9.35h-7.87Z"/><path class="cls-2" d="M80.21,24.6v15.75h2.95c2.95,0,3.94-1.48,3.94-3.94v-7.38c0-2.95-1.48-3.94-3.94-3.94h-2.95v-.49Zm0,20.18v23.13h-8.37V17.72h12.3c8.37,0,11.81,4.43,11.81,11.32v6.4c0,5.41-1.97,8.37-6.89,9.84l7.87,22.64h-8.86l-7.87-23.13Z"/><path class="cls-2" d="M113.67,41.34h11.81v26.57h-5.91v-5.41c-.98,3.94-3.44,5.91-7.87,5.91-7.38,0-10.33-5.91-10.33-13.29V31c0-7.87,3.94-13.29,12.79-13.29,9.35,0,11.81,5.41,11.81,12.79v4.43h-7.87v-4.92c0-2.95-.98-4.92-4.43-4.92-2.95,0-4.43,1.97-4.43,4.92v27.07c0,2.95,1.48,4.92,3.94,4.92,2.95,0,3.94-1.48,3.94-4.92v-9.35h-3.94v-6.4h.49Z"/><polygon class="cls-2" points="132.37 17.72 152.55 17.72 152.55 24.6 140.74 24.6 140.74 38.88 149.11 38.88 149.11 45.77 140.74 45.77 140.74 61.02 152.55 61.02 152.55 67.91 132.37 67.91 132.37 17.72"/><polygon class="cls-2" points="156.49 17.72 178.63 17.72 178.63 24.6 171.74 24.6 171.74 67.91 163.38 67.91 163.38 24.6 156.49 24.6 156.49 17.72"/><path class="cls-2" d="M432.06,45.27v15.75h3.94c2.95,0,3.94-1.48,3.94-3.94v-7.38c0-2.46-1.48-3.94-4.43-3.94h-3.44v-.49Zm0-6.4h2.95c2.95,0,3.94-1.48,3.94-3.94v-5.91c0-2.95-1.48-3.94-3.94-3.94h-2.95v13.78Zm-8.37-21.16h12.3c8.37,0,11.32,3.94,11.32,10.83v4.92c0,4.43-1.48,6.89-4.92,7.87,4.43,.98,6.4,3.94,6.4,8.37v6.4c0,6.89-2.95,10.83-11.81,10.83h-13.29V17.72Z"/><path class="cls-2" d="M392.69,28.54v4.43c0,4.43-2.46,6.89-5.91,8.37,4.43,.98,6.4,3.94,6.4,8.37v7.38c0,6.89-3.94,11.32-12.3,11.32s-11.81-4.92-11.81-12.3v-6.4h7.87v7.38c0,2.95,.98,4.92,3.94,4.92,2.46,0,3.94-1.97,3.94-4.43v-8.37c0-2.46-.98-3.94-3.94-3.94h-3.44v-6.4h2.95c2.95,0,4.43-1.48,4.43-3.94v-6.4c0-2.95-.98-4.43-3.44-4.43s-3.94,1.97-3.94,4.92v4.92h-7.87v-4.43c0-7.38,2.95-12.79,11.81-12.79,7.87,.49,11.32,4.92,11.32,11.81"/><polygon class="cls-2" points="404.01 32.48 404.01 53.15 414.84 42.81 404.01 32.48"/><g><rect class="cls-2" x="0" y="101.86" width="466.51" height="466.51"/><path class="cls-1" d="M123.52,170.27c0-.98,.49-1.97,.98-2.46,.49-.49,1.48-.98,2.46-.98h35.92v53.64h-35.43c-1.97,0-3.44-1.48-3.44-3.44l-.49-46.75Zm60.53,.49c0-1.48,.98-2.46,2.46-2.46s2.46,.98,2.46,2.46v14.76c0,1.48-.98,2.46-1.97,2.46-1.48,0-2.46-.98-2.46-2.46l-.49-14.76Zm24.6,0c0-1.48,.98-2.46,2.46-2.46s2.46,.98,2.46,2.46v14.76c0,1.48-.98,2.46-2.46,2.46s-2.46-.98-2.46-2.46v-14.76Zm24.6,0c0-1.48,.98-2.46,2.46-2.46s2.46,.98,2.46,2.46v14.76c0,1.48-.98,2.46-2.46,2.46s-2.46-.98-2.46-2.46v-14.76Zm24.6,0c0-1.48,.98-2.46,2.46-2.46s2.46,.98,2.46,2.46v14.76c0,1.48-.98,2.46-2.46,2.46s-2.46-.98-2.46-2.46v-14.76Zm23.62,0c0-1.48,.98-2.46,2.46-2.46s2.46,.98,2.46,2.46v14.76c0,1.48-.98,2.46-2.46,2.46s-2.46-.98-2.46-2.46v-14.76Zm-161.41,45.76c0,3.94,3.44,7.38,7.38,7.38h178.14c3.94,0,7.38-3.44,7.38-7.38v-12.79h12.79c1.48,0,2.95-.98,2.95-2.46v-6.4h35.92c.49,0,1.48-.49,1.48-.98s-.49-1.48-.98-1.48h-35.92v-6.89c0-1.48-.98-2.46-2.95-2.46h-13.29v-12.79c0-1.97-.98-3.44-1.97-4.92-1.48-1.48-3.44-1.97-5.41-1.97H127.45c-3.94,0-7.38,3.44-7.38,7.38v14.27h-32.48v-17.22c0-1.48-.98-2.46-2.46-2.46h-3.44c-1.48,0-2.95,.98-2.95,2.46v51.67c0,1.48,.98,2.46,2.46,2.46h3.44c1.48,0,2.95-.98,2.95-2.46v-18.21h32.48v15.25Z"/><g><path class="cls-1" d="M404.5,303.62l-56.1,24.6c7.87,14.76,26.57,20.67,41.34,12.79,13.78-6.89,19.68-23.13,14.76-37.4"/><path class="cls-1" d="M363.17,285.42c-14.76,6.4-22.14,23.13-16.73,38.38l56.1-24.6c-7.38-14.27-24.6-20.18-39.37-13.78"/></g><g><path class="cls-1" d="M291.81,390.23c12.3,9.84,30.51,8.86,41.34-2.95l-47.73-38.38c-8.86,13.29-6.4,31,6.4,41.34"/><path class="cls-1" d="M330.2,342.5c-12.3-10.33-30.51-8.86-41.83,2.95l47.73,38.38c9.35-13.29,6.89-31.49-5.91-41.34"/></g><g><path class="cls-1" d="M396.63,371.53l-38.38,47.73c14.27,9.35,32.97,5.91,42.81-8.37,8.37-12.3,6.4-29.03-4.43-39.37"/><path class="cls-1" d="M351.85,374.49c-10.33,12.3-8.86,30.51,2.95,41.83l38.38-47.73c-13.29-8.86-31.49-6.4-41.34,5.91"/></g><polygon class="cls-1" points="60.53 469.46 71.85 507.84 82.67 469.46 60.53 469.46"/><path class="cls-1" d="M82.67,293.78c.49-5.91-3.94-11.32-10.33-11.81-6.4-.49-11.32,3.94-11.81,10.33v171.74h21.65v-170.27h.49Z"/><path class="cls-1" d="M163.38,298.21h55.61c2.46,0,3.94-1.97,3.94-3.94v-4.92c0-2.46-1.97-3.94-3.94-3.94h-55.61c-2.46,0-3.94,1.97-3.94,3.94v4.92c-.49,1.97,1.48,3.94,3.94,3.94"/><path class="cls-1" d="M212.09,465.52c5.91,0,10.83,4.92,10.83,10.83s-4.92,10.83-10.83,10.83-10.83-4.92-10.83-10.83,4.92-10.83,10.83-10.83m17.72-17.72c3.44,0,6.4,2.95,6.4,6.89s-2.95,6.4-6.4,6.4-6.4-2.95-6.4-6.89c-.49-3.44,2.46-6.4,6.4-6.4m45.77,40.84l-63.97-108.75v-81.69h-4.92v83.16l20.18,34.45c-5.41,6.89-24.11,29.03-37.4,31.49-15.75,2.95-41.34-2.95-49.21-5.41l35.43-60.53v-83.16h-4.92v81.69l-63.97,108.75c-1.97,3.44-1.97,8.37,0,11.81,1.97,3.94,5.91,5.91,10.33,5.91h148.12c6.4,0,11.81-5.41,11.81-11.81,0-1.97-.49-3.94-1.48-5.91"/></g></svg>