<?xml version="1.0" encoding="UTF-8"?><svg id="Capa_1" xmlns="http://www.w3.org/2000/svg" viewBox="0 0 467 568.37"><defs><style>.cls-1{fill:#eb6220;}.cls-2{fill:#fff;}</style></defs><path class="cls-1" d="M4.92,80.7H461.59V4.92H4.92V80.7Zm462.08,4.92H0V0H466.51V85.62h.49Z"/><polygon class="cls-1" points="16.73 17.72 38.88 17.72 38.88 24.6 32.48 24.6 32.48 67.91 23.62 67.91 23.62 24.6 16.73 24.6 16.73 17.72"/><path class="cls-1" d="M49.21,52.16h6.89l-3.44-20.18-3.44,20.18Zm-10.33,15.75l9.35-50.19h9.35l9.84,50.19h-8.86l-1.48-9.35h-8.86l-1.48,9.35h-7.87Z"/><path class="cls-1" d="M80.21,24.6v15.75h2.95c2.95,0,3.94-1.48,3.94-3.94v-7.38c0-2.95-1.48-3.94-3.94-3.94h-2.95v-.49Zm0,20.18v23.13h-8.37V17.72h12.3c8.37,0,11.81,4.43,11.81,11.32v6.4c0,5.41-1.97,8.37-6.89,9.84l7.87,22.64h-8.86l-7.87-23.13Z"/><path class="cls-1" d="M113.67,41.34h11.81v26.57h-5.91v-5.41c-.98,3.94-3.44,5.91-7.87,5.91-7.38,0-10.33-5.91-10.33-13.29V31c0-7.87,3.94-13.29,12.79-13.29,9.35,0,11.81,5.41,11.81,12.79v4.43h-7.87v-4.92c0-2.95-.98-4.92-4.43-4.92-2.95,0-4.43,1.97-4.43,4.92v27.07c0,2.95,1.48,4.92,3.94,4.92,2.95,0,3.94-1.48,3.94-4.92v-9.35h-3.94v-6.4h.49Z"/><polygon class="cls-1" points="132.37 17.72 152.55 17.72 152.55 24.6 140.74 24.6 140.74 38.88 149.11 38.88 149.11 45.77 140.74 45.77 140.74 61.02 152.55 61.02 152.55 67.91 132.37 67.91 132.37 17.72"/><polygon class="cls-1" points="156.49 17.72 178.63 17.72 178.63 24.6 171.74 24.6 171.74 67.91 163.38 67.91 163.38 24.6 156.49 24.6 156.49 17.72"/><path class="cls-1" d="M380.39,29.03v8.86c0,3.44,.98,4.92,3.94,4.92,2.46,0,3.94-1.97,3.94-4.43v-9.35c0-2.95-.98-4.92-3.94-4.92s-3.94,1.97-3.94,4.92m16.24,1.48v24.11c0,7.87-3.44,13.29-12.3,13.29-9.35,0-11.81-4.92-11.81-12.3v-2.46h7.87v3.44c0,2.95,.98,4.92,3.94,4.92s4.43-1.97,4.43-4.92v-10.83c-1.48,2.46-3.44,3.94-6.89,3.94-5.91,0-9.35-3.94-9.35-12.3v-7.38c0-7.87,3.44-12.79,12.3-12.79,8.37,0,11.81,5.91,11.81,13.29"/><path class="cls-1" d="M410.9,36.91c3.44,0,5.91,2.95,5.91,5.91,0,3.44-2.95,5.91-5.91,5.91-3.44,0-5.91-2.95-5.91-5.91s2.46-5.91,5.91-5.91"/><path class="cls-1" d="M447.81,28.54v4.43c0,4.43-2.46,6.89-5.91,8.37,4.43,.98,6.4,3.94,6.4,8.37v7.38c0,6.89-3.94,11.32-12.3,11.32s-11.81-4.92-11.81-12.3v-6.4h7.87v7.38c0,2.95,.98,4.92,3.94,4.92,2.46,0,3.94-1.97,3.94-4.43v-8.37c0-2.46-.98-3.94-3.94-3.94h-3.44v-6.4h2.95c2.95,0,4.43-1.48,4.43-3.94v-5.91c0-2.95-.98-4.43-3.44-4.43s-3.44,1.97-3.44,4.92v4.92h-7.87v-4.43c0-7.38,2.95-12.79,11.81-12.79,7.38,0,10.83,4.43,10.83,11.32"/><g><rect class="cls-1" x="0" y="101.86" width="466.51" height="466.51"/><path class="cls-2" d="M383.84,279.02c0,6.4,4.92,11.32,11.32,11.32s11.32-4.92,11.32-11.32-4.92-11.32-11.32-11.32c-5.91,0-11.32,4.92-11.32,11.32"/><path class="cls-2" d="M418.77,304.61s-3.44-8.86-10.83-8.86h-24.11c-7.38,0-10.83,8.86-10.83,8.86l-10.33,31s-1.48,5.91,2.95,6.89c4.43,.98,6.4-3.94,6.4-3.94l7.87-26.08s.49-1.97,1.97-1.48c1.48,.49,.98,2.46,.98,2.46l-13.29,48.23h12.3v34.45c.49,3.44,3.44,5.91,6.4,5.41,2.95-.49,5.41-2.46,5.41-5.41v-34.45h3.44v34.45c0,3.44,2.46,5.91,5.91,5.91s5.91-2.46,5.91-5.91v-34.45h12.79l-13.29-48.23s-.49-1.97,.98-2.46,1.97,1.48,1.97,1.48l7.87,26.08s1.48,5.41,6.4,3.94c4.92-1.48,2.95-6.89,2.95-6.89l-9.84-31Z"/><path class="cls-2" d="M307.56,275.08c0,6.4,5.41,11.81,11.81,11.81s11.81-5.41,11.81-11.81-5.41-11.81-11.81-11.81c-6.89,0-11.81,4.92-11.81,11.81"/><path class="cls-2" d="M333.15,291.32h-27.56c-8.37,.98-14.27,7.38-14.27,15.75v32.97c.49,2.46,2.46,4.43,4.92,3.94,1.97,0,3.94-1.97,3.94-3.94v-28.05c0-.98,.49-2.46,2.46-2.46s1.48,1.48,1.48,2.46v84.64c0,3.44,2.95,6.4,6.4,6.4s6.4-2.95,6.4-6.4v-48.72c0-.98,.49-1.97,1.48-1.97s1.97,.49,1.97,1.48v49.21c.49,3.44,3.44,6.4,7.38,5.91,3.44-.49,5.91-2.95,5.91-5.91v-85.13c0-.98,.49-2.46,1.48-2.46s1.97,1.48,1.97,2.46v28.05c.49,2.46,2.46,4.43,4.92,3.94,1.97,0,3.94-1.97,3.94-3.94v-32.97c1.48-7.38-4.92-14.27-12.79-15.26"/><path class="cls-2" d="M357.26,462.57l-14.27-10.33c-.98-.98-2.95-.98-3.94,0-41.83,53.15-116.13,61.51-170.27,21.16-1.48-.98-3.44-2.46-4.92-3.94l15.25-10.33c1.48-.98-.49-1.97-.49-1.97l-54.13-25.1c-1.97-.98-1.97,0-1.97,.98v.49l1.97,60.53c0,.49,.49,1.97,1.97,.98l17.22-11.32c3.44,3.44,7.38,6.4,10.83,8.86,64.96,48.23,153.53,37.89,203.24-25.1l.49-.49c.49-.98,.49-2.95-.98-4.43q0,.49,0,0"/><path class="cls-2" d="M118.6,211.6l14.27,10.33c.98,.98,2.95,.98,3.94-.49v-.49c40.35-54.13,114.66-63.97,169.77-24.6,1.48,.98,3.44,2.46,4.92,3.94l-14.76,10.83c-1.48,.98,.98,2.46,.98,2.46l54.62,23.62c1.48,.98,1.97-.49,1.97-.98v-.49l-3.44-60.53c0-.49-.49-1.97-1.97-.98l-16.73,11.81c-3.44-2.95-7.38-5.91-11.32-8.86-65.94-46.75-154.52-34.94-202.74,29.03l-.49,.49c-.98,1.97-.98,3.94,.98,4.92q-.49,0,0,0"/><path class="cls-2" d="M167.81,336.1c-1.48,0-2.95-1.48-2.95-2.95s1.48-2.95,2.95-2.95,2.95,1.48,2.95,2.95c0,1.97-.98,3.44-2.95,2.95q0,.49,0,0m.49,9.84c-.49,.49-.98,.49-1.48,.49h-.49c-1.48-.49-2.46-1.97-2.46-3.44,.49-1.48,1.97-2.46,3.44-2.46,1.48,.49,2.46,1.97,2.46,3.44,0,.98-.49,1.97-1.48,1.97m-1.48,8.37c-.49,.98-1.48,1.97-2.46,1.97h-.98c-.49-.49-1.48-.98-1.48-1.48-.49-.49-.49-1.48,0-1.97,.49-.49,.98-1.48,1.48-1.48,.49-.49,1.48-.49,1.97,0,1.48,0,1.97,1.97,1.48,2.95q0,.49,0,0m-4.43,9.84c-.49,.98-1.48,1.48-2.46,1.48-.49,0-.98,0-1.48-.49l-1.48-1.48c0-.98,0-1.48,.49-1.97,.49-.49,.98-.98,1.97-1.48,.49,0,1.48,0,1.97,.49,1.48,.49,1.97,1.97,.98,3.44m-6.4-65.45c-.49,.49-.98,.49-1.97,.49s-1.48-.49-1.97-.98c-.98-.98-.98-2.95,.49-3.94,.98-.98,2.95-.98,3.94,.49,.49,.49,.49,1.48,.49,1.97,0,.98-.49,1.48-.98,1.97m0,74.31c-.49,.49-.98,.98-1.97,.98-.49,0-1.48,0-1.97-.49-.98-.98-1.48-2.95-.49-3.94,.49-.49,.98-.98,1.97-.98s1.48,0,1.97,.49c.49,.49,.98,.98,.98,1.97,.49,.49,0,1.48-.49,1.97m-7.38-81.69c-.49,.49-.98,.98-1.97,.98-.49,0-1.48,0-1.97-.49-.49-.49-.98-.98-.98-1.97s0-1.48,.49-1.97c.98-.98,2.95-1.48,3.94-.49,1.48,.98,1.97,2.95,.49,3.94m0,89.07c-.49,.49-.98,.49-1.97,.49s-1.48-.49-2.46-.98c-.49-.49-.49-1.48-.49-1.97,0-.98,.49-1.48,.98-1.97s1.48-.49,1.97-.49c.98,0,1.48,.49,1.97,.98,.98,.98,.98,2.95,0,3.94m-8.86,6.4c-.49,.49-.98,.49-1.48,.49h-.49c-.98,0-1.48-.49-1.97-1.48-.98-1.48-.49-2.95,.98-3.94,.49-.49,1.48-.49,1.97-.49,.98,0,1.48,.49,2.46,.98,.98,1.48,.49,2.95-.98,3.94l-.49,.49Zm-7.87,2.95c-.49,.49-.98,.98-1.48,1.48-.49,.49-1.48,.49-1.97,0s-.98-.98-1.48-1.48c-.49-.49-.49-1.48,0-1.97l1.48-1.48c1.48-.49,2.95,0,3.94,1.48-.49,.49,0,.98-.49,1.97m-9.84,2.95c-.49,.49-.98,.98-1.97,.98h-.49c-1.48,0-2.95-.98-2.95-2.46s.98-2.95,2.46-2.95c.98,0,1.48,0,1.97,.49s.98,.98,.98,1.97c.49,.49,.49,.98,0,1.97m-12.79,1.97c-1.48,0-2.95-1.48-2.46-2.95,0-1.48,1.48-2.95,2.95-2.95s2.95,1.48,2.95,2.95-1.48,2.95-3.44,2.95m-9.84-.98h-.49c-1.48-.49-2.46-1.97-2.46-3.44,.49-1.48,1.97-2.46,3.44-2.46s2.95,1.48,2.46,2.95c0,1.97-.98,3.44-2.95,2.95m-6.89-4.43c-.49,.98-1.48,1.97-2.46,1.97h-.98c-1.48-.49-2.46-1.97-1.97-3.94,.49-1.48,1.97-2.46,3.94-1.97,1.48,.98,1.97,2.46,1.48,3.94m-9.35-3.94c-.49,.98-1.48,1.48-2.46,1.48-.49,0-.98,0-1.48-.49-.49-.49-.98-.98-1.48-1.97v-1.97c.49-.49,.98-.98,1.97-1.48,.49,0,1.48,0,1.97,.49,1.97,.98,1.97,2.46,1.48,3.94m-7.38-27.56h2.46v-3.94s0-.49,.49-.49h63.48s.49,0,.49,.49v3.94h2.46v3.94H76.28l-.49-3.94Zm-.98,22.14c-.49,.49-1.48,.98-2.46,.98-.49,0-1.48-.49-1.97-.49-.49-.49-.98-.98-.98-1.97s0-1.48,.49-1.97c.49-.49,.98-.98,1.97-.98s1.48,0,1.97,.49c1.97,.98,1.97,2.95,.98,3.94m-7.38-6.89c-.49,.49-.98,.49-1.97,.49-1.48,0-2.95-1.48-2.95-2.95,0-.49,.49-1.48,.98-1.97s1.48-.49,1.97-.49c.98,0,1.48,.49,1.97,.98,1.48,1.48,.98,2.95,0,3.94m-3.94-78.24c.98-.98,2.95-1.48,3.94-.49,1.48,.98,1.48,2.95,.49,3.94l-.49,.49c-.49,.49-1.48,.98-2.46,.98-.49,0-1.48-.49-1.97-.49-.98-.98-.98-2.95,.49-4.43q-.49,0,0,0m-.98,68.89c0,.49-.49,1.48-1.48,1.48-.49,.49-.98,.49-1.48,.49-.98,0-1.97-.49-2.46-1.48-.98-1.48-.49-2.95,.49-3.94,1.48-.98,2.95-.49,3.94,.49v.49c.98,.98,.98,1.48,.98,2.46m-7.38-6.89c-.98,0-2.46-.98-2.95-1.97-.49-1.48,0-2.95,1.48-3.94,1.48-.49,2.95,0,3.94,1.48,.49,1.48,0,2.95-1.48,3.94,0,.49-.49,.49-.98,.49m-5.41-11.81c0-1.48,.98-2.95,2.46-3.44,1.48,0,2.95,.98,3.44,2.46,.49,1.48-.49,2.95-2.46,3.44h-.49c-1.48-.49-2.95-1.48-2.95-2.46m-.98-10.83c0-.98,.49-1.48,.98-1.97s1.48-.98,1.97-.98c.98,0,1.48,.49,1.97,.98s.98,1.48,.98,1.97c0,1.48-1.48,2.95-2.95,2.95s-2.95-.98-2.95-2.95m4.43-12.79c.98,0,1.48,.49,1.97,.98s.49,1.48,.49,1.97c0,.98-.49,1.48-.98,1.97s-.98,.49-1.48,.49h-.49c-1.48-.49-2.46-1.97-2.46-3.44-.49-.98,.98-2.46,2.95-1.97-.49-.49,0-.49,0,0m-.49-7.87c.49-.49,.98-1.48,1.48-1.48,.49-.49,1.48-.49,1.97,0s1.48,.98,1.48,1.48c.49,.49,.49,1.48,0,1.97-.49,.98-1.48,1.97-2.95,1.97h-.98c-.98-.49-1.97-1.97-.98-3.94-.49,0,0,0,0,0m4.43-9.84c.98-1.48,2.46-1.97,3.94-.98,1.48,.98,1.97,2.46,.98,3.94-.49,.98-1.48,1.48-2.46,1.48-.49,0-.98,0-1.48-.49-1.48-.98-1.97-2.46-.98-3.94m13.78-16.73c.49-.49,1.48-.49,1.97-.49,.98,0,1.48,.49,1.97,.98,.98,.98,.98,2.95-.49,3.94-.49,.49-.98,.49-1.97,.49s-1.48-.49-2.46-.98c-.49-.98-.49-2.46,.98-3.94m8.37-5.91c.49-.49,1.48-.49,1.97-.49,.98,0,1.48,.49,1.97,1.48,.98,1.48,.49,2.95-.98,3.94-.49,.49-.98,.49-1.48,.49-1.48,0-2.95-.98-2.95-2.95,0-.98,.49-1.97,1.48-2.46m8.37-2.95c.49-.49,.98-1.48,1.48-1.48,.49-.49,1.48-.49,1.97,0s1.48,.98,1.48,1.48c.49,.49,.49,1.48,0,2.46l-1.48,1.48h-.98c-.49,0-.98,0-.98-.49l-1.48-1.48c-.49-.49-.49-.98,0-1.97m9.84-2.95c.98-1.48,2.46-1.48,3.94-.98,.49,.49,.98,.98,.98,1.97s0,1.48-.49,1.97c-.49,.49-.98,.98-1.97,.98h-.49c-.49,0-.98,0-1.48-.49-.49-.49-.98-.98-.98-1.97-.49,0,0-.98,.49-1.48m12.3-2.46c1.48,0,2.95,1.48,2.95,2.95s-1.48,2.95-2.95,2.95-2.95-1.48-2.95-2.95,1.48-2.46,2.95-2.95m8.37,1.48c.49-.49,1.48-.49,1.97-.49,1.48,.49,2.46,1.97,2.46,3.44-.49,1.48-1.48,2.46-2.95,2.46h-.49c-.49,0-1.48-.49-1.97-.98s-.49-1.48-.49-1.97c.49-.98,.98-1.48,1.48-2.46m8.86,3.94c.49-1.48,1.97-2.46,3.44-1.48,.49,.49,1.48,.98,1.48,1.48,.49,.49,.49,1.48,0,2.46-.49,.49-.98,1.48-1.48,1.48s-.98,.49-.98,.49h-.98c-.49-.49-1.48-.98-1.48-1.48-.49-.98-.49-1.97,0-2.95m-16.73,35.92h-34.45l-1.48-1.48c-.49-.49-.49-.98,0-1.48l35.43-13.29,35.43,13.29c.49,.49,.49,.98,0,1.48l-1.48,1.48h-33.46Zm-28.54,12.3c-.49,0-.98-.49-.98-.98v-3.94h10.33v3.94c0,.49-.49,.98-.98,.98v24.6h-7.87l-.49-24.6Zm24.11,0c-.49,0-.98-.49-.98-.98v-3.94h10.33v3.94c0,.49-.49,.98-.98,.98v24.6h-7.87l-.49-24.6Zm4.43-7.87h-31.99v-1.97h63.97v1.97h-31.99Zm20.18,7.87c-.49,0-.98-.49-.98-.98v-3.94h10.33v3.94c0,.49-.49,.98-.98,.98v24.6h-8.37v-24.6Zm5.91-43.8h0c.98-1.48,2.95-1.48,3.94-.49l.98,.98c0,.49,0,1.48-.49,1.97s-.98,.98-1.97,1.48h-.49c-.49,0-.98,0-1.48-.49-.98-.49-1.48-2.46-.49-3.44q-.49-.49,0,0m20.67,21.65c.49-1.48,1.97-2.46,3.44-1.97,1.48,.49,2.46,1.97,1.97,3.44,0,.98-.49,1.48-1.48,1.97-.49,.49-.98,.49-1.48,.49h-.98c-.98,0-1.48-.49-1.97-1.48,.49-.98,0-1.48,.49-2.46m9.84,8.86c.49,1.48,0,2.95-1.48,3.44h-.98c-.49,0-.98,0-.98-.49-.49-.49-.98-.98-1.48-1.48s-.49-1.48,0-1.97c.49-.49,.98-.98,1.48-1.48,.98-.49,2.95,.49,3.44,1.97m2.46,10.33c0,.98,0,1.48-.49,1.97-.49,.49-.98,.98-1.97,.98h-.49c-.49,0-.98,0-1.48-.49s-.98-.98-.98-1.97,0-1.48,.49-1.97,.98-.98,1.97-.98c1.48,0,2.95,.98,2.95,2.46m-59.54-56.1c-36.91,0-66.93,30.02-66.93,66.43s30.02,66.93,66.43,66.93,66.93-30.02,66.93-66.43-29.53-66.93-66.43-66.93"/><path class="cls-2" d="M109.74,404.01c-38.88,0-70.37-31.49-70.37-70.37s31.49-70.37,70.37-70.37,70.37,31.49,70.37,70.37c-.49,38.88-31.49,70.37-70.37,70.37m0-146.15c-41.83,0-76.28,33.95-76.28,75.78s33.95,76.27,75.78,76.27,76.27-33.95,76.27-75.78-33.95-76.28-75.78-76.28"/></g></svg>