<?xml version="1.0" encoding="UTF-8"?><svg id="Capa_1" xmlns="http://www.w3.org/2000/svg" viewBox="0 0 467 568.37"><defs><style>.cls-1{fill:#00b3dc;}.cls-2{fill:#fff;}</style></defs><path class="cls-1" d="M4.92,80.7H461.59V4.92H4.92V80.7Zm462.08,4.92H0V0H466.51V85.62h.49Z"/><polygon class="cls-1" points="16.73 17.72 38.88 17.72 38.88 24.6 32.48 24.6 32.48 67.91 23.62 67.91 23.62 24.6 16.73 24.6 16.73 17.72"/><path class="cls-1" d="M49.21,52.16h6.89l-3.44-20.18-3.44,20.18Zm-10.33,15.75l9.35-50.19h9.35l9.84,50.19h-8.86l-1.48-9.35h-8.86l-1.48,9.35h-7.87Z"/><path class="cls-1" d="M80.21,24.6v15.75h2.95c2.95,0,3.94-1.48,3.94-3.94v-7.38c0-2.95-1.48-3.94-3.94-3.94h-2.95v-.49Zm0,20.18v23.13h-8.37V17.72h12.3c8.37,0,11.81,4.43,11.81,11.32v6.4c0,5.41-1.97,8.37-6.89,9.84l7.87,22.64h-8.86l-7.87-23.13Z"/><path class="cls-1" d="M113.67,41.34h11.81v26.57h-5.91v-5.41c-.98,3.94-3.44,5.91-7.87,5.91-7.38,0-10.33-5.91-10.33-13.29V31c0-7.87,3.94-13.29,12.79-13.29,9.35,0,11.81,5.41,11.81,12.79v4.43h-7.87v-4.92c0-2.95-.98-4.92-4.43-4.92-2.95,0-4.43,1.97-4.43,4.92v27.07c0,2.95,1.48,4.92,3.94,4.92,2.95,0,3.94-1.48,3.94-4.92v-9.35h-3.94v-6.4h.49Z"/><polygon class="cls-1" points="132.37 17.72 152.55 17.72 152.55 24.6 140.74 24.6 140.74 38.88 149.11 38.88 149.11 45.77 140.74 45.77 140.74 61.02 152.55 61.02 152.55 67.91 132.37 67.91 132.37 17.72"/><polygon class="cls-1" points="156.49 17.72 178.63 17.72 178.63 24.6 171.74 24.6 171.74 67.91 163.38 67.91 163.38 24.6 156.49 24.6 156.49 17.72"/><path class="cls-1" d="M389.74,56.59v-8.86c0-3.44-.98-4.92-3.94-4.92-2.46,0-3.94,1.97-3.94,4.43v9.35c0,2.95,.98,4.92,3.94,4.92s3.94-1.48,3.94-4.92m-16.24-1.48V30.51c0-7.87,3.44-13.29,12.3-13.29,9.35,0,11.81,5.41,11.81,12.79v2.46h-7.87v-3.44c0-2.95-.98-4.92-3.94-4.92s-3.94,1.97-3.94,4.92v10.83c1.48-2.46,3.44-3.94,6.89-3.94,5.91,0,9.35,3.94,9.35,12.3v7.38c0,7.87-3.44,12.79-12.3,12.79s-12.3-5.41-12.3-13.29"/><path class="cls-1" d="M412.38,36.91c3.44,0,5.91,2.95,5.91,5.91,0,3.44-2.95,5.91-5.91,5.91-3.44,0-5.91-2.95-5.91-5.91-.49-2.95,2.46-5.91,5.91-5.91"/><path class="cls-1" d="M425.66,58.56c0-4.92,1.48-8.37,6.4-13.29l4.92-4.92c2.95-2.95,2.95-4.43,2.95-8.86v-3.44c0-2.95-1.48-3.94-2.95-3.94-1.97,0-3.44,.98-3.44,3.94v6.4h-7.87v-6.4c0-6.89,3.94-10.83,11.32-10.83s10.83,3.44,10.83,10.33v4.92c0,4.92-.98,7.87-5.41,12.79l-5.41,5.91c-1.97,2.46-3.44,3.94-3.44,7.87v2.46h13.78v6.89h-21.65v-9.84Z"/><g><rect class="cls-1" y="101.86" width="466.51" height="466.51"/><path class="cls-2" d="M371.53,323.31v62h27.56v-62c0-1.48-.98-2.46-2.46-2.46h-5.91v-3.94h-10.33v3.94h-6.4c-1.48,.49-2.46,1.48-2.46,2.46"/><path class="cls-2" d="M367.1,385.31v-5.91h-58.56c-1.48,0-2.46,.98-2.46,2.46v.98c0,1.48,.98,2.46,2.46,2.46h58.56Z"/><path class="cls-2" d="M399.09,390.23l-91.04,.49c-.98,0-1.97,.98-1.97,1.97v.49c.98,18.21,12.79,34.45,30.02,40.84l-14.27,41.34h68.89l-9.35-48.23c11.32-8.86,17.72-22.64,17.72-36.91"/><path class="cls-2" d="M275.57,333.15h-47.24v-8.37h5.91v3.94h3.44v-12.3h-3.44v4.92h-5.91v-10.83c.49-3.44-.98-6.89-2.95-9.84-2.46-2.46-5.41-3.44-8.86-3.44s-7.38,.98-9.84,3.94c-1.97,2.46-2.95,5.41-2.95,8.37v11.81h6.4v-11.81c0-1.48,.49-2.46,1.48-3.94,1.48-.98,2.95-1.97,4.92-1.48,1.48,0,2.95,.49,3.94,1.48,.98,1.48,1.48,2.95,1.48,4.92v22.64h-46.75c0,21.65,15.75,39.86,36.91,42.81l-13.78,99.9h53.64l-13.78-99.4c21.65-3.44,37.4-21.65,37.4-43.3"/><path class="cls-2" d="M137.79,405.49H73.32c-.49,0-.98,.49-.98,.98l4.92,67.91c0,.49,.49,.98,.98,.98h55.11c.49,0,.98-.49,.98-.98l4.43-67.91c0-.49-.49-.98-.98-.98"/><path class="cls-2" d="M139.76,397.12c0-.49-.49-.98-.98-.98h-23.62v-2.95c0-.49-.49-.98-.98-.98h-17.72c-.49,0-.98,.49-.98,.98v2.95h-23.13c-.49,0-.98,.49-.98,.98l.49,3.94c0,.49,.49,.98,.98,.98h64.96c.49,0,.98-.49,.98-.98l.98-3.94Z"/><path class="cls-2" d="M430.58,225.38l-192.9-83.16c-.49-.49-1.48-.49-1.97-.49s-.98,.49-1.48,.49L41.34,225.38c-.98,.49-1.48,.98-.98,1.97v19.68c0,1.48,0,2.95,2.46,2.46l191.92-79.72h1.97l192.41,79.23c2.46,.98,2.46-.49,2.46-2.46v-19.68c0-.49-.49-.98-.98-1.48"/><path class="cls-2" d="M42.32,501.45H428.12c1.48,0,2.95,1.48,2.95,2.95v17.72c0,1.48-1.48,2.95-2.95,2.95H42.32c-1.48,0-2.95-1.48-2.95-2.95v-17.72c0-1.48,1.48-2.95,2.95-2.95"/></g></svg>