<?xml version="1.0" encoding="UTF-8"?><svg id="Capa_1" xmlns="http://www.w3.org/2000/svg" viewBox="0 0 467 568.37"><defs><style>.cls-1{fill:#010101;}.cls-2{fill:#f49400;}.cls-3{fill:#fff;}</style></defs><path class="cls-2" d="M4.92,80.7H461.59V4.92H4.92V80.7Zm462.08,4.92H0V0H466.51V85.62h.49Z"/><polygon class="cls-2" points="16.73 17.72 38.88 17.72 38.88 24.6 32.48 24.6 32.48 67.91 23.62 67.91 23.62 24.6 16.73 24.6 16.73 17.72"/><path class="cls-2" d="M49.21,52.16h6.89l-3.44-20.18-3.44,20.18Zm-10.33,15.75l9.35-50.19h9.35l9.84,50.19h-8.86l-1.48-9.35h-8.86l-1.48,9.35h-7.87Z"/><path class="cls-2" d="M80.21,24.6v15.75h2.95c2.95,0,3.94-1.48,3.94-3.94v-7.38c0-2.95-1.48-3.94-3.94-3.94h-2.95v-.49Zm0,20.18v23.13h-8.37V17.72h12.3c8.37,0,11.81,4.43,11.81,11.32v6.4c0,5.41-1.97,8.37-6.89,9.84l7.87,22.64h-8.86l-7.87-23.13Z"/><path class="cls-2" d="M113.67,41.34h11.81v26.57h-5.91v-5.41c-.98,3.94-3.44,5.91-7.87,5.91-7.38,0-10.33-5.91-10.33-13.29V31c0-7.87,3.94-13.29,12.79-13.29,9.35,0,11.81,5.41,11.81,12.79v4.43h-7.87v-4.92c0-2.95-.98-4.92-4.43-4.92-2.95,0-4.43,1.97-4.43,4.92v27.07c0,2.95,1.48,4.92,3.94,4.92,2.95,0,3.94-1.48,3.94-4.92v-9.35h-3.94v-6.4h.49Z"/><polygon class="cls-2" points="132.37 17.72 152.55 17.72 152.55 24.6 140.74 24.6 140.74 38.88 149.11 38.88 149.11 45.77 140.74 45.77 140.74 61.02 152.55 61.02 152.55 67.91 132.37 67.91 132.37 17.72"/><polygon class="cls-2" points="156.49 17.72 178.63 17.72 178.63 24.6 171.74 24.6 171.74 67.91 163.38 67.91 163.38 24.6 156.49 24.6 156.49 17.72"/><polygon class="cls-2" points="375.47 17.72 375.47 67.91 367.1 67.91 367.1 29.53 361.2 35.43 361.2 27.07 369.07 18.21 375.47 18.21 375.47 17.72"/><polygon class="cls-2" points="395.15 17.72 395.15 67.91 386.79 67.91 386.79 29.53 380.88 35.43 380.88 27.07 388.76 18.21 395.15 18.21 395.15 17.72"/><path class="cls-2" d="M410.41,36.91c3.44,0,5.91,2.95,5.91,5.91,0,3.44-2.95,5.91-5.91,5.91-3.44,0-5.91-2.95-5.91-5.91s2.46-5.91,5.91-5.91"/><path class="cls-2" d="M448.3,44.78v12.3c0,6.89-3.44,11.32-11.81,11.32s-11.81-4.92-11.81-12.3v-5.91h7.87v6.4c0,2.95,.98,4.92,3.94,4.92,2.46,0,3.44-1.97,3.44-4.43v-12.3c0-2.95-.98-4.43-3.44-4.43s-3.94,1.48-3.94,4.43v.98h-7.87V17.72h22.14v6.89h-14.27v12.3c1.48-2.46,3.94-3.44,6.89-3.44,4.43,.49,8.86,3.44,8.86,11.32"/><g><rect class="cls-2" y="101.86" width="466.51" height="466.51"/><rect class="cls-3" x="35.43" y="364.15" width="92.51" height="27.56"/><rect class="cls-3" x="136.8" y="364.15" width="92.51" height="27.56"/><rect class="cls-3" x="238.17" y="364.15" width="92.51" height="27.56"/><rect class="cls-3" x="339.55" y="364.15" width="92.51" height="27.56"/><polygon class="cls-3" points="356.77 213.08 352.34 187.49 351.85 213.08 356.77 213.08"/><polygon class="cls-3" points="371.04 213.08 375.47 187.49 375.96 213.08 371.04 213.08"/><polygon class="cls-3" points="341.02 213.08 346.44 213.08 341.52 182.57 341.02 213.08"/><path class="cls-3" d="M363.17,172.23c-.98,0-1.48-.98-1.48-1.97s1.97-1.48,1.97-1.48c0,0,1.48,.98,1.48,1.97s-.98,1.48-1.97,1.48q.49,0,0,0m12.3-7.38c-.98-1.48-4.43-.98-8.37,.98v-.49c.49-4.43-.98-7.87-2.46-8.37-1.48-.49-3.44,3.44-3.94,7.87v.98h-.98c-3.44-2.46-7.38-3.44-8.37-2.46-.98,.98,.98,4.92,4.43,7.38,.49,.49,.98,.49,1.48,.98-.49,0-.98,.49-.98,.49-3.94,1.97-6.4,4.92-5.41,6.4,.98,1.48,4.43,.98,8.37-.98,1.48-.49,2.46-1.48,3.44-2.46v37.89h1.97v-36.42c.49,.49,.98,.98,1.97,1.48,3.44,2.46,7.38,3.94,8.37,2.46,.98-1.48-.98-4.92-4.43-7.38l-1.48-.98,.98-.49c3.94-2.46,6.4-5.41,5.41-6.89"/><path class="cls-3" d="M414.84,172.23c-.98,0-1.48-.98-1.48-1.97s1.97-1.48,1.97-1.48c0,0,1.48,.98,1.48,1.97s-.98,1.48-1.97,1.48q.49,0,0,0m7.38,.98l-1.48-.98,.98-.49c3.94-2.46,6.4-4.92,5.41-6.89-.98-1.97-4.43-.98-8.37,.98v-.49c0-4.43-.98-7.87-2.46-8.37-1.48-.49-3.44,3.44-3.44,7.87v.98h-1.48c-3.44-2.46-7.38-3.44-8.37-2.46-.98,.98,.98,4.92,4.43,7.38l1.48,.98-.98,.49c-3.94,1.97-6.4,4.92-5.41,6.4,.98,1.48,4.43,.98,8.37-.98,1.48-.49,2.46-1.48,3.44-2.46v37.89h2.46v-36.42c.49,.49,.98,.98,1.97,1.48,3.44,2.46,7.38,3.94,8.37,2.46,.98-1.48-1.48-4.92-4.92-7.38"/><polygon class="cls-3" points="398.6 213.08 394.66 187.49 394.17 213.08 398.6 213.08"/><polygon class="cls-3" points="403.03 213.08 406.96 187.49 407.46 213.08 403.03 213.08"/><polygon class="cls-3" points="382.85 213.08 388.76 213.08 383.34 182.57 382.85 213.08"/><polygon class="cls-3" points="425.17 214.06 420.74 188.97 420.74 214.06 425.17 214.06"/><polygon class="cls-3" points="426.16 212.59 431.57 212.09 429.6 185.03 426.16 212.59"/><path class="cls-3" d="M262.78,261.3c0-4.92-3.94-8.86-8.86-8.86s-8.86,3.94-8.86,8.86,3.94,8.86,8.86,8.86,8.86-3.94,8.86-8.86"/><path class="cls-3" d="M264.26,273.61h-20.18c-5.91,.49-10.33,5.41-10.33,11.32v23.62c0,1.97,1.48,3.44,3.44,3.44s3.44-1.48,3.44-3.44v-20.67c0-.98,0-1.97,1.48-1.97s.98,.98,.98,1.48v61.51c.49,2.46,3.44,4.43,5.91,3.94,1.97-.49,3.44-1.97,3.94-3.94v-35.43c0-.49,.49-1.48,.98-1.48s1.48,.49,1.48,.98v35.43c0,2.95,1.97,4.92,4.92,4.92s4.92-1.97,4.92-4.92v-60.53c0-.49,0-1.48,.98-1.48s1.48,.98,1.48,1.97v20.18c0,1.97,1.48,3.44,3.44,3.44s3.44-1.48,3.44-3.44v-24.11c0-5.41-4.43-10.33-10.33-10.83"/><path class="cls-3" d="M297.23,261.8c0,4.43,3.94,8.37,8.37,8.37s8.37-3.94,8.37-8.37-3.94-8.37-8.37-8.37-8.37,3.94-8.37,8.37"/><path class="cls-3" d="M322.32,280.99s-2.46-6.4-7.87-6.4h-17.72c-5.41,0-7.87,6.4-7.87,6.4l-6.89,23.13s-.98,3.94,2.46,5.41c3.44,1.48,4.43-2.95,4.43-2.95l5.91-19.19s.49-1.48,1.48-.98c.98,.49,.49,1.97,.49,1.97l-9.84,35.92h9.35v25.59c-.49,2.46,1.48,4.43,3.94,4.92,2.46,.49,4.43-1.48,4.92-3.94v-26.57h2.46v25.59c-.49,2.46,1.48,4.43,3.94,4.92,2.46,.49,4.43-1.48,4.92-3.94v-26.57h9.35l-9.84-35.92s-.49-1.48,.49-1.97c.98-.49,1.48,.98,1.48,.98l5.91,19.19s.98,3.94,4.43,2.95c3.44-.98,2.46-5.41,2.46-5.41l-8.37-23.13Z"/><path class="cls-3" d="M66.43,320.36h8.37v22.64c0,.49,.49,.98,.98,.98h10.33c.49,0,.98-.49,.49-.98v-23.13h16.73c10.83,0,19.68-8.86,19.68-19.68,0-4.92-1.97-9.84-5.41-13.29,8.86-4.92,11.81-16.24,6.89-25.1-3.44-5.91-9.35-9.35-16.24-9.35h-.98c-.98-13.78-12.79-24.11-26.57-23.13-13.78,.98-24.11,12.79-23.13,26.57,0,2.95,.98,5.91,2.46,8.86-14.76,3.44-24.6,18.21-21.16,33.46,2.95,12.79,14.27,22.14,27.56,22.14"/><path class="cls-3" d="M39.37,355.29c1.97,0,3.44-1.48,3.44-3.44s-1.48-3.44-3.44-3.94c-1.97,0-3.44,1.48-3.94,3.94,.49,1.97,1.97,3.44,3.94,3.44"/><path class="cls-3" d="M52.16,351.85c0,1.97,1.97,3.44,3.94,3.44,1.48,0,2.95-1.48,3.44-3.44,0-1.97-.98-3.94-3.44-3.94s-3.94,.98-3.94,3.44v.49Z"/><path class="cls-3" d="M72.34,347.91c-1.97,0-3.44,1.48-3.94,3.94,0,1.97,1.48,3.44,3.94,3.44,1.97,0,3.44-1.48,3.44-3.44,0-2.46-1.48-3.94-3.44-3.94"/><path class="cls-3" d="M85.13,351.85c0,1.97,1.97,3.44,3.94,3.44,1.48,0,2.95-1.48,3.44-3.44,0-1.97-.98-3.94-3.44-3.94s-3.94,.98-3.94,3.44v.49Z"/><path class="cls-3" d="M101.37,351.85c0,1.97,1.48,3.44,3.94,3.44,1.97,0,3.44-1.48,3.44-3.44s-1.48-3.44-3.44-3.94c-2.46,0-3.94,1.97-3.94,3.94"/><path class="cls-3" d="M117.61,351.85c0,1.97,1.97,3.44,3.94,3.44,1.48,0,2.95-1.48,3.44-3.44,0-1.97-.98-3.94-3.44-3.94s-3.94,.98-3.94,3.44v.49Z"/><path class="cls-3" d="M44.29,339.05c0,1.97,1.48,3.94,3.44,3.94h.49c1.97,0,3.44-1.48,3.94-3.44,0-1.97-1.48-3.44-3.94-3.94-2.46,0-3.94,1.48-3.94,3.44"/><path class="cls-3" d="M60.53,339.05c0,1.97,1.48,3.94,3.94,3.94s3.94-1.48,3.94-3.94-1.48-3.94-3.94-3.94-3.94,1.97-3.94,3.94"/><path class="cls-3" d="M93.01,339.05c0,1.97,1.48,3.94,3.44,3.94h.49c1.97,0,3.44-1.48,3.44-3.44s-1.48-3.44-3.44-3.94c-1.97,0-3.44,1.48-3.94,3.44"/><path class="cls-3" d="M109.74,339.05c0,1.97,1.48,3.44,3.44,3.44s3.44-1.48,3.94-3.44c0-1.97-1.48-3.44-3.94-3.94-1.97,.49-3.44,1.97-3.44,3.94"/><path class="cls-3" d="M158.95,260.32s-5.41,5.91-5.41,9.84,3.94,5.91,5.41,6.4c0,0,5.41-2.95,5.41-6.4-.98-3.94-2.95-7.38-5.41-9.84"/><path class="cls-3" d="M147.14,270.65s-.98,9.35,3.44,12.3c0,0,1.48,1.48,7.87,2.46,0,0,.49-5.91-1.97-8.86-2.95-1.97-5.91-4.43-9.35-5.91"/><path class="cls-3" d="M146.15,282.46s-.98,10.33,3.44,13.29c0,0,1.48,1.97,8.37,2.95,0,0,.49-6.89-1.97-9.35-2.95-2.95-5.91-4.92-9.84-6.89"/><path class="cls-3" d="M146.64,295.75s-1.48,11.32,2.95,14.27c0,0,1.97,1.97,8.86,2.95,0,0,.98-6.89-1.48-9.35,0,0-1.48-2.95-10.33-7.87"/><path class="cls-3" d="M145.17,309.53s-.49,11.32,3.94,14.76c2.95,1.97,5.91,2.95,9.35,2.95,0,0,.98-7.38-1.97-10.33-2.95-2.95-6.89-5.41-11.32-7.38"/><path class="cls-3" d="M170.76,270.65s.98,9.35-2.95,12.3c0,0-1.48,1.97-7.87,2.95,0,0-.49-5.91,1.48-8.86,2.95-2.46,5.91-4.92,9.35-6.4"/><path class="cls-3" d="M171.74,282.46s.98,10.33-3.44,13.29c0,0-1.48,1.97-8.37,2.95,0,0-.98-6.4,1.48-9.35,3.44-2.95,6.89-5.41,10.33-6.89"/><path class="cls-3" d="M171.74,295.75s1.48,11.32-2.95,14.27c-2.46,1.97-5.41,3.44-8.86,3.44,0,0-.98-6.89,1.48-9.35,.49-.49,1.97-3.44,10.33-8.37"/><path class="cls-3" d="M173.22,309.04s.98,11.81-3.44,14.76c-2.46,1.97-5.91,2.95-8.86,3.44,0,0-.98-7.38,1.48-10.33,2.95-2.95,6.89-5.91,10.83-7.87"/><path class="cls-3" d="M149.11,249.99c0-.49-.49-.98-1.48-.98-.49,0-.49,.49-.98,.98v18.7l1.97,.98v-19.68h.49Z"/><path class="cls-3" d="M153.04,247.03c0-.49-.49-.98-.98-.98s-.98,.49-.98,.98v22.14c.49-1.48,.98-3.44,1.97-4.92v-17.22Z"/><path class="cls-3" d="M157.47,241.62c0-.49-.49-.98-.98-.98s-.98,.49-.98,.98v19.19l1.97-2.95v-16.24Z"/><path class="cls-3" d="M168.3,249.99c0-.49,.49-.98,.98-.98s.98,.49,.98,.98v18.7l-1.97,.98v-19.68Z"/><path class="cls-3" d="M164.36,246.54c0-.49,.49-.98,.98-.98s.98,.49,.98,.98v22.64c-.49-1.48-.98-3.44-1.97-4.92v-17.72Z"/><path class="cls-3" d="M159.93,241.62c0-.49,.49-.98,.98-.98s.98,.49,.98,.98v19.19l-1.97-2.46v-16.73Z"/><rect class="cls-3" x="157.96" y="329.21" width="2.95" height="26.08"/><path class="cls-3" d="M199.79,259.83s-5.41,5.91-5.41,9.84,3.94,5.91,5.41,6.4c0,0,5.41-2.95,5.41-6.4s-5.41-9.84-5.41-9.84"/><path class="cls-3" d="M187.98,270.65s-.98,9.35,3.44,12.3c0,0,1.48,1.97,7.87,2.46,0,0,.49-5.91-1.97-8.86-2.95-2.46-5.91-4.43-9.35-5.91"/><path class="cls-3" d="M187,281.97s-.98,10.33,3.44,13.29c0,0,1.48,1.97,8.37,2.95,0,0,.49-6.89-1.97-9.35-2.46-2.46-5.91-4.92-9.84-6.89"/><path class="cls-3" d="M187.49,295.75s-1.48,11.32,2.95,14.27c0,0,1.97,1.97,8.86,2.95,0,0,.98-6.89-1.48-9.35,0,0-1.48-2.95-10.33-7.87"/><path class="cls-3" d="M186.01,309.04s-.49,11.81,3.94,14.76c2.46,1.97,5.91,2.95,9.35,3.44,0,0,.98-7.38-1.97-10.33-2.95-3.44-6.89-5.91-11.32-7.87"/><path class="cls-3" d="M211.6,270.16s.98,9.35-2.95,12.3c0,0-1.48,1.97-7.87,2.95,0,0-.98-5.91,1.48-8.86,2.95-2.46,5.91-4.92,9.35-6.4"/><path class="cls-3" d="M212.59,281.97s.98,10.33-3.44,13.29c0,0-1.48,1.97-8.37,2.95-.49-3.44,0-6.89,1.48-9.84,3.44-2.46,6.89-4.92,10.33-6.4"/><path class="cls-3" d="M212.59,295.26s1.48,11.32-2.95,14.27c-2.46,1.97-5.41,2.95-8.86,3.44,0,0-.98-6.89,1.48-9.84,.49,0,1.97-2.95,10.33-7.87"/><path class="cls-3" d="M214.06,309.04s.98,11.32-3.44,14.76c-2.46,1.97-5.91,2.95-8.86,3.44,0,0-.98-7.38,1.48-10.33,2.95-3.44,6.89-6.4,10.83-7.87"/><path class="cls-3" d="M189.95,249.99c0-.49-.49-.98-.98-.98s-.98,.49-.98,.98v18.7l1.97,.98v-19.68Z"/><path class="cls-3" d="M193.89,246.54c0-.49-.49-.98-.98-.98s-.98,.49-.98,.98v22.64c.49-1.48,.98-3.44,1.97-4.92v-17.72Z"/><path class="cls-3" d="M198.32,241.13c0-.49-.49-.98-.98-.98s-.98,.49-.98,.98v19.19c.49-.98,1.48-1.97,1.97-2.95v-16.24Z"/><path class="cls-3" d="M209.63,249.49c0-.49,.49-.98,.98-.98s.98,.49,.98,.98v18.7l-1.97,.98v-19.68Z"/><path class="cls-3" d="M205.2,246.54c0-.49,.49-.98,.98-.98s.98,.49,.98,.98v22.14c-.49-1.48-.98-3.44-1.97-4.92v-17.22Z"/><path class="cls-3" d="M200.78,241.13c0-.49,.49-.98,.98-.98s.98,.49,.98,.98v19.19l-1.97-2.95v-16.24Z"/><rect class="cls-3" x="198.81" y="328.72" width="2.95" height="26.08"/><path class="cls-3" d="M422.71,243.1c0,.98-.49,1.48-1.48,1.48h-69.88c-.98,0-1.48-.49-1.48-1.48v-19.68c0-.98,.49-1.48,1.48-1.48h69.88c.98,0,1.48,.49,1.48,1.48v19.68Zm0,32.48c0,.98-.49,1.48-1.48,1.48h-69.88c-.49,0-.98-.49-.98-.98v-20.18c0-.98,.49-1.48,1.48-1.48h69.88c.49,0,.98,.49,1.48,.98l-.49,20.18Zm0,31.49c0,.98-.49,1.48-1.48,1.48h-69.88c-.49,0-.98-.49-.98-.49,0,0-.49-.49-.49-.98v-19.68c0-.98,.49-1.48,1.48-1.48h69.88c.49,0,.98,.49,1.48,.98v20.18Zm0,31.99c0,.98-.49,1.48-1.48,1.48h-38.88c-.98,0-1.48-.49-1.48-1.48v-19.68c0-.98,.49-1.48,1.48-1.48h38.88c.98,0,1.48,.49,1.48,1.48v19.68Zm-1.48-126.96h-80.21v142.71c0,.98,.49,1.48,1.48,1.48h7.38v-37.4c0-.49,.49-1.48,.98-1.48h19.68c.49,0,1.48,.49,1.48,1.48v37.4h58.07c.98,0,1.48-.49,1.48-1.48V212.09h-10.33Z"/><path class="cls-1" d="M428.62,476.84h0l-1.48,.49c-12.3,6.4-51.18,21.16-86.12-12.3-.49-.49-1.48-.98-1.97-.98-.98,0-1.48,.49-1.97,.98-10.33,7.87-58.56,40.35-101.37,.49l-.98-.49c-.49-.49-.98-.49-1.48-.49s-.98,.49-1.48,.49l-.98,.98c-42.81,39.86-91.04,7.38-101.37-.49-.49-.49-.98-.98-1.97-.98s-1.48,.49-1.97,.98c-34.94,33.46-73.81,18.21-86.12,12.3l-.98-.49h-.49c-1.48,0-2.46,.98-2.46,2.46v16.73c0,.49,0,.98,.49,1.48,40.35,35.43,79.23,2.46,88.09-6.4l.98-.98q.49-.49,.98-.49c.49,0,1.48,.49,1.97,.98,45.77,43.8,93.99,8.37,103.83,0l.98-.98c.49,0,.49-.49,.98-.49s.49,0,.98,.49v.49c9.84,8.37,58.07,43.8,103.83,0,.49-.49,.98-.49,1.48-.49s.98,0,1.48,.49c.49,0,.49,.49,.49,.49,8.86,8.86,47.24,41.83,88.09,6.4,.49-.49,.98-.98,.98-1.48v-16.73c-.49-1.48-1.48-2.46-2.46-2.46"/><path class="cls-1" d="M428.62,421.73h0l-1.48,.49c-12.3,6.4-51.18,21.16-86.12-12.3-.49-.49-1.48-.98-1.97-.98-.98,0-1.48,.49-1.97,.98-10.33,7.87-58.56,40.35-101.37,.49l-.98-.49c-.49-.49-.98-.49-1.48-.49s-.98,.49-1.48,.49l-.49,.49c-42.81,39.86-91.04,7.38-101.37-.49-.49-.49-.98-.98-1.97-.98s-1.48,.49-1.97,.98c-34.94,33.46-73.81,18.21-86.12,12.3l-1.97-.49h-.49c-1.48,0-2.46,.98-2.46,2.46v16.73c0,.49,0,1.48,.49,1.48,40.35,35.43,79.23,2.46,88.09-6.4q.49-.49,.98-.98c.49,0,.49-.49,.98-.49s1.48,.49,1.97,.98c45.76,43.8,93.99,8.37,103.83,0l.98-.98c.49,0,.49-.49,.98-.49s.49,0,.98,.49l.98,.98c9.84,8.37,58.07,43.8,103.83,0,.49-.49,.98-.49,1.48-.49s.98,0,1.48,.49c.49,0,.49,.49,.49,.49,8.86,8.86,47.24,41.83,88.09,6.4,.49-.49,.49-.98,.98-1.48v-16.73c-.49-1.48-1.48-2.46-2.95-2.46"/></g></svg>