<?xml version="1.0" encoding="UTF-8"?><svg id="Capa_1" xmlns="http://www.w3.org/2000/svg" viewBox="0 0 467 568.37"><defs><style>.cls-1{fill:#fff;}.cls-2{fill:#e4003b;}</style></defs><path class="cls-2" d="M4.92,80.7H461.59V4.92H4.92V80.7Zm462.08,4.92H0V0H466.51V85.62h.49Z"/><polygon class="cls-2" points="16.73 17.72 38.88 17.72 38.88 24.6 32.48 24.6 32.48 67.91 23.62 67.91 23.62 24.6 16.73 24.6 16.73 17.72"/><path class="cls-2" d="M49.21,52.16h6.89l-3.44-20.18-3.44,20.18Zm-10.33,15.75l9.35-50.19h9.35l9.84,50.19h-8.86l-1.48-9.35h-8.86l-1.48,9.35h-7.87Z"/><path class="cls-2" d="M80.21,24.6v15.75h2.95c2.95,0,3.94-1.48,3.94-3.94v-7.38c0-2.95-1.48-3.94-3.94-3.94h-2.95v-.49Zm0,20.18v23.13h-8.37V17.72h12.3c8.37,0,11.81,4.43,11.81,11.32v6.4c0,5.41-1.97,8.37-6.89,9.84l7.87,22.64h-8.86l-7.87-23.13Z"/><path class="cls-2" d="M113.67,41.34h11.81v26.57h-5.91v-5.41c-.98,3.94-3.44,5.91-7.87,5.91-7.38,0-10.33-5.91-10.33-13.29V31c0-7.87,3.94-13.29,12.79-13.29,9.35,0,11.81,5.41,11.81,12.79v4.43h-7.87v-4.92c0-2.95-.98-4.92-4.43-4.92-2.95,0-4.43,1.97-4.43,4.92v27.07c0,2.95,1.48,4.92,3.94,4.92,2.95,0,3.94-1.48,3.94-4.92v-9.35h-3.94v-6.4h.49Z"/><polygon class="cls-2" points="132.37 17.72 152.55 17.72 152.55 24.6 140.74 24.6 140.74 38.88 149.11 38.88 149.11 45.77 140.74 45.77 140.74 61.02 152.55 61.02 152.55 67.91 132.37 67.91 132.37 17.72"/><polygon class="cls-2" points="156.49 17.72 178.63 17.72 178.63 24.6 171.74 24.6 171.74 67.91 163.38 67.91 163.38 24.6 156.49 24.6 156.49 17.72"/><polygon class="cls-2" points="404.5 17.72 404.5 67.91 396.14 67.91 396.14 29.53 390.23 35.43 390.23 27.07 398.11 18.21 404.5 18.21 404.5 17.72"/><path class="cls-2" d="M419.76,36.91c3.44,0,5.91,2.95,5.91,5.91,0,3.44-2.95,5.91-5.91,5.91-3.44,0-5.91-2.95-5.91-5.91-.49-2.95,2.46-5.91,5.91-5.91"/><polygon class="cls-2" points="446.82 17.72 446.82 67.91 438.46 67.91 438.46 29.53 432.55 35.43 432.55 27.07 440.43 18.21 446.82 18.21 446.82 17.72"/><g><rect class="cls-2" y="101.86" width="466.51" height="466.51"/><path class="cls-1" d="M395.15,384.82c7.38,0,13.29-5.91,13.29-13.78,0-7.38-5.91-13.29-13.78-13.29-7.38,0-13.29,5.91-13.29,13.29,0,7.87,5.91,13.78,13.78,13.78"/><path class="cls-1" d="M410.9,390.23h-31.49c-9.35,.98-16.73,8.37-16.73,18.21v37.4c-.49,2.95,1.97,5.41,4.92,5.91,2.95,.49,5.41-1.97,5.91-4.92v-32.97c0-.98,.49-2.95,2.46-2.95s1.97,1.48,1.97,2.46v96.45c0,3.94,3.44,7.38,7.38,7.38s7.38-3.44,7.38-7.38v-55.61c0-.98,.98-1.97,1.97-1.97s1.97,.98,1.97,1.97v55.61c.49,3.94,3.94,7.38,8.37,6.89,3.94-.49,6.89-3.44,6.89-6.89v-96.45c0-.98,.49-2.46,1.97-2.46s2.46,1.48,2.46,2.95v31.99c0,2.95,2.46,5.41,5.41,5.41s5.41-2.46,5.41-5.41v-37.4c0-9.35-6.89-17.22-16.24-18.21"/><path class="cls-1" d="M280.99,391.71c6.89,0,12.79-5.91,12.79-12.79s-5.91-12.79-12.79-12.79-12.79,5.91-12.79,12.79,5.91,12.79,12.79,12.79"/><path class="cls-1" d="M296.24,414.84c1.97-.49,2.46,1.97,2.46,1.97l8.37,29.03s1.48,6.4,6.89,4.43c5.41-1.97,3.44-7.87,3.44-7.87l-10.83-34.45s-3.94-9.84-12.3-9.84h-27.07c-8.37,0-12.3,9.84-12.3,9.84l-10.83,34.45s-1.97,6.4,3.44,7.87c5.41,1.48,6.89-4.43,6.89-4.43l8.86-29.03s.49-1.97,1.97-1.97,.98,2.95,.98,2.95l-14.76,54.13h13.78v38.88c.49,3.44,3.44,6.4,7.38,5.91,3.44-.49,5.91-2.95,5.91-5.91v-38.88h3.94v38.88c.49,3.44,3.44,6.4,7.38,5.91,3.44-.49,5.91-2.95,5.91-5.91v-38.88h13.78l-14.76-54.13c.98,0,0-2.46,1.48-2.95"/><path class="cls-1" d="M204.71,391.22c6.89,0,12.79-5.91,12.79-12.79s-5.91-12.79-12.79-12.79-12.79,5.91-12.79,12.79c0,7.38,5.41,12.79,12.79,12.79"/><path class="cls-1" d="M230.3,407.46s-3.94-9.84-12.3-9.84h-27.07c-8.37,0-12.3,9.84-12.3,9.84l-10.83,34.45s-1.97,6.4,3.44,7.87c5.41,1.48,6.89-4.43,6.89-4.43l8.37-28.54s.49-1.97,1.97-1.97,.98,2.95,.98,2.95l-14.76,54.13h13.78v38.88c.49,3.44,3.44,6.4,7.38,5.91,3.44-.49,5.91-2.95,5.91-5.91v-38.88h3.94v38.88c.49,3.44,3.44,6.4,7.38,5.91,3.44-.49,5.91-2.95,5.91-5.91v-38.88h13.78l-14.76-54.13s-.49-2.46,.98-2.95c1.48-.49,1.97,1.97,1.97,1.97l8.37,29.03s1.48,6.4,6.89,4.43c5.41-1.97,3.44-7.87,3.44-7.87l-9.35-34.94Z"/><path class="cls-1" d="M81.69,386.3c7.38,0,13.29-5.91,13.29-13.29s-5.91-13.29-13.29-13.29-13.29,5.91-13.29,13.29c-.49,7.38,5.41,13.29,13.29,13.29"/><path class="cls-1" d="M96.94,391.71h-31c-9.35,.98-16.24,8.37-16.24,17.72v36.91c0,1.48,.98,2.95,1.97,3.94l-11.81,62.99c0,.98,.49,1.97,1.48,2.46h.49c.98,0,1.97-.49,1.97-1.48l11.81-62.5c2.46-.49,4.43-2.46,4.43-4.92v-31.99c0-.98,.49-2.95,2.46-2.95,1.48,0,1.97,1.48,1.97,2.46v95.96c.49,3.94,4.43,6.89,8.37,6.4,2.95-.49,5.41-2.95,6.4-6.4v-55.11c0-.98,.98-1.97,1.97-1.97h.49c.98,0,1.97,.98,1.97,1.97v55.11c.49,3.94,4.43,6.89,8.37,6.4,2.95-.49,5.41-2.95,6.4-6.4v-95.96c0-.98,.49-2.46,1.97-2.46s2.46,1.48,2.46,2.95v31.49c-.49,2.95,1.97,5.41,4.92,5.91,2.95,.49,5.41-1.97,5.91-4.92v-37.89c-.49-9.35-7.38-16.73-16.73-17.72"/><path class="cls-1" d="M339.55,449.28c5.91,0,10.83-4.92,10.83-10.83s-4.92-10.83-10.83-10.83-10.83,4.92-10.83,10.83,4.92,10.83,10.83,10.83"/><path class="cls-1" d="M361.69,470.44c-6.4-16.73-7.87-16.73-13.78-16.73h-16.73c-5.91,0-6.89,0-13.78,16.73-.98,2.46-4.92,11.81-4.92,12.3s-1.48,3.94,1.97,5.41c3.44,1.48,4.43-2.95,4.43-2.95l6.89-16.24s0-.49,.49-.49,0,.49,0,.49v42.81c0,2.95,2.46,5.91,5.41,5.91h.49c2.95,0,5.91-1.97,5.91-4.92v-17.72s0-2.46,1.48-2.46,1.48,2.46,1.48,2.46v17.22c0,2.95,2.46,5.91,5.41,5.91h.49c2.95,0,5.41-2.46,5.41-5.41v-43.8l.49,.49,5.91,14.76s1.48,3.94,4.92,2.46c3.44-1.48,1.48-4.92,1.48-4.92,0,0-2.95-9.35-3.44-11.32"/><path class="cls-1" d="M162.88,442.89c-1.97-.98-4.43,0-5.41,1.97-1.97,3.44-4.43,6.89-6.89,10.33-.98,.98-1.97,1.48-3.44,1.48h-12.79c-1.48,0-2.46-.49-3.44-1.48-1.48-1.48-6.89-10.83-6.89-10.83-.49-.98-1.97-1.97-3.44-1.97-1.97,0-3.94,1.97-3.94,3.94,0,.49,0,.98,.49,1.48l10.83,19.68c.49,.98,.49,1.48,.49,2.46v2.95c0,.98,0,2.46-.49,3.44l-4.92,20.67h5.91v15.26c.49,2.95,2.95,4.92,5.91,4.92,2.46,0,4.43-2.46,4.92-4.92v-15.26h2.95v15.26c.49,2.95,2.95,4.92,5.91,4.92,2.46,0,4.43-2.46,4.92-4.92v-15.26h5.91l-5.41-20.67c0-.98-.49-1.97-.49-2.95v-3.94c0-.98,.49-1.97,.49-2.46l9.84-18.21s.49-1.48,.98-1.97c.49-.49,0-2.95-1.97-3.94"/><path class="cls-1" d="M140.74,449.78c5.91,0,10.83-4.92,10.83-10.83s-4.92-10.83-10.83-10.83-10.83,4.92-10.83,10.83,4.92,10.83,10.83,10.83"/><path class="cls-1" d="M412.87,153.04l-42.81,14.76,11.81,10.33-68.89,82.18-40.35-39.37c-1.48-1.48-3.44-1.97-5.91-1.97-1.97,0-3.94,.98-5.41,2.95l-62.99,82.67H57.08c-3.94,0-7.38,3.44-7.38,7.38s3.44,7.38,7.38,7.38H202.25c2.46,0,4.43-.98,5.91-2.95l60.53-78.74,40.35,38.88c2.95,2.95,7.38,2.95,10.33,0l.49-.49,73.81-88.09,11.32,9.84,7.87-44.78Z"/><path class="cls-1" d="M114.66,268.68c-1.97,1.48-4.43,2.46-6.89,2.95-6.89,1.97-13.78,2.95-21.16,2.46-3.44,0-6.89-.49-10.33-.98-1.97-.49-4.43-.49-6.4-.98l-2.46-.98c-2.95-.98-5.91-1.97-7.87-3.94-.98-.49-1.48-1.48-2.46-2.46v6.89c0,1.97,.98,3.44,2.46,4.43,4.92,3.44,10.33,5.41,16.24,5.91,3.94,.49,7.87,.98,11.81,.98,5.91,0,11.32-.49,17.22-1.97,2.95-.49,5.91-1.97,8.86-3.44,2.95-1.48,4.43-3.94,4.43-5.91v-6.89c-.98,1.97-1.97,2.95-3.44,3.94"/><path class="cls-1" d="M57.08,229.32c0-1.48,.98-2.95,2.46-3.44,.98,.98,1.97,1.48,2.95,2.46,7.87,3.44,16.73,5.41,25.59,4.92,7.38,0,14.76-.98,21.65-3.44,.98-.49,1.97-.98,2.46-.98v.98c0,4.43-11.32,9.35-27.56,9.35s-27.56-5.41-27.56-9.84m30.51-23.62c16.24,0,27.56,4.92,27.56,9.35s-11.32,9.35-27.56,9.35-27.56-4.92-27.56-9.35,11.32-9.35,27.56-9.35m-2.95,42.32c16.73,0,30.51-4.92,30.51-11.32,0,0,.49-5.91,0-6.89,0-.98,0-1.48-.49-2.46,1.97-.98,2.95-2.95,3.44-4.92v-7.87c-.98-7.87-16.24-11.81-31-11.81s-31,4.43-31,12.3c0,.49,.49,6.89,.49,6.89,0,.49,0,.98,.49,1.48-2.46,1.48-3.44,3.44-3.94,6.4,0,.49,.49,6.89,.49,6.89,0,1.97,.98,3.44,2.46,4.43,4.92,3.44,10.33,5.41,16.24,5.91,4.43,.98,8.37,.98,12.3,.98"/><path class="cls-1" d="M75.29,271.15c3.94,.49,7.87,.98,11.81,.98,5.91,0,11.32-.49,17.22-1.97,2.95-.49,5.91-1.97,8.86-3.44,.49-.49,1.48-.98,1.97-1.48,.98-.98,1.97-1.97,2.46-2.95,0-.49,.49-.98,.49-1.48v-6.89c-.98,1.48-3.44,5.41-15.75,7.87-4.92,.98-9.84,.98-15.25,.98-8.37,0-16.73-1.48-24.6-4.92-1.48-.49-2.46-1.48-3.94-2.46-.49-.49-1.48-1.48-1.97-2.46v7.38c0,1.97,.98,3.44,2.46,4.43,4.92,3.94,10.83,5.91,16.24,6.4"/><path class="cls-1" d="M117.61,240.64c0-.49-.49-.49-.98-.49l-1.48-.49c-.49,.49-.98,1.48-1.48,1.97,.49,0,.98,.49,.98,.49,.98,.49,1.48,1.48,1.48,2.46s-.49,1.48-.98,1.97c-.49,.49-.98,.49-.98,.98l-1.97,.98s-1.97,.98-2.46,.98l-2.46,.98-3.94,.98s-3.44,.49-4.92,.98l-4.92,.49c-.49,0-4.92,.49-6.89,.49-3.44,0-6.4,0-9.84-.49-2.46-.49-4.92-.98-6.89-1.48-2.46-.49-4.92-1.48-7.38-2.46-1.48-.49-2.46-1.48-3.94-2.46-.98-.98-1.97-1.97-2.46-3.44v7.87c0,1.97,.98,3.44,2.46,4.43,4.92,3.44,10.33,5.41,16.24,5.91,3.94,.49,7.87,.98,11.81,.98,5.91,0,11.81-.49,17.72-1.97,2.95-.49,5.91-1.97,8.86-3.44,.49-.49,1.48-.98,1.97-1.48,.98-.98,1.97-1.97,2.46-2.95,0-.49,.49-.98,.49-1.48v-7.87c0-1.97,0-2.46-.49-2.46"/><path class="cls-1" d="M127.45,207.17c0-.98,.98-2.46,2.46-3.44,.98,.98,1.97,1.48,2.95,2.46,7.87,3.44,16.73,5.41,25.59,4.92,7.38,0,14.76-.98,21.65-3.44,.98-.49,1.97-.98,2.46-.98v.98c0,4.43-11.32,9.35-27.56,9.35s-27.56-5.41-27.56-9.84m31-23.62c16.24,0,27.56,4.92,27.56,9.35s-11.32,9.35-27.56,9.35-27.56-4.92-27.56-9.35,11.32-9.35,27.56-9.35m-3.44,42.32c16.73,0,30.51-4.92,30.51-11.32,0,0,.49-5.91,0-6.89,0-.98,0-1.48-.49-2.46,1.97-.98,2.95-2.95,3.44-4.92,0,0,.49-6.4,0-7.87-.98-7.87-16.24-11.81-31-11.81s-31,4.43-31,12.3c0,.49,.49,6.89,.49,6.89,0,.49,0,.98,.49,1.48-2.46,1.48-3.94,3.44-3.94,6.4,0,.49,.49,6.89,.49,6.89,0,1.97,.98,3.44,2.46,4.43,4.92,3.44,10.33,5.41,16.73,5.91,3.94,.49,7.87,.98,11.81,.98"/><path class="cls-1" d="M188.97,219.48c0-.49-.49-.98-.98-.98l-.98-.49-1.48-.49c-.49,.49-.98,1.48-1.48,1.97,.49,0,.98,.49,.98,.49,.98,.49,1.48,1.48,1.48,2.46s-.49,1.48-.98,1.97c-.49,.49-.49,.98-.98,.98l-1.97,.98s-1.97,.98-2.46,.98c0,0-1.97,.49-2.46,.98l-3.44,.98s-3.44,.49-4.92,.98l-4.92,.49c-.49,0-4.92,.49-6.89,.49-3.44,0-6.4,0-9.84-.49-2.46-.49-4.92-.98-6.89-1.48-2.46-.49-4.92-1.48-7.38-2.46-1.48-.49-2.46-1.48-3.94-2.46-.98-.98-1.97-1.97-2.46-3.44v7.87c0,1.97,.98,3.44,2.46,4.43,4.92,3.44,10.33,5.41,16.24,5.91,3.94,.49,7.87,.98,11.81,.98,5.91,0,11.81-.49,17.72-1.97,2.95-.98,5.91-1.97,8.86-3.44,.49-.49,1.48-.98,1.97-1.48,.98-.98,1.97-1.97,2.46-2.95,0-.49,.49-.98,.49-1.48v-6.4c.49-1.97,.49-2.46,0-2.95"/><path class="cls-1" d="M185.52,246.54c-1.97,1.48-4.43,2.46-6.89,2.95-6.89,1.97-13.78,2.95-21.16,2.46-3.44,0-6.89-.49-10.33-.98-1.97-.49-4.43-.49-6.4-.98l-2.46-.49c-2.95-.98-5.91-1.97-8.37-3.94-.98-.49-1.48-1.48-2.46-2.46v6.89c0,1.97,.98,3.44,2.46,4.43,4.92,3.44,10.33,5.41,16.24,5.91,3.94,.49,7.87,.98,11.81,.98,5.91,0,11.81-.49,17.22-1.97,2.95-.49,5.91-1.97,8.86-3.44,2.95-1.48,4.43-3.94,4.43-5.91v-6.89c-.49,1.48-1.48,2.46-2.95,3.44"/><path class="cls-1" d="M129.91,243.1c4.92,3.44,10.33,5.41,16.24,6.4,3.94,.49,7.87,.98,11.81,.98,5.91,0,11.32-.49,17.22-1.97,2.95-.98,6.4-1.97,8.86-3.94,.49-.49,1.48-.98,1.97-1.48,.98-.98,1.97-1.97,2.46-2.95,0-.49,.49-.98,.49-1.48v-6.89c-.98,1.48-3.44,5.41-15.75,7.87-4.92,.98-10.33,1.48-15.75,1.48-8.37,0-16.73-1.48-24.6-4.92-1.48-.49-2.46-1.48-3.94-2.46-.49-.49-1.48-1.48-1.97-2.46v7.38c.49,1.97,1.48,3.44,2.95,4.43"/><path class="cls-1" d="M189.46,264.75c-.98,1.48-2.46,2.46-3.94,3.44-1.97,1.48-4.43,2.46-6.89,2.95-6.89,1.97-13.78,2.95-21.16,2.46-3.44,0-6.89-.49-10.33-.98-1.97-.49-4.43-.49-6.4-.98l-2.95-.98c-2.95-.98-5.91-1.97-8.37-3.94-.98-.49-1.48-1.48-2.46-2.46v6.89c0,1.97,.98,3.44,2.46,4.43,4.92,3.44,10.33,5.41,16.24,5.91,3.94,.49,7.87,.98,11.81,.98,5.91,0,11.32-.49,17.22-1.97,2.95-.49,5.91-1.97,8.86-3.44,2.95-1.48,4.43-3.94,4.43-5.91,1.48,.49,1.48-5.41,1.48-6.4"/><path class="cls-1" d="M146.64,271.15c3.94,.49,7.87,.98,11.81,.98,5.91,0,11.81-.49,17.22-1.97,2.95-.49,5.91-1.97,8.86-3.44,.49-.49,1.48-.98,1.97-1.48,.98-.98,1.97-1.97,2.46-2.95,0-.49,.49-.98,.49-1.48v-6.89c-.98,1.48-3.44,5.41-15.75,7.87-4.92,.98-10.33,1.48-15.75,1.48-8.37,0-16.73-1.48-24.6-4.92-1.48-.49-2.46-1.48-3.94-2.46-.49-.49-1.48-1.48-1.97-2.46v7.38c0,1.48,.98,3.44,2.46,4.43,4.43,3.44,10.33,5.41,16.73,5.91"/></g></svg>