<?xml version="1.0" encoding="UTF-8"?><svg id="Capa_1" xmlns="http://www.w3.org/2000/svg" viewBox="0 0 467 568.37"><defs><style>.cls-1{fill:#00b3dc;}.cls-2{fill:#fff;}</style></defs><path class="cls-1" d="M4.92,80.7H461.59V4.92H4.92V80.7Zm462.08,4.92H0V0H466.51V85.62h.49Z"/><polygon class="cls-1" points="16.73 17.72 38.88 17.72 38.88 24.6 32.48 24.6 32.48 67.91 23.62 67.91 23.62 24.6 16.73 24.6 16.73 17.72"/><path class="cls-1" d="M49.21,52.16h6.89l-3.44-20.18-3.44,20.18Zm-10.33,15.75l9.35-50.19h9.35l9.84,50.19h-8.86l-1.48-9.35h-8.86l-1.48,9.35h-7.87Z"/><path class="cls-1" d="M80.21,24.6v15.75h2.95c2.95,0,3.94-1.48,3.94-3.94v-7.38c0-2.95-1.48-3.94-3.94-3.94h-2.95v-.49Zm0,20.18v23.13h-8.37V17.72h12.3c8.37,0,11.81,4.43,11.81,11.32v6.4c0,5.41-1.97,8.37-6.89,9.84l7.87,22.64h-8.86l-7.87-23.13Z"/><path class="cls-1" d="M113.67,41.34h11.81v26.57h-5.91v-5.41c-.98,3.94-3.44,5.91-7.87,5.91-7.38,0-10.33-5.91-10.33-13.29V31c0-7.87,3.94-13.29,12.79-13.29,9.35,0,11.81,5.41,11.81,12.79v4.43h-7.87v-4.92c0-2.95-.98-4.92-4.43-4.92-2.95,0-4.43,1.97-4.43,4.92v27.07c0,2.95,1.48,4.92,3.94,4.92,2.95,0,3.94-1.48,3.94-4.92v-9.35h-3.94v-6.4h.49Z"/><polygon class="cls-1" points="132.37 17.72 152.55 17.72 152.55 24.6 140.74 24.6 140.74 38.88 149.11 38.88 149.11 45.77 140.74 45.77 140.74 61.02 152.55 61.02 152.55 67.91 132.37 67.91 132.37 17.72"/><polygon class="cls-1" points="156.49 17.72 178.63 17.72 178.63 24.6 171.74 24.6 171.74 67.91 163.38 67.91 163.38 24.6 156.49 24.6 156.49 17.72"/><path class="cls-1" d="M397.12,56.59v-8.86c0-3.44-.98-4.92-3.94-4.92-2.46,0-3.94,1.97-3.94,4.43v9.35c0,2.95,.98,4.92,3.94,4.92s3.94-1.48,3.94-4.92m-16.24-1.48V30.51c0-7.87,3.44-13.29,12.3-13.29,9.35,0,11.81,5.41,11.81,12.79v2.46h-7.87v-3.44c0-2.95-.98-4.92-3.94-4.92s-3.94,1.97-3.94,4.92v10.83c1.48-2.46,3.44-3.94,6.89-3.94,5.91,0,9.35,3.94,9.35,12.3v7.38c0,7.87-3.44,12.79-12.3,12.79s-12.3-5.41-12.3-13.29"/><path class="cls-1" d="M419.76,36.91c3.44,0,5.91,2.95,5.91,5.91,0,3.44-2.95,5.91-5.91,5.91-3.44,0-5.91-2.95-5.91-5.91s2.46-5.91,5.91-5.91"/><polygon class="cls-1" points="446.82 17.72 446.82 67.91 438.46 67.91 438.46 29.53 432.55 35.43 432.55 27.07 440.43 18.21 446.82 18.21 446.82 17.72"/><g><rect class="cls-1" x="0" y="101.86" width="466.51" height="466.51"/><path class="cls-2" d="M300.18,187.98c-4.92-1.48-9.84-1.48-14.27,.98-18.7,7.38-31.49,10.33-51.67,3.94-12.3-3.94-24.11-12.3-37.89-6.89-8.86,3.94-18.21,5.91-28.05,6.4l-5.91-30.51h141.72l-3.94,26.08Zm-48.23,91.04c-4.92,4.43-11.32,6.89-18.21,6.4-6.89,.49-13.29-1.97-18.21-6.4-8.37-8.86-9.84-22.14-3.44-32.97,2.46-4.43,19.68-31,21.16-32.97,1.48,2.46,18.7,28.54,21.16,32.97,7.38,10.33,5.91,24.11-2.46,32.97m58.56-123.02c-.49-.49-.98-.49-1.48-.49H157.47c-.49,0-.98,0-1.48,.49v1.48l25.59,154.03c0,.98,.98,1.48,1.97,1.48h102.36c.98,0,1.48-.49,1.48-1.48l24.11-154.03c-.49-.49-.49-.98-.98-1.48"/><path class="cls-2" d="M381.38,369.56c0-7.38,5.91-13.29,13.78-13.29,7.38,0,13.29,5.91,13.29,13.78,0,7.38-5.91,13.29-13.29,13.29s-13.78-6.4-13.78-13.78"/><path class="cls-2" d="M410.9,388.26c9.35,.98,16.24,8.86,16.24,18.21v37.4c0,2.95-2.46,5.41-5.41,5.41s-5.41-2.46-5.41-5.41v-31.99c0-.98-.49-2.95-2.46-2.95s-1.97,1.48-1.97,2.46v96.45c-.49,3.94-3.94,7.38-8.37,6.89-3.94-.49-6.89-3.44-6.89-6.89v-55.61c0-.98-.49-1.97-1.97-1.97h-.49c-.98,0-1.97,.98-1.97,1.97v56.1c0,3.94-3.44,7.38-7.38,7.38s-7.38-3.44-7.38-7.38v-96.94c0-.98-.49-2.46-1.97-2.46s-2.46,1.48-2.46,2.95v31.99c-.49,2.95-2.95,4.92-5.91,4.92-2.46,0-4.43-2.46-4.92-4.92v-37.4c0-9.35,6.89-17.22,16.24-18.21h32.48Z"/><path class="cls-2" d="M293.78,376.95c0-6.89-5.91-12.79-12.79-12.79s-12.79,5.91-12.79,12.79,5.91,12.79,12.79,12.79,12.79-5.91,12.79-12.79"/><path class="cls-2" d="M255.4,405.98l-10.83,34.45s-1.97,6.4,3.44,7.87c5.41,1.48,6.89-4.43,6.89-4.43l8.37-29.03s.49-1.97,1.97-1.48c1.48,.49,.98,2.95,.98,2.95l-14.76,54.13h13.78v38.88c-.49,3.44,2.46,6.89,5.91,7.38,3.44,.49,6.89-2.46,7.38-5.91v-39.37h3.94v38.88c-.49,3.44,2.46,6.89,5.91,7.38,3.44,.49,6.89-2.46,7.38-5.91v-39.86h13.78l-14.76-54.13s-.49-2.46,.98-2.95,1.97,1.48,1.97,1.48l8.37,29.03s1.48,6.4,6.89,4.43c5.41-1.97,3.44-7.87,3.44-7.87l-10.83-34.45s-3.94-9.84-12.3-9.84h-27.56c-6.4-1.48-10.33,8.37-10.33,8.37"/><path class="cls-2" d="M217.51,376.45c0-6.89-5.91-12.79-12.79-12.79s-12.79,5.91-12.79,12.79,5.91,12.79,12.79,12.79,12.79-5.41,12.79-12.79"/><path class="cls-2" d="M178.63,405.49l-10.83,34.45s-1.97,6.4,3.44,7.87c5.41,1.48,6.89-4.43,6.89-4.43l8.37-29.03s.49-1.97,1.97-1.48c1.48,.49,.98,2.95,.98,2.95l-14.76,54.13h13.78v38.88c-.49,3.44,2.46,6.89,5.91,7.38,3.44,.49,6.89-2.46,7.38-5.91v-39.37h3.94v38.88c-.49,3.44,2.46,6.89,5.91,7.38,3.44,.49,6.89-2.46,7.38-5.91v-39.86h13.78l-14.76-54.13s-.49-2.46,.98-2.95c1.48-.49,1.97,1.48,1.97,1.48l8.37,29.03s1.48,6.4,6.89,4.43c5.41-1.97,3.44-7.87,3.44-7.87l-10.83-34.45s-3.94-9.84-12.3-9.84h-27.56c-6.4-.98-10.33,8.86-10.33,8.37"/><path class="cls-2" d="M52.65,444.86s-.49,0,0,0l-12.79,66.93c0,.98,.49,1.97,1.48,2.46h.49c.98,0,1.97-.49,1.97-1.48l12.3-66.43s-.49-.49-.49-.98"/><path class="cls-2" d="M67.91,371.04c0-7.38,5.91-13.29,13.29-13.29s13.29,5.91,13.29,13.29-5.91,13.29-13.29,13.29-13.29-5.91-13.29-13.29"/><path class="cls-2" d="M96.94,389.74c9.35,.98,16.24,8.37,16.24,17.72v37.4c-.49,2.95-2.95,4.92-5.91,4.92-2.46,0-4.43-1.97-4.92-4.92v-31.99c0-.98-.49-2.95-2.46-2.95s-1.97,1.48-1.97,2.46v95.47c.49,3.94-1.97,7.87-6.4,8.37-3.94,.49-7.87-1.97-8.37-6.4v-56.59c0-.98-.98-1.97-1.97-1.97s-1.97,.98-1.97,1.97v55.61c.49,3.94-1.97,7.87-6.4,8.37-3.94,.49-7.87-1.97-8.37-6.4v-98.42c0-.98-.49-2.46-1.97-2.46-1.97,0-2.46,1.48-2.46,2.95v31.99c-.49,2.95-2.95,4.92-5.91,4.92-2.46,0-4.43-1.97-4.92-4.92v-37.4c0-9.35,6.89-16.73,16.24-17.72h31.49Z"/><path class="cls-2" d="M339.55,447.32c5.91,0,10.83-4.92,10.83-10.83s-4.92-10.83-10.83-10.83-10.83,4.92-10.83,10.83,4.92,10.83,10.83,10.83"/><path class="cls-2" d="M365.63,478.81c0-.49-3.44-8.37-4.43-10.83-6.4-16.73-7.38-16.24-13.29-16.73h-16.73c-5.91,0-6.89,0-13.78,16.73-.98,2.46-4.92,11.81-4.92,12.3s-1.48,3.94,1.97,5.41c3.44,1.48,4.43-2.95,4.43-2.95l6.89-16.24s0-.49,.49-.49,0,.49,0,.49v42.81c0,2.95,2.46,5.91,5.41,5.91s5.91-1.97,5.91-4.92v-17.72s0-2.46,1.48-2.46,1.48,2.46,1.48,2.46v17.22c0,2.95,2.46,5.91,5.41,5.91s5.41-2.46,5.41-5.41v-43.3l.49,.49,5.91,14.76s1.48,3.94,4.92,2.46c3.44-1.48,2.95-5.91,2.95-5.91"/><path class="cls-2" d="M153.53,465.52l9.84-18.21s.49-1.48,.98-1.97c.98-1.48,.49-3.94-.98-4.43,0,0-.49,0-.49-.49-1.97-.98-4.43,0-5.41,1.48-1.97,3.44-4.43,6.89-6.89,10.33-.98,.98-1.97,1.48-3.44,1.48h-12.79c-1.48,0-2.46-.49-3.44-1.48-1.48-1.48-6.89-10.33-6.89-10.83-.49-.98-1.97-1.97-3.44-1.97-1.97,0-3.94,1.97-3.94,3.94,0,.49,0,.98,.49,1.48l10.83,19.68c.49,.98,.49,1.48,.49,2.46v3.94c0,.98,0,2.46-.49,3.44l-4.92,20.67h5.91v15.26c.49,2.95,2.95,4.92,5.91,4.92,2.46,0,4.43-2.46,4.92-4.92v-15.26h2.95v15.26c.49,2.95,2.95,4.92,5.91,4.92,2.46,0,4.43-2.46,4.92-4.92v-15.26h5.91l-5.41-20.67c0-.98-.49-1.97-.49-2.95v-3.44c-.49-.49-.49-1.48,0-2.46"/><path class="cls-2" d="M140.74,447.81c5.91,0,10.83-4.92,10.83-10.83s-4.92-10.83-10.83-10.83-10.83,4.92-10.83,10.83c0,6.4,4.92,10.83,10.83,10.83"/></g></svg>