<?xml version="1.0" encoding="UTF-8"?><svg id="Capa_1" xmlns="http://www.w3.org/2000/svg" viewBox="0 0 467 568.37"><defs><style>.cls-1{fill:#fff;}.cls-2{fill:#c88b0c;}</style></defs><polygon class="cls-2" points="132.37 17.72 152.55 17.72 152.55 24.6 140.74 24.6 140.74 38.88 149.11 38.88 149.11 45.77 140.74 45.77 140.74 61.02 152.55 61.02 152.55 67.91 132.37 67.91 132.37 17.72"/><g><path class="cls-2" d="M4.92,80.7H461.59V4.92H4.92V80.7Zm462.08,4.92H0V0H466.51V85.62h.49Z"/><polygon class="cls-2" points="16.73 17.72 38.88 17.72 38.88 24.6 32.48 24.6 32.48 67.91 23.62 67.91 23.62 24.6 16.73 24.6 16.73 17.72"/><polygon class="cls-2" points="157.57 17.72 179.72 17.72 179.72 24.6 173.32 24.6 173.32 67.91 164.46 67.91 164.46 24.6 157.57 24.6 157.57 17.72"/><path class="cls-2" d="M49.21,52.16h6.89l-3.44-20.18-3.44,20.18Zm-10.33,15.75l9.35-50.19h9.35l9.84,50.19h-8.86l-1.48-9.35h-8.86l-1.48,9.35h-7.87Z"/><path class="cls-2" d="M80.21,24.6v15.75h2.95c2.95,0,3.94-1.48,3.94-3.94v-7.38c0-2.95-1.48-3.94-3.94-3.94h-2.95v-.49Zm0,20.18v23.13h-8.37V17.72h12.3c8.37,0,11.81,4.43,11.81,11.32v6.4c0,5.41-1.97,8.37-6.89,9.84l7.87,22.64h-8.86l-7.87-23.13Z"/><path class="cls-2" d="M113.67,41.34h11.81v26.57h-5.91v-5.41c-.98,3.94-3.44,5.91-7.87,5.91-7.38,0-10.33-5.91-10.33-13.29V31c0-7.87,3.94-13.29,12.79-13.29,9.35,0,11.81,5.41,11.81,12.79v4.43h-7.87v-4.92c0-2.95-.98-4.92-4.43-4.92-2.95,0-4.43,1.97-4.43,4.92v27.07c0,2.95,1.48,4.92,3.94,4.92,2.95,0,3.94-1.48,3.94-4.92v-9.35h-3.94v-6.4h.49Z"/><g><rect class="cls-2" y="101.86" width="466.51" height="466.51"/><path class="cls-1" d="M296.73,309.04c8.86,0,15.75-6.89,15.75-15.75s-6.89-15.75-15.75-15.75-15.75,6.89-15.75,15.75c-.49,8.86,6.89,15.75,15.75,15.75"/><path class="cls-1" d="M334.13,380.39v-44.29c0-10.83-8.37-20.18-19.19-21.16h-36.91c-10.83,.98-19.19,10.33-19.19,21.16v44.29c0,3.44,2.95,5.91,5.91,5.91s5.91-2.95,5.91-5.91v-37.89c0-1.48,.49-3.44,2.95-3.44,1.97,0,1.97,1.97,2.46,2.95v113.18c0,4.92,3.94,8.86,8.86,8.86s8.86-3.94,8.86-8.86v-64.46c0-1.48,.98-2.46,1.97-2.46h.49c1.48,0,2.46,.98,2.46,2.46v65.94c0,4.92,3.94,8.86,8.86,8.86s8.86-3.94,8.86-8.86v-113.18c0-.98,.49-2.95,1.97-2.95,2.46,0,2.95,1.97,2.95,3.44v37.89c.49,3.44,3.44,5.91,6.89,5.41,3.44-.98,5.91-3.44,5.91-6.89"/><path class="cls-1" d="M196.35,312.97c8.37,0,15.25-6.89,15.25-15.25s-6.89-15.25-15.25-15.25-15.26,6.89-15.26,15.25c0,7.87,6.89,15.25,15.26,15.25"/><path class="cls-1" d="M227.35,332.17s-4.43-12.3-14.76-12.3h-32.48c-10.33,0-14.76,12.3-14.76,12.3l-12.79,41.83s-2.46,7.87,4.43,9.84c6.89,1.97,8.37-5.41,8.37-5.41l10.33-34.94s.49-2.95,2.46-1.97c1.97,.98,.98,3.44,.98,3.44l-18.21,64.96h16.73v46.75c0,4.43,3.44,7.87,7.87,7.87s7.87-3.44,7.87-7.87v-46.75h4.43v46.75c.49,4.43,4.43,7.87,8.86,7.38,3.94-.49,6.89-3.44,7.38-7.38v-46.75h16.73l-18.21-65.45s-.98-2.95,.98-3.44c1.97-.49,2.46,1.97,2.46,1.97l10.33,34.94s1.97,7.38,8.37,5.41c6.4-1.97,3.94-9.84,3.94-9.84l-11.32-41.34Z"/><path class="cls-1" d="M150.09,409.42h-11.81c0-.98,.49-1.48,.49-1.97,1.48-2.95,4.92-3.94,7.87-2.46,1.97,.49,2.95,2.46,3.44,4.43m-5.91-7.38c-3.94,0-7.38,3.44-7.87,7.38h-4.43v53.15h24.6v-53.15h-4.43c0-4.43-3.94-7.38-7.87-7.38"/><path class="cls-1" d="M336.1,410.41c.49-3.44,3.44-5.41,6.89-5.41,2.95,.49,4.92,2.46,5.41,5.41h-12.3Zm13.78,0c-.49-3.94-3.94-7.38-7.87-7.38s-7.38,2.95-7.87,7.38h-4.43v53.15h24.6v-53.15h-4.43Z"/><rect class="cls-1" x="222.92" y="427.64" width="9.84" height="2.46"/><rect class="cls-1" x="390.23" y="427.64" width="9.84" height="2.46"/><rect class="cls-1" x="242.6" y="427.64" width="9.84" height="2.46"/><rect class="cls-1" x="262.29" y="427.64" width="9.84" height="2.46"/><rect class="cls-1" x="370.55" y="347.42" width="9.84" height="2.46"/><rect class="cls-1" x="390.23" y="347.42" width="9.84" height="2.46"/><rect class="cls-1" x="370.55" y="427.64" width="9.84" height="2.46"/><rect class="cls-1" x="350.87" y="347.42" width="9.84" height="2.46"/><rect class="cls-1" x="242.6" y="347.42" width="9.84" height="2.46"/><rect class="cls-1" x="114.66" y="347.42" width="9.84" height="2.46"/><rect class="cls-1" x="134.34" y="347.42" width="9.84" height="2.46"/><rect class="cls-1" x="94.97" y="347.42" width="9.84" height="2.46"/><rect class="cls-1" x="114.66" y="427.64" width="9.84" height="2.46"/><rect class="cls-1" x="161.9" y="427.64" width="9.84" height="2.46"/><rect class="cls-1" x="94.97" y="427.64" width="9.84" height="2.46"/><rect class="cls-1" x="193.39" y="267.21" width="9.84" height="2.46"/><rect class="cls-1" x="173.71" y="267.21" width="9.84" height="2.46"/><rect class="cls-1" x="232.76" y="267.21" width="9.84" height="2.46"/><rect class="cls-1" x="213.08" y="267.21" width="9.84" height="2.46"/><rect class="cls-1" x="94.97" y="267.21" width="9.84" height="2.46"/><rect class="cls-1" x="331.18" y="267.21" width="9.84" height="2.46"/><rect class="cls-1" x="390.23" y="267.21" width="9.84" height="2.46"/><rect class="cls-1" x="252.45" y="267.21" width="9.84" height="2.46"/><rect class="cls-1" x="350.87" y="267.21" width="9.84" height="2.46"/><rect class="cls-1" x="370.55" y="267.21" width="9.84" height="2.46"/><rect class="cls-1" x="311.5" y="267.21" width="9.84" height="2.46"/><rect class="cls-1" x="272.13" y="267.21" width="9.84" height="2.46"/><rect class="cls-1" x="291.81" y="267.21" width="9.84" height="2.46"/><rect class="cls-1" x="350.87" y="186.5" width="9.84" height="2.46"/><rect class="cls-1" x="331.18" y="186.5" width="9.84" height="2.46"/><rect class="cls-1" x="173.71" y="186.5" width="9.84" height="2.46"/><rect class="cls-1" x="193.39" y="186.5" width="9.84" height="2.46"/><rect class="cls-1" x="311.5" y="186.5" width="9.84" height="2.46"/><rect class="cls-1" x="154.03" y="186.5" width="9.84" height="2.46"/><rect class="cls-1" x="213.08" y="186.5" width="9.84" height="2.46"/><rect class="cls-1" x="272.13" y="186.5" width="9.84" height="2.46"/><rect class="cls-1" x="252.45" y="186.5" width="9.84" height="2.46"/><rect class="cls-1" x="291.81" y="186.5" width="9.84" height="2.46"/><rect class="cls-1" x="114.66" y="186.5" width="9.84" height="2.46"/><rect class="cls-1" x="232.76" y="186.5" width="9.84" height="2.46"/><rect class="cls-1" x="94.97" y="186.5" width="9.84" height="2.46"/><rect class="cls-1" x="134.34" y="186.5" width="9.84" height="2.46"/><polygon class="cls-1" points="369.56 492.59 369.56 479.79 365.63 479.79 365.63 492.59 289.84 492.59 289.84 479.79 285.91 479.79 285.91 492.59 210.13 492.59 210.13 479.3 206.19 479.3 206.19 492.59 130.41 492.59 130.41 478.32 126.47 478.32 126.47 492.59 75.29 492.59 75.29 430.09 85.13 430.09 85.13 427.63 75.29 427.63 75.29 349.88 85.13 349.88 85.13 347.42 75.29 347.42 75.29 288.86 209.14 254.91 279.02 217.01 402.54 192.9 402.54 184.54 277.54 208.65 207.66 247.03 75.29 280.5 75.29 269.67 85.13 269.67 85.13 267.21 75.29 267.21 75.29 188.97 85.13 188.97 85.13 186.5 75.29 186.5 75.29 166.82 64.46 166.82 64.46 503.42 402.54 503.42 402.54 492.59 369.56 492.59"/></g></g><g><path class="cls-2" d="M432.48,45.18v15.69h3.92c2.94,0,3.92-1.47,3.92-3.92v-7.36c0-2.45-1.47-3.92-4.41-3.92h-3.43v-.49Zm0-6.38h2.94c2.94,0,3.92-1.47,3.92-3.92v-5.89c0-2.94-1.47-3.92-3.92-3.92h-2.94v13.73Zm-8.34-21.09h12.26c8.34,0,11.28,3.92,11.28,10.79v4.9c0,4.41-1.47,6.87-4.9,7.85,4.41,.98,6.38,3.92,6.38,8.34v6.38c0,6.87-2.94,10.79-11.77,10.79h-13.24V17.71Z"/><polygon class="cls-2" points="364.79 17.71 364.79 67.74 356.46 67.74 356.46 29.48 350.57 35.37 350.57 27.03 358.42 17.71 364.79 17.71"/><path class="cls-2" d="M371.66,58.42c0-4.9,1.47-8.34,6.38-13.24l4.9-4.9c2.94-2.94,2.94-4.41,2.94-8.83v-3.92c0-2.94-1.47-3.92-2.94-3.92-1.96,0-3.43,.98-3.43,3.92v6.38h-7.85v-5.89c0-6.87,3.92-10.79,11.28-10.79s10.79,3.43,10.79,10.3v4.9c0,4.9-.98,7.85-5.4,12.75l-5.4,5.89c-1.96,2.45-3.43,3.92-3.43,7.85v2.45h13.73v6.87h-21.58v-9.81Z"/><polygon class="cls-2" points="404.52 32.43 404.52 53.03 415.31 42.73 404.52 32.43"/></g></svg>