<?xml version="1.0" encoding="UTF-8"?><svg id="Capa_1" xmlns="http://www.w3.org/2000/svg" viewBox="0 0 467 568.37"><defs><style>.cls-1{fill:#fff;}.cls-2{fill:#b11546;}</style></defs><path class="cls-2" d="M4.92,80.7H461.59V4.92H4.92V80.7Zm462.08,4.92H0V0H466.51l.49,85.62Z"/><polygon class="cls-2" points="16.73 17.72 38.88 17.72 38.88 24.6 32.48 24.6 32.48 67.91 23.62 67.91 23.62 24.6 16.73 24.6 16.73 17.72"/><path class="cls-2" d="M49.21,52.16h6.89l-3.44-20.18-3.44,20.18Zm-10.33,15.75l9.35-50.19h9.35l9.84,50.19h-8.86l-1.48-9.35h-8.86l-1.48,9.35h-7.87Z"/><path class="cls-2" d="M80.21,24.6v15.75h2.95c2.95,0,3.94-1.48,3.94-3.94v-7.38c0-2.95-1.48-3.94-3.94-3.94l-2.95-.49Zm0,20.18v23.13h-8.37V17.72h12.3c8.37,0,11.81,4.43,11.81,11.32v6.4c0,5.41-1.97,8.37-6.89,9.84l7.87,22.64h-8.86l-7.87-23.13Z"/><path class="cls-2" d="M113.67,41.34h11.81v26.57h-5.91v-5.41c-.98,3.94-3.44,5.91-7.87,5.91-7.38,0-10.33-5.91-10.33-13.29V31c0-7.87,3.94-13.29,12.79-13.29,9.35,0,11.81,5.41,11.81,12.79v4.43h-7.87v-4.92c0-2.95-.98-4.92-4.43-4.92-2.95,0-4.43,1.97-4.43,4.92v27.07c0,2.95,1.48,4.92,3.94,4.92,2.95,0,3.94-1.48,3.94-4.92v-9.35h-3.94v-6.4h.49Z"/><polygon class="cls-2" points="132.37 17.72 152.55 17.72 152.55 24.6 140.74 24.6 140.74 38.88 149.11 38.88 149.11 45.77 140.74 45.77 140.74 61.02 152.55 61.02 152.55 67.91 132.37 67.91 132.37 17.72"/><polygon class="cls-2" points="156.49 17.72 178.63 17.72 178.63 24.6 171.74 24.6 171.74 67.91 163.38 67.91 163.38 24.6 156.49 24.6 156.49 17.72"/><path class="cls-2" d="M386.79,32.48v-3.44c0-2.95-.98-4.92-3.94-4.92s-3.94,1.97-3.94,4.92v3.44c0,2.95,.98,4.92,3.94,4.92,2.95-.49,3.94-1.97,3.94-4.92m.49,24.11v-7.87c0-2.95-.98-4.92-3.94-4.92s-3.94,1.97-3.94,4.92v7.87c0,2.95,.98,4.92,3.94,4.92s3.94-1.97,3.94-4.92m-16.73-.98v-5.41c0-4.92,1.48-8.37,5.41-9.84-3.44-1.48-4.92-4.43-4.92-8.86v-1.97c0-7.87,3.94-11.81,11.81-11.81s11.81,4.43,11.81,11.81v1.97c0,3.94-1.48,6.89-4.92,8.86,3.94,1.97,5.41,5.41,5.41,9.84v5.41c0,7.38-3.44,12.79-12.3,12.79s-12.3-4.92-12.3-12.79"/><path class="cls-2" d="M409.42,36.91c3.44,0,5.91,2.95,5.91,5.91,0,3.44-2.95,5.91-5.91,5.91-3.44,0-5.91-2.95-5.91-5.91s2.95-5.91,5.91-5.91"/><path class="cls-2" d="M439.93,56.59v-8.86c0-3.44-.98-4.92-3.94-4.92-2.46,0-3.94,1.97-3.94,4.43v9.35c0,2.95,.98,4.92,3.94,4.92,2.46,0,3.94-1.48,3.94-4.92m-16.73-1.48V30.51c0-7.87,3.44-13.29,12.3-13.29,9.35,0,11.81,5.41,11.81,12.79v2.46h-7.87v-3.44c0-2.95-.98-4.92-3.94-4.92s-3.94,1.97-3.94,4.92v10.83c1.48-2.46,3.44-3.94,6.89-3.94,5.91,0,9.35,3.94,9.35,12.3v7.38c0,7.87-3.44,12.79-12.3,12.79s-12.3-5.41-12.3-13.29"/><g><rect class="cls-2" y="101.86" width="466.51" height="466.51"/><path class="cls-1" d="M395.65,237.68c0-11.81-9.35-21.16-20.67-21.16s-21.16,9.35-21.16,20.67,9.35,21.16,20.67,21.16c11.81,.49,21.16-8.86,21.16-20.67"/><path class="cls-1" d="M332.17,347.42l10.83-36.42-15.75-8.37-12.3,39.37s-2.95,10.33,5.91,12.79c8.86,2.46,11.32-7.38,11.32-7.38"/><path class="cls-1" d="M400.07,297.23c2.95-.98,3.44,2.95,3.44,2.95l1.97,6.89,15.75-8.37-3.94-13.29s-6.4-16.73-20.18-16.73h-44.29c-13.78,0-20.18,16.24-20.18,16.24l-3.94,12.3,15.75,8.37,1.97-5.91s.98-3.44,3.44-2.95c2.46,.49,1.48,4.92,1.48,4.92l-24.6,88.58h22.64v63.48c-.49,5.91,3.94,11.32,10.33,11.81,5.91,.49,11.32-3.94,11.81-10.33v-64.46h6.4v63.48c0,5.91,4.92,10.83,10.83,10.83s10.83-4.92,10.83-10.83v-63.48h22.64l-24.6-88.58c.49,0-.49-3.94,2.46-4.92"/><path class="cls-1" d="M434.52,342.01l-11.81-38.38-15.75,8.37,10.33,35.43s2.46,10.33,11.32,7.38c8.86-2.95,5.91-12.79,5.91-12.79"/><path class="cls-1" d="M351.85,230.79h-2.46c3.94-14.27,18.7-22.64,32.48-18.7,8.86,2.46,16.24,9.35,18.7,18.7h-2.95v14.27h4.43c-.98,4.92-3.94,8.86-7.38,12.3-.98-.98-1.97-1.48-3.44-.98l-7.38,2.95c-1.48,.49-1.97,1.97-1.48,3.44l.49,1.97c.49,1.48,1.97,1.97,3.44,1.48l7.87-2.95c1.48-.49,1.97-1.97,1.48-3.44l-.49-1.48c3.94-3.44,6.89-8.37,7.87-13.78h4.43v-14.27h-4.43c-3.94-15.75-19.68-25.1-34.94-21.16-10.33,2.46-18.7,10.83-21.16,21.16h-4.43v14.27h9.35v-13.78Z"/><path class="cls-1" d="M96.94,297.72l-15.75,57.58h-5.91v-3.94c0-.49,0-1.48-.49-1.97,.98-1.48,1.97-2.95,2.46-4.92l14.76-48.23s.49-3.94,3.44-2.95c2.95,.98,1.48,4.43,1.48,4.43m-25.1,57.58h-15.25v-3.94c0-.49,.49-.98,.98-.98h4.92c.98,.98,1.97,1.48,3.44,1.97,1.97,.49,4.43,.49,6.4-.49l-.49,3.44Zm110.23-16.24l-17.72-58.07s-6.4-16.73-20.67-16.73h-8.37l-15.75,23.13-14.27-23.13h-7.38c-14.27,0-20.67,16.73-20.67,16.73l-17.72,58.07c-.49,2.46-.49,4.92,0,7.87h-1.97c-2.95,0-4.92,1.97-4.92,4.92v3.94h-16.24c-2.95,0-4.92,1.97-4.92,4.92v8.86c0,5.41,4.43,9.35,9.35,9.35h18.21v-3.44c0-1.48,.98-2.46,2.46-2.46h4.43c1.48,0,2.46,.98,2.46,2.46v3.44h18.7c4.43,0,8.37-2.95,9.35-6.89v6.89c-2.46,2.95-5.41,4.92-9.35,4.92h-18.21v3.44c0,1.48-.98,2.46-2.46,2.46h-5.41c-.98-.49-1.48-.98-1.48-1.97v-3.94h-18.21c-1.97,0-3.94-.49-5.91-1.97-.49-.49-1.48-.98-1.97-1.48-.49-.49-.98-.98-1.48-1.48,0,0,0-.49-.49-.49v23.62c0,2.95,1.97,4.92,4.92,4.92h55.61c1.48,0,2.46-.49,3.44-1.48v49.21c0,6.4,4.92,11.32,11.32,11.32s11.32-4.92,11.32-11.32v-65.94h6.4v64.96c.49,6.4,5.91,10.83,11.81,10.33,5.41-.49,9.84-4.92,10.33-10.33v-64.96h23.13l-25.1-91.04s-.98-3.94,1.97-4.92c2.95-.98,3.44,2.95,3.44,2.95l14.27,48.23s2.95,10.33,11.81,7.87c8.86-2.46,5.91-12.79,5.91-12.79"/><path class="cls-1" d="M84.15,231.29c.98-1.97,2.46-4.92,9.35-5.91,1.48,0,2.46-.49,3.94-.98,.98-1.97,2.46-3.94,3.94-5.91v-.98c-.49-2.95-3.44-6.4-10.33-3.44-8.37,3.94-7.38,15.75-7.38,15.75,0,.98,0,1.97,.49,1.48"/><path class="cls-1" d="M143.2,224.4c.98,.49,2.46,.98,3.94,1.48,6.4,.98,8.37,3.94,9.35,5.91,0,.49,.49-.49,.49-1.48,0,0,.98-12.3-7.38-15.75-6.4-2.95-9.84,.49-10.33,3.44v1.48c1.48,.98,2.95,2.95,3.94,4.92"/><path class="cls-1" d="M120.07,259.83c12.3,0,22.64-10.33,22.64-22.64s-10.33-22.64-22.64-22.64-22.64,10.33-22.64,22.64,9.84,22.64,22.64,22.64"/><path class="cls-1" d="M62.5,375.47h3.94c.49,0,.98,.49,.98,.98v9.84c0,.49-.49,.98-.98,.98h-3.94c-.49,0-.98-.49-.98-.98v-9.84c0-.49,.49-.98,.98-.98"/><path class="cls-1" d="M222.92,453.22c0,6.4,5.41,11.81,11.81,11.81s11.81-5.41,11.81-11.81v-8.86h-23.62v8.86Z"/><path class="cls-1" d="M253.43,453.22c-.49,6.4,4.43,12.3,10.83,12.79,6.4,.49,12.3-4.43,12.79-10.83v-10.33h-23.62v8.37Z"/><path class="cls-1" d="M228.33,288.86v-23.62h-3.44c-14.76,1.48-25.59,13.78-25.59,28.05v59.05c-.49,4.43,2.95,8.37,7.38,8.86s8.37-2.95,8.86-7.38v-52.16c0-1.97,.49-4.43,3.94-4.43h8.86v-8.37Z"/><polygon class="cls-1" points="237.68 283.94 262.78 283.94 262.78 265.24 249.99 265.24 237.68 265.24 237.68 283.94"/><path class="cls-1" d="M269.18,302.64h-2.46v-13.78h-32.97v13.29h-10.83v136.31h23.62v-73.81c0-1.97,.98-3.44,2.95-3.44h.49c1.97,0,3.44,.98,3.44,2.95v74.8h23.62v-136.31h-7.87Z"/><path class="cls-1" d="M274.59,265.24h-2.46v31.99h7.87c3.44,0,3.94,2.46,3.94,4.43v50.69c-.49,4.43,2.95,8.37,7.38,8.86,4.43,.49,8.37-2.95,8.86-7.38v-60.53c0-14.76-10.83-26.57-25.59-28.05"/><path class="cls-1" d="M264.75,285.42c0,1.48,.98,2.46,2.46,2.46s2.46-.98,2.46-2.46-.98-2.46-2.46-2.46-2.46,.98-2.46,2.46"/><path class="cls-1" d="M230.79,285.42c0,1.48,.98,2.46,2.46,2.46s2.46-.98,2.46-2.46-.98-2.46-2.46-2.46-2.46,.98-2.46,2.46"/><path class="cls-1" d="M263.76,231.29c-1.97-1.48-3.44-2.95-6.4-1.48-1.97,.98-2.95,1.48-5.41,2.95-4.43,1.97-9.35,3.44-13.78,3.94-3.44,.49-7.38,.98-10.83,.98,.98,12.3,11.81,21.16,24.11,20.18,10.33-.98,18.7-8.86,19.68-19.68-2.46-2.46-4.92-4.92-7.38-6.89"/><path class="cls-1" d="M227.35,232.76c3.44,0,6.89-.49,10.33-.98,4.43-.98,8.37-1.97,12.3-3.94,2.46-.98,4.43-1.97,6.89-2.95,1.97-1.48,4.92-1.48,6.4,.49,.98,.49,.98,.98,1.48,1.48l5.91,4.92c.49,.49,.98,.98,1.48,.98s.49-3.94,.49-5.91c-.98-5.41-3.44-10.83-6.89-15.25-.98-1.48-2.95-2.46-4.92-1.97-2.95,.49-2.95-1.48-4.92-2.95-6.4-2.46-13.78-.98-19.19,2.95-6.4,5.41-11.32,11.81-14.27,19.68,0,1.97,1.97,3.44,4.92,3.44"/></g></svg>