<?xml version="1.0" encoding="UTF-8"?><svg id="Capa_1" xmlns="http://www.w3.org/2000/svg" viewBox="0 0 467 568.37"><defs><style>.cls-1{fill:#00486e;}.cls-2{fill:#fff;}</style></defs><path class="cls-1" d="M4.92,80.7H461.59V4.92H4.92V80.7Zm462.08,4.92H0V0H466.51V85.62h.49Z"/><polygon class="cls-1" points="16.73 17.72 38.88 17.72 38.88 24.6 32.48 24.6 32.48 67.91 23.62 67.91 23.62 24.6 16.73 24.6 16.73 17.72"/><path class="cls-1" d="M49.21,52.16h6.89l-3.44-20.18-3.44,20.18Zm-10.33,15.75l9.35-50.19h9.35l9.84,50.19h-8.86l-1.48-9.35h-8.86l-1.48,9.35h-7.87Z"/><path class="cls-1" d="M80.21,24.6v15.75h2.95c2.95,0,3.94-1.48,3.94-3.94v-7.38c0-2.95-1.48-3.94-3.94-3.94h-2.95v-.49Zm0,20.18v23.13h-8.37V17.72h12.3c8.37,0,11.81,4.43,11.81,11.32v6.4c0,5.41-1.97,8.37-6.89,9.84l7.87,22.64h-8.86l-7.87-23.13Z"/><path class="cls-1" d="M113.67,41.34h11.81v26.57h-5.91v-5.41c-.98,3.94-3.44,5.91-7.87,5.91-7.38,0-10.33-5.91-10.33-13.29V31c0-7.87,3.94-13.29,12.79-13.29,9.35,0,11.81,5.41,11.81,12.79v4.43h-7.87v-4.92c0-2.95-.98-4.92-4.43-4.92-2.95,0-4.43,1.97-4.43,4.92v27.07c0,2.95,1.48,4.92,3.94,4.92,2.95,0,3.94-1.48,3.94-4.92v-9.35h-3.94v-6.4h.49Z"/><polygon class="cls-1" points="132.37 17.72 152.55 17.72 152.55 24.6 140.74 24.6 140.74 38.88 149.11 38.88 149.11 45.77 140.74 45.77 140.74 61.02 152.55 61.02 152.55 67.91 132.37 67.91 132.37 17.72"/><polygon class="cls-1" points="156.49 17.72 178.63 17.72 178.63 24.6 171.74 24.6 171.74 67.91 163.38 67.91 163.38 24.6 156.49 24.6 156.49 17.72"/><polygon class="cls-1" points="348.4 17.72 348.4 67.91 340.04 67.91 340.04 29.53 334.13 35.43 334.13 27.07 342.01 18.21 348.4 18.21 348.4 17.72"/><polygon class="cls-1" points="354.31 17.72 375.47 17.72 375.47 25.59 364.64 67.91 356.28 67.91 367.6 24.6 354.8 24.6 354.8 17.72 354.31 17.72"/><path class="cls-1" d="M388.76,36.91c3.44,0,5.91,2.95,5.91,5.91,0,3.44-2.95,5.91-5.91,5.91-3.44,0-5.91-2.95-5.91-5.91s2.46-5.91,5.91-5.91"/><polygon class="cls-1" points="416.81 17.72 416.81 67.91 408.44 67.91 408.44 29.53 402.54 35.43 402.54 27.07 410.41 18.21 416.81 18.21 416.81 17.72"/><path class="cls-1" d="M439.93,56.59v-8.86c0-3.44-.98-4.92-3.94-4.92-2.46,0-3.94,1.97-3.94,4.43v9.35c0,2.95,.98,4.92,3.94,4.92s3.94-1.48,3.94-4.92m-16.24-1.48V30.51c0-7.87,3.44-13.29,12.3-13.29,9.35,0,11.81,5.41,11.81,12.79v2.46h-7.87v-3.44c0-2.95-.98-4.92-3.94-4.92s-3.94,1.97-3.94,4.92v10.83c1.48-2.46,3.44-3.94,6.89-3.94,5.91,0,9.35,3.94,9.35,12.3v7.38c0,7.87-3.44,12.79-12.3,12.79s-12.3-5.41-12.3-13.29"/><g><rect class="cls-1" x="0" y="101.86" width="466.51" height="466.51"/><path class="cls-2" d="M24.61,514.24s127.95-73.81,134.34-79.72c10.83-11.32,26.57-16.73,42.32-14.27,21.65,3.44,34.45,5.41,45.27,6.89,10.83,1.48,18.21,0,18.7,3.94,.98,4.92-4.92,9.84-13.78,10.83-8.86,.98-24.11-.49-27.07-.49s-5.41,.98-4.43,3.44c.98,2.46,18.21,3.44,23.62,2.95,12.3-.98,23.62-4.43,34.94-9.35,9.35-4.92,27.56-18.21,30.51-19.19,2.95-.98,8.86-3.94,10.83-.98,1.97,2.95-1.97,7.38-5.41,10.83-15.75,13.29-32.48,26.08-50.19,36.91-15.26,8.37-19.19,9.84-34.94,8.37-15.75-1.48-29.03-6.4-36.91-5.41-9.35,1.48-18.21,4.92-25.59,10.83-3.44,2.46-67.91,62.5-67.91,62.5H24.61v-28.05Z"/><path class="cls-2" d="M271.64,270.16c12.3-11.32,19.19-27.07,18.7-43.3,0-2.46,0-4.92-.49-7.38,26.08,2.95,44.78,26.08,41.83,51.67-.98,11.32-6.89,22.14-15.26,30.02-8.86-17.22-25.59-28.54-44.78-31m40.35,58.56c0,26.08-21.16,47.24-47.24,47.24-8.37,0-16.24-1.97-23.62-6.4,10.33-10.83,16.24-25.59,16.24-40.84,0-3.94-.49-7.38-.98-11.32,8.86,4.92,18.7,7.38,28.54,7.38,8.86,0,17.72-1.97,25.59-5.91,.98,3.44,.98,6.89,1.48,9.84m-160.92,.49c0-3.44,.49-6.4,.98-9.84,17.22,8.37,37.4,7.87,54.13-1.48-.49,3.44-.98,7.38-.98,10.83,0,15.26,5.91,30.02,16.73,41.34-7.38,4.43-15.25,6.4-23.62,6.4-26.08,0-47.24-21.16-47.24-47.24m-20.67-62.99c0-24.11,18.21-44.29,42.32-46.75-.49,2.46-.49,4.92-.49,7.38,0,16.73,6.89,32.48,19.19,43.8-19.19,2.46-35.92,13.78-45.27,31-9.84-9.35-15.75-22.14-15.75-35.43m100.88-86.61c18.7,0,35.92,11.32,43.3,28.54-19.19,3.44-34.94,15.75-43.3,33.46-8.37-17.72-24.11-30.02-43.3-33.46,7.38-17.22,24.6-28.54,43.3-28.54m11.32,107.28c6.89-3.44,14.27-5.41,21.65-5.41,18.21,0,34.45,10.33,42.32,26.57-23.13,11.81-51.18,2.95-63.48-19.68,0-.49-.49-.98-.49-1.48m-22.64,.49c-11.81,23.13-39.86,32.97-62.99,21.16-.49,0-.49-.49-.98-.49,7.87-15.75,24.11-26.08,42.32-26.08,7.38,0,14.76,1.97,21.65,5.41m-35.43-67.91c23.13,3.44,40.35,23.13,40.35,46.75,0,2.46,0,4.92-.49,7.38-23.13-3.44-40.35-23.13-40.35-46.75,0-2.46,0-4.92,.49-7.38m47.24,143.2c-18.7-18.21-19.19-47.73-.98-66.43,0-.49,.49-.49,.98-.98,18.7,18.21,19.19,48.23,.98,66.93-.98,0-.98,.49-.98,.49m46.75-135.82c0,23.62-17.22,43.3-40.35,46.75-.49-2.46-.49-4.92-.49-7.38,0-23.62,17.22-43.3,40.35-46.75,0,2.46,.49,4.92,.49,7.38m65.45,39.37c0-31.99-25.1-58.07-57.08-59.05-10.83-31-44.29-47.24-75.29-36.42-17.22,5.91-30.51,19.19-36.42,36.42-32.48,.98-58.07,28.05-57.08,61.02,.49,17.72,8.86,33.95,22.64,44.78-1.48,5.41-2.46,10.83-2.46,16.24,0,32.48,26.08,59.05,59.05,59.05,11.81,0,23.62-3.44,33.46-10.33,27.07,18.21,63.97,10.83,82.18-16.24,6.4-9.84,9.84-21.16,9.84-32.97,0-5.41-.98-10.83-2.46-16.24,15.26-10.83,23.62-28.05,23.62-46.26"/></g></svg>