<?xml version="1.0" encoding="UTF-8"?><svg id="Capa_1" xmlns="http://www.w3.org/2000/svg" viewBox="0 0 467 568.37"><defs><style>.cls-1{fill:#fff;}.cls-2{fill:#fcbc00;}</style></defs><path class="cls-2" d="M4.92,80.7H461.59V4.92H4.92V80.7Zm462.08,4.92H0V0H466.51V85.62h.49Z"/><polygon class="cls-2" points="16.73 17.72 38.88 17.72 38.88 24.6 32.48 24.6 32.48 67.91 23.62 67.91 23.62 24.6 16.73 24.6 16.73 17.72"/><path class="cls-2" d="M49.21,52.16h6.89l-3.44-20.18-3.44,20.18Zm-10.33,15.75l9.35-50.19h9.35l9.84,50.19h-8.86l-1.48-9.35h-8.86l-1.48,9.35h-7.87Z"/><path class="cls-2" d="M80.21,24.6v15.75h2.95c2.95,0,3.94-1.48,3.94-3.94v-7.38c0-2.95-1.48-3.94-3.94-3.94h-2.95v-.49Zm0,20.18v23.13h-8.37V17.72h12.3c8.37,0,11.81,4.43,11.81,11.32v6.4c0,5.41-1.97,8.37-6.89,9.84l7.87,22.64h-8.86l-7.87-23.13Z"/><path class="cls-2" d="M113.67,41.34h11.81v26.57h-5.91v-5.41c-.98,3.94-3.44,5.91-7.87,5.91-7.38,0-10.33-5.91-10.33-13.29V31c0-7.87,3.94-13.29,12.79-13.29,9.35,0,11.81,5.41,11.81,12.79v4.43h-7.87v-4.92c0-2.95-.98-4.92-4.43-4.92-2.95,0-4.43,1.97-4.43,4.92v27.07c0,2.95,1.48,4.92,3.94,4.92,2.95,0,3.94-1.48,3.94-4.92v-9.35h-3.94v-6.4h.49Z"/><polygon class="cls-2" points="132.37 17.72 152.55 17.72 152.55 24.6 140.74 24.6 140.74 38.88 149.11 38.88 149.11 45.77 140.74 45.77 140.74 61.02 152.55 61.02 152.55 67.91 132.37 67.91 132.37 17.72"/><polygon class="cls-2" points="156.49 17.72 178.63 17.72 178.63 24.6 171.74 24.6 171.74 67.91 163.38 67.91 163.38 24.6 156.49 24.6 156.49 17.72"/><path class="cls-2" d="M431.08,52.16h6.89l-3.44-20.18-3.44,20.18Zm-10.33,15.75l9.35-50.19h9.35l9.35,50.19h-8.86l-1.48-9.35h-8.86l-1.48,9.35h-7.38Z"/><polygon class="cls-2" points="372.03 17.72 393.19 17.72 393.19 25.59 382.36 67.91 373.99 67.91 385.31 24.6 372.52 24.6 372.52 17.72 372.03 17.72"/><polygon class="cls-2" points="404.01 32.48 404.01 53.15 414.84 42.81 404.01 32.48"/><g><rect class="cls-2" x="0" y="101.86" width="466.51" height="466.51"/><path class="cls-1" d="M59.54,508.34H19.68v-9.84H59.54c2.95,.49,6.4-.98,8.37-2.95,1.97-1.97,2.95-4.43,2.95-7.38v-13.78h9.84v13.78c0,5.41-1.97,10.33-5.41,14.27-3.94,3.94-9.84,6.4-15.75,5.91"/><path class="cls-1" d="M233.75,359.72c-15.75,0-28.54-13.29-28.54-29.03,0-12.3,7.87-23.13,19.68-27.07v10.83c-9.35,4.92-12.79,15.75-8.37,25.1,4.92,9.35,15.75,12.79,25.1,8.37,9.35-4.43,12.79-15.75,8.37-25.1-1.97-3.44-4.43-6.4-8.37-8.37v-10.83c15.25,4.92,23.62,20.67,18.7,35.92-2.95,11.81-14.27,20.18-26.57,20.18m-4.43-62c0-1.97,1.97-3.94,3.94-3.94s3.94,1.48,3.94,3.94v19.19c0,1.97-1.97,3.94-3.94,3.94s-3.94-1.48-3.94-3.94v-19.19Zm4.43-21.65c-30.51,0-55.11,24.6-55.11,55.11s24.6,55.11,55.11,55.11,55.11-24.6,55.11-55.11-24.6-55.11-55.11-55.11"/><path class="cls-1" d="M137.79,330.69c0,2.46,1.97,4.43,4.43,4.43h23.62c2.46,0,4.43-1.97,4.43-4.43s-1.97-4.43-4.43-4.43h-24.11c-1.97,0-3.94,1.97-3.94,4.43"/><path class="cls-1" d="M329.71,330.69c0-2.46-1.97-4.43-4.43-4.43h-24.11c-2.46,0-4.43,1.97-4.43,4.43s1.97,4.43,4.43,4.43h24.11c2.46,0,4.43-1.97,4.43-4.43"/><path class="cls-1" d="M238.18,263.27v-24.11c-.49-2.46-2.46-4.43-4.92-3.94-1.97,0-3.94,1.97-3.94,3.94v24.11c.49,2.46,2.46,4.43,4.92,3.94,1.97,0,3.94-1.97,3.94-3.94"/><path class="cls-1" d="M228.83,398.6v24.11c.49,2.46,2.46,4.43,4.92,3.94,1.97,0,3.94-1.97,3.94-3.94v-24.11c-.49-2.46-2.46-4.43-4.92-3.94-1.97,0-3.44,1.48-3.94,3.94"/><path class="cls-1" d="M172.75,301.16c1.96,.98,4.9,0,5.88-1.97,.98-1.97,.49-4.43-1.47-5.91l-21.07-11.81c-1.96-.98-4.9-.49-5.88,1.97-.98,1.97-.49,4.43,1.47,5.91l21.07,11.81Z"/><path class="cls-1" d="M289.84,368.09l21.16,11.81c1.97,1.48,4.92,.49,6.4-1.48,1.48-1.97,.49-4.92-1.48-6.4l-21.16-11.81c-1.97-1.48-4.92-.49-6.4,1.48-1.48,2.46-.49,5.41,1.48,6.4"/><path class="cls-1" d="M265.24,275.95c1.97,.98,4.43,.49,5.91-1.47l11.81-21.07c.98-1.96,0-4.9-1.97-5.88-1.97-.98-4.43-.49-5.91,1.47l-11.81,21.07c-.98,1.96-.49,4.41,1.97,5.88"/><path class="cls-1" d="M196.35,387.28l-11.81,21.16c-.98,1.97,0,4.92,1.97,5.91,1.97,.98,4.43,.49,5.91-1.48l11.81-21.16c.98-1.97,.49-4.92-1.97-5.91-1.97-.98-4.92-.49-5.91,1.48"/><path class="cls-1" d="M202.26,276.07c1.96-.98,2.94-3.94,1.96-5.91l-11.76-20.67c-1.47-1.97-3.92-2.95-6.37-1.48-2.45,1.48-2.94,3.94-1.47,6.4l11.76,20.67c.98,1.48,3.43,1.97,5.88,.98"/><path class="cls-1" d="M265.24,385.8c-1.97,1.47-2.95,3.92-1.97,5.88l12.3,20.58c1.48,1.96,3.94,2.45,6.4,1.47,1.97-1.47,2.46-3.92,1.48-5.88l-12.3-20.58c-1.48-1.96-3.94-2.45-5.91-1.47"/><path class="cls-1" d="M294.27,301.16l21.16-12.3c1.97-1.48,2.46-3.94,1.48-6.4-1.48-1.97-3.94-2.46-5.91-1.48l-20.67,11.81c-1.97,1.48-2.95,3.94-1.48,6.4,.49,1.97,3.44,2.95,5.41,1.97"/><path class="cls-1" d="M156.49,380.39l20.67-11.81c1.97-1.48,2.95-3.94,1.48-6.4-1.48-1.97-3.94-2.95-6.4-1.48l-20.18,11.81c-1.97,1.48-2.46,3.94-1.48,6.4,1.48,1.97,3.94,2.46,5.91,1.48"/><path class="cls-1" d="M400.57,207.17c5.41,0,9.35,4.43,9.35,9.35,0,5.41-4.43,9.35-9.35,9.35s-9.35-4.43-9.35-9.35,4.43-9.35,9.35-9.35m-39.37,14.27h21.16c2.95,10.33,13.29,16.24,23.62,13.78,6.89-1.97,11.81-6.89,13.78-13.78h26.08v-9.84h-26.57c-1.97-6.89-6.89-11.81-13.78-13.78v-9.84c0-4.43,0-12.79,4.43-17.22,2.46-2.46,5.91-3.44,9.35-3.44h26.08v-9.84h-26.08c-5.91-.49-12.3,1.97-16.73,5.91-7.38,7.38-7.38,18.21-7.38,24.11v9.84c-6.4,1.97-11.81,6.89-13.78,13.78h-21.16c-14.76,0-27.07-11.81-27.07-27.07v-62.5h-9.84v63.48c1.48,20.18,17.72,36.42,37.89,36.42"/><path class="cls-1" d="M155.99,156.49c5.41,0,9.35,3.94,9.35,9.35s-3.94,9.35-9.35,9.35-9.35-3.94-9.35-9.35c0-4.92,4.43-9.35,9.35-9.35m-135.82,12.3h0l25.1,19.19s.49,.49,.98,.49,.98-.49,.98-.98v-15.75l90.55-.49c1.97,6.4,6.89,11.32,13.78,13.29h.49v-1.97h9.84v1.48c6.4-1.97,11.32-6.89,12.79-13.29h37.4c4.43,0,8.86,1.97,12.3,4.92,2.95,3.44,4.43,7.87,4.43,12.3v35.43h9.84v-35.43c.49-7.38-2.46-14.27-7.38-19.68-5.41-4.92-12.3-7.38-19.68-7.38h-36.91c-1.48-6.4-6.89-11.81-13.29-13.78v-25.59h-9.84v25.59c-7.38,1.48-12.79,7.38-14.27,14.27H47.73v-13.78c0-.49-.49-.98-.98-.98h-.49l-25.59,19.68q-.49,.49-.49,.98-.49,.98,0,1.48"/><rect class="cls-1" x="70.86" y="378.91" width="9.84" height="9.84"/><rect class="cls-1" x="70.86" y="418.28" width="9.84" height="9.84"/><rect class="cls-1" x="70.86" y="359.23" width="9.84" height="9.84"/><rect class="cls-1" x="70.86" y="398.6" width="9.84" height="9.84"/><path class="cls-1" d="M373.01,483.24c0,5.41-4.43,9.35-9.35,9.35-5.41,0-9.35-4.43-9.35-9.35,0-5.41,4.43-9.35,9.35-9.35,5.41,0,9.35,3.94,9.35,9.35m73.81-84.15h0l-25.1-19.68s-.49-.49-.98-.49-.98,.49-.98,.98v15.75h-33.95c-6.89-.49-13.78,1.48-19.19,6.4-5.41,5.41-8.37,12.79-7.87,20.67v41.83c-6.89,1.97-11.81,6.89-13.78,13.78h-89.56c-8.86,0-16.24-6.89-16.73-15.75v-25.59h-9.84v25.59c.49,14.27,12.3,25.59,26.57,25.59h90.05c1.97,6.89,6.89,11.81,13.78,13.78v46.75h9.84v-46.75c6.89-1.97,11.81-6.89,13.78-13.78h63.48v-9.84h-63.97c-1.97-6.89-6.89-11.81-13.78-13.78v-41.83c-.49-4.92,1.48-9.84,4.43-13.29,3.44-2.95,7.87-3.94,12.3-3.94h33.95v13.78c0,.49,.49,.98,.98,.98h.98l25.1-19.68q.49-.49,.49-.98v-.49Z"/><path class="cls-1" d="M75.78,466.02c-5.41,0-9.35-4.43-9.35-9.35s4.43-9.35,9.35-9.35,9.35,4.43,9.35,9.35c.49,4.92-3.94,9.35-9.35,9.35,.49,0,0,0,0,0m127.95,54.13h-14.27v-47.24c0-12.3-9.84-22.64-22.64-22.64H93.99c-1.97-5.91-6.89-10.83-13.29-12.3-3.44-.98-6.4-.98-9.84,0-5.91,1.48-10.83,6.4-13.29,12.3H19.68v9.84H57.08c1.48,7.38,6.89,13.29,13.78,15.25,3.44,.98,6.4,.98,9.84,0,7.38-1.97,12.79-7.87,14.27-15.25h71.85c6.89,0,12.79,5.91,12.79,12.79v47.24h-15.26c-.49,0-.98,.49-.98,1.48v.49l19.68,25.1c.49,0,.49,.49,.98,.49h.98l18.7-25.1s.49-.49,.49-.98,0-.98-.49-1.48"/><rect class="cls-1" x="395.67" y="279.52" width="9.35" height="9.84" transform="translate(113.94 683.38) rotate(-89.72)"/><rect class="cls-1" x="396" y="261.08" width="9.35" height="9.84" transform="translate(132.71 665.36) rotate(-89.72)"/><rect class="cls-1" x="395.85" y="242.73" width="9.35" height="9.84" transform="translate(150.91 646.95) rotate(-89.72)"/><path class="cls-1" d="M366.61,349.88v-13.78h18.7c10.83,0,20.18-8.86,20.18-20.18v-17.22h-9.84v17.72c0,5.41-4.43,10.33-10.33,10.33h-18.7v-15.75c0-.49-.49-.98-.98-.98h-.98l-25.1,19.68h-.49c0,.49-.49,.49-.49,.98v.98l25.1,19.19s.49,.49,.98,.49,.98-.49,.98-.98l.98-.49Z"/><path class="cls-1" d="M85.13,330.69c0,5.41-4.43,9.35-9.35,9.35-5.41,0-9.35-4.43-9.35-9.35,0-5.41,4.43-9.35,9.35-9.35,5.41,0,9.35,3.94,9.35,9.35m66.43-146.15v21.16c0,2.46-.98,5.41-2.95,7.38-2.46,1.97-5.41,2.95-8.37,2.95h-39.86c-7.38,0-14.76,2.46-20.67,7.38-5.91,5.91-9.35,13.78-8.86,22.14v66.93c-6.4,1.97-11.81,6.89-13.29,13.29H19.68v9.84H57.58c1.97,6.89,6.89,11.81,13.78,13.78,3.44,.98,6.4,.98,9.84,0,6.89-1.97,11.81-6.89,13.78-13.78h33.95v-9.84h-33.95c-1.97-6.4-6.89-11.81-13.78-13.78v-66.93c-.49-5.41,1.48-10.83,5.41-14.76,3.94-3.44,9.35-4.92,14.27-4.92h39.86c10.83,.98,20.18-7.38,21.16-18.21v-23.13h-.49c-3.44,.98-6.4,.98-9.84,.49"/><path class="cls-1" d="M151.57,182.57v1.97c2.95,.49,6.4,.49,9.35,0h.49v-1.48l-9.84-.49Z"/></g></svg>