<?xml version="1.0" encoding="UTF-8"?><svg id="Capa_1" xmlns="http://www.w3.org/2000/svg" viewBox="0 0 467 568.37"><defs><style>.cls-1{fill:#010101;}.cls-2{fill:#fff;}.cls-3{fill:#141111;}.cls-4{fill:#090a0a;}.cls-5{fill:#0d0e0e;}.cls-6{fill:#285c29;}.cls-7{fill:#24a038;}.cls-8{fill:#264620;}.cls-9{fill:#267933;}</style></defs><path class="cls-7" d="M4.92,80.71H461.59V4.92H4.92V80.71Zm462.08,4.92H0V0H466.51l.5,85.63Z"/><polygon class="cls-7" points="16.73 17.72 38.88 17.72 38.88 24.61 32.48 24.61 32.48 67.91 23.62 67.91 23.62 24.61 16.73 24.61 16.73 17.72"/><path class="cls-7" d="M49.21,52.16h6.89l-3.44-20.18-3.45,20.18Zm-10.33,15.75l9.35-50.19h9.35l9.84,50.19h-8.86l-1.48-9.35h-8.86l-1.48,9.35h-7.87Z"/><path class="cls-7" d="M80.21,24.61v15.75h2.95c2.95,0,3.94-1.47,3.94-3.93v-7.38c0-2.96-1.48-3.94-3.94-3.94l-2.95-.49Zm0,20.18v23.13h-8.37V17.72h12.3c8.37,0,11.81,4.43,11.81,11.32v6.39c0,5.41-1.97,8.37-6.89,9.84l7.87,22.64h-8.86l-7.87-23.13Z"/><path class="cls-7" d="M113.68,41.34h11.81v26.57h-5.91v-5.41c-.98,3.93-3.44,5.91-7.87,5.91-7.38,0-10.33-5.91-10.33-13.29V31.01c0-7.87,3.94-13.29,12.79-13.29,9.35,0,11.81,5.42,11.81,12.8v4.43h-7.87v-4.92c0-2.95-.98-4.92-4.43-4.92-2.95,0-4.43,1.97-4.43,4.92v27.07c0,2.96,1.48,4.92,3.94,4.92,2.95,0,3.94-1.47,3.94-4.92v-9.35h-3.94v-6.4h.49Z"/><polygon class="cls-7" points="132.38 17.72 152.55 17.72 152.55 24.61 140.74 24.61 140.74 38.88 149.11 38.88 149.11 45.77 140.74 45.77 140.74 61.02 152.55 61.02 152.55 67.91 132.38 67.91 132.38 17.72"/><polygon class="cls-7" points="156.49 17.72 178.63 17.72 178.63 24.61 171.74 24.61 171.74 67.91 163.38 67.91 163.38 24.61 156.49 24.61 156.49 17.72"/><path class="cls-7" d="M431.08,52.16h6.89l-3.44-20.18-3.44,20.18Zm-10.34,15.75l9.35-50.19h9.35l9.35,50.19h-8.85l-1.48-9.35h-8.86l-1.48,9.35h-7.38Z"/><path class="cls-7" d="M392.69,28.54v4.43c0,4.43-2.46,6.89-5.9,8.37,4.43,.98,6.4,3.94,6.4,8.37v7.38c0,6.89-3.94,11.32-12.3,11.32s-11.81-4.92-11.81-12.3v-6.4h7.88v7.38c0,2.95,.98,4.92,3.94,4.92,2.46,0,3.94-1.97,3.94-4.43v-8.37c0-2.46-.99-3.93-3.94-3.93h-3.44v-6.4h2.95c2.96,0,4.43-1.48,4.43-3.94v-6.4c0-2.95-.99-4.43-3.45-4.43s-3.93,1.97-3.93,4.92v4.92h-7.87v-4.43c0-7.38,2.95-12.79,11.81-12.79,7.88,.49,11.32,4.92,11.32,11.81"/><polygon class="cls-7" points="404.02 32.48 404.02 53.15 414.84 42.81 404.02 32.48"/><g><rect class="cls-7" x="0" y="101.87" width="466.51" height="466.51"/><rect class="cls-1" x="147.63" y="325.28" width="248.51" height="43.8"/><rect class="cls-1" x="104.82" y="325.28" width="34.94" height="43.8"/><path class="cls-1" d="M82.18,191.43s27.56,21.16-3.94,72.34c-29.53,48.23,3.94,79.23,14.27,83.16-9.84-26.57-6.89-56.59,7.38-80.7,15.75-27.07,10.83-68.89-17.72-74.8"/><path class="cls-9" d="M273.61,167.81c-21.44,0-39.49,16.06-42.02,37.22,2.17-.21,4.37-.31,6.59-.31,27.06,0,50.69,15.41,62.28,38.12,9.41-7.72,15.46-19.44,15.46-32.71,0-23.62-18.7-42.32-42.32-42.32"/><path class="cls-9" d="M63.56,258.48c-8.35,9.69-13.37,22.37-13.37,36.29,0,12.7,4.26,24.29,11.44,33.5,1.4-5.6,3.35-10.99,5.78-16.09-2.19-10.71-1.34-23.61,5.46-38.4-3.72-4.66-6.86-9.79-9.32-15.3"/><path class="cls-4" d="M72.88,273.78c-6.8,14.79-7.64,27.7-5.46,38.4,4.63-9.69,11-18.37,18.74-25.63-4.96-3.66-9.43-7.96-13.28-12.77"/><path class="cls-9" d="M231.59,205.03c-13.1,1.25-25.19,6.16-35.21,13.69,.62,3.76,.95,7.64,.95,11.59,0,15.69-5.26,30.23-14.11,41.94,21.32,10.63,37.74,29.87,44.58,53.04h58.31c13.48-12.77,21.94-30.8,21.94-50.69,0-11.47-2.74-22.26-7.59-31.76-7.34,6.02-16.72,9.61-26.85,9.61-23.13,0-42.32-19.19-42.32-42.32,0-1.73,.1-3.43,.3-5.1"/><path class="cls-4" d="M286.12,325.28h-58.31c1.78,6.04,2.92,12.34,3.32,18.84,2.32,.24,4.67,.36,7.05,.36,18.5,0,35.4-7.32,47.94-19.19"/><path class="cls-6" d="M238.18,204.71c-2.22,0-4.42,.1-6.59,.31-.2,1.67-.3,3.37-.3,5.1,0,23.13,19.19,42.32,42.32,42.32,10.13,0,19.51-3.59,26.86-9.61-11.59-22.71-35.23-38.12-62.29-38.12"/><path class="cls-9" d="M87.15,413.15c-4.11,7.55-6.44,16.19-6.44,25.31,0,29.53,23.62,53.15,52.65,53.15,.3,0,.59,0,.88,0,29.11,0,52.26-23.92,52.26-52.66,0-4.5-.57-8.88-1.64-13.05-11.86,6.14-25.36,9.61-39.7,9.61-22.4,0-42.74-8.45-58.02-22.35"/><path class="cls-9" d="M250.19,369.07h-21.14c-4.54,19.59-15.72,36.56-31.06,48.45,5.69,3.59,12.39,5.68,19.52,5.68,20.18,0,36.91-16.73,36.91-36.91,0-6.26-1.53-12.11-4.23-17.22"/><path class="cls-4" d="M231.25,352.03c-.17,5.85-.93,11.55-2.2,17.05h21.14c-4.08-7.73-10.81-13.79-18.94-17.05"/><path class="cls-9" d="M127.46,160.42c-38.38,0-69.88,31.49-69.88,69.88,0,10.01,2.14,19.55,5.99,28.18,6.65-7.71,15.41-13.52,25.45-16.53,12.8-35.46-6.83-50.53-6.83-50.53,20.13,4.17,28.51,26.21,26.17,48.34,17.43,1.09,32.63,10.24,41.92,23.66,6.36,.38,12.55,1.46,18.48,3.17,2.25-19.48,12.63-36.62,27.62-47.88-.93-5.62-2.53-11-4.71-16.07-5.73,5.24-13.38,8.46-21.89,8.46-18.2,0-32.48-14.27-32.48-32.48,0-6.16,1.64-11.87,4.5-16.73-4.63-.97-9.43-1.48-14.34-1.48"/><path class="cls-4" d="M82.18,191.43s19.63,15.06,6.83,50.53c4.99-1.5,10.29-2.3,15.81-2.3,1.19,0,2.37,.04,3.54,.11,2.34-22.13-6.04-44.17-26.17-48.34"/><path class="cls-6" d="M108.36,239.76c-.97,9.24-3.82,18.49-8.46,26.46-2.77,4.67-5.11,9.57-7.01,14.62,14.47-11.04,32.58-17.58,52.29-17.58,1.71,0,3.42,.05,5.11,.15-9.3-13.42-24.49-22.57-41.92-23.66m-19.35,2.19c-10.03,3.01-18.8,8.82-25.45,16.53,2.45,5.5,5.59,10.64,9.32,15.29,1.49-3.25,3.27-6.59,5.37-10.01,4.92-7.99,8.4-15.25,10.76-21.81"/><path class="cls-5" d="M104.82,239.65c-5.51,0-10.82,.8-15.81,2.3-2.37,6.56-5.85,13.82-10.76,21.81-2.09,3.42-3.88,6.76-5.37,10.01,3.85,4.81,8.31,9.11,13.28,12.77,2.14-2.01,4.39-3.92,6.73-5.7,1.9-5.05,4.24-9.95,7.01-14.62,4.64-7.97,7.48-17.22,8.46-26.46-1.17-.07-2.35-.11-3.54-.11"/><path class="cls-6" d="M196.38,218.71c-14.99,11.27-25.37,28.4-27.62,47.88,5.02,1.45,9.86,3.35,14.46,5.64,8.85-11.71,14.11-26.25,14.11-41.94,0-3.95-.33-7.82-.95-11.59"/><path class="cls-9" d="M169.27,286.17c-2.96,2.22-6.09,4.22-9.38,5.96,.03,.71,.04,1.43,.04,2.15,0,11.51-3.43,22.18-9.34,31h39.64c-10.81-10.24-18.39-23.86-20.97-39.11m-107.63,42.1c-1.69,6.75-2.59,13.83-2.59,21.12,0,25.34,10.81,48.04,28.1,63.76,8.98-16.49,26.45-27.84,46.7-27.84,24.53,.83,45.2,17.82,51.02,40.59,4.64-2.4,9.03-5.21,13.12-8.38-10.4-6.57-17.39-18.18-17.39-31.22,0-6.19,1.57-12.06,4.35-17.22h-37.32v-39.78c-2.35,2.89-4.99,5.55-7.87,7.9v31.88h-34.94v-19.68c-17.61-.15-33.21-8.33-43.18-21.12"/><path class="cls-4" d="M190.24,325.28h-39.64c-.93,1.38-1.92,2.72-2.96,4.01v39.79h37.32c6.25-11.65,18.58-19.68,32.56-19.68,4.84,0,9.48,.93,13.74,2.64,.02-.88,.04-1.76,.04-2.64,0-1.77-.06-3.53-.16-5.28-15.72-1.6-29.96-8.49-40.89-18.84"/><path class="cls-4" d="M139.76,337.19c-9.35,7.64-21.3,12.2-34.45,12.2-.16,0-.33,0-.49,0v19.69h34.94v-31.88Z"/><path class="cls-6" d="M90.15,289.29c-5.14,18.76-4.52,39.05,2.37,57.64-6.26-2.38-21-14.7-25.1-34.75-2.43,5.1-4.38,10.48-5.78,16.09,9.97,12.79,25.57,20.97,43.18,21.12v-24.11h34.94v11.91c2.88-2.36,5.52-5,7.87-7.9v-4.01h2.96c5.91-8.82,9.34-19.49,9.34-31,0-.72-.02-1.44-.04-2.15-9.71,5.14-20.75,8.06-32.44,8.06-13.68,0-26.49-4-37.31-10.89"/><path class="cls-5" d="M150.59,325.28h-2.96v4.01c1.05-1.29,2.03-2.63,2.96-4.01"/><path class="cls-5" d="M139.76,325.28h-34.94v24.11c.16,0,.33,0,.49,0,13.14,0,25.09-4.56,34.45-12.2v-11.91Z"/><path class="cls-5" d="M86.16,286.55c-7.73,7.26-14.11,15.94-18.73,25.63,4.09,20.06,18.83,32.37,25.09,34.75-6.89-18.6-7.51-38.88-2.37-57.64-1.36-.87-2.69-1.78-3.99-2.74"/><path class="cls-6" d="M183.22,272.24c-3.98,5.27-8.68,9.96-13.96,13.93,2.58,15.25,10.16,28.87,20.97,39.11h37.57c-6.84-23.17-23.26-42.4-44.58-53.04"/><path class="cls-5" d="M227.81,325.28h-37.57c10.93,10.35,25.17,17.23,40.89,18.84-.4-6.49-1.53-12.79-3.32-18.84"/><path class="cls-6" d="M133.85,385.31c-20.25,0-37.72,11.34-46.7,27.84,15.28,13.9,35.62,22.36,58.02,22.36,14.34,0,27.84-3.47,39.7-9.61-5.82-22.77-26.49-39.76-51.02-40.59"/><path class="cls-6" d="M229.05,369.07h-44.1c-2.77,5.16-4.35,11.03-4.35,17.22,0,13.04,6.99,24.65,17.39,31.22,15.34-11.89,26.52-28.86,31.06-48.45"/><path class="cls-5" d="M217.51,349.39c-13.98,0-26.31,8.04-32.56,19.68h44.1c1.27-5.49,2.02-11.2,2.2-17.05-4.26-1.7-8.9-2.64-13.74-2.64"/><path class="cls-6" d="M150.28,263.42c5.71,8.24,9.19,18.1,9.61,28.7,3.29-1.74,6.42-3.73,9.38-5.96-.64-3.77-.97-7.63-.97-11.57,0-2.7,.15-5.37,.46-7.99-5.93-1.71-12.11-2.79-18.48-3.17"/><path class="cls-8" d="M145.17,263.27c-19.7,0-37.81,6.54-52.29,17.58-1.05,2.77-1.96,5.59-2.74,8.44,10.82,6.89,23.63,10.89,37.31,10.89,11.68,0,22.72-2.92,32.43-8.06-.42-10.6-3.9-20.46-9.61-28.7-1.69-.1-3.4-.15-5.11-.15"/><path class="cls-3" d="M92.88,280.85c-2.34,1.79-4.59,3.69-6.73,5.7,1.3,.96,2.63,1.87,3.99,2.74,.78-2.85,1.69-5.67,2.74-8.44"/><path class="cls-8" d="M168.76,266.6c-.3,2.62-.46,5.29-.46,7.99,0,3.94,.33,7.81,.97,11.57,5.27-3.97,9.98-8.66,13.95-13.92-4.61-2.3-9.45-4.2-14.46-5.64"/><path class="cls-9" d="M169.77,146.15c-12.04,0-22.37,6.25-27.97,15.74,22.41,4.67,40.97,20.08,49.86,40.75,6.54-5.98,10.59-14.58,10.59-24.01,0-18.21-14.76-32.48-32.48-32.48"/><path class="cls-6" d="M141.8,161.9c-2.87,4.86-4.5,10.57-4.5,16.73,0,18.2,14.27,32.48,32.48,32.48,8.51,0,16.16-3.22,21.89-8.47-8.89-20.66-27.46-36.07-49.86-40.75"/><polygon class="cls-2" points="343.98 258.84 333.15 248.51 245.06 336.1 157.47 248.51 146.65 258.84 234.24 346.93 146.65 434.52 157.47 445.35 245.06 357.76 333.15 445.35 343.98 434.52 255.89 346.93 343.98 258.84"/></g></svg>