<?xml version="1.0" encoding="UTF-8"?><svg id="Capa_1" xmlns="http://www.w3.org/2000/svg" viewBox="0 0 467 568.37"><defs><style>.cls-1{fill:#fff;}.cls-2{fill:#c88b0c;}</style></defs><path class="cls-2" d="M4.92,80.7H461.59V4.92H4.92V80.7Zm462.08,4.92H0V0H466.51V85.62h.49Z"/><polygon class="cls-2" points="16.73 17.72 38.88 17.72 38.88 24.6 32.48 24.6 32.48 67.91 23.62 67.91 23.62 24.6 16.73 24.6 16.73 17.72"/><path class="cls-2" d="M49.21,52.16h6.89l-3.44-20.18-3.44,20.18Zm-10.33,15.75l9.35-50.19h9.35l9.84,50.19h-8.86l-1.48-9.35h-8.86l-1.48,9.35h-7.87Z"/><path class="cls-2" d="M80.21,24.6v15.75h2.95c2.95,0,3.94-1.48,3.94-3.94v-7.38c0-2.95-1.48-3.94-3.94-3.94h-2.95v-.49Zm0,20.18v23.13h-8.37V17.72h12.3c8.37,0,11.81,4.43,11.81,11.32v6.4c0,5.41-1.97,8.37-6.89,9.84l7.87,22.64h-8.86l-7.87-23.13Z"/><path class="cls-2" d="M113.67,41.34h11.81v26.57h-5.91v-5.41c-.98,3.94-3.44,5.91-7.87,5.91-7.38,0-10.33-5.91-10.33-13.29V31c0-7.87,3.94-13.29,12.79-13.29,9.35,0,11.81,5.41,11.81,12.79v4.43h-7.87v-4.92c0-2.95-.98-4.92-4.43-4.92-2.95,0-4.43,1.97-4.43,4.92v27.07c0,2.95,1.48,4.92,3.94,4.92,2.95,0,3.94-1.48,3.94-4.92v-9.35h-3.94v-6.4h.49Z"/><polygon class="cls-2" points="132.37 17.72 152.55 17.72 152.55 24.6 140.74 24.6 140.74 38.88 149.11 38.88 149.11 45.77 140.74 45.77 140.74 61.02 152.55 61.02 152.55 67.91 132.37 67.91 132.37 17.72"/><polygon class="cls-2" points="156.49 17.72 178.63 17.72 178.63 24.6 171.74 24.6 171.74 67.91 163.38 67.91 163.38 24.6 156.49 24.6 156.49 17.72"/><g><rect class="cls-2" x="0" y="101.86" width="466.51" height="466.51"/><path class="cls-1" d="M321.34,424.19c-9.84-7.38-21.65-11.32-33.95-11.32-2.95,0-5.41,0-8.37,.98h-.98c-7.87,1.97-21.65,4.92-36.91,24.6l-.49,.49c-.49,.49-.49,.98-.49,.98q0,.49,.49,.98l.49,.49c2.46,4.43,4.92,7.87,6.4,11.32,.49,.98,1.97,1.48,2.95,.98l.49-.49,.49-.49c13.78-18.7,24.11-21.16,31-23.13h.98c1.48,0,2.95-.49,4.43-.49,8.37,0,16.73,2.46,23.62,7.38,7.87,6.4,11.81,16.24,11.81,29.53,0,22.14-10.83,31-19.68,34.45-3.44,1.48-7.38,1.97-10.83,1.97-5.91,0-11.32-1.48-16.73-3.94l-.49-.49c-7.87-3.44-19.68-10.33-30.51-32.48-22.64-45.27-41.83-49.7-54.13-52.65h-.49c-2.46-.49-5.41-.98-8.37-.98-11.81,0-23.62,3.94-33.46,10.83-8.37,6.4-17.72,19.19-17.72,42.81-1.48,27.07,19.19,50.19,46.26,52.16h3.44c3.94,0,7.87-.49,11.32-.98,7.38-1.48,13.78-4.43,19.68-8.86l6.4,5.91c.98,.49,1.97,.49,2.46,0s.49-.98,.49-.98l4.92-31.49v-.49c0-.49,0-.98-.49-1.48s-.98-.49-1.48-.49l-30.51,8.37h-.49c-.49,0-.49,.49-.98,.49-.49,.49-.49,.98-.49,1.48s0,.98,.49,1.48l6.4,5.91c-2.95,1.97-6.4,3.44-9.84,3.94-2.46,.49-5.41,.98-8.37,.98-9.84,0-19.68-4.43-26.08-11.81-5.41-6.4-7.87-14.76-6.89-23.62,0-13.29,3.94-23.13,11.81-29.53,6.4-4.92,14.76-7.38,22.64-7.38,1.48,0,2.95,0,4.43,.49h.49c9.84,2.46,23.62,5.41,42.81,43.8,9.84,20.18,22.64,33.46,38.38,40.35,7.38,3.44,15.75,5.41,24.11,5.41,5.91,0,11.32-.98,16.73-2.95,9.35-3.44,31-15.25,31-50.19,0-22.64-9.84-35.43-18.21-41.83"/><path class="cls-1" d="M227.35,255.89H87.59c-1.48,0-2.46,.98-2.46,2.46v5.91c0,1.48,.98,2.46,2.46,2.46H227.35c1.48,0,2.46-.98,2.46-2.46v-5.91c0-1.48-.98-2.46-2.46-2.46"/><path class="cls-1" d="M227.35,361.2H87.59c-1.48,0-2.46,.98-2.46,2.46v11.32c0,1.48,.98,2.46,2.46,2.46H227.35c1.48,0,2.46-.98,2.46-2.46v-11.32c0-1.48-.98-2.46-2.46-2.46"/><path class="cls-1" d="M229.32,245.56c-8.86-39.86-48.72-64.46-88.58-55.61-27.56,6.4-49.21,28.05-55.61,55.61v.98c0,.98,.98,1.97,1.97,1.97H227.35c.98,0,1.97-.98,1.97-2.46v-.49Z"/><path class="cls-1" d="M207.66,344.47h-22.14v-60.53h22.14v60.53Zm-37.89,0h-22.14v-60.53h22.14v60.53Zm-37.4,0h-22.14v-60.53h22.64l-.49,60.53Zm91.04-70.86H92.51c-1.48,0-2.46,.98-2.46,2.46v75.78c0,1.48,.98,2.46,2.46,2.46H222.92c1.48,0,2.46-.98,2.46-2.46v-75.78c.49-.98-.98-2.46-1.97-2.46"/><path class="cls-1" d="M157.47,178.63v-27.07h6.89c3.94,0,8.37,.98,11.81,2.95,4.43,3.94,9.84,6.4,15.75,6.4h10.33v26.57h-10.33c-4.43,0-8.37-1.48-11.81-3.94-3.94-3.44-8.86-4.92-13.78-4.92-9.35-.49-8.86,0-8.86,0"/><polygon class="cls-1" points="282.96 241.13 276.07 241.13 276.07 377.44 376.45 377.44 376.45 369.07 282.96 369.07 282.96 241.13"/><path class="cls-1" d="M376.45,298.7s0,.49,0,0c0,.98-.49,.98-.98,.98h-71.35c-.49,0-.98-.49-.98-.98v-10.33c0-.49,.49-.98,.98-.98h71.85c.49,0,.98,.49,.98,.49v.49l-.49,10.33Zm0,21.65h0c0,.49-.49,.98-.98,.98h-71.85c-.49,0-.98-.49-.98-.98v-10.33c0-.49,.49-.98,.98-.98h71.85c.49,0,.98,.49,.98,.98v10.33Zm0,21.65h0c0,.49-.49,.98-.98,.98h-71.85c-.49,0-.98-.49-.98-.98v-10.33c0-.49,.49-.98,.98-.98h71.85c.49,0,.98,.49,.98,.98v10.33Zm-85.62,18.7h97.93V224.4h-97.93v136.31Z"/></g><polygon class="cls-2" points="371.53 17.72 371.53 67.91 363.17 67.91 363.17 29.53 357.26 35.43 357.26 27.07 365.14 18.21 371.53 18.21 371.53 17.72"/><path class="cls-2" d="M378.42,58.56c0-4.92,1.48-8.37,6.4-13.29l4.92-4.92c2.46-2.46,2.46-4.43,2.46-8.37v-3.94c0-2.95-1.48-3.94-2.95-3.94-1.97,0-3.44,.98-3.44,3.94v6.4h-7.87v-6.4c0-6.89,3.94-10.83,11.32-10.83s10.83,3.44,10.83,10.33v4.92c0,4.92-.98,7.87-5.41,12.79l-5.41,5.91c-1.97,2.46-3.44,3.94-3.44,7.87v2.46h13.78v6.89h-21.65v-9.84h.49Z"/><path class="cls-2" d="M414.35,36.91c3.44,0,5.91,2.95,5.91,5.91,0,3.44-2.95,5.91-5.91,5.91-3.44,0-5.91-2.95-5.91-5.91-.49-2.95,2.46-5.91,5.91-5.91"/><polygon class="cls-2" points="427.14 17.72 448.3 17.72 448.3 25.59 437.47 67.91 429.11 67.91 440.43 24.6 427.63 24.6 427.63 17.72 427.14 17.72"/></svg>