<?xml version="1.0" encoding="UTF-8"?><svg id="Capa_1" xmlns="http://www.w3.org/2000/svg" viewBox="0 0 467 568.37"><defs><style>.cls-1{fill:#fff;}.cls-2{fill:#48ad37;}</style></defs><path class="cls-2" d="M4.92,80.7H461.59V4.92H4.92V80.7Zm462.08,4.92H0V0H466.51V85.62h.49Z"/><polygon class="cls-2" points="16.73 17.72 38.88 17.72 38.88 24.6 32.48 24.6 32.48 67.91 23.62 67.91 23.62 24.6 16.73 24.6 16.73 17.72"/><path class="cls-2" d="M49.21,52.16h6.89l-3.44-20.18-3.44,20.18Zm-10.33,15.75l9.35-50.19h9.35l9.84,50.19h-8.86l-1.48-9.35h-8.86l-1.48,9.35h-7.87Z"/><path class="cls-2" d="M80.21,24.6v15.75h2.95c2.95,0,3.94-1.48,3.94-3.94v-7.38c0-2.95-1.48-3.94-3.94-3.94h-2.95v-.49Zm0,20.18v23.13h-8.37V17.72h12.3c8.37,0,11.81,4.43,11.81,11.32v6.4c0,5.41-1.97,8.37-6.89,9.84l7.87,22.64h-8.86l-7.87-23.13Z"/><path class="cls-2" d="M113.67,41.34h11.81v26.57h-5.91v-5.41c-.98,3.94-3.44,5.91-7.87,5.91-7.38,0-10.33-5.91-10.33-13.29V31c0-7.87,3.94-13.29,12.79-13.29,9.35,0,11.81,5.41,11.81,12.79v4.43h-7.87v-4.92c0-2.95-.98-4.92-4.43-4.92-2.95,0-4.43,1.97-4.43,4.92v27.07c0,2.95,1.48,4.92,3.94,4.92,2.95,0,3.94-1.48,3.94-4.92v-9.35h-3.94v-6.4h.49Z"/><polygon class="cls-2" points="132.37 17.72 152.55 17.72 152.55 24.6 140.74 24.6 140.74 38.88 149.11 38.88 149.11 45.77 140.74 45.77 140.74 61.02 152.55 61.02 152.55 67.91 132.37 67.91 132.37 17.72"/><polygon class="cls-2" points="156.49 17.72 178.63 17.72 178.63 24.6 171.74 24.6 171.74 67.91 163.38 67.91 163.38 24.6 156.49 24.6 156.49 17.72"/><path class="cls-2" d="M432.06,45.27v15.75h3.94c2.95,0,3.94-1.48,3.94-3.94v-7.38c0-2.46-1.48-3.94-4.43-3.94h-3.44v-.49Zm0-6.4h2.95c2.95,0,3.94-1.48,3.94-3.94v-5.91c0-2.95-1.48-3.94-3.94-3.94h-2.95v13.78Zm-8.37-21.16h12.3c8.37,0,11.32,3.94,11.32,10.83v4.92c0,4.43-1.48,6.89-4.92,7.87,4.43,.98,6.4,3.94,6.4,8.37v6.4c0,6.89-2.95,10.83-11.81,10.83h-13.29V17.72Z"/><polygon class="cls-2" points="362.68 17.72 362.68 67.91 354.31 67.91 354.31 29.53 348.4 35.43 348.4 27.07 356.28 18.21 362.68 18.21 362.68 17.72"/><path class="cls-2" d="M393.68,44.78v12.3c0,6.89-3.44,11.32-11.81,11.32s-11.81-4.92-11.81-12.3v-5.91h7.38v6.4c0,2.95,.98,4.92,3.94,4.92,2.46,0,3.44-1.97,3.44-4.43v-12.3c0-2.95-.98-4.43-3.44-4.43s-3.94,1.48-3.94,4.43v.98h-7.87V17.72h22.64v6.89h-14.27v12.3c1.48-2.46,3.94-3.44,6.89-3.44,4.43,0,8.86,3.44,8.86,11.32"/><polygon class="cls-2" points="404.01 32.48 404.01 53.15 414.84 42.81 404.01 32.48"/><g><rect class="cls-2" x="0" y="101.86" width="466.51" height="466.51"/><path class="cls-1" d="M343.98,463.06l-13.78-10.83c-.98-.98-2.95-1.48-3.94,0-43.3,51.67-118.1,57.08-171.25,14.76-1.48-1.48-2.95-2.46-4.43-3.94l15.75-9.84c1.48-.98-.49-2.46-.49-2.46l-54.13-26.57c-1.48-.98-1.97,0-1.97,.98v61.02c0,.49,.49,1.97,1.97,.98l17.22-10.83c3.44,3.44,6.89,6.4,10.83,9.35,62.99,50.69,152.06,43.8,204.22-17.22l.49-.49c.98-1.48,.98-3.44-.49-4.92,0,.49,0,0,0,0"/><path class="cls-1" d="M110.23,214.06l14.27,10.33c.98,.98,2.95,.98,3.94-.49,40.35-54.13,114.66-63.97,169.77-24.6,1.48,.98,3.44,2.46,4.92,3.94l-14.76,10.83c-1.48,.98,.98,2.46,.98,2.46l54.13,23.62c1.48,.98,1.97-.49,1.97-.98v-.49l-3.44-60.53c0-.49-.49-1.97-1.97-.98l-16.73,11.81c-3.44-2.95-7.38-5.91-11.32-8.86-65.94-46.75-154.52-34.94-202.74,29.03l-.49,.49c0,1.48,0,3.44,1.48,4.43"/><path class="cls-1" d="M408.44,379.9h16.73l-20.67-36.42,9.84-.98-15.26-23.62,9.84-.98-20.67-26.57,8.86-.49-19.68-34.45v.98l-.49-.98-19.68,34.45,8.86,.98-21.16,26.57,9.84,.98-15.26,23.62,9.84,.98-20.67,36.42h40.84v29.53c0,.49,.49,.98,.98,.98h12.79c.49,0,.98-.49,.98-.98v-29.53h24.11v-.49Z"/><path class="cls-1" d="M119.58,381.38h.98c.98,0,1.97-.98,1.97-1.97,0-.49,0-.98-.49-.98l-37.89-122.04-.49-.98c-.49-.49-.98-.98-1.97-.98s-1.48,.49-1.97,.98l-.49,.49-37.89,122.53v.98c0,.98,.98,1.97,1.97,1.97h31v28.54c0,.49,.49,.98,.98,.98h12.79c.49,0,.98-.49,.98-.98v-28.54h30.51Z"/><path class="cls-1" d="M155.01,250.48h0c1.48-1.48,0,0,0,0"/><path class="cls-1" d="M220.95,376.95c-2.46,1.48-4.92,2.46-7.38,3.44-7.38,1.97-15.25,2.95-23.13,2.95-3.94,0-7.87-.49-11.32-.98-2.46-.49-4.43-.98-6.89-1.48-.98-.49-2.46-.49-3.44-.98-3.44-.98-6.4-2.46-8.86-4.43-.98-.98-1.97-1.97-2.46-2.95v7.38c0,1.97,.98,3.94,2.46,4.92,5.41,3.94,11.32,5.91,18.21,6.89,4.43,.49,8.86,.98,13.29,.98,6.4,0,12.79-.49,19.19-1.97,3.44-.98,6.89-1.97,9.84-3.94,2.95-1.97,4.92-3.94,4.92-6.4,0,0,.49-6.89,0-7.38-1.48,1.48-2.95,2.46-4.43,3.94"/><path class="cls-1" d="M156.98,333.15c.49-1.48,1.48-2.95,2.46-3.94,.98,.98,1.97,1.97,3.44,2.46,8.86,3.94,18.21,5.91,28.05,5.41,7.87,0,16.24-.98,23.62-3.44,.98-.49,1.97-.98,2.95-1.48v.98c0,4.92-12.3,10.33-30.51,10.33s-30.02-5.41-30.02-10.33m33.95-26.08c18.21,0,30.51,5.41,30.51,10.33s-12.79,10.33-30.51,10.33-30.51-5.41-30.51-10.33,12.79-10.33,30.51-10.33m-3.44,46.75c18.7,0,33.95-5.41,33.95-12.79,0,0,.49-6.4,0-7.87,0-.98,0-1.97-.49-2.46,1.97-.98,3.44-3.44,3.44-5.91,0,0,.49-7.38,0-8.86-.98-8.37-18.21-13.29-33.95-13.29s-33.95,4.92-33.95,13.78c0,.49,.49,7.87,.49,7.87,0,.49,0,.98,.49,1.48-2.46,1.48-3.94,3.94-3.94,6.89,0,.49,.49,7.87,.49,7.87,0,1.97,.98,3.94,2.46,4.92,5.41,3.94,11.32,6.4,18.21,6.89,3.94,.98,8.37,1.48,12.79,1.48"/><path class="cls-1" d="M177.65,379.9c4.43,.49,8.86,.98,13.29,.98,6.4,0,12.79-.49,19.19-1.97,3.44-.98,6.4-1.97,9.35-3.94,.98-.49,1.48-.98,1.97-1.48,.98-.98,1.97-1.97,2.46-3.44,0-.49,.49-.98,.49-1.97v-7.38c-.98,1.48-3.94,5.91-17.22,8.37-5.91,.98-11.32,1.48-17.22,1.48-9.35,.49-18.7-1.48-27.07-5.41-1.48-.98-2.95-1.97-4.43-2.95-.98-.98-1.48-1.48-1.97-2.46v8.37c0,1.97,.98,3.94,2.46,4.92,5.41,3.94,11.81,6.4,18.7,6.89"/><path class="cls-1" d="M224.4,345.45c-.49-.49-.98-.49-.98-.98-.49-.49-.98-.49-1.48-.98-.49,.49-.98,1.48-1.48,1.97,.49,0,.98,.49,1.48,.98,.98,.49,1.48,1.48,1.48,2.46s-.49,1.48-.98,1.97-.98,.49-1.48,.98-1.48,.98-1.97,.98c0,0-1.97,.98-2.95,1.48l-2.95,.98c-.49,0-2.95,.98-3.94,.98,0,0-3.44,.49-4.92,.98l-5.41,.49-8.37,.98c-3.44,0-7.38-.49-10.83-.98-2.46-.49-5.41-.98-7.38-1.48-2.95-.49-5.41-1.48-8.37-2.46-1.48-.49-2.95-1.48-3.94-2.95-.98-.98-1.97-2.46-2.46-3.44v8.37c0,1.97,.98,3.94,2.46,4.92,5.41,3.94,11.81,5.91,18.21,6.89,4.43,.49,8.86,.98,13.29,.98,6.4,0,12.79-.98,18.7-2.46,3.44-.49,6.89-1.97,9.84-3.44,.49-.49,1.48-.98,1.97-1.48,.98-.98,1.97-1.97,2.95-3.44,0-.49,.49-.98,.49-1.97l.49-7.38c0-.49,0-.98-.49-1.48-.49-.49-.49-.98-.98-1.48"/><path class="cls-1" d="M234.73,309.04c.49-1.48,1.48-2.95,2.46-3.94,.98,.98,1.97,1.97,3.44,2.46,8.86,3.94,18.21,5.91,28.05,5.41,8.37,0,16.24-.98,24.11-3.94,.98-.49,1.97-.98,2.95-1.48v.98c0,4.92-12.79,10.33-30.51,10.33s-30.02-5.41-30.51-9.84m34.45-26.57c18.21,0,30.51,5.41,30.51,10.33s-12.3,10.33-30.51,10.33-30.51-5.41-30.51-10.33,12.3-10.33,30.51-10.33m-3.44,46.75c18.7,0,33.95-5.91,33.95-12.79,0,0,.49-6.4,.49-7.87,0-.98-.49-1.97-.49-2.95,1.97-.98,3.44-3.44,3.94-5.91,0,0,.49-7.38,0-8.86-.98-7.38-18.21-11.81-34.45-11.81s-34.45,4.92-34.45,13.78c0,.49,.49,7.87,.49,7.87,0,.49,0,.98,.49,1.48-2.46,1.48-3.94,3.94-4.43,6.89,0,.49,.49,7.87,.49,7.87,0,1.97,.98,3.94,2.46,4.92,5.41,3.44,11.81,5.91,18.21,6.4,4.43,.49,8.86,.98,13.29,.98"/><path class="cls-1" d="M303.13,322.32c0-.49-.49-.98-.98-1.48l-.98-.98c-.49-.49-.98-.49-1.48-.98-.49,.98-.98,1.48-1.48,1.97,.49,0,.98,.49,1.48,.98,.98,.49,1.48,1.48,1.48,2.46s-.49,1.97-.98,2.46c-.49,.49-.98,.98-1.48,.98l-1.97,.98s-1.97,.98-2.95,1.48l-2.95,.98c-.49,0-2.95,.98-3.94,.98,0,0-3.44,.49-4.92,.98l-5.41,.49c-.49,0-5.41,.49-7.87,.49-3.44,0-6.89-.49-10.33-.98-2.46-.49-4.92-.98-7.87-1.48-2.95-.49-5.41-1.48-8.37-2.46-2.95-1.48-5.41-3.44-6.89-6.4v8.37c0,1.97,.98,3.94,2.46,4.92,5.41,3.94,11.81,5.91,18.21,6.89,4.43,.49,8.86,.98,13.29,.98,6.4,0,12.79-.49,18.7-1.97,3.44-.98,6.89-1.97,9.84-3.94,.98-.49,1.48-.98,1.97-1.48,.98-.98,1.97-1.97,2.46-3.44,0-.49,.49-.98,.49-1.97l.49-7.38c.49-.49,.49-.98,0-1.48"/><path class="cls-1" d="M299.19,352.34c-2.46,1.48-4.92,2.46-7.38,3.44-7.38,1.97-15.26,2.95-23.13,2.95-3.94,0-7.87,0-11.32-.49-2.46-.49-4.43-.98-6.89-1.48-.98-.49-2.46-.49-3.44-.98-3.44-.98-6.4-2.46-8.86-4.43-.98-.98-1.97-1.48-2.46-2.95v7.38c0,1.97,.98,3.94,2.46,4.92,5.41,3.94,11.81,5.91,18.21,6.89,4.43,.49,8.86,.98,13.29,.98,6.4,0,12.79-.49,18.7-1.97,3.44-.98,6.89-1.97,9.84-3.94,3.44-1.97,4.92-3.94,4.92-6.4v-7.38c-1.48,.98-2.46,2.46-3.94,3.44"/><path class="cls-1" d="M237.68,348.4c5.41,3.94,11.81,5.91,18.21,6.89,4.43,.49,8.86,.98,13.29,.98,6.4,0,12.79-.49,18.7-1.97,3.44-.98,6.4-1.97,9.35-3.94,.98-.49,1.48-.98,1.97-1.48,.98-.98,1.97-1.97,2.46-3.44,0-.49,.49-.98,.49-1.97v-7.38c-.98,1.48-3.94,5.91-17.22,8.86-5.91,.98-11.32,1.48-17.22,1.48-9.35,0-18.7-1.48-27.07-5.41-1.48-.98-2.95-1.97-4.43-2.95-.98-.98-1.48-1.48-1.97-2.46v8.37c.49,1.97,1.97,3.44,3.44,4.43"/><path class="cls-1" d="M303.62,372.52c-.98,1.48-2.46,2.95-3.94,3.94-2.46,1.48-4.92,2.46-7.38,3.44-7.38,1.97-15.25,2.95-23.13,2.95-3.94,0-7.87-.49-11.32-.98-2.46-.49-4.43-.98-6.89-1.48-.98-.49-2.46-.49-3.44-.98-3.44-.98-6.4-2.46-8.86-4.43-.98-.98-1.97-1.48-2.46-2.95v7.38c0,1.97,.98,3.94,2.46,4.92,5.41,3.94,11.32,5.91,18.21,6.89,4.43,.49,8.86,.98,13.29,.98,6.4,0,12.79-.49,19.19-1.97,3.44-.98,6.89-1.97,9.84-3.94,2.95-1.97,4.92-3.94,4.92-6.4-.98,0-.49-6.89-.49-7.38"/><path class="cls-1" d="M255.89,379.41c4.43,.49,8.86,.98,13.29,.98,6.4,0,12.79-.49,19.19-1.97,3.44-.98,6.89-1.97,9.84-3.94,.98-.49,1.48-.98,1.97-1.48,.98-.98,1.97-1.97,2.46-3.44,0-.49,.49-.98,.49-1.97v-7.38c-.98,1.48-3.94,5.91-17.22,8.86-5.91,.98-11.32,1.48-17.22,1.48-9.35,0-18.7-1.48-27.07-5.41-1.48-.98-2.95-1.97-4.43-2.95-.98-.98-1.48-1.48-1.97-2.46v8.37c0,1.97,.98,3.94,2.46,4.92,5.41,3.94,11.81,5.91,18.21,6.4"/></g></svg>