<?xml version="1.0" encoding="UTF-8"?><svg id="Capa_1" xmlns="http://www.w3.org/2000/svg" viewBox="0 0 467 568.37"><defs><style>.cls-1{fill:#fff;}.cls-2{fill:#24a038;}</style></defs><path class="cls-2" d="M4.92,80.7H461.59V4.92H4.92V80.7Zm462.08,4.92H0V0H466.51V85.62h.49Z"/><path class="cls-2" d="M394.66,29.03v3.94c0,4.43-2.46,6.89-5.91,8.37,4.43,.98,6.4,3.94,6.4,8.37v7.38c0,6.89-3.94,11.32-12.3,11.32s-11.81-4.92-11.81-12.3v-6.4h7.87v7.38c0,2.95,.98,4.92,3.94,4.92,2.46,0,3.94-1.97,3.94-4.43v-8.37c0-2.46-.98-3.94-3.94-3.94h-3.44v-6.4h2.95c2.95,0,4.43-1.48,4.43-3.94v-5.91c0-2.95-.98-4.43-3.44-4.43s-3.44,1.97-3.44,4.92v4.92h-7.87v-4.43c0-7.38,2.95-12.79,11.81-12.79,7.38,0,10.83,4.43,10.83,11.81"/><path class="cls-2" d="M408.93,36.91c3.44,0,5.91,2.95,5.91,5.91,0,3.44-2.95,5.91-5.91,5.91-3.44,0-5.91-2.95-5.91-5.91s2.46-5.91,5.91-5.91"/><path class="cls-2" d="M431.57,29.03v8.86c0,3.44,.98,4.92,3.94,4.92,2.46,0,3.94-1.97,3.94-4.43v-9.35c0-2.95-.98-4.92-3.94-4.92s-3.94,1.97-3.94,4.92m16.24,1.48v24.11c0,7.87-3.44,13.29-12.3,13.29-9.35,0-11.81-4.92-11.81-12.3v-2.46h7.87v3.44c0,2.95,.98,4.92,3.94,4.92s4.43-1.97,4.43-4.92v-10.83c-1.48,2.46-3.44,3.94-6.89,3.94-5.91,0-9.35-3.94-9.35-12.3v-7.38c0-7.87,3.44-12.79,12.3-12.79,8.37,0,11.81,5.91,11.81,13.29"/><polygon class="cls-2" points="16.73 17.72 38.88 17.72 38.88 24.6 32.48 24.6 32.48 67.91 23.62 67.91 23.62 24.6 16.73 24.6 16.73 17.72"/><path class="cls-2" d="M49.21,52.16h6.89l-3.44-20.18-3.44,20.18Zm-10.33,15.75l9.35-50.19h9.35l9.84,50.19h-8.86l-1.48-9.35h-8.86l-1.48,9.35h-7.87Z"/><path class="cls-2" d="M80.21,24.6v15.75h2.95c2.95,0,3.94-1.48,3.94-3.94v-7.38c0-2.95-1.48-3.94-3.94-3.94h-2.95v-.49Zm0,20.18v23.13h-8.37V17.72h12.3c8.37,0,11.81,4.43,11.81,11.32v6.4c0,5.41-1.97,8.37-6.89,9.84l7.87,22.64h-8.86l-7.87-23.13Z"/><path class="cls-2" d="M113.67,41.34h11.81v26.57h-5.91v-5.41c-.98,3.94-3.44,5.91-7.87,5.91-7.38,0-10.33-5.91-10.33-13.29V31c0-7.87,3.94-13.29,12.79-13.29,9.35,0,11.81,5.41,11.81,12.79v4.43h-7.87v-4.92c0-2.95-.98-4.92-4.43-4.92-2.95,0-4.43,1.97-4.43,4.92v27.07c0,2.95,1.48,4.92,3.94,4.92,2.95,0,3.94-1.48,3.94-4.92v-9.35h-3.94v-6.4h.49Z"/><polygon class="cls-2" points="132.37 17.72 152.55 17.72 152.55 24.6 140.74 24.6 140.74 38.88 149.11 38.88 149.11 45.77 140.74 45.77 140.74 61.02 152.55 61.02 152.55 67.91 132.37 67.91 132.37 17.72"/><polygon class="cls-2" points="156.49 17.72 178.63 17.72 178.63 24.6 171.74 24.6 171.74 67.91 163.38 67.91 163.38 24.6 156.49 24.6 156.49 17.72"/><g><rect class="cls-2" y="101.86" width="466.51" height="466.51"/><path class="cls-1" d="M239.16,249.99h-8.37v-23.13h8.37v23.13Zm0,43.3h-8.37v-23.13h8.37v23.13Zm0,43.3h-8.37v-23.13h8.37v23.13Z"/><path class="cls-1" d="M239.16,163.38h-8.37v-23.13h8.37v23.13Zm0,43.8h-8.37v-23.13h8.37v23.13Z"/><path class="cls-1" d="M89.07,310.02l23.13-23.13c-10.33,3.94-18.7,12.3-23.13,23.13"/><path class="cls-1" d="M109.25,361.69l55.11-55.11c-1.48-2.46-2.95-5.41-4.92-7.38l-58.07,57.58c2.46,1.97,4.92,3.44,7.87,4.92"/><path class="cls-1" d="M127.45,366.12h.98l39.86-39.86v-.98c0-3.44-.49-6.4-1.48-9.84l-49.21,49.21c2.95,.98,6.4,1.48,9.84,1.48"/><path class="cls-1" d="M165.84,340.53l-22.14,22.64c9.84-4.43,17.72-12.3,22.14-22.64"/><path class="cls-1" d="M137.79,284.92c-3.44-.98-6.89-1.48-10.33-1.48h-.98l-40.35,40.35v.98c0,3.44,.49,6.89,1.48,10.33l50.19-50.19Z"/><path class="cls-1" d="M95.96,351.36l58.07-58.07c-2.46-1.97-4.92-3.44-7.38-4.92l-55.61,55.11c.98,2.95,2.95,5.41,4.92,7.87"/><path class="cls-1" d="M74.8,515.72l125.48-125.48c-2.46-1.48-5.41-2.95-8.37-4.43l-117.12,117.12v12.79Z"/><polygon class="cls-1" points="61.51 468.97 29.53 500.95 29.53 513.26 61.51 481.27 61.51 468.97"/><path class="cls-1" d="M74.8,491.6l108.26-108.26c-2.46-.49-4.92-.98-7.38-1.48h-2.95l-97.44,97.44-.49,12.3Z"/><polygon class="cls-1" points="61.51 529 61.51 516.7 47.73 530.48 60.04 530.48 61.51 529"/><path class="cls-1" d="M61.51,452.73c0-3.94,.98-8.86,7.87-8.86,1.48,0,2.95,.49,3.94,1.48l63.97-63.97h-12.3L29.53,476.84v12.3l31.99-31.99v-4.43Z"/><path class="cls-1" d="M82.18,381.87h-2.95c-.98,0-2.46,.49-3.44,.49l-45.76,45.77c-.49,2.95-.49,5.91-.49,8.86v4.43l59.54-59.54h-6.89Z"/><polygon class="cls-1" points="100.39 381.87 29.53 452.73 29.53 456.67 29.53 465.52 113.18 381.87 100.39 381.87"/><polygon class="cls-1" points="61.51 505.38 61.51 492.59 29.53 524.58 29.53 530.48 35.92 530.48 61.51 505.38"/><path class="cls-1" d="M213.08,401.55c-1.97-2.46-3.94-4.43-5.91-6.4l-131.88,131.88v3.44h9.35l128.44-128.93Z"/><polygon class="cls-1" points="225.38 519.65 215.05 530.48 225.38 530.48 225.38 519.65"/><path class="cls-1" d="M180.11,458.63v-5.91c0-2.95,.98-7.87,5.91-7.87,2.46,0,4.43,.49,5.91,2.46l30.02-30.02c-.98-2.95-2.46-5.91-3.94-8.37l-122.04,122.04h12.3l71.85-72.34Z"/><polygon class="cls-1" points="180.11 482.25 180.11 469.95 119.58 530.48 131.88 530.48 180.11 482.25"/><path class="cls-1" d="M35.92,410.9l22.64-22.64c-9.84,5.41-17.72,13.29-22.64,22.64"/><polygon class="cls-1" points="74.8 467.98 160.92 381.87 148.61 381.87 74.8 455.19 74.8 467.98"/><polygon class="cls-1" points="180.11 530.48 180.11 517.69 167.31 530.48 180.11 530.48"/><path class="cls-1" d="M193.89,468.97l31.99-31.99c0-3.94-.49-7.38-.98-11.32l-30.51,31-.49,12.3Z"/><polygon class="cls-1" points="180.11 506.37 180.11 494.06 143.69 530.48 155.99 530.48 180.11 506.37"/><polygon class="cls-1" points="193.89 516.7 225.38 484.72 225.38 472.41 193.89 504.4 193.89 516.7"/><polygon class="cls-1" points="225.38 508.34 225.38 496.53 193.89 528.51 193.89 530.48 203.73 530.48 225.38 508.34"/><polygon class="cls-1" points="225.38 456.67 225.38 450.76 225.38 448.3 193.89 480.29 193.89 493.08 225.38 461.09 225.38 456.67"/><path class="cls-1" d="M342.99,366.12c22.64,0,41.34-18.7,41.34-41.34s-18.7-41.34-41.34-41.34-41.34,18.7-41.34,41.34,18.7,41.34,41.34,41.34"/><path class="cls-1" d="M362.18,434.52c2.95,0,5.91,2.95,7.38,4.92,1.97-2.46,4.92-4.43,7.87-4.92,4.92,0,9.35,4.43,8.86,9.84v.49c0,2.46-.98,5.41-2.95,7.38l-13.78,13.78-13.78-13.78c-1.97-1.97-2.95-4.43-2.95-7.38-.49-5.41,3.44-9.84,8.86-10.33h.49Zm-85.62,18.21c0-3.94,.98-8.86,7.87-8.86,4.43,0,5.41,4.92,5.91,7.87v78.24h104.82v-77.75c0-2.95,.98-7.87,5.91-7.87,6.89,0,7.87,4.92,7.87,8.86v77.75h31.99v-93.5c0-28.54-21.65-52.16-49.7-55.11h-96.45c-28.54,1.97-50.19,26.08-50.19,54.13v93.5h31.99v-77.26Z"/><path class="cls-1" d="M113.18,183.55c8.37-6.89,20.18-6.89,28.54,0,1.97-1.97,3.44-3.94,4.92-6.4-11.32-8.86-27.56-8.86-38.88,0,1.97,2.46,3.44,4.43,5.41,6.4"/><path class="cls-1" d="M161.9,181.58v-.98c2.46-18.7-10.33-36.42-29.53-38.88v1.48c13.29,2.46,21.65,15.25,19.19,28.54-1.97,10.83-11.32,18.7-22.64,19.68v3.44l1.48,.49c3.44,1.48,5.41,5.41,3.94,8.86l2.95,1.97c6.89-11.81,21.65-15.75,32.97-8.86,10.33,5.91,14.76,18.7,10.33,30.02l.98,.49,.49-.98c6.89-18.21-2.46-38.38-20.18-45.27q0,.49,0,0"/><path class="cls-1" d="M146.64,240.14c-11.81-6.4-16.24-20.67-10.33-32.48l-2.95-1.97q-.49,.49-.98,.98c-2.95,2.46-7.38,1.97-9.84-.98l-2.95,1.97c6.4,11.81,1.97,26.57-9.84,32.97-9.84,5.41-22.64,2.95-30.02-5.91l-.98,.49s.49,.49,.49,.98c11.81,14.76,33.46,17.22,48.23,4.92,.49,0,.49,.49,.98,.49,15.25,11.81,36.91,8.86,48.23-5.91l-.98-.98c-7.38,8.37-19.19,10.33-29.03,5.41"/><path class="cls-1" d="M136.31,222.92c.49,2.46,1.48,5.41,2.95,7.38,13.29-5.41,21.65-19.19,19.19-33.46-2.95,0-5.41,.49-7.87,.98,1.48,10.83-4.43,21.16-14.27,25.1"/><path class="cls-1" d="M96.94,196.84c-1.97,14.27,5.91,28.05,19.19,33.46,1.48-2.46,2.46-4.92,2.95-7.38-9.84-3.94-15.75-14.27-14.27-24.6-2.46-.98-5.41-1.48-7.87-1.48"/><path class="cls-1" d="M84.64,198.31c11.32-7.38,26.08-3.94,33.46,7.38l2.95-1.97c0-.49-.49-.98-.49-1.48-.49-3.94,1.97-7.38,5.41-7.87v-3.44c-13.29-.49-23.62-11.81-23.13-25.59,.49-10.83,8.37-20.18,19.68-22.64v-1.48h-.98c-18.7,2.95-31.49,20.67-28.54,39.37l-.98,.49c-17.72,7.38-26.08,27.07-18.7,44.78l.98-.49c-2.95-9.35,.98-21.16,10.33-27.07"/><path class="cls-1" d="M61.02,295.26c0,1.97-1.48,3.44-3.44,3.44s-3.44-1.48-3.44-3.44,1.48-3.44,3.44-3.44,3.44,1.48,3.44,3.44"/><path class="cls-1" d="M37.89,176.66c0,2.95-1.97,4.92-4.92,4.92s-4.92-1.97-4.92-4.92,1.97-4.92,4.92-4.92,4.92,1.97,4.92,4.92"/><path class="cls-1" d="M213.57,233.25c0,2.95-1.97,4.92-4.92,4.92s-4.92-1.97-4.92-4.92,1.97-4.92,4.92-4.92,4.92,1.97,4.92,4.92"/><path class="cls-1" d="M186.5,272.62c0,3.44-2.95,6.4-6.4,6.4s-6.4-2.95-6.4-6.4,2.95-6.4,6.4-6.4c3.94,0,6.4,2.95,6.4,6.4"/><path class="cls-1" d="M45.27,248.51c0,3.44-2.95,6.4-6.4,6.4s-6.4-2.95-6.4-6.4,2.95-6.4,6.4-6.4c3.94,.49,6.4,2.95,6.4,6.4"/><path class="cls-1" d="M204.22,154.52c0,3.44-2.95,6.4-6.4,6.4s-6.4-2.95-6.4-6.4,2.95-6.4,6.4-6.4,6.4,2.95,6.4,6.4"/><path class="cls-1" d="M213.57,320.85c0,2.95-1.97,4.92-4.92,4.92s-4.92-1.97-4.92-4.92,1.97-4.92,4.92-4.92,4.92,2.46,4.92,4.92"/><path class="cls-1" d="M32.97,325.77c0,1.97-1.48,3.44-3.44,3.44s-3.44-1.48-3.44-3.44,1.48-3.44,3.44-3.44,3.44,1.48,3.44,3.44"/><path class="cls-1" d="M58.07,347.91c0,2.95-1.97,4.92-4.92,4.92s-4.92-1.97-4.92-4.92,1.97-4.92,4.92-4.92,4.92,2.46,4.92,4.92"/></g></svg>