<?xml version="1.0" encoding="UTF-8"?><svg id="Capa_1" xmlns="http://www.w3.org/2000/svg" viewBox="0 0 467 568.37"><defs><style>.cls-1{fill:#eb6220;}.cls-2{fill:#fff;}</style></defs><path class="cls-1" d="M4.92,80.7H461.59V4.92H4.92V80.7Zm462.08,4.92H0V0H466.51V85.62h.49Z"/><polygon class="cls-1" points="16.73 17.72 38.88 17.72 38.88 24.61 32.48 24.61 32.48 67.91 23.62 67.91 23.62 24.61 16.73 24.61 16.73 17.72"/><path class="cls-1" d="M49.21,52.16h6.89l-3.44-20.18-3.44,20.18Zm-10.33,15.75l9.35-50.19h9.35l9.84,50.19h-8.86l-1.48-9.35h-8.86l-1.48,9.35h-7.87Z"/><path class="cls-1" d="M80.21,24.61v15.75h2.95c2.95,0,3.94-1.48,3.94-3.94v-7.38c0-2.95-1.48-3.94-3.94-3.94h-2.95v-.49Zm0,20.18v23.13h-8.37V17.72h12.3c8.37,0,11.81,4.43,11.81,11.32v6.4c0,5.41-1.97,8.37-6.89,9.84l7.87,22.64h-8.86l-7.87-23.13Z"/><path class="cls-1" d="M113.67,41.34h11.81v26.57h-5.91v-5.41c-.98,3.94-3.44,5.91-7.87,5.91-7.38,0-10.33-5.91-10.33-13.29V31c0-7.87,3.94-13.29,12.79-13.29,9.35,0,11.81,5.41,11.81,12.79v4.43h-7.87v-4.92c0-2.95-.98-4.92-4.43-4.92-2.95,0-4.43,1.97-4.43,4.92v27.07c0,2.95,1.48,4.92,3.94,4.92,2.95,0,3.94-1.48,3.94-4.92v-9.35h-3.94v-6.4h.49Z"/><polygon class="cls-1" points="132.37 17.72 152.55 17.72 152.55 24.61 140.74 24.61 140.74 38.88 149.11 38.88 149.11 45.77 140.74 45.77 140.74 61.02 152.55 61.02 152.55 67.91 132.37 67.91 132.37 17.72"/><polygon class="cls-1" points="156.49 17.72 178.63 17.72 178.63 24.61 171.74 24.61 171.74 67.91 163.38 67.91 163.38 24.61 156.49 24.61 156.49 17.72"/><path class="cls-1" d="M431.08,52.16h6.89l-3.44-20.18-3.44,20.18Zm-10.33,15.75l9.35-50.19h9.35l9.35,50.19h-8.86l-1.48-9.35h-8.86l-1.48,9.35h-7.38Z"/><path class="cls-1" d="M376.45,29.03v8.86c0,3.44,.98,4.92,3.94,4.92,2.46,0,3.94-1.97,3.94-4.43v-9.35c0-2.95-.98-4.92-3.94-4.92-2.46,0-3.94,1.97-3.94,4.92m16.73,1.48v24.11c0,7.87-3.44,13.29-12.3,13.29-9.35,0-11.81-4.92-11.81-12.3v-2.46h7.87v3.44c0,2.95,.98,4.92,3.94,4.92s4.43-1.97,4.43-4.92v-10.83c-1.48,2.46-3.44,3.94-6.89,3.94-5.91,0-9.35-3.94-9.35-12.3v-7.38c0-7.87,3.44-12.79,12.3-12.79,8.37,0,11.81,5.41,11.81,13.29"/><polygon class="cls-1" points="404.01 32.48 404.01 53.15 414.84 42.81 404.01 32.48"/><g><rect class="cls-1" y="101.86" width="466.51" height="466.51"/><path class="cls-2" d="M393.68,215.54c0-5.41,4.43-9.35,9.35-9.35s9.35,4.43,9.35,9.35c0,5.41-4.43,9.35-9.35,9.35s-9.35-4.43-9.35-9.35m-49.7,118.6h31.99c8.86,0,17.22-2.95,23.62-8.86,5.41-5.41,7.87-12.79,7.87-20.67v-70.86c7.38-1.48,12.79-6.89,14.76-13.78h27.56v-9.84h-28.05c-1.97-6.89-7.38-12.3-14.27-13.78v-9.84c0-4.43,0-12.79,4.43-17.22,2.46-2.46,6.4-3.44,9.84-3.44h28.54v-9.84h-28.54c-5.91-.49-12.3,1.97-16.73,5.91-7.38,7.38-7.38,18.21-7.38,24.11v10.33c-6.4,1.97-11.32,6.89-12.79,13.29h-21.65c-14.76,0-27.07-11.81-27.07-27.07v-60.53h-9.84v61.51c0,20.18,16.24,36.91,36.91,36.91h21.65c1.48,6.4,6.4,11.32,12.3,13.29v71.85c.49,4.92-1.48,9.84-4.92,13.29-4.92,3.94-10.83,5.91-17.22,5.91h-31v9.35Z"/><path class="cls-2" d="M77.75,339.05c-5.41,0-9.35-4.43-9.35-9.35,0-5.41,4.43-9.35,9.35-9.35,5.41,0,9.35,4.43,9.35,9.35s-3.94,9.35-9.35,9.35m9.35,116.63c0,5.41-3.94,9.35-9.35,9.35s-9.35-3.94-9.35-9.35,3.94-9.35,9.35-9.35c4.92,0,9.35,3.94,9.35,9.35m60.04-290.83c0-5.41,3.94-9.35,9.35-9.35s9.35,3.94,9.35,9.35-3.94,9.35-9.35,9.35c-4.92,0-9.35-4.43-9.35-9.35m-18.21,159.44h-32.48c-1.97-6.4-6.89-11.81-13.78-13.78v-66.43c-.49-5.41,1.48-10.83,5.41-14.76,4.43-3.44,10.33-4.92,15.75-4.43h22.64c9.84,.49,19.68-2.95,27.07-9.35,6.4-6.4,9.84-15.25,9.35-24.6v-7.87c6.4-1.97,10.83-6.89,12.3-13.29h39.37c4.43,0,8.37,.98,11.81,3.94,3.44,3.44,5.41,8.37,4.92,13.29v35.43c3.44-.49,6.4-.49,9.84,0v-35.43c.49-7.87-2.46-15.25-7.87-20.67-5.41-4.43-12.3-6.4-19.19-6.4h-38.88c-1.48-6.4-6.4-11.32-12.3-13.29v-24.6h-9.84v24.11c-7.38,1.48-12.79,6.89-14.76,13.78H19.68v9.84h118.6c1.97,6.89,7.38,12.3,14.76,13.78v7.38c.49,6.4-1.97,12.79-6.4,17.22-5.91,4.43-12.79,6.89-20.18,6.4h-22.14c-8.37-.49-16.73,1.97-23.13,6.89-5.91,5.91-9.35,13.78-8.86,22.14v66.93c-6.4,1.97-11.81,6.89-13.78,13.29H20.18v9.84H59.05c1.97,6.4,6.89,11.81,13.78,13.78v89.07c-5.91,1.48-10.83,6.4-13.29,12.3H19.68v9.84H59.05c1.48,7.38,6.89,12.79,13.78,14.76v1.97c0,4.43,0,12.79-4.43,17.22-2.46,2.46-6.4,3.44-9.84,3.44H19.19v9.84H58.56c5.91,.49,12.3-1.48,16.73-5.91,7.38-7.38,7.38-18.21,7.38-24.11v-1.97c6.89-1.97,12.79-7.38,14.27-14.76h71.85c6.89,0,12.79,5.91,12.79,12.79v79.23h9.84v-79.23c0-12.3-9.84-22.64-22.64-22.64H95.47c-1.97-5.91-6.89-10.83-13.29-12.3v-89.07c6.89-1.97,11.81-6.89,13.78-13.78h32.48v-4.43c0-1.48,.49-3.44,.49-5.41"/><path class="cls-2" d="M374.98,482.25c0,5.41-4.43,9.35-9.35,9.35-5.41,0-9.35-4.43-9.35-9.35,0-5.41,4.43-9.35,9.35-9.35s8.86,3.94,9.35,9.35m0-73.81c3.44-2.95,7.87-3.94,12.3-3.94h62.99v-9.84h-62.5c-6.89-.49-13.78,1.97-19.19,6.4-5.41,5.41-8.37,12.79-7.87,20.67v41.83c-6.89,1.97-11.81,6.89-13.78,13.78h-90.05c-8.37,0-15.75-6.89-15.75-15.75v-24.11h-9.84v24.11c0,13.78,11.32,25.59,25.59,25.59h90.05c1.97,6.4,6.89,11.81,13.78,13.29v50.19h9.84v-50.19c6.89-1.97,11.81-6.89,13.78-13.78h65.94v-9.84h-66.43c-1.97-6.89-6.89-11.81-13.78-13.78v-41.34c0-4.92,1.48-9.84,4.92-13.29"/><path class="cls-2" d="M183.55,330.2c0-29.53,24.11-53.15,53.64-53.15s53.15,24.11,53.15,53.64-24.11,53.15-53.64,53.15-53.64-24.11-53.15-53.64m65.45,74.8c.98,2.46,1.48,3.94,2.46,6.4,.98,1.97,2.95,2.95,4.92,2.95,5.41-.98,10.33-2.95,15.25-5.41,1.97-.98,3.44-3.44,2.46-5.41-.49-2.46-.98-3.94-1.97-5.91-.98-1.97-.98-4.43,1.48-5.91,2.46-1.48,8.37-5.91,10.33-7.87,1.97-1.48,4.43-1.97,6.4-.49,1.97,1.48,3.94,2.46,5.91,3.44s3.94,.98,5.41-.49c3.94-3.94,6.89-8.37,9.35-13.29,1.48-1.97,.49-4.43-.98-5.91-1.97-1.48-3.44-2.46-4.92-3.94-1.48-1.48-3.44-3.44-2.46-5.41,.98-1.97,2.95-9.35,3.94-12.3,.49-2.46,2.46-3.94,4.92-3.94s4.43-.49,6.89-.49c1.97,0,3.94-1.48,3.94-3.94,.49-5.41,.49-10.83-.49-16.24,0-2.46-1.97-3.94-4.43-3.94h-6.4c-2.46,0-4.43-.49-5.41-2.95-.98-3.94-2.46-8.37-3.94-12.3-.98-1.97-.49-4.92,1.48-6.4,1.97-1.48,3.44-2.95,5.41-4.43,1.48-1.48,1.97-3.44,.98-5.41-2.46-4.92-5.91-9.35-9.84-13.29-1.48-1.97-3.94-1.97-5.91-.49-1.97,1.48-3.44,2.46-5.41,3.44-1.97,.98-3.94,1.97-5.91,.49-3.94-2.95-7.87-5.91-10.33-7.38-1.97-.98-2.95-3.44-2.46-5.91,.49-2.46,.98-4.43,1.48-6.89,.49-1.97-.49-3.94-2.46-4.92-4.92-2.46-10.33-3.94-15.75-4.92-1.97-.49-4.43,.98-4.92,2.95-.98,2.46-1.48,3.94-1.97,5.91-.49,1.97-1.97,3.94-4.43,3.94h-12.79c-2.46,0-4.43-.98-5.41-3.44s-1.48-3.94-2.46-6.4c-.98-1.97-2.95-2.95-4.92-2.46-5.41,.98-10.33,2.95-15.26,5.41-1.97,.98-2.95,3.44-2.46,5.41,.49,2.46,.98,3.94,1.97,5.91,.98,1.97,.98,4.43-1.48,5.91-2.46,1.48-7.38,5.41-10.33,7.38-1.97,1.48-4.43,1.97-6.4,.49-1.97-1.48-3.94-2.46-5.91-3.94-1.97-.98-3.94-.98-5.41,.98-3.94,3.94-6.89,8.37-9.35,13.29-1.48,1.97-.49,4.43,.98,5.91,1.97,1.48,3.44,2.46,4.92,3.94,1.48,1.48,3.44,3.44,2.46,5.91-.98,2.46-2.95,9.84-3.94,12.3-.49,1.97-2.46,3.44-4.92,3.44s-4.43,.49-6.89,.49c-1.97,0-3.94,1.48-3.94,3.94-.49,5.41-.49,10.83,.49,16.24,0,2.46,1.97,3.94,4.43,3.94h6.4c2.46,0,4.43,.49,5.41,2.95,.98,3.94,2.46,8.37,3.94,12.3,.98,1.97,.49,4.92-1.48,6.4-1.97,1.48-3.44,2.95-5.41,4.43-1.48,1.48-1.97,3.94-.98,5.41,2.46,4.92,5.91,9.35,9.84,13.29,1.48,1.97,3.94,1.97,5.91,.49,1.97-1.48,3.44-1.97,5.41-3.44,1.97-1.48,3.94-1.97,5.91-.49,1.97,1.48,7.87,5.91,10.33,7.38,1.97,.98,2.95,3.44,2.46,5.91-.49,2.46-.98,4.43-1.48,6.89-.49,1.97,.49,3.94,2.46,4.92,4.92,2.46,10.33,3.94,15.75,4.92,1.97,.49,4.43-.98,4.92-2.95,.98-1.97,1.48-3.94,1.97-5.91,.49-1.97,1.97-3.94,4.43-3.94h12.79c1.97-.49,4.43,.98,5.41,3.44"/><path class="cls-2" d="M197.33,315.43c.98,.98,1.97,0,2.46-.98q.49-.98,0-1.97c-.49-.98,.49-.98,1.48-1.48,.98-.49,2.46-1.48,3.44-1.97,2.46-.49,4.92-.49,7.38,0,1.48,.98,3.44,.49,4.92-.49,.98-.98,1.97-1.97,3.44-2.95,.49-.49-1.48-2.46-3.44,0-1.97,2.46-3.44,2.95-4.43,2.95s-6.4-1.48-6.89-2.95c-.49-1.48,1.48-2.95,3.94-3.94,2.95-.49,5.91-.98,8.86-.98,2.95-.49,6.4-1.97,8.37-.98,1.97,.98-7.87,3.44-4.43,4.92,.98,.49,5.91-2.95,7.87-3.94,3.94-1.97-3.94-2.95-2.95-6.89,.98-3.94-9.35-2.95-14.76-2.46-2.46,1.48-4.92,3.44-7.38,5.91,.49,0,1.48,.49,1.48,.98,0,.98,0,1.97-.49,2.95-1.48,1.48-2.95,1.97-4.92,2.46q-.49,0-.98-.49c-.98,.98-1.48,2.46-2.46,3.44,.98-.49,2.46-.98,3.44-.98s2.95,.49,2.95,.98-2.95,1.97-3.44,2.95c-1.48,1.48-3.94,4.43-5.91,4.92h-.98c-.49,.98-.98,1.97-.98,2.95,.98-2.46,2.95-2.46,4.43-1.97"/><path class="cls-2" d="M249.49,337.58c-1.48,.98-2.95,.49-4.43-.49-.98-.98,.98-2.46,1.48-2.46,1.97-.49,3.94,1.97,2.95,2.95m-19.19,9.35c-.49,.98-2.46,8.86-3.44,7.87-.98-.98,.49-9.35,.98-9.84,1.48-3.44,5.91-3.44,2.46,1.97m38.88-11.32c-.49-.49,0-.98,.49-1.48h.98c.98,.49,1.97,1.48,2.46,2.95,0,.98-1.97,.49-2.46,.49s-.98-.49-1.48-1.97m6.4,6.4c-1.48,.98-2.95,.49-4.43-.49-.98-.98,.98-2.46,1.48-2.46,1.48,0,3.94,1.97,2.95,2.95m-12.3,5.91c2.95-.98,5.41-1.48,8.37-1.97,5.91-1.48,6.89-4.92,7.87-2.95l.49,.98c.49,.98,.49,1.97,.49,2.95,.98-2.46,1.48-4.43,1.97-6.89-1.48-.49-6.4-7.87-2.46-12.3,.49-.98-1.48-2.95-.98-3.44,1.97,0,3.44,.98,3.94,2.95,0-2.46-.49-4.92-.98-7.38v1.48c-.49,1.48-2.46,2.46-3.94,1.48-.49-.49-.98-.49-1.48-1.48s-2.46-2.46-2.46,.49,3.44,3.44,0,5.41c-1.48,.98-2.95,1.48-4.92,1.97-1.48,1.48-2.46,3.44-2.46,5.91,.49,1.97,4.43,6.89,1.48,6.4-2.95-1.48-5.41-3.44-7.38-6.4-.98-2.46-1.97-4.92-2.95-6.89-.49-1.48-1.97-2.46-3.44-1.97-.49,0-.49,.49-.98,.49-1.48,.98,.49,2.46-.98,4.92-1.48,2.46-1.97,4.43-3.94,2.46-4.43-5.41-11.32-2.95-12.3-8.37-.49-3.44-3.44-2.95-5.41-4.92-1.97-1.97-3.44-2.95-3.94-1.48-.49,1.48,7.38,6.89,7.87,8.86,.49,1.97-2.46,4.43-4.43,4.92-1.97,.49-3.44-.98-5.41-3.44-1.97-2.46-2.95-3.94-3.44-1.97,0,2.95,1.97,5.91,4.43,7.87,1.97,.98,3.94,1.97,3.44,3.94-.49,1.97,0,.98-1.97,2.95-1.97,1.48-2.95,3.44-2.46,5.91,0,2.95-.49,2.95-.98,5.41s-1.48,.49-2.46,3.94c-.49,2.46-1.48,4.43-2.95,5.91-1.97,1.48-3.94,2.46-6.4,2.46-1.97,0-2.46-5.91-2.46-8.86,0-.98-1.48,1.97-1.97-3.94-.49-3.94-2.95,.49-2.95-1.97s-1.48-1.97-2.95-3.94c-1.48-1.97-2.95,0-4.92,.98-1.97,.98-.98,.98-3.44,.49,5.41,12.79,16.73,23.13,30.02,27.07-.49-.49-.98-1.48-.49-2.46,1.97-3.44,5.41-5.41,9.35-5.91,7.38-.98,17.72,4.92,19.19,3.94,1.48-.98,4.92-4.92,9.84-4.92,1.48,0,2.95,.49,4.43,.98,1.97-.98,3.44-2.46,4.92-3.94-.49,0-.98-.49-1.48-.49-2.46-1.48-2.46,.98-3.44,.49s1.48-3.44-2.46-.98c-3.94,2.46-2.95-.49-4.43-4.43-1.48-4.43,.49-8.37,4.43-10.33"/><path class="cls-2" d="M195.36,320.36c2.46,.49,5.41,.98,7.87,1.97,2.46,.98,6.89,3.44,9.35,2.46,2.46-.98,3.44-1.97,2.95-3.44-.49-1.48-1.48-2.46-3.44-.98-.49,.49-1.97-2.95-3.44-2.95s1.48,3.94,.49,3.94-2.95-3.94-2.95-4.43-1.97-2.46-2.95-.98c-2.95,2.46-7.38,2.46-8.37,2.95-.49,0-.49,.49-.98,.49-1.97,.98-2.46-.98-2.46-2.46-.98,2.46-1.48,5.41-1.48,7.87v-.49c1.48-2.95,1.97-3.44,2.46-3.44s1.97-.49,1.97-.49h.98Z"/></g></svg>