<?xml version="1.0" encoding="UTF-8"?><svg id="Capa_1" xmlns="http://www.w3.org/2000/svg" viewBox="0 0 467 568.37"><defs><style>.cls-1{fill:#fff;}.cls-2{fill:#c88b0c;}</style></defs><path class="cls-2" d="M4.92,80.7H461.59V4.92H4.92V80.7Zm462.08,4.92H0V0H466.51V85.62h.49Z"/><polygon class="cls-2" points="16.73 17.72 38.88 17.72 38.88 24.6 32.48 24.6 32.48 67.91 23.62 67.91 23.62 24.6 16.73 24.6 16.73 17.72"/><path class="cls-2" d="M49.21,52.16h6.89l-3.44-20.18-3.44,20.18Zm-10.33,15.75l9.35-50.19h9.35l9.84,50.19h-8.86l-1.48-9.35h-8.86l-1.48,9.35h-7.87Z"/><path class="cls-2" d="M80.21,24.6v15.75h2.95c2.95,0,3.94-1.48,3.94-3.94v-7.38c0-2.95-1.48-3.94-3.94-3.94h-2.95v-.49Zm0,20.18v23.13h-8.37V17.72h12.3c8.37,0,11.81,4.43,11.81,11.32v6.4c0,5.41-1.97,8.37-6.89,9.84l7.87,22.64h-8.86l-7.87-23.13Z"/><path class="cls-2" d="M113.67,41.34h11.81v26.57h-5.91v-5.41c-.98,3.94-3.44,5.91-7.87,5.91-7.38,0-10.33-5.91-10.33-13.29V31c0-7.87,3.94-13.29,12.79-13.29,9.35,0,11.81,5.41,11.81,12.79v4.43h-7.87v-4.92c0-2.95-.98-4.92-4.43-4.92-2.95,0-4.43,1.97-4.43,4.92v27.07c0,2.95,1.48,4.92,3.94,4.92,2.95,0,3.94-1.48,3.94-4.92v-9.35h-3.94v-6.4h.49Z"/><polygon class="cls-2" points="132.37 17.72 152.55 17.72 152.55 24.6 140.74 24.6 140.74 38.88 149.11 38.88 149.11 45.77 140.74 45.77 140.74 61.02 152.55 61.02 152.55 67.91 132.37 67.91 132.37 17.72"/><polygon class="cls-2" points="156.49 17.72 178.63 17.72 178.63 24.6 171.74 24.6 171.74 67.91 163.38 67.91 163.38 24.6 156.49 24.6 156.49 17.72"/><g><rect class="cls-2" y="101.86" width="466.51" height="466.51"/><path class="cls-1" d="M363.17,234.24c-5.91,0-10.83,4.43-10.83,10.33v11.81h21.65v-11.81c-.49-5.91-4.92-10.33-10.83-10.33"/><polygon class="cls-1" points="368.09 263.76 365.14 263.76 359.72 263.76 357.26 263.76 354.8 263.76 351.85 263.76 350.86 409.42 353.82 409.42 350.86 409.42 361.69 445.84 372.52 409.92 373.5 263.76 371.04 263.76 368.09 263.76"/><polygon class="cls-1" points="131.88 460.6 131.88 236.7 119.09 236.7 119.58 474.87 290.34 474.87 290.34 460.6 131.88 460.6"/><path class="cls-1" d="M273.11,319.37c-2.95,.98-6.4,1.97-9.84,1.97-4.92,0-9.84-.98-13.78-3.44-9.84-4.92-17.72-12.79-22.14-23.13-10.83-21.16-18.21-23.13-23.62-24.6h-2.95c-4.43,0-8.86,1.48-12.79,3.94-4.43,3.94-6.89,10.33-6.4,16.24-.49,4.43,.98,9.35,3.94,12.79,3.44,4.43,8.86,6.4,14.27,6.4,1.48,0,2.95,0,4.43-.49,1.97-.49,3.44-.98,4.92-1.97l-2.95-2.95q-.49-.49-.49-.98c0-.49,0-.98,.49-.98,0-.49,.49-.49,.98-.49h.49l17.22-4.92c.49,0,.98,0,.98,.49q.49,.49,.49,.98l-2.95,17.72c0,.49,0,.98-.49,.98-.49,.49-1.97,.49-2.46,0l-3.44-2.95c-3.44,2.46-6.89,3.94-10.83,4.92-1.97,.49-4.43,.49-6.4,.49-15.75,.49-29.03-12.3-29.03-28.05v-1.97c-.49-9.35,3.44-18.7,10.33-24.6,5.41-4.43,12.3-6.4,19.19-6.4,1.48,0,3.44,0,4.92,.49h.49c7.38,1.48,18.21,3.94,31,30.02,5.91,12.3,12.79,16.24,17.22,18.21h.49c2.95,1.48,5.91,1.97,9.35,1.97,1.97,0,3.94,0,5.91-.98,4.92-1.97,10.83-6.4,10.83-18.7,.49-5.91-1.97-12.3-6.4-16.24-3.94-2.46-8.37-3.94-12.79-3.94h-2.95c-3.94,.98-9.84,2.46-17.22,12.79-.49,.49-1.97,.98-2.46,0,0,0,0-.49-.49-.49-.98-1.97-1.97-3.94-3.44-6.4v-1.48q0-.49,.49-.98l.49-.49c4.92-7.38,12.79-12.3,21.16-14.27h.49c1.48-.49,3.44-.49,4.92-.49,6.89,0,13.78,1.97,19.68,6.4,7.38,5.91,11.32,15.25,10.33,24.6-1.48,22.14-13.78,29.03-19.19,31m15.75,96.45h-117.12c-.98,0-1.48-.49-1.48-.98v-18.7c0-.49,.49-.98,.98-.98h117.61c.98,0,1.48,.49,1.48,.98v18.7c0,.98-.49,.98-1.48,.98m-118.6-52.65c0-.49,.49-.98,1.48-.98h117.12c.98,0,1.48,.49,1.48,.98v18.7c0,.49-.49,.98-1.48,.98h-117.12c-.49,0-1.48-.49-1.48-.98v-18.7Zm145.17-155.5H144.68v238.17h170.76V207.66Z"/></g><polygon class="cls-2" points="367.1 17.72 367.1 67.91 358.74 67.91 358.74 29.53 352.83 35.43 352.83 27.07 360.71 18.21 367.1 18.21 367.1 17.72"/><path class="cls-2" d="M373.5,58.56c0-4.92,1.48-8.37,6.4-13.29l4.92-4.92c2.95-2.95,2.95-4.43,2.95-8.86v-3.44c0-2.95-1.48-3.94-2.95-3.94-1.97,0-3.44,.98-3.44,3.94v6.4h-7.87v-6.4c0-6.89,3.94-10.83,11.32-10.83s10.83,3.44,10.83,10.33v4.92c0,4.92-.98,7.87-5.41,12.79l-5.41,5.91c-1.97,2.46-3.44,3.94-3.44,7.87v2.46h13.78v6.89h-21.65v-9.84Z"/><path class="cls-2" d="M409.42,36.91c3.44,0,5.91,2.95,5.91,5.91,0,3.44-2.95,5.91-5.91,5.91-3.44,0-5.91-2.95-5.91-5.91s2.95-5.91,5.91-5.91"/><path class="cls-2" d="M439.93,56.59v-8.86c0-3.44-.98-4.92-3.94-4.92-2.46,0-3.94,1.97-3.94,4.43v9.35c0,2.95,.98,4.92,3.94,4.92,2.46,0,3.94-1.48,3.94-4.92m-16.73-1.48V30.51c0-7.87,3.44-13.29,12.3-13.29,9.35,0,11.81,5.41,11.81,12.79v2.46h-7.87v-3.44c0-2.95-.98-4.92-3.94-4.92s-3.94,1.97-3.94,4.92v10.83c1.48-2.46,3.44-3.94,6.89-3.94,5.91,0,9.35,3.94,9.35,12.3v7.38c0,7.87-3.44,12.79-12.3,12.79s-12.3-5.41-12.3-13.29"/></svg>