<?xml version="1.0" encoding="UTF-8"?><svg id="Capa_1" xmlns="http://www.w3.org/2000/svg" viewBox="0 0 467 568.37"><defs><style>.cls-1{fill:#e63428;}.cls-2{fill:#fff;}</style></defs><path class="cls-1" d="M4.92,80.7H461.59V4.92H4.92V80.7Zm462.08,4.92H0V0H466.51V85.62h.49Z"/><polygon class="cls-1" points="16.73 17.72 38.88 17.72 38.88 24.6 32.48 24.6 32.48 67.91 23.62 67.91 23.62 24.6 16.73 24.6 16.73 17.72"/><path class="cls-1" d="M49.21,52.16h6.89l-3.44-20.18-3.44,20.18Zm-10.33,15.75l9.35-50.19h9.35l9.84,50.19h-8.86l-1.48-9.35h-8.86l-1.48,9.35h-7.87Z"/><path class="cls-1" d="M80.21,24.6v15.75h2.95c2.95,0,3.94-1.48,3.94-3.94v-7.38c0-2.95-1.48-3.94-3.94-3.94h-2.95v-.49Zm0,20.67v23.13h-8.37V17.72h12.3c8.37,0,11.81,4.43,11.81,11.32v6.4c0,5.41-1.97,8.37-6.89,9.84l7.87,22.64h-8.86l-7.87-22.64Z"/><path class="cls-1" d="M113.67,41.34h11.81v26.57h-5.91v-5.41c-.98,3.94-3.44,5.91-7.87,5.91-7.38,0-10.33-5.91-10.33-13.29V31c0-7.87,3.94-13.29,12.79-13.29,9.35,0,11.81,5.41,11.81,12.79v4.43h-7.87v-4.92c0-2.95-.98-4.92-4.43-4.92-2.95,0-4.43,1.97-4.43,4.92v27.07c0,2.95,1.48,4.92,3.94,4.92,2.95,0,3.94-1.48,3.94-4.92v-9.35h-3.94v-6.4h.49Z"/><polygon class="cls-1" points="132.37 17.72 152.55 17.72 152.55 24.6 140.74 24.6 140.74 38.88 149.11 38.88 149.11 45.77 140.74 45.77 140.74 61.02 152.55 61.02 152.55 67.91 132.37 67.91 132.37 17.72"/><polygon class="cls-1" points="156.49 17.72 178.63 17.72 178.63 24.6 171.74 24.6 171.74 67.91 163.38 67.91 163.38 24.6 156.49 24.6 156.49 17.72"/><path class="cls-1" d="M395.15,44.78v12.3c0,6.89-3.44,11.32-11.81,11.32s-11.81-4.92-11.81-12.3v-5.91h7.87v6.4c0,2.95,.98,4.92,3.94,4.92,2.46,0,3.44-1.97,3.44-4.43v-12.3c0-2.95-.98-4.43-3.44-4.43s-3.94,1.48-3.94,4.43v.98h-7.87V17.72h22.14v6.89h-14.27v12.3c1.48-2.46,3.94-3.44,6.89-3.44,4.43,.49,8.86,3.44,8.86,11.32"/><path class="cls-1" d="M408.93,36.91c3.44,0,5.91,2.95,5.91,5.91,0,3.44-2.95,5.91-5.91,5.91-3.44,0-5.91-2.95-5.91-5.91s2.46-5.91,5.91-5.91"/><path class="cls-1" d="M439.93,56.59v-8.86c0-3.44-.98-4.92-3.94-4.92-2.46,0-3.94,1.97-3.94,4.43v9.35c0,2.95,.98,4.92,3.94,4.92,2.46,0,3.94-1.48,3.94-4.92m-16.73-1.48V30.51c0-7.87,3.44-13.29,12.3-13.29,9.35,0,11.81,5.41,11.81,12.79v2.46h-7.87v-3.44c0-2.95-.98-4.92-3.94-4.92s-3.94,1.97-3.94,4.92v10.83c1.48-2.46,3.44-3.94,6.89-3.94,5.91,0,9.35,3.94,9.35,12.3v7.38c0,7.87-3.44,12.79-12.3,12.79s-12.3-5.41-12.3-13.29"/><g><rect class="cls-1" y="101.86" width="466.51" height="466.51"/><path class="cls-2" d="M424.19,443.87v-111.21s.98-14.76-11.32-21.16c-2.95-.98-4.92-3.94-5.41-6.89-.49-5.41,.49-11.32-6.4-11.32s-5.91,5.91-6.4,11.32c-.49,2.95-2.46,5.91-5.41,6.89-12.3,6.4-11.32,21.16-11.32,21.16v111.21c-2.95,.49-5.41,3.94-4.43,6.89,.49,2.46,2.95,4.43,5.41,4.43h44.29c3.44,0,5.91-2.95,5.91-5.91-.49-2.46-1.97-4.92-4.92-5.41"/><path class="cls-2" d="M337.58,312.97c-2.95,0-4.92-1.97-4.92-4.92s1.97-4.92,4.92-4.92c2.46,0,4.92,1.97,4.92,4.43,0,2.95-1.97,5.41-4.92,5.41m0,15.26c-2.95,0-4.92-1.97-4.92-4.92s1.97-4.92,4.92-4.92,4.92,1.97,4.92,4.92c0,2.46-1.97,4.92-4.92,4.92m0,14.76c-2.95,0-4.92-1.97-4.92-4.92s1.97-4.92,4.92-4.92,4.92,1.97,4.92,4.92-2.46,4.92-4.92,4.92m0,15.25c-2.95,0-4.92-1.97-4.92-4.92s1.97-4.92,4.92-4.92,4.92,1.97,4.92,4.92c0,2.46-2.46,4.92-4.92,4.92m0,14.76c-2.95,0-4.92-1.97-4.92-4.92s1.97-4.92,4.92-4.92,4.92,1.97,4.92,4.92-2.46,4.92-4.92,4.92m0,15.25c-2.95,0-4.92-1.97-4.92-4.92s1.97-4.92,4.92-4.92,4.92,1.97,4.92,4.92-2.46,4.92-4.92,4.92m0,15.25c-2.95,0-4.92-1.97-4.92-4.92s1.97-4.92,4.92-4.92,4.92,1.97,4.92,4.92c0,2.46-2.46,4.92-4.92,4.92m0,14.76c-2.95,0-4.92-1.97-4.92-4.92s1.97-4.92,4.92-4.92,4.92,1.97,4.92,4.92-2.46,4.92-4.92,4.92m0,15.25c-2.95,0-4.92-1.97-4.92-4.92s1.97-4.92,4.92-4.92,4.92,1.97,4.92,4.92-2.46,4.92-4.92,4.92m0,15.25c-2.95,0-4.92-1.97-4.92-4.92s1.97-4.92,4.92-4.92,4.92,1.97,4.92,4.92-2.46,4.92-4.92,4.92m-16.24-135.82c-2.95,0-4.92-1.97-4.92-4.92s1.97-4.92,4.92-4.92c2.46,0,4.92,1.97,4.92,4.43,0,2.95-1.97,5.41-4.92,5.41m1.97,134.34c0,.49-.49,1.48-1.48,1.48-.49,0-1.48-.49-1.48-1.48v-126.96c0-.98,.49-1.48,1.48-1.48,.49,0,1.48,.49,1.48,1.48v126.96Zm-17.22-134.34c-2.95,0-4.92-1.97-4.92-4.92s1.97-4.92,4.92-4.92c2.46,0,4.92,1.97,4.92,4.43,.49,2.95-1.97,5.41-4.92,5.41q.49,0,0,0m0,15.26c-2.95,0-4.92-1.97-4.92-4.92s1.97-4.92,4.92-4.92,4.92,1.97,4.92,4.92c.49,2.46-1.97,4.92-4.92,4.92,.49,0,0,0,0,0m0,14.76c-2.95,0-4.92-1.97-4.92-4.92s1.97-4.92,4.92-4.92,4.92,1.97,4.92,4.92-1.97,4.92-4.92,4.92m0,15.25c-2.95,0-4.92-1.97-4.92-4.92s1.97-4.92,4.92-4.92,4.92,1.97,4.92,4.92-1.97,4.92-4.92,4.92m0,15.26c-2.95,0-4.92-1.97-4.92-4.92s1.97-4.92,4.92-4.92,4.92,1.97,4.92,4.92c0,2.46-1.97,4.92-4.92,4.92m0,14.76c-2.95,0-4.92-1.97-4.92-4.92s1.97-4.92,4.92-4.92,4.92,1.97,4.92,4.92-1.97,4.92-4.92,4.92m0,15.25c-2.95,0-4.92-1.97-4.92-4.92s1.97-4.92,4.92-4.92,4.92,1.97,4.92,4.92c0,2.46-1.97,4.92-4.92,4.92m0,15.26c-2.95,0-4.92-1.97-4.92-4.92s1.97-4.92,4.92-4.92,4.92,1.97,4.92,4.92c0,2.46-1.97,4.92-4.92,4.92m0,14.76c-2.95,0-4.92-2.46-4.92-4.92s2.46-4.92,4.92-4.92,4.92,2.46,4.92,4.92-1.97,4.92-4.92,4.92m0,15.25c-2.95,0-4.92-1.97-4.92-4.92s1.97-4.92,4.92-4.92,4.92,1.97,4.92,4.92c0,2.46-1.97,4.92-4.92,4.92m37.4-152.55h-43.8c-2.95,0-4.92,1.97-4.92,4.92v149.11c0,2.95,1.97,4.92,4.43,4.92h44.29c2.95,0,4.92-1.97,4.92-4.92v-149.11c.49-2.46-1.97-4.92-4.92-4.92,.49,0,0,0,0,0"/><path class="cls-2" d="M217.51,268.68c10.33,0,19.19-8.37,19.19-18.7s-8.37-19.19-18.7-19.19-19.19,8.37-19.19,18.7,8.37,19.19,18.7,19.19"/><path class="cls-2" d="M233.75,361.69l-16.24,15.75-15.75-15.75c-1.97-1.97-3.44-4.92-3.44-8.37-.49-5.91,3.94-10.83,9.84-11.32h.49c2.95,0,6.4,3.44,8.37,5.41,2.46-2.95,5.41-4.43,8.86-5.41,5.91,0,10.33,4.92,10.33,10.83v.49c.49,3.44-.49,6.4-2.46,8.37m22.14-68.89s-5.41-14.76-18.21-14.76h-40.35c-12.3,0-18.21,14.76-18.21,14.76l-15.75,51.18s-2.95,9.35,4.92,11.81c7.87,2.46,10.33-6.89,10.33-6.89l12.79-42.81s.49-3.44,2.95-2.46c2.46,.98,1.48,4.43,1.48,4.43l-22.14,80.21h20.67v57.58c0,5.41,4.43,9.84,9.84,9.84s9.84-4.43,9.84-9.84v-57.58h5.91v57.58c0,5.41,4.43,9.84,9.84,9.84s9.84-4.43,9.84-9.84v-57.58h20.67l-21.65-80.21s-.98-3.44,1.48-4.43c2.46-.98,2.95,2.46,2.95,2.46l12.79,42.81s2.46,9.35,10.33,6.89c7.87-2.46,4.92-11.81,4.92-11.81l-15.25-51.18Z"/><path class="cls-2" d="M92.02,230.79c-10.33,0-19.19,8.37-19.19,19.19s8.37,19.19,19.19,19.19,19.19-8.37,19.19-19.19-8.86-19.19-19.19-19.19"/><path class="cls-2" d="M92.02,309.53c-1.97,0-3.44-1.48-3.44-2.95,0-1.97,1.48-3.44,2.95-3.44s3.44,1.48,3.44,2.95c.49,1.97-.98,3.44-2.95,3.44m0,24.6c-1.97,0-3.44-1.48-3.44-2.95,0-1.97,1.48-3.44,2.95-3.44s3.44,1.48,3.44,2.95c.49,1.97-.98,3.44-2.95,3.44m0,25.59c-1.97,0-3.44-1.48-2.95-3.44,0-1.97,1.97-2.95,3.44-2.95s2.46,1.48,2.95,2.95c0,1.97-1.48,3.44-3.44,3.44m54.13-15.75l-15.75-51.18s-5.41-14.76-18.21-14.76h-39.86c-12.3,0-18.21,14.76-18.21,14.76l-15.75,51.18s-2.95,9.35,5.41,11.81c8.37,2.46,10.33-6.89,10.33-6.89l12.79-42.81s.49-3.44,2.95-2.46c2.46,.98,1.48,4.43,1.48,4.43l-22.14,80.21h20.67v57.58c0,5.41,4.43,9.84,9.84,9.84s9.84-4.43,9.84-9.84v-57.58h5.41v57.58c0,5.41,4.43,9.84,9.84,9.84s9.84-4.43,9.84-9.84v-57.58h20.67l-21.65-80.21s-.98-3.44,1.48-4.43c2.46-.98,2.95,2.46,2.95,2.46l12.79,42.81s2.46,9.35,10.33,6.89c7.87-2.46,4.92-11.81,4.92-11.81"/><path class="cls-2" d="M92.51,227.35c6.4,0,12.3,2.95,16.73,7.38l7.87-8.86c-6.4-6.4-15.26-10.33-24.6-10.33s-18.7,4.43-25.1,11.32l9.35,7.38c4.43-4.43,9.84-6.89,15.75-6.89"/></g></svg>