<?xml version="1.0" encoding="UTF-8"?><svg id="Capa_1" xmlns="http://www.w3.org/2000/svg" viewBox="0 0 467 568.37"><defs><style>.cls-1{fill:#fff;}.cls-2{fill:#48ad37;}</style></defs><path class="cls-2" d="M4.92,80.7H461.59V4.92H4.92V80.7Zm462.08,4.92H0V0H466.51V85.62h.49Z"/><polygon class="cls-2" points="16.73 17.72 38.88 17.72 38.88 24.6 32.48 24.6 32.48 67.91 23.62 67.91 23.62 24.6 16.73 24.6 16.73 17.72"/><path class="cls-2" d="M49.21,52.16h6.89l-3.44-20.18-3.44,20.18Zm-10.33,15.75l9.35-50.19h9.35l9.84,50.19h-8.86l-1.48-9.35h-8.86l-1.48,9.35h-7.87Z"/><path class="cls-2" d="M80.21,24.6v15.75h2.95c2.95,0,3.94-1.48,3.94-3.94v-7.38c0-2.95-1.48-3.94-3.94-3.94h-2.95v-.49Zm0,20.18v23.13h-8.37V17.72h12.3c8.37,0,11.81,4.43,11.81,11.32v6.4c0,5.41-1.97,8.37-6.89,9.84l7.87,22.64h-8.86l-7.87-23.13Z"/><path class="cls-2" d="M113.67,41.34h11.81v26.57h-5.91v-5.41c-.98,3.94-3.44,5.91-7.87,5.91-7.38,0-10.33-5.91-10.33-13.29V31c0-7.87,3.94-13.29,12.79-13.29,9.35,0,11.81,5.41,11.81,12.79v4.43h-7.87v-4.92c0-2.95-.98-4.92-4.43-4.92-2.95,0-4.43,1.97-4.43,4.92v27.07c0,2.95,1.48,4.92,3.94,4.92,2.95,0,3.94-1.48,3.94-4.92v-9.35h-3.94v-6.4h.49Z"/><polygon class="cls-2" points="132.37 17.72 152.55 17.72 152.55 24.6 140.74 24.6 140.74 38.88 149.11 38.88 149.11 45.77 140.74 45.77 140.74 61.02 152.55 61.02 152.55 67.91 132.37 67.91 132.37 17.72"/><polygon class="cls-2" points="156.49 17.72 178.63 17.72 178.63 24.6 171.74 24.6 171.74 67.91 163.38 67.91 163.38 24.6 156.49 24.6 156.49 17.72"/><polygon class="cls-2" points="365.14 17.72 365.14 67.91 356.77 67.91 356.77 29.53 350.87 35.43 350.87 27.07 358.74 18.21 365.14 18.21 365.14 17.72"/><path class="cls-2" d="M395.65,44.78v12.3c0,6.89-3.44,11.32-11.81,11.32s-11.81-4.92-11.81-12.3v-5.91h7.87v6.4c0,2.95,.98,4.92,3.94,4.92,2.46,0,3.44-1.97,3.44-4.43v-12.3c0-2.95-.98-4.43-3.44-4.43s-3.94,1.48-3.94,4.43v.98h-7.38V17.72h22.14v6.89h-14.27v12.3c1.48-2.46,3.94-3.44,6.89-3.44,4.43,.49,8.37,3.44,8.37,11.32"/><path class="cls-2" d="M409.42,36.91c3.44,0,5.91,2.95,5.91,5.91,0,3.44-2.95,5.91-5.91,5.91-3.44,0-5.91-2.95-5.91-5.91-.49-2.95,2.46-5.91,5.91-5.91"/><path class="cls-2" d="M439.44,32.48v-3.44c0-2.95-.98-4.92-3.94-4.92s-3.94,1.97-3.94,4.92v3.44c0,2.95,.98,4.92,3.94,4.92,2.95-.49,3.94-1.97,3.94-4.92m0,24.11v-7.87c0-2.95-.98-4.92-3.94-4.92s-3.94,1.97-3.94,4.92v7.87c0,2.95,.98,4.92,3.94,4.92s3.94-1.97,3.94-4.92m-16.73-.98v-5.41c0-4.92,1.48-8.37,5.41-9.84-3.44-1.48-4.92-4.43-4.92-8.86v-1.97c0-7.87,3.94-11.81,11.81-11.81s11.81,4.43,11.81,11.81v1.97c0,3.94-1.48,6.89-4.92,8.86,3.94,1.97,5.41,5.41,5.41,9.84v5.41c0,7.38-3.44,12.79-12.3,12.79-8.37,0-12.3-4.92-12.3-12.79"/><g><rect class="cls-2" x="0" y="101.86" width="466.51" height="466.51"/><path class="cls-1" d="M396.63,315.93c-1.48,7.38-11.81,13.29-19.19,13.78-7.38,.49-37.89,2.95-51.18,8.86l-4.92-9.84c11.81-2.46,22.64-7.87,31.49-15.75,16.24-13.78,29.53-17.72,36.91-12.79,6.89,4.92,8.86,8.37,6.89,15.75m-14.76,168.79H86.12L234.73,203.73l147.14,280.99Zm-3.44-114.17c9.84-2.95,12.79-.49,14.27,1.97,1.48,2.46,0,8.86-5.91,12.3-5.91,3.44-18.21,13.78-19.19,23.62-.49,3.44,0,6.89,.98,10.33l-17.22-32.97c9.35-5.91,20.67-13.29,27.07-15.25m-226.86-87.1c1.48-1.48,2.95-2.95,4.43-3.94,2.46-.98,4.92-1.48,7.38-.49,2.95,1.48,4.92,3.44,6.4,6.4,.49-1.48,.98-2.95,1.48-4.43,.49-1.48,.49-2.95,.49-4.43l6.4-1.48-10.33,18.7-.49,.49c.49,0-2.95-19.68-15.75-10.83m-4.92-36.42c-1.97-.98-2.95-3.44-2.46-5.41,.98-1.97,3.44-2.95,5.41-2.46,.49,0,.49,.49,.98,.49,1.97,.98,2.95,3.44,1.97,5.41-1.48,2.46-3.94,2.95-5.91,1.97m227.35,31.99c-16.24,1.48-28.54,17.22-36.42,22.14-7.87,4.92-17.22,12.79-24.11,3.44-6.89-9.35,3.94-14.76,9.35-16.73,5.41-1.97,18.7-6.89,22.14-13.29,4.43-7.38,5.91-16.73,3.94-25.1l-2.46-11.32c2.46-3.44,3.44-7.38,2.46-11.32-1.97-7.38-6.4-13.78-13.29-17.72-8.86-6.4-10.83-5.41-12.79-4.92-1.97,.49-7.38,8.86-4.43,20.67,2.95,11.81,5.41,15.25,15.25,19.68,0,0,5.91,15.75-6.89,23.62-9.84,5.91-21.16,5.91-29.03,14.27l-57.08-107.77c-1.48-2.95-4.92-3.94-7.38-2.46-.98,.49-1.97,1.48-2.46,2.46l-26.08,49.21c-2.46-19.19-24.6-34.45-24.6-34.45,19.19,11.32,23.62,23.62,23.62,23.62,.98-.49,1.48-1.48,1.97-2.46,3.44-6.4,1.97-14.27-3.44-19.19-10.33-10.83-35.43-11.81-32.97-9.84,8.86,8.86,4.92,20.18,10.83,27.56,4.43,5.41,13.29,5.91,18.21,5.41,2.46,3.94,4.43,8.37,4.92,13.29l-16.24,30.51-.49,.49-3.44,6.89-12.3,.98c-1.48-10.33-3.94-20.18-8.37-30.02l-1.48-2.95c-2.46-3.44-4.43-4.92-5.91-2.95-1.48,1.97-2.95,3.94-3.94,5.41-3.94-1.48-7.87,.49-9.35,4.43-.98,2.95,0,6.4,2.46,8.37-5.91,14.27-5.41,30.02,1.48,43.3,2.46,4.43,5.91,11.81,9.84,17.22,.49,.98,1.48,1.97,2.46,2.46l-16.24,30.02c0-3.44,0-7.38-.49-10.83-6.4,1.48-11.81,5.91-14.76,11.32-.49-13.29-4.43-26.57-11.32-37.89-.98-3.94-5.41-18.21-31-23.62-.49,7.87,2.46,15.75,8.86,20.67,5.41,4.43,12.3,6.4,19.19,4.92,7.38,11.81,10.83,25.59,10.33,39.37-4.92-8.86-11.81-16.24-19.68-22.14-4.43-3.44-9.84-5.41-15.26-4.92-7.87,.49-15.25,4.92-18.7,11.81,0,0,12.3,10.83,35.92-1.48,6.4,4.92,11.32,11.32,15.26,18.21-4.43-4.43-9.35-8.37-15.26-10.83-2.95,7.38-1.48,15.75,2.95,22.14,4.43,6.4,12.3,10.33,20.18,9.84l-18.7,34.94c-2.46-1.97-5.41-3.94-7.38-5.91,4.43-6.4,5.41-12.3,2.95-14.27s-9.35,1.48-14.76,8.37c-5.41,6.89-7.38,14.27-4.43,16.24,2.95,1.97,8.37-.98,13.29-6.4,2.46,2.46,5.41,4.43,7.87,6.4l-12.3,23.62c-9.35-5.41-18.21-11.81-26.08-19.19,8.86-11.81,13.29-22.64,9.84-25.1-3.44-2.46-14.27,5.41-23.62,17.72-9.35,12.3-14.76,24.6-11.81,27.56,2.95,2.95,11.81-3.94,20.67-14.27,8.37,7.87,17.22,14.27,27.07,19.68l-29.53,55.61c-1.48,2.46-.49,5.91,2.46,7.38,.98,.49,1.48,.49,2.46,.49H402.54c2.95,0,5.41-2.46,5.41-5.41,0-.98,0-1.97-.49-2.46l-32.97-62.5c-2.46-7.38-2.95-15.75-.49-23.62,3.44-7.38,9.35-13.29,17.22-16.24,3.94-2.46,14.27-9.84,10.83-22.14,0,0-3.44-18.7-29.53-9.84,0,0-15.25,6.89-28.05,14.76l-11.32-21.16c2.95-.98,6.4-1.97,9.84-1.97,15.25-1.48,30.02-3.44,35.43-3.94,5.41-.49,23.62-4.92,30.51-14.76,7.38-9.84,8.37-23.13,3.44-34.45-2.46-8.86-14.27-21.16-38.38-18.7"/><path class="cls-1" d="M240.64,404.01h-13.78l-5.91-96.45h25.1l-5.41,96.45Zm-6.4,39.37c-7.38,0-12.79-5.91-12.79-12.79s5.91-12.79,12.79-12.79c7.38,0,12.79,5.91,12.79,12.79,0,7.38-5.91,12.79-12.79,12.79m-123.52,26.57h247.03l-123.02-234.24-124.01,234.24Z"/><path class="cls-1" d="M395.15,205.7l-7.87-7.87c-.49,.98-1.48,2.46-2.46,3.44l6.4,6.4c1.48-.49,2.46-1.48,3.94-1.97"/><polygon class="cls-1" points="380.39 208.16 384.82 212.59 388.26 210.13 382.85 204.71 380.39 208.16"/><path class="cls-1" d="M375.47,216.52l.98,.98c1.48-.98,2.95-1.48,4.43-2.46l-2.95-2.95c-.49,1.48-1.48,2.95-2.46,4.43"/><path class="cls-1" d="M414.35,206.68c-3.94-3.44-8.86-5.41-13.78-6.4,.49-.49,.98-1.48,.98-1.97,.49-.98,.98-1.97,.98-3.44,.49-1.48,.49-2.46,.49-3.94,0-.49-.49-.98-.98-.98h-3.94c-.98,0-2.46,.49-3.44,.98s-1.48,.49-1.97,.98c-.49-4.92-2.95-9.84-5.91-13.78-4.92-6.89-10.83-11.32-13.29-9.84-2.46,1.48-.49,4.92,1.48,9.84-4.92-2.46-8.86-2.95-9.84-.98-.98,1.97,3.44,7.87,10.83,12.3,3.94,2.95,8.86,4.92,13.78,5.41l8.37,8.37c.49,4.92,1.97,9.84,4.92,13.78,4.43,7.38,9.84,12.3,12.3,10.83,2.46-1.48,.98-4.92-.98-9.84,4.92,2.46,8.86,3.44,9.84,1.97,.98-1.48-2.46-8.37-9.84-13.29"/></g></svg>