<?xml version="1.0" encoding="UTF-8"?><svg id="Capa_1" xmlns="http://www.w3.org/2000/svg" viewBox="0 0 467 568.37"><defs><style>.cls-1{fill:#fff;}.cls-2{fill:#24a038;}</style></defs><path class="cls-2" d="M4.92,80.7H461.59V4.92H4.92V80.7Zm462.08,4.92H0V0H466.51V85.62h.49Z"/><polygon class="cls-2" points="16.73 17.72 38.88 17.72 38.88 24.6 32.48 24.6 32.48 67.91 23.62 67.91 23.62 24.6 16.73 24.6 16.73 17.72"/><path class="cls-2" d="M49.21,52.16h6.89l-3.44-20.18-3.44,20.18Zm-10.33,15.75l9.35-50.19h9.35l9.84,50.19h-8.86l-1.48-9.35h-8.86l-1.48,9.35h-7.87Z"/><path class="cls-2" d="M80.21,24.6v15.75h2.95c2.95,0,3.94-1.48,3.94-3.94v-7.38c0-2.95-1.48-3.94-3.94-3.94h-2.95v-.49Zm0,20.18v23.13h-8.37V17.72h12.3c8.37,0,11.81,4.43,11.81,11.32v6.4c0,5.41-1.97,8.37-6.89,9.84l7.87,22.64h-8.86l-7.87-23.13Z"/><path class="cls-2" d="M113.67,41.34h11.81v26.57h-5.91v-5.41c-.98,3.94-3.44,5.91-7.87,5.91-7.38,0-10.33-5.91-10.33-13.29V31c0-7.87,3.94-13.29,12.79-13.29,9.35,0,11.81,5.41,11.81,12.79v4.43h-7.87v-4.92c0-2.95-.98-4.92-4.43-4.92-2.95,0-4.43,1.97-4.43,4.92v27.07c0,2.95,1.48,4.92,3.94,4.92,2.95,0,3.94-1.48,3.94-4.92v-9.35h-3.94v-6.4h.49Z"/><polygon class="cls-2" points="132.37 17.72 152.55 17.72 152.55 24.6 140.74 24.6 140.74 38.88 149.11 38.88 149.11 45.77 140.74 45.77 140.74 61.02 152.55 61.02 152.55 67.91 132.37 67.91 132.37 17.72"/><polygon class="cls-2" points="156.49 17.72 178.63 17.72 178.63 24.6 171.74 24.6 171.74 67.91 163.38 67.91 163.38 24.6 156.49 24.6 156.49 17.72"/><path class="cls-2" d="M434.52,61.02c3.44,0,4.92-1.97,4.92-4.92V30.02c0-2.95-1.48-4.92-4.92-4.92h-3.44V61.51h3.44v-.49Zm13.29-29.53v23.13c0,7.87-2.95,13.29-12.3,13.29h-12.79V17.72h12.79c9.35,0,12.3,5.91,12.3,13.78"/><path class="cls-2" d="M392.69,28.54v4.43c0,4.43-2.46,6.89-5.91,8.37,4.43,.98,6.4,3.94,6.4,8.37v7.38c0,6.89-3.94,11.32-12.3,11.32s-11.81-4.92-11.81-12.3v-6.4h7.87v7.38c0,2.95,.98,4.92,3.94,4.92,2.46,0,3.94-1.97,3.94-4.43v-8.37c0-2.46-.98-3.94-3.94-3.94h-3.44v-6.4h2.95c2.95,0,4.43-1.48,4.43-3.94v-6.4c0-2.95-.98-4.43-3.44-4.43s-3.94,1.97-3.94,4.92v4.92h-7.87v-4.43c0-7.38,2.95-12.79,11.81-12.79,7.87,.49,11.32,4.92,11.32,11.81"/><polygon class="cls-2" points="404.01 32.48 404.01 53.15 414.84 42.81 404.01 32.48"/><g><rect class="cls-2" y="101.86" width="466.51" height="466.51"/><path class="cls-1" d="M319.86,439.44H148.61V163.87h170.76V439.44h.49Zm-85.62,62.5c-11.32,0-20.67-9.35-20.67-20.67s9.35-20.67,20.67-20.67,20.67,9.35,20.67,20.67-9.35,20.67-20.67,20.67m80.7-355.29H152.06c-10.33,0-18.7,8.37-18.7,18.7V504.89c0,10.33,8.37,18.7,18.7,18.7h163.38c10.33,0,18.7-8.37,18.7-18.7V165.84c0-10.33-8.37-18.7-19.19-19.19"/><path class="cls-1" d="M233.25,345.45c-4.43,0-7.87-3.44-7.87-7.87s3.44-7.87,7.87-7.87,7.87,3.44,7.87,7.87-3.44,7.87-7.87,7.87m7.87-81.69l-3.44,58.07h-8.37l-3.44-58.07h15.25Zm60.53,90.55l-66.93-127.95c-.49-.49-.98-.98-1.97-.49-.49,0-.49,.49-.49,.49l-66.43,127.95c-.49,.49,0,1.48,.49,1.97h133.85c.98,0,1.48-.49,1.48-1.48v-.49Z"/></g></svg>