<?xml version="1.0" encoding="UTF-8"?><svg id="Capa_1" xmlns="http://www.w3.org/2000/svg" viewBox="0 0 467 568.37"><defs><style>.cls-1{fill:#fff;}.cls-2{fill:#d5102b;}</style></defs><path class="cls-2" d="M4.92,80.7H461.59V4.92H4.92V80.7Zm462.08,4.92H0V0H466.51V85.62h.49Z"/><polygon class="cls-2" points="16.73 17.72 38.88 17.72 38.88 24.6 32.48 24.6 32.48 67.91 23.62 67.91 23.62 24.6 16.73 24.6 16.73 17.72"/><path class="cls-2" d="M49.21,52.16h6.89l-3.44-20.18-3.44,20.18Zm-10.33,15.75l9.35-50.19h9.35l9.84,50.19h-8.86l-1.48-9.35h-8.86l-1.48,9.35h-7.87Z"/><path class="cls-2" d="M80.21,24.6v15.75h2.95c2.95,0,3.94-1.48,3.94-3.94v-7.38c0-2.95-1.48-3.94-3.94-3.94h-2.95v-.49Zm0,20.18v23.13h-8.37V17.72h12.3c8.37,0,11.81,4.43,11.81,11.32v6.4c0,5.41-1.97,8.37-6.89,9.84l7.87,22.64h-8.86l-7.87-23.13Z"/><path class="cls-2" d="M113.67,41.34h11.81v26.57h-5.91v-5.41c-.98,3.94-3.44,5.91-7.87,5.91-7.38,0-10.33-5.91-10.33-13.29V31c0-7.87,3.94-13.29,12.79-13.29,9.35,0,11.81,5.41,11.81,12.79v4.43h-7.87v-4.92c0-2.95-.98-4.92-4.43-4.92-2.95,0-4.43,1.97-4.43,4.92v27.07c0,2.95,1.48,4.92,3.94,4.92,2.95,0,3.94-1.48,3.94-4.92v-9.35h-3.94v-6.4h.49Z"/><polygon class="cls-2" points="132.37 17.72 152.55 17.72 152.55 24.6 140.74 24.6 140.74 38.88 149.11 38.88 149.11 45.77 140.74 45.77 140.74 61.02 152.55 61.02 152.55 67.91 132.37 67.91 132.37 17.72"/><polygon class="cls-2" points="156.49 17.72 178.63 17.72 178.63 24.6 171.74 24.6 171.74 67.91 163.38 67.91 163.38 24.6 156.49 24.6 156.49 17.72"/><path class="cls-2" d="M387.28,53.15h7.38v-20.67l-7.38,20.67Zm-7.38,1.48l14.76-36.91h8.37V53.15h3.44v6.4h-3.44v8.37h-7.87v-8.37h-14.76v-4.92h-.49Z"/><path class="cls-2" d="M419.76,36.91c3.44,0,5.91,2.95,5.91,5.91,0,3.44-2.95,5.91-5.91,5.91-3.44,0-5.91-2.95-5.91-5.91-.49-2.95,2.46-5.91,5.91-5.91"/><polygon class="cls-2" points="446.82 17.72 446.82 67.91 438.46 67.91 438.46 29.53 432.55 35.43 432.55 27.07 440.43 18.21 446.82 18.21 446.82 17.72"/><g><rect class="cls-2" x="0" y="101.86" width="466.51" height="466.51"/><path class="cls-1" d="M350.37,230.79h-13.78v-10.33h-2.46v10.33h-14.27v-10.33h30.51v10.33Zm0,26.08h-13.78v-23.62h13.78v23.62Zm0,21.16h-13.78v-9.84h-2.46v9.84h-14.27v-9.84h30.51v9.84Zm0,26.57h-13.78v-24.11h13.78v24.11Zm-16.24,0h-14.27v-24.11h14.27v24.11Zm-24.11-73.81h-14.27v-10.33h14.27v10.33Zm0,26.08h-14.27v-23.62h14.27v23.62Zm0,21.16h-14.27v-10.33h-2.46v10.33h-14.27v-10.33h30.51v10.33h.49Zm0,26.08h-14.27v-23.62h14.27v23.62Zm-16.73,0h-14.27v-23.62h14.27v23.62Zm-13.78-70.86h14.27v23.62h-14.76l.49-23.62Zm0-12.79h14.27v10.33h-14.76l.49-10.33Zm40.35,12.79h14.27v23.62h-14.27v-23.62Zm-66.93,40.35h-39.86v-3.44s5.91-5.91,19.68-5.91,19.68,5.91,19.68,5.91l.49,3.44Zm0,52.16h-19.19v-49.7h19.19v49.7Zm-21.16,0h-18.21v-49.7h18.21v49.7Zm.98-123.02c8.86,0,15.75,7.38,15.75,15.75s-6.89,16.24-15.75,16.24-15.75-7.38-15.75-15.75c-.49-9.35,6.89-16.24,15.75-16.24q0-.49,0,0m-42.81,28.05h-14.27v-10.33h-2.46v10.33h-13.78v-10.33h30.51v10.33Zm0,26.08h-14.27v-23.62h14.27v23.62Zm0,21.16h-14.27v-9.84h-2.46v9.84h-13.78v-9.84h30.51v9.84Zm0,26.57h-14.27v-24.11h14.27v24.11Zm-16.73,0h-13.78v-24.11h13.78v24.11Zm-24.11-73.81h-14.27v-10.33h14.27v10.33Zm0,26.08h-14.27v-23.62h14.27v23.62Zm0,21.16h-14.27v-10.33h-2.46v10.33h-14.27v2.46h14.27v23.62h-14.27v-36.42h30.51v10.33h.49Zm0,26.08h-14.27v-23.62h14.27v23.62Zm-30.51-70.86h14.27v23.62h-14.27v-23.62Zm0-12.79h14.27v10.33h-14.27v-10.33Zm40.84,12.79h13.78v23.62h-13.78v-23.62Zm107.28-27.56l-33.46-30.51-35.43,30.51H91.53v122.53H374.49v-122.53h-107.77Z"/><path class="cls-1" d="M226.86,225.87q.49,0,.98-.49l6.4-6.4v-12.3c0-.49-.49-1.48-.98-1.48s-1.48,.49-1.48,.98v11.81l-5.41,5.41c-.49,.49-.49,1.48,0,1.97l.49,.49Z"/><path class="cls-1" d="M233.25,165.84l37.89,33.95h117.12l-29.03-33.95h-84.15c-2.46,0-4.92-.98-7.38-2.46l-34.45-25.59-34.45,26.08c-1.97,1.48-4.43,2.46-7.38,2.46H111.71l-32.97,33.46h116.63l37.89-33.95Z"/><path class="cls-1" d="M129.42,446.82s-2.46-8.86-9.84-8.86h-27.56c-1.97,0-3.94-.98-4.92-2.46-2.46-2.46-10.33-16.24-10.83-16.73l-3.94-5.91c-.98-1.97-2.95-2.95-4.92-2.95-3.44,0-5.91,2.95-5.91,5.91,0,.98,.49,1.97,.49,2.46l20.67,36.91c.49,1.48,.98,2.46,.98,3.94v3.94c0,1.48,0,2.46-.49,3.94l-8.37,31h8.86v27.07c-.49,4.43,3.44,8.37,7.87,8.86,4.43,.49,8.37-3.44,8.86-7.87v-28.05h4.92v26.57c0,3.44,1.97,6.89,5.41,8.37,4.43,1.48,8.86-.98,10.33-5.41,.49-.98,.49-1.48,.49-2.46v-27.07h8.86l-12.3-41.83s-.49-1.97,.98-2.46c1.48-.49,1.97,1.48,1.97,1.48l9.84,31c.49,2.95,3.94,4.92,6.89,4.43,5.41-1.48,3.44-7.38,3.44-7.38l-11.81-36.42Z"/><path class="cls-1" d="M104.32,430.58c9.35,0,16.73-7.38,16.73-16.73s-7.38-16.73-16.73-16.73-16.73,7.38-16.73,16.73,7.38,16.73,16.73,16.73"/><path class="cls-1" d="M284.92,430.09c8.86,0,16.24-7.38,16.24-16.24s-7.38-16.24-16.24-16.24-16.24,7.38-16.24,16.24c-.49,8.86,6.89,16.24,16.24,16.24"/><path class="cls-1" d="M324.29,477.83c0-.98-4.92-12.3-6.4-16.24-9.84-25.59-11.32-25.59-20.67-25.59h-25.1c-8.86,.49-10.83,0-20.67,25.59-1.48,3.44-7.38,17.72-7.38,18.7s-2.46,5.91,2.95,7.87c5.41,1.97,6.89-3.94,6.89-3.94l9.84-25.1s0-.49,.49-.49,.49,.49,.49,.98v64.96c0,4.92,3.44,8.86,8.37,8.86h.49c4.43,0,8.37-3.94,8.37-8.37v-26.57s-.49-3.94,2.46-3.94,2.46,3.94,2.46,3.94v26.08c0,4.92,3.44,8.86,8.37,8.86h.49c4.43,0,8.37-3.94,8.37-8.37v-65.45c0-.49,0-.98,.49-.98s.49,.49,.49,.49l9.35,22.14s2.46,5.91,7.87,3.44c5.41-2.46,1.97-6.89,1.97-6.89"/><path class="cls-1" d="M389.25,400.57h-32.48c-9.84,.98-17.22,8.86-17.22,18.7v38.88c.49,2.95,2.95,5.41,5.91,4.92,2.46-.49,4.43-2.46,4.92-4.92v-33.46c0-1.48,.49-2.95,2.46-2.95,1.48,0,1.97,1.48,1.97,2.95v100.39c.49,4.43,3.94,7.38,8.37,7.38,3.94-.49,6.89-3.44,7.38-7.38v-58.07c0-.98,.98-1.97,1.97-2.46h.49c.98,0,1.97,.98,2.46,1.97v58.07c0,4.43,3.44,7.87,7.87,7.87s7.87-3.44,7.87-7.87v-100.39c0-.98,.49-2.95,1.97-2.95,2.46,0,2.46,1.48,2.46,2.95v33.46c0,2.95,2.46,5.41,5.41,5.41s5.41-2.46,5.41-5.41v-38.88c-.49-9.35-7.87-17.22-17.22-18.21"/><path class="cls-1" d="M345.94,373.5c.49-1.48,1.97-3.44,6.89-4.43,.98,0,1.97-.49,2.46-.98,.98-1.48,1.97-2.95,2.95-4.43v-.98c-.49-1.97-2.46-4.92-7.38-2.46-5.91,2.95-5.41,11.81-5.41,11.81,0,0,.49,1.97,.49,1.48"/><path class="cls-1" d="M392.2,369.56c4.92,.49,6.4,2.95,6.89,4.43,0,.49,0,0,.49-.98,.49-.98,.49-8.86-5.41-11.81-4.92-2.46-7.38,.49-7.38,2.46v.98c.98,.98,1.97,2.46,2.95,3.94,.49,.49,1.48,.98,2.46,.98"/><path class="cls-1" d="M372.52,394.66c9.35,0,16.73-7.38,16.73-16.73s-7.38-16.73-16.73-16.73-16.73,7.38-16.73,16.73,7.38,16.73,16.73,16.73"/><path class="cls-1" d="M212.09,396.14h-34.94c-9.84,.98-17.22,9.35-17.22,19.19v40.35c0,2.95,2.46,5.41,5.91,5.41,2.95,0,5.41-2.46,5.41-5.41v-34.94c0-1.48,.49-2.95,2.95-2.95s1.97,1.48,1.97,2.95v104.32c0,4.43,3.44,7.87,8.37,7.87,4.43,0,7.87-3.44,7.87-7.87v-60.04c0-1.48,.98-2.46,1.97-2.46s2.46,.98,2.46,1.97v60.53c.49,4.43,4.43,7.87,8.86,7.38,3.94-.49,7.38-3.44,7.38-7.38v-104.32c0-.98,.49-2.95,1.97-2.95s2.95,1.97,2.95,2.95v34.94c0,2.95,2.46,5.41,5.91,5.41,2.95,0,5.41-2.46,5.41-5.41v-40.35c0-9.84-7.38-18.21-17.22-19.19"/><path class="cls-1" d="M205.7,371.53c-1.48-.98-2.46-1.97-4.92-.98-1.48,.98-1.97,.98-3.94,1.97-3.44,1.48-6.89,2.46-10.33,2.95-2.95,.49-5.41,.49-8.37,.49,.98,8.86,8.86,15.75,18.21,14.76,7.87-.98,13.78-6.89,14.76-14.27-1.97-1.97-3.44-3.44-5.41-4.92"/><path class="cls-1" d="M178.14,372.52c2.46,0,4.92,0,7.38-.49,3.44-.49,6.4-1.48,9.35-2.95,1.48-.98,3.44-1.48,4.92-1.97,.98-.49,2.46-.49,3.44-.49,.49,0,.98,.49,1.48,.98l1.48,.98s.49,.49,4.43,3.44c.49,.49,.98,.98,.98,.49s.49-2.95,.49-4.43c-.49-3.94-2.46-7.87-4.92-11.32-.98-.98-1.97-1.97-3.44-1.48-1.97,.49-1.97-.98-3.44-1.97-4.92-1.97-10.33-.98-14.27,2.46-4.92,3.94-8.37,8.86-10.83,14.76-.49,.98,.98,1.97,2.95,1.97"/></g></svg>