<?xml version="1.0" encoding="UTF-8"?><svg id="Capa_1" xmlns="http://www.w3.org/2000/svg" viewBox="0 0 467 568.37"><defs><style>.cls-1{fill:#fff;}.cls-2{fill:#21803f;}</style></defs><path class="cls-2" d="M4.92,80.7H461.59V4.92H4.92V80.7Zm462.08,4.92H0V0H466.51V85.62h.49Z"/><polygon class="cls-2" points="16.73 17.72 38.88 17.72 38.88 24.6 32.48 24.6 32.48 67.91 23.62 67.91 23.62 24.6 16.73 24.6 16.73 17.72"/><path class="cls-2" d="M49.21,52.16h6.89l-3.44-20.18-3.44,20.18Zm-10.33,15.75l9.35-50.19h9.35l9.84,50.19h-8.86l-1.48-9.35h-8.86l-1.48,9.35h-7.87Z"/><path class="cls-2" d="M80.21,24.6v15.75h2.95c2.95,0,3.94-1.48,3.94-3.94v-7.38c0-2.95-1.48-3.94-3.94-3.94h-2.95v-.49Zm0,20.18v23.13h-8.37V17.72h12.3c8.37,0,11.81,4.43,11.81,11.32v6.4c0,5.41-1.97,8.37-6.89,9.84l7.87,22.64h-8.86l-7.87-23.13Z"/><path class="cls-2" d="M113.67,41.34h11.81v26.57h-5.91v-5.41c-.98,3.94-3.44,5.91-7.87,5.91-7.38,0-10.33-5.91-10.33-13.29V31c0-7.87,3.94-13.29,12.79-13.29,9.35,0,11.81,5.41,11.81,12.79v4.43h-7.87v-4.92c0-2.95-.98-4.92-4.43-4.92-2.95,0-4.43,1.97-4.43,4.92v27.07c0,2.95,1.48,4.92,3.94,4.92,2.95,0,3.94-1.48,3.94-4.92v-9.35h-3.94v-6.4h.49Z"/><polygon class="cls-2" points="132.37 17.72 152.55 17.72 152.55 24.6 140.74 24.6 140.74 38.88 149.11 38.88 149.11 45.77 140.74 45.77 140.74 61.02 152.55 61.02 152.55 67.91 132.37 67.91 132.37 17.72"/><polygon class="cls-2" points="156.49 17.72 178.63 17.72 178.63 24.6 171.74 24.6 171.74 67.91 163.38 67.91 163.38 24.6 156.49 24.6 156.49 17.72"/><path class="cls-2" d="M431.08,52.16h6.89l-3.44-20.18-3.44,20.18Zm-10.33,15.75l9.35-50.19h9.35l9.35,50.19h-8.86l-1.48-9.35h-8.86l-1.48,9.35h-7.38Z"/><polygon class="cls-2" points="363.17 17.72 363.17 67.91 354.8 67.91 354.8 29.53 348.9 35.43 348.9 27.07 356.77 18.21 363.17 18.21 363.17 17.72"/><path class="cls-2" d="M393.19,28.54v4.43c0,4.43-2.46,6.89-5.91,8.37,4.43,.98,6.4,3.94,6.4,8.37v7.38c0,6.89-3.94,11.32-12.3,11.32s-11.81-4.92-11.81-12.3v-6.4h7.87v7.38c0,2.95,.98,4.92,3.94,4.92,2.46,0,3.94-1.97,3.94-4.43v-8.37c0-2.46-.98-3.94-3.94-3.94h-3.94v-6.4h2.95c2.95,0,4.43-1.48,4.43-3.94v-6.4c0-2.95-.98-4.43-3.44-4.43s-3.44,1.97-3.44,4.92v4.92h-7.87v-4.43c0-7.38,2.95-12.79,11.81-12.79,7.87,.49,11.32,4.92,11.32,11.81"/><polygon class="cls-2" points="404.01 32.48 404.01 53.15 414.84 42.81 404.01 32.48"/><g><rect class="cls-2" x="0" y="101.86" width="466.51" height="466.51"/><path class="cls-1" d="M117.12,396.63v77.26c0,15.75-6.89,26.08-24.6,26.08s-25.59-10.33-25.59-26.08v-77.26h17.22v79.23c0,5.91,2.46,10.33,8.37,10.33s8.37-3.94,8.37-10.33v-79.23h16.24Z"/><polygon class="cls-1" points="142.22 434.52 142.22 498.99 127.45 498.99 127.45 396.63 144.18 396.63 162.88 455.19 162.88 396.63 177.15 396.63 177.15 498.99 161.9 498.99 142.22 434.52"/><polygon class="cls-1" points="187 396.63 227.35 396.63 227.35 410.41 204.22 410.41 204.22 439.93 221.44 439.93 221.44 453.71 204.22 453.71 204.22 498.99 187 498.99 187 396.63"/><path class="cls-1" d="M232.27,472.41v-49.7c0-16.24,7.38-27.56,25.59-27.56,19.19,0,24.11,10.83,24.11,25.59v11.81h-15.75v-13.29c0-6.4-1.97-9.84-8.37-9.84s-8.37,4.43-8.37,10.83v55.11c0,6.4,2.46,10.83,8.86,10.83s8.37-3.94,8.37-9.84v-19.19h15.75v17.72c0,14.76-5.91,25.59-24.11,25.59s-26.08-12.3-26.08-28.05"/><path class="cls-1" d="M290.83,472.41v-49.7c0-16.24,7.38-27.56,25.59-27.56,19.19,0,24.6,10.83,24.6,25.59v11.81h-15.75v-13.29c0-6.4-1.97-9.84-8.37-9.84s-8.37,4.43-8.37,10.83v54.62c0,6.4,2.46,10.83,8.86,10.83s8.37-3.94,8.37-9.84v-19.19h15.75v17.72c0,14.76-5.91,25.59-24.6,25.59s-26.08-11.81-26.08-27.56"/><path class="cls-1" d="M349.39,472.41v-49.7c0-16.24,7.38-27.56,25.59-27.56,19.19,0,24.11,10.83,24.11,25.59v11.81h-15.75v-13.29c0-6.4-1.97-9.84-8.37-9.84s-8.86,4.43-8.86,10.83v54.62c0,6.4,2.46,10.83,8.86,10.83s8.37-3.94,8.37-9.84v-19.19h15.75v17.72c0,14.76-5.91,25.59-24.11,25.59s-25.59-11.81-25.59-27.56"/><path class="cls-1" d="M301.66,270.16c-1.97-.49-9.84-11.32-3.44-18.21,.98-.98-1.97-4.43-.98-4.43,3.44-.49,4.92,1.97,5.91,4.92v3.94c0,4.43-.49,8.86-1.48,13.78m-18.7,34.45c-.98,0-1.48-.49-1.97-.98-3.94-1.97-3.44,.98-4.92,.49-1.48-.49,1.97-4.92-3.44-1.48-5.41,3.44-3.94-.49-6.4-6.89-1.48-5.91,1.48-12.3,7.38-14.76,3.94-1.48,8.37-2.46,12.3-3.44,8.37-1.97,9.84-6.89,11.32-3.94l.98,1.48c.49,1.48,.98,2.95,.98,4.43-3.94,9.84-9.35,18.21-16.24,25.1m-48.72,20.18c-6.89,0-13.29-.98-19.68-2.95-.98-.98-1.48-1.97-.98-3.44,2.46-4.92,7.87-8.37,13.78-8.37,11.32-.98,26.08,7.38,28.54,5.91,2.46-1.48,6.89-7.38,13.78-7.38,2.46,0,4.43,.49,6.4,1.48-11.81,9.84-26.57,14.76-41.83,14.76m-9.35-45.27c-.98,1.48-3.44,13.29-5.41,11.81-1.97-1.48,.49-13.29,.98-14.27,2.95-4.92,8.86-4.92,4.43,2.46m28.05-13.29c-1.97,.98-4.92,.98-6.4-.49-1.48-1.48,.98-3.44,1.97-3.94,1.97,0,5.41,2.95,4.43,4.43m30.51,0c-.98,0-1.48-.98-1.97-2.46-.49-1.48,.98-2.46,2.46-1.97,1.48,.98,2.95,2.46,3.44,3.94-.49,.98-3.44,.49-3.94,.49m2.95,1.97c2.46,0,5.91,2.95,4.43,4.43-1.97,.98-4.92,.98-6.4-.49-1.97-1.48,.98-3.94,1.97-3.94m-74.31,28.05c-.49,3.44-1.97,6.4-4.43,8.86-2.46,1.97-5.41,3.44-8.86,3.44-2.95,0-3.44-8.86-3.44-12.79,0-1.48-1.97,2.95-3.44-5.91-.49-5.91-4.43,.49-4.43-3.44s-1.97-2.95-3.94-5.41c-1.97-2.46-4.43,0-6.89,1.48-2.46,1.48-1.97,1.48-5.91,.49-3.44-8.37-5.41-17.72-5.41-27.07,0-2.46,0-4.43,.49-6.89l.49-.49c3.94-4.43,3.44-5.41,3.44-5.41l3.94-1.48c3.94,.49,7.87,1.48,11.32,2.95,3.94,1.48,10.33,4.92,13.78,3.44,2.46-.98,4.92-2.46,4.43-4.92-.49-2.46-2.46-3.44-4.92-1.48-.98,.49-2.95-3.94-4.92-3.94s1.97,5.91,.49,5.91-3.94-5.91-4.43-6.4c-.49-.49-2.46-3.44-4.43-1.48-3.94,3.94-10.83,3.44-12.3,4.43-3.94,2.95-4.92-.98-4.92-3.44,0-.49,.49-.98,.49-1.48,1.97-1.48,4.43-1.97,6.89-.98,1.97,.98,2.95-.49,3.94-.98,.98-.49,.49-1.97,0-2.95-.49-.98,.98-1.48,1.97-1.97,1.97-.98,3.94-1.97,5.41-2.95,3.44-.98,6.89-.98,10.33,0,2.46,.98,5.41,.49,6.89-1.48,1.48-1.48,2.95-2.95,4.92-3.94,.98-.49-2.46-3.94-5.41,0-2.95,3.94-4.43,3.94-5.91,3.94s-9.35-1.97-10.33-4.43c-.98-2.46,2.46-4.43,5.41-5.91,4.43-.98,8.86-1.48,13.29-1.97,3.94-.98,9.35-2.95,12.3-.98,2.95,1.97-11.32,4.92-6.89,7.38,1.48,.98,8.86-4.43,11.32-5.41,5.91-2.95-5.91-3.94-4.43-10.33,1.48-6.89-14.27-4.43-22.64-3.94,31.99-20.67,74.8-11.81,95.47,20.18,4.43,6.89,7.38,14.27,9.35,21.65,0,.98,0,1.97-.49,3.44-.98,2.46-3.44,3.44-5.91,2.46-.98-.49-1.97-.98-2.46-1.97-.49-.98-3.94-3.94-3.44,.98,.49,4.92,4.92,5.41,0,8.37-1.97,1.48-4.43,2.46-7.38,2.95-2.46,1.97-3.44,4.92-2.95,8.37,.49,2.46,6.89,9.84,1.97,9.35-4.43-1.97-7.87-5.41-10.83-9.35-1.48-3.94-2.95-7.38-3.94-10.33-.49-1.97-2.95-3.44-4.92-2.46-.49,0-.98,.49-1.48,.98-2.46,1.48,.49,3.44-.98,6.89-1.48,3.44-2.95,6.89-5.91,3.94-6.89-7.87-16.73-3.94-18.21-12.3-.98-4.92-4.92-4.43-8.37-6.89-3.44-2.46-5.41-3.94-5.91-1.97-.49,1.97,10.83,10.33,11.32,12.79,.98,3.44-3.44,6.4-6.4,6.89-2.95,.49-4.92-1.97-7.87-4.92-2.95-2.95-4.43-5.91-4.92-2.95,.49,4.43,2.46,8.86,6.4,11.32,2.95,1.97,5.91,2.46,4.92,5.41s0,.98-2.95,4.43c-2.95,1.97-3.94,4.92-3.44,8.37,0,4.43-.98,4.43-1.48,8.37-.49,3.94-.98-1.97-2.46,3.94m-36.91-76.77h0c1.97-1.48,3.94-2.46,5.91-2.46,1.48-.49,3.94,.49,4.43,1.48s-4.43,3.44-4.92,3.94c-2.46,2.46-5.91,6.89-8.37,7.38h-1.97c1.48-3.44,2.95-6.89,4.92-10.33m3.44-6.89c.98-1.48,3.94-4.92,4.43-5.41,.98-.98,1.97-1.48,3.44-1.48,.98,0,2.46,.49,2.46,.98,0,1.48-.49,2.95-.98,4.43-1.97,1.97-4.43,2.95-7.38,3.44-1.48,0-2.46-1.48-1.97-1.97m219.97,40.84c-67.42-91.04-195.85-109.74-286.89-42.32-16.24,11.81-30.51,26.08-42.32,42.32l-1.48,1.97,1.48,1.97c67.42,90.55,195.85,109.74,286.89,41.83,16.24-11.81,30.51-26.08,42.32-42.32l1.48-1.97-1.48-1.48Z"/></g></svg>