<?xml version="1.0" encoding="UTF-8"?><svg id="Capa_1" xmlns="http://www.w3.org/2000/svg" viewBox="0 0 467 568.37"><defs><style>.cls-1{fill:#fff;}.cls-2{fill:#24a038;}</style></defs><path class="cls-2" d="M4.92,80.7H461.59V4.92H4.92V80.7Zm462.08,4.92H0V0H466.51V85.62h.49Z"/><path class="cls-2" d="M394.17,29.03v3.94c0,4.43-2.46,6.89-5.91,8.37,4.43,.98,6.4,3.94,6.4,8.37v7.38c0,6.89-3.94,11.32-12.3,11.32s-11.81-4.92-11.81-12.3v-6.4h7.87v7.38c0,2.95,.98,4.92,3.94,4.92,2.46,0,3.94-1.97,3.94-4.43v-8.37c0-2.46-.98-3.94-3.94-3.94h-3.44v-6.4h2.95c2.95,0,4.43-1.48,4.43-3.94v-5.91c0-2.95-.98-4.43-3.44-4.43s-3.44,1.97-3.44,4.92v4.92h-7.87v-4.43c0-7.38,2.95-12.79,11.81-12.79,7.38,0,10.83,4.43,10.83,11.81"/><path class="cls-2" d="M408.44,36.91c3.44,0,5.91,2.95,5.91,5.91,0,3.44-2.95,5.91-5.91,5.91-3.44,0-5.91-2.95-5.91-5.91s2.46-5.91,5.91-5.91"/><path class="cls-2" d="M439.44,32.48v-3.44c0-2.95-.98-4.92-3.94-4.92s-3.94,1.97-3.94,4.92v3.44c0,2.95,.98,4.92,3.94,4.92,2.95-.49,3.94-1.97,3.94-4.92m0,24.11v-7.87c0-2.95-.98-4.92-3.94-4.92s-3.94,1.97-3.94,4.92v7.87c0,2.95,.98,4.92,3.94,4.92s3.94-1.97,3.94-4.92m-16.73-.98v-5.41c0-4.92,1.48-8.37,5.41-9.84-3.44-1.48-4.92-4.43-4.92-8.86v-1.97c0-7.87,3.94-11.81,11.81-11.81s11.81,4.43,11.81,11.81v1.97c0,3.94-1.48,6.89-4.92,8.86,3.94,1.97,5.41,5.41,5.41,9.84v5.41c0,7.38-3.44,12.79-12.3,12.79-8.37,0-12.3-4.92-12.3-12.79"/><polygon class="cls-2" points="16.73 17.72 38.88 17.72 38.88 24.6 32.48 24.6 32.48 67.91 23.62 67.91 23.62 24.6 16.73 24.6 16.73 17.72"/><path class="cls-2" d="M49.21,52.16h6.89l-3.44-20.18-3.44,20.18Zm-10.33,15.75l9.35-50.19h9.35l9.84,50.19h-8.86l-1.48-9.35h-8.86l-1.48,9.35h-7.87Z"/><path class="cls-2" d="M80.21,24.6v15.75h2.95c2.95,0,3.94-1.48,3.94-3.94v-7.38c0-2.95-1.48-3.94-3.94-3.94h-2.95v-.49Zm0,20.18v23.13h-8.37V17.72h12.3c8.37,0,11.81,4.43,11.81,11.32v6.4c0,5.41-1.97,8.37-6.89,9.84l7.87,22.64h-8.86l-7.87-23.13Z"/><path class="cls-2" d="M113.67,41.34h11.81v26.57h-5.91v-5.41c-.98,3.94-3.44,5.91-7.87,5.91-7.38,0-10.33-5.91-10.33-13.29V31c0-7.87,3.94-13.29,12.79-13.29,9.35,0,11.81,5.41,11.81,12.79v4.43h-7.87v-4.92c0-2.95-.98-4.92-4.43-4.92-2.95,0-4.43,1.97-4.43,4.92v27.07c0,2.95,1.48,4.92,3.94,4.92,2.95,0,3.94-1.48,3.94-4.92v-9.35h-3.94v-6.4h.49Z"/><polygon class="cls-2" points="132.37 17.72 152.55 17.72 152.55 24.6 140.74 24.6 140.74 38.88 149.11 38.88 149.11 45.77 140.74 45.77 140.74 61.02 152.55 61.02 152.55 67.91 132.37 67.91 132.37 17.72"/><polygon class="cls-2" points="156.49 17.72 178.63 17.72 178.63 24.6 171.74 24.6 171.74 67.91 163.38 67.91 163.38 24.6 156.49 24.6 156.49 17.72"/><g><rect class="cls-2" x="0" y="101.86" width="466.51" height="466.51"/><path class="cls-1" d="M375.96,373.5c8.86,0,15.75-6.89,15.75-15.75s-6.89-15.75-15.75-15.75-15.75,6.89-15.75,15.75c-.49,8.86,6.89,15.75,15.75,15.75q-.49,0,0,0"/><path class="cls-1" d="M394.17,379.9h-36.42c-10.83,.98-19.19,9.84-19.19,21.16v43.8c.49,3.44,3.44,5.91,6.89,5.41,2.95-.49,5.41-2.46,5.41-5.41v-37.89c0-1.48,.49-3.44,2.95-3.44,1.97,0,1.97,1.97,1.97,2.95v112.69c-.49,4.92,3.44,8.86,8.37,9.35,4.92,.49,8.86-3.44,9.35-8.37v-65.45c0-1.48,.98-2.46,2.46-2.46h.49c1.48,0,2.46,.98,2.46,1.97v65.45c0,4.92,3.94,8.86,8.86,8.86s8.86-3.94,8.86-8.86v-112.69c0-.98,.49-2.95,1.97-2.95,2.46,0,2.95,1.97,2.95,3.44v37.89c.49,3.44,3.44,5.91,6.89,5.41,2.95-.49,5.41-2.46,5.41-5.41v-43.8c-.49-11.32-8.86-20.67-19.68-21.65"/><path class="cls-1" d="M237.19,381.38c8.37,0,14.76-6.4,14.76-14.76s-6.4-14.76-14.76-14.76-14.76,6.4-14.76,14.76,6.4,14.76,14.76,14.76"/><path class="cls-1" d="M279.51,440.43l-12.3-40.35s-4.43-11.81-14.27-11.81h-31.49c-9.84,0-14.27,11.81-14.27,11.81l-12.3,40.35c0,.98-.49,1.48-.49,2.46-.49-.49-.98-.98-1.48-.98-2.46-.98-4.92-.49-6.4,1.97-2.46,4.43-4.92,8.37-7.87,12.3-.98,.98-2.46,1.97-3.94,1.97h-15.26c-1.48,0-2.95-.49-3.44-1.97-1.97-1.97-7.87-12.3-7.87-12.79-1.48-1.97-3.94-2.46-6.4-1.48-.49,.49-.98,.98-1.48,1.48v-42.81c0-10.83-8.37-20.18-19.19-21.16h-36.42c-10.83,.98-19.19,10.33-19.19,21.16v43.8c0,1.97,.98,3.94,2.95,4.92l-14.76,75.29c-.49,1.48,.49,2.95,1.97,3.44h.49c1.48,0,2.46-.98,2.95-2.46l14.27-75.78c2.46-.98,3.94-2.95,3.94-5.91v-36.91c0-1.48,.49-3.44,2.95-3.44,1.97,0,1.97,1.97,2.46,2.95v112.69c0,4.92,3.94,8.86,8.86,8.86s8.86-3.94,8.86-8.86v-64.46c-.49-1.48,.49-2.46,1.97-2.95,1.48-.49,2.46,.49,2.95,1.97v65.94c0,4.92,3.94,8.86,8.86,8.86s8.86-3.94,8.86-8.86v-112.69c0-.98,.49-2.95,2.46-2.95,2.46,0,2.95,1.97,2.95,3.44v37.89c0,3.44,2.95,5.91,5.91,5.91,2.46,0,4.43-1.48,5.41-3.44v.49l12.79,22.64c.49,.98,.49,1.97,.98,2.95v3.44c0,1.48,0,2.46-.49,3.94l-5.91,23.62h6.89v17.72c-.49,3.44,1.97,6.4,5.41,6.89,3.44,.49,6.4-1.97,6.89-5.41v-18.7h3.94v17.72c0,3.44,2.95,5.91,5.91,5.91s5.91-2.95,5.91-5.91v-17.72h6.4l-5.91-24.11c-.49-.98-.49-1.97-.49-2.95v-4.43c0-.98,.49-1.97,.98-2.95l11.81-21.16,.98-1.97v-.49c.49,1.48,1.97,2.46,3.94,2.95,6.4,1.97,8.37-5.41,8.37-5.41l9.84-33.95s.49-2.46,2.46-1.97c1.97,.49-.49,2.95-.49,2.95l-17.22,63.48h16.24v45.27c.49,4.43,3.94,7.38,8.37,7.38,3.94-.49,6.89-3.44,7.38-7.38v-45.27h4.43v45.27c.49,4.43,3.94,7.38,8.37,7.38,3.94-.49,6.89-3.44,7.38-7.38v-45.27h16.24l-17.72-63.48s-.98-2.95,.98-3.44c1.97-.49,2.46,1.97,2.46,1.97l9.84,33.95s1.97,7.38,8.37,5.41c6.4-1.97,4.43-9.35,4.43-9.35"/><path class="cls-1" d="M102.36,373.5c8.86,0,15.75-6.89,15.75-15.75s-6.89-15.75-15.75-15.75-15.75,6.89-15.75,15.75,6.89,15.75,15.75,15.75"/><path class="cls-1" d="M308.54,450.27c6.89,0,12.79-5.41,12.79-12.79,0-6.89-5.41-12.3-12.79-12.3s-12.3,5.41-12.3,12.3c-.49,6.89,5.41,12.79,12.3,12.79"/><path class="cls-1" d="M333.64,474.38c-7.38-19.68-8.86-19.19-15.75-19.68h-19.19c-6.89,0-8.37,0-15.75,19.68-.98,2.95-5.41,13.78-5.91,14.27-.49,.49-1.97,4.43,2.46,5.91,4.43,1.48,5.41-3.44,5.41-3.44l7.87-19.19s0-.49,.49-.49,.49,.49,.49,.49v49.21c0,3.44,2.46,6.4,6.4,6.89h.49c3.44,0,6.4-2.95,6.4-6.4v-20.18s0-2.95,1.97-2.95,1.97,2.95,1.97,2.95v19.68c0,3.44,2.46,6.4,6.4,6.89,3.44,0,6.4-2.46,6.4-5.91v-50.19l.49,.49,6.89,17.22s1.97,4.43,5.91,2.95c1.97-.98,2.95-3.44,1.97-5.91-.49-.49-4.43-9.35-5.41-12.3"/><path class="cls-1" d="M167.31,449.78c6.89,0,12.3-5.41,12.3-12.3s-5.41-12.3-12.3-12.3-12.3,5.41-12.3,12.3c-.49,6.89,5.41,12.3,12.3,12.3"/><polygon class="cls-1" points="179.62 160.92 171.25 160.92 171.25 318.88 284.43 318.88 284.43 309.53 179.62 309.53 179.62 160.92"/><path class="cls-1" d="M285.91,200.28h0l-9.84,10.33-10.33-10.33c-1.48-1.48-1.97-2.95-1.97-4.92-.49-3.94,2.46-6.89,6.4-7.38h.49c1.97,0,3.94,1.97,5.41,3.44,1.48-1.48,3.44-3.44,5.41-3.44,3.94,0,6.89,3.44,6.4,6.89v.49c0,1.97-.98,3.44-1.97,4.92m1.48,55.11c0,.49-.49,.49-.49,.49h-84.15c-.49,0-.49-.49-.49-.49v-13.29c0-.49,.49-.49,.49-.49h84.15c.49,0,.49,.49,.49,.49v13.29Zm0,23.13c0,.49-.49,.49-.49,.98h-84.15c-.49,0-.49-.49-.49-.98v-13.29c0-.49,.49-.49,.49-.49h84.15c.49,0,.49,.49,.49,.49v13.29Zm-85.13-80.21h21.65l6.4-14.76c.49-.98,1.48-1.97,2.95-1.48,1.48,0,2.46,.98,2.46,1.97l7.87,24.6,15.25-41.34c.49-.98,1.48-1.97,2.46-1.97s2.46,.49,2.95,1.97l5.91,13.78c.49,1.48,0,3.44-1.48,3.94s-3.44,0-3.94-1.48l-2.95-7.38-15.75,42.32c-.49,.98-1.48,1.97-2.95,1.97s-2.46-.98-2.95-1.97l-7.87-25.59-3.94,9.35c-.49,.98-1.48,1.97-2.46,1.97h-23.62v-5.91Zm-14.27,101.37h113.18V141.72h-113.18v157.96Z"/></g></svg>