<?xml version="1.0" encoding="UTF-8"?><svg id="Capa_1" xmlns="http://www.w3.org/2000/svg" viewBox="0 0 467 568.37"><defs><style>.cls-1{fill:#fff;}.cls-2{fill:#e4003b;}</style></defs><path class="cls-2" d="M4.92,80.7H461.59V4.92H4.92V80.7Zm462.08,4.92H0V0H466.51V85.62h.49Z"/><polygon class="cls-2" points="16.73 17.72 38.88 17.72 38.88 24.6 32.48 24.6 32.48 67.91 23.62 67.91 23.62 24.6 16.73 24.6 16.73 17.72"/><path class="cls-2" d="M49.21,52.16h6.89l-3.44-20.18-3.44,20.18Zm-10.33,15.75l9.35-50.19h9.35l9.84,50.19h-8.86l-1.48-9.35h-8.86l-1.48,9.35h-7.87Z"/><path class="cls-2" d="M80.21,24.6v15.75h2.95c2.95,0,3.94-1.48,3.94-3.94v-7.38c0-2.95-1.48-3.94-3.94-3.94h-2.95v-.49Zm0,20.18v23.13h-8.37V17.72h12.3c8.37,0,11.81,4.43,11.81,11.32v6.4c0,5.41-1.97,8.37-6.89,9.84l7.87,22.64h-8.86l-7.87-23.13Z"/><path class="cls-2" d="M113.67,41.34h11.81v26.57h-5.91v-5.41c-.98,3.94-3.44,5.91-7.87,5.91-7.38,0-10.33-5.91-10.33-13.29V31c0-7.87,3.94-13.29,12.79-13.29,9.35,0,11.81,5.41,11.81,12.79v4.43h-7.87v-4.92c0-2.95-.98-4.92-4.43-4.92-2.95,0-4.43,1.97-4.43,4.92v27.07c0,2.95,1.48,4.92,3.94,4.92,2.95,0,3.94-1.48,3.94-4.92v-9.35h-3.94v-6.4h.49Z"/><polygon class="cls-2" points="132.37 17.72 152.55 17.72 152.55 24.6 140.74 24.6 140.74 38.88 149.11 38.88 149.11 45.77 140.74 45.77 140.74 61.02 152.55 61.02 152.55 67.91 132.37 67.91 132.37 17.72"/><polygon class="cls-2" points="156.49 17.72 178.63 17.72 178.63 24.6 171.74 24.6 171.74 67.91 163.38 67.91 163.38 24.6 156.49 24.6 156.49 17.72"/><path class="cls-2" d="M432.06,45.27v15.75h3.94c2.95,0,3.94-1.48,3.94-3.94v-7.38c0-2.46-1.48-3.94-4.43-3.94h-3.44v-.49Zm0-6.4h2.95c2.95,0,3.94-1.48,3.94-3.94v-5.91c0-2.95-1.48-3.94-3.94-3.94h-2.95v13.78Zm-8.37-21.16h12.3c8.37,0,11.32,3.94,11.32,10.83v4.92c0,4.43-1.48,6.89-4.92,7.87,4.43,.98,6.4,3.94,6.4,8.37v6.4c0,6.89-2.95,10.83-11.81,10.83h-13.29V17.72Z"/><polygon class="cls-2" points="391.71 17.72 391.71 67.91 383.34 67.91 383.34 29.53 377.44 35.43 377.44 27.07 385.31 18.21 391.71 18.21 391.71 17.72"/><polygon class="cls-2" points="404.01 32.48 404.01 53.15 414.84 42.81 404.01 32.48"/><g><rect class="cls-2" x="0" y="101.86" width="466.51" height="466.51"/><polygon class="cls-1" points="134.83 215.05 120.56 215.05 120.56 489.14 316.91 489.14 316.91 472.41 134.83 472.41 134.83 215.05"/><path class="cls-1" d="M316.91,382.36h0c0,.49-.49,.49-.49,.49H180.11c-.49,0-.49-.49-.98-.49v-21.65c0-.49,.49-.49,.98-.49h136.31c.49,0,.49,.49,.49,.49v21.65Zm0,38.38h0c0,.49-.49,.49-.49,.49H180.11c-.49,0-.49-.49-.98-.49v-21.65c0-.49,.49-.49,.98-.49h136.31q.49,0,.49,.49v21.65Zm-128.93-136.8v-24.11c0-5.91,4.43-10.83,10.83-11.81h20.67c5.91,.49,10.33,5.41,10.33,11.81v24.11c0,1.97-1.48,3.44-3.44,3.44s-3.44-1.48-3.44-3.44v-20.67c0-.98,0-1.97-1.48-1.97s-1.48,.98-1.48,1.48v62.5c0,2.95-1.97,4.92-4.92,4.92s-4.92-1.97-4.92-4.92v-35.92c0-.49-.49-1.48-.98-1.48-.98,0-1.48,.49-1.48,1.48v35.92c0,2.95-1.97,4.92-4.92,4.92s-4.92-1.97-4.92-4.92v-62.5c0-.49,0-1.48-.98-1.48s-1.48,.98-1.48,1.97v20.67c0,1.48-1.48,2.95-2.95,3.44l-7.87,40.84c0,.49-.49,.98-1.48,.98-.49,0-.98-.98-.98-1.48l7.87-40.84c-.98-.98-1.48-1.97-1.97-2.95m21.16-56.59c4.92,0,8.86,3.94,8.86,8.86s-3.94,8.86-8.86,8.86-8.86-3.94-8.86-8.86,3.94-8.86,8.86-8.86m26.57,54.13c.98,0,1.48,.49,1.97,.98,0,0,3.44,5.91,4.43,6.89,.49,.49,1.48,.98,1.97,.98h8.37c.98,0,1.48-.49,1.97-.98,1.48-1.97,2.95-4.43,4.43-6.89,.49-1.48,2.46-1.97,3.44-.98,.98,.49,1.48,1.97,.98,2.95,0,.49-.49,.98-.49,.98l-6.4,11.81c0,.49-.49,.98-.49,1.48v2.46c0,.49,0,.98,.49,1.97l3.44,13.29h-3.94v9.84c0,1.97-1.97,3.44-3.94,2.95-1.48,0-2.95-1.48-2.95-2.95v-9.84h-1.97v9.84c0,1.97-1.48,3.44-3.44,3.44s-3.44-1.48-3.44-3.44v-9.84h-3.94l3.44-13.29c0-.49,.49-1.48,.49-1.97v-1.97c0-.49,0-.98-.49-1.48l-6.89-12.79v-.98c.49-1.48,1.48-2.46,2.95-2.46m13.29-9.35c3.94,0,6.89,2.95,6.89,6.89s-2.95,6.89-6.89,6.89-6.89-2.95-6.89-6.89,2.95-6.89,6.89-6.89m17.72,8.86l6.89-22.64s2.46-6.4,7.87-6.4h17.72c5.41,0,7.87,6.4,7.87,6.4l6.89,22.64s.98,3.94-2.46,5.41c-3.44,1.48-4.43-2.95-4.43-2.95l-5.41-19.19s-.49-1.48-1.48-.98-.49,1.97-.49,1.97l9.84,35.43h-9.35v25.59c-.49,2.46-2.46,3.94-4.92,3.94-1.97,0-3.44-1.97-3.94-3.94v-25.1h-2.46v25.59c-.49,2.46-2.46,3.94-4.92,3.94-1.97,0-3.44-1.97-3.94-3.94v-25.59h-8.86l9.84-35.43s.49-1.48-.49-1.97-1.48,.49-1.48,.49l-5.41,18.7s-.98,3.94-4.43,2.95c-3.44-.98-2.46-4.92-2.46-4.92m23.62-50.19c4.43,0,8.37,3.94,8.37,8.37s-3.94,8.37-8.37,8.37-8.37-3.94-8.37-8.37c.49-4.43,3.94-7.87,8.37-8.37m-140.25,224.89h196.35V181.58H150.09V455.68Z"/></g></svg>