<?xml version="1.0" encoding="UTF-8"?><svg id="Capa_1" xmlns="http://www.w3.org/2000/svg" viewBox="0 0 467 568.37"><defs><style>.cls-1{fill:#fff;}.cls-2{fill:#d5102b;}</style></defs><path class="cls-2" d="M4.92,80.7H461.59V4.92H4.92V80.7Zm462.08,4.92H0V0H466.51V85.62h.49Z"/><polygon class="cls-2" points="16.73 17.72 38.88 17.72 38.88 24.6 32.48 24.6 32.48 67.91 23.62 67.91 23.62 24.6 16.73 24.6 16.73 17.72"/><path class="cls-2" d="M49.21,52.16h6.89l-3.44-20.18-3.44,20.18Zm-10.33,15.75l9.35-50.19h9.35l9.84,50.19h-8.86l-1.48-9.35h-8.86l-1.48,9.35h-7.87Z"/><path class="cls-2" d="M80.21,24.6v15.75h2.95c2.95,0,3.94-1.48,3.94-3.94v-7.38c0-2.95-1.48-3.94-3.94-3.94h-2.95v-.49Zm0,20.18v23.13h-8.37V17.72h12.3c8.37,0,11.81,4.43,11.81,11.32v6.4c0,5.41-1.97,8.37-6.89,9.84l7.87,22.64h-8.86l-7.87-23.13Z"/><path class="cls-2" d="M113.67,41.34h11.81v26.57h-5.91v-5.41c-.98,3.94-3.44,5.91-7.87,5.91-7.38,0-10.33-5.91-10.33-13.29V31c0-7.87,3.94-13.29,12.79-13.29,9.35,0,11.81,5.41,11.81,12.79v4.43h-7.87v-4.92c0-2.95-.98-4.92-4.43-4.92-2.95,0-4.43,1.97-4.43,4.92v27.07c0,2.95,1.48,4.92,3.94,4.92,2.95,0,3.94-1.48,3.94-4.92v-9.35h-3.94v-6.4h.49Z"/><polygon class="cls-2" points="132.37 17.72 152.55 17.72 152.55 24.6 140.74 24.6 140.74 38.88 149.11 38.88 149.11 45.77 140.74 45.77 140.74 61.02 152.55 61.02 152.55 67.91 132.37 67.91 132.37 17.72"/><polygon class="cls-2" points="156.49 17.72 178.63 17.72 178.63 24.6 171.74 24.6 171.74 67.91 163.38 67.91 163.38 24.6 156.49 24.6 156.49 17.72"/><path class="cls-2" d="M423.7,55.11V31c0-7.87,3.94-13.29,12.3-13.29,9.35,0,11.81,5.41,11.81,12.79v5.91h-7.87v-7.38c0-2.95-.98-4.92-3.94-4.92s-4.43,1.97-4.43,4.92v27.07c0,2.95,1.48,4.92,4.43,4.92s3.94-1.97,3.94-4.92v-9.35h7.87v8.86c0,7.38-2.95,12.3-11.81,12.3-8.37,.49-12.3-4.92-12.3-12.79"/><path class="cls-2" d="M374.49,53.15h7.87v-20.67l-7.87,20.67Zm-7.38,1.48l14.76-36.91h8.37V53.15h3.44v6.4h-3.44v8.37h-7.87v-8.37h-14.76v-4.92h-.49Z"/><polygon class="cls-2" points="404.01 32.48 404.01 53.15 414.84 42.81 404.01 32.48"/><g><rect class="cls-2" y="101.86" width="466.51" height="466.51"/><path class="cls-1" d="M393.68,260.32v-100.39H221.44v100.39h2.95l8.37-15.75c1.48-2.95,4.92-4.92,8.37-4.92,1.48,0,2.95,.49,4.43,.98l.98,.49c4.43,2.46,6.4,7.87,3.94,12.3l-3.44,6.89h146.64Z"/><path class="cls-1" d="M405.98,144.68H208.16c-1.48,0-2.46,.98-2.46,2.46v126.47c0,1.48,.98,2.46,2.46,2.46h7.87l2.46-4.92h-7.87v-121.55h192.9v121.55H240.64l-2.46,4.92h168.3c1.48,0,2.46-.98,2.46-2.46v-126.47c-.49-1.48-1.48-2.46-2.95-2.46"/><rect class="cls-1" x="236.7" y="370.06" width="172.23" height="20.18"/><rect class="cls-1" x="247.03" y="400.57" width="14.27" height="125.98"/><rect class="cls-1" x="320.85" y="400.57" width="77.75" height="31"/><rect class="cls-1" x="320.85" y="437.97" width="77.75" height="31"/><rect class="cls-1" x="320.85" y="475.37" width="77.75" height="50.69"/><path class="cls-1" d="M104.82,245.56c0,15.26,12.3,27.56,27.07,27.56s27.56-12.3,27.56-27.07c0-9.84-5.41-19.19-14.27-24.11,.98-1.48,1.48-2.95,1.48-4.92-.49-6.89-6.89-11.81-13.29-10.83-6.89-.98-13.29,3.94-13.78,10.83,0,1.48,.49,2.95,.98,3.94-9.84,4.43-15.75,14.27-15.75,24.6"/><path class="cls-1" d="M242.6,247.03l-.98-.49h-.98c-.49,0-1.48,.49-1.48,.98l-6.4,12.3-5.91,10.83-2.46,4.92-6.4,13.29-2.95,5.91h-3.44c-3.94,0-7.38,1.97-8.86,5.41l-10.83,19.68-5.41-17.72s-6.4-16.24-20.18-19.68c-1.97-.49-4.43-.49-6.4-.98h-8.86l-18.7,18.7-18.7-18.7h-8.37c-1.97,0-3.94,.49-5.91,.98-12.3,4.43-18.21,19.19-18.21,19.19l-22.14,70.86s-3.94,12.79,7.38,16.24c11.32,3.44,14.27-9.35,14.27-9.35l17.72-59.05s.98-4.43,4.43-3.44c3.44,.98,1.97,5.91,1.97,5.91l-30.51,110.72h28.54v79.23c.49,7.38,6.89,13.29,14.27,12.79,6.89-.49,12.3-5.91,12.79-12.79v-79.72h7.87v79.23c0,7.38,5.91,13.78,13.78,13.78s13.78-5.91,13.78-13.78v-79.23h28.54l-30.51-110.72s-1.48-4.92,1.97-5.91c3.44-.98,4.43,3.44,4.43,3.44l5.91,19.68,3.44,10.83c1.48,5.41,7.38,8.37,12.79,6.89,2.46-.49,4.43-2.46,5.91-4.43l.49-.49,19.68-36.42c4.43-1.48,7.87-5.91,7.38-10.33,0-3.94-1.97-7.38-4.92-9.35l10.83-20.67,2.46-4.92,5.91-10.83,5.41-10.33c-.98-.49-1.48-1.97-2.46-2.46"/></g></svg>