<?xml version="1.0" encoding="UTF-8"?><svg id="Capa_1" xmlns="http://www.w3.org/2000/svg" viewBox="0 0 467 568.37"><defs><style>.cls-1{fill:#00486e;}.cls-2{fill:#fff;}</style></defs><path class="cls-1" d="M4.92,80.7H461.59V4.92H4.92V80.7Zm462.08,4.92H0V0H466.51V85.62h.49Z"/><polygon class="cls-1" points="16.73 17.72 38.88 17.72 38.88 24.6 32.48 24.6 32.48 67.91 23.62 67.91 23.62 24.6 16.73 24.6 16.73 17.72"/><path class="cls-1" d="M49.21,52.16h6.89l-3.44-20.18-3.44,20.18Zm-10.33,15.75l9.35-50.19h9.35l9.84,50.19h-8.86l-1.48-9.35h-8.86l-1.48,9.35h-7.87Z"/><path class="cls-1" d="M80.21,24.6v15.75h2.95c2.95,0,3.94-1.48,3.94-3.94v-7.38c0-2.95-1.48-3.94-3.94-3.94h-2.95v-.49Zm0,20.18v23.13h-8.37V17.72h12.3c8.37,0,11.81,4.43,11.81,11.32v6.4c0,5.41-1.97,8.37-6.89,9.84l7.87,22.64h-8.86l-7.87-23.13Z"/><path class="cls-1" d="M113.67,41.34h11.81v26.57h-5.91v-5.41c-.98,3.94-3.44,5.91-7.87,5.91-7.38,0-10.33-5.91-10.33-13.29V31c0-7.87,3.94-13.29,12.79-13.29,9.35,0,11.81,5.41,11.81,12.79v4.43h-7.87v-4.92c0-2.95-.98-4.92-4.43-4.92-2.95,0-4.43,1.97-4.43,4.92v27.07c0,2.95,1.48,4.92,3.94,4.92,2.95,0,3.94-1.48,3.94-4.92v-9.35h-3.94v-6.4h.49Z"/><polygon class="cls-1" points="132.37 17.72 152.55 17.72 152.55 24.6 140.74 24.6 140.74 38.88 149.11 38.88 149.11 45.77 140.74 45.77 140.74 61.02 152.55 61.02 152.55 67.91 132.37 67.91 132.37 17.72"/><polygon class="cls-1" points="156.49 17.72 178.63 17.72 178.63 24.6 171.74 24.6 171.74 67.91 163.38 67.91 163.38 24.6 156.49 24.6 156.49 17.72"/><polygon class="cls-1" points="349.39 17.72 349.39 67.91 341.02 67.91 341.02 29.53 335.12 35.43 335.12 27.07 342.99 18.21 349.39 18.21 349.39 17.72"/><polygon class="cls-1" points="355.29 17.72 376.45 17.72 376.45 25.59 365.63 67.91 357.26 67.91 368.58 24.6 355.79 24.6 355.79 17.72 355.29 17.72"/><path class="cls-1" d="M390.23,36.91c3.44,0,5.91,2.95,5.91,5.91,0,3.44-2.95,5.91-5.91,5.91-3.44,0-5.91-2.95-5.91-5.91-.49-2.95,2.46-5.91,5.91-5.91"/><polygon class="cls-1" points="417.79 17.72 417.79 67.91 409.42 67.91 409.42 29.53 403.52 35.43 403.52 27.07 411.39 18.21 417.79 18.21 417.79 17.72"/><path class="cls-1" d="M447.81,28.54v4.43c0,4.43-2.46,6.89-5.91,8.37,4.43,.98,6.4,3.94,6.4,8.37v7.38c0,6.89-3.94,11.32-12.3,11.32s-11.81-4.92-11.81-12.3v-6.4h7.87v7.38c0,2.95,.98,4.92,3.94,4.92,2.46,0,3.94-1.97,3.94-4.43v-8.37c0-2.46-.98-3.94-3.94-3.94h-3.44v-6.4h2.95c2.95,0,4.43-1.48,4.43-3.94v-5.91c0-2.95-.98-4.43-3.44-4.43s-3.44,1.97-3.44,4.92v4.92h-7.87v-4.43c0-7.38,2.95-12.79,11.81-12.79,7.38,0,10.83,4.43,10.83,11.32"/><g><rect class="cls-1" y="101.86" width="466.51" height="466.51"/><path class="cls-2" d="M415.33,302.15c-6.4-25.1-17.72-48.72-33.95-69.39l-.49,.49c4.92,7.38,9.84,15.75,13.78,24.11,44.78,81.2,14.76,183.55-66.43,227.84-74.31,40.84-167.8,19.68-217.51-49.7-53.64-68.89-41.34-168.79,27.56-222.43,60.04-46.75,145.17-44.29,202.25,6.4l.98,.98c1.97,1.97,5.41,1.97,7.38,0l.49-.49,20.18-19.68,1.48-1.48c.98-.98,1.48-2.46,1.48-3.44,0-1.48-.49-2.95-1.48-3.94l-.49-.49c-78.74-73.32-201.76-69.39-275.08,9.35-73.32,78.74-69.39,201.76,9.35,275.08,4.92,4.92,10.33,9.35,15.75,13.29,78.24,64.46,194.38,53.15,258.35-25.59,36.91-44.78,50.69-104.32,36.42-160.92"/><path class="cls-2" d="M126.96,316.42c.49-1.48,.98-2.95,2.46-3.44,.98,.98,1.97,1.48,2.95,2.46,8.37,3.44,17.22,5.41,26.08,4.92,7.38,0,14.76-.98,22.14-3.44,.98-.49,1.97-.98,2.46-.98v.98c0,4.43-11.81,9.35-28.54,9.35s-27.56-5.91-27.56-9.84m31.49-24.6c16.73,0,28.54,4.92,28.54,9.35s-11.81,9.35-28.54,9.35-28.05-4.92-28.05-9.35,11.32-9.35,28.05-9.35m-2.95,43.3c17.22,0,31-5.41,31-11.81,0,0,.49-5.91,0-7.38,0-.98,0-1.48-.49-2.46,1.97-.98,3.44-2.95,3.44-4.92,0,0,.49-6.4,0-7.87-.98-7.87-16.73-11.81-31.49-11.81s-31.49,4.43-31.49,12.79c0,.49,.49,7.38,.49,7.38,0,.49,0,.98,.49,1.48-2.46,1.48-3.94,3.94-3.94,6.4,0,.49,.49,7.38,.49,7.38,0,1.97,.98,3.44,2.46,4.43,4.92,3.44,10.83,5.41,16.73,5.91,3.94,0,7.87,.49,12.3,.49"/><path class="cls-2" d="M189.95,328.72c0-.49-.49-.98-.98-1.48l-.98-.49-1.48-.49c-.49,.49-.98,1.48-1.48,1.97,.49,0,.98,.49,.98,.49,.98,.49,1.48,1.48,1.48,2.46s-.49,1.48-.98,1.97c-.49,.49-.98,.49-.98,.98l-1.97,.98s-1.97,.98-2.95,.98l-2.95,.98-3.94,.98-4.92,.98-4.92,.49-7.38,.49c-3.44,0-6.4-.49-9.84-.98-2.46-.49-4.92-.98-6.89-1.48-2.46-.49-4.92-1.48-7.38-2.46-1.48-.49-2.95-1.48-3.94-2.46-.98-.98-1.97-1.97-2.46-3.44v7.87c0,1.97,.98,3.44,2.46,4.43,4.92,3.44,10.83,5.41,16.73,5.91,3.94,.49,7.87,.98,12.3,.98,5.91,0,11.81-.49,17.22-1.97,2.95-.49,5.91-1.97,8.86-3.44,.49-.49,1.48-.98,1.97-1.48,.98-.98,1.97-1.97,2.46-2.95,0-.49,.49-.98,.49-1.48v-6.89c.98-.49,1.48-.98,1.48-1.48"/><path class="cls-2" d="M186.01,356.28c-1.97,1.48-4.43,2.46-6.89,2.95-6.89,1.97-14.27,2.95-21.16,2.46-3.44,0-6.89-.49-10.83-.98-1.97-.49-3.94-.49-6.4-1.48-.98-.49-1.97-.49-2.95-.98-2.95-.98-5.91-2.46-8.37-3.94-.98-.49-1.97-1.48-2.46-2.46v6.89c0,1.97,.98,3.44,2.46,4.43,4.92,3.44,10.83,5.41,16.73,5.91,3.94,.49,7.87,.98,12.3,.98,5.91,0,11.81-.49,17.22-1.97,2.95-.98,5.91-1.97,8.86-3.44,2.95-1.97,4.43-3.94,4.43-5.91v-6.89c-.49,1.97-1.48,3.44-2.95,4.43"/><path class="cls-2" d="M129.42,352.83c4.92,3.44,10.83,5.41,16.73,5.91,3.94,.49,7.87,.98,12.3,.98,5.91,0,11.81-.49,17.22-1.97,2.95-.49,5.91-1.97,8.86-3.44,.49-.49,1.48-.98,1.97-1.48,.98-.98,1.97-1.97,2.46-2.95,0-.49,.49-.98,.49-1.48v-6.89c-.98,1.48-3.94,5.41-16.24,7.87-5.41,.98-10.83,1.48-15.75,1.48-8.37,0-17.22-1.48-25.1-4.92-1.48-.98-2.95-1.48-3.94-2.95-.49-.49-1.48-1.48-1.97-2.46v7.38c0,2.46,1.48,3.94,2.95,4.92"/><path class="cls-2" d="M189.95,374.98c-.98,1.48-2.46,2.46-3.94,3.44-1.97,1.48-4.43,2.46-6.89,2.95-6.89,1.97-14.27,2.95-21.16,2.46-3.44,0-6.89-.49-10.83-.98-1.97,0-4.43-.49-6.4-.98l-2.95-.98c-2.95-.98-5.91-2.46-8.37-3.94-.98-.49-1.48-1.48-2.46-2.46v6.89c0,1.97,.98,3.44,2.46,4.43,4.92,3.44,10.83,5.41,16.73,5.91,3.94,.49,7.87,.98,12.3,.98,5.91,0,11.81-.49,17.22-1.97,2.95-.49,5.91-1.97,8.86-3.44,2.95-1.97,4.43-3.94,4.43-5.91,.98,.49,1.48-5.91,.98-6.4"/><path class="cls-2" d="M146.15,381.38c3.94,.49,7.87,.98,12.3,.98,5.91,0,11.81-.49,17.72-1.97,2.95-.98,5.91-1.97,8.86-3.44,.49-.49,1.48-.98,1.97-1.48,.98-.98,1.97-1.97,2.46-2.95,0-.49,.49-.98,.49-1.48v-6.89c-.98,1.48-3.94,5.41-16.24,7.87-5.41,.98-10.33,1.48-15.75,1.48-8.37,0-17.22-1.48-25.1-4.92-1.48-.98-2.95-1.48-3.94-2.95-.49-.49-1.48-1.48-1.97-2.46v7.38c0,1.97,.98,3.44,2.46,4.43,4.43,3.94,10.33,5.91,16.73,6.4"/><path class="cls-2" d="M206.68,316.91c0-1.48,.98-2.95,2.46-3.44,.98,.98,1.97,1.48,2.95,2.46,8.37,3.44,17.22,5.41,26.08,4.92,7.38,0,14.76-.98,22.14-3.44,.98-.49,1.97-.98,2.46-.98v.98c0,4.43-11.32,9.35-28.05,9.35s-28.05-5.41-28.05-9.84m31.49-24.6c16.73,0,28.05,4.92,28.05,9.35s-11.32,9.35-28.05,9.35-28.05-4.92-28.05-9.35,11.32-9.35,28.05-9.35m-2.95,43.3c17.22,0,31-4.92,31-11.32,0,0,.49-5.91,0-7.38,0-.98,0-1.48-.49-2.46,1.97-.98,3.44-2.95,3.44-5.41v-7.87c-.49-7.87-16.24-12.3-31.49-12.3s-31.49,4.43-31.49,12.79c0,.49,.49,7.38,.49,7.38,0,.49,0,.98,.49,1.48-2.46,1.48-3.94,3.94-3.94,6.4,0,.49,.49,7.38,.49,7.38,0,1.97,.98,3.44,2.46,4.43,4.92,3.44,10.83,5.41,16.73,6.4,3.94,0,7.87,.49,12.3,.49"/><path class="cls-2" d="M269.67,329.21c0-.49-.49-.98-.98-.98l-.98-.49c-.49-.49-.98-.49-1.48-.98-.49,.49-.98,1.48-1.48,1.97,.49,0,.98,.49,.98,.49,.98,.49,1.48,1.48,1.48,2.46s-.49,1.48-.98,1.97c-.49,.49-.98,.49-.98,.98l-1.97,.98s-1.97,.98-2.95,.98l-2.95,.98-2.95,.98s-3.44,.49-4.92,.98l-4.92,.49-7.38,.49c-3.44,0-6.4-.49-9.84-.98-2.46-.49-4.92-.98-6.89-1.48-2.46-.49-4.92-1.48-7.38-2.46-1.48-.49-2.95-1.48-3.94-2.46-.98-.98-1.97-1.97-2.46-3.44v7.87c0,1.97,.98,3.44,2.46,4.43,4.92,3.44,10.83,5.41,16.73,6.4,3.94,.49,7.87,.98,12.3,.98,5.91,0,11.81-.49,17.72-1.97,2.95-.98,5.91-1.97,8.86-3.44,.49-.49,1.48-.98,1.97-1.48,.98-.98,1.97-1.97,2.46-2.95,0-.49,.49-.98,.49-1.48,0,0,.49-6.4,.49-6.89-.98-.98-.49-1.48-.49-1.97"/><path class="cls-2" d="M265.73,356.77c-1.97,1.48-4.43,2.46-6.89,2.95-6.89,1.97-14.27,2.95-21.16,2.46-3.44,0-6.89-.49-10.83-.98-1.97-.49-4.43-.49-6.4-.98-.98,0-1.97-.49-2.95-.98-2.95-.98-5.91-1.97-8.37-3.94-.98-.49-1.48-1.48-2.46-2.46v6.89c0,1.97,.98,3.44,2.46,4.43,4.92,3.44,10.83,5.41,16.73,5.91,3.94,.49,7.87,.98,12.3,.98,5.91,0,11.81-.49,17.72-1.97,2.95-.49,5.91-1.97,8.86-3.44,2.95-1.97,4.43-3.94,4.43-5.91v-6.89c-.98,1.48-1.97,2.95-3.44,3.94"/><path class="cls-2" d="M209.14,353.33c4.92,3.44,10.83,5.41,16.73,6.4,3.94,.49,7.87,.98,12.3,.98,5.91,0,11.81-.49,17.22-1.97,2.95-.98,5.91-1.97,8.86-3.44,.49-.49,1.48-.98,1.97-1.48,.98-.98,1.97-1.97,2.46-2.95,0-.49,.49-.98,.49-1.48v-6.89c-.98,1.48-3.94,5.41-16.24,7.87-5.41,.98-10.83,1.48-15.75,1.48-8.37,0-17.22-1.48-25.1-4.92-1.48-.98-2.95-1.48-3.94-2.95-.49-.49-1.48-1.48-1.97-2.46v7.38c.49,1.97,1.48,3.44,2.95,4.43"/><path class="cls-2" d="M269.67,375.47c-.98,1.48-2.46,2.46-3.94,3.44-1.97,1.48-4.43,2.46-6.89,3.44-6.89,1.97-14.27,2.95-21.16,2.46-3.44,0-6.89-.49-10.83-.98-1.97-.49-4.43-.49-6.4-.98-.98,0-1.97-.49-2.95-.98-2.95-.98-5.91-2.46-8.37-3.94-.98-.49-1.97-1.48-2.46-2.46v6.89c0,1.97,.98,3.44,2.46,4.43,4.92,3.44,10.83,5.41,16.73,5.91,3.94,.49,7.87,.98,12.3,.98,5.91,0,11.81-.49,17.72-1.97,2.95-.98,5.91-1.97,8.86-3.44,2.95-1.97,4.43-3.94,4.43-5.91,.49,0,.49-6.4,.49-6.89"/><path class="cls-2" d="M225.87,381.87c3.94,.49,7.87,.98,12.3,.98,5.91,0,11.81-.49,17.72-1.97,2.95-.49,5.91-1.97,8.86-3.44,.49-.49,1.48-.98,1.97-1.48,.98-.98,1.97-1.97,2.46-2.95,0-.49,.49-.98,.49-1.48v-6.89c-.98,1.48-3.94,5.41-16.24,7.87-5.41,.98-10.83,1.48-15.75,1.48-8.37,0-17.22-1.48-25.1-4.92-1.48-.98-2.95-1.48-3.94-2.95-.49-.49-1.48-1.48-1.97-2.46v7.38c0,1.97,.98,3.44,2.46,4.43,4.92,3.94,10.83,5.91,16.73,6.4"/><path class="cls-2" d="M286.89,316.42c.49-1.48,.98-2.95,2.46-3.44,.98,.98,1.97,1.48,2.95,2.46,8.37,3.44,17.22,5.41,26.08,4.92,7.38,0,14.76-.98,22.14-3.44,.98-.49,1.97-.98,2.95-.98v.98c0,4.43-11.32,9.35-28.05,9.35s-28.54-5.41-28.54-9.84m31.49-24.6c16.73,0,28.54,4.92,28.54,9.35s-11.81,9.35-28.54,9.35-28.05-4.92-28.05-9.35,11.32-9.35,28.05-9.35m-3.44,43.3c17.22,0,31-5.41,31-11.81,0,0,.49-5.91,0-7.38,0-.98,0-1.48-.49-2.46,1.97-.98,3.44-2.95,3.94-5.41,0,0,.49-6.4,0-7.87-.49-7.38-16.24-11.32-31-11.32s-31.49,4.43-31.49,12.79c0,.49,.49,7.38,.49,7.38,0,.49,0,.98,.49,1.48-2.46,1.48-3.94,3.44-3.94,6.4,0,.49,.49,7.38,.49,7.38,0,1.97,.98,3.44,2.46,4.43,4.92,3.44,10.83,5.41,16.73,5.91,3.44,.49,7.38,.49,11.32,.49"/><path class="cls-2" d="M349.39,328.72c0-.49-.49-.98-.98-.98-.49-.49-.98-.49-.98-.98l-1.48-.49c-.49,.49-.98,1.48-1.48,1.97,.49,0,.98,.49,.98,.49,.98,.49,1.48,1.48,1.48,2.46s-.49,1.48-.98,1.97c-.49,.49-.98,.49-.98,.98l-1.97,.98-2.95,.98s-1.97,.49-2.95,.98l-2.46,.98-4.92,.98-4.92,.49c-.49,0-4.92,.49-7.38,.49-3.44,0-6.4,0-9.84-.98-2.46-.49-4.92-.98-6.89-1.48-2.46-.49-4.92-1.48-7.38-2.46-1.48-.49-2.95-1.48-3.94-2.46-.98-.98-1.97-1.97-2.46-3.44v7.87c0,1.97,.98,3.44,2.46,4.43,4.92,3.44,10.83,5.41,16.73,6.4,3.94,.49,7.87,.98,12.3,.98,5.91,0,11.81-.49,17.72-1.97,2.95-.49,5.91-1.97,8.86-3.44,.49-.49,1.48-.98,1.97-1.48,.98-.98,1.97-1.97,2.46-2.95,0-.49,.49-.98,.49-1.48,0,0,.49-6.4,.49-6.89-.98-.49-.98-1.48-.98-1.97"/><path class="cls-2" d="M345.94,356.28c-1.97,1.48-4.43,2.46-6.89,2.95-6.89,1.97-14.27,2.95-21.16,2.46-3.44,0-6.89-.49-10.83-.98-1.97-.49-4.43-.49-6.4-.98-.98,0-1.97-.49-2.95-.98-2.95-.98-5.91-1.97-8.37-3.94-.98-.49-1.48-1.48-2.46-2.46v6.89c0,1.97,.98,3.44,2.46,4.43,4.92,3.44,10.83,5.41,16.73,6.4,3.94,.49,7.87,.98,12.3,.98,5.91,0,11.81-.49,17.72-1.97,2.95-.98,5.91-1.97,8.86-3.44,2.95-1.48,4.43-3.94,4.43-5.91v-6.89c-1.48,1.48-2.46,2.46-3.44,3.44"/><path class="cls-2" d="M289.35,352.83c4.92,3.44,10.83,5.41,16.73,5.91,3.94,.49,7.87,.98,12.3,.98,5.91,0,11.81-.49,17.72-1.97,2.95-.49,5.91-1.97,8.86-3.44,.49-.49,1.48-.98,1.97-1.48,.98-.98,1.97-1.97,2.46-2.95,0-.49,.49-.98,.49-1.48v-6.89c-1.97,1.48-4.43,5.41-16.73,7.87-5.41,.98-10.83,1.48-15.75,1.48-8.37,0-17.22-1.48-25.1-4.92-1.48-.98-2.95-1.48-3.94-2.95-.49-.49-1.48-1.48-1.97-2.46v7.38c0,2.46,.98,3.94,2.95,4.92"/><path class="cls-2" d="M349.88,374.98c-.98,1.48-2.46,2.46-3.94,3.44-1.97,1.48-4.43,2.46-6.89,2.95-6.89,1.97-14.27,2.95-21.16,2.46-3.44,0-6.89-.49-10.83-.98-2.46-.49-4.43-.98-6.4-.98l-2.95-.98c-2.95-.98-5.91-2.46-8.37-3.94-.98-.49-1.97-1.48-2.46-2.46v6.89c0,1.97,.98,3.44,2.46,4.43,4.92,3.44,10.83,5.41,16.73,5.91,3.94,.49,8.37,.98,12.3,.98,5.91,0,11.81-.49,17.72-1.97,2.95-.49,5.91-1.97,8.86-3.44,2.95-1.97,4.43-3.94,4.43-5.91,0,.49,.49-5.91,.49-6.4"/><path class="cls-2" d="M306.08,381.38c3.94,.98,8.37,.98,12.3,.98,5.91,0,11.81-.49,17.72-1.97,2.95-.49,5.91-1.97,8.86-3.44,.49-.49,1.48-.98,1.97-1.48,.98-.98,1.97-1.97,2.46-2.95,0-.49,.49-.98,.49-1.48v-6.89c-.98,1.48-3.94,5.41-16.24,7.87-5.41,.98-10.83,1.48-15.75,1.48-8.37,0-17.22-1.48-25.1-4.92-1.48-.49-2.95-1.48-3.94-2.46-.49-.49-1.48-1.48-1.97-2.46v7.38c0,1.97,.98,3.44,2.46,4.43,4.92,3.44,10.33,5.41,16.73,5.91"/></g></svg>