<?xml version="1.0" encoding="UTF-8"?><svg id="Capa_1" xmlns="http://www.w3.org/2000/svg" viewBox="0 0 467 568.37"><defs><style>.cls-1{fill:#00486e;}.cls-2{fill:#fff;}</style></defs><path class="cls-1" d="M4.92,80.7H461.59V4.92H4.92V80.7Zm462.08,4.92H0V0H466.51V85.62h.49Z"/><polygon class="cls-1" points="16.73 17.72 38.88 17.72 38.88 24.6 32.48 24.6 32.48 67.91 23.62 67.91 23.62 24.6 16.73 24.6 16.73 17.72"/><path class="cls-1" d="M49.21,52.16h6.89l-3.44-20.18-3.44,20.18Zm-10.33,15.75l9.35-50.19h9.35l9.84,50.19h-8.86l-1.48-9.35h-8.86l-1.48,9.35h-7.87Z"/><path class="cls-1" d="M80.21,24.6v15.75h2.95c2.95,0,3.94-1.48,3.94-3.94v-7.38c0-2.95-1.48-3.94-3.94-3.94h-2.95v-.49Zm0,20.18v23.13h-8.37V17.72h12.3c8.37,0,11.81,4.43,11.81,11.32v6.4c0,5.41-1.97,8.37-6.89,9.84l7.87,22.64h-8.86l-7.87-23.13Z"/><path class="cls-1" d="M113.67,41.34h11.81v26.57h-5.91v-5.41c-.98,3.94-3.44,5.91-7.87,5.91-7.38,0-10.33-5.91-10.33-13.29V31c0-7.87,3.94-13.29,12.79-13.29,9.35,0,11.81,5.41,11.81,12.79v4.43h-7.87v-4.92c0-2.95-.98-4.92-4.43-4.92-2.95,0-4.43,1.97-4.43,4.92v27.07c0,2.95,1.48,4.92,3.94,4.92,2.95,0,3.94-1.48,3.94-4.92v-9.35h-3.94v-6.4h.49Z"/><polygon class="cls-1" points="132.37 17.72 152.55 17.72 152.55 24.6 140.74 24.6 140.74 38.88 149.11 38.88 149.11 45.77 140.74 45.77 140.74 61.02 152.55 61.02 152.55 67.91 132.37 67.91 132.37 17.72"/><polygon class="cls-1" points="156.49 17.72 178.63 17.72 178.63 24.6 171.74 24.6 171.74 67.91 163.38 67.91 163.38 24.6 156.49 24.6 156.49 17.72"/><polygon class="cls-1" points="350.87 17.72 350.87 67.91 342.5 67.91 342.5 29.53 336.59 35.43 336.59 27.07 344.47 18.21 350.87 18.21 350.87 17.72"/><polygon class="cls-1" points="356.77 17.72 377.93 17.72 377.93 25.59 367.1 67.91 358.74 67.91 370.06 24.6 357.26 24.6 357.26 17.72 356.77 17.72"/><path class="cls-1" d="M391.71,36.91c3.44,0,5.91,2.95,5.91,5.91,0,3.44-2.95,5.91-5.91,5.91-3.44,0-5.91-2.95-5.91-5.91-.49-2.95,2.46-5.91,5.91-5.91"/><polygon class="cls-1" points="419.27 17.72 419.27 67.91 410.9 67.91 410.9 29.53 405 35.43 405 27.07 412.87 18.21 419.27 18.21 419.27 17.72"/><path class="cls-1" d="M426.16,58.56c0-4.92,1.48-8.37,6.4-13.29l4.92-4.92c2.95-2.95,2.95-4.43,2.95-8.86v-3.44c0-2.95-1.48-3.94-2.95-3.94-1.97,0-3.44,.98-3.44,3.94v6.4h-7.87v-6.4c0-6.89,3.94-10.83,11.32-10.83s10.83,3.44,10.83,10.33v4.92c0,4.92-.98,7.87-5.41,12.79l-5.41,5.91c-1.97,2.46-3.44,3.94-3.44,7.87v2.46h13.78v6.89h-21.65v-9.84Z"/><g><rect class="cls-1" x="0" y="101.37" width="466.51" height="467"/><path class="cls-2" d="M121.06,380.88c-25.59,0-46.26-20.67-45.77-46.26,.49-25.59,20.67-46.26,46.26-45.77,25.59,0,46.26,20.67,45.76,46.26,0,25.1-20.67,45.77-46.26,45.77m74.31-55.11c0-1.97-1.97-3.44-3.94-3.44h-5.41c-1.97,0-3.94-.49-4.43-2.95-.98-3.44-1.97-6.89-3.44-10.33-.98-1.97-.49-4.43,1.48-5.41,1.48-1.48,2.95-2.46,4.43-3.94,1.48-.98,1.97-3.44,.98-4.92-2.46-3.94-5.41-7.38-8.37-10.83-1.48-1.48-3.44-1.48-4.92-.49-1.48,.98-2.95,1.97-4.43,2.95-1.48,.98-3.44,1.97-5.41,.49-3.44-2.46-6.89-4.92-8.86-6.4-1.48-.98-2.46-2.95-1.97-4.92,.49-1.97,.98-3.94,1.48-5.91,.49-1.97-.49-3.44-1.97-4.43-4.43-1.97-8.86-3.44-13.78-4.43-1.97-.49-3.94,.49-4.43,2.46-.49,1.97-1.48,3.44-1.97,4.92-.49,1.48-1.97,3.44-3.94,3.44h-10.83c-1.97,0-3.94-.98-4.92-2.95-.98-1.97-1.48-3.44-2.46-5.41-.49-1.97-2.46-2.95-4.43-2.46-4.43,.98-8.86,2.46-13.29,4.43-1.97,.49-2.95,2.95-1.97,4.43v.49c.49,1.97,.98,3.44,1.48,5.41,.49,1.97,.49,3.94-.98,4.92-1.48,.98-6.4,4.43-8.86,6.4-1.48,1.48-3.94,1.48-5.41,.49-1.97-.98-3.44-1.97-4.92-2.95-1.48-.98-3.44-.98-4.92,.49-3.44,3.44-5.91,7.38-7.87,11.32-.98,1.48-.49,3.94,.98,4.92,1.48,1.48,2.95,1.97,4.43,3.44,1.48,.98,2.95,2.95,1.97,4.92-.98,1.97-2.46,8.37-3.44,10.83-.49,1.97-1.97,3.44-4.43,3.44l-5.91,.49c-1.97,0-3.44,1.48-3.44,3.44-.49,4.43-.49,9.35,0,14.27,0,1.97,1.97,3.44,3.94,3.44h5.41c1.97,0,3.94,.49,4.43,2.95,.98,3.44,1.97,6.89,3.44,10.83,.98,1.97,.49,4.43-1.48,5.41-1.48,1.48-2.95,2.46-4.43,3.94-1.48,.98-1.97,3.44-.98,4.92,2.46,3.94,5.41,7.87,8.37,11.32,1.48,1.48,3.44,1.48,4.92,.49,1.97-.98,2.95-1.97,4.43-2.95,1.48-.98,3.44-1.97,5.41-.49,1.97,1.48,6.89,4.92,8.86,6.4,1.48,.98,2.46,2.95,1.97,4.92-.49,1.97-.98,3.94-1.48,5.91-.49,1.97,.49,3.44,1.97,4.43,4.43,1.97,8.86,3.44,13.29,3.94,1.97,.49,3.94-.49,4.43-2.46,.49-1.97,.98-3.44,1.97-4.92,.98-1.48,1.97-3.44,3.94-3.44h11.32c1.97,0,3.94,.98,4.92,2.95,.98,1.97,1.48,3.44,2.46,5.41,.49,1.97,2.46,2.95,4.43,2.46,4.92-.98,9.35-2.46,13.78-4.92,1.97-.49,2.95-2.95,1.97-4.43v-.49c-.49-1.97-.98-3.44-1.48-5.41-.49-1.97-.49-3.94,.98-5.41,1.48-1.48,6.89-4.92,8.86-6.4,1.48-1.48,3.94-1.48,5.41-.49,1.97,.98,3.44,1.97,4.92,2.95,1.48,.98,3.44,.98,4.92-.49,3.44-3.44,5.91-7.38,7.87-11.32,.98-1.48,.49-3.94-.98-4.92-1.48-1.48-2.95-1.97-4.43-3.44-1.48-1.48-2.95-2.95-1.97-4.92,.98-1.97,2.46-7.87,3.44-10.83,.49-1.97,1.97-3.44,4.43-3.44,1.97,0,3.94,0,5.91-.49,1.97,0,3.44-1.48,3.44-3.44,.49-4.43,0-8.86-.49-13.78"/><path class="cls-2" d="M87.1,321.34c.98,.49,1.97,0,2.46-.49,.49-.49,.49-.98,0-1.48,0-.49,.49-.98,.98-.98,.98-.49,1.97-.98,2.95-1.97,1.97-.49,3.94-.49,6.4,0,1.48,.49,2.95,.49,3.94-.98,.98-.98,1.97-1.97,2.95-2.46,.49-.49-1.48-1.97-2.95,0-1.48,1.97-2.46,2.46-3.44,2.46s-5.41-.98-5.91-2.46c-.49-1.48,1.48-2.46,2.95-3.44,2.46-.49,4.92-.98,7.87-.98,2.46-.49,5.41-1.97,7.38-.49,1.97,1.48-6.89,2.95-3.94,4.43,.98,.49,5.41-2.46,6.89-3.44,3.44-1.97-3.44-2.46-2.46-5.91,.98-3.44-7.87-2.46-12.79-2.46-2.46,1.48-4.43,2.95-6.4,4.92,.49,0,.98,.49,1.48,.98,0,.98,0,1.97-.49,2.46-.98,.98-2.46,1.97-4.43,1.97q-.49,0-.49-.49c-.98,.98-1.48,1.97-1.97,2.95,.98-.49,1.97-.98,2.95-.98s2.46,.49,2.46,.98-2.46,1.97-2.95,2.46c-1.48,1.48-3.44,3.94-4.92,3.94h-.98c-.49,.98-.49,1.97-.98,2.95,.49-1.48,1.97-1.97,3.44-1.48"/><path class="cls-2" d="M154.52,344.47c-1.48,.49-2.95,.49-3.94-.49-.98-.98,.49-1.97,1.48-1.97,1.48,0,3.44,1.48,2.46,2.46m-5.41-5.41c0-.49,.49-.98,.98-.98h.49c.98,.49,1.48,1.48,1.97,2.46,0,.49-1.48,.49-1.97,.49s-.98-.98-1.48-1.97m-16.73,1.48c-1.48,.49-2.95,.49-3.94-.49-.98-.98,.49-1.97,1.48-1.97s3.44,1.48,2.46,2.46m-16.73,7.87c-.49,.98-1.97,7.87-2.95,6.89-.98-.98,.49-7.87,.49-8.37,1.97-2.95,5.41-2.46,2.46,1.48m38.38-15.75c-1.48,.98-2.95,1.48-4.43,1.48-1.48,.98-2.46,2.95-1.97,4.92,.49,1.48,3.94,5.91,.98,5.41-2.46-1.48-4.92-2.95-6.4-5.41-.98-2.46-1.97-4.43-2.46-5.91-.49-1.48-1.97-1.97-2.95-1.48q-.49,0-.49,.49c-1.48,.98,.49,1.97-.49,3.94-.98,1.97-1.97,3.94-3.44,2.46-3.94-4.43-9.84-2.46-10.33-7.38-.49-2.95-2.95-2.46-4.92-3.94-1.97-1.48-2.95-2.46-3.44-1.48-.49,.98,6.4,5.91,6.89,7.38,.49,1.48-1.97,3.94-3.94,3.94s-2.95-.98-4.92-2.95c-1.97-1.97-2.46-3.44-2.95-1.97,0,2.46,1.48,5.41,3.94,6.89,1.48,.98,3.44,1.48,2.95,3.44-.49,1.97,0,.98-1.97,2.46-1.48,.98-2.46,2.95-1.97,4.92,0,2.46-.49,2.95-.98,4.92-.49,1.97-1.48,.49-1.97,3.44-.49,1.97-1.48,3.94-2.46,5.41-1.48,1.48-3.44,1.97-5.41,1.97s-1.97-4.92-1.97-7.87c0-.98-1.48,1.48-1.97-3.44-.49-3.44-2.46,.49-2.95-1.97-.49-2.46-.98-1.97-2.46-3.44-1.48-1.48-2.46,0-3.94,.98-1.48,.98-.98,.98-2.95,.49,4.92,11.32,14.27,19.68,26.08,23.13-.49-.49-.98-1.48-.49-1.97,1.48-2.95,4.43-4.92,7.87-4.92,6.4-.49,15.26,4.43,16.73,3.44,1.48-.98,4.43-4.43,8.37-4.43,1.48,0,2.46,.49,3.44,.98,1.48-.98,2.95-2.46,3.94-3.44l-1.97-.49c-2.46-.98-1.97,.49-2.95,0s1.48-2.95-1.97-.98c-3.44,1.97-2.46,0-3.94-3.94-.98-3.44,.98-7.38,4.43-8.86,2.46-.98,4.92-1.48,7.38-1.97,4.92-.98,5.91-3.94,6.89-2.46l.49,.98c.49,.98,.49,1.48,.49,2.46,.49-1.97,1.48-3.44,1.97-5.41-.98-.49-5.41-6.4-1.97-10.83,.49-.49-.98-2.95-.49-2.95,1.48,0,2.95,.98,3.44,2.46,0-1.97-.49-4.43-.98-6.4v1.48c-.49,1.48-1.97,1.97-3.44,1.48-.49,0-1.48-.49-1.48-1.48-.49-.49-1.97-2.46-1.97,.49s1.97,3.94-.49,5.91"/><path class="cls-2" d="M85.62,325.77c2.46,.49,4.43,.98,6.89,1.48,2.46,.98,5.91,2.95,8.37,1.97,2.46-.98,2.95-1.48,2.46-2.95-.49-1.48-1.48-1.97-2.95-.98-.49,.49-1.97-2.46-2.95-2.46s.98,3.44,.49,3.44-2.46-3.44-2.46-3.94-1.48-1.97-2.46-.98c-2.46,2.46-6.4,1.97-6.89,2.95,0,0-.49,.49-.98,.49-2.46,1.48-2.95-.49-2.95-1.48-.49,2.46-.98,4.43-1.48,6.89v-.49c1.48-2.46,1.48-2.95,1.97-2.95,.49-.49,.98-.49,1.48-.49l1.48-.49Z"/><path class="cls-2" d="M356.28,462.08l-14.27-10.83c-.98-.98-2.95-.98-3.94,0l-.49,.49c-41.83,52.65-116.63,60.04-170.76,19.19-1.48-.98-2.95-2.46-4.92-3.94l15.25-10.33c1.48-.98-.49-2.46-.49-2.46l-53.64-25.1c-1.97-.98-1.97,0-1.97,.98v.49l1.48,60.53c0,.49,.49,1.97,1.97,.98l17.22-11.32c3.44,3.44,7.38,6.4,10.83,9.35,64.46,48.72,153.53,39.37,203.24-23.13l.49-.49c1.48-.98,1.48-2.95,0-4.43"/><path class="cls-2" d="M116.63,216.52l14.27,10.33c.98,.98,2.95,.98,3.94-.49v-.49c40.35-54.13,114.66-63.97,169.77-24.6,1.48,.98,3.44,2.46,4.92,3.94l-14.76,10.83c-1.48,.98,.98,2.46,.98,2.46l54.62,23.62c1.48,.98,1.97-.49,1.97-.98v-.49l-3.44-60.53c0-.49-.49-1.97-1.97-.98l-16.73,11.81c-3.44-2.95-7.38-5.91-11.32-8.86-65.94-46.75-154.52-34.94-202.74,29.03l-.49,.49c-.49,1.48-.49,3.44,.98,4.92q0-.49,0,0"/><path class="cls-2" d="M302.15,287.88c.98,0,2.46,.49,2.46,.98,0,1.48,0,2.95-.98,3.94-1.97,1.97-4.43,2.95-6.89,2.95-.49,0-1.48-.49-1.48-.98,1.97-1.97,3.94-4.43,6.89-6.89m-9.84,12.79c1.48-.98,2.95-1.97,4.92-1.97,1.48,0,3.94,.49,3.94,1.48s-3.94,2.95-4.92,3.94c-1.97,1.97-5.91,5.91-7.87,6.4h-1.48c1.48-3.44,2.95-6.4,4.92-9.35q0-.49,.49-.49m45.27,55.61c-.98,1.48-3.44,12.3-4.92,10.83-1.48-1.48,.49-12.3,.98-13.29,2.95-4.43,8.37-3.94,3.94,2.46m26.08-12.3c-1.97,.98-4.43,.98-5.91-.49-1.48-1.48,.98-3.44,1.97-3.44,2.46-.49,5.41,2.95,3.94,3.94m42.32-13.78c.98-.98-1.97-4.43-.98-4.43,1.97,0,3.94,.98,4.92,2.95,0,1.48,.49,3.44,.49,5.41,0,4.43-.49,8.37-1.48,12.79-1.97-.98-8.37-10.33-2.95-16.73m-6.89,19.68c-1.97,.98-4.43,.98-5.91-.49-1.48-1.48,.98-3.44,1.97-3.44,1.97,0,5.41,2.95,3.94,3.94m-6.89-5.91c-.98,0-1.48-.98-1.97-2.46-.49-.49,0-1.48,.49-1.97,.49-.49,.98,0,1.48,0,1.48,.98,2.46,1.97,2.95,3.44,.49,1.48-1.97,1.48-2.95,.98m-2.46,35.43c-3.44-1.97-2.95,.98-4.92,.49-1.97-.49,1.97-4.43-3.44-1.48-5.41,2.95-3.94-.49-5.91-6.4-1.48-5.91,1.48-11.81,6.89-13.78,3.94-1.48,7.87-2.46,11.81-2.95,7.87-1.97,9.35-6.4,10.83-3.94,0,.49,.49,.98,.98,1.48,.49,.98,.98,1.97,.98,3.44-2.95,8.86-8.37,16.73-14.76,23.62-1.48-.49-1.97-.49-2.46-.49m-51.18-108.26h1.48c1.97,0,3.94-.49,5.91-.49,30.02,0,56.1,21.16,62.99,50.19v.98c-.98,1.97-3.44,3.44-5.41,2.46-.98-.49-1.48-.98-1.97-1.97-.49-.98-3.44-3.44-3.44,.98s4.43,4.92,0,7.38c-1.97,1.48-4.43,2.46-6.89,2.46-2.46,1.97-3.44,4.92-3.44,7.87,.49,2.46,6.4,8.86,1.97,8.86-3.94-1.97-7.38-4.92-9.84-8.86-1.48-3.44-2.95-6.89-3.94-9.84-.49-1.97-2.95-2.95-4.92-2.46-.49,0-.98,.49-.98,.49-2.46,1.48,.49,2.95-.98,6.4-1.48,3.44-2.95,6.4-5.41,3.44-6.4-7.38-15.25-3.44-16.73-11.32-.98-4.43-4.43-3.94-7.38-6.4-2.95-2.46-4.92-3.94-5.41-1.97-.49,1.97,9.84,9.84,10.33,11.81,.98,2.95-2.95,5.91-5.91,6.4-2.95,.49-4.43-1.48-7.38-4.92-2.95-3.44-4.43-5.41-4.43-2.95,0,4.43,2.46,8.37,5.91,10.83,2.46,1.48,5.41,2.46,4.43,4.92-.98,2.46,0,.98-2.95,3.94-2.46,1.97-3.94,4.92-3.44,7.87,0,3.94-.98,3.94-1.48,7.38-.49,3.44-1.97,.49-3.44,5.41-.49,2.95-1.97,5.91-3.94,8.37-2.46,1.97-5.41,3.44-8.86,3.44-2.95,0-3.44-7.87-3.44-11.81,0-1.48-1.97,2.95-2.95-5.41-.49-5.41-3.94,.49-4.43-2.95-.49-3.44-1.97-2.95-3.94-4.92-1.97-1.97-3.94,0-6.4,1.48-2.46,1.48-1.48,1.48-4.92,.49-3.44-7.87-4.92-16.24-4.92-25.1,0-1.97,0-9.84,3.44-12.3,1.48-.49,2.95-.98,4.43-.98,3.44,.49,6.89,1.48,10.33,2.46,3.94,1.48,9.35,4.43,12.79,3.44,2.46-.98,4.43-2.46,3.94-4.43-.49-1.97-2.46-3.44-4.92-1.48-.98,.49-2.95-3.94-4.43-3.44-1.48,.49,1.97,5.41,.49,5.41s-3.94-5.41-4.43-6.4c-.49-.98-2.46-2.95-3.94-1.48-3.94,3.44-9.35,1.97-11.32,2.95-4.43,1.48-4.43,.49-4.43-1.48,0-.49,0-.98,.49-1.48,1.97-1.48,4.92-1.48,7.38-.98,1.48,.98,2.95-.49,3.44-.98,.49-.49,.49-1.48,0-2.46-.49-.98,.98-1.48,1.48-1.97,1.48-.98,3.44-1.97,4.92-2.95,3.44-.98,6.4-.98,9.84,0,1.97,.98,4.92,.49,6.4-1.48,1.48-1.48,2.95-2.95,4.43-3.94,.98-.49-2.46-3.44-4.92,0-2.46,3.44-3.94,3.44-5.41,3.44s-8.86-1.97-9.35-3.94c-.49-1.97,2.46-3.94,4.92-5.41,3.94-.98,7.87-1.48,12.3-1.48,3.94-.98,8.86-2.95,11.32-.98,2.46,1.97-10.33,4.43-5.91,6.89,1.48,.98,8.37-3.94,10.83-4.92,5.41-2.95-5.41-3.94-3.94-9.35,1.48-6.4-13.29-3.94-20.67-3.44,6.89-4.43,14.76-7.38,23.13-8.86l3.94-.49Zm42.81,117.12l-2.46,1.48c-9.84,5.91-21.16,8.86-32.97,8.86-5.91,0-12.3-.98-18.21-2.46-.98-.98-1.48-1.97-.98-2.95,2.46-4.43,7.38-7.38,12.3-7.87,10.33-.98,24.11,6.89,26.08,5.41,1.97-1.48,6.4-6.89,13.29-6.89,1.97,0,3.94,.49,5.91,1.48-.98,.98-1.97,1.48-2.95,1.97v.98Zm-35.43-124.01c-38.88,0-70.37,31.49-70.37,70.37s31.49,70.37,70.37,70.37,70.37-31.49,70.37-70.37v-.49c0-38.38-31.49-69.88-70.37-69.88"/></g></svg>