<?xml version="1.0" encoding="UTF-8"?><svg id="Capa_1" xmlns="http://www.w3.org/2000/svg" viewBox="0 0 467 568.37"><defs><style>.cls-1{fill:#fff;}.cls-2{fill:#e4003b;}</style></defs><path class="cls-2" d="M4.92,80.7H461.59V4.92H4.92V80.7Zm462.08,4.92H0V0H466.51V85.62h.49Z"/><polygon class="cls-2" points="16.73 17.72 38.88 17.72 38.88 24.6 32.48 24.6 32.48 67.91 23.62 67.91 23.62 24.6 16.73 24.6 16.73 17.72"/><path class="cls-2" d="M49.21,52.16h6.89l-3.44-20.18-3.44,20.18Zm-10.33,15.75l9.35-50.19h9.35l9.84,50.19h-8.86l-1.48-9.35h-8.86l-1.48,9.35h-7.87Z"/><path class="cls-2" d="M80.21,24.6v15.75h2.95c2.95,0,3.94-1.48,3.94-3.94v-7.38c0-2.95-1.48-3.94-3.94-3.94h-2.95v-.49Zm0,20.67v23.13h-8.37V17.72h12.3c8.37,0,11.81,4.43,11.81,11.32v6.4c0,5.41-1.97,8.37-6.89,9.84l7.87,22.64h-8.86l-7.87-22.64Z"/><path class="cls-2" d="M113.67,41.34h11.81v26.57h-5.91v-5.41c-.98,3.94-3.44,5.91-7.87,5.91-7.38,0-10.33-5.91-10.33-13.29V31c0-7.87,3.94-13.29,12.79-13.29,9.35,0,11.81,5.41,11.81,12.79v4.43h-7.87v-4.92c0-2.95-.98-4.92-4.43-4.92-2.95,0-4.43,1.97-4.43,4.92v27.07c0,2.95,1.48,4.92,3.94,4.92,2.95,0,3.94-1.48,3.94-4.92v-9.35h-3.94v-6.4h.49Z"/><polygon class="cls-2" points="132.37 17.72 152.55 17.72 152.55 24.6 140.74 24.6 140.74 38.88 149.11 38.88 149.11 45.77 140.74 45.77 140.74 61.02 152.55 61.02 152.55 67.91 132.37 67.91 132.37 17.72"/><polygon class="cls-2" points="156.49 17.72 178.63 17.72 178.63 24.6 171.74 24.6 171.74 67.91 163.38 67.91 163.38 24.6 156.49 24.6 156.49 17.72"/><path class="cls-2" d="M431.08,52.16h6.89l-3.44-20.18-3.44,20.18Zm-10.33,15.75l9.35-50.19h9.35l9.35,50.19h-8.86l-1.48-9.35h-8.86l-1.48,9.35h-7.38Z"/><polygon class="cls-2" points="391.71 17.72 391.71 67.91 383.34 67.91 383.34 29.53 377.44 35.92 377.44 27.07 385.31 18.21 391.71 18.21 391.71 17.72"/><polygon class="cls-2" points="404.01 32.48 404.01 53.15 414.84 42.81 404.01 32.48"/><g><rect class="cls-2" y="101.86" width="466.51" height="466.51"/><polygon class="cls-1" points="269.18 173.71 261.8 173.71 261.8 313.96 365.14 313.96 365.14 305.59 269.18 305.59 269.18 173.71"/><path class="cls-1" d="M365.63,233.25h0c0,.49-.49,.49-.49,.49h-75.29c-.49,0-.49-.49-.98-.49v-11.81c0-.49,.49-.49,.98-.49h74.8s.49,0,.49,.49v.49l.49,11.32Zm0,22.64h0c0,.49-.49,.49-.49,.49h-75.29c-.49,0-.49-.49-.49-.98v-11.32c0-.49,.49-.49,.49-.49h74.8q.49,0,.49,.49l.49,11.81Zm0,22.14h0c0,.49-.49,.49-.49,.49h-75.29c-.49,0-.49-.49-.49-.49v-11.32c0-.49,.49-.49,.49-.49h74.8c.49,0,.49,.49,.49,.49l.49,11.32Zm-89.07,19.19h100.88V156.49h-100.88v140.74Z"/><path class="cls-1" d="M395.15,387.28c7.38,0,13.29-5.91,13.29-13.78,0-7.38-5.91-13.29-13.78-13.29-7.38,0-13.29,5.91-13.29,13.29,0,7.87,5.91,13.78,13.78,13.78"/><path class="cls-1" d="M410.9,392.2h-31.49c-9.35,.98-16.73,8.86-16.24,18.21v37.4c-.49,2.95,1.97,5.41,4.92,5.91,2.95,.49,5.41-1.97,5.91-4.92v-33.46c0-.98,.49-2.95,2.46-2.95s1.97,1.48,1.97,2.46v96.45c0,3.94,3.44,7.38,7.38,7.38s7.38-3.44,7.38-7.38v-54.62c0-.98,.98-1.97,1.97-1.97s1.97,.98,1.97,1.97v55.61c-.49,3.94,2.95,7.87,6.89,8.37,3.94,.49,7.87-2.95,8.37-6.89v-98.42c0-.98,.49-2.46,1.97-2.46s2.46,1.48,2.46,2.95v32.48c0,2.95,2.46,5.41,5.41,5.41s5.41-2.46,5.41-5.41v-37.4c-.49-9.84-7.38-17.72-16.73-18.7"/><path class="cls-1" d="M280.99,393.68c6.89,0,12.79-5.91,12.79-12.79s-5.91-12.79-12.79-12.79-12.79,5.91-12.79,12.79c0,7.38,5.91,12.79,12.79,12.79"/><path class="cls-1" d="M317.4,444.36l-10.83-34.45s-3.94-9.84-12.3-9.84h-27.07c-8.37,0-12.3,9.84-12.3,9.84l-10.83,34.45s-1.97,6.4,3.44,7.87c5.41,1.48,6.89-4.43,6.89-4.43l8.37-29.03s.49-2.46,1.97-1.97c1.48,.49,.98,2.95,.98,2.95l-14.76,54.13h13.78v38.88c.49,3.44,3.44,6.4,7.38,5.91,3.44-.49,5.91-2.95,5.91-5.91v-38.88h3.94v38.88c.49,3.44,3.44,6.4,7.38,5.91,3.44-.49,5.91-2.95,5.91-5.91v-38.88h13.78l-14.76-54.13s-.49-2.46,.98-2.95,1.97,1.97,1.97,1.97l8.37,29.03s1.48,6.4,6.89,4.43c5.41-1.97,4.92-7.87,4.92-7.87"/><path class="cls-1" d="M204.71,393.68c6.89,0,12.79-5.91,12.79-12.79s-5.91-12.79-12.79-12.79-12.79,5.91-12.79,12.79,5.41,12.79,12.79,12.79"/><path class="cls-1" d="M241.13,444.36l-10.83-34.45s-3.94-9.84-12.3-9.84h-27.07c-8.37,0-12.3,9.84-12.3,9.84l-10.83,34.45s-1.97,6.4,3.44,7.87c5.41,1.48,6.89-4.43,6.89-4.43l8.37-29.03s.49-1.97,1.97-1.48c1.48,.49,.98,2.95,.98,2.95l-14.76,54.13h13.78v38.88c.49,3.44,3.44,6.4,7.38,5.91,3.44-.49,5.91-2.95,5.91-5.91v-38.88h3.94v38.88c.49,3.44,3.44,6.4,7.38,5.91,3.44-.49,5.91-2.95,5.91-5.91v-38.88h13.78l-14.76-54.13s-.49-2.46,.98-2.95,1.97,1.48,1.97,1.48l8.37,29.03s1.48,6.4,6.89,4.43c5.41-1.97,4.92-7.87,4.92-7.87"/><path class="cls-1" d="M81.69,388.76c7.38,0,13.29-5.91,13.29-13.29s-5.91-13.29-13.29-13.29-13.29,5.91-13.29,13.29,5.91,13.29,13.29,13.29"/><path class="cls-1" d="M96.94,393.68h-31c-9.35,.98-16.24,8.86-16.24,18.21v36.91c0,1.48,.98,2.95,1.97,3.94l-11.81,62.99c0,.98,.49,1.97,1.48,2.46h.49c.98,0,1.97-.49,1.97-1.48l11.81-62.5c2.46-.49,4.43-2.46,4.43-4.92v-32.48c0-.98,.49-2.95,2.46-2.95,1.48,0,1.97,1.48,1.97,2.46v95.47c.49,3.94,4.43,6.89,8.37,6.4,2.95-.49,5.41-2.95,6.4-6.4v-54.62c0-.98,.98-1.97,1.97-1.97h.49c.98,0,1.97,.98,1.97,1.97v55.11c.49,3.94,4.43,6.89,8.37,6.4,2.95-.49,5.41-2.95,6.4-6.4v-95.47c0-.98,.49-2.46,1.97-2.46s2.46,1.48,2.46,2.95v31.99c-.49,2.95,1.97,5.41,4.92,5.91,2.95,.49,5.41-1.97,5.91-4.92v-38.38c-.49-9.35-7.38-17.22-16.73-18.21"/><path class="cls-1" d="M339.55,451.25c5.91,0,10.83-4.92,10.83-10.83s-4.92-10.83-10.83-10.83-10.83,4.92-10.83,10.83,4.92,10.83,10.83,10.83"/><path class="cls-1" d="M365.63,483.24c0-.49-3.44-8.37-4.43-10.83-6.4-16.73-7.87-16.73-13.78-16.73h-16.73c-5.91,0-6.89,0-13.78,16.73-.98,2.46-4.92,11.81-4.92,12.3s-1.48,3.94,1.97,5.41c3.44,1.48,4.43-2.95,4.43-2.95l6.89-16.24s0-.49,.49-.49,0,.49,0,.49v42.81c0,2.95,2.46,5.91,5.41,5.91h.49c2.95,0,5.91-1.97,5.91-4.92v-18.21s0-2.46,1.48-2.46,1.48,2.46,1.48,2.46v17.22c0,2.95,2.46,5.91,5.41,5.91h.49c2.95,0,5.41-2.46,5.41-5.41v-43.8l.98,.49,5.91,14.76s1.48,3.94,4.92,2.46c1.97-.98,2.95-2.95,1.97-4.92"/><path class="cls-1" d="M162.88,444.86c-1.97-.98-4.43,0-5.41,1.97-1.97,3.44-4.43,6.89-6.89,10.33-.98,.98-1.97,1.48-3.44,1.48h-12.79c-1.48,0-2.46-.49-3.44-1.48-1.48-1.48-6.89-10.83-6.89-10.83-.49-.98-1.97-1.97-3.44-1.97-1.97,0-3.94,1.97-3.94,3.94,0,.49,0,.98,.49,1.48l10.83,19.68c.49,.98,.49,1.48,.49,2.46v2.95c0,.98,0,2.46-.49,3.44l-4.92,20.67h5.91v15.26c.49,2.95,2.95,4.92,5.91,4.92,2.46,0,4.43-2.46,4.92-4.92v-15.26h2.95v15.26c.49,2.95,2.95,4.92,5.91,4.92,2.46,0,4.43-2.46,4.92-4.92v-15.26h5.91l-5.41-20.67c0-.98-.49-1.97-.49-2.95v-3.44c0-.98,.49-1.97,.49-2.46l9.84-18.21,.98-1.97c.98-1.48,.49-3.94-1.48-4.92q-.49,.98-.49,.49"/><path class="cls-1" d="M140.74,452.24c5.91,0,10.83-4.92,10.83-10.83s-4.92-10.83-10.83-10.83-10.83,4.92-10.83,10.83,4.92,10.83,10.83,10.83"/><path class="cls-1" d="M139.26,231.78c-1.97,.98-3.94,1.97-5.91,2.46-6.4,1.97-12.79,2.46-19.19,2.46-2.95,0-6.4-.49-9.35-.98-1.97-.49-3.94-.49-5.91-.98l-2.95-.98c-2.46-.98-5.41-1.97-7.38-3.44-.98-.49-1.48-1.48-1.97-2.46v6.4c0,1.48,.98,2.95,1.97,3.94,4.43,2.95,9.35,4.92,14.76,5.41,3.44,.49,7.38,.98,10.83,.98,5.41,0,10.33-.49,15.75-1.97,2.95-.49,5.41-1.48,7.87-2.95,2.46-1.48,3.94-3.44,3.94-5.41v-5.91c-.49,1.48-.98,2.46-2.46,3.44"/><path class="cls-1" d="M86.61,195.85c0-1.48,.98-2.46,1.97-2.95,.98,.98,1.97,1.48,2.95,1.97,7.38,3.44,15.25,4.92,23.13,4.43,6.89,0,13.29-.98,19.68-2.95,.98-.49,1.48-.98,2.46-.98v.49c0,3.94-10.33,8.37-25.1,8.37s-25.1-4.43-25.1-8.37m28.05-21.65c14.76,0,25.1,4.43,25.1,8.37s-10.33,8.37-25.1,8.37-25.1-4.43-25.1-8.37,10.33-8.37,25.1-8.37m-2.46,38.38c15.25,0,28.05-4.43,28.05-10.33,0,0,.49-5.41,0-6.4,0-.98,0-1.48-.49-2.46,1.97-.98,2.95-2.46,2.95-4.92v-6.89c-.98-6.89-14.76-10.83-28.05-10.83s-28.05,3.94-28.05,11.32c0,.49,.49,6.4,.49,6.4,0,.49,0,.98,.49,1.48-1.97,.98-3.44,3.44-3.44,5.91,0,.49,.49,6.4,.49,6.4,0,1.48,.98,2.95,2.46,3.94,4.43,2.95,9.35,4.92,14.76,5.41,2.46,.98,6.4,.98,10.33,.98"/><path class="cls-1" d="M103.83,234.24c3.44,.49,7.38,.98,10.83,.98,5.41,0,10.33-.49,15.75-1.97,2.95-.49,5.41-1.48,7.87-2.95,.49-.49,.98-.98,1.97-.98,.98-.49,1.48-1.48,1.97-2.46,0-.49,.49-.98,.49-1.48v-5.91c-.98,.98-3.44,4.92-14.27,6.89-4.92,.98-9.35,.98-14.27,.98-7.87,0-15.25-1.48-22.14-4.43-1.48-.49-2.46-1.48-3.44-2.46-.49-.49-.98-1.48-1.48-1.97v6.4c0,1.48,.98,2.95,1.97,3.94,3.94,2.95,8.86,4.92,14.76,5.41"/><path class="cls-1" d="M142.22,205.7l-.98-.49c-.49-.49-.98-.49-.98-.49-.49,.49-.98,.98-1.48,1.48,.49,0,.98,.49,.98,.49,.98,.49,1.48,1.48,1.48,1.97s-.49,1.48-.98,1.97l-.98,.98-1.48,.98-2.46,.98-2.46,.98-3.44,.49-4.43,.49c-.49,0-2.95,.49-4.43,.49s-4.43,.49-6.4,.49c-4.92,0-10.33-.49-15.25-1.48-2.46-.49-4.43-.98-6.89-1.97-1.48-.49-2.46-1.48-3.44-2.46-.98-.98-1.48-1.97-2.46-2.95v6.89c0,1.48,.98,2.95,1.97,3.94,4.43,2.95,9.35,4.92,14.76,5.41,3.44,.49,7.38,.98,10.83,.98,5.41,0,10.33-.49,15.75-1.97,2.95-.49,5.41-1.48,7.87-2.95,.49-.49,.98-.98,1.97-.98,.98-.49,1.48-1.48,1.97-2.46,0-.49,.49-.98,.49-1.48v-7.38c.49-.98,.49-1.48,.49-1.97"/><path class="cls-1" d="M151.07,175.68c0-1.48,.98-2.46,1.97-2.95,.98,.98,1.97,1.48,2.95,1.97,7.38,3.44,15.26,4.92,23.13,4.43,6.89,0,13.29-.98,19.68-2.95,.98-.49,1.48-.98,2.46-.98v.49c0,3.94-10.33,8.37-25.1,8.37s-25.1-4.43-25.1-8.37m28.05-21.65c14.76,0,25.1,4.43,25.1,8.37s-10.33,8.37-25.1,8.37-25.1-4.43-25.1-8.37,10.33-8.37,25.1-8.37m-2.95,38.38c15.25,0,28.05-4.43,28.05-10.33,0,0,.49-5.41,0-6.4,0-.98,0-1.48-.49-2.46,1.97-.98,2.95-2.46,2.95-4.92,0,0,.49-5.91,0-6.89-.98-6.89-14.76-10.83-28.05-10.83s-27.56,4.43-27.56,11.81v6.4c0,.49,0,.98,.49,.98-1.97,1.48-2.95,3.44-3.44,5.41v6.4c0,1.48,.98,2.95,2.46,3.94,4.43,2.95,9.35,4.92,14.76,5.41,3.44,1.48,7.38,1.48,10.83,1.48"/><path class="cls-1" d="M207.17,187c0-.49-.49-.98-.49-.98l-.49-.49c-.49-.49-.98-.49-.98-.49l-1.48,1.48c.49,0,.98,.49,.98,.49,.98,.49,1.48,1.48,1.48,1.97s-.49,1.48-.98,1.97l-.98,.98-1.48,.98-2.46,.98-2.46,.98-3.44,.98-4.43,.49-4.43,.49c-.49,0-4.43,.49-6.4,.49-2.95,0-5.91,0-8.86-.49-1.97-.49-4.43-.98-6.4-.98-2.46-.49-4.43-.98-6.89-1.97-1.48-.49-2.46-1.48-3.44-2.46-.98-.98-1.48-1.97-2.46-2.95v6.89c0,1.48,.98,2.95,1.97,3.94,4.43,2.95,9.35,4.92,14.76,5.41,3.44,.49,7.38,.98,10.83,.98,5.41,0,10.33-.49,15.75-1.97,2.95-.49,5.41-1.48,7.87-2.95,.49-.49,.98-.98,1.97-.98,.98-.49,1.48-1.48,1.97-2.46,0-.49,.49-.98,.49-1.48v-5.91c0-1.97,.49-2.46,.49-2.95"/><path class="cls-1" d="M203.73,211.6c-1.97,.98-3.94,1.97-5.91,2.46-6.4,1.97-12.79,2.46-19.19,2.46-2.95,0-6.4-.49-9.35-.98-1.97-.49-3.94-.49-5.91-.98l-2.95-.98c-2.46-.98-5.41-1.97-7.38-3.44-.98-.49-1.48-1.48-1.97-1.97v6.4c0,1.48,.98,2.95,1.97,3.94,4.43,2.95,9.35,4.92,14.76,5.41,3.44,.49,7.38,.98,10.83,.98,5.41,0,10.33-.49,15.75-1.97,2.95-.49,5.41-1.48,7.87-2.95,2.46-1.48,3.94-3.44,3.94-5.41v-5.91c-.49,.98-1.48,1.97-2.46,2.95"/><path class="cls-1" d="M153.04,208.16c4.43,2.95,9.35,4.92,14.76,5.41,3.44,.49,7.38,.98,10.83,.98,5.41,0,10.33-.49,15.75-1.97,2.95-.49,5.41-1.48,7.87-2.95,.49-.49,.98-.98,1.48-.98,.98-.49,1.48-1.48,1.97-2.46,0-.49,.49-.98,.49-1.48v-5.91c-.98,.98-3.44,4.92-14.27,6.89-4.92,.98-9.35,.98-14.27,.98-7.38,0-15.26-1.48-22.14-4.43-1.48-.49-2.46-1.48-3.44-2.46-.49-.49-.98-1.48-1.48-1.97l.49,2.46v3.94c0,1.48,.98,3.44,1.97,3.94"/><path class="cls-1" d="M207.66,228.33c-.98,1.48-1.97,2.46-3.44,3.44-1.97,.98-3.94,1.97-5.91,2.46-6.4,1.97-12.79,2.46-19.19,2.46-2.95,0-6.4-.49-9.35-.49-1.97-.49-3.94-.49-5.91-.98l-2.95-1.48c-2.46-.98-5.41-1.97-7.38-3.44-.98-.49-1.48-1.48-1.97-2.46v6.4c0,1.48,.98,2.95,1.97,3.94,4.43,2.95,9.35,4.92,14.76,5.41,3.44,.98,7.38,.98,10.83,.98,5.41,0,10.33-.49,15.75-1.97,2.95-.49,5.41-1.97,8.37-3.44,2.46-1.48,3.94-3.44,3.94-5.41,0,.49,.49-4.92,.49-5.41"/><path class="cls-1" d="M168.3,233.75c3.44,.98,7.38,.98,10.83,.98,5.41,0,10.33-.49,15.75-1.97,2.95-.49,5.41-1.48,7.87-2.95,.49-.49,.98-.98,1.48-.98,.98-.49,1.48-1.48,1.97-2.46,0-.49,.49-.98,.49-1.48v-5.91c-.98,.98-3.44,4.92-14.27,6.89-4.92,.98-9.35,.98-14.27,.98-7.87,0-15.25-1.48-22.14-4.43-1.48-.49-2.46-1.48-3.44-2.46-.49-.49-.98-1.48-1.48-1.97v6.89c0,1.48,.98,2.95,1.97,3.94,4.43,2.95,9.84,4.92,15.26,4.92"/><path class="cls-1" d="M213.57,289.85l-35.43,28.05c-.49,.49-.98,.49-1.48,.49-.98,0-.98-.49-.98-1.97v-14.27H82.18c-.49,0-1.48-.49-.98-1.48v-24.6c0-.49,.49-1.48,.98-1.48h93.01v-13.78c0-.98,0-1.48,.98-1.97,.49,0,.98,0,1.48,.49l35.43,27.07c.49,.49,.98,.98,.98,1.97,0,.49,0,.98-.49,1.48"/></g></svg>