<?xml version="1.0" encoding="UTF-8"?><svg id="Capa_1" xmlns="http://www.w3.org/2000/svg" viewBox="0 0 467 568.37"><defs><style>.cls-1{fill:#fff;}.cls-2{fill:#b11546;}</style></defs><path class="cls-2" d="M4.92,80.7H461.59V4.92H4.92V80.7Zm462.08,4.92H0V0H466.51V85.62h.49Z"/><polygon class="cls-2" points="16.73 17.72 38.88 17.72 38.88 24.6 32.48 24.6 32.48 67.91 23.62 67.91 23.62 24.6 16.73 24.6 16.73 17.72"/><path class="cls-2" d="M49.21,52.16h6.89l-3.44-20.18-3.44,20.18Zm-10.33,15.75l9.35-50.19h9.35l9.84,50.19h-8.86l-1.48-9.35h-8.86l-1.48,9.35h-7.87Z"/><path class="cls-2" d="M80.21,24.6v15.75h2.95c2.95,0,3.94-1.48,3.94-3.94v-7.38c0-2.95-1.48-3.94-3.94-3.94h-2.95v-.49Zm0,20.18v23.13h-8.37V17.72h12.3c8.37,0,11.81,4.43,11.81,11.32v6.4c0,5.41-1.97,8.37-6.89,9.84l7.87,22.64h-8.86l-7.87-23.13Z"/><path class="cls-2" d="M113.67,41.34h11.81v26.57h-5.91v-5.41c-.98,3.94-3.44,5.91-7.87,5.91-7.38,0-10.33-5.91-10.33-13.29V31c0-7.87,3.94-13.29,12.79-13.29,9.35,0,11.81,5.41,11.81,12.79v4.43h-7.87v-4.92c0-2.95-.98-4.92-4.43-4.92-2.95,0-4.43,1.97-4.43,4.92v27.07c0,2.95,1.48,4.92,3.94,4.92,2.95,0,3.94-1.48,3.94-4.92v-9.35h-3.94v-6.4h.49Z"/><polygon class="cls-2" points="132.37 17.72 152.55 17.72 152.55 24.6 140.74 24.6 140.74 38.88 149.11 38.88 149.11 45.77 140.74 45.77 140.74 61.02 152.55 61.02 152.55 67.91 132.37 67.91 132.37 17.72"/><polygon class="cls-2" points="156.49 17.72 178.63 17.72 178.63 24.6 171.74 24.6 171.74 67.91 163.38 67.91 163.38 24.6 156.49 24.6 156.49 17.72"/><path class="cls-2" d="M431.08,52.16h6.89l-3.44-20.18-3.44,20.18Zm-10.33,15.75l9.35-50.19h9.35l9.35,50.19h-8.86l-1.48-9.35h-8.86l-1.48,9.35h-7.38Z"/><path class="cls-2" d="M384.33,31.99v-3.44c0-2.95-.98-4.92-3.94-4.92s-3.94,1.97-3.94,4.92v3.44c0,2.95,.98,4.92,3.94,4.92s3.94-1.97,3.94-4.92m.49,24.6v-7.87c0-2.95-.98-4.92-3.94-4.92s-3.94,1.97-3.94,4.92v7.87c0,2.95,.98,4.92,3.94,4.92,2.46,0,3.94-1.97,3.94-4.92m-16.73-.98v-5.41c0-4.92,1.48-8.37,5.41-9.84-3.44-1.48-4.92-4.43-4.92-8.86v-2.46c0-7.87,3.94-11.81,11.81-11.81s11.81,4.43,11.81,11.81v1.97c0,3.94-1.48,6.89-4.92,8.86,3.94,1.97,5.41,5.41,5.41,9.84v5.41c0,7.38-3.44,12.79-12.3,12.79-8.86,.49-12.3-4.92-12.3-12.3"/><polygon class="cls-2" points="404.01 32.48 404.01 53.15 414.84 42.81 404.01 32.48"/><g><rect class="cls-2" x="0" y="101.86" width="466.51" height="466.51"/><path class="cls-1" d="M334.63,299.69c-29.03,0-52.65-23.62-52.65-52.65s23.62-52.65,52.65-52.65,52.65,23.62,52.65,52.65-23.62,52.65-52.65,52.65m84.15-62.5c0-2.46-1.97-3.94-4.43-3.94h-6.4c-2.46,0-4.43-.49-4.92-2.95-.98-3.94-2.46-8.37-3.94-12.3-.98-1.97-.49-4.92,1.48-5.91,1.97-1.48,3.44-2.95,5.41-4.43,1.48-1.48,1.97-3.44,.98-5.41-2.46-4.92-5.91-8.86-9.84-12.79-1.48-1.97-3.94-1.97-5.91-.49-1.97,1.48-3.44,2.46-5.41,3.44-1.48,1.48-3.94,1.97-5.91,.49-3.44-2.95-7.87-5.91-10.33-7.38-2.46-.98-3.44-3.44-2.46-5.91,.49-2.46,.98-4.43,1.48-6.89,.49-1.97-.49-3.94-2.46-4.92-4.92-2.46-9.84-3.94-15.25-4.92-1.97-.49-4.43,.98-4.92,2.95-.98,1.97-1.48,3.94-1.97,5.91-.49,1.97-1.48,3.94-3.94,3.94h-12.79c-2.46,.49-4.43-.98-5.41-3.44-.98-2.46-1.48-3.94-2.46-6.4-.49-1.97-2.95-2.95-4.92-2.46-5.41,.98-10.33,2.95-15.25,5.41-1.97,.98-2.95,3.44-2.46,5.41,.49,2.46,.98,3.94,1.48,5.91,.49,1.97,.98,4.43-1.48,5.91-2.46,1.48-7.38,5.41-10.33,7.38-1.48,1.48-4.43,1.97-6.4,.49-1.97-1.48-3.94-2.46-5.91-3.44-1.97-.98-3.94-.98-5.41,.49-3.44,3.94-6.89,8.37-9.35,13.29-.98,1.97-.49,4.43,1.48,5.91,1.97,1.48,2.95,2.46,4.92,3.94,1.97,1.48,3.44,3.44,2.46,5.41-.98,1.97-2.95,9.35-3.94,12.3-.49,2.46-2.46,3.94-4.92,3.94s-4.43,.49-6.89,.49c-1.97,0-3.94,1.97-3.94,3.94-.49,5.41-.49,10.83,.49,16.24,0,2.46,1.97,3.94,4.43,3.94h6.4c2.46,0,4.43,.49,4.92,2.95,.98,3.94,2.46,8.37,3.94,12.3,.98,1.97,.49,4.43-1.48,5.91-1.97,1.48-3.44,2.95-5.41,4.43-1.48,1.48-1.97,3.44-.98,5.41,2.46,4.92,5.91,8.86,9.84,12.79,1.48,1.97,3.94,1.97,5.91,.49,1.97-1.48,3.44-1.97,5.41-3.44,1.48-1.48,3.94-1.97,5.91-.49,1.48,1.48,7.87,5.91,10.33,7.38,1.97,.98,2.95,3.44,2.46,5.91-.49,2.46-.98,4.43-1.48,6.89-.49,1.97,.49,3.94,2.46,4.92,4.92,2.46,9.84,3.94,15.25,4.43,1.97,.49,4.43-.98,4.92-2.95,.98-1.97,1.48-3.94,1.97-5.91,.49-1.97,1.97-3.94,4.43-3.94h12.79c2.46-.49,4.43,.98,5.41,3.44s1.48,3.94,2.46,6.4c.98,1.97,2.95,2.95,4.92,2.46,5.41-.98,10.33-2.95,15.26-5.41,1.97-.98,2.95-3.44,2.46-5.41-.49-2.46-.98-3.94-1.48-5.91s-.98-4.43,1.48-5.91c2.46-1.48,7.87-5.91,10.33-7.38,1.48-1.97,4.43-1.97,6.4-.98,1.97,1.48,3.94,2.46,5.91,3.44s3.94,.98,5.41-.49c3.44-3.94,6.89-7.87,9.35-12.79,1.48-1.97,.98-4.43-.98-5.91h-.49c-1.97-1.48-2.95-2.46-4.92-3.94-1.97-1.48-3.44-3.44-2.46-5.41,.98-1.97,2.95-8.86,3.94-12.3,.49-2.46,2.46-3.94,4.92-3.94s4.43-.49,6.89-.49c1.97,0,3.94-1.48,3.94-3.94,0-5.41,0-10.83-.98-15.75"/><path class="cls-1" d="M295.75,231.78c.98,.98,1.97,0,2.46-.49,.49-.49,.49-1.48,0-1.97-.49-.49,.49-.98,1.48-1.48,.98-.49,2.46-1.48,3.44-1.97,2.46-.49,4.92-.49,6.89,0,1.48,.98,3.44,.49,4.43-.98,.98-.98,1.97-1.97,3.44-2.95,.49-.49-1.48-2.46-3.44,0-1.97,2.46-2.95,2.95-3.94,2.95s-6.4-1.48-6.89-2.95c-.49-1.48,1.48-2.95,3.44-3.94,2.95-.49,5.91-.98,8.86-.98,2.95-.49,6.4-1.97,8.37-.98,1.97,.98-7.38,3.44-4.43,4.92,.98,.49,5.91-2.95,7.87-3.94,3.94-1.97-3.94-2.95-2.95-6.89,.98-3.94-9.35-2.95-14.76-2.46-2.46,1.48-4.92,3.44-7.38,5.41,.49,0,1.48,.49,1.48,.98,0,.98,0,1.97-.49,2.95-1.48,1.48-2.95,1.97-4.92,2.46q-.49,0-.98-.49c-.98,.98-1.48,1.97-2.46,3.44,.98-.49,2.46-.98,3.44-.98s2.95,.49,2.95,.98-2.95,1.97-3.44,2.46c-1.48,1.48-3.94,4.43-5.41,4.92h-.98c-.49,.98-.98,1.97-.98,2.95,.98-1.48,2.95-1.48,4.92-.98"/><path class="cls-1" d="M372.52,258.35c-1.48,.98-2.95,.49-4.43-.49-.98-.98,.98-2.46,1.48-2.46,1.97-.49,3.94,1.97,2.95,2.95m-5.91-6.4c-.49-.49,0-.98,.49-1.48h.98c.98,.49,1.97,1.48,1.97,2.46s-1.97,.49-2.46,.49-.49-.49-.98-1.48m-19.68,1.97c-1.48,.49-2.95,.49-4.43-.49-.98-.98,.98-2.46,1.48-2.46,1.97-.49,4.43,1.97,2.95,2.95m-18.7,8.86c-.49,.98-2.46,8.86-3.44,7.87s.49-8.86,.98-9.84c1.48-2.95,5.91-2.95,2.46,1.97m43.8-18.21c-1.48,.98-2.95,1.48-4.92,1.97-1.97,1.48-2.46,3.44-2.46,5.41,.49,1.97,4.43,6.4,1.48,6.4-2.95-1.48-5.41-3.44-7.38-6.4-.98-2.46-1.97-4.92-2.95-6.89-.49-1.48-1.97-2.46-3.44-1.97-.49,0-.49,.49-.98,.49-1.48,.98,.49,2.46-.98,4.92-1.48,2.46-1.97,4.43-3.94,2.46-4.43-5.41-11.32-2.46-12.3-8.37-.49-2.95-3.44-2.95-5.41-4.43s-3.44-2.95-3.94-1.48c-.49,1.48,6.89,6.89,7.38,8.37,.98,2.46-1.97,4.43-4.43,4.92s-2.95-.98-5.41-3.44-2.95-3.94-3.44-1.97c0,2.95,1.48,5.91,4.43,7.87,1.97,.98,3.94,1.48,3.44,3.94-.49,2.46,0,.98-1.97,2.95-1.97,.98-2.95,3.44-2.46,5.41,0,2.95-.49,2.95-.98,5.41-.49,2.46-1.48,.49-2.46,3.94-.49,1.97-1.48,4.43-2.95,5.91-1.97,1.48-3.94,2.46-6.4,2.46-1.97,0-2.46-5.91-2.46-8.86,0-.98-1.48,1.97-1.97-3.94-.49-3.94-2.95,.49-2.95-1.97s-1.48-1.97-2.46-3.94c-.98-1.97-2.95,0-4.92,.98-1.97,.98-.98,.98-3.44,.49,5.41,12.79,16.24,22.64,29.53,26.57-.49-.49-.98-1.48-.49-2.46,1.97-3.44,5.41-5.41,8.86-5.41,7.38-.49,17.22,4.92,19.19,3.94,1.97-.98,4.92-4.92,9.35-4.92,1.48,0,2.95,.49,4.43,1.48,1.48-.98,2.95-2.46,4.43-3.94-.49,0-.98-.49-1.48-.49-2.46-1.48-2.46,.98-3.44,0s1.48-3.44-2.46-.98c-3.94,2.46-2.95-.49-4.43-4.43-.98-3.94,.98-8.37,4.92-9.84,2.95-.98,5.41-1.48,8.37-2.46,5.41-1.48,6.89-4.92,7.87-2.46l.49,.98c.49,.98,.49,1.97,.49,2.95,.98-2.46,1.48-4.43,1.97-6.89-1.48-.49-6.4-7.38-2.46-12.3,.49-.98-1.48-2.95-.98-2.95,1.97,0,3.44,.98,3.94,2.95,0-2.46-.49-4.92-.98-7.38v1.48c-.49,1.48-2.46,2.46-3.94,1.48-.49,0-.98-.49-1.48-.98-.49-.49-2.46-2.46-2.46,.49s4.43,2.95,1.48,4.92"/><path class="cls-1" d="M293.78,237.19c2.46,.49,4.92,.98,7.38,1.97,2.95,.98,6.89,3.44,9.35,2.46,2.46-.98,2.95-1.48,2.95-3.44s-1.48-2.46-3.44-.98c-.49,.49-1.97-2.95-2.95-2.46-.98,.49,1.48,3.94,.49,3.94s-2.95-3.94-2.95-4.43-1.97-2.46-2.95-.98c-2.95,2.46-7.38,2.46-8.37,2.95-.49,0-.49,.49-.98,.49-1.97,.49-2.46-.98-2.46-2.46-.49,2.46-.98,5.41-.98,7.87v-.49c1.48-2.95,1.97-2.95,2.46-3.44,.49-.49,1.97-.49,1.97-.49l.49-.49Z"/><path class="cls-1" d="M121.55,308.05c-2.46,1.48-5.41,2.95-8.37,3.44-8.37,2.46-16.73,3.44-25.59,2.95-4.43,0-8.37-.49-12.79-.98-2.46-.49-4.92-.98-7.87-1.48-1.48-.49-2.46-.49-3.94-.98-3.44-.98-6.89-2.95-9.84-4.92-.98-.98-1.97-1.97-2.95-2.95v8.37c0,1.97,1.48,3.94,2.95,5.41,5.91,3.94,12.79,6.4,19.68,7.38,4.92,.49,9.84,.98,14.76,.98,6.89,0,14.27-.49,21.16-1.97,3.44-.98,7.38-2.46,10.33-3.94,3.44-1.97,5.41-4.43,5.41-7.38,0,0,.49-7.38,0-8.37,.49,1.97-.98,3.44-2.95,4.43"/><path class="cls-1" d="M51.18,260.32c.49-1.97,1.48-3.44,2.95-4.43,.98,.98,2.46,1.97,3.94,2.95,9.84,4.43,20.18,6.4,31,5.91,8.86,0,17.72-.98,26.57-3.94,.98-.49,2.46-.98,3.44-1.48v.98c0,5.41-13.78,11.32-33.95,11.32s-33.95-5.91-33.95-11.32m37.89-29.53c19.68,0,33.95,5.91,33.95,11.32s-13.78,11.32-33.95,11.32-33.95-5.91-33.95-11.32,13.78-11.32,33.95-11.32m-3.94,51.67c20.67,0,37.4-6.4,37.4-13.78,0,0,.49-7.38,.49-8.86,0-.98,0-1.97-.49-2.95,2.46-1.48,3.94-3.44,4.43-6.4,0,0,.49-7.87,0-9.35-.98-9.35-19.68-14.27-37.4-14.27s-37.89,5.41-37.89,15.25c0,.49,.49,8.86,.49,8.86,0,.49,0,.98,.49,1.48-2.95,1.48-4.43,4.43-4.92,7.38,0,.49,.49,8.86,.49,8.86,0,1.97,1.48,3.94,2.95,5.41,5.91,3.94,12.79,6.4,19.68,7.38,4.43,.98,9.35,1.48,14.27,.98"/><path class="cls-1" d="M73.81,311.5c4.92,.98,9.84,.98,14.76,.98,6.89,0,14.27-.98,20.67-2.46,3.94-.98,7.38-2.46,10.33-3.94,.98-.49,1.48-.98,2.46-1.48,.98-.98,1.97-2.46,2.95-3.44,.49-.49,.49-1.48,.49-1.97v-8.37c-.98,1.48-4.43,6.4-19.19,9.35-6.4,.98-12.79,1.48-19.19,1.48-11.81,0-24.6-2.46-30.02-5.91-1.97-.98-3.44-1.97-4.92-3.44-.98-.98-1.48-1.97-2.46-2.95v9.35c0,1.97,.98,3.94,2.95,5.41,6.89,3.94,13.78,6.89,21.16,7.38"/><path class="cls-1" d="M125.48,273.61l-.98-.98-1.48-.98c-.49,.98-.98,1.48-1.97,2.46,.49,0,.98,.49,1.48,.98,.98,.49,1.48,1.48,1.97,2.95,0,.98-.49,1.97-1.48,2.46-.49,.49-.98,.98-1.48,.98l-1.97,.98-3.44,1.48-3.44,.98c-.49,0-3.44,.98-4.43,.98-.49,0-3.94,.98-5.91,.98l-5.41,.49c-.49,0-5.91,.49-8.86,.49-3.94,0-7.87-.49-11.81-.98-2.95-.49-5.91-.98-8.37-1.48-2.95-.49-5.91-1.48-8.86-2.95-1.48-.98-3.44-1.97-4.43-3.44-.98-.98-1.97-2.46-2.95-3.94v9.35c0,1.97,.98,3.94,2.95,5.41,5.91,3.94,12.79,6.89,19.68,7.38,4.92,.98,9.84,.98,14.76,.98,6.89,0,14.27-.49,20.67-2.46,3.44-.98,7.38-2.46,10.33-3.94,.98-.49,1.48-.98,2.46-1.48,1.48-.98,1.97-1.97,2.95-3.44,.49-.49,.49-1.48,.49-1.97l.49-7.87c.49-.49,.49-1.48,.49-1.97-.49-.49-.98-.98-1.48-1.48"/><path class="cls-1" d="M137.3,233.25c.49-1.97,1.48-3.44,2.95-4.43,.98,.98,2.46,1.97,3.94,2.95,9.84,4.43,20.18,6.4,31,5.91,8.86,0,17.72-.98,26.57-3.94,.98-.49,2.46-.98,3.44-1.48v.98c0,5.41-13.78,11.32-33.95,11.32s-33.95-5.91-33.95-11.32m37.4-29.03c19.68,0,33.95,5.91,33.95,11.32s-13.78,11.32-33.95,11.32-33.46-6.4-33.46-11.32,13.78-11.32,33.46-11.32m-3.44,51.67c20.67,0,37.4-6.4,37.4-13.78,0,0,.49-7.38,.49-8.86,0-.98,0-1.97-.49-2.95,2.46-1.48,3.94-3.44,4.43-6.4,0,0,.49-7.87,0-9.35-.98-9.35-19.68-14.27-37.4-14.27s-37.4,5.41-37.4,15.25c0,.49,.49,8.86,.49,8.86,0,.49,0,.98,.49,1.48-2.95,1.48-4.43,4.43-4.92,7.38,0,.49,.49,8.86,.49,8.86,0,1.97,.98,3.94,2.95,5.41,5.91,3.94,12.79,6.89,19.68,7.38,3.44,.49,8.86,.98,13.78,.98"/><path class="cls-1" d="M212.59,248.02c0-.49-.49-.98-.98-1.48l-.98-.98c-.49-.49-.98-.49-1.48-.98-.49,.98-.98,1.48-1.48,1.97,.49,0,.98,.49,1.48,.98,.98,.49,1.48,1.48,1.48,2.95,0,.98-.49,1.97-1.48,2.46-.49,.49-.98,.98-1.48,.98l-1.97,.98s-2.46,.98-3.44,1.48l-3.44,.98-4.43,.98-5.91,.98c-.49,0-4.43,.49-5.91,.49-.49,0-5.91,.49-8.37,.49-3.94,0-7.87-.49-11.81-.98-2.95-.49-5.91-.98-8.37-1.48-2.95-.49-5.91-1.48-8.86-2.95-1.48-.98-3.44-1.97-4.43-2.95-.98-.98-1.97-2.46-2.95-3.94v9.35c0,1.97,.98,3.94,2.95,5.41,5.91,3.94,12.79,6.89,19.68,7.38,4.92,.98,9.84,.98,14.76,.98,6.89,0,14.27-.98,20.67-2.46,3.94-.98,7.38-2.46,10.83-3.94,.98-.49,1.48-.98,2.46-1.48,.98-.98,1.97-2.46,2.95-3.44,0-.49,.49-1.48,.49-1.97l.49-7.87c-.49-.49-.49-.98-.49-1.97"/><path class="cls-1" d="M208.16,280.99c-2.46,1.48-5.41,2.95-8.37,3.44-8.37,2.46-16.73,3.44-25.59,3.44-4.43,0-8.37-.49-12.79-.98-2.46-.49-4.92-.98-7.87-1.48-1.48-.49-2.46-.49-3.94-.98-3.44-.98-6.89-2.95-9.84-4.92-.98-.98-1.97-1.97-2.95-2.95v8.37c0,1.97,.98,3.94,2.95,5.41,5.91,3.94,12.79,6.4,19.68,7.38,4.92,.98,9.84,.98,14.76,.98,6.89,0,14.27-.98,20.67-2.46,3.94-.98,7.38-2.46,10.83-3.94,3.44-1.97,5.41-4.43,5.41-7.38,0,0,.49-7.38,0-8.37,0,1.97-1.48,3.44-2.95,4.43"/><path class="cls-1" d="M140.25,277.05c5.91,3.94,12.79,6.4,19.68,7.38,4.92,.49,9.84,.98,14.76,.98,6.89,0,14.27-.98,20.67-2.46,3.94-.98,7.38-1.97,10.83-3.94,.98-.49,1.48-.98,2.46-1.48,1.48-.98,1.97-1.97,2.95-3.44,.49-.49,.49-1.48,.49-1.97v-8.37c-1.48,1.48-4.43,6.4-19.19,9.35-6.4,.98-12.79,1.48-19.19,1.48-11.81,0-24.11-2.46-30.02-5.91-1.97-.98-3.44-1.97-4.92-3.44-.98-.98-1.48-1.97-2.46-2.95v9.35c.49,2.46,1.97,4.43,3.94,5.41"/><path class="cls-1" d="M212.59,303.62c-.98,1.48-2.95,2.95-4.43,4.43-2.46,1.48-5.41,2.95-8.37,3.44-8.37,2.46-16.73,3.44-25.59,2.95-4.43,0-8.37-.49-12.79-.98-2.95-.49-4.92-.98-7.87-1.48l-3.94-.98c-3.44-.98-6.89-2.95-9.84-4.92-.98-.98-1.97-1.97-2.95-2.95v8.37c0,1.97,1.48,3.94,2.95,5.41,5.91,3.94,12.79,6.89,19.68,7.38,4.92,.98,9.84,.98,14.76,.98,6.89,0,14.27-.49,21.16-1.97,3.44-.98,7.38-2.46,10.33-3.94,3.44-1.97,5.41-4.43,5.41-7.38,1.48-.49,1.48-7.87,1.48-8.37"/><path class="cls-1" d="M160.42,311c4.92,.98,9.84,.98,14.76,.98,6.89,0,14.27-.49,20.67-2.46,3.44-.98,7.38-2.46,10.33-3.94,.98-.49,1.48-.98,2.46-1.48,.98-.98,1.97-1.97,2.95-3.44,.49-.49,.49-1.48,.49-1.97v-8.37c-1.48,1.48-4.43,6.4-19.19,9.35-6.4,.98-12.79,1.48-19.19,1.48-11.81-.49-24.6-2.46-30.02-5.91-1.97-.98-3.44-1.97-4.92-3.44-.98-.98-1.48-1.97-2.46-2.95v9.84c0,1.97,1.48,3.94,2.95,5.41,6.4,3.94,13.78,6.4,21.16,6.89"/><path class="cls-1" d="M332.17,409.92l-35.43,28.05c-.49,.49-.98,.49-1.48,.49-.98-.49-.98-.98-.98-1.97v-14.27H147.63c-.49,0-1.48-.98-.98-1.48v-24.6c0-.98,.49-1.48,.98-1.48h146.15v-13.78c0-.98,0-1.48,.98-1.97,.49,0,.98,0,1.48,.49l35.43,27.07c.98,.49,.98,1.97,.49,2.95,.49,0,.49,.49,0,.49"/><path class="cls-1" d="M137.3,479.79l35.43,28.05c.49,.49,.98,.49,1.48,.49,.98,0,.98-.49,.98-1.48v-14.27h146.15c.49,0,1.48-.98,.98-1.48v-24.6c0-.98-.49-1.48-.98-1.48H175.68v-13.78c0-.98,0-1.48-.98-1.48-.49,0-.98,0-1.48,.49l-35.43,27.07c-.49,.49-.98,.98-.98,1.97,0-.49,0,0,.49,.49"/></g></svg>