<?xml version="1.0" encoding="UTF-8"?><svg id="Capa_1" xmlns="http://www.w3.org/2000/svg" viewBox="0 0 467 568.37"><defs><style>.cls-1{fill:#fff;}.cls-2{fill:#c88b0c;}</style></defs><path class="cls-2" d="M4.92,80.7H461.59V4.92H4.92V80.7Zm462.08,4.92H0V0H466.51V85.62h.49Z"/><polygon class="cls-2" points="16.73 17.72 38.88 17.72 38.88 24.6 32.48 24.6 32.48 67.91 23.62 67.91 23.62 24.6 16.73 24.6 16.73 17.72"/><path class="cls-2" d="M49.21,52.16h6.89l-3.44-20.18-3.44,20.18Zm-10.33,15.75l9.35-50.19h9.35l9.84,50.19h-8.86l-1.48-9.35h-8.86l-1.48,9.35h-7.87Z"/><path class="cls-2" d="M80.21,24.6v15.75h2.95c2.95,0,3.94-1.48,3.94-3.94v-7.38c0-2.95-1.48-3.94-3.94-3.94h-2.95v-.49Zm0,20.18v23.13h-8.37V17.72h12.3c8.37,0,11.81,4.43,11.81,11.32v6.4c0,5.41-1.97,8.37-6.89,9.84l7.87,22.64h-8.86l-7.87-23.13Z"/><path class="cls-2" d="M113.67,41.34h11.81v26.57h-5.91v-5.41c-.98,3.94-3.44,5.91-7.87,5.91-7.38,0-10.33-5.91-10.33-13.29V31c0-7.87,3.94-13.29,12.79-13.29,9.35,0,11.81,5.41,11.81,12.79v4.43h-7.87v-4.92c0-2.95-.98-4.92-4.43-4.92-2.95,0-4.43,1.97-4.43,4.92v27.07c0,2.95,1.48,4.92,3.94,4.92,2.95,0,3.94-1.48,3.94-4.92v-9.35h-3.94v-6.4h.49Z"/><polygon class="cls-2" points="132.37 17.72 152.55 17.72 152.55 24.6 140.74 24.6 140.74 38.88 149.11 38.88 149.11 45.77 140.74 45.77 140.74 61.02 152.55 61.02 152.55 67.91 132.37 67.91 132.37 17.72"/><polygon class="cls-2" points="156.49 17.72 178.63 17.72 178.63 24.6 171.74 24.6 171.74 67.91 163.38 67.91 163.38 24.6 156.49 24.6 156.49 17.72"/><polygon class="cls-2" points="369.56 17.72 369.56 67.91 361.2 67.91 361.2 29.53 355.29 35.43 355.29 27.07 362.68 17.72 369.56 17.72"/><path class="cls-2" d="M376.45,58.56c0-4.92,1.48-8.37,6.4-13.29l4.92-4.92c2.95-2.95,2.95-4.43,2.95-8.86v-3.44c0-2.95-1.48-3.94-2.95-3.94-1.97,0-3.44,.98-3.44,3.94v6.4h-7.87v-6.4c0-6.89,3.94-10.83,11.32-10.83s10.83,3.44,10.83,10.33v4.92c0,4.92-.98,7.87-5.41,12.79l-5.41,5.91c-1.97,2.46-3.44,3.94-3.44,7.87v2.46h13.78v6.89h-21.65v-9.84Z"/><path class="cls-2" d="M412.38,36.91c3.44,0,5.91,2.95,5.91,5.91,0,3.44-2.95,5.91-5.91,5.91-3.44,0-5.91-2.95-5.91-5.91-.49-2.95,2.46-5.91,5.91-5.91"/><path class="cls-2" d="M425.66,58.56c0-4.92,1.48-8.37,6.4-13.29l4.92-4.92c2.95-2.95,2.95-4.43,2.95-8.86v-3.44c0-2.95-1.48-3.94-2.95-3.94-1.97,0-3.44,.98-3.44,3.94v6.4h-7.87v-6.4c0-6.89,3.94-10.83,11.32-10.83s10.83,3.44,10.83,10.33v4.92c0,4.92-.98,7.87-5.41,12.79l-5.41,5.91c-1.97,2.46-3.44,3.94-3.44,7.87v2.46h13.78v6.89h-21.65v-9.84Z"/><g><rect class="cls-2" y="101.86" width="466.51" height="466.51"/><path class="cls-1" d="M172.73,270.65c1.48,0,3.44,.49,3.44,1.48,0,1.97-.49,3.94-1.48,5.91-2.46,2.46-5.91,3.94-9.35,4.43-.98,0-1.97-.49-2.46-1.48,2.95-3.44,5.91-6.89,9.35-10.33h.49Zm-14.27,17.72c1.97-1.48,4.43-2.46,7.38-2.46,2.46-.49,5.41,.98,5.41,2.46s-5.41,4.43-6.89,5.41c-2.95,2.95-7.87,8.86-10.83,9.35-.98,.49-1.48,.49-2.46,0,1.97-4.92,3.94-9.35,6.4-13.78l.98-.98Zm64.46,79.23c-.98,1.97-4.43,17.22-6.89,15.25-2.46-1.97,.98-17.72,1.48-18.7,3.44-6.4,11.32-6.4,5.41,3.44m36.91-18.21c-2.95,1.48-5.91,.98-8.86-.98-2.46-1.97,1.48-4.92,2.95-4.92,2.95,0,7.87,4.43,5.91,5.91m49.7,8.86c-2.95,1.48-5.91,.98-8.86-.98-2.46-1.97,1.48-4.92,2.95-4.92,2.95,0,7.87,3.94,5.91,5.91m-9.84-8.37c-.98-.49-1.97-1.48-2.46-3.44-.49-.98,0-2.46,.98-2.95,.49-.49,1.48,0,1.97,0,1.97,.98,3.44,2.95,4.43,5.41,0,1.48-3.94,.98-4.92,.98m-3.44,49.21c-4.92-2.46-4.43,1.48-6.89,.49-2.46-.98,2.95-6.4-4.43-1.97-7.38,4.43-5.41-.98-8.37-8.86-2.95-7.87,3.44-17.22,9.35-19.19,5.41-1.97,10.83-3.44,16.24-4.43,10.83-2.95,13.29-9.35,15.25-5.41,.49,.98,.98,1.48,.98,1.97,.49,1.48,.98,3.44,.98,4.92-4.43,12.3-11.81,23.62-21.16,32.97-.49,0-.98,0-1.97-.49m29.03-62.99c0,5.91-.49,11.81-1.97,17.72-2.95-1.97-11.81-14.76-3.94-23.62,1.48-1.48-2.95-5.91-1.48-5.91,2.95-.49,5.91,1.48,6.89,4.43,0,2.46,.49,4.92,.49,7.38m-101.37-90.05h1.97c2.95,0,5.41-.49,8.37-.49,42.81,0,79.72,30.02,89.07,71.85,0,.49,0,.98-.49,1.97-.98,2.95-4.43,4.43-7.87,3.44-1.48-.49-2.46-1.48-2.95-2.46-.98-1.48-4.92-4.92-4.43,1.48,.49,6.4,5.91,6.89,.49,10.83-2.95,1.97-5.91,3.44-9.35,3.94-3.44,2.46-4.92,6.89-4.43,10.83,.49,3.44,8.86,12.79,2.95,12.79-5.91-2.95-10.33-6.89-13.78-12.3-1.97-4.92-3.94-9.84-5.41-13.78-.98-2.95-3.94-4.43-6.89-3.44-.49,0-.98,.49-1.48,.98-3.44,1.97,.98,4.43-1.48,8.86-2.46,4.43-3.94,8.86-7.38,4.92-8.86-10.33-21.65-4.92-23.62-16.24-.98-5.91-6.4-5.41-10.83-8.86-4.43-3.44-6.89-5.41-7.38-2.95-.49,2.46,13.78,13.78,14.76,16.73,1.48,4.43-4.43,8.37-8.86,9.35-4.43,.98-5.91-2.46-10.33-6.89-4.43-4.43-5.91-7.38-6.4-3.94,.49,5.91,3.44,11.32,8.37,14.76,3.94,2.46,7.87,3.44,6.4,6.89-1.48,3.44,0,1.48-3.94,5.91-3.44,2.46-5.41,6.89-4.43,10.83,0,5.91-.98,5.91-1.97,10.83-.98,4.92-2.95,.49-4.43,7.38-.98,4.43-2.95,8.37-5.41,11.81-3.44,2.95-7.87,4.92-12.3,4.92-3.94-.49-4.92-11.32-4.92-16.73,0-1.97-2.95,3.94-3.94-7.87-.98-7.38-5.91,.98-5.91-4.43s-2.95-3.94-5.41-6.89c-2.46-2.95-5.91,.49-9.35,1.97-3.44,1.48-1.97,2.46-6.89,.98h-.49c-4.92-11.32-6.89-23.13-6.89-35.43,0-2.95,0-14.27,4.92-17.22,1.97-.98,3.94-1.48,5.91-1.48,4.92,.98,9.84,1.97,14.76,3.94,5.41,1.97,13.29,6.4,18.21,4.43,3.44-1.48,6.4-3.44,5.91-6.4-.49-2.95-3.44-4.43-6.89-1.97-1.48,.98-3.94-5.41-5.91-4.92-1.97,.49,2.46,7.38,.98,7.87-1.48,.49-5.41-7.38-5.91-8.86s-3.44-4.43-5.91-1.97c-5.41,4.92-13.29,2.95-16.24,3.94-5.91,2.46-6.4,.98-6.4-2.46,0-.98,0-1.97,.49-2.46,2.95-1.97,6.4-2.46,9.84-.98,2.46,1.48,3.94-.49,4.92-1.48,.98-.98,.49-2.46,0-3.94-.49-1.48,.98-1.97,2.46-2.46,2.46-1.48,4.43-2.46,6.89-3.94,4.43-1.48,9.35-1.48,13.78,0,2.95,1.48,6.89,.98,9.35-1.97,1.97-1.97,3.94-3.94,6.4-5.41,1.48-.49-3.44-4.92-6.89,0-3.44,4.92-5.41,4.92-7.38,4.92s-12.3-2.46-13.78-5.91c-1.48-3.44,3.44-5.91,7.38-7.38,5.41-1.48,11.32-1.97,17.22-2.46,5.41-.98,12.3-3.94,15.75-1.48,3.44,2.46-14.76,6.4-8.86,9.84,1.97,.98,11.81-5.41,15.25-7.38,7.87-3.94-7.38-5.41-5.41-13.29,2.46-9.35-18.7-5.41-29.03-4.92,9.84-6.4,21.16-10.83,32.97-12.79-.49-2.46,.98-2.46,2.46-2.95m61.02,165.84c-.98,.49-1.97,1.48-3.44,1.97-13.78,8.37-30.02,12.79-46.26,12.79-8.37,0-17.22-1.48-25.1-3.94-1.48-.98-1.97-2.95-.98-4.43,2.95-7.38,11.32-10.33,17.72-10.83,14.76-1.48,33.95,9.35,36.91,7.87,2.95-1.48,9.35-9.84,18.21-9.35,2.95,0,5.41,.49,7.87,1.97-1.48,.98-2.46,1.97-3.94,2.95l-.98,.98Zm-50.19-175.19c-55.11,0-99.9,44.29-99.9,99.4s44.29,99.9,99.4,99.9,99.9-44.29,99.9-99.4-44.29-99.9-99.4-99.9"/><path class="cls-1" d="M415.33,415.33h0l-18.21-9.84c4.92-11.32,8.37-23.62,10.83-35.92,11.32-62-10.83-125.48-59.05-166.33-1.48-1.48-3.94-.98-5.41,.49l-9.35,11.32c-.98,1.48-.98,3.44,.49,4.92,50.19,42.81,67.91,113.18,43.3,174.2l-20.67-11.32c-.49,0-2.46-.49-1.97,.98l1.48,22.64c.98,18.21,.98,17.72,1.48,27.07l.98,20.18c0,1.97,2.46,.49,2.46,.49l54.13-36.91c.98-.49,0-1.48-.49-1.97"/><path class="cls-1" d="M62,298.7l14.27,3.44c1.97,.49,3.94-.98,4.43-2.95,16.24-61.02,67.42-106.29,129.91-114.17v4.92l.49,20.18c0,1.97,2.46,.49,2.46,.49l55.61-35.43c1.97-.98,.98-1.97,.49-2.46h-.49l-57.58-33.95c-.49,0-2.46-.49-1.97,.98l.49,22.64c-72.83,8.37-132.37,60.53-151.07,131.39-.49,2.46,.98,4.43,2.95,4.92"/><path class="cls-1" d="M293.78,484.72c-.98-1.97-2.95-2.95-4.92-1.97-67.91,27.07-145.17,2.46-185.03-58.56l20.67-11.32c.49-.49,1.97-1.48,0-2.46l-19.68-10.83c-15.75-8.86-15.75-8.37-24.11-13.29l-17.72-9.84c-1.97-.98-1.97,1.97-1.97,1.97l2.46,65.45c0,1.97,.98,1.97,1.97,1.48l.49-.49,18.21-9.84c45.77,70.86,134.83,99.4,213.08,68.4,1.97-.98,2.95-2.95,1.97-4.92l-5.41-13.78Z"/></g></svg>