<?xml version="1.0" encoding="UTF-8"?><svg id="Capa_1" xmlns="http://www.w3.org/2000/svg" viewBox="0 0 467 568.37"><defs><style>.cls-1{fill:#fff;}.cls-2{fill:#b11546;}</style></defs><path class="cls-2" d="M4.92,80.7H461.59V4.92H4.92V80.7Zm462.08,4.92H0V0H466.51V85.62h.49Z"/><polygon class="cls-2" points="16.73 17.72 38.88 17.72 38.88 24.6 32.48 24.6 32.48 67.91 23.62 67.91 23.62 24.6 16.73 24.6 16.73 17.72"/><path class="cls-2" d="M49.21,52.16h6.89l-3.44-20.18-3.44,20.18Zm-10.33,15.75l9.35-50.19h9.35l9.84,50.19h-8.86l-1.48-9.35h-8.86l-1.48,9.35h-7.87Z"/><path class="cls-2" d="M80.21,24.6v15.75h2.95c2.95,0,3.94-1.48,3.94-3.94v-7.38c0-2.95-1.48-3.94-3.94-3.94h-2.95v-.49Zm0,20.18v23.13h-8.37V17.72h12.3c8.37,0,11.81,4.43,11.81,11.32v6.4c0,5.41-1.97,8.37-6.89,9.84l7.87,22.64h-8.86l-7.87-23.13Z"/><path class="cls-2" d="M113.67,41.34h11.81v26.57h-5.91v-5.41c-.98,3.94-3.44,5.91-7.87,5.91-7.38,0-10.33-5.91-10.33-13.29V31c0-7.87,3.94-13.29,12.79-13.29,9.35,0,11.81,5.41,11.81,12.79v4.43h-7.87v-4.92c0-2.95-.98-4.92-4.43-4.92-2.95,0-4.43,1.97-4.43,4.92v27.07c0,2.95,1.48,4.92,3.94,4.92,2.95,0,3.94-1.48,3.94-4.92v-9.35h-3.94v-6.4h.49Z"/><polygon class="cls-2" points="132.37 17.72 152.55 17.72 152.55 24.6 140.74 24.6 140.74 38.88 149.11 38.88 149.11 45.77 140.74 45.77 140.74 61.02 152.55 61.02 152.55 67.91 132.37 67.91 132.37 17.72"/><polygon class="cls-2" points="156.49 17.72 178.63 17.72 178.63 24.6 171.74 24.6 171.74 67.91 163.38 67.91 163.38 24.6 156.49 24.6 156.49 17.72"/><path class="cls-2" d="M389.25,32.48v-3.44c0-2.95-.98-4.92-3.94-4.92s-3.94,1.97-3.94,4.92v3.44c0,2.95,.98,4.92,3.94,4.92,2.95-.49,3.94-1.97,3.94-4.92m.49,24.11v-7.87c0-2.95-.98-4.92-3.94-4.92s-3.94,1.97-3.94,4.92v7.87c0,2.95,.98,4.92,3.94,4.92s3.94-1.97,3.94-4.92m-16.73-.98v-5.41c0-4.92,1.48-8.37,5.41-9.84-3.44-1.48-4.92-4.43-4.92-8.86v-1.97c0-7.87,3.94-11.81,11.81-11.81s11.81,4.43,11.81,11.81v1.97c0,3.94-1.48,6.89-4.92,8.86,3.94,1.97,5.41,5.41,5.41,9.84v5.41c0,7.38-3.44,12.79-12.3,12.79-8.37,0-12.3-4.92-12.3-12.79"/><path class="cls-2" d="M412.38,36.91c3.44,0,5.91,2.95,5.91,5.91,0,3.44-2.95,5.91-5.91,5.91-3.44,0-5.91-2.95-5.91-5.91-.49-2.95,2.46-5.91,5.91-5.91"/><path class="cls-2" d="M425.66,58.56c0-4.92,1.48-8.37,6.4-13.29l4.92-4.92c2.95-2.95,2.95-4.43,2.95-8.86v-3.44c0-2.95-1.48-3.94-2.95-3.94-1.97,0-3.44,.98-3.44,3.94v6.4h-7.87v-6.4c0-6.89,3.94-10.83,11.32-10.83s10.83,3.44,10.83,10.33v4.92c0,4.92-.98,7.87-5.41,12.79l-5.41,5.91c-1.97,2.46-3.44,3.94-3.44,7.87v2.46h13.78v6.89h-21.65v-9.84Z"/><g><rect class="cls-2" y="101.86" width="466.51" height="466.51"/><polygon class="cls-1" points="402.54 492.1 353.33 492.59 353.33 475.37 345.94 475.37 345.94 492.59 283.94 492.59 283.94 475.37 276.56 475.37 276.56 492.59 214.06 492.59 214.06 475.86 206.68 475.86 206.68 492.59 144.18 492.59 144.18 475.86 136.8 475.86 136.8 492.59 75.78 492.59 75.78 435.01 91.04 435.01 91.04 427.63 75.78 427.63 75.78 365.14 91.04 365.14 91.04 357.75 75.78 357.75 75.29 295.75 91.04 295.26 91.04 287.88 75.29 288.37 75.29 225.87 91.04 225.87 91.04 218.49 75.29 218.49 75.29 167.31 64.46 167.31 64.96 503.42 66.43 503.42 400.07 502.92 402.54 502.92 402.54 492.1"/><path class="cls-1" d="M174.69,278.03c-7.38,0-13.78-5.91-13.78-13.78s5.91-13.78,13.78-13.78c7.38,0,13.29,5.91,13.78,13.29-.49,7.87-6.4,14.27-13.78,14.27m47.73,15.75c11.32,0,20.18,8.86,20.18,20.18s-8.86,20.18-20.18,20.18-20.18-8.86-20.18-20.18,8.86-19.68,20.18-20.18m69.39-5.41c4.92,0,8.86,3.94,8.86,8.86s-3.94,8.86-8.86,8.86-8.86-3.94-8.86-8.86c-.49-4.43,3.94-8.86,8.86-8.86m63.48,94.48c4.92,0,8.86,3.94,8.86,8.86s-3.94,8.86-8.86,8.86-8.86-3.94-8.86-8.86,3.94-8.86,8.86-8.86m-230.3,31.99l77.75-78.24c11.32,10.33,28.54,9.84,39.86-.49l41.83,39.86-44.78,45.77-42.81-43.3-52.16,53.15,12.3,11.81,39.86-40.35,42.81,43.3,57.58-58.07,34.94,33.46,13.29-14.27c8.86,4.92,20.18,1.97,25.59-6.89,4.92-8.86,1.97-20.18-6.89-25.59-8.86-5.41-20.18-1.97-25.59,6.89-1.48,2.95-2.46,5.91-2.46,9.35,0,2.95,.98,6.4,2.46,8.86l-6.89,7.38-28.05-26.57,33.46-33.95,1.48,1.97,8.37,8.37,.49,.49c.49,.49,1.48,.49,1.97,0,0,0,.49-.49,.49-.98v-.49l4.92-37.4v-.49c0-.49,0-.98-.49-.98q-.49-.49-.98-.49h-.49l-36.91,4.92q-.49,0-.98,.49c-.49,.49-.49,1.48,0,1.97l.49,.49,7.87,8.37,1.97,1.97-33.95,34.45-42.81-40.84c2.46-4.43,3.44-9.35,3.44-14.27,0-7.38-2.46-14.27-7.38-19.68l16.24-16.73,12.79,12.3c-.98,2.46-1.48,4.92-1.48,7.38,0,10.33,8.37,18.7,18.7,18.7s18.7-8.37,18.7-18.7-8.37-18.7-18.7-18.7c-3.94,0-7.87,1.48-11.32,3.94l-12.3-11.81,73.32-73.32,3.44,3.44,6.89,6.89h.49c.49,.49,.98,.49,1.48,0l.49-.49v-.49l4.43-31.49q0-.49-.49-.98s-.49-.49-.98-.49h-.49l-31,3.94q-.49,0-.98,.49c-.49,.49-.49,.98,0,1.48l.49,.49,6.89,6.89,2.95,2.95-96.94,97.44c-9.35-5.41-21.16-5.41-30.51,.49l-12.3-11.81c4.43-7.38,4.43-16.24,0-23.62l16.24-16.73,2.95,2.95,6.89,6.89c.49,.49,.98,.49,1.48,0l.49-.49,3.94-31.49v-.49q0-.49-.49-.98s-.49-.49-.98-.49l-31,3.94q-.49,0-.98,.49c-.49,.49-.49,.98,0,1.48l.49,.49,6.89,6.89,3.44,3.44-15.75,16.24c-10.33-7.38-25.1-4.92-32.48,5.41-7.38,10.33-4.92,25.1,5.41,32.48,3.94,2.95,8.86,4.43,13.29,4.43,4.92,0,9.35-1.48,13.29-3.94l11.81,11.32c-7.87,9.84-9.35,23.13-2.95,33.95l-78.24,78.74,6.89,7.38Z"/></g></svg>