<?xml version="1.0" encoding="UTF-8"?><svg id="Capa_1" xmlns="http://www.w3.org/2000/svg" viewBox="0 0 467 568.37"><defs><style>.cls-1{fill:#010101;}.cls-2{fill:#00b3dc;}.cls-3{fill:#006573;}.cls-4{fill:#fff;}</style></defs><path class="cls-2" d="M4.92,80.71H461.59V4.92H4.92V80.71Zm462.08,4.92H0V0H466.51V85.63h.5Z"/><polygon class="cls-2" points="16.73 17.72 38.88 17.72 38.88 24.61 32.48 24.61 32.48 67.91 23.62 67.91 23.62 24.61 16.73 24.61 16.73 17.72"/><path class="cls-2" d="M49.21,52.16h6.89l-3.44-20.18-3.45,20.18Zm-10.33,15.75l9.35-50.19h9.35l9.84,50.19h-8.86l-1.48-9.35h-8.86l-1.48,9.35h-7.87Z"/><path class="cls-2" d="M80.21,24.61v15.75h2.95c2.95,0,3.94-1.48,3.94-3.94v-7.38c0-2.95-1.48-3.94-3.94-3.94h-2.95v-.49Zm0,20.18v23.13h-8.37V17.72h12.3c8.37,0,11.81,4.43,11.81,11.32v6.4c0,5.41-1.97,8.37-6.89,9.84l7.87,22.64h-8.86l-7.87-23.13Z"/><path class="cls-2" d="M113.68,41.34h11.81v26.57h-5.91v-5.41c-.98,3.93-3.44,5.91-7.87,5.91-7.38,0-10.33-5.91-10.33-13.29V31.01c0-7.87,3.94-13.29,12.79-13.29,9.35,0,11.81,5.41,11.81,12.79v4.43h-7.87v-4.92c0-2.96-.98-4.92-4.43-4.92-2.95,0-4.43,1.97-4.43,4.92v27.07c0,2.95,1.48,4.92,3.94,4.92,2.95,0,3.94-1.48,3.94-4.92v-9.35h-3.94v-6.4h.49Z"/><polygon class="cls-2" points="132.38 17.72 152.55 17.72 152.55 24.61 140.74 24.61 140.74 38.88 149.11 38.88 149.11 45.77 140.74 45.77 140.74 61.02 152.55 61.02 152.55 67.91 132.38 67.91 132.38 17.72"/><polygon class="cls-2" points="156.49 17.72 178.63 17.72 178.63 24.61 171.74 24.61 171.74 67.91 163.38 67.91 163.38 24.61 156.49 24.61 156.49 17.72"/><path class="cls-2" d="M388.76,56.59v-8.86c0-3.44-.98-4.92-3.94-4.92-2.46,0-3.93,1.97-3.93,4.43v9.35c0,2.95,.98,4.92,3.93,4.92,2.46,0,3.94-1.48,3.94-4.92m-16.73-1.48V30.51c0-7.87,3.44-13.29,12.3-13.29,9.35,0,11.81,5.41,11.81,12.79v2.46h-7.87v-3.44c0-2.95-.99-4.92-3.94-4.92s-3.94,1.97-3.94,4.92v10.83c1.48-2.46,3.44-3.94,6.89-3.94,5.91,0,9.35,3.94,9.35,12.3v7.38c0,7.87-3.44,12.79-12.3,12.79s-12.3-5.41-12.3-13.29"/><path class="cls-2" d="M410.9,36.91c3.44,0,5.91,2.95,5.91,5.91,0,3.45-2.95,5.91-5.91,5.91-3.44,0-5.91-2.95-5.91-5.91s2.46-5.91,5.91-5.91"/><path class="cls-2" d="M447.81,28.54v4.43c0,4.43-2.46,6.89-5.91,8.37,4.43,.98,6.4,3.94,6.4,8.37v7.38c0,6.89-3.94,11.32-12.3,11.32s-11.81-4.92-11.81-12.3v-6.4h7.87v7.38c0,2.95,.98,4.92,3.94,4.92,2.46,0,3.94-1.97,3.94-4.43v-8.37c0-2.46-.99-3.93-3.94-3.93h-3.44v-6.4h2.95c2.96,0,4.43-1.48,4.43-3.94v-5.91c0-2.95-.99-4.43-3.45-4.43s-3.44,1.97-3.44,4.92v4.92h-7.87v-4.43c0-7.38,2.95-12.8,11.81-12.8,7.38,0,10.83,4.43,10.83,11.32"/><g><rect class="cls-2" x="0" y="101.87" width="466.51" height="466.51"/><polygon class="cls-3" points="143.69 360.71 136.31 403.03 166.82 418.28 201.76 401.06 143.69 360.71"/><polygon class="cls-1" points="154.03 385.31 151.08 402.53 162.39 391.22 154.03 385.31"/><polygon class="cls-1" points="177.16 401.55 149.6 429.11 165.35 436.49 190.93 410.9 177.16 401.55"/><path class="cls-1" d="M203.24,345.95c2.46,.98,3.44,3.44,2.46,5.91s-3.44,3.44-5.91,2.46c-2.46-.98-3.44-3.44-2.46-5.91,.98-2.46,3.94-3.44,5.91-2.46"/><path class="cls-1" d="M176.67,350.38c2.46,.98,3.44,3.44,2.46,5.91s-3.94,3.44-5.91,2.46c-2.46-.98-3.45-3.44-2.46-5.91,.98-2.46,3.44-3.44,5.91-2.46"/><path class="cls-1" d="M218,377.44c2.46,.98,3.44,3.94,1.97,6.4-.98,1.97-3.44,2.95-5.41,2.46-2.46-.98-3.94-3.44-2.95-5.91,.98-2.46,3.44-3.94,5.91-2.95h.49"/><path class="cls-1" d="M208.16,432.56c2.46,.98,3.44,3.44,2.46,5.91s-3.44,3.44-5.91,2.46c-2.46-.98-3.44-3.44-2.46-5.91,.98-2.46,3.44-3.44,5.91-2.46"/><path class="cls-1" d="M133.36,421.73c2.46,.98,3.44,3.44,2.46,5.91s-3.44,3.45-5.91,2.46c-2.46-.98-3.44-3.44-2.46-5.91,.98-2.46,3.94-3.44,5.91-2.46"/><path class="cls-1" d="M128.93,362.18c2.46,.98,3.44,3.44,2.46,5.91-.98,2.46-3.44,3.44-5.91,2.46-2.46-.98-3.44-3.44-2.46-5.91,.98-1.97,3.44-3.44,5.91-2.46"/><path class="cls-1" d="M147.14,336.6c2.46,.98,3.44,3.44,2.46,5.91s-3.44,3.44-5.91,2.46c-2.46-.98-3.45-3.44-2.95-5.91,1.48-2.46,3.94-3.44,6.4-2.46"/><path class="cls-1" d="M117.61,335.12c2.46,.98,3.44,3.44,2.46,5.91-.49,2.46-2.95,3.94-5.41,3.94-2.46-.49-3.94-2.95-3.94-5.41,0-.49,.5-1.48,.99-1.97,.98-2.46,3.44-3.44,5.91-2.46"/><path class="cls-1" d="M176.67,463.56c2.46,.98,3.44,3.44,2.46,5.91-.49,2.46-3.44,3.94-5.91,2.95-2.46-.49-3.94-3.45-2.95-5.91q0-.49,.49-.49c.98-1.97,3.44-3.44,5.91-2.46"/><path class="cls-1" d="M155.01,485.7c2.46,.98,3.44,3.44,2.46,5.91s-3.44,3.45-5.91,2.46c-2.46-.98-3.44-3.44-2.46-5.91,.98-2.46,3.44-3.44,5.91-2.46"/><path class="cls-1" d="M142.71,457.16c2.46,.98,3.44,3.94,1.97,6.4-.99,1.97-3.45,2.95-5.42,2.46-2.46-.99-3.44-3.94-1.97-6.4,.98-1.97,3.44-3.44,5.41-2.46"/><path class="cls-1" d="M203.24,475.37c2.46,.98,3.44,3.44,2.46,5.9-.98,2.46-3.44,3.44-5.91,2.46-2.46-.98-3.44-3.44-2.46-5.9,.98-2.46,3.94-3.44,5.91-2.46"/><path class="cls-1" d="M122.54,246.54h1.97l.98,.98c7.88,6.89,48.23,36.42,87.1,1.97l.98-.98c.49-.49,.49-.98,.49-.98v-19.68c0-.98-.98-1.97-1.97-1.97h-.5l-.98,.49c-11.81,8.37-50.69,31.99-86.12-.98l-.49-.49c-.49-.49-.99-.49-1.48-.49s-.98,0-1.48,.49l-.5,.49c-11.32,11.81-27.55,17.72-43.79,16.73l3.94,23.13c14.76-2.46,28.54-8.37,40.35-18.21l1.48-.49Z"/><path class="cls-1" d="M122.54,290.34h1.97l.98,.98c8.37,6.89,48.72,36.91,87.6,1.97l.98-.98c.5-.5,.5-.99,.5-.99v-19.19c0-.98-.98-1.97-1.97-1.97h-.49l-.98,.49c-11.81,8.37-50.69,31.99-86.12-.98l-.49-.49c-.49-.49-.98-.49-1.48-.49s-.98,0-1.47,.49l-.49,.49c-9.84,9.84-22.64,15.26-36.42,16.73l3.93,21.65c12.3-2.95,23.62-8.86,32.97-16.73l.98-.98Z"/><path class="cls-4" d="M329.22,364.15c-.98,0-1.97,0-2.96,.49-3.44,1.48-4.92,5.41-3.44,9.35,1.48,3.44,5.41,4.92,9.35,3.44,3.45-1.48,4.92-5.41,3.45-8.86-.49-1.48-1.97-2.95-3.94-3.94-.5-.49-1.48-.49-2.46-.49m0,16.24c-.98,0-2.46,0-3.44-.49-2.46-.98-3.94-2.46-5.41-4.92-1.97-4.92,.49-10.33,4.92-12.3,2.46-.98,4.92-.98,7.38,0,1.97,.98,3.94,2.95,4.92,4.92,.98,2.46,.98,4.92,0,6.89-.98,3.94-4.43,5.91-8.37,5.91"/><path class="cls-4" d="M277.05,430.09c-.98,0-1.97,0-2.46,.49-3.44,1.47-5.41,5.42-3.94,8.85,.5,1.48,1.97,2.96,3.94,3.94,3.44,1.47,7.38,0,8.86-3.94,.49-1.47,.49-3.44,0-5.41-.5-1.48-1.97-2.95-3.94-3.94h-2.46Zm0,16.24c-.98,0-2.46,0-3.44-.49-4.92-1.97-7.38-7.38-5.42-12.3,1.97-4.92,7.38-7.38,12.3-5.42,1.97,.98,3.94,2.96,4.92,4.92,.99,2.46,.99,4.92,0,6.89-1.47,3.94-4.92,6.4-8.37,6.4"/><path class="cls-4" d="M272.13,346.93c-.49,0-.98,0-1.48,.49-1.47,.49-1.97,2.46-1.47,3.94,.49,1.97,2.46,2.46,4.43,1.97,1.97-.49,2.46-2.46,1.97-4.43-.49-.98-.98-1.48-1.97-1.97h-1.48Zm0,8.86c-.98,0-1.48,0-1.97-.49-1.48-.49-2.46-1.97-3.44-2.95-.49-1.48-.49-2.95,0-4.43,.49-1.48,1.47-2.46,2.95-2.95,1.48-.49,2.96-.49,4.43,0,2.95,.98,4.43,4.43,3.44,7.38-.5,2.46-2.96,3.94-5.42,3.44"/><path class="cls-4" d="M286.4,384.33c-.49,0-.98,0-1.48,.49-.98,.49-1.47,.98-1.97,1.97-.49,.98-.49,1.97,0,2.46,.5,.98,.98,1.48,1.97,1.97,1.97,.5,3.94,0,4.43-1.97,.5-.98,.5-1.97,0-2.46-.49-.98-.98-1.48-1.97-1.97,0-.49-.5-.49-.98-.49m0,8.86c-.49,0-1.48,0-1.97-.49-2.95-.98-4.43-4.43-3.44-7.38,1.47-2.95,4.43-4.43,7.38-2.95,1.47,.49,2.46,1.47,3.44,2.95,.99,2.95,0,6.4-3.44,7.87,0,0-.99,.49-1.97,0"/><path class="cls-4" d="M321.34,463.07c-.49,0-.98,0-1.48,.49-.98,.49-1.47,.99-1.97,1.97-.5,.98-.5,1.97,0,2.46,.49,.98,.98,1.48,1.97,1.97,1.97,.5,3.45,0,4.43-1.97,.98-1.97,0-3.44-1.97-4.43q-.49,0-.98-.49m0,9.35c-.49,0-1.48,0-1.97-.49-1.48-.5-2.46-1.48-3.44-2.96-.49-1.48-.49-2.95,0-4.43,.98-2.96,4.43-4.43,7.38-3.45,2.95,.99,4.43,4.43,3.44,7.38-.98,2.46-3.44,3.94-5.42,3.94"/><path class="cls-4" d="M239.16,409.43h-8.37v-23.13h8.37v23.13Zm0,43.8h-8.37v-23.13h8.37v23.13Zm0,43.3h-8.37v-23.13h8.37v23.13Z"/><path class="cls-4" d="M239.16,323.31h-8.37v-23.13h8.37v23.13Zm0,43.3h-8.37v-23.62h8.37v23.62Z"/><path class="cls-4" d="M239.16,193.89h-8.37v-23.13h8.37v23.13Zm0,43.8h-8.37v-23.13h8.37v23.13Zm0,43.3h-8.37v-23.13h8.37v23.13Z"/><path class="cls-4" d="M399.09,242.11l-3.94,24.11c-2.46,0-5.41-.49-7.87-.49l-3.44,21.16c2.46,.5,5.42,.5,7.88,0l-3.44,22.64c-2.46-.5-5.42-.99-7.88-1.48l-31.99,199.79H123.52l-34.94-199.3-3.94-21.65-3.44-20.67-3.94-23.62-14.27-80.21H403.52l-12.79,80.21c2.95,0,5.41,0,8.37-.49m19.68-94.48c-.98-.98-1.97-1.48-3.44-1.48H51.18c-1.48,0-2.46,.49-3.45,1.48-.98,.98-.98,2.46-.98,3.44l61.02,370.06c.49,1.97,1.97,3.44,4.43,3.44h246.05c1.97,0,3.94-1.48,3.94-3.44l57.57-370.06c0-.98-.49-2.46-.98-3.44"/><path class="cls-4" d="M348.9,225.38c-.5-.49-.98-.49-1.48-.49s-.98,0-1.48,.49l-.49,.49c-34.45,31.99-72.83,9.84-85.13,.98l-.98-.49c-.49,0-.49-.49-.99-.49-.98,0-1.47,.49-1.97,1.48v19.19c0,.49,0,.98,.49,.98,39.37,36.42,80.21,6.4,89.07-.98l.98-.98h1.97l.98,.98c10.82,9.35,24.11,15.75,38.38,18.21,2.46,.49,5.41,.49,7.87,.49l3.94-24.11c-2.46,.49-5.41,.49-7.87,.49-15.75,0-30.51-5.91-41.34-16.73l-1.97,.49Z"/><path class="cls-4" d="M348.9,269.18c-.5-.49-.98-.49-1.48-.49s-.98,0-1.48,.49l-.49,.49c-34.45,31.99-72.83,9.84-85.13,.98l-.98-.49c-.49,0-.49-.49-.99,0-.98,0-1.47,.49-1.97,1.48v19.19c0,.49,0,.98,.49,.98,39.37,36.42,80.21,6.4,89.07-.98l.98-.98h1.97l.98,.98c9.35,7.38,20.18,13.29,31.49,16.24,2.46,.49,5.42,.98,7.88,1.48l3.94-22.64h-7.88c-12.79-1.48-25.09-7.38-34.45-16.73h-1.97Z"/></g></svg>