<?xml version="1.0" encoding="UTF-8"?><svg id="Capa_1" xmlns="http://www.w3.org/2000/svg" xmlns:xlink="http://www.w3.org/1999/xlink" viewBox="0 0 467 568.37"><defs><style>.cls-1{fill:none;}.cls-2{clip-path:url(#clippath);}.cls-3{fill:#010101;}.cls-4{fill:#fff;}.cls-5{fill:#285c29;}.cls-6{fill:#24a038;}.cls-7{fill:#264620;}.cls-8{fill:#267933;}</style><clipPath id="clippath"><path class="cls-1" d="M243.37,220.61c.78,2.6,1.2,5.36,1.2,8.21,0,2.46-.3,4.85-.85,7.12,11.21,4,19.06,14.61,19.06,27.32,0,11.9-6.87,21.95-16.93,26.47,8.82,8.29,20.67,13.39,33.66,13.39,6.09,0,11.93-1.12,17.33-3.17-.39-1.83-.6-3.73-.6-5.69,0-14.76,11.81-26.57,26.58-26.57,.29,0,.57-.01,.86-.01,1.02,0,2.03,.06,3.02,.18,1.32-4.43,2.03-9.11,2.03-13.94,0-27.07-22.14-49.21-49.21-49.21-14.25,0-27.13,6.14-36.14,15.9"/></clipPath></defs><path class="cls-6" d="M4.92,80.71H461.59V4.92H4.92V80.71Zm462.08,4.92H0V0H466.51V85.63h.5Z"/><polygon class="cls-6" points="16.73 17.72 38.88 17.72 38.88 24.61 32.48 24.61 32.48 67.91 23.62 67.91 23.62 24.61 16.73 24.61 16.73 17.72"/><path class="cls-6" d="M49.21,52.16h6.89l-3.44-20.18-3.45,20.18Zm-10.33,15.75l9.35-50.19h9.35l9.84,50.19h-8.86l-1.48-9.35h-8.86l-1.48,9.35h-7.87Z"/><path class="cls-6" d="M80.21,24.61v15.75h2.95c2.95,0,3.94-1.48,3.94-3.94v-7.38c0-2.95-1.48-3.94-3.94-3.94h-2.95v-.49Zm0,20.67v23.13h-8.37V17.72h12.3c8.37,0,11.81,4.43,11.81,11.32v6.4c0,5.41-1.97,8.37-6.89,9.84l7.87,22.64h-8.86l-7.87-22.64Z"/><path class="cls-6" d="M113.68,41.34h11.81v26.57h-5.91v-5.41c-.98,3.93-3.44,5.91-7.87,5.91-7.38,0-10.33-5.91-10.33-13.29V31.01c0-7.87,3.94-13.29,12.79-13.29,9.35,0,11.81,5.42,11.81,12.8v4.43h-7.87v-4.92c0-2.95-.98-4.92-4.43-4.92-2.95,0-4.43,1.97-4.43,4.92v27.07c0,2.96,1.48,4.92,3.94,4.92,2.95,0,3.94-1.47,3.94-4.92v-9.35h-3.94v-6.4h.49Z"/><polygon class="cls-6" points="132.38 17.72 152.55 17.72 152.55 24.61 140.74 24.61 140.74 38.88 149.11 38.88 149.11 45.77 140.74 45.77 140.74 61.02 152.55 61.02 152.55 67.91 132.38 67.91 132.38 17.72"/><polygon class="cls-6" points="156.49 17.72 178.63 17.72 178.63 24.61 171.74 24.61 171.74 67.91 163.38 67.91 163.38 24.61 156.49 24.61 156.49 17.72"/><path class="cls-6" d="M394.66,29.04v3.94c0,4.43-2.46,6.89-5.91,8.37,4.43,.98,6.39,3.94,6.39,8.36v7.38c0,6.89-3.93,11.32-12.3,11.32s-11.81-4.92-11.81-12.3v-6.4h7.87v7.38c0,2.96,.98,4.92,3.93,4.92,2.46,0,3.94-1.97,3.94-4.43v-8.37c0-2.46-.99-3.93-3.94-3.93h-3.44v-6.4h2.95c2.95,0,4.43-1.48,4.43-3.94v-5.9c0-2.95-.99-4.43-3.45-4.43s-3.44,1.97-3.44,4.92v4.92h-7.87v-4.43c0-7.38,2.95-12.79,11.81-12.79,7.38,0,10.83,4.43,10.83,11.81"/><path class="cls-6" d="M408.94,36.91c3.44,0,5.9,2.95,5.9,5.91,0,3.45-2.95,5.91-5.9,5.91-3.44,0-5.91-2.95-5.91-5.91s2.46-5.91,5.91-5.91"/><path class="cls-6" d="M439.94,56.59v-8.86c0-3.44-.99-4.92-3.94-4.92-2.46,0-3.94,1.97-3.94,4.43v9.35c0,2.95,.98,4.92,3.94,4.92,2.46,0,3.94-1.48,3.94-4.92m-16.73-1.48V30.51c0-7.87,3.44-13.29,12.3-13.29,9.35,0,11.81,5.41,11.81,12.79v2.46h-7.88v-3.44c0-2.95-.98-4.92-3.94-4.92s-3.94,1.97-3.94,4.92v10.83c1.48-2.46,3.45-3.94,6.89-3.94,5.9,0,9.35,3.94,9.35,12.3v7.38c0,7.87-3.44,12.79-12.3,12.79s-12.3-5.41-12.3-13.29"/><g><rect class="cls-6" x="0" y="101.87" width="466.51" height="466.51"/><g class="cls-2"><rect class="cls-8" x="243.37" y="204.71" width="85.35" height="98.42"/></g><path class="cls-8" d="M230.3,254.02c-4.2,2.45-9.07,3.84-14.27,3.84-3.69,0-7.2-.66-10.43-1.87-.58,2.32-.89,4.76-.89,7.28,0,16.24,12.79,29.04,29.03,29.04,4.34,0,8.44-.91,12.11-2.57-9.54-8.97-15.53-21.68-15.55-35.73"/><path class="cls-5" d="M243.72,235.95c-1.89,7.76-6.82,14.22-13.42,18.07,.03,14.04,6.02,26.75,15.55,35.73,10.06-4.52,16.93-14.57,16.93-26.47,0-12.72-7.85-23.33-19.06-27.33"/><path class="cls-8" d="M216.03,200.29h-.49c-15.75,0-28.54,12.79-28.54,29.03,0,12.17,7.64,22.58,18.61,26.67,3.16-12.63,14.42-21.75,28.14-21.75,.23,0,.46,0,.69,0,2.22-5.03,5.25-9.64,8.94-13.63-3.53-11.75-14.45-20.33-27.34-20.33"/><path class="cls-5" d="M243.37,220.61c-3.69,4-6.72,8.6-8.94,13.63,3.27,.07,6.39,.66,9.29,1.7,.55-2.27,.85-4.66,.85-7.12,0-2.85-.42-5.61-1.2-8.22"/><path class="cls-5" d="M233.75,234.24c-13.72,0-24.98,9.13-28.14,21.75,3.22,1.21,6.74,1.87,10.43,1.87,5.19,0,10.07-1.39,14.27-3.84v-.1c0-6.98,1.48-13.64,4.13-19.68-.23,0-.46,0-.69,0"/><path class="cls-7" d="M234.43,234.25c-2.65,6.03-4.13,12.69-4.13,19.68v.09c6.59-3.85,11.52-10.31,13.42-18.07-2.9-1.04-6.02-1.63-9.29-1.7"/><path class="cls-8" d="M326.7,267.87c-4.39,14.76-15.56,26.67-29.85,32.09,2.58,11.99,13.17,20.89,25.98,20.89,14.76,0,26.57-11.81,26.57-26.57,0-13.45-9.79-24.85-22.69-26.41"/><path class="cls-5" d="M323.68,267.69c-.28,0-.57,0-.86,.02-14.76,0-26.58,11.81-26.58,26.57,0,1.95,.21,3.85,.6,5.68,14.3-5.42,25.46-17.33,29.85-32.09-.99-.12-2-.18-3.02-.18"/><path class="cls-3" d="M304.11,343.98c7.38,3.93,10.83,13.29,6.89,20.67-3.94,7.38-13.29,10.82-20.67,6.89-7.38-3.94-10.83-13.29-6.89-20.67,3.44-7.38,12.79-10.83,20.66-6.89m-20.17,39.86c14.27,7.38,31.99,1.48,39.37-13.29,7.38-14.27,1.48-31.99-13.29-39.37-14.27-7.38-31.99-1.48-39.37,12.8-6.89,15.25-.99,32.97,13.29,39.86"/><path class="cls-3" d="M173.22,278.53c7.38,3.94,10.83,13.29,6.89,20.67-3.94,7.38-13.29,10.83-20.67,6.89-7.38-3.94-10.83-13.29-6.89-20.67,3.44-7.87,12.79-10.83,20.67-6.89q0-.49,0,0m-20.18,39.86c14.27,7.38,31.99,1.48,39.37-13.29,7.38-14.27,1.48-31.99-13.29-39.37-14.27-7.38-31.99-1.48-39.37,12.79-6.89,14.76-1.48,32.48,13.29,39.86"/><path class="cls-3" d="M141.23,333.64l48.22,24.11-12.79,25.09c-18.21-9.84-31.99-27.07-36.91-47.24-.98-2.95,1.48-1.97,1.48-1.97m105.8,53.15c1.97,.98-.99,1.97-.99,1.97-3.93,1.97-27.55,13.78-61.51-1.97l12.8-25.1,49.7,25.1Zm-144.18-77.75c2.95,2.46,5.91,5.41,8.37,8.86,0,0,.98,1.48,1.97,3.94,5.91,13.29,12.3,25.59,19.19,37.89,9.35,14.76,23.13,26.08,38.88,33.46,15.25,8.37,32.48,13.29,49.7,14.27,13.78,.5,33.95-9.35,35.43-9.35s1.48,0,4.92,.99c3.44,.98,43.79,15.74,63.48,11.81,4.43-1.48,7.88-3.45,11.32-6.4,1.97-1.97,3.44-4.43,4.43-6.4,1.97-3.44,7.87-15.75,7.87-15.75,0,0,1.97-4.43-.49-5.91l-17.72-8.86h-.98l-2.46,5.41c-9.84,15.75-30.02,20.67-45.77,10.83-13.78-8.37-19.19-25.59-13.29-40.84l2.46-4.92v-.49l-.98-1.48-.49-.49-68.4-34.45-.49-.49c-.5-.49-1.48,0-1.48,.49l-.49,.49-2.46,4.92v.49c-9.84,15.75-30.02,20.18-45.77,10.33-13.78-8.37-19.19-25.59-13.29-40.35,0-.49,.49-.98,.49-1.48l1.48-2.95,.49-.98c.49-.49,0-1.48-.49-1.48l-.5-.49-10.82-5.41c-3.44-1.48-9.84-2.46-14.27,6.4l-12.3,24.6c-2.95,4.92-1.97,10.83,2.46,13.78"/><polygon class="cls-3" points="338.56 356.28 363.17 332.66 370.06 344.96 338.56 356.28"/><path class="cls-3" d="M342.5,333.15c1.36,0,2.46,1.1,2.46,2.46s-1.1,2.46-2.46,2.46-2.46-1.1-2.46-2.46,1.1-2.46,2.46-2.46"/><path class="cls-3" d="M352.35,310.51c1.36,0,2.46,1.1,2.46,2.46s-1.1,2.46-2.46,2.46-2.46-1.1-2.46-2.46,1.1-2.46,2.46-2.46"/><path class="cls-3" d="M368.58,311.01c1.36,0,2.46,1.1,2.46,2.46s-1.1,2.46-2.46,2.46-2.46-1.1-2.46-2.46,1.1-2.46,2.46-2.46"/><path class="cls-3" d="M388.76,286.4c1.36,0,2.46,1.1,2.46,2.46s-1.1,2.46-2.46,2.46-2.46-1.1-2.46-2.46,1.1-2.46,2.46-2.46"/><path class="cls-3" d="M344.96,267.7c1.36,0,2.46,1.1,2.46,2.46s-1.1,2.46-2.46,2.46-2.46-1.1-2.46-2.46,1.1-2.46,2.46-2.46"/><path class="cls-3" d="M367.6,287.88c1.36,0,2.46,1.1,2.46,2.46s-1.1,2.46-2.46,2.46-2.46-1.1-2.46-2.46,1.1-2.46,2.46-2.46"/><path class="cls-3" d="M206.68,233.26c1.36,0,2.46,1.1,2.46,2.46s-1.1,2.46-2.46,2.46-2.46-1.1-2.46-2.46,1.1-2.46,2.46-2.46"/><path class="cls-3" d="M319.86,259.83c1.36,0,2.46,1.1,2.46,2.46s-1.1,2.46-2.46,2.46-2.46-1.1-2.46-2.46,1.1-2.46,2.46-2.46"/><path class="cls-3" d="M342.01,246.54c1.36,0,2.46,1.1,2.46,2.46s-1.1,2.46-2.46,2.46-2.46-1.1-2.46-2.46,1.1-2.46,2.46-2.46"/><path class="cls-3" d="M227.35,266.72c1.36,0,2.46,1.1,2.46,2.46s-1.1,2.46-2.46,2.46-2.46-1.1-2.46-2.46,1.1-2.46,2.46-2.46"/><path class="cls-3" d="M328.23,288.37c1.36,0,2.46,1.1,2.46,2.46s-1.1,2.46-2.46,2.46-2.46-1.1-2.46-2.46,1.1-2.46,2.46-2.46"/><path class="cls-3" d="M116.14,411.89h233.25c1.48,0,2.46,.98,2.46,2.46v14.27c0,1.47-.98,2.46-2.46,2.46H116.14c-1.48,0-2.46-.99-2.46-2.46v-14.27c0-1.48,.98-2.46,2.46-2.46"/><path class="cls-4" d="M232.77,506.37c-44.29,0-87.1-17.22-119.09-47.73l242.11-244.08c65.94,68.4,64.47,177.65-3.94,243.59-31.99,30.5-74.8,48.22-119.08,48.22m-130.9-60.52c-61.02-72.84-50.68-181.59,22.14-242.61,63.48-52.65,155.5-53.15,219.48-.98L101.87,445.85ZM361.69,195.86c-76.28-71.35-195.85-67.42-267.21,8.86-71.35,76.28-67.42,195.85,8.86,267.7,76.27,71.85,195.85,67.42,267.7-8.85,32.48-35.43,50.68-81.2,50.68-129.42,0-52.16-21.65-102.36-60.04-138.28"/></g></svg>