<?xml version="1.0" encoding="UTF-8"?><svg id="Capa_1" xmlns="http://www.w3.org/2000/svg" viewBox="0 0 467 568.37"><defs><style>.cls-1{fill:#00486e;}.cls-2{fill:#fff;}</style></defs><path class="cls-1" d="M4.92,80.7H461.59V4.92H4.92V80.7Zm462.08,4.92H0V0H466.51V85.62h.49Z"/><polygon class="cls-1" points="16.73 17.72 38.88 17.72 38.88 24.6 32.48 24.6 32.48 67.91 23.62 67.91 23.62 24.6 16.73 24.6 16.73 17.72"/><path class="cls-1" d="M49.21,52.16h6.89l-3.44-20.18-3.44,20.18Zm-10.33,15.75l9.35-50.19h9.35l9.84,50.19h-8.86l-1.48-9.35h-8.86l-1.48,9.35h-7.87Z"/><path class="cls-1" d="M80.21,24.6v15.75h2.95c2.95,0,3.94-1.48,3.94-3.94v-7.38c0-2.95-1.48-3.94-3.94-3.94h-2.95v-.49Zm0,20.18v23.13h-8.37V17.72h12.3c8.37,0,11.81,4.43,11.81,11.32v6.4c0,5.41-1.97,8.37-6.89,9.84l7.87,22.64h-8.86l-7.87-23.13Z"/><path class="cls-1" d="M113.67,41.34h11.81v26.57h-5.91v-5.41c-.98,3.94-3.44,5.91-7.87,5.91-7.38,0-10.33-5.91-10.33-13.29V31c0-7.87,3.94-13.29,12.79-13.29,9.35,0,11.81,5.41,11.81,12.79v4.43h-7.87v-4.92c0-2.95-.98-4.92-4.43-4.92-2.95,0-4.43,1.97-4.43,4.92v27.07c0,2.95,1.48,4.92,3.94,4.92,2.95,0,3.94-1.48,3.94-4.92v-9.35h-3.94v-6.4h.49Z"/><polygon class="cls-1" points="132.37 17.72 152.55 17.72 152.55 24.6 140.74 24.6 140.74 38.88 149.11 38.88 149.11 45.77 140.74 45.77 140.74 61.02 152.55 61.02 152.55 67.91 132.37 67.91 132.37 17.72"/><polygon class="cls-1" points="156.49 17.72 178.63 17.72 178.63 24.6 171.74 24.6 171.74 67.91 163.38 67.91 163.38 24.6 156.49 24.6 156.49 17.72"/><polygon class="cls-1" points="370.06 17.72 370.06 67.91 361.69 67.91 361.69 29.53 355.79 35.43 355.79 27.07 363.66 18.21 370.06 18.21 370.06 17.72"/><polygon class="cls-1" points="375.96 17.72 397.12 17.72 397.12 25.59 386.3 67.91 377.44 67.91 388.76 24.6 375.96 24.6 375.96 17.72"/><path class="cls-1" d="M410.41,36.91c3.44,0,5.91,2.95,5.91,5.91,0,3.44-2.95,5.91-5.91,5.91-3.44,0-5.91-2.95-5.91-5.91s2.46-5.91,5.91-5.91"/><path class="cls-1" d="M447.81,44.78v12.3c0,6.89-3.44,11.32-11.81,11.32s-11.81-4.92-11.81-12.3v-5.91h7.87v6.4c0,2.95,.98,4.92,3.94,4.92,2.46,0,3.44-1.97,3.44-4.43v-12.3c0-2.95-.98-4.43-3.44-4.43s-3.94,1.48-3.94,4.43v.98h-7.87V17.72h22.14v6.89h-14.27v12.3c1.48-2.46,3.94-3.44,6.89-3.44,4.92,.49,8.86,3.44,8.86,11.32"/><g><rect class="cls-1" y="101.86" width="466.51" height="466.51"/><path class="cls-2" d="M362.68,384.82c-23.13,0-41.83-19.19-41.83-42.32s19.19-41.83,42.32-41.83,41.83,19.19,41.83,42.32-19.19,41.83-42.32,41.83m67.42-50.19c0-1.97-1.48-2.95-3.44-2.95h-4.92c-1.97,0-3.44-.49-3.94-2.46-.98-3.44-1.97-6.4-3.44-9.35-.98-1.97-.49-3.94,.98-4.92,1.48-.98,2.95-2.46,3.94-3.44,1.48-.98,1.48-2.95,.98-4.43-1.97-3.94-4.92-7.38-7.87-10.33-.98-1.48-3.44-1.48-4.43-.49-1.48,.98-2.95,1.97-3.94,2.95-.98,.98-3.44,1.48-4.92,.49-2.95-2.46-6.4-4.43-8.37-5.91-1.97-.98-2.46-2.95-1.97-4.92,.49-1.97,.98-3.44,1.48-5.41,.49-1.48-.49-3.44-1.97-3.94-3.94-1.97-7.87-2.95-12.3-3.94-1.97-.49-3.44,.49-3.94,2.46-.49,1.48-.98,2.95-1.48,4.92-.49,1.97-1.48,3.44-3.44,2.95h-10.33c-1.97,0-3.44-.98-4.43-2.46-.49-1.97-1.48-3.44-1.97-4.92-.49-1.48-1.97-2.46-3.94-1.97-4.43,.98-8.37,2.46-12.3,3.94-1.48,.49-2.46,2.46-1.97,4.43,.49,1.97,.98,2.95,1.48,4.92,.49,1.97,.49,3.44-.98,4.92-1.48,1.48-5.91,3.94-8.37,5.91-1.48,.98-3.44,1.48-4.92,.49l-4.92-2.95c-1.48-.98-3.44-.49-4.43,.49-2.95,2.95-5.41,6.89-7.38,10.33-.98,1.48-.49,3.44,.98,4.43l3.94,2.95c1.48,.98,2.46,2.46,1.97,4.43-.49,1.97-2.46,7.87-2.95,9.84-.49,1.97-1.97,2.95-3.94,3.44-1.97,0-3.44,.49-5.41,.49-1.48,0-2.95,1.48-3.44,2.95-.49,4.43-.49,8.86,0,12.79,0,1.97,1.48,2.95,3.44,2.95h4.92c1.97,0,3.44,.49,3.94,2.46,.98,3.44,1.97,6.4,3.44,9.84,.98,1.97,.49,3.94-.98,4.92l-4.43,3.44c-1.48,.98-1.48,2.95-.98,4.43,1.97,3.94,4.92,7.38,7.87,10.33,.98,1.48,3.44,1.48,4.43,.49l3.94-2.95c1.48-.98,3.44-1.48,4.92-.49,1.48,.98,6.4,4.43,8.37,5.91,1.48,.98,2.46,2.95,1.97,4.92-.49,1.97-.98,3.44-1.48,5.41-.49,1.48,.49,3.44,1.97,3.94,3.94,1.97,7.87,2.95,12.3,3.94,1.97,.49,3.44-.49,3.94-2.46,.49-1.48,.98-2.95,1.48-4.92,.49-1.97,1.48-3.44,3.44-2.95h10.33c1.97,0,3.44,.98,4.43,2.46,.49,1.97,1.48,3.44,1.97,4.92,.49,1.48,2.46,2.46,3.94,1.97,4.43-.98,8.37-2.46,12.3-3.94,1.48-.49,2.46-2.46,1.97-4.43-.49-1.97-.98-2.95-1.48-4.92-.49-1.97-.49-3.44,.98-4.92,1.48-1.48,6.4-4.43,8.37-5.91,1.48-.98,3.44-1.48,4.92-.49,1.48,.98,2.95,1.97,4.92,2.95,1.48,.98,3.44,.49,4.43-.49,2.95-3.44,5.91-6.89,7.87-10.83,.98-1.48,.49-3.44-.98-4.43-1.48-.98-2.46-1.97-3.94-2.95-1.48-.98-2.46-2.46-1.97-4.43,.49-1.97,2.46-7.38,2.95-9.84,.49-1.97,1.97-2.95,3.94-3.44,1.97,0,3.44,0,5.41-.49,1.48,0,2.95-1.48,3.44-2.95,.98-4.43,.98-8.86,0-12.79"/><path class="cls-2" d="M331.67,330.69c.98,.49,1.48,0,1.97-.49,.49-.49,.49-.98,0-1.48,0-.49,.49-.98,.98-.98,.98-.49,1.97-.98,2.95-1.48,1.97-.49,3.94-.49,5.91,0,1.48,.49,2.95,.49,3.94-.98,.98-.98,1.48-1.48,2.95-2.46,.49,0-1.48-1.97-2.95,0-1.48,1.97-2.46,1.97-2.95,1.97s-4.92-.98-5.41-2.46c-.49-1.48,1.48-2.46,2.95-2.95,2.46-.49,4.43-.98,6.89-.98,1.97-.49,4.92-1.48,6.4-.49,1.48,.98-5.91,2.46-3.44,3.94,.98,.49,4.92-2.46,6.4-2.95,3.44-1.48-2.95-1.97-2.46-5.41,.49-3.44-7.38-2.46-11.81-1.97-1.97,1.48-3.94,2.95-5.91,4.43,.49,0,.98,.49,.98,.49,0,.49,0,1.48-.49,1.97-.98,.98-2.46,1.48-3.94,1.97q-.49,0-.98-.49c-.49,.98-1.48,1.48-1.97,2.46,.98-.49,1.97-.98,2.95-.98s1.97,.49,2.46,.98c.49,.49-2.46,1.48-2.95,1.97-1.48,.98-3.44,3.44-4.43,3.94h-.98c-.49,.98-.49,1.48-.98,2.46,.98-.49,2.46-.49,3.94,0"/><path class="cls-2" d="M393.19,351.36c-.98,.49-2.46,.49-3.44-.49-.98-.98,.49-1.97,.98-1.97s2.95,1.97,2.46,2.46m-4.92-4.92c-.49-.98,.49-1.48,.98-.98s1.97,1.48,1.97,1.97-1.48,.49-1.97,.49-.98-.49-.98-1.48m-15.26,1.48c-.98,.49-2.46,.49-3.44-.49-.98-.98,.49-1.97,.98-1.97s2.95,1.97,2.46,2.46m-15.25,7.38c-.49,.98-1.97,6.89-2.95,6.4s.49-7.38,.49-7.87c1.48-2.46,4.92-2.46,2.46,1.48m34.94-14.76c-.98,.98-2.46,1.48-3.94,1.48-1.48,.98-1.97,2.95-1.97,4.43s3.44,5.41,.98,4.92c-2.46-.98-4.43-2.95-5.91-4.92-.98-1.97-1.48-3.94-1.97-5.41-.49-.98-1.48-1.97-2.95-1.48,0,0-.49,0-.49,.49-1.48,.98,.49,1.97-.49,3.94-.98,1.97-1.48,3.44-2.95,1.97-3.44-3.94-8.86-1.97-9.84-6.89-.49-2.46-2.46-2.46-4.43-3.94-1.97-1.48-2.95-1.97-2.95-.98s5.91,5.41,5.91,6.89-1.97,3.44-3.44,3.94c-1.48,.49-2.46-.98-4.43-2.95-1.97-1.97-2.46-2.95-2.46-1.48,0,2.46,1.48,4.92,3.44,5.91,1.48,.98,2.95,1.48,2.46,2.95-.49,1.48,0,.49-1.48,2.46-1.48,.98-2.46,2.95-1.97,4.43,0,2.46-.49,2.46-.98,4.43-.49,1.97-.98,.49-1.97,2.95-.49,1.97-.98,3.44-2.46,4.92-1.48,.98-2.95,1.97-4.92,1.97-1.48,0-1.97-4.43-1.97-6.89,0-.98-.98,1.48-1.48-3.44-.49-2.95-2.46,.49-2.46-1.48s-.98-1.48-1.97-2.95c-.98-1.48-2.46,0-3.94,.98-1.48,.98-.98,.98-2.95,.49,4.43,10.33,12.79,18.21,23.62,21.16-.49-.49-.49-.98-.49-1.97,1.48-2.46,4.43-4.43,7.38-4.43,5.91-.49,13.78,3.94,15.25,3.44,1.48-.49,3.94-3.94,7.38-3.94,.98,0,2.46,.49,3.44,.98,1.48-.98,2.46-1.97,3.94-2.95l-.98-.49c-1.97-.98-1.97,.49-2.95,0-.98-.49,.98-2.46-1.97-.98-2.95,1.48-1.97-.49-3.44-3.44-.98-3.44,.98-6.4,3.94-7.87,2.46-.98,4.43-1.48,6.89-1.97,4.43-.98,5.41-3.94,6.4-1.97l.49,.98c.49,.49,.49,1.48,.49,2.46,.49-1.97,.98-3.44,1.48-5.41-.98-.49-4.92-5.91-1.97-9.84,.49-.49-.98-2.46-.49-2.46,1.48,0,2.95,.98,2.95,2.46,0-1.97-.49-3.94-.98-5.91v1.48c-.49,1.48-1.97,1.97-2.95,1.48-.49,0-.98-.49-.98-.98-.49-.49-1.97-1.97-1.97,.49s1.97,1.48-.49,2.95"/><path class="cls-2" d="M330.2,334.63c1.97,.49,3.94,.98,5.91,1.48,1.97,.98,5.41,2.46,7.38,1.97s2.46-1.48,2.46-2.46-1.48-1.97-2.95-.98c-.49,.49-1.48-2.46-2.46-1.97-.98,.49,.98,2.95,.49,3.44-.49,.49-1.97-2.95-2.46-3.44-.49-.49-1.48-1.97-2.46-.98-1.97,1.97-5.91,1.97-6.4,2.46l-.98,.49c-1.48,.49-1.97-.98-1.97-1.97-.49,1.97-.98,4.43-1.48,6.4v-.98c.98-1.97,1.48-2.46,1.97-2.95,.49,0,.98-.49,1.48-.49h1.48Z"/><path class="cls-2" d="M353.33,463.06l-13.78-10.83c-.98-.98-2.95-1.48-3.94,0-43.3,51.67-118.1,57.08-171.25,14.76-1.48-1.48-2.95-2.46-4.43-3.94l15.75-9.84c1.48-.98-.49-2.46-.49-2.46l-53.64-26.57c-1.48-.98-1.97,0-1.97,.98v60.53c0,.49,.49,1.97,1.97,.98l17.22-10.83c3.44,3.44,6.89,6.4,10.33,9.35,62.99,50.69,152.06,43.8,204.22-17.22l.49-.49c.98-.98,.98-2.95-.49-4.43"/><path class="cls-2" d="M119.58,214.06l14.27,10.33c.98,.98,2.95,.98,3.94,0v-.49c40.35-54.13,114.66-63.97,170.27-24.6,1.48,.98,3.44,2.46,4.92,3.94l-14.76,10.83c-1.48,.98,.98,2.46,.98,2.46l54.62,23.13c1.48,.98,1.97-.49,1.97-.98v-.49l-3.44-60.53c0-.49-.49-1.97-1.97-.98l-16.73,11.81c-3.44-2.95-7.38-5.91-11.32-8.86-65.94-46.75-154.52-34.94-202.74,29.03l-.49,.49c-.98,1.97-.98,3.94,.49,4.92"/><path class="cls-2" d="M98.91,375.47c-1.97,1.48-4.43,2.46-6.89,2.95-6.89,1.97-14.27,2.95-21.65,2.46-3.44,0-6.89-.49-10.83-.98-2.46-.49-4.43-.98-6.4-.98l-2.95-.98c-2.95-.98-5.91-1.97-8.37-3.94-.98-.49-1.48-1.48-2.46-2.46v6.89c0,1.97,.98,3.44,2.46,4.43,4.92,3.44,10.83,5.41,16.73,6.4,3.94,.49,8.37,.98,12.3,.98,5.91,0,11.81-.49,17.72-1.97,2.95-.49,5.91-1.97,8.86-3.44,2.95-1.97,4.43-3.94,4.43-5.91v-6.89c-.49,1.48-1.48,2.46-2.95,3.44"/><path class="cls-2" d="M39.86,335.12c.49-1.48,.98-2.95,2.46-3.44,.98,.98,1.97,1.48,2.95,2.46,8.37,3.44,17.22,5.41,26.08,4.92,7.38,0,15.25-.98,22.14-3.44,.98-.49,1.97-.98,2.46-.98v.98c0,4.43-11.81,9.35-28.54,9.35s-27.56-5.41-27.56-9.84m31.49-24.6c16.73,0,28.54,4.92,28.54,9.35s-11.81,9.35-28.54,9.35-28.54-4.92-28.54-9.35,11.81-9.35,28.54-9.35m-3.44,43.8c17.22,0,31.49-5.41,31.49-11.81,0,0,.49-5.91,0-7.38,0-.98,0-1.48-.49-2.46,1.97-.98,3.44-2.95,3.44-5.41,0,0,.49-6.89,0-7.87-.98-7.87-16.73-11.81-31.49-11.81s-31.49,4.43-31.49,12.79c0,.49,.49,7.38,.49,7.38,0,.49,0,.98,.49,1.48-2.46,1.48-3.94,3.94-3.94,6.4,0,.49,.49,7.38,.49,7.38,0,1.97,.98,3.44,2.46,4.43,4.92,3.44,10.83,5.41,16.73,6.4,3.94,0,7.87,.49,11.81,.49"/><path class="cls-2" d="M58.56,377.93c3.94,.49,7.87,.98,12.3,.98,5.91,0,11.81-.49,17.72-1.97,2.95-.98,5.91-1.97,8.86-3.44,.49-.49,1.48-.98,1.97-1.48,.98-.98,1.97-1.97,2.46-2.95,0-.49,.49-.98,.49-1.48v-6.89c-.98,1.48-3.94,5.41-16.24,7.87-5.41,.98-10.83,1.48-15.75,1.48-8.37,0-17.22-1.48-25.1-4.92-1.48-.98-2.95-1.48-3.94-2.95-.49-.49-1.48-1.48-1.97-2.46v7.87c0,1.97,.98,3.44,2.46,4.43,4.92,3.44,10.83,5.41,16.73,5.91"/><path class="cls-2" d="M98.91,352.83l-1.97,.98s-1.97,.98-2.95,.98l-2.95,.98-3.94,.98-4.92,.98-4.92,.49c-.49,0-4.92,.49-7.38,.49-3.44,0-6.4-.49-9.84-.98-2.46-.49-4.92-.98-6.89-1.48-2.46-.49-4.92-1.48-7.38-2.46-1.48-.49-2.95-1.48-3.94-2.46-.98-.98-1.97-1.97-2.46-3.44v7.87c0,1.97,.98,3.44,2.46,4.43,4.92,3.44,10.83,5.41,16.73,6.4,3.94,.49,7.87,.98,12.3,.98,5.91,0,11.81-.49,17.72-1.97,2.95-.98,5.91-1.97,8.86-3.44,.49-.49,1.48-.98,1.97-1.48,.98-.98,1.97-1.97,2.46-2.95,0-.49,.49-.98,.49-1.48,0,0,.49-6.4,.49-6.89v-1.48c0-.49-.49-.98-.98-.98,0-.49-.49-.49-.98-.98l-1.48-.49c-.49,.49-.98,1.48-1.48,1.97,.49,0,.98,.49,.98,.49,.98,.49,1.48,1.48,1.48,2.46s-.49,1.48-.98,1.97l-.49,.49Z"/><path class="cls-2" d="M244.08,375.47c-1.97,1.48-4.43,2.46-6.89,2.95-6.89,1.97-14.27,2.95-21.65,2.46-3.44,0-6.89-.49-10.33-.98-2.46-.49-3.94-.98-6.4-.98l-3.44-.98c-2.95-.98-5.91-1.97-8.37-3.94-.98-.49-1.48-1.48-2.46-2.46v6.89c0,1.97,.98,3.44,2.46,4.43,4.92,3.44,10.83,5.41,16.73,6.4,3.94,.49,7.87,.98,12.3,.98,5.91,0,11.81-.49,17.72-1.97,2.95-.49,5.91-1.97,8.86-3.44,2.95-1.97,4.92-3.94,4.92-5.91v-6.89c-1.48,.98-2.46,2.46-3.44,3.44"/><path class="cls-2" d="M184.54,335.12c0-1.48,.98-2.95,2.46-3.44,.98,.98,1.97,1.48,2.95,2.46,8.37,3.44,17.22,5.41,26.08,4.92,7.38,0,15.25-.98,22.14-3.44,.98-.49,1.97-.98,2.46-.98v.98c0,4.43-11.81,9.35-28.54,9.35s-27.56-5.41-27.56-9.84m31.99-24.6c16.73,0,28.54,4.92,28.54,9.35s-11.81,9.35-28.54,9.35-28.54-4.92-28.54-9.35,11.81-9.35,28.54-9.35m-3.44,43.8c17.22,0,31.49-5.41,31.49-11.81,0,0,.49-5.91,0-7.38,0-.98,0-1.48-.49-2.46,1.97-.98,3.44-2.95,3.44-5.41,0,0,.49-6.89,0-7.87-.98-7.87-16.73-11.81-31.49-11.81s-31.49,4.43-31.49,12.79c0,.49,.49,7.38,.49,7.38,0,.49,0,.98,.49,1.48-2.46,1.48-3.94,3.94-3.94,6.4,0,.49,.49,7.38,.49,7.38,0,1.97,.98,3.44,2.46,4.43,4.92,3.44,10.83,5.41,16.73,6.4,3.44,0,7.87,.49,11.81,.49"/><path class="cls-2" d="M203.73,377.93c3.94,.49,7.87,.98,12.3,.98,5.91,0,11.81-.49,17.72-1.97,2.95-.98,5.91-1.97,8.86-3.44,.49-.49,1.48-.98,1.97-1.48,.98-.98,1.97-1.97,2.46-2.95,0-.49,.49-.98,.49-1.48v-6.89c-.98,1.48-3.94,5.41-16.24,7.87-5.41,.98-10.83,1.48-15.75,1.48-8.86,0-17.22-1.48-25.1-4.92-1.48-.98-2.95-1.48-3.94-2.95-.49-.49-1.48-1.48-1.97-2.46v7.87c0,1.97,.98,3.44,2.46,4.43,4.43,3.44,10.83,5.91,16.73,5.91"/><path class="cls-2" d="M243.59,352.83l-1.97,.98s-1.97,.98-2.95,.98l-2.95,.98-3.94,.98-4.92,.98-4.92,.49c-.49,0-5.41,.49-7.38,.49-3.44,0-6.4-.49-9.84-.98-2.46-.49-4.92-.98-6.89-1.48-2.46-.49-4.92-1.48-7.38-2.46-2.46-.98-4.92-3.44-6.4-5.91v7.87c0,1.97,.98,3.44,2.46,4.43,4.92,3.44,10.83,5.41,16.73,6.4,3.94,.49,8.37,.98,12.3,.98,5.91,0,11.81-.49,17.72-1.97,2.95-.98,5.91-1.97,8.86-3.44,.49-.49,1.48-.98,1.97-1.48,.98-.98,1.97-1.97,2.46-2.95,0-.49,.49-.98,.49-1.48v-8.37c0-.49-.49-.98-.98-.98,0-.49-.49-.49-.98-.98l-.49-.98c-.49,.49-.98,1.48-1.48,1.97,.49,0,.98,.49,.98,.49,.98,.49,1.48,1.48,1.48,2.46s-.49,1.48-.98,1.97c0,.49-.49,.98-.98,.98"/><path class="cls-2" d="M112.2,312.48c0-1.48,.98-2.95,2.46-3.44,.98,.98,1.97,1.48,2.95,2.46,8.37,3.44,17.22,5.41,26.08,4.92,7.38,0,15.25-.98,22.14-3.44,.98-.49,1.97-.98,2.46-.98v.98c0,4.43-11.81,9.35-28.54,9.35s-27.56-5.41-27.56-9.84m31.49-24.6c16.73,0,28.54,4.92,28.54,9.35s-11.81,9.35-28.54,9.35-28.54-4.92-28.54-9.35,11.81-9.35,28.54-9.35m-3.44,43.8c17.22,0,31.49-5.41,31.49-11.81,0,0,.49-5.91,0-7.38,0-.98,0-1.48-.49-2.46,1.97-.98,3.44-2.95,3.44-5.41,0,0,.49-6.4,0-7.87-.98-7.87-16.73-12.3-31.49-12.3s-31.49,4.92-31.49,13.29c0,.49,.49,7.38,.49,7.38,0,.49,0,.98,.49,1.48-2.46,1.48-3.94,3.94-3.94,6.4,0,.49,.49,7.38,.49,7.38,0,1.97,.98,3.44,2.46,4.43,4.92,3.44,10.83,5.41,16.73,6.4,3.44,0,7.87,.49,11.81,.49"/><path class="cls-2" d="M175.19,325.28c0-.49-.49-.98-.98-.98q-.49-.49-.98-.49c-.49-.49-.98-.49-1.48-.98-.49,.49-.98,1.48-1.48,1.97,.49,0,.98,.49,.98,.49,.98,.49,1.48,1.48,1.48,2.46s-.49,1.48-.98,1.97l-.98,.98-1.97,.98-2.95,.98-2.95,.98-3.94,.98s-3.44,.49-4.92,.98l-4.92,.49-7.38,.49c-3.44,0-6.4-.49-9.84-.98-2.46-.49-4.92-.98-6.89-1.48-2.46-.49-4.92-1.48-7.38-2.46-1.48-.49-2.95-1.48-3.94-2.46-.98-.98-1.97-1.97-2.46-3.44v7.87c0,1.97,.98,3.44,2.46,4.43,4.92,3.44,10.83,5.41,16.73,6.4,3.94,.49,7.87,.98,12.3,.98,5.91,0,11.81-.49,17.72-1.97,2.95-.49,5.91-1.97,8.86-3.44,.49-.49,1.48-.98,1.97-1.48,.98-.98,1.97-1.97,2.46-2.95,0-.49,.49-.98,.49-1.48v-6.89c.49-.98,.98-1.48,.98-1.97"/><path class="cls-2" d="M171.25,352.83c-1.97,1.48-4.43,2.46-6.89,2.95-6.89,1.97-14.27,2.95-21.16,2.46-3.44,0-6.89-.49-10.83-.98-1.97-.49-4.43-.49-6.4-.98-.98,0-2.46-.49-2.95-.98-2.95-.98-5.91-2.46-8.37-3.94-.98-.49-1.48-1.48-2.46-2.46v6.89c0,1.97,.98,3.44,2.46,4.43,4.92,3.44,10.83,5.41,16.73,5.91,3.94,.49,8.37,.98,12.3,.98,5.91,0,11.81-.49,17.72-1.97,2.95-.98,5.91-1.97,8.86-3.44,2.95-1.97,4.43-3.94,4.43-5.91v-6.89c-.98,1.97-1.97,2.95-3.44,3.94"/><path class="cls-2" d="M114.66,349.39c4.92,3.44,10.83,5.91,16.73,6.4,3.94,.49,7.87,.98,12.3,.98,5.91,0,11.81-.49,17.22-1.97,2.95-.49,5.91-1.97,8.86-3.44,.49-.49,1.48-.98,1.97-1.48,.98-.98,1.97-1.97,2.46-2.95,0-.49,.49-.98,.49-1.48v-6.89c-.98,1.48-3.94,5.41-16.24,7.87-5.41,.98-10.83,1.48-15.75,1.48-8.37,0-17.22-1.48-25.1-4.92-1.48-.98-2.95-1.48-3.94-2.95-.49-.49-1.48-1.48-1.97-2.46v7.38c0,1.97,.98,3.44,2.95,4.43"/><path class="cls-2" d="M175.19,371.53c-.98,1.48-2.46,2.46-3.94,3.44-1.97,1.48-4.43,2.46-6.89,2.95-6.89,1.97-14.27,2.95-21.16,2.46-3.44,0-6.89-.49-10.83-.98-1.97-.49-4.43-.49-6.4-.98-.98-.49-1.97-.49-2.95-.98-2.95-.98-5.91-1.97-8.37-3.94-.98-.49-1.97-1.48-2.46-2.46v6.89c0,1.97,.98,3.44,2.46,4.43,4.92,3.44,10.83,5.41,16.73,6.4,3.94,.49,7.87,.98,12.3,.98,5.91,0,11.81-.49,17.72-1.97,2.95-.98,5.91-1.97,8.86-3.44,2.95-1.97,4.43-3.94,4.43-5.91,.49,0,.49-6.4,.49-6.89"/><path class="cls-2" d="M131.39,377.93c3.94,.49,7.87,.98,12.3,.98,5.91,0,11.81-.49,17.22-1.97,2.95-.49,5.91-1.97,8.86-3.44,.49-.49,1.48-.98,1.97-1.48,.98-.98,1.97-1.97,2.46-2.95,0-.49,.49-.98,.49-1.48v-6.89c-.98,1.48-3.94,5.41-16.24,7.87-5.41,.98-10.83,1.48-15.75,1.48-8.86,0-17.22-1.48-25.1-4.92-1.48-.98-2.95-1.48-3.94-2.95-.49-.49-1.48-1.48-1.97-2.46v7.38c0,1.97,.98,3.44,2.46,4.43,4.92,3.94,10.83,5.91,17.22,6.4"/></g></svg>