<?xml version="1.0" encoding="UTF-8"?><svg id="Capa_1" xmlns="http://www.w3.org/2000/svg" viewBox="0 0 467 568.37"><defs><style>.cls-1{fill:#fff;}.cls-2{fill:#c88b0c;}</style></defs><polygon class="cls-2" points="366.61 17.72 366.61 67.91 358.25 67.91 358.25 29.53 352.34 35.43 352.34 27.07 360.22 18.21 366.61 18.21 366.61 17.72"/><path class="cls-2" d="M373.5,58.56c0-4.92,1.48-8.37,6.4-13.29l4.92-4.92c2.95-2.95,2.95-4.43,2.95-8.86v-3.44c0-2.95-1.48-3.94-2.95-3.94-1.97,0-3.44,.98-3.44,3.94v6.4h-7.87v-6.4c0-6.89,3.94-10.83,11.32-10.83s10.83,3.44,10.83,10.33v4.92c0,4.92-.98,7.87-5.41,12.79l-5.41,5.91c-1.97,2.46-3.44,3.94-3.44,7.87v2.46h13.78v6.89h-21.65v-9.84Z"/><path class="cls-2" d="M409.42,36.91c3.44,0,5.91,2.95,5.91,5.91,0,3.44-2.95,5.91-5.91,5.91-3.44,0-5.91-2.95-5.91-5.91-.49-2.95,2.46-5.91,5.91-5.91"/><path class="cls-2" d="M429.6,53.15h7.38v-20.67l-7.38,20.67Zm-7.38,1.48l14.76-36.91h8.37V53.15h3.44v6.4h-3.44v8.37h-7.87v-8.37h-14.76v-4.92h-.49Z"/><path class="cls-2" d="M4.92,80.7H461.59V4.92H4.92V80.7Zm462.08,4.92H0V0H466.51V85.62h.49Z"/><polygon class="cls-2" points="16.73 17.72 38.88 17.72 38.88 24.6 32.48 24.6 32.48 67.91 23.62 67.91 23.62 24.6 16.73 24.6 16.73 17.72"/><path class="cls-2" d="M49.21,52.16h6.89l-3.44-20.18-3.44,20.18Zm-10.33,15.75l9.35-50.19h9.35l9.84,50.19h-8.86l-1.48-9.35h-8.86l-1.48,9.35h-7.87Z"/><path class="cls-2" d="M80.21,24.6v15.75h2.95c2.95,0,3.94-1.48,3.94-3.94v-7.38c0-2.95-1.48-3.94-3.94-3.94h-2.95v-.49Zm0,20.18v23.13h-8.37V17.72h12.3c8.37,0,11.81,4.43,11.81,11.32v6.4c0,5.41-1.97,8.37-6.89,9.84l7.87,22.64h-8.86l-7.87-23.13Z"/><path class="cls-2" d="M113.67,41.34h11.81v26.57h-5.91v-5.41c-.98,3.94-3.44,5.91-7.87,5.91-7.38,0-10.33-5.91-10.33-13.29V31c0-7.87,3.94-13.29,12.79-13.29,9.35,0,11.81,5.41,11.81,12.79v4.43h-7.87v-4.92c0-2.95-.98-4.92-4.43-4.92-2.95,0-4.43,1.97-4.43,4.92v27.07c0,2.95,1.48,4.92,3.94,4.92,2.95,0,3.94-1.48,3.94-4.92v-9.35h-3.94v-6.4h.49Z"/><polygon class="cls-2" points="132.37 17.72 152.55 17.72 152.55 24.6 140.74 24.6 140.74 38.88 149.11 38.88 149.11 45.77 140.74 45.77 140.74 61.02 152.55 61.02 152.55 67.91 132.37 67.91 132.37 17.72"/><polygon class="cls-2" points="156.49 17.72 178.63 17.72 178.63 24.6 171.74 24.6 171.74 67.91 163.38 67.91 163.38 24.6 156.49 24.6 156.49 17.72"/><g><rect class="cls-2" x="0" y="101.86" width="466.51" height="466.51"/><path class="cls-1" d="M304.12,438.46H162.88l-11.81-177.15h164.85l-11.81,177.15Zm14.76,12.79l13.78-202.74c0-1.48-.98-2.95-2.46-2.95H137.3c-1.48,0-2.95,.98-2.95,2.46l13.78,203.24c0,1.48,.98,2.95,2.46,2.95h165.34c1.48,0,2.95-1.48,2.95-2.95"/><path class="cls-1" d="M330.2,234.73c1.48,0,2.95-.98,2.95-2.46l1.97-11.32c0-1.48-1.48-2.95-2.95-2.46h-69.88v-8.37c0-1.48-.98-2.46-2.46-2.46h-53.15c-1.48,0-2.95,.98-2.95,2.46v8.37h-69.39c-1.48,0-2.95,.98-2.95,2.46l1.97,11.32c0,1.48,1.48,2.46,2.46,2.46h194.38Z"/><path class="cls-1" d="M218.98,328.23c8.37-6.89,20.67-6.89,29.03,0,1.97-1.97,3.44-3.94,4.92-6.4-11.32-9.35-28.05-9.35-39.37,0,1.48,2.46,2.95,4.43,5.41,6.4"/><path class="cls-1" d="M257.86,310.51c.49,13.29-9.84,25.1-23.13,25.59v3.44l1.48,.49c3.44,1.48,5.41,5.41,3.94,8.86l2.95,1.97c7.38-11.32,22.64-14.27,33.95-6.89,9.35,5.91,13.29,17.72,9.84,28.05l.98,.49q0-.49,.49-.98c6.89-18.21-2.46-38.38-20.67-45.27v-.98c2.46-19.19-10.83-36.91-30.02-39.37v1.48c11.32,2.46,19.68,11.81,20.18,23.13"/><path class="cls-1" d="M252.45,385.8c-11.81-6.4-16.73-21.16-10.33-32.97l-2.95-1.97q-.49,.49-.98,.98c-2.95,2.46-7.38,1.97-9.84-.98l-3.44,1.97c5.91,12.3,.98,27.07-11.32,32.97-9.84,4.92-22.14,2.46-29.53-5.91l-.98,.49,.49,.98c12.3,14.76,34.45,17.22,49.21,4.92,.49,0,.49,.49,.98,.49,15.25,11.81,37.4,8.86,49.21-6.4l-.98-.49c-7.38,8.86-19.19,11.32-29.53,5.91"/><path class="cls-1" d="M242.11,368.09c.49,2.46,1.48,5.41,2.95,7.87,13.78-5.41,21.65-19.68,19.68-33.95-2.95,0-5.41,.49-8.37,.98,1.97,10.83-4.43,21.16-14.27,25.1"/><path class="cls-1" d="M202.25,342.01c-1.97,14.76,5.91,28.54,19.68,33.95,1.48-2.46,2.46-4.92,2.95-7.87-10.33-3.94-16.24-14.27-14.76-25.1-2.46-.98-5.41-.98-7.87-.98"/><path class="cls-1" d="M180.11,372.03c-3.94-12.79,2.95-26.57,16.24-31,10.33-3.44,21.65,.49,27.56,9.84l2.95-1.97c0-.49,0-.98-.49-1.48-.49-3.94,1.97-7.38,5.91-7.87v-3.44c-13.78-.98-23.62-12.79-22.64-26.57,.98-10.83,8.86-19.68,19.19-22.14v-1.48h-.98c-19.19,2.95-31.99,21.16-29.03,40.35l-.98,.49c-17.72,7.38-26.57,27.56-19.19,45.76l1.48-.49Z"/><polygon class="cls-1" points="68.89 526.54 42.32 526.54 42.32 499.97 56.59 499.97 56.59 512.27 68.89 512.27 68.89 526.54"/><path class="cls-1" d="M143.2,526.54h-42.32v-14.27h42.32v14.27Zm74.31,0h-42.32v-14.27h42.32v14.27Zm74.31,0h-42.32v-14.27h42.32v14.27Zm74.31,0h-42.32v-14.27h42.32v14.27Z"/><polygon class="cls-1" points="424.68 526.54 397.61 526.54 397.61 512.27 410.41 512.27 410.41 499.97 424.68 499.97 424.68 526.54"/><path class="cls-1" d="M424.68,245.06h-14.27v-42.32h14.27v42.32Zm0,74.31h-14.27v-42.32h14.27v42.32Zm0,74.31h-14.27v-42.32h14.27v42.32Zm0,74.31h-14.27v-42.32h14.27v42.32Z"/><polygon class="cls-1" points="424.68 170.76 410.41 170.76 410.41 158.46 397.61 158.46 397.61 144.18 424.68 144.18 424.68 170.76"/><path class="cls-1" d="M143.2,158.46h-42.32v-14.27h42.32v14.27Zm74.31,0h-42.32v-14.27h42.32v14.27Zm74.31,0h-42.32v-14.27h42.32v14.27Zm74.31,0h-42.32v-14.27h42.32v14.27Z"/><polygon class="cls-1" points="56.59 170.76 42.32 170.76 42.32 144.18 68.89 144.18 68.89 158.46 56.59 158.46 56.59 170.76"/><path class="cls-1" d="M56.59,245.06h-14.27v-42.32h14.27v42.32Zm0,74.31h-14.27v-42.32h14.27v42.32Zm0,74.31h-14.27v-42.32h14.27v42.32Zm0,74.31h-14.27v-42.32h14.27v42.32Z"/></g></svg>