<?xml version="1.0" encoding="UTF-8"?><svg id="Capa_1" xmlns="http://www.w3.org/2000/svg" viewBox="0 0 467 568.37"><defs><style>.cls-1{fill:#e63428;}.cls-2{fill:#fff;}</style></defs><path class="cls-1" d="M4.92,80.7H461.59V4.92H4.92V80.7Zm462.08,4.92H0V0H466.51V85.62h.49Z"/><polygon class="cls-1" points="16.73 17.72 38.88 17.72 38.88 24.6 32.48 24.6 32.48 67.91 23.62 67.91 23.62 24.6 16.73 24.6 16.73 17.72"/><path class="cls-1" d="M49.21,52.16h6.89l-3.44-20.18-3.44,20.18Zm-10.33,15.75l9.35-50.19h9.35l9.84,50.19h-8.86l-1.48-9.35h-8.86l-1.48,9.35h-7.87Z"/><path class="cls-1" d="M80.21,24.6v15.75h2.95c2.95,0,3.94-1.48,3.94-3.94v-7.38c0-2.95-1.48-3.94-3.94-3.94h-2.95v-.49Zm0,20.18v23.13h-8.37V17.72h12.3c8.37,0,11.81,4.43,11.81,11.32v6.4c0,5.41-1.97,8.37-6.89,9.84l7.87,22.64h-8.86l-7.87-23.13Z"/><path class="cls-1" d="M113.67,41.34h11.81v26.57h-5.91v-5.41c-.98,3.94-3.44,5.91-7.87,5.91-7.38,0-10.33-5.91-10.33-13.29V31c0-7.87,3.94-13.29,12.79-13.29,9.35,0,11.81,5.41,11.81,12.79v4.43h-7.87v-4.92c0-2.95-.98-4.92-4.43-4.92-2.95,0-4.43,1.97-4.43,4.92v27.07c0,2.95,1.48,4.92,3.94,4.92,2.95,0,3.94-1.48,3.94-4.92v-9.35h-3.94v-6.4h.49Z"/><polygon class="cls-1" points="132.37 17.72 152.55 17.72 152.55 24.6 140.74 24.6 140.74 38.88 149.11 38.88 149.11 45.77 140.74 45.77 140.74 61.02 152.55 61.02 152.55 67.91 132.37 67.91 132.37 17.72"/><polygon class="cls-1" points="156.49 17.72 178.63 17.72 178.63 24.6 171.74 24.6 171.74 67.91 163.38 67.91 163.38 24.6 156.49 24.6 156.49 17.72"/><path class="cls-1" d="M398.11,44.78v12.3c0,6.89-3.44,11.32-11.81,11.32s-11.81-4.92-11.81-12.3v-5.91h7.87v6.4c0,2.95,.98,4.92,3.94,4.92,2.46,0,3.44-1.97,3.44-4.43v-12.3c0-2.95-.98-4.43-3.44-4.43s-3.94,1.48-3.94,4.43v.98h-7.87V17.72h22.64v6.89h-14.76v12.3c1.48-2.46,3.94-3.44,6.89-3.44,4.92,.49,8.86,3.44,8.86,11.32"/><path class="cls-1" d="M412.38,36.91c3.44,0,5.91,2.95,5.91,5.91,0,3.44-2.95,5.91-5.91,5.91-3.44,0-5.91-2.95-5.91-5.91-.49-2.95,2.46-5.91,5.91-5.91"/><path class="cls-1" d="M425.66,58.56c0-4.92,1.48-8.37,6.4-13.29l4.92-4.92c2.95-2.95,2.95-4.43,2.95-8.86v-3.44c0-2.95-1.48-3.94-2.95-3.94-1.97,0-3.44,.98-3.44,3.94v6.4h-7.87v-6.4c0-6.89,3.94-10.83,11.32-10.83s10.83,3.44,10.83,10.33v4.92c0,4.92-.98,7.87-5.41,12.79l-5.41,5.91c-1.97,2.46-3.44,3.94-3.44,7.87v2.46h13.78v6.89h-21.65v-9.84Z"/><g><rect class="cls-1" y="101.86" width="466.51" height="466.51"/><path class="cls-2" d="M233.25,503.42c-41.83,0-82.18-15.75-113.18-44.29l59.54-60.04h24.11v75.29c0,7.38,5.91,12.79,12.79,12.79,7.38,0,12.79-5.91,12.79-12.79v-75.29h7.38v75.29c0,7.38,5.91,12.79,12.79,12.79s12.79-5.91,12.79-12.79v-75.29h27.07l-23.62-86.12,5.41-5.41,12.79,40.35s2.95,11.81,13.78,8.86c10.83-2.95,6.89-15.25,6.89-15.25l-15.75-50.69,68.89-68.89c62.99,68.4,58.56,174.2-9.84,237.19-31.49,28.54-72.34,44.29-114.66,44.29M65.45,335.61c0-92.51,75.29-167.81,167.81-167.81,38.38,0,76.27,13.29,105.8,37.89l-60.53,60.04c-3.94-6.4-11.32-10.33-18.7-10.83h-54.13l38.88,44.29,15.25,17.72-24.6,5.41,9.84,10.83,31,34.94-34.94-30.02-18.7-16.24-7.38-6.4,18.21-3.94h.49l-47.73-42.32c-.98,1.48-1.97,3.44-2.46,4.92l-20.67,67.42s-3.94,12.3,6.89,15.25c10.83,2.95,13.78-8.86,13.78-8.86l16.73-56.1s.98-4.43,3.94-3.44c2.95,.98,1.97,5.41,1.97,5.41l-16.73,61.51-86.12,86.12c-24.6-30.02-37.89-67.42-37.89-105.8M233.25,142.71c-106.29,0-192.41,86.12-192.41,192.41s86.12,192.41,192.41,192.41,192.41-86.12,192.41-192.41c.49-105.8-86.12-192.41-192.41-192.41"/><path class="cls-2" d="M233.25,243.1c13.78,0,25.1-11.32,25.1-25.1s-11.32-25.1-25.1-25.1-25.1,11.32-25.1,25.1v.49c.49,13.29,11.32,24.6,25.1,24.6"/></g></svg>