<?xml version="1.0" encoding="UTF-8"?><svg id="Capa_1" xmlns="http://www.w3.org/2000/svg" viewBox="0 0 467 568.37"><defs><style>.cls-1{fill:#fff;}.cls-2{fill:#b11546;}</style></defs><path class="cls-2" d="M4.92,80.7H461.59V4.92H4.92V80.7Zm462.08,4.92H0V0H466.51V85.62h.49Z"/><polygon class="cls-2" points="16.73 17.72 38.88 17.72 38.88 24.6 32.48 24.6 32.48 67.91 23.62 67.91 23.62 24.6 16.73 24.6 16.73 17.72"/><path class="cls-2" d="M49.21,52.16h6.89l-3.44-20.18-3.44,20.18Zm-10.33,15.75l9.35-50.19h9.35l9.84,50.19h-8.86l-1.48-9.35h-8.86l-1.48,9.35h-7.87Z"/><path class="cls-2" d="M80.21,24.6v15.75h2.95c2.95,0,3.94-1.48,3.94-3.94v-7.38c0-2.95-1.48-3.94-3.94-3.94h-2.95v-.49Zm0,20.18v23.13h-8.37V17.72h12.3c8.37,0,11.81,4.43,11.81,11.32v6.4c0,5.41-1.97,8.37-6.89,9.84l7.87,22.64h-8.86l-7.87-23.13Z"/><path class="cls-2" d="M113.67,41.34h11.81v26.57h-5.91v-5.41c-.98,3.94-3.44,5.91-7.87,5.91-7.38,0-10.33-5.91-10.33-13.29V31c0-7.87,3.94-13.29,12.79-13.29,9.35,0,11.81,5.41,11.81,12.79v4.43h-7.87v-4.92c0-2.95-.98-4.92-4.43-4.92-2.95,0-4.43,1.97-4.43,4.92v27.07c0,2.95,1.48,4.92,3.94,4.92,2.95,0,3.94-1.48,3.94-4.92v-9.35h-3.94v-6.4h.49Z"/><polygon class="cls-2" points="132.37 17.72 152.55 17.72 152.55 24.6 140.74 24.6 140.74 38.88 149.11 38.88 149.11 45.77 140.74 45.77 140.74 61.02 152.55 61.02 152.55 67.91 132.37 67.91 132.37 17.72"/><polygon class="cls-2" points="156.49 17.72 178.63 17.72 178.63 24.6 171.74 24.6 171.74 67.91 163.38 67.91 163.38 24.6 156.49 24.6 156.49 17.72"/><path class="cls-2" d="M432.06,45.27v15.75h3.94c2.95,0,3.94-1.48,3.94-3.94v-7.38c0-2.46-1.48-3.94-4.43-3.94h-3.44v-.49Zm0-6.4h2.95c2.95,0,3.94-1.48,3.94-3.94v-5.91c0-2.95-1.48-3.94-3.94-3.94h-2.95v13.78Zm-8.37-21.16h12.3c8.37,0,11.32,3.94,11.32,10.83v4.92c0,4.43-1.48,6.89-4.92,7.87,4.43,.98,6.4,3.94,6.4,8.37v6.4c0,6.89-2.95,10.83-11.81,10.83h-13.29V17.72Z"/><path class="cls-2" d="M384.33,31.99v-3.44c0-2.95-.98-4.92-3.94-4.92s-3.94,1.97-3.94,4.92v3.44c0,2.95,.98,4.92,3.94,4.92s3.94-1.97,3.94-4.92m.49,24.6v-7.87c0-2.95-.98-4.92-3.94-4.92s-3.94,1.97-3.94,4.92v7.87c0,2.95,.98,4.92,3.94,4.92,2.46,0,3.94-1.97,3.94-4.92m-16.73-.98v-5.41c0-4.92,1.48-8.37,5.41-9.84-3.44-1.48-4.92-4.43-4.92-8.86v-2.46c0-7.87,3.94-11.81,11.81-11.81s11.81,4.43,11.81,11.81v1.97c0,3.94-1.48,6.89-4.92,8.86,3.94,1.97,5.41,5.41,5.41,9.84v5.41c0,7.38-3.44,12.79-12.3,12.79-8.86,.49-12.3-4.92-12.3-12.3"/><polygon class="cls-2" points="404.01 32.48 404.01 53.15 414.84 42.81 404.01 32.48"/><g><rect class="cls-2" x="0" y="101.86" width="466.51" height="466.51"/><polygon class="cls-1" points="58.56 273.61 51.18 273.61 51.18 422.71 157.96 422.71 157.96 413.85 58.56 413.85 58.56 273.61"/><path class="cls-1" d="M80.21,366.12c0-.49,.49-.49,.98-.49h78.74c.49,0,.98,0,.98,.49v12.79c0,.49-.49,.49-.98,.49H81.2c-.49,0-.98,0-.98-.49v-12.79Zm0-22.14c0-.49,.49-.49,.98-.49h78.74c.49,0,.98,0,.98,.49v12.79s-.49,.49-.98,.49H81.2c-.49,0-.98,0-.98-.49v-12.79Zm0-22.14s.49-.49,.98-.49h78.74c.49,0,.98,.49,.98,.49v12.79c0,.49-.49,.49-.98,.49H81.2c-.49,0-.98,0-.98-.49v-12.79Zm-13.29,82.67h106.78V255.89H66.93v148.61Z"/><path class="cls-1" d="M387.77,244.57c0-9.84-7.87-17.72-17.72-17.72s-17.72,7.87-17.72,17.72,7.87,17.72,17.72,17.72,17.72-7.87,17.72-17.72"/><path class="cls-1" d="M334.63,337.09l8.86-30.51-13.29-7.38-10.33,33.46s-2.46,8.86,4.92,10.83c7.38,1.97,9.84-6.4,9.84-6.4"/><path class="cls-1" d="M391.22,294.77c2.46-.49,2.95,2.46,2.95,2.46l1.48,5.91,13.29-7.38-3.44-11.32s-5.41-13.78-16.73-13.78h-37.4c-11.81,0-16.73,13.78-16.73,13.78l-3.44,10.33,13.29,7.38,1.48-4.92s.49-2.95,2.95-2.46c2.46,.49,1.48,3.94,1.48,3.94l-20.67,74.31h19.19v53.64c0,4.92,3.94,9.35,9.35,9.35,4.92,0,9.35-3.94,9.35-9.35v-53.15h5.41v53.15c0,4.92,3.94,9.35,9.35,9.35,4.92,0,9.35-3.94,9.35-9.35v-53.15h19.19l-21.16-74.8s-.98-3.44,1.48-3.94"/><path class="cls-1" d="M420.74,332.17l-9.84-32.48-13.78,7.38,8.86,30.02s2.46,8.37,9.84,6.4c7.38-1.97,4.92-11.32,4.92-11.32"/><path class="cls-1" d="M350.87,238.67h-1.97c3.44-11.81,15.75-19.19,27.56-15.75,7.87,1.97,13.78,7.87,15.75,15.75h-2.46v11.81h3.44c-.98,3.94-2.95,7.87-5.91,10.33-.49-.98-1.97-.98-2.95-.98l-6.89,2.95c-.98,.49-1.97,1.97-1.48,2.95l.49,1.48c.49,.98,1.97,1.97,2.95,1.48l6.4-2.46c.98-.49,1.97-1.97,1.48-2.95v-1.48c3.44-2.95,5.41-6.89,6.89-11.32h3.44v-11.81h-3.44c-3.44-13.29-17.22-21.16-30.02-17.22-8.37,2.46-15.25,8.86-17.22,17.22h-3.94v11.81h7.87v-11.81Z"/><path class="cls-1" d="M242.11,426.16c0,5.41,4.43,9.84,9.84,9.84s9.84-4.43,9.84-9.84v-7.38h-20.18v7.38h.49Z"/><path class="cls-1" d="M267.7,426.16c0,5.41,4.43,9.84,9.84,9.84s9.84-4.43,9.84-9.84v-7.38h-20.18v7.38h.49Z"/><path class="cls-1" d="M247.03,287.88v-20.18h-2.95c-12.3,.98-21.65,11.32-21.65,23.62v49.7c0,3.94,2.95,6.89,6.89,6.89s6.89-2.95,6.89-6.89v-42.81c0-1.48,.49-3.94,3.44-3.94h7.38v-6.4Z"/><polygon class="cls-1" points="254.41 283.45 276.07 283.45 276.07 267.7 264.75 267.7 254.41 267.7 254.41 283.45"/><path class="cls-1" d="M280.99,299.19h-1.97v-11.32h-27.56v11.32h-9.35v114.66h20.18v-62.5c0-1.48,.98-2.95,2.46-2.95h.49c1.48,0,2.95,.98,2.95,2.46v62.99h20.18v-114.66h-7.38Z"/><path class="cls-1" d="M285.91,267.7h-2.46v27.07h6.89c2.95,0,3.44,1.97,3.44,3.94v42.81c.49,3.94,3.94,6.89,7.38,6.4s5.91-2.95,6.4-6.4v-50.19c0-12.3-9.35-22.64-21.65-23.62"/><path class="cls-1" d="M277.54,284.43c0,.98,.98,1.97,1.97,1.97s1.97-.98,1.97-1.97-.98-1.97-1.97-1.97-1.97,.98-1.97,1.97"/><path class="cls-1" d="M249,284.43c0,.98,.98,1.97,1.97,1.97s1.97-1.48,1.97-2.46-.98-1.48-1.97-1.97c-.98,.49-1.97,1.48-1.97,2.46"/><path class="cls-1" d="M276.56,239.16c-1.48-1.48-2.95-2.46-5.41-1.48-1.48,.98-2.46,1.48-4.43,2.46-3.94,1.48-7.87,2.95-11.81,3.44-2.95,.49-6.4,.98-9.35,.49,.98,10.33,9.84,17.72,20.18,16.73,8.86-.98,15.75-7.87,16.73-16.24-1.48-1.97-3.44-3.94-5.91-5.41"/><path class="cls-1" d="M245.56,240.14c2.95,0,5.91,0,8.86-.49,3.44-.49,7.38-1.97,10.33-3.44,1.97-.98,3.94-1.48,5.91-2.46,.98-.49,2.46-.98,3.94-.49,.49,.49,.98,.49,1.48,.98,.98,.49,.98,.98,1.48,1.48q.49,.49,4.92,3.94c.49,.49,.98,.98,1.48,.49,.49-.49,.49-3.44,.49-4.92-.49-4.92-2.46-9.35-5.41-12.79-.98-1.48-2.46-1.97-3.94-1.97-2.46,.49-2.46-1.48-3.94-2.46-5.41-1.97-11.81-.98-16.24,2.46-5.41,4.43-9.35,10.33-12.3,16.73-.98,1.97,.98,2.95,2.95,2.95"/></g></svg>