<?xml version="1.0" encoding="UTF-8"?><svg id="Capa_1" xmlns="http://www.w3.org/2000/svg" viewBox="0 0 467 568.37"><defs><style>.cls-1{fill:#e63428;}.cls-2{fill:#fff;}</style></defs><path class="cls-1" d="M4.92,80.7H461.59V4.92H4.92V80.7Zm462.08,4.92H0V0H466.51V85.62h.49Z"/><polygon class="cls-1" points="16.73 17.72 38.88 17.72 38.88 24.6 32.48 24.6 32.48 67.91 23.62 67.91 23.62 24.6 16.73 24.6 16.73 17.72"/><path class="cls-1" d="M49.21,52.16h6.89l-3.44-20.18-3.44,20.18Zm-10.33,15.75l9.35-50.19h9.35l9.84,50.19h-8.86l-1.48-9.35h-8.86l-1.48,9.35h-7.87Z"/><path class="cls-1" d="M80.21,24.6v15.75h2.95c2.95,0,3.94-1.48,3.94-3.94v-7.38c0-2.95-1.48-3.94-3.94-3.94h-2.95v-.49Zm0,20.18v23.13h-8.37V17.72h12.3c8.37,0,11.81,4.43,11.81,11.32v6.4c0,5.41-1.97,8.37-6.89,9.84l7.87,22.64h-8.86l-7.87-23.13Z"/><path class="cls-1" d="M113.67,41.34h11.81v26.57h-5.91v-5.41c-.98,3.94-3.44,5.91-7.87,5.91-7.38,0-10.33-5.91-10.33-13.29V31c0-7.87,3.94-13.29,12.79-13.29,9.35,0,11.81,5.41,11.81,12.79v4.43h-7.87v-4.92c0-2.95-.98-4.92-4.43-4.92-2.95,0-4.43,1.97-4.43,4.92v27.07c0,2.95,1.48,4.92,3.94,4.92,2.95,0,3.94-1.48,3.94-4.92v-9.35h-3.94v-6.4h.49Z"/><polygon class="cls-1" points="132.37 17.72 152.55 17.72 152.55 24.6 140.74 24.6 140.74 38.88 149.11 38.88 149.11 45.77 140.74 45.77 140.74 61.02 152.55 61.02 152.55 67.91 132.37 67.91 132.37 17.72"/><polygon class="cls-1" points="156.49 17.72 178.63 17.72 178.63 24.6 171.74 24.6 171.74 67.91 163.38 67.91 163.38 24.6 156.49 24.6 156.49 17.72"/><path class="cls-1" d="M432.06,45.27v15.75h3.94c2.95,0,3.94-1.48,3.94-3.94v-7.38c0-2.46-1.48-3.94-4.43-3.94h-3.44v-.49Zm0-6.4h2.95c2.95,0,3.94-1.48,3.94-3.94v-5.91c0-2.95-1.48-3.94-3.94-3.94h-2.95v13.78Zm-8.37-21.16h12.3c8.37,0,11.32,3.94,11.32,10.83v4.92c0,4.43-1.48,6.89-4.92,7.87,4.43,.98,6.4,3.94,6.4,8.37v6.4c0,6.89-2.95,10.83-11.81,10.83h-13.29V17.72Z"/><path class="cls-1" d="M393.19,44.78v12.3c0,6.89-3.44,11.32-11.81,11.32s-11.81-4.92-11.81-12.3v-5.91h7.87v6.4c0,2.95,.98,4.92,3.94,4.92,2.46,0,3.44-1.97,3.44-4.43v-12.3c0-2.95-.98-4.43-3.44-4.43s-3.94,1.48-3.94,4.43v.98h-7.87V17.72h22.14v6.89h-14.27v12.3c1.48-2.46,3.94-3.44,6.89-3.44,4.92,0,8.86,3.44,8.86,11.32"/><polygon class="cls-1" points="404.01 32.48 404.01 53.15 414.84 42.81 404.01 32.48"/><g><rect class="cls-1" x="0" y="101.86" width="466.51" height="466.51"/><path class="cls-2" d="M249.99,207.66c0-5.91-1.48-11.81-3.94-17.22l-6.4,4.43c1.97,3.94,2.95,8.86,2.95,13.29,0,5.41-1.48,10.33-3.94,15.26l6.4,3.94c3.44-5.91,4.92-12.79,4.92-19.68"/><path class="cls-2" d="M263.76,178.63l-5.91,3.94c3.94,7.38,6.4,16.24,6.4,24.6,0,9.35-2.46,19.19-7.38,27.07l5.91,3.94c5.41-9.35,8.37-20.18,8.37-31,0-9.35-2.46-19.68-7.38-28.54"/><path class="cls-2" d="M285.42,207.66c0,13.78-3.44,27.07-10.83,38.88l5.91,3.94c15.75-25.59,15.75-58.07,.49-83.66l-5.41,3.94c6.4,11.32,9.84,24.11,9.84,36.91"/><path class="cls-2" d="M199.79,234.24H86.61v-67.42h113.18v67.42Zm4.92-69.39c0-1.97-1.48-3.44-3.44-3.44H84.15c-1.97,0-3.44,1.48-3.44,3.44v73.81h124.01v-73.81Z"/><path class="cls-2" d="M153.04,251.46h-20.67v-2.46h20.67v2.46Zm52.16-9.84H81.2l-9.84,7.87v3.44c0,1.48,2.46,1.48,2.46,1.48H214.06c1.48,0,1.48-1.97,1.48-1.97v-2.95l-10.33-7.87Z"/><path class="cls-2" d="M372.52,238.17h-45.27v-73.32h45.27v73.32Zm-22.64,16.73c-2.95,0-5.41-2.46-5.41-5.41s2.46-5.41,5.41-5.41,5.41,2.46,5.41,5.41-2.46,5.41-5.41,5.41m21.16-94.48h-43.3c-2.95,0-4.92,1.97-4.92,4.92v90.05c0,2.95,1.97,4.92,4.92,4.92h43.3c2.95,0,4.92-1.97,4.92-4.92v-90.05c0-2.46-1.97-4.92-4.92-4.92"/><path class="cls-2" d="M227.84,344.47h0c9.35,0,16.73-7.38,16.73-16.73s-7.38-16.73-16.73-16.73-16.73,7.38-16.73,16.73,7.87,16.73,16.73,16.73"/><path class="cls-2" d="M338.56,353.82c9.35,0,16.73-7.38,16.73-16.73,0-6.4-3.44-12.3-9.35-15.26,.49-.98,.49-1.48,.49-2.46-.98-4.43-5.91-7.38-10.33-6.4-3.44,.98-5.91,3.44-6.4,6.4,0,.98,.49,1.97,.98,2.95-7.87,4.43-10.83,14.76-6.4,22.64,2.46,5.41,7.87,8.86,14.27,8.86"/><path class="cls-2" d="M379.41,424.68s0-.49-.49-.49c4.92-2.95,2.95-8.86,2.95-8.86l-2.46-6.89-10.83-35.43s-4.92-12.79-15.26-12.79l-24.6-.49c-3.44,0-7.38-1.48-9.84-3.94l-30.02-46.75v-.49c-.98-1.48-2.46-2.95-3.94-3.44h-2.46c-1.48,0-2.46,0-5.41,3.94l-29.53,37.4c-2.95,2.95-7.38,4.43-11.32,4.43h-14.27c-4.43,0-8.37-1.48-11.32-4.43l-29.53-37.4c-3.44-3.94-4.43-3.44-5.41-3.94h-2.46c-1.97,.49-3.44,1.97-3.94,3.94l-30.51,45.77c-2.46,2.46-6.4,3.94-9.84,3.94l-24.6,.49c-10.83,0-15.75,12.79-15.75,12.79l-13.29,42.81s-2.46,7.87,4.43,9.84c6.89,1.97,8.86-5.91,8.86-5.91l10.33-35.43s.49-2.95,2.46-1.97c1.97,.98,1.48,3.44,1.48,3.44l-19.68,66.43h17.22v47.73c0,4.43,3.44,8.37,8.37,8.37s8.37-3.44,8.37-8.37v-47.73h5.91v48.23c0,4.43,3.94,8.37,8.37,8.37s8.37-3.94,8.37-8.37v-48.23h17.22l-16.73-60.53c-.98-3.94,0-7.87,1.48-11.32l10.83-19.68,19.19-32.48s1.48-2.46,3.44-4.92l19.19,29.03,11.32,20.67c1.97,3.44,2.46,7.87,1.97,11.81l-17.72,63.97h18.21v50.69c0,4.92,3.94,8.86,8.86,8.86s8.86-3.94,8.86-8.86v-50.69h4.92v51.18c0,4.92,3.94,8.86,8.86,8.86s8.86-3.94,8.86-8.86v-51.18h18.21l-17.72-63.97c-.98-3.94,0-8.37,1.48-11.81l11.32-20.67,19.19-29.03c1.48,2.95,3.44,4.92,3.44,4.92l19.19,32.48,10.83,19.68c1.97,3.44,2.46,7.38,1.48,11.32l-16.24,60.53h17.22v48.23c0,4.43,3.94,8.37,8.37,8.37s8.37-3.94,8.37-8.37v-48.23h5.91v47.73c0,4.43,3.94,8.37,8.37,8.37s8.37-3.44,8.37-8.37v-47.73h17.22l-18.21-66.93s-.98-2.95,1.48-3.44,2.46,1.97,2.46,1.97l8.37,28.54,1.97,6.89s1.48,5.41,5.91,5.91v.49l15.26,79.72c0,.98,1.48,1.97,2.46,1.97h.49c1.48-.49,2.46-1.48,1.97-2.95l-16.24-78.74Z"/><path class="cls-2" d="M106.29,324.78c0-1.97-2.46-4.43-6.89-2.46-5.41,2.46-4.92,10.83-4.92,10.83,0,0,0,.98,.49,.98,.49-.98,1.97-3.44,6.4-3.94,.98,0,1.48-.49,2.46-.98,.49-1.48,1.48-2.46,2.95-3.94q-.49,0-.49-.49"/><path class="cls-2" d="M139.26,322.32c-4.43-1.97-6.4,.49-6.89,2.46v.98c.98,.98,1.97,2.46,2.46,3.44,.98,.49,1.48,.98,2.46,.98,4.43,.49,5.91,2.95,6.4,3.94,0,.49,0,0,.49-.98,.49-.98,.98-7.87-4.92-10.83"/><path class="cls-2" d="M119.58,322.82c-8.37,0-15.26,6.89-15.26,15.26s6.89,15.25,15.26,15.25,15.25-6.89,15.25-15.25-6.89-15.26-15.25-15.26"/></g></svg>