<?xml version="1.0" encoding="UTF-8"?><svg id="Capa_1" xmlns="http://www.w3.org/2000/svg" viewBox="0 0 467 568.37"><defs><style>.cls-1{fill:#fff;}.cls-2{fill:#d5102b;}</style></defs><path class="cls-2" d="M4.92,80.7H461.59V4.92H4.92V80.7Zm462.08,4.92H0V0H466.51V85.62h.49Z"/><polygon class="cls-2" points="16.73 17.72 38.88 17.72 38.88 24.6 32.48 24.6 32.48 67.91 23.62 67.91 23.62 24.6 16.73 24.6 16.73 17.72"/><path class="cls-2" d="M49.21,52.16h6.89l-3.44-20.18-3.44,20.18Zm-10.33,15.75l9.35-50.19h9.35l9.84,50.19h-8.86l-1.48-9.35h-8.86l-1.48,9.35h-7.87Z"/><path class="cls-2" d="M80.21,24.6v15.75h2.95c2.95,0,3.94-1.48,3.94-3.94v-7.38c0-2.95-1.48-3.94-3.94-3.94h-2.95v-.49Zm0,20.67v23.13h-8.37V17.72h12.3c8.37,0,11.81,4.43,11.81,11.32v6.4c0,5.41-1.97,8.37-6.89,9.84l7.87,22.64h-8.86l-7.87-22.64Z"/><path class="cls-2" d="M113.67,41.34h11.81v26.57h-5.91v-5.41c-.98,3.94-3.44,5.91-7.87,5.91-7.38,0-10.33-5.91-10.33-13.29V31c0-7.87,3.94-13.29,12.79-13.29,9.35,0,11.81,5.41,11.81,12.79v4.43h-7.87v-4.92c0-2.95-.98-4.92-4.43-4.92-2.95,0-4.43,1.97-4.43,4.92v27.07c0,2.95,1.48,4.92,3.94,4.92,2.95,0,3.94-1.48,3.94-4.92v-9.35h-3.94v-6.4h.49Z"/><polygon class="cls-2" points="132.37 17.72 152.55 17.72 152.55 24.6 140.74 24.6 140.74 38.88 149.11 38.88 149.11 45.77 140.74 45.77 140.74 61.02 152.55 61.02 152.55 67.91 132.37 67.91 132.37 17.72"/><polygon class="cls-2" points="156.49 17.72 178.63 17.72 178.63 24.6 171.74 24.6 171.74 67.91 163.38 67.91 163.38 24.6 156.49 24.6 156.49 17.72"/><path class="cls-2" d="M376.45,53.15h7.38v-20.67l-7.38,20.67Zm-7.38,1.48l14.76-36.91h8.37V53.15h3.44v6.4h-3.44v8.37h-7.87v-8.37h-14.76v-4.92h-.49Z"/><path class="cls-2" d="M408.93,36.91c3.44,0,5.91,2.95,5.91,5.91,0,3.44-2.95,5.91-5.91,5.91-3.44,0-5.91-2.95-5.91-5.91s2.46-5.91,5.91-5.91"/><path class="cls-2" d="M439.93,56.59v-8.86c0-3.44-.98-4.92-3.94-4.92-2.46,0-3.94,1.97-3.94,4.43v9.35c0,2.95,.98,4.92,3.94,4.92,2.46,0,3.94-1.48,3.94-4.92m-16.73-1.48V30.51c0-7.87,3.44-13.29,12.3-13.29,9.35,0,11.81,5.41,11.81,12.79v2.46h-7.87v-3.44c0-2.95-.98-4.92-3.94-4.92s-3.94,1.97-3.94,4.92v10.83c1.48-2.46,3.44-3.94,6.89-3.94,5.91,0,9.35,3.94,9.35,12.3v7.38c0,7.87-3.44,12.79-12.3,12.79s-12.3-5.41-12.3-13.29"/><g><rect class="cls-2" y="101.86" width="466.51" height="466.51"/><path class="cls-1" d="M381.38,324.78c-5.41-3.94-11.81-5.91-18.21-5.91h-22.14l-17.72,17.72-8.86-8.86-8.86-8.86h-23.62c-9.35,0-18.21,4.43-24.6,11.32l66.43,19.68,64.46-19.19c-1.97-1.97-4.43-3.94-6.89-5.91"/><path class="cls-1" d="M202.25,324.78c-5.41-3.94-11.81-5.91-18.21-5.91h-22.14l-17.72,17.72-8.86-8.86-8.86-8.86h-23.62c-9.35,0-18.21,4.43-24.6,11.32l66.43,19.68,64.46-19.19c-1.97-1.97-4.43-3.94-6.89-5.91"/><path class="cls-1" d="M268.19,341.02l-13.78-3.94-3.44-.98-2.46-.98-9.84-2.95v38.38c.98,0,1.97,0,2.95,.49,4.92,1.48,8.37,5.91,8.37,11.32,0,6.4-4.92,11.81-11.32,11.81v31.99l80.21,18.21v-88.58l-37.89-11.32-12.79-3.44Z"/><path class="cls-1" d="M386.79,370.06l-44.29,11.32v-6.4l44.29-11.81v6.89Zm0,13.29l-44.29,11.32v-6.4l44.29-11.81v6.89Zm0,13.78l-44.29,11.32v-6.4l44.29-11.32v6.4Zm0,13.78l-44.29,11.32v-6.4l44.29-11.32v6.4Zm13.78-38.38c1.97-1.48,3.94-1.97,6.4-1.97h.49v-38.38l-7.87,2.46-2.95,.98-2.95,.98-16.24,4.92-12.79,3.94-37.89,11.32v88.09l80.21-18.21v-31.99c-2.46,0-4.43-.49-6.4-1.97-.49,0-.98-.49-.98-.98-4.92-3.94-5.91-11.81-1.48-16.73,.49-1.48,1.48-1.97,2.46-2.46"/><path class="cls-1" d="M346.93,267.21c-2.95-2.46-5.41-4.92-10.33-2.46-3.44,1.48-4.43,2.46-8.37,4.43-6.89,3.44-14.76,5.41-22.64,6.89-5.91,.98-11.81,1.48-17.72,.98,1.97,19.68,19.68,33.95,39.37,31.49,16.24-1.97,29.53-14.27,31.49-31-3.94-3.44-7.87-6.89-11.81-10.33"/><path class="cls-1" d="M287.88,269.18c4.92,.49,10.33,0,15.25-.98,7.38-.98,14.76-3.44,21.16-6.4,3.44-1.48,7.38-3.44,11.32-4.43,2.46-.98,4.92-1.48,7.38-.98,.98,.49,2.46,.98,3.44,1.97,1.48,.98,1.97,1.48,2.95,2.46,0,0,1.48,.98,9.84,7.38,.98,.98,1.97,1.48,2.46,1.48,1.97-.49,.98-6.4,.49-9.35-1.48-8.86-5.41-17.72-11.32-24.6-1.48-2.46-4.43-3.94-7.38-3.44-3.94,0-7.38-1.48-10.33-4.43-4.43-2.95-15.25-1.97-27.56,4.43-8.86,4.43-19.19,19.19-24.11,32.48-1.97,2.95,3.44,3.94,6.4,4.43"/><path class="cls-1" d="M207.66,369.56l-44.29,11.32v-6.4l44.29-11.81v6.89Zm0,13.78l-44.29,11.32v-6.4l44.29-11.81v6.89Zm0,13.78l-44.29,11.32v-6.4l44.29-11.32v6.4Zm0,13.29l-44.29,11.32v-6.4l44.29-11.32v6.4Zm12.3-75.78l-2.95,.98-2.95,.98-16.24,4.92-12.79,3.94-37.89,11.32v88.09l80.7-18.21v-32.48h-.49c-2.46,0-4.43-.98-6.4-1.97-.49,0-.98-.49-.98-.98-4.92-3.94-5.91-11.81-1.48-16.73,2.46-2.95,5.41-4.43,8.86-4.43h.49v-38.38l-7.87,2.95Z"/><path class="cls-1" d="M102.36,344.96l-10.83-3.44-1.97-.49-2.46-.49-11.81-3.44-2.95-.98h-.49l-2.46-.98-9.84-2.95v38.38c1.48,0,2.95,.49,4.43,.98,.49,0,.98,.49,1.48,.98,.98,.49,1.97,.98,2.46,1.97,4.43,4.43,4.43,12.3,0,16.73-1.97,1.97-4.92,3.44-8.37,3.44v31.99l80.21,18.21v-88.58l-5.91-1.97-31.49-9.35Z"/><path class="cls-1" d="M83.66,262.78c.98-2.95,4.43-8.37,15.25-9.35,1.97-.49,3.94-.98,5.91-1.97,1.97-3.44,3.94-6.4,6.89-9.35v-1.97c-.49-4.92-5.91-10.83-16.73-5.91-13.78,6.4-12.3,26.57-12.3,26.57,.49,1.48,.49,2.46,.98,1.97"/><path class="cls-1" d="M181.58,250.97c1.97,.98,3.94,1.97,6.4,1.97,10.83,1.48,14.27,6.4,15.25,9.35,0,.98,.49-.49,.98-2.46,0,0,1.48-20.18-12.3-26.57-10.83-4.92-16.24,.98-16.73,5.91v2.46c2.46,3.44,4.92,5.91,6.4,9.35"/><path class="cls-1" d="M143.2,309.53c20.67,0,37.4-16.73,37.4-37.4s-16.73-37.4-37.4-37.4-37.4,16.73-37.4,37.4,16.73,37.4,37.4,37.4"/></g></svg>