<?xml version="1.0" encoding="UTF-8"?><svg id="Capa_1" xmlns="http://www.w3.org/2000/svg" viewBox="0 0 467 568.37"><defs><style>.cls-1{fill:#010101;}.cls-2{fill:#fff;}.cls-3{fill:#21803f;}</style></defs><path class="cls-3" d="M4.92,80.7H461.59V4.92H4.92V80.7Zm462.08,4.92H0V0H466.51V85.62h.49Z"/><polygon class="cls-3" points="16.73 17.72 38.88 17.72 38.88 24.6 32.48 24.6 32.48 67.91 23.62 67.91 23.62 24.6 16.73 24.6 16.73 17.72"/><path class="cls-3" d="M49.21,52.16h6.89l-3.44-20.18-3.44,20.18Zm-10.33,15.75l9.35-50.19h9.35l9.84,50.19h-8.86l-1.48-9.35h-8.86l-1.48,9.35h-7.87Z"/><path class="cls-3" d="M80.21,24.6v15.75h2.95c2.95,0,3.94-1.48,3.94-3.94v-7.38c0-2.95-1.48-3.94-3.94-3.94h-2.95v-.49Zm0,20.18v23.13h-8.37V17.72h12.3c8.37,0,11.81,4.43,11.81,11.32v6.4c0,5.41-1.97,8.37-6.89,9.84l7.87,22.64h-8.86l-7.87-23.13Z"/><path class="cls-3" d="M113.67,41.34h11.81v26.57h-5.91v-5.41c-.98,3.94-3.44,5.91-7.87,5.91-7.38,0-10.33-5.91-10.33-13.29V31c0-7.87,3.94-13.29,12.79-13.29,9.35,0,11.81,5.41,11.81,12.79v4.43h-7.87v-4.92c0-2.95-.98-4.92-4.43-4.92-2.95,0-4.43,1.97-4.43,4.92v27.07c0,2.95,1.48,4.92,3.94,4.92,2.95,0,3.94-1.48,3.94-4.92v-9.35h-3.94v-6.4h.49Z"/><polygon class="cls-3" points="132.37 17.72 152.55 17.72 152.55 24.6 140.74 24.6 140.74 38.88 149.11 38.88 149.11 45.77 140.74 45.77 140.74 61.02 152.55 61.02 152.55 67.91 132.37 67.91 132.37 17.72"/><polygon class="cls-3" points="156.49 17.72 178.63 17.72 178.63 24.6 171.74 24.6 171.74 67.91 163.38 67.91 163.38 24.6 156.49 24.6 156.49 17.72"/><polygon class="cls-3" points="375.47 17.72 375.47 67.91 367.1 67.91 367.1 29.53 361.2 35.43 361.2 27.07 369.07 18.21 375.47 18.21 375.47 17.72"/><path class="cls-3" d="M405.49,28.54v4.43c0,4.43-2.46,6.89-5.91,8.37,4.43,.98,6.4,3.94,6.4,8.37v7.38c0,6.89-3.94,11.32-12.3,11.32s-11.81-4.92-11.81-12.3v-6.4h7.87v7.38c0,2.95,.98,4.92,3.94,4.92,2.46,0,3.94-1.97,3.94-4.43v-8.37c0-2.46-.98-3.94-3.94-3.94h-3.44v-6.4h2.95c2.95,0,4.43-1.48,4.43-3.94v-5.91c0-2.95-.98-4.43-3.44-4.43s-3.44,1.97-3.44,4.92v4.92h-7.87v-4.43c0-7.38,2.95-12.79,11.81-12.79,7.38,0,10.83,4.43,10.83,11.32"/><path class="cls-3" d="M419.76,36.91c3.44,0,5.91,2.95,5.91,5.91,0,3.44-2.95,5.91-5.91,5.91-3.44,0-5.91-2.95-5.91-5.91s2.46-5.91,5.91-5.91"/><polygon class="cls-3" points="446.82 17.72 446.82 67.91 438.46 67.91 438.46 29.53 432.55 35.43 432.55 27.07 440.43 18.21 446.82 18.21 446.82 17.72"/><g><rect class="cls-3" y="101.86" width="466.51" height="466.51"/><path class="cls-2" d="M275.57,340.04h7.87v21.16c0,.49,.49,.98,.49,.98h9.84c.49,0,.98-.49,.98-.98v-21.65h15.75c10.33,0,18.7-8.37,18.7-18.7,0-4.92-1.97-9.35-5.41-12.79,8.37-4.92,11.32-15.25,6.4-23.62-2.95-5.41-8.86-8.86-15.26-8.86h-.98c-.98-12.79-11.81-22.64-25.1-22.14-12.3,.98-22.14,11.32-22.14,23.62,0,3.44,.98,6.89,2.46,10.33-14.27,2.95-23.13,17.22-20.18,31.49,2.95,12.79,13.78,21.16,26.57,21.16"/><path class="cls-2" d="M243.59,373.5c0,2.46,1.97,4.43,4.43,4.43s4.43-1.97,4.43-4.43-1.97-4.43-4.43-4.43-4.43,1.97-4.43,4.43"/><path class="cls-2" d="M264.26,373.5c-.49,2.46,1.48,4.92,3.94,4.92,2.46,.49,4.92-1.48,4.92-3.94v-.98c-.49-2.46-2.46-4.43-4.92-3.94-1.97,0-3.94,1.97-3.94,3.94"/><path class="cls-2" d="M284.92,373.5c0,2.46,1.97,4.43,4.43,4.43s4.43-1.97,4.43-4.43-1.97-4.43-4.43-4.43-4.43,1.97-4.43,4.43"/><path class="cls-2" d="M310.02,377.93c2.46,.49,4.92-1.48,4.92-3.94,.49-2.46-1.48-4.92-3.94-4.92h-.98c-2.46,.49-4.43,2.46-3.94,4.92,0,1.97,1.48,3.94,3.94,3.94"/><path class="cls-2" d="M325.77,373.5c0,2.46,1.97,4.43,4.43,4.43s4.43-1.97,4.43-4.43-1.97-4.43-4.43-4.43-4.43,1.97-4.43,4.43"/><path class="cls-2" d="M252.94,357.75c.49,2.46,2.46,4.43,4.92,3.94,1.97,0,3.94-1.97,3.94-3.94,.49-2.46-1.48-4.92-3.94-4.92-2.46-.49-4.92,1.48-4.92,3.94v.98Z"/><path class="cls-2" d="M321.83,362.18c2.46-.49,4.43-2.46,3.94-4.92,0-1.97-1.97-3.94-3.94-3.94-2.46-.49-4.92,1.48-4.92,3.94-.49,2.46,1.48,4.92,3.94,4.92h.98Z"/><path class="cls-2" d="M178.63,190.44l-57.08,25.59-5.41-1.97,10.33-4.43,15.25-14.76-2.95-3.94-36.42-21.65,44.29-2.46,11.32,15.75,15.25-2.95s13.29,8.37,10.83,13.78c-1.48-2.46-5.41-2.95-5.41-2.95"/><path class="cls-2" d="M368.58,340.04c0-.98,.98-1.97,1.97-1.97h19.68c.98,0,1.97,.98,1.97,1.97v11.81c0,.98-.98,1.97-1.97,1.97h-19.68c-.98,0-1.97-.98-1.97-1.97v-11.81Zm23.62-11.32c0,.98-.49,1.48-1.48,1.48h-20.18c-.98,0-1.48-.98-1.48-1.48v-12.79c0-.98,.49-1.48,1.48-1.48h20.18c.98,0,1.48,.98,1.48,1.48v12.79Zm-22.14-37.89h20.67c.98,0,1.48,.98,1.48,1.48v12.79c0,.98-.49,1.48-1.48,1.48h-20.18c-.98,0-1.48-.49-1.48-1.48v-12.79c-.49-.49,.49-1.48,.98-1.48m22.14-8.86c0,.98-.49,1.48-1.48,1.48h-20.18c-.98,0-1.48-.98-1.48-1.48v-4.43c2.46-3.94,14.27-18.21,19.19-24.11l.49-.49c.49-.49,.98-.49,1.48-.49,.98,0,1.48,.49,1.97,1.48v28.05Zm7.38-36.42c0-.98,.98-1.48,1.48-1.48h20.67c.98,0,1.48,.98,1.48,1.48v12.79c0,.98-.98,1.48-1.48,1.48h-20.18c-.98,0-1.48-.98-1.48-1.48l-.49-12.79Zm0,23.62c0-.98,.98-1.48,1.48-1.48h20.67c.98,0,1.48,.49,1.48,1.48v12.79c0,.98-.98,1.48-1.48,1.48h-20.18c-.98,0-1.48-.49-1.48-1.48l-.49-12.79Zm0,23.13c0-.98,.98-1.48,1.48-1.48h20.67c.98,0,1.48,.98,1.48,1.48v12.79c0,.98-.98,1.48-1.48,1.48h-20.18c-.98,0-1.48-.49-1.48-1.48l-.49-12.79Zm0,23.62c0-.98,.98-1.48,1.48-1.48h20.67c.98,0,1.48,.98,1.48,1.48v12.79c0,.98-.98,1.48-1.48,1.48h-20.18c-.98,0-1.48-.98-1.48-1.48l-.49-12.79Zm23.62-81.2c0,.98-.98,1.97-1.97,1.97h-16.73c-.98,0-1.97-.98-1.97-1.97,0-.49,0-.98,.49-.98l.49-.49c4.43-5.91,12.3-15.25,15.75-19.68l.49-.49c.49-.49,.98-.49,1.48-.49,.98,0,1.48,.49,1.97,1.48v20.67Zm-62.99,38.88v104.32c0,.98,.98,1.48,1.48,1.48h38.38v-38.88c0-.98,.98-1.97,1.97-1.97h19.19c.98,0,1.97,.98,1.97,1.97v38.88h6.4c.98,0,1.48-.98,1.48-1.48V187.98c0-.98-.98-1.97-1.97-1.97q-.49,0-.98,.49l-.49,.98-15.75,20.18-2.95,3.94-21.65,27.56-17.22,21.65-8.86,10.83-.49,.49c-.49,.49-.49,.98-.49,1.48"/><path class="cls-2" d="M363.17,263.27l-.49-.98c-.49-.49-.49-1.48,0-1.97l50.69-63.97c.49-.49,1.48-.49,1.97,0l.49,.49c.49,.49,.49,1.48,0,1.97l-50.69,63.97c-.49,.49-1.48,.98-1.97,.49"/><path class="cls-2" d="M270.16,157.96c-8.86,5.41-11.81,16.73-6.4,25.59,5.41,8.86,16.73,11.81,25.59,6.4,8.86-5.41,11.81-16.73,6.4-25.59-5.41-8.86-17.22-11.81-25.59-6.4"/><path class="cls-2" d="M296.24,199.79l-3.94-6.89c-.49-.49-1.48-.98-1.97-.49-.49,.49-.98,1.48-.49,1.97l4.43,6.89c.49,.49,1.48,.98,1.97,.49,0-.49,.49-1.48,0-1.97"/><path class="cls-2" d="M268.19,155.5c.98-.49,.98-1.48,.98-1.97l-3.94-6.89c-.49-.49-1.48-.98-1.97-.49s-.49,.98-.49,1.97l3.94,6.89c.49,.49,.98,.98,1.48,.49"/><path class="cls-2" d="M260.81,184.54c-.49-.49-1.48-.98-1.97-.49l-6.89,3.94c-.49,.49-.98,1.48-.49,1.97s1.48,.98,1.97,.49l6.89-3.94c.98,0,.98-.98,.49-1.97"/><path class="cls-2" d="M297.72,162.88c.49,.49,1.48,.98,1.97,.49l6.89-3.94c.49-.49,.98-1.48,.49-1.97s-1.48-.98-1.97-.49l-6.89,3.94c-.98,.49-.98,1.48-.49,1.97"/><path class="cls-2" d="M280.99,204.71v-8.37c0-.98-.49-1.48-1.48-1.48s-1.48,.49-1.48,1.48v8.37c0,.98,.98,1.48,1.48,1.48,.98,0,1.48-.49,1.48-1.48"/><path class="cls-2" d="M280.5,151.07v-8.37c0-.98-.49-1.48-1.48-1.48s-1.48,.49-1.48,1.48v8.37c0,.98,.98,1.48,1.48,1.48s1.48-.49,1.48-1.48"/><path class="cls-2" d="M257.86,174.2c0-.98-.49-1.48-1.48-1.48h-8.37c-.98,0-1.48,.49-1.48,1.48s.49,1.48,1.48,1.48h8.37c.98,0,1.48-.49,1.48-1.48"/><path class="cls-2" d="M302.15,175.19h8.37c.98,0,1.48-.49,1.48-1.48s-.49-1.48-1.48-1.48h-8.37c-.98,0-1.48,.49-1.48,1.48s.49,1.48,1.48,1.48"/><path class="cls-2" d="M269.18,194.38c.49-.49,0-1.48-.49-1.97s-1.48,0-1.97,.49l-3.94,7.38c-.49,.98,0,1.48,.49,1.97,.49,.49,1.48,0,1.97-.49l3.94-7.38Z"/><path class="cls-2" d="M295.75,147.63c.49-.49,0-1.48-.49-1.97s-1.48,0-1.97,.49l-3.94,6.89c-.49,.49,0,1.48,.49,1.97,.49,.49,1.48,0,1.97-.49l3.94-6.89Z"/><path class="cls-2" d="M260.32,161.41l-6.89-3.94c-.49-.49-1.48,0-1.97,.49s0,1.48,.49,1.97l6.89,3.94c.49,.49,1.48,0,1.97-.49,.49-.49,0-1.48-.49-1.97"/><path class="cls-2" d="M298.21,186.5l6.89,3.94c.49,.49,1.48,0,1.97-.49s0-1.48-.49-1.97l-6.89-3.94c-.49-.49-1.48,0-1.97,.49s0,1.48,.49,1.97"/><path class="cls-2" d="M379.41,208.65l-14.27-13.29,4.92-5.41-19.68-4.43,5.91,19.19,4.92-5.41,14.27,13.29c.98,.98,2.46,.98,3.44,0,.98-.98,1.48-2.46,.49-3.94"/><path class="cls-2" d="M334.13,208.65l13.78,13.29-4.92,5.41,19.68,4.92-5.91-19.68-4.92,5.41-14.27-13.29c-.98-.98-2.46-.98-3.44,0-.98,.98-1.48,2.46,0,3.94-.49-.49-.49,0,0,0"/><path class="cls-2" d="M129.42,285.91c0-4.92-3.94-8.86-8.86-8.86s-8.86,3.94-8.86,8.86,3.94,8.86,8.86,8.86,8.86-3.94,8.86-8.86"/><path class="cls-2" d="M130.9,297.72h-20.18c-5.91,.49-10.33,5.41-10.33,11.81v24.11c0,1.97,1.48,3.44,3.44,3.44s3.44-1.48,3.44-3.44v-20.67c0-.98,0-1.97,1.48-1.97s.98,.98,.98,1.48v62c0,2.95,1.97,4.92,4.92,4.92s4.92-1.97,4.92-4.92v-35.92c0-.49,.49-1.48,.98-1.48h.49c.49,0,1.48,.49,1.48,1.48v35.92c0,2.95,1.97,4.92,4.92,4.92s4.92-1.97,4.92-4.92v-62c0-.49,0-1.48,.98-1.48s1.48,.98,1.48,1.97v20.67c0,1.97,.98,3.44,2.95,3.94,1.97,0,3.44-.98,3.94-2.95v-25.1c0-6.4-4.43-11.32-10.83-11.81"/><path class="cls-2" d="M193.39,287.38c0,4.92,3.44,8.86,8.37,8.86s8.86-3.44,8.86-8.37-3.44-8.86-8.37-8.86-8.86,3.44-8.86,8.37"/><path class="cls-2" d="M218.98,306.58s-2.46-6.89-8.37-6.89h-18.21c-5.41,0-8.37,6.89-8.37,6.89l-6.89,23.13s-1.48,4.43,2.46,5.41c3.94,.98,4.43-2.95,4.43-2.95l5.91-19.19s.49-1.48,1.48-.98,.49,1.97,.49,1.97l-9.84,35.92h9.35v25.59c0,2.46,1.97,4.43,4.43,4.43s4.43-1.97,4.43-4.43v-25.59h2.46v25.59c0,2.46,1.97,4.43,4.43,4.43s4.43-1.97,4.43-4.43v-25.59h9.35l-9.84-35.92s-.49-1.48,.49-1.97,1.48,.98,1.48,.98l5.91,19.19s.98,3.94,4.43,2.95c3.44-.98,2.46-5.41,2.46-5.41l-6.89-23.13Z"/><path class="cls-2" d="M173.22,335.12c-.98-.49-2.46,0-3.44,.98-.98,1.97-2.46,4.43-3.94,6.4-.49,.49-.98,.49-1.97,.49h-7.87c-.98,0-1.48-.49-1.97-.98-.98-.98-3.94-6.4-3.94-6.4-.49-.49-.98-.98-1.97-.98-1.48,0-2.46,.98-2.46,2.46v.98l6.4,11.81c0,.49,.49,.98,.49,1.48v1.48c0,.49,0,1.48-.49,1.97l-2.95,12.3h3.44v8.86c0,1.97,1.48,2.95,2.95,2.95s2.95-1.48,2.95-2.95v-8.86h2.46v9.35c0,1.97,1.97,2.95,3.44,2.95s2.46-1.48,2.95-2.95v-8.86h3.44l-2.95-12.3v-3.94c0-.49,0-.98,.49-1.48l5.91-10.83,.49-.98c0-1.48-.49-2.46-1.48-2.95"/><path class="cls-2" d="M159.93,339.05c3.44,0,6.4-2.95,6.4-6.4s-2.95-6.4-6.4-6.4-6.4,2.95-6.4,6.4,2.95,6.4,6.4,6.4"/><path class="cls-2" d="M62.5,289.85c.49,4.92,4.43,8.37,9.35,7.87,4.43-.49,7.38-3.44,7.87-7.87,0-2.95-1.48-5.91-4.43-7.38,.49-.49,.49-.98,.49-1.48-.49-2.46-2.95-3.94-5.41-2.95-1.48,.49-2.95,1.48-2.95,2.95,0,.49,0,.98,.49,1.48-3.44,1.48-5.41,4.43-5.41,7.38"/><path class="cls-2" d="M88.09,306.58s-2.46-6.4-7.87-6.4h-18.21c-5.41,0-7.87,6.4-7.87,6.4l-6.89,23.13s-.98,3.44,1.48,4.92v.49l-8.37,43.3c0,.49,.49,1.48,.98,1.48s1.48,0,1.48-.98l8.37-43.3v-.49c1.97-.49,2.95-2.95,2.95-2.95l5.91-19.19s.49-1.48,1.48-.98c.98,.49,.49,1.97,.49,1.97l-9.84,35.92h8.86v25.59c0,2.46,1.97,4.43,4.43,4.43s4.43-1.97,4.43-4.43v-25.59h2.46v25.59c.49,2.46,2.46,4.43,4.92,3.94,1.97,0,3.94-1.97,3.94-3.94v-25.59h9.35l-9.84-35.92s-.49-1.48,.49-1.97,1.48,.98,1.48,.98l5.91,19.19s.98,3.94,4.43,2.95c3.44-.98,2.46-5.41,2.46-5.41l-7.38-23.13Z"/><rect class="cls-2" x="35.43" y="394.66" width="92.51" height="27.56"/><rect class="cls-2" x="136.31" y="394.66" width="92.51" height="27.56"/><rect class="cls-2" x="237.68" y="394.66" width="92.51" height="27.56"/><rect class="cls-2" x="339.05" y="394.66" width="92.51" height="27.56"/><rect class="cls-2" x="35.92" y="433.54" width="396.14" height="27.56"/><path class="cls-1" d="M430.09,492.1h-.49l-.98,.49c-12.3,6.4-51.18,21.16-86.12-12.3-.49-.49-1.48-.98-1.97-.98s-.98,.49-1.97,.98c-10.33,7.87-58.56,40.35-101.37,.49l-.49-.49c-.49-.49-.98-.49-1.48-.49s-.98,0-1.48,.49l-.49,.49c-42.81,39.86-90.55,7.38-101.37-.49-.49-.49-.98-.98-1.97-.98s-1.48,.49-1.97,.98c-34.94,33.46-73.81,18.21-86.12,12.3l-.98-.49h-.49c-1.48,0-2.46,.98-2.46,2.46v16.73c0,.49,0,1.48,.49,1.48,40.35,35.43,79.23,2.46,88.09-6.4q.49-.49,.98-.98c.49,0,.49-.49,.98-.49s1.48,.49,1.97,.98c45.77,43.8,93.99,8.37,103.83,0l.98-.98s.49-.49,.98-.49,.49,0,.98,.49l.98,.98c9.84,8.37,58.07,43.8,103.83,0,.98-.98,1.97-.98,2.95,0,.49,0,.49,.49,.49,.49,8.86,8.86,47.24,41.83,87.59,6.4,.49-.49,.49-.98,.98-1.48v-17.22c-1.97-.98-2.95-1.97-3.94-1.97"/></g></svg>