<?xml version="1.0" encoding="UTF-8"?><svg id="Capa_1" xmlns="http://www.w3.org/2000/svg" viewBox="0 0 467 568.37"><defs><style>.cls-1{fill:#00486e;}.cls-2{fill:#fff;}</style></defs><path class="cls-1" d="M4.92,80.7H461.59V4.92H4.92V80.7Zm462.08,4.92H0V0H466.51V85.62h.49Z"/><polygon class="cls-1" points="16.73 17.72 38.88 17.72 38.88 24.6 32.48 24.6 32.48 67.91 23.62 67.91 23.62 24.6 16.73 24.6 16.73 17.72"/><path class="cls-1" d="M49.21,52.16h6.89l-3.44-20.18-3.44,20.18Zm-10.33,15.75l9.35-50.19h9.35l9.84,50.19h-8.86l-1.48-9.35h-8.86l-1.48,9.35h-7.87Z"/><path class="cls-1" d="M80.21,24.6v15.75h2.95c2.95,0,3.94-1.48,3.94-3.94v-7.38c0-2.95-1.48-3.94-3.94-3.94h-2.95v-.49Zm0,20.18v23.13h-8.37V17.72h12.3c8.37,0,11.81,4.43,11.81,11.32v6.4c0,5.41-1.97,8.37-6.89,9.84l7.87,22.64h-8.86l-7.87-23.13Z"/><path class="cls-1" d="M113.67,41.34h11.81v26.57h-5.91v-5.41c-.98,3.94-3.44,5.91-7.87,5.91-7.38,0-10.33-5.91-10.33-13.29V31c0-7.87,3.94-13.29,12.79-13.29,9.35,0,11.81,5.41,11.81,12.79v4.43h-7.87v-4.92c0-2.95-.98-4.92-4.43-4.92-2.95,0-4.43,1.97-4.43,4.92v27.07c0,2.95,1.48,4.92,3.94,4.92,2.95,0,3.94-1.48,3.94-4.92v-9.35h-3.94v-6.4h.49Z"/><polygon class="cls-1" points="132.37 17.72 152.55 17.72 152.55 24.6 140.74 24.6 140.74 38.88 149.11 38.88 149.11 45.77 140.74 45.77 140.74 61.02 152.55 61.02 152.55 67.91 132.37 67.91 132.37 17.72"/><polygon class="cls-1" points="156.49 17.72 178.63 17.72 178.63 24.6 171.74 24.6 171.74 67.91 163.38 67.91 163.38 24.6 156.49 24.6 156.49 17.72"/><polygon class="cls-1" points="358.25 17.72 358.25 67.91 349.88 67.91 349.88 29.53 343.98 35.43 343.98 27.07 351.85 18.21 358.25 18.21 358.25 17.72"/><polygon class="cls-1" points="364.15 17.72 385.31 17.72 385.31 25.59 374.49 67.91 366.12 67.91 377.44 24.6 364.64 24.6 364.64 17.72 364.15 17.72"/><path class="cls-1" d="M399.09,36.91c3.44,0,5.91,2.95,5.91,5.91,0,3.44-2.95,5.91-5.91,5.91-3.44,0-5.91-2.95-5.91-5.91-.49-2.95,2.46-5.91,5.91-5.91"/><polygon class="cls-1" points="426.65 17.72 426.65 67.91 418.28 67.91 418.28 29.53 412.38 35.43 412.38 27.07 420.25 18.21 426.65 18.21 426.65 17.72"/><polygon class="cls-1" points="446.82 17.72 446.82 67.91 438.46 67.91 438.46 29.53 432.55 35.43 432.55 27.07 440.43 18.21 446.82 18.21 446.82 17.72"/><g><rect class="cls-1" x="0" y="101.86" width="466.51" height="466.51"/><path class="cls-2" d="M234.24,407.46c-38.88,0-70.37-31.99-70.37-70.86s31.49-70.37,70.37-69.88c38.88,.49,70.37,31.99,70.37,70.86s-31.49,69.88-70.37,69.88m113.18-83.66c-.49-2.95-2.95-4.92-5.91-4.92h-8.37c-2.95,0-5.91-.98-6.89-3.94-1.48-5.41-2.95-10.83-5.41-16.24-1.48-2.95-.49-6.4,1.97-8.37,2.46-1.97,4.43-3.94,6.89-5.91,1.97-1.97,2.95-4.92,1.48-7.38-3.44-6.4-7.87-12.3-12.79-17.72-1.97-2.46-5.41-2.46-7.87-.98-2.46,1.48-4.43,2.95-6.89,4.92-2.46,1.97-5.41,2.95-7.87,.49-4.92-3.44-10.33-7.87-13.78-9.84-2.95-1.48-3.94-4.92-2.95-7.87,.98-3.44,1.48-5.91,1.97-8.86,.98-2.46-.49-5.41-2.95-6.89-6.4-2.95-13.29-4.92-20.67-6.4-2.95-.98-5.91,.98-6.89,3.94-.98,2.95-1.97,4.92-2.95,7.87s-2.46,5.41-5.91,5.41h-16.73c-2.95,.49-5.91-1.48-7.38-4.43-.98-2.95-2.46-5.41-3.44-8.37-.98-2.46-3.94-3.94-6.4-3.44-6.89,1.48-13.78,3.94-20.18,6.89-2.95,.98-4.43,4.43-2.95,6.89,.98,2.95,1.48,5.41,2.46,7.87,.98,2.46,.98,5.91-1.97,7.87-2.95,1.97-9.84,6.89-13.78,9.84-2.46,1.97-5.91,2.46-8.37,.49-2.95-1.97-4.92-2.95-7.87-4.92-2.46-1.48-5.41-.98-7.38,.98-4.92,5.41-8.86,11.32-12.3,17.72-1.97,2.46-.98,5.91,1.48,7.87h.49c2.46,1.97,4.43,3.44,6.4,4.92,2.46,1.48,4.43,4.43,2.95,7.38-1.48,2.95-3.94,12.79-4.92,16.24-.49,2.95-3.44,5.41-6.4,5.41-3.44,0-5.91,.49-9.35,.49-2.95,0-4.92,1.97-5.41,4.92-.98,7.38-.98,14.27,.49,21.65,.49,2.95,2.95,4.92,5.91,4.92h8.37c2.95,0,5.91,.98,6.89,3.94,1.48,5.41,3.44,10.83,5.41,16.24,1.48,2.95,.49,6.89-2.46,8.86-2.46,1.97-4.43,3.94-6.89,5.91-2.46,1.97-2.95,4.92-1.48,7.38,3.44,6.4,7.87,12.3,12.79,17.22,1.97,2.46,5.41,2.46,7.87,.98,2.46-1.48,4.43-2.95,6.89-4.92,2.46-1.97,5.41-2.95,7.87-.49,2.46,2.46,10.33,7.87,13.78,9.84,2.95,1.48,3.94,4.92,2.95,7.87-.98,2.95-1.48,5.91-1.97,8.86-.98,2.46,.49,5.41,2.95,6.89,6.4,2.95,13.29,4.92,20.67,6.4,2.95,.98,5.91-.98,6.89-3.94,.98-2.95,1.97-4.92,2.95-7.87,.98-2.95,2.46-5.41,5.91-5.41h17.22c2.95-.49,5.91,1.48,7.38,4.43,.98,2.95,2.46,5.41,3.44,8.37,.98,2.46,3.94,3.94,6.4,3.44,6.89-1.48,13.78-3.94,20.18-6.89,2.95-.98,4.43-4.43,3.44-6.89-.98-2.95-1.48-5.41-2.46-7.87-.98-2.46-.98-5.91,1.97-7.87,2.95-1.97,10.83-7.87,13.78-9.84,2.46-1.97,5.91-2.46,8.37-.49,2.95,1.97,4.92,3.44,7.87,4.92,2.46,1.48,5.41,.98,7.38-.98,4.92-5.41,8.86-11.32,12.3-17.72,1.48-2.46,.98-5.91-1.48-7.87-2.46-1.97-4.43-3.44-6.4-4.92-1.97-1.48-4.43-4.43-2.95-7.38,1.48-2.95,3.94-12.3,4.92-16.24,.49-3.44,3.44-5.91,6.4-5.91,3.44,0,5.91-.49,9.35-.98,2.95,0,4.92-1.97,5.41-4.92-.49-6.4-.49-13.29-1.48-20.67"/><path class="cls-2" d="M182.08,316.91c1.48,.98,2.95-.49,3.44-.98,.49-.98,.49-1.97,0-2.46-.49-.98,.98-1.48,1.48-1.48,1.48-.98,2.95-1.97,4.92-2.95,2.95-.98,6.4-.98,9.35,0,1.97,.98,4.92,.49,6.4-.98s2.95-2.95,4.43-3.94c.98-.49-2.46-3.44-4.92,0-2.46,3.44-3.94,3.44-4.92,3.44s-8.37-1.97-9.35-3.94c-.98-1.97,2.46-3.94,4.92-5.41,3.94-.98,7.87-1.48,11.81-1.48,3.94-.98,8.37-2.46,10.83-.98,2.46,1.48-10.33,4.43-5.91,6.89,1.48,.98,7.87-3.94,10.33-4.92,5.41-2.95-4.92-3.94-3.94-9.35,.98-5.41-12.3-3.94-19.68-3.44-3.44,1.97-6.89,4.43-9.84,7.38,.98,0,1.97,.49,1.97,.98,0,1.48-.49,2.46-.98,3.94-1.97,1.97-3.94,2.95-6.4,2.95-.49,0-.98-.49-.98-.49-.98,1.48-1.97,2.95-2.95,4.43,1.48-.98,2.95-1.48,4.43-1.48s3.44,.49,3.94,1.48c.49,.98-3.94,2.95-4.43,3.44-1.97,1.97-5.41,5.91-7.38,6.4h-1.48c-.49,1.48-.98,2.95-1.48,3.94,1.48-1.48,3.94-1.97,6.4-.98"/><path class="cls-2" d="M285.42,352.34c-1.97,.98-4.43,.98-5.91-.49-1.48-.98,.98-3.44,1.97-3.44,1.97-.49,4.92,2.46,3.94,3.94m-8.37-8.37c-.49-.49,0-1.48,.49-1.97,.49-.49,.98,0,1.48,0,1.48,.98,2.46,1.97,2.95,3.44,0,.98-2.46,.98-2.95,.49-.49-.49-1.48-.49-1.97-1.97m-25.59,2.46c-1.97,.98-4.43,.98-5.91-.49-1.48-.98,.98-3.44,1.97-3.44,1.97-.49,4.92,2.46,3.94,3.94m-25.59,12.3c-.98,1.48-3.44,11.81-4.92,10.83-1.48-.98,.49-12.3,.98-12.79,2.95-5.41,7.87-4.92,3.94,1.97m58.56-24.6c-1.97,1.48-4.43,2.46-6.4,2.46-2.46,1.97-3.44,4.43-3.44,7.38,.49,2.46,5.91,8.86,1.97,8.37-3.94-1.97-7.38-4.92-9.84-8.37-1.48-3.44-2.46-6.89-3.94-9.35-.49-1.97-2.95-2.95-4.92-2.46-.49,0-.49,.49-.98,.49-2.46,1.48,.49,2.95-.98,6.4-1.48,3.44-2.95,5.91-4.92,3.44-5.91-6.89-14.76-3.44-16.24-11.32-.98-3.94-4.43-3.94-7.38-6.4-2.95-2.46-4.92-3.44-5.41-1.97-.49,1.48,9.35,9.35,10.33,11.32,.98,2.95-2.95,5.91-5.91,6.4-2.95,.49-4.43-1.48-7.38-4.43-2.95-2.95-3.94-5.41-4.43-2.95,0,3.94,2.46,7.87,5.91,10.33,2.46,1.48,5.41,2.46,4.43,4.92s0,.98-2.95,3.94c-2.46,1.48-3.94,4.43-3.44,7.38,0,3.94-.98,3.94-1.48,7.38-.49,3.44-1.97,.49-3.44,4.92-.49,2.95-1.97,5.91-3.94,7.87-2.46,1.97-5.41,2.95-8.37,3.44-2.95,0-3.44-7.87-3.44-11.81,0-1.48-1.97,2.46-2.95-5.41-.49-4.92-3.94,.49-3.94-2.95s-1.97-2.95-3.44-4.92c-1.48-1.97-3.94,0-6.4,1.48-2.46,1.48-1.48,1.48-4.92,.49,7.38,17.22,21.65,30.02,39.86,35.43-.98-.49-1.48-1.97-.98-2.95,2.46-4.43,6.89-7.38,12.3-7.38,9.84-.98,23.13,6.4,25.59,5.41,2.46-.98,6.4-6.89,12.79-6.4,1.97,0,3.94,.49,5.41,1.48,1.97-1.48,4.43-3.44,6.4-5.41-.49,0-1.48-.49-1.97-.98-3.44-1.48-2.95,.98-4.92,.49-1.97-.49,1.97-4.43-2.95-.98-4.92,3.44-3.44-.49-5.91-5.91-1.48-5.41,1.48-10.83,6.4-13.29,3.44-1.48,7.38-2.46,11.32-2.95,7.38-1.97,8.86-6.4,10.33-3.44,0,.49,.49,.98,.49,1.48,.49,.98,.98,2.46,.98,3.94,.98-2.95,1.97-5.91,2.95-9.35-1.97-.98-8.37-10.33-2.95-16.24,.98-.98-1.97-3.94-.98-3.94,2.46,0,4.43,1.48,4.92,3.94,0-3.44-.49-6.4-1.48-9.84,0,.49,0,1.48-.49,1.97-.98,1.97-3.44,2.95-5.41,2.46-.98-.49-1.48-.98-1.97-1.48-.49-.98-3.44-3.44-3.44,.98s5.91,4.43,1.97,6.89"/><path class="cls-2" d="M179.62,323.8c3.44,.49,6.89,1.48,10.33,2.46,3.44,1.48,9.35,4.43,12.3,2.95,2.46-.98,4.43-2.46,3.94-4.43-.49-1.97-2.46-2.95-4.43-1.48-.98,.49-2.95-3.94-4.43-3.44-1.48,.49,1.97,4.92,.49,5.41-1.48,.49-3.94-4.92-3.94-5.91s-2.46-2.95-3.94-1.48c-3.94,3.44-9.84,3.44-10.83,3.94-.49,.49-.98,.49-1.48,.98-2.46,.98-3.44-1.48-3.44-3.44-.98,3.44-1.97,6.89-1.97,10.83,0,0,0-.49,.49-.49,1.97-3.94,2.46-4.43,2.95-4.43,.98-.49,1.48-.49,2.46-.98l1.48-.49Z"/><path class="cls-2" d="M77.26,146.15l57.08,56.59s.49,.49,0,.98l-29.03,27.07h-.98l-55.61-55.61-10.83,10.83v-50.69h50.69l-11.32,10.83Z"/><path class="cls-2" d="M389.25,524.58l-56.59-56.59s-.49-.49,0-.98l29.03-27.07h.98l55.11,55.61,10.83-10.83v50.69l-50.69,.49,11.32-11.32Z"/><polygon class="cls-2" points="77.26 524.08 133.85 467.49 133.85 466.51 104.82 439.44 103.83 439.44 48.23 495.54 37.4 484.72 37.4 535.4 88.09 535.4 77.26 524.08"/><polygon class="cls-2" points="389.74 146.64 333.15 202.74 333.15 203.73 362.18 230.79 363.17 230.79 418.77 175.68 429.6 186.5 429.6 135.82 378.91 135.82 389.74 146.64"/></g></svg>