<?xml version="1.0" encoding="UTF-8"?><svg id="Capa_1" xmlns="http://www.w3.org/2000/svg" viewBox="0 0 467 568.37"><defs><style>.cls-1{fill:#fff;}.cls-2{fill:#48ad37;}</style></defs><path class="cls-2" d="M4.92,80.7H461.59V4.92H4.92V80.7Zm462.08,4.92H0V0H466.51V85.62h.49Z"/><polygon class="cls-2" points="16.73 17.72 38.88 17.72 38.88 24.6 32.48 24.6 32.48 67.91 23.62 67.91 23.62 24.6 16.73 24.6 16.73 17.72"/><path class="cls-2" d="M49.21,52.16h6.89l-3.44-20.18-3.44,20.18Zm-10.33,15.75l9.35-50.19h9.35l9.84,50.19h-8.86l-1.48-9.35h-8.86l-1.48,9.35h-7.87Z"/><path class="cls-2" d="M80.21,24.6v15.75h2.95c2.95,0,3.94-1.48,3.94-3.94v-7.38c0-2.95-1.48-3.94-3.94-3.94h-2.95v-.49Zm0,20.18v23.13h-8.37V17.72h12.3c8.37,0,11.81,4.43,11.81,11.32v6.4c0,5.41-1.97,8.37-6.89,9.84l7.87,22.64h-8.86l-7.87-23.13Z"/><path class="cls-2" d="M113.67,41.34h11.81v26.57h-5.91v-5.41c-.98,3.94-3.44,5.91-7.87,5.91-7.38,0-10.33-5.91-10.33-13.29V31c0-7.87,3.94-13.29,12.79-13.29,9.35,0,11.81,5.41,11.81,12.79v4.43h-7.87v-4.92c0-2.95-.98-4.92-4.43-4.92-2.95,0-4.43,1.97-4.43,4.92v27.07c0,2.95,1.48,4.92,3.94,4.92,2.95,0,3.94-1.48,3.94-4.92v-9.35h-3.94v-6.4h.49Z"/><polygon class="cls-2" points="132.37 17.72 152.55 17.72 152.55 24.6 140.74 24.6 140.74 38.88 149.11 38.88 149.11 45.77 140.74 45.77 140.74 61.02 152.55 61.02 152.55 67.91 132.37 67.91 132.37 17.72"/><polygon class="cls-2" points="156.49 17.72 178.63 17.72 178.63 24.6 171.74 24.6 171.74 67.91 163.38 67.91 163.38 24.6 156.49 24.6 156.49 17.72"/><path class="cls-2" d="M423.7,55.11V31c0-7.87,3.94-13.29,12.3-13.29,9.35,0,11.81,5.41,11.81,12.79v5.91h-7.87v-7.38c0-2.95-.98-4.92-3.94-4.92s-4.43,1.97-4.43,4.92v27.07c0,2.95,1.48,4.92,4.43,4.92s3.94-1.97,3.94-4.92v-9.35h7.87v8.86c0,7.38-2.95,12.3-11.81,12.3-8.37,.49-12.3-4.92-12.3-12.79"/><polygon class="cls-2" points="362.68 17.72 362.68 67.91 354.31 67.91 354.31 29.53 348.4 35.43 348.4 27.07 356.28 18.21 362.68 18.21 362.68 17.72"/><path class="cls-2" d="M393.68,44.78v12.3c0,6.89-3.44,11.32-11.81,11.32s-11.81-4.92-11.81-12.3v-5.91h7.38v6.4c0,2.95,.98,4.92,3.94,4.92,2.46,0,3.44-1.97,3.44-4.43v-12.3c0-2.95-.98-4.43-3.44-4.43s-3.94,1.48-3.94,4.43v.98h-7.87V17.72h22.64v6.89h-14.27v12.3c1.48-2.46,3.94-3.44,6.89-3.44,4.43,0,8.86,3.44,8.86,11.32"/><polygon class="cls-2" points="404.01 32.48 404.01 53.15 414.84 42.81 404.01 32.48"/><g><rect class="cls-2" x="0" y="101.86" width="466.51" height="466.51"/><path class="cls-1" d="M205.2,212.59v-14.76c0-.49-.49-1.48-1.48-.98h-.98l-.98,.49c-9.84,6.89-39.86,24.11-66.93-.98l-.49-.49q-.49-.49-.98-.49c-.49,0-.98,0-.98,.49l-.49,.49c-27.56,25.59-58.07,7.38-67.42,.49l-.49-.49c-.49,0-1.48,.49-1.48,.98v15.75q0,.49,.49,.98l.98,.98c20.18,16.24,49.21,15.25,68.89-1.48l.49-.49h1.48l.49,.49c20.18,16.73,49.21,17.22,69.39,.49,.49,0,.49-.49,.49-1.48"/><path class="cls-1" d="M169.77,193.39c-.49,1.48-.98,2.46-.98,3.94,2.95,0,24.6-1.48,32.97-31.49-5.91,0-11.81,1.48-16.73,4.43-3.44,2.46-6.89,5.91-8.86,9.84-2.46,4.43-4.92,8.86-6.4,13.29"/><path class="cls-1" d="M166.82,197.82h0c.49-8.37-2.46-16.24-7.38-22.64-2.46-2.95-4.92-5.41-7.87-7.38-4.43-2.46-9.35-3.94-14.27-4.43,4.92,30.02,25.1,33.95,29.53,34.45"/><path class="cls-1" d="M176.17,175.19c0-8.37-2.95-16.73-8.86-23.13-3.94,5.91-6.89,12.79-7.87,20.18,4.92,4.92,7.87,11.32,8.86,18.21,1.97-5.41,4.92-10.33,7.87-15.26"/><path class="cls-1" d="M414.84,172.73c-2.46-2.46-4.43-5.41-5.41-8.37v-1.97l-10.83-8.37s-.49-5.41-4.43-6.4l-2.46,7.38-6.4,.98s-12.79-2.95-13.78-3.44c-7.87,6.4-12.3,16.24-10.83,26.08-2.46-9.35-.49-19.68,5.41-27.56-4.92-1.48-10.83-1.48-15.75,.49-3.94,11.32-3.44,23.62,.98,34.94,0,0-11.32-18.21-6.4-33.46l-8.86,2.95c-3.44,9.35-3.94,19.68-.98,29.53-4.43-8.86-5.91-18.7-3.94-28.54-2.95,.49-5.91,.98-8.86,.98-4.92,6.4-6.89,14.27-4.43,22.14-3.44-7.38-3.44-15.75,0-23.13-3.44-.98-6.89-1.48-10.33-1.48-6.4,6.4-8.86,15.75-6.4,24.6-3.94-7.38-3.94-16.24,0-23.62-6.4,.98-12.3,4.43-16.24,9.35-5.91,6.4-11.32,13.78-16.24,21.16,0,0-9.35,21.16-25.1,22.14-15.75,.98-13.29-14.76-13.29-14.76,0,0,7.38-3.94,6.89-7.87-.49-3.94-8.37,.98-9.84,5.91-1.48,4.92-1.48,22.14,17.22,21.65,18.7-.49,36.42-31.49,36.42-31.49l1.97,5.91c.49,2.95-7.38,15.75-7.38,17.22l12.3,19.68h16.24s-2.95-7.87-9.35-7.38c-1.97-3.94-3.94-7.87-5.41-12.3l15.75-15.25c12.3-2.95,44.29,5.91,44.29,5.91l5.41,14.27,5.91,5.91,10.33,9.84h19.68s-1.48-6.89-12.79-9.35l-8.86-10.33-.49-14.76,23.62-12.79,16.24,5.41c1.97-3.44,4.43-6.4,6.89-9.35l-.49-2.46Z"/><path class="cls-1" d="M394.17,192.9c-3.44-.98-11.32-3.44-11.32-3.44l-8.86,4.43v5.41c4.92,.98,9.35,1.97,13.78,3.94l-.98,6.89c6.89,2.95,10.33-4.92,10.33-4.92,.98-1.97,1.48-3.94,1.97-5.91,.49-3.44,.49-4.92-4.92-6.4"/><path class="cls-1" d="M231.29,327.74l-2.46-3.44c4.92-3.44,8.86-7.38,12.3-12.3,0,0-15.25,3.44-19.68-.49l-10.33-15.25c2.46-3.94,2.46-8.37,.49-12.3-.98-1.48-3.94-3.44-4.43-.98v.98c-.98,1.97-2.46,3.94-4.92,4.43,0-1.97-.98-3.44-1.97-4.92-.98-1.48-3.94-2.46-4.43-.49v.98c0,.98-.49,1.97-.98,2.46l-12.79-5.41c-5.91-4.43-13.29-7.38-20.67-7.87h-5.91c-7.87,1.48-15.26,2.46-23.13,2.95l-37.4,1.48s-31.49,.98-31.99,17.22l-1.48,52.16c6.4,4.43,3.44-6.4,2.95-10.33,.49-5.41,1.48-10.33,3.44-15.25l8.37,47.24h21.16c0-4.92-2.95-9.84-7.87-11.32l2.95-15.25,8.86-5.41c11.32,5.41,24.11,5.91,35.92,1.48l7.38,30.51h25.1c-.98-9.35-14.27-11.81-14.27-11.81l6.4-25.1c1.97-.49,3.44-.98,5.41-1.48l3.94-.98,.98-.49c3.44-1.48,6.89-3.44,10.33-5.91,0,0,11.32,14.76,16.24,16.73l17.22,7.87c1.97,.98,4.43,.98,6.4-.49l2.95-1.48c1.97,0,3.94-.49,5.41-1.48,1.48-.98,2.95-2.46,3.44-3.94,9.35-.98,29.03-17.72,29.03-17.72l-31.99,5.41Z"/><path class="cls-1" d="M350.37,286.89c0-1.48,2.95-2.46,2.95-2.46,0,0,2.46,1.48,2.46,2.95s-1.48,2.46-2.95,2.46-2.46-1.48-2.46-2.95m1.97,64.46h-10.83l-6.4-36.91-.49,36.91h-9.84l-7.87-44.78-.49,44.78h-30.51v16.73h112.2v-16.73h-25.1l-.49-36.91-6.4,36.91h-10.83v-54.62c.98,.98,1.97,1.48,2.95,2.46,5.91,4.43,11.81,5.91,13.29,3.44,1.48-2.46-1.48-7.38-7.38-11.81-.98-.49-1.48-.98-2.46-1.48,.49-.49,1.48-.49,1.97-.98,6.4-3.44,10.33-8.37,8.86-10.83-1.48-2.46-7.38-1.48-13.78,1.97v-.98c.49-6.89-1.48-13.29-4.43-13.29s-5.41,5.41-5.91,12.3v1.48l-1.48-.98c-5.91-4.43-11.81-5.91-13.29-3.94-1.48,1.97,1.48,7.38,7.38,11.81,.49,.49,1.48,.98,1.97,1.48-.49,.49-1.48,.49-1.97,.98-6.4,3.44-9.84,8.37-8.86,10.83,.98,2.46,7.38,1.48,13.78-1.97,1.97-.98,3.94-2.46,5.91-3.94v.98c.49,5.91,.49,12.3,0,18.21l.49,38.88Z"/><path class="cls-1" d="M286.4,467.98c-8.37,3.44-24.11,9.35-36.91,6.89-18.21-3.44,1.97,2.95,1.97,2.95,6.4,1.48,13.29,1.48,19.68,.49,.98,14.76,3.94,31,3.94,32.48,0,0,0,1.97,.98,1.97l1.97,.49s.49,0,.49-.98c-.49-9.35,0-18.21,.98-27.56,.98-3.44,1.97-6.4,3.94-9.35,1.97-.98,4.43-1.48,6.4-2.46l-.49-1.97c-1.97-3.94-2.95-2.95-2.95-2.95"/><path class="cls-1" d="M408.44,453.71c-.49-8.37-3.94-16.24-9.84-22.64-7.38-8.37-17.72-13.29-28.54-13.78-15.25-.98-34.94-.98-34.94-.98,0,0-3.44-.49-3.94,3.94-.98,10.83-3.44,21.16-6.89,31.49-1.48,3.94-9.84,4.92-10.83,5.41,0,0,8.86-4.92,9.84-7.87,1.97-9.35,2.95-19.19,2.95-29.03-.98-9.84-.98-10.33-.98-10.33,0,0,0-2.46-4.43-2.46h-20.67s-1.97-.49-2.46,2.46c-.49,2.95,0,3.94-3.94,4.92-5.41,.49-10.83,2.46-15.26,5.91-5.41,7.87-8.37,17.22-8.37,27.07v.98c-.49,6.4,0,13.29,1.48,19.68,5.41-.49,10.83-1.97,15.75-4.92,3.44-1.97,5.41,2.95,5.41,2.95,.49,.98,.98,2.46,1.48,3.44,.49,.49,.49,1.48,0,1.97,0,0-1.48,.49-.98,1.48,.49,.98,1.48,1.97,2.95,1.97,1.97,.49,7.87,8.86,7.87,8.86,0,1.48,.98,14.76,.98,14.76l2.95,18.7s-5.91,4.43,3.94,4.43h10.33s4.43,0,4.43-2.95l-.49-18.7,2.95-14.76c9.84,6.89,41.34,5.41,41.34,5.41,1.48,.49,2.46,1.48,3.44,2.46l2.95,10.83,.98,11.81s-6.4,6.4,2.46,6.4h9.84s4.92,.49,3.94-2.95c-1.48-4.92,5.91-34.94,5.91-42.81s.49-19.68,.98-23.13c.98,5.91,1.97,11.32,1.97,17.22,.49,6.4,.98,12.79,.98,19.19,0,0,.49,5.41,.98,1.97,3.44-12.3,4.92-25.1,3.44-38.38"/><polygon class="cls-1" points="97.44 438.46 101.86 522.61 110.23 522.61 97.44 438.46"/><polygon class="cls-1" points="158.95 430.58 141.23 522.61 149.6 522.61 158.95 430.58"/><polygon class="cls-1" points="172.23 470.94 160.92 522.61 168.79 522.61 172.23 470.94"/><polygon class="cls-1" points="188.97 496.03 183.06 522.61 187 522.61 188.97 496.03"/><polygon class="cls-1" points="82.18 484.22 84.64 522.61 90.55 522.61 82.18 484.22"/><path class="cls-1" d="M127.45,453.22h.98c3.94,0,6.89-2.95,6.89-6.4v-25.1c0-3.94-2.95-6.89-6.4-6.89h-1.97v-11.32c0-.98-.49-1.48-1.48-1.48s-1.48,.49-1.48,1.48v11.32h-.98c-3.94,0-6.89,2.95-6.89,6.4v25.1c0,3.94,2.95,6.89,6.4,6.89h.98v69.39h3.94v-69.39Z"/><rect class="cls-1" x="285.91" y="351.36" width="112.2" height="16.73"/></g></svg>