<?xml version="1.0" encoding="UTF-8"?><svg id="Capa_1" xmlns="http://www.w3.org/2000/svg" viewBox="0 0 467 568.37"><defs><style>.cls-1{fill:#00486e;}.cls-2{fill:#fff;}</style></defs><path class="cls-1" d="M4.92,80.7H461.59V4.92H4.92V80.7Zm462.08,4.92H0V0H466.51V85.62h.49Z"/><polygon class="cls-1" points="16.73 17.72 38.88 17.72 38.88 24.6 32.48 24.6 32.48 67.91 23.62 67.91 23.62 24.6 16.73 24.6 16.73 17.72"/><path class="cls-1" d="M49.21,52.16h6.89l-3.44-20.18-3.44,20.18Zm-10.33,15.75l9.35-50.19h9.35l9.84,50.19h-8.86l-1.48-9.35h-8.86l-1.48,9.35h-7.87Z"/><path class="cls-1" d="M80.21,24.6v15.75h2.95c2.95,0,3.94-1.48,3.94-3.94v-7.38c0-2.95-1.48-3.94-3.94-3.94h-2.95v-.49Zm0,20.18v23.13h-8.37V17.72h12.3c8.37,0,11.81,4.43,11.81,11.32v6.4c0,5.41-1.97,8.37-6.89,9.84l7.87,22.64h-8.86l-7.87-23.13Z"/><path class="cls-1" d="M113.67,41.34h11.81v26.57h-5.91v-5.41c-.98,3.94-3.44,5.91-7.87,5.91-7.38,0-10.33-5.91-10.33-13.29V31c0-7.87,3.94-13.29,12.79-13.29,9.35,0,11.81,5.41,11.81,12.79v4.43h-7.87v-4.92c0-2.95-.98-4.92-4.43-4.92-2.95,0-4.43,1.97-4.43,4.92v27.07c0,2.95,1.48,4.92,3.94,4.92,2.95,0,3.94-1.48,3.94-4.92v-9.35h-3.94v-6.4h.49Z"/><polygon class="cls-1" points="132.37 17.72 152.55 17.72 152.55 24.6 140.74 24.6 140.74 38.88 149.11 38.88 149.11 45.77 140.74 45.77 140.74 61.02 152.55 61.02 152.55 67.91 132.37 67.91 132.37 17.72"/><polygon class="cls-1" points="156.49 17.72 178.63 17.72 178.63 24.6 171.74 24.6 171.74 67.91 163.38 67.91 163.38 24.6 156.49 24.6 156.49 17.72"/><polygon class="cls-1" points="371.53 17.72 371.53 67.91 363.17 67.91 363.17 29.53 357.26 35.43 357.26 27.07 365.14 18.21 371.53 18.21 371.53 17.72"/><polygon class="cls-1" points="377.44 17.72 398.6 17.72 398.6 25.59 387.77 67.91 379.41 67.91 390.72 24.6 377.44 24.6 377.44 17.72"/><path class="cls-1" d="M412.38,36.91c3.44,0,5.91,2.95,5.91,5.91,0,3.44-2.95,5.91-5.91,5.91-3.44,0-5.91-2.95-5.91-5.91-.49-2.95,2.46-5.91,5.91-5.91"/><path class="cls-1" d="M425.66,58.56c0-4.92,1.48-8.37,6.4-13.29l4.92-4.92c2.95-2.95,2.95-4.43,2.95-8.86v-3.44c0-2.95-1.48-3.94-2.95-3.94-1.97,0-3.44,.98-3.44,3.94v6.4h-7.87v-6.4c0-6.89,3.94-10.83,11.32-10.83s10.83,3.44,10.83,10.33v4.92c0,4.92-.98,7.87-5.41,12.79l-5.41,5.91c-1.97,2.46-3.44,3.94-3.44,7.87v2.46h13.78v6.89h-21.65v-9.84Z"/><g><rect class="cls-1" y="101.86" width="466.51" height="466.51"/><path class="cls-2" d="M327.74,342.5c-32.48,0-59.05-26.57-58.56-59.54,.49-32.97,26.57-59.05,59.54-58.56,32.48,0,58.56,26.57,58.56,59.05s-26.57,59.05-59.54,59.05q.49,0,0,0m94.97-70.37c0-2.46-2.46-4.43-4.92-4.43h-6.89c-2.46,0-4.92-.98-5.91-3.44-.98-4.43-2.46-9.35-4.43-13.29-.98-2.46-.49-5.41,1.48-6.89,1.97-1.97,3.94-3.44,5.91-4.92,1.97-1.48,2.46-3.94,.98-5.91-2.95-5.41-6.4-10.33-10.83-14.27-1.48-1.97-4.43-1.97-6.4-.49-1.97,1.48-3.94,2.46-5.91,3.94-1.97,1.48-4.43,2.46-6.89,.49-3.94-2.95-8.86-6.4-11.81-8.37-2.46-1.48-3.44-3.94-2.46-6.4,.49-2.46,.98-4.92,1.97-7.38,.49-2.46-.49-4.43-2.46-5.41-5.41-2.46-11.32-4.43-17.22-5.41-2.46-.49-4.92,.98-5.41,3.44-.98,2.46-1.48,4.43-2.46,6.4-.98,1.97-2.46,4.43-4.92,4.43h-14.27c-2.46,.49-4.92-1.48-5.91-3.94-.98-2.46-1.97-4.43-2.95-7.38-.98-1.97-2.95-3.44-5.41-2.95-5.91,.49-11.81,2.46-17.22,5.41-2.46,.98-3.44,3.44-2.46,5.91,.98,2.46,.98,4.43,1.97,6.89,.98,2.46,.98,4.92-1.48,6.4-2.46,1.48-8.37,5.91-11.32,8.37-1.97,1.97-4.92,1.97-6.89,.49-2.46-1.48-4.43-2.46-6.4-3.94-1.97-.98-4.43-.98-5.91,.98-3.94,4.43-7.38,9.35-10.33,14.76-1.48,1.97-.98,4.92,1.48,6.4,1.97,1.48,3.44,2.95,5.41,4.43,1.97,1.48,3.44,3.44,2.46,6.4-.98,2.95-3.44,10.83-4.43,13.78-.49,2.46-2.95,4.43-5.41,4.43-2.95,0-4.92,.49-7.87,.49-2.46,0-4.43,1.97-4.43,4.43-.49,5.91-.49,12.3,.49,18.21,.49,2.46,2.46,4.43,4.92,4.43h6.89c2.46,0,4.92,.98,5.91,3.44,.98,4.43,2.46,9.35,4.43,13.78,.98,2.46,.49,5.41-1.97,6.89-1.97,1.48-3.94,3.44-5.91,4.92-1.97,1.48-2.46,3.94-.98,5.91,2.95,5.41,6.4,10.33,10.83,14.27,1.48,1.97,4.43,1.97,6.4,.49,2.46-1.48,3.94-2.46,5.91-3.94,1.97-1.48,4.43-2.46,6.89-.49,2.46,1.97,8.86,6.4,11.32,8.37,2.46,1.48,3.44,3.94,2.46,6.4-.98,2.46-.98,4.92-1.97,7.38-.49,2.46,.49,4.43,2.46,5.91,5.41,2.46,11.32,4.43,17.22,5.41,2.46,.49,4.92-.98,5.91-3.44,.98-2.46,1.48-4.43,2.46-6.4,.98-1.97,2.46-4.43,4.92-4.43h14.27c2.46-.49,4.92,1.48,5.91,3.94,.98,2.46,1.97,4.43,2.95,7.38,.98,1.97,2.95,3.44,5.41,2.95,5.91-.98,11.81-2.95,17.22-5.91,2.46-.98,3.44-3.44,2.46-5.91-.49-2.46-.98-4.43-1.97-6.89-.98-2.46-.98-4.92,1.48-6.4,2.46-1.48,8.86-6.4,11.32-8.37,1.97-1.97,4.92-1.97,6.89-.49,2.46,1.48,4.43,2.46,6.4,3.94,1.97,1.48,4.43,.98,6.4-.98,3.94-4.43,7.38-9.35,10.33-14.76,1.48-1.97,.98-4.92-1.48-6.4l-5.41-4.43c-2.46-1.48-3.44-3.44-2.46-6.4,.98-2.95,3.44-10.33,4.43-13.78,.49-2.46,2.95-4.43,5.41-4.43,2.95,0,4.92-.49,7.87-.49,2.46,0,4.43-1.97,4.43-4.43,.49-6.4,.49-12.79-.49-18.7"/><path class="cls-2" d="M284.43,266.22c1.48,.98,2.46,0,2.95-.98,.49-.49,.49-1.48,0-1.97-.49-.98,.49-1.48,1.48-1.48,1.48-.49,2.46-1.48,3.94-2.46,2.46-.98,5.41-.98,7.87,0,1.97,.98,3.94,.49,5.41-.98,.98-1.48,2.46-2.46,3.94-2.95,.98-.49-1.97-2.95-3.94,0-1.97,2.95-3.44,2.95-4.43,2.95s-6.89-1.48-7.87-3.44c-.98-1.97,1.97-3.44,3.94-4.43,3.44-.98,6.4-1.48,9.84-1.48,2.95-.49,7.38-2.46,9.35-.98,1.97,1.48-8.37,3.94-4.92,5.41,.98,.49,6.89-3.44,8.86-3.94,4.43-2.46-4.43-2.95-3.44-7.87,.98-4.92-10.33-3.44-16.24-2.95-2.95,1.97-5.41,3.94-8.37,6.4,.49,0,1.48,.49,1.48,.98,0,.98,0,2.46-.98,3.44-1.48,1.48-3.44,2.46-5.41,2.46q-.49,0-.98-.49c-.98,.98-1.97,2.46-2.46,3.94,.98-.98,2.46-.98,3.94-1.48,1.48,0,2.95,.49,3.44,1.48s-3.44,2.46-3.94,2.95c-1.97,1.48-4.43,4.92-6.4,5.41h-.98c-.49,.98-.98,2.46-1.48,3.44,1.48-.98,3.44-1.48,5.41-.98"/><path class="cls-2" d="M370.55,295.75c-1.48,.49-3.44,.49-4.92-.49-1.48-.98,.98-2.46,1.48-2.95,1.97,.49,4.92,2.95,3.44,3.44m-6.89-6.89c-.49-.49,0-.98,.49-1.48s.98,0,1.48,0c.98,.49,1.97,1.48,2.46,2.95,0,.98-1.97,.98-2.46,.49-.49-.49-1.48-.49-1.97-1.97m-21.65,1.97c-1.48,.98-3.44,.49-4.92-.49-1.48-.98,.98-2.46,1.48-2.95,1.97,0,4.92,2.46,3.44,3.44m-21.16,10.33c-.49,.98-2.95,9.84-3.94,8.86-.98-.98,.49-10.33,.98-10.83,1.97-3.44,6.4-3.44,2.95,1.97m49.21-20.18c-1.48,.98-3.44,1.97-5.41,1.97-1.97,1.48-2.95,3.94-2.95,6.4,.49,1.97,4.92,7.38,1.48,7.38-3.44-1.48-5.91-3.94-7.87-6.89-.98-2.95-2.46-5.91-2.95-7.87-.49-1.48-2.46-2.46-3.94-1.97-.49,0-.49,.49-.98,.49-1.97,1.48,.49,2.46-.98,5.41-1.48,2.95-2.46,4.92-4.43,2.95-4.92-5.91-12.3-2.95-13.78-9.35-.49-3.44-3.44-3.44-5.91-4.92-2.46-1.48-3.94-2.95-4.43-1.48-.49,1.48,7.87,7.87,8.37,9.84,.98,2.46-2.46,4.92-4.92,5.41-2.46,.49-3.44-1.48-5.91-3.94-2.46-2.46-3.44-4.43-3.44-2.46,0,3.44,1.97,6.89,4.92,8.86,1.97,1.48,4.43,1.97,3.94,3.94-.49,1.97,0,.98-2.46,3.44-1.97,1.48-2.95,3.94-2.46,6.4,0,3.44-.49,3.44-.98,5.91-.49,2.46-1.48,.49-2.95,4.43-.49,2.46-1.48,4.43-3.44,5.91-1.97,1.97-4.43,2.46-6.89,2.95-2.46,0-2.95-6.4-2.95-9.84,0-.98-1.48,1.97-2.46-4.43-.49-4.43-3.44,.49-3.44-2.46s-1.48-2.46-2.95-3.94c-1.48-1.48-3.44,0-5.41,.98-1.97,.98-.98,1.48-3.94,.49,5.91,14.27,18.21,25.59,32.97,30.02-.98-.49-.98-1.48-.49-2.46,1.97-3.94,5.91-5.91,10.33-5.91,8.37-.98,19.68,5.41,21.16,4.43,1.48-.98,5.41-5.91,10.33-5.91,1.97,0,3.44,.49,4.92,.98,1.97-1.48,3.44-2.95,5.41-4.43-.49,0-.98-.49-1.48-.49-2.95-1.48-2.46,.98-3.94,.49s1.48-3.94-2.46-.98-2.95-.49-4.92-4.92c-.98-4.43,.98-9.35,5.41-11.32,2.95-.98,6.4-1.97,9.35-2.46,6.4-1.48,7.38-5.41,8.86-2.95,0,.49,.49,.98,.49,.98,.49,.98,.49,1.97,.98,2.95,.98-2.46,1.48-4.92,1.97-7.87-1.48-.49-6.89-8.37-2.46-13.78,.98-.98-1.48-3.44-.98-3.44,1.97,0,3.94,.98,4.43,2.95,0-2.95-.49-5.41-.98-7.87v1.97c-.49,1.97-2.46,2.95-3.94,2.46-.98,0-1.97-.98-2.46-1.97-.49-.98-2.95-2.95-2.95,.98s3.44,2.46,0,4.92"/><path class="cls-2" d="M282.46,272.13c2.95,.49,5.91,.98,8.37,1.97,2.95,.98,7.87,3.94,10.33,2.46,2.95-.98,3.44-1.97,3.44-3.44s-1.97-2.46-3.94-.98c-.49,.49-1.97-2.95-3.44-2.95s1.48,4.43,.49,4.43-2.95-4.43-3.44-4.92-1.97-2.46-3.44-.98c-2.95,2.95-7.87,2.46-8.86,3.44q-.49,.49-.98,.49c-1.97,.98-2.46-1.48-2.95-2.95-.98,2.95-1.48,5.91-1.97,8.86v-.49c1.48-3.44,1.97-3.44,2.46-3.94,.49-.49,1.48-.49,1.97-.98h1.97Z"/><path class="cls-2" d="M101.86,264.75c3.44,0,4.92-2.46,4.92-5.41v-29.53c0-3.44-1.48-5.91-4.92-5.91s-4.92,2.46-4.92,5.91v29.53c.49,2.95,1.97,5.41,4.92,5.41"/><polygon class="cls-2" points="163.87 232.27 163.87 232.27 160.42 254.41 167.31 254.41 163.87 232.27"/><path class="cls-2" d="M138.28,258.84v-29.03c.49-2.46-1.48-4.92-4.43-5.41h-4.92v39.86h3.94c3.94,0,5.41-2.46,5.41-5.41"/><path class="cls-2" d="M181.09,307.56c0,.49-.49,.98-.98,.98H87.59c-.49,0-.98-.49-.98-.98v-14.76c0-.49,.49-.98,.98-.98h92.51c.49,0,.98,.49,.98,.98v14.76Zm0,25.59c0,.49-.49,.98-.98,.98H87.59c-.49,0-.49-.49-.49-.98v-14.76c0-.49,.49-.98,.98-.98h92.51c.49,0,.98,.49,.98,.98v14.76h-.49Zm-93.01-102.36c0-8.37,4.43-14.76,13.78-14.76s13.78,6.4,13.78,14.76v26.57c0,8.37-4.43,14.76-13.78,14.76s-13.78-6.4-13.78-14.76v-26.57Zm31.49-13.78h14.27c9.84,0,13.29,6.4,13.29,14.76v25.1c0,8.37-3.44,14.76-13.29,14.76h-13.78l-.49-54.62Zm39.37,0h10.33l10.33,54.62h-9.35l-1.48-9.84h-9.84l-1.48,9.84h-8.37l9.84-54.62Zm-87.1,139.26h124.5V182.57H71.85v173.71Z"/><polygon class="cls-2" points="62 203.73 53.15 203.73 53.15 377.44 177.65 377.44 177.65 366.61 62 366.61 62 203.73"/><path class="cls-2" d="M313.96,463.56l-44.78,35.43c-.49,.49-.98,.49-1.97,.49-.98-.49-1.48-.98-1.48-1.97v-17.72h-114.17c-.98,0-1.48-.98-1.48-1.97v-30.51c0-.98,.49-1.97,1.48-1.97h114.17v-17.72c0-1.48,.49-1.97,1.48-1.97,.49,0,1.48,0,1.97,.49l44.29,33.95c.98,.49,1.48,1.48,1.48,2.46-.49,0-.49,.49-.98,.98"/></g></svg>