<?xml version="1.0" encoding="UTF-8"?><svg id="Capa_1" xmlns="http://www.w3.org/2000/svg" viewBox="0 0 467 568.37"><defs><style>.cls-1{fill:#fff;}.cls-2{fill:#e4003b;}</style></defs><path class="cls-2" d="M4.92,80.7H461.59V4.92H4.92V80.7Zm462.08,4.92H0V0H466.51V85.62h.49Z"/><polygon class="cls-2" points="16.73 17.72 38.88 17.72 38.88 24.6 32.48 24.6 32.48 67.91 23.62 67.91 23.62 24.6 16.73 24.6 16.73 17.72"/><path class="cls-2" d="M49.21,52.16h6.89l-3.44-20.18-3.44,20.18Zm-10.33,15.75l9.35-50.19h9.35l9.84,50.19h-8.86l-1.48-9.35h-8.86l-1.48,9.35h-7.87Z"/><path class="cls-2" d="M80.21,24.6v15.75h2.95c2.95,0,3.94-1.48,3.94-3.94v-7.38c0-2.95-1.48-3.94-3.94-3.94h-2.95v-.49Zm0,20.18v23.13h-8.37V17.72h12.3c8.37,0,11.81,4.43,11.81,11.32v6.4c0,5.41-1.97,8.37-6.89,9.84l7.87,22.64h-8.86l-7.87-23.13Z"/><path class="cls-2" d="M113.67,41.34h11.81v26.57h-5.91v-5.41c-.98,3.94-3.44,5.91-7.87,5.91-7.38,0-10.33-5.91-10.33-13.29V31c0-7.87,3.94-13.29,12.79-13.29,9.35,0,11.81,5.41,11.81,12.79v4.43h-7.87v-4.92c0-2.95-.98-4.92-4.43-4.92-2.95,0-4.43,1.97-4.43,4.92v27.07c0,2.95,1.48,4.92,3.94,4.92,2.95,0,3.94-1.48,3.94-4.92v-9.35h-3.94v-6.4h.49Z"/><polygon class="cls-2" points="132.37 17.72 152.55 17.72 152.55 24.6 140.74 24.6 140.74 38.88 149.11 38.88 149.11 45.77 140.74 45.77 140.74 61.02 152.55 61.02 152.55 67.91 132.37 67.91 132.37 17.72"/><polygon class="cls-2" points="156.49 17.72 178.63 17.72 178.63 24.6 171.74 24.6 171.74 67.91 163.38 67.91 163.38 24.6 156.49 24.6 156.49 17.72"/><polygon class="cls-2" points="395.65 17.72 395.65 67.91 387.28 67.91 387.28 29.53 381.38 35.43 381.38 27.07 389.25 18.21 395.65 18.21 395.65 17.72"/><path class="cls-2" d="M410.9,36.91c3.44,0,5.91,2.95,5.91,5.91,0,3.44-2.95,5.91-5.91,5.91-3.44,0-5.91-2.95-5.91-5.91s2.46-5.91,5.91-5.91"/><path class="cls-2" d="M447.81,28.54v4.43c0,4.43-2.46,6.89-5.91,8.37,4.43,.98,6.4,3.94,6.4,8.37v7.38c0,6.89-3.94,11.32-12.3,11.32s-11.81-4.92-11.81-12.3v-6.4h7.87v7.38c0,2.95,.98,4.92,3.94,4.92,2.46,0,3.94-1.97,3.94-4.43v-8.37c0-2.46-.98-3.94-3.94-3.94h-3.44v-6.4h2.95c2.95,0,4.43-1.48,4.43-3.94v-5.91c0-2.95-.98-4.43-3.44-4.43s-3.44,1.97-3.44,4.92v4.92h-7.87v-4.43c0-7.38,2.95-12.79,11.81-12.79,7.38,0,10.83,4.43,10.83,11.32"/><g><rect class="cls-2" x="0" y="101.86" width="466.51" height="466.51"/><path class="cls-1" d="M364.15,310.51c8.86,0,15.75-6.89,15.75-15.75s-6.89-15.75-15.75-15.75-15.75,6.89-15.75,15.75,6.89,15.75,15.75,15.75"/><path class="cls-1" d="M384.82,378.91c0,11.32-9.35,20.67-20.67,20.67s-20.67-9.35-20.67-20.67,9.35-20.67,20.67-20.67,20.67,9.35,20.67,20.67m24.11-5.91l-13.29-42.32s-4.43-12.3-14.76-12.3h-33.46c-10.33,0-14.76,12.3-14.76,12.3l-13.29,42.32s-2.46,7.87,4.43,9.84c6.89,1.97,8.37-5.91,8.37-5.91l10.33-35.43s.49-2.95,2.46-1.97c1.97,.98,1.48,3.44,1.48,3.44l-18.21,66.43h17.22v47.73c.49,4.43,4.43,7.87,8.86,7.38,3.94-.49,7.38-3.44,7.38-7.38v-47.73h4.43v47.73c0,4.43,3.44,8.37,8.37,8.37,4.43,0,8.37-3.44,8.37-8.37v-47.73h17.22l-18.7-66.43s-.98-2.95,1.48-3.44c2.46-.49,2.46,1.97,2.46,1.97l10.33,35.43s1.97,7.38,8.37,5.91c6.4-1.48,4.92-9.84,4.92-9.84"/><path class="cls-1" d="M369.56,369.56c-1.97,0-4.43,1.97-5.41,3.44-1.48-1.48-3.44-3.44-5.41-3.44-3.94,0-6.89,3.44-6.4,6.89,0,1.97,.98,3.44,1.97,4.92l9.84,9.84,9.84-9.84c1.48-1.48,1.97-2.95,1.97-4.92,.49-3.44-2.46-6.89-6.4-6.89,.49,0,0,0,0,0"/><path class="cls-1" d="M236.7,335.61c9.35,0,16.73-7.38,16.73-16.73s-7.38-16.73-16.73-16.73-16.73,7.38-16.73,16.73,7.38,16.73,16.73,16.73"/><path class="cls-1" d="M306.58,438.46l-7.38-13.78v-.49l-16.73-32.97c-1.48-2.95-4.92-4.92-7.87-4.43h-23.62l-.49-30.02c0-8.86-2.46-14.27-9.35-16.24-3.44-.49-6.89-.49-10.33,0h-.98l-28.05,8.86h-.49l-.49,.49h-.49c-1.48,.98-2.46,1.97-2.95,3.44l-7.87,22.64c-1.48,3.44,.49,7.87,4.43,9.35,3.44,1.48,7.87-.49,9.35-4.43l6.89-18.7,10.83-3.44h.49v31.49c0,6.89,2.46,14.27,9.35,16.24l2.46,.49c.98,0,2.46,.49,3.44,.49h35.43l9.35,18.21v.98l3.44,6.4,3.44,6.4s0,.49,.49,.49l3.44,6.89c1.97,4.43,7.38,6.4,11.81,4.43,4.43-1.97,6.4-7.38,4.43-11.81-1.97-.49-1.97-.98-1.97-.98"/><path class="cls-1" d="M255.4,418.77v1.48c0,18.7-15.26,33.95-33.95,33.95s-33.95-15.25-33.95-33.95c0-7.87,2.46-15.25,7.38-21.16l-8.37-6.89c-15.25,19.19-11.81,47.73,7.87,62.5,19.19,15.25,47.73,11.81,62.5-7.87,5.91-7.87,9.35-17.72,9.35-27.56v-1.48h-10.83v.98Z"/><path class="cls-1" d="M112.69,319.86c8.37,0,15.25-6.89,15.25-15.25,0-5.41-2.95-10.33-7.87-13.29,.49-.98,.98-1.97,.98-2.95-.49-3.94-3.94-6.4-7.38-5.91-3.94-.49-7.38,2.46-7.87,5.91,0,.98,0,1.48,.49,2.46-7.38,3.44-10.83,12.79-7.38,20.18,2.95,5.41,8.37,8.86,13.78,8.86"/><path class="cls-1" d="M155.99,375.47l-12.79-40.84s-4.43-11.81-14.76-11.81h-31.49c-9.84,0-14.76,11.81-14.76,11.81l-12.79,40.84s-1.97,6.4,2.46,8.86v.49l-14.76,77.26c-.49,.98,.49,2.46,1.97,2.46h.49c.98,0,1.97-.98,2.46-1.97l14.76-77.26v-.49c3.94-.49,5.41-5.41,5.41-5.41l10.33-34.45s.49-2.46,2.46-1.97c1.97,.49,.98,3.44,.98,3.44l-17.72,64.46h16.24v45.77c0,4.43,3.44,7.87,7.87,7.87s7.87-3.44,7.87-7.87v-45.77h4.43v45.77c.49,4.43,3.94,7.38,8.37,7.38,3.94-.49,6.89-3.44,7.38-7.38v-45.77h16.24l-17.72-64.46s-.49-2.95,.98-3.44c1.48-.49,2.46,1.97,2.46,1.97l10.33,34.45s1.97,7.38,8.37,5.41c6.4-1.97,4.92-9.35,4.92-9.35"/><path class="cls-1" d="M428.62,227.35l-192.9-83.16c-.49-.49-1.48-.49-1.97-.49s-.98,0-1.48,.49L39.37,227.35c-.98,.49-.98,.98-.98,1.97v19.68c0,1.48,0,3.44,2.46,2.46l192.41-79.72c.49-.49,1.48-.49,1.97,0l192.41,79.23c2.46,.98,2.46-.49,2.46-2.46v-19.68c-.49-.49-.98-.98-1.48-1.48"/><path class="cls-1" d="M40.35,508.34H426.16c1.48,0,2.95,1.48,2.95,2.95v17.72c0,1.48-1.48,2.95-2.95,2.95H40.35c-1.48,0-2.95-1.48-2.95-2.95v-17.72c0-1.48,1.48-2.95,2.95-2.95"/></g></svg>