<?xml version="1.0" encoding="UTF-8"?><svg id="Capa_1" xmlns="http://www.w3.org/2000/svg" viewBox="0 0 467 568.37"><defs><style>.cls-1{fill:#fff;}.cls-2{fill:#e5006a;}</style></defs><path class="cls-2" d="M4.92,80.7H461.59V4.92H4.92V80.7Zm462.08,4.92H0V0H466.51V85.62h.49Z"/><polygon class="cls-2" points="16.73 17.72 38.88 17.72 38.88 24.6 32.48 24.6 32.48 67.91 23.62 67.91 23.62 24.6 16.73 24.6 16.73 17.72"/><path class="cls-2" d="M49.21,52.16h6.89l-3.44-20.18-3.44,20.18Zm-10.33,15.75l9.35-50.19h9.35l9.84,50.19h-8.86l-1.48-9.35h-8.86l-1.48,9.35h-7.87Z"/><path class="cls-2" d="M80.21,24.6v15.75h2.95c2.95,0,3.94-1.48,3.94-3.94v-7.38c0-2.95-1.48-3.94-3.94-3.94h-2.95v-.49Zm0,20.18v23.13h-8.37V17.72h12.3c8.37,0,11.81,4.43,11.81,11.32v6.4c0,5.41-1.97,8.37-6.89,9.84l7.87,22.64h-8.86l-7.87-23.13Z"/><path class="cls-2" d="M113.67,41.34h11.81v26.57h-5.91v-5.41c-.98,3.94-3.44,5.91-7.87,5.91-7.38,0-10.33-5.91-10.33-13.29V31c0-7.87,3.94-13.29,12.79-13.29,9.35,0,11.81,5.41,11.81,12.79v4.43h-7.87v-4.92c0-2.95-.98-4.92-4.43-4.92-2.95,0-4.43,1.97-4.43,4.92v27.07c0,2.95,1.48,4.92,3.94,4.92,2.95,0,3.94-1.48,3.94-4.92v-9.35h-3.94v-6.4h.49Z"/><polygon class="cls-2" points="132.37 17.72 152.55 17.72 152.55 24.6 140.74 24.6 140.74 38.88 149.11 38.88 149.11 45.77 140.74 45.77 140.74 61.02 152.55 61.02 152.55 67.91 132.37 67.91 132.37 17.72"/><polygon class="cls-2" points="156.49 17.72 178.63 17.72 178.63 24.6 171.74 24.6 171.74 67.91 163.38 67.91 163.38 24.6 156.49 24.6 156.49 17.72"/><polygon class="cls-2" points="373.99 17.72 373.99 67.91 365.63 67.91 365.63 29.53 359.72 35.43 359.72 27.07 367.6 18.21 373.99 18.21 373.99 17.72"/><path class="cls-2" d="M397.61,56.59V29.53c0-2.95-.98-4.92-3.94-4.92s-3.94,1.97-3.94,4.92v27.07c0,2.95,.98,4.92,3.94,4.92s3.94-1.97,3.94-4.92m-16.73-1.48V31c0-7.87,3.94-13.29,12.3-13.29s12.3,5.91,12.3,13.29v24.11c0,7.87-3.94,13.29-12.3,13.29s-12.3-5.41-12.3-13.29"/><path class="cls-2" d="M419.76,36.91c3.44,0,5.91,2.95,5.91,5.91,0,3.44-2.95,5.91-5.91,5.91-3.44,0-5.91-2.95-5.91-5.91s2.46-5.91,5.91-5.91"/><polygon class="cls-2" points="446.82 17.72 446.82 67.91 438.46 67.91 438.46 29.53 432.55 35.43 432.55 27.07 440.43 18.21 446.82 18.21 446.82 17.72"/><g><rect class="cls-2" x="0" y="101.86" width="466.51" height="466.51"/><path class="cls-1" d="M259.83,235.71c.49-2.95,2.46-5.91,4.92-7.38,1.97,1.97,4.43,3.44,6.4,4.92,11.81,6.4,31.49,10.83,54.13,10.83,15.75,.49,31.49-1.97,46.26-7.38,1.97-.49,3.94-1.48,5.91-2.46,0,.49,.49,.98,.49,1.48,0,9.35-24.11,19.68-59.05,19.68s-59.05-10.33-59.05-19.68m65.94-51.18c34.94,0,59.05,10.33,59.05,19.68s-24.11,19.68-59.05,19.68-59.05-10.33-59.05-19.68,24.11-19.68,59.05-19.68m-6.4,90.55c35.92,0,65.45-10.83,65.45-24.11,0,0,.98-12.3,.49-15.25,0-1.48-.49-3.44-.98-4.92,3.94-2.46,6.89-6.4,7.38-10.83,0,0,.49-13.78,.49-16.73-1.48-16.24-34.45-25.1-65.94-25.1s-65.94,9.35-65.94,26.57c0,.98,.49,15.25,.49,15.25,0,.98,.49,1.97,.98,2.95-4.92,2.95-7.87,7.87-8.37,13.29,0,.98,.49,15.25,.49,15.25,0,3.94,1.97,7.38,4.92,9.35,6.89,5.41,19.19,10.33,34.94,12.79,8.37,.98,16.73,1.48,25.59,1.48"/><path class="cls-1" d="M391.22,261.8c-.49-.98-.98-1.97-1.48-2.46s-.98-.98-1.48-1.48c-.98-.49-1.97-.98-2.95-1.48-.98,1.48-1.97,2.95-2.95,3.94,.98,.49,1.97,.98,2.46,1.48,1.97,.98,2.95,2.95,2.95,4.92,0,1.48-.98,3.44-2.46,4.43-.98,.49-1.48,1.48-2.46,1.97-.49,0-2.95,1.48-3.94,1.97-.98,.49-3.94,1.97-5.91,2.46,0,0-3.94,1.48-5.91,1.97-.49,0-5.91,1.48-7.87,1.97-.49,0-6.89,.98-9.84,1.48-.98,0-7.38,.98-10.33,.98-.98,0-10.83,.49-15.26,.49-6.89,0-13.78-.49-20.67-1.48-4.92-.49-10.33-1.48-14.76-2.46-5.41-.98-10.83-2.95-15.75-4.92-2.95-1.48-5.91-3.44-7.87-5.41-1.97-1.97-3.44-4.43-4.92-6.89v15.75c0,3.94,1.97,7.38,4.92,9.35,6.4,5.91,19.19,10.33,34.94,12.79,8.37,1.48,16.73,1.97,25.59,1.97,12.3,0,25.1-.98,36.91-3.94h.49c6.4-1.48,12.79-3.94,18.7-7.38,1.48-.98,2.95-1.97,3.94-2.95,1.97-1.48,3.94-3.94,4.92-6.4,.49-.98,.49-2.46,.49-3.44,0,0,.49-13.78,.49-14.27,.49-.49,.49-1.97,0-2.95"/><path class="cls-1" d="M383.84,319.37c-4.43,2.95-9.35,4.92-14.27,6.4-14.27,3.94-29.53,5.91-44.78,5.41-7.38,0-14.76-.49-22.14-1.48-4.43-.98-8.86-1.48-13.78-2.95-2.46-.49-4.43-.98-6.4-1.97-6.4-1.97-12.3-4.43-17.22-8.37-1.97-1.48-3.44-3.44-4.92-5.41v14.76c0,3.94,1.97,7.38,4.92,9.35,6.4,5.91,19.19,10.33,34.94,12.79,8.37,1.48,16.73,1.97,25.59,1.97,12.3,0,25.1-1.48,37.4-3.94h.49c6.4-1.48,12.79-3.94,18.7-7.38,5.91-3.94,9.84-7.87,9.84-12.79,0,0,.49-13.29,.49-14.27-2.95,3.44-5.91,5.91-8.86,7.87"/><path class="cls-1" d="M265.24,311.99c6.4,5.91,19.19,10.33,34.94,12.79,8.37,1.48,16.73,1.97,25.59,1.97,12.3,0,24.6-1.48,36.42-3.94h.49c6.4-1.48,12.79-3.94,18.7-7.38,1.48-.98,2.95-1.97,3.94-2.95,1.97-1.48,3.94-3.94,4.92-6.4,.49-.98,.49-2.46,.49-3.44,0,0,.49-13.29,.49-14.27-1.97,2.95-7.87,11.32-33.46,16.73-10.83,1.97-22.14,2.95-33.46,2.95-20.67-.49-42.81-3.94-52.16-10.33-2.95-1.48-5.91-3.44-8.37-5.91-1.48-1.48-2.95-2.95-3.94-4.92v15.75c0,4.43,2.46,7.38,5.41,9.35"/><path class="cls-1" d="M391.71,358.74c-1.97,2.95-4.92,5.41-7.87,7.38-4.43,2.95-9.35,4.92-14.27,6.4-14.27,3.94-29.53,5.91-44.78,5.41-7.38,0-14.76-.49-22.14-1.48-4.92-.49-8.86-1.48-13.29-2.46-2.46-.49-4.43-.98-6.4-1.97-6.4-1.97-12.3-4.43-17.22-8.37-1.97-1.48-3.44-3.44-4.92-5.41v14.76c0,3.94,1.97,7.38,4.92,9.35,6.4,5.91,19.19,10.33,34.94,12.79,8.37,1.48,16.73,1.97,25.59,1.97,12.3,0,24.6-1.48,36.91-3.94h.49c6.4-1.48,12.79-3.94,18.7-7.38,5.91-3.94,9.84-7.87,9.84-12.79-.49,0,0-13.29-.49-14.27"/><path class="cls-1" d="M300.18,372.03c8.37,1.48,16.73,1.97,25.59,1.97,12.3,0,24.6-1.48,36.42-3.94h.49c6.4-1.48,12.79-3.94,18.7-6.89,1.48-.98,2.95-1.97,3.94-2.95,1.97-1.48,3.94-3.94,4.92-6.4,.49-.98,.49-2.46,.49-3.44,0,0,.49-13.29,.49-14.27-1.97,2.95-7.87,11.32-33.46,16.73-10.83,1.97-22.14,2.95-33.46,2.95-20.67-.49-42.81-3.94-52.16-10.33-2.95-2.46-5.41-4.43-7.87-6.4-1.48-1.48-2.95-2.95-3.94-4.92v6.4l.49,9.35c0,3.44,1.97,6.89,4.92,9.35,6.4,5.41,19.19,10.33,34.45,12.79"/><path class="cls-1" d="M384.82,412.87c-4.43,2.95-9.35,4.92-14.27,6.4-14.27,3.94-29.53,5.91-44.78,5.41-7.38,0-14.76-.49-22.14-1.48-4.43-.49-8.86-1.48-13.29-2.46-2.46-.49-4.43-.98-6.4-1.97-6.4-1.97-12.3-4.43-17.22-8.37-1.97-1.48-3.44-3.44-4.92-5.41v14.76c0,3.94,1.97,7.38,4.92,9.35,6.4,5.91,19.19,10.33,34.94,12.79,8.37,1.48,16.73,1.97,25.59,1.97,12.3,0,24.6-1.48,36.42-3.94h.49c6.89-1.48,13.29-3.94,19.19-7.38,5.91-3.94,9.84-7.87,9.84-12.79,0,0,.49-13.29,.49-14.27-3.44,2.95-5.91,5.41-8.86,7.38"/><path class="cls-1" d="M266.22,405.98c6.4,5.91,19.19,10.33,34.94,12.79,8.37,1.48,16.73,1.97,25.59,1.97,12.3,0,24.6-.98,36.42-3.94h.49c6.4-1.48,12.79-3.94,18.7-7.38,1.48-.98,2.95-1.97,3.94-2.95,1.97-1.48,3.94-3.94,4.92-6.4,.49-.98,.49-2.46,.49-3.44,0,0,.49-13.29,.49-14.27-1.97,2.95-7.87,11.32-33.46,16.73-10.83,1.97-22.14,2.95-33.46,2.95-20.67-.49-42.81-3.94-52.16-10.33-2.95-1.48-5.91-3.44-8.37-5.41-1.48-1.48-2.95-2.95-3.94-4.92v15.75c.49,3.44,2.46,6.89,5.41,8.86"/><path class="cls-1" d="M392.69,452.24c-1.97,2.95-4.92,5.41-7.87,7.38-4.43,2.95-9.35,4.92-14.27,6.4-14.27,3.94-29.53,5.91-44.78,5.41-7.38,0-14.76-.49-22.14-1.48-4.92-.49-8.86-1.48-13.29-2.46-2.46-.49-4.43-.98-6.4-1.97-6.4-1.97-12.3-4.43-17.22-8.37-1.97-1.48-3.44-2.95-4.92-5.41v14.76c0,3.94,1.97,7.38,4.92,9.35,6.4,5.91,19.19,10.33,34.94,12.79,8.37,1.48,16.73,1.97,25.59,1.97,12.3,0,24.6-1.48,36.42-3.94h.49c6.4-1.48,12.79-3.94,18.7-7.38,5.91-3.94,9.84-7.87,9.84-12.79,0,0,.49-12.79,0-14.27"/><path class="cls-1" d="M301.16,465.52c8.37,1.48,16.73,1.97,25.59,1.97,12.3,0,24.6-1.48,36.42-3.94h.49c6.4-1.48,12.79-3.94,18.7-7.38,1.48-.98,2.95-1.97,3.94-2.95,1.97-1.48,3.94-3.94,4.92-6.4,.49-.98,.98-2.46,.98-3.44,0,0,.49-13.29,.49-14.27-1.97,2.95-7.87,11.32-33.46,16.73-10.83,1.97-22.14,2.95-33.46,2.95-20.67-.49-42.81-3.94-52.16-10.33-2.95-1.48-5.91-3.44-8.37-5.41-1.48-1.48-2.95-2.95-3.94-4.92v15.75c.49,3.44,1.97,6.89,4.92,9.35,6.89,5.41,19.19,9.84,34.94,12.3"/><path class="cls-1" d="M81.69,425.66c.49-2.95,2.46-5.91,4.92-7.38,1.97,1.97,4.43,3.44,6.89,4.92,11.81,6.4,31.49,10.83,54.13,10.83,15.75,.49,31.49-1.97,46.75-6.89,1.97-.98,3.94-1.48,5.91-2.46,0,.49,.49,.98,.49,1.48,0,9.35-24.11,19.68-59.05,19.68s-60.04-10.83-60.04-20.18m65.94-51.18c34.94,0,59.05,10.33,59.05,19.68s-24.11,19.68-59.05,19.68-59.05-10.33-59.05-19.68,24.11-19.68,59.05-19.68m-6.89,90.55c35.92,0,65.45-10.83,65.45-24.11,0,0,.98-12.3,.49-15.25,0-1.48-.49-3.44-.98-4.92,3.94-2.46,6.89-6.4,7.38-10.83,0,0,.49-13.78,.49-16.73-1.48-16.73-34.45-25.59-65.94-25.59s-65.94,9.35-65.94,26.57c0,.98,.49,15.25,.49,15.25,0,.98,.49,1.97,.98,2.95-4.92,2.95-7.87,7.87-8.37,13.29,0,.98,.49,15.25,.49,15.25,0,3.94,1.97,7.38,4.92,9.35,6.89,5.91,19.19,10.33,34.94,12.79,8.37,.98,17.22,1.97,25.59,1.97"/><path class="cls-1" d="M213.08,451.74c-.49-.98-.98-1.97-1.48-2.46-.49-.49-.98-.98-1.48-1.48-.98-.49-1.97-.98-2.46-1.48-.98,1.48-1.97,2.95-2.95,3.94,.98,.49,1.97,.98,2.46,1.48,1.97,.98,2.95,2.95,2.95,4.92,0,1.48-.98,3.44-2.46,4.43-.98,.49-1.48,1.48-2.46,1.97-.49,0-2.46,1.48-3.94,1.97s-3.94,1.97-5.91,2.46c0,0-3.94,1.48-5.91,1.97-.49,0-5.91,1.48-7.87,1.97-.49,0-6.89,.98-9.84,1.48-.98,0-7.38,.98-10.33,.98-.98,0-10.83,.49-15.25,.49-6.89,0-13.78-.49-20.67-1.48-4.92-.98-10.33-1.48-14.76-2.95-5.41-.98-10.83-2.95-15.75-4.92-2.95-1.48-5.91-3.44-7.87-5.41-1.97-1.97-3.44-4.43-4.92-6.89v16.24c0,3.94,1.97,7.38,4.92,9.35,6.4,5.91,19.19,10.33,34.94,12.79,8.37,1.48,16.73,1.97,25.59,1.97,12.3,0,24.6-1.48,36.42-3.94h.49c6.4-1.48,12.79-3.94,18.7-7.38,1.48-.98,2.95-1.97,3.94-2.95,1.97-1.48,3.94-3.94,4.92-6.4,.49-.98,.49-2.46,.49-3.44,0,0,.49-13.78,.49-14.27v-2.95Z"/><path class="cls-1" d="M143.2,180.6l41.83,53.15c.49,.98,.49,1.97,.49,2.46-.49,.98-.98,1.48-2.46,1.48h-21.16v94.48c0,.98-.98,1.97-1.97,1.97h-36.42c-.98,0-1.97-.49-1.97-1.97v-94.48h-21.16c-1.48,0-2.46-.49-2.46-1.48s0-1.48,.49-2.46l40.35-52.65c.49-.98,1.48-1.48,2.95-1.48,0,0,.98,.49,1.48,.98"/></g></svg>