<?xml version="1.0" encoding="UTF-8"?><svg id="Capa_1" xmlns="http://www.w3.org/2000/svg" viewBox="0 0 467 568.37"><defs><style>.cls-1{fill:#f49400;}.cls-2{fill:#fff;}</style></defs><path class="cls-1" d="M4.92,80.7H461.59V4.92H4.92V80.7Zm462.08,4.92H0V0H466.51V85.62h.49Z"/><polygon class="cls-1" points="16.73 17.72 38.88 17.72 38.88 24.6 32.48 24.6 32.48 67.91 23.62 67.91 23.62 24.6 16.73 24.6 16.73 17.72"/><path class="cls-1" d="M49.21,52.16h6.89l-3.44-20.18-3.44,20.18Zm-10.33,15.75l9.35-50.19h9.35l9.84,50.19h-8.86l-1.48-9.35h-8.86l-1.48,9.35h-7.87Z"/><path class="cls-1" d="M80.21,24.6v15.75h2.95c2.95,0,3.94-1.48,3.94-3.94v-7.38c0-2.95-1.48-3.94-3.94-3.94h-2.95v-.49Zm0,20.18v23.13h-8.37V17.72h12.3c8.37,0,11.81,4.43,11.81,11.32v6.4c0,5.41-1.97,8.37-6.89,9.84l7.87,22.64h-8.86l-7.87-23.13Z"/><path class="cls-1" d="M113.67,41.34h11.81v26.57h-5.91v-5.41c-.98,3.94-3.44,5.91-7.87,5.91-7.38,0-10.33-5.91-10.33-13.29V31c0-7.87,3.94-13.29,12.79-13.29,9.35,0,11.81,5.41,11.81,12.79v4.43h-7.87v-4.92c0-2.95-.98-4.92-4.43-4.92-2.95,0-4.43,1.97-4.43,4.92v27.07c0,2.95,1.48,4.92,3.94,4.92,2.95,0,3.94-1.48,3.94-4.92v-9.35h-3.94v-6.4h.49Z"/><polygon class="cls-1" points="132.37 17.72 152.55 17.72 152.55 24.6 140.74 24.6 140.74 38.88 149.11 38.88 149.11 45.77 140.74 45.77 140.74 61.02 152.55 61.02 152.55 67.91 132.37 67.91 132.37 17.72"/><polygon class="cls-1" points="156.49 17.72 178.63 17.72 178.63 24.6 171.74 24.6 171.74 67.91 163.38 67.91 163.38 24.6 156.49 24.6 156.49 17.72"/><path class="cls-1" d="M423.7,55.11V31c0-7.87,3.94-13.29,12.3-13.29,9.35,0,11.81,5.41,11.81,12.79v5.91h-7.87v-7.38c0-2.95-.98-4.92-3.94-4.92s-4.43,1.97-4.43,4.92v27.07c0,2.95,1.48,4.92,4.43,4.92s3.94-1.97,3.94-4.92v-9.35h7.87v8.86c0,7.38-2.95,12.3-11.81,12.3-8.37,.49-12.3-4.92-12.3-12.79"/><polygon class="cls-1" points="372.03 17.72 372.03 67.91 363.66 67.91 363.66 29.53 357.75 35.43 357.75 27.07 365.63 18.21 372.03 18.21 372.03 17.72"/><polygon class="cls-1" points="391.71 17.72 391.71 67.91 383.34 67.91 383.34 29.53 377.44 35.43 377.44 27.07 385.31 18.21 391.71 18.21 391.71 17.72"/><polygon class="cls-1" points="404.01 32.48 404.01 53.15 414.84 42.81 404.01 32.48"/><g><rect class="cls-1" y="101.86" width="466.51" height="466.51"/><path class="cls-2" d="M405.98,374.98c-7.87-5.91-17.72-9.35-28.05-9.35-2.46,0-4.43,0-6.89,.49h-.49c-6.89,1.48-17.72,3.94-31,20.18l-.49,.49c0,.49-.49,.49-.49,.98v.98l.49,.49c1.97,3.44,3.94,6.89,5.41,9.35,.49,.98,1.48,.98,2.46,.49,0,0,.49,0,.49-.49v-.49c11.32-15.75,20.18-17.72,25.59-18.7h.49c.98,0,2.46-.49,3.44-.49,6.89,0,13.78,1.97,19.68,6.4,6.89,6.4,10.83,15.25,9.84,24.6,0,18.7-8.86,25.59-16.24,28.54-2.95,.98-5.91,1.48-9.35,1.48-4.92,0-9.35-.98-13.78-2.95l-.49-.49c-6.4-2.95-16.24-8.86-25.1-27.07-18.7-37.89-34.45-41.34-44.78-43.3h-.49c-2.46-.49-4.43-.49-6.89-.49-9.84,0-19.68,2.95-27.56,8.86-6.89,5.41-14.76,15.75-14.76,35.43-1.48,22.64,16.24,41.83,38.38,43.3h2.95c2.95,0,6.4-.49,9.35-.98,5.91-1.48,11.32-3.94,16.24-7.38l5.41,4.92c.49,.49,1.48,.49,1.97,0s.49-.49,.49-.98l4.43-26.08v-.49c0-.49,0-.98-.49-.98q-.49-.49-.98-.49l-25.59,6.89h-.49c-.49,0-.49,.49-.98,.49q-.49,.49-.49,.98c0,.49,0,.98,.49,.98l5.41,4.92c-2.46,1.48-5.41,2.95-8.37,3.44-2.46,.49-4.43,.49-6.89,.49-8.37,0-16.24-3.44-21.65-9.84-4.43-5.41-6.4-12.79-5.91-19.68-.98-9.35,2.95-18.21,9.84-24.6,5.41-3.94,12.3-5.91,18.7-5.91,.98,0,2.46,0,3.44,.49h.49c8.37,1.97,19.68,4.43,35.43,36.42,8.37,16.73,18.7,27.56,31.99,33.46,6.4,2.95,13.29,4.92,20.18,4.92,4.92,0,9.35-.98,14.27-2.46,7.87-2.95,25.59-12.79,25.59-41.83,.98-19.19-7.38-29.53-14.27-34.94"/><path class="cls-2" d="M308.05,216.52h41.83c2.95,0,5.41,2.46,5.41,5.41v22.14c0,2.95-2.46,5.41-5.41,5.41h-41.83c-2.95,0-5.41-2.46-5.41-5.41v-22.14c0-2.95,1.97-5.41,5.41-5.41"/><path class="cls-2" d="M252.94,298.7h41.83c2.95,0,5.41,2.46,5.41,5.41v22.64c0,2.95-2.46,5.41-5.41,5.41h-41.83c-2.95,0-5.41-2.46-5.41-5.41v-22.64c0-2.95,2.46-5.41,5.41-5.41"/><path class="cls-2" d="M313.96,298.7h41.83c2.95,0,5.41,2.46,5.41,5.41v22.64c0,2.95-2.46,5.41-5.41,5.41h-41.83c-2.95,0-5.41-2.46-5.41-5.41v-22.64c0-2.95,2.46-5.41,5.41-5.41"/><path class="cls-2" d="M374.49,298.7h41.83c2.95,0,5.41,2.46,5.41,5.41v22.64c0,2.95-2.46,5.41-5.41,5.41h-41.83c-2.95,0-5.41-2.46-5.41-5.41v-22.64c-.49-2.95,1.97-5.41,5.41-5.41"/><path class="cls-2" d="M279.51,257.37h41.83c2.95,0,5.41,2.46,5.41,5.41v22.14c0,2.95-2.46,5.41-5.41,5.41h-41.83c-2.95,0-5.41-2.46-5.41-5.41v-22.14c0-2.95,2.46-5.41,5.41-5.41"/><path class="cls-2" d="M340.04,257.37h41.83c2.95,0,5.41,2.46,5.41,5.41v22.14c0,2.95-2.46,5.41-5.41,5.41h-41.83c-2.95,0-5.41-2.46-5.41-5.41v-22.14c-.49-2.95,1.97-5.41,5.41-5.41"/><path class="cls-2" d="M195.85,412.87l-35.43,28.05c-.49,.49-.98,.49-1.48,.49-.98,0-.98-.49-.98-1.97v-14.27H55.11c-.98,0-1.48-.49-.98-1.48v-24.6c0-.49,.49-1.48,.98-1.48h102.85v-13.78c0-.98,.49-1.48,.98-1.97,.49,0,.98,0,1.48,.49l35.43,27.07c.49,.49,.98,.98,.98,1.97s-.49,1.48-.98,1.48"/><path class="cls-2" d="M116.13,322.32c-2.46,1.48-4.92,2.46-7.38,3.44-7.38,1.97-15.25,2.95-23.62,2.95-3.94,0-7.87-.49-11.81-.98-2.46-.49-4.43-.98-6.89-1.48-.98-.49-2.46-.49-3.44-.98-3.44-.98-6.4-2.46-9.35-4.43-.98-.49-1.97-1.48-2.46-2.95v7.38c0,1.97,.98,3.94,2.95,4.92,5.41,3.94,11.81,6.4,18.21,6.89,4.43,.49,8.86,.98,13.29,.98,6.4,0,12.79-.49,19.19-1.97,3.44-.98,6.89-1.97,9.84-3.94,2.95-1.97,4.92-3.94,4.92-6.4v-7.38c-.98,1.97-2.46,2.95-3.44,3.94"/><path class="cls-2" d="M51.18,278.53c.49-1.48,1.48-2.95,2.46-3.94,.98,.98,2.46,1.97,3.44,2.46,8.86,3.94,18.7,5.91,28.54,5.41,8.37,0,16.24-.98,24.11-3.94,.98-.49,1.97-.98,2.95-1.48v.98c0,4.92-12.79,10.33-31,10.33s-30.51-4.92-30.51-9.84m34.45-26.57c18.21,0,31,5.41,31,10.33s-12.79,10.33-31,10.33-31-5.41-31-10.33,12.79-10.33,31-10.33m-3.44,47.24c18.7,0,34.45-5.91,34.45-12.79,0,0,.49-6.4,.49-7.87,0-.98,0-1.97-.49-2.46,1.97-.98,3.44-3.44,3.94-5.91,0,0,.49-7.38,0-8.86-.98-8.37-18.21-13.29-34.45-13.29s-34.45,4.92-34.45,13.78c0,.49,.49,7.87,.49,7.87,0,.49,0,.98,.49,1.48-2.46,1.48-3.94,3.94-4.43,6.89,0,.49,.49,7.87,.49,7.87,0,1.97,.98,3.94,2.95,4.92,5.41,3.94,11.81,6.4,18.21,6.89,3.44,.98,7.87,1.48,12.3,1.48"/><path class="cls-2" d="M72.34,325.28c4.43,.49,8.86,.98,13.29,.98,6.4,0,12.79-.49,19.19-1.97,3.44-.98,6.89-1.97,9.84-3.94,.98-.49,1.48-.98,1.97-1.48,.98-.98,1.97-1.97,2.46-3.44,0-.49,.49-.98,.49-1.97v-7.38c-.98,1.48-3.94,5.91-17.72,8.86-5.91,.98-11.81,1.48-17.22,1.48-9.35,0-18.7-1.97-27.07-5.41-1.48-.98-2.95-1.97-4.43-2.95-.98-.98-1.48-1.48-1.97-2.46v8.37c0,1.97,.98,3.94,2.95,4.92,5.41,3.94,11.81,5.91,18.21,6.4"/><path class="cls-2" d="M119.09,290.83q-.49-.49-.98-.98c-.49-.49-.98-.49-1.48-.98-.49,.98-.98,1.48-1.48,1.97,.49,0,.98,.49,1.48,.98,.98,.49,1.48,1.48,1.48,2.46s-.49,1.97-.98,2.46c-.49,.49-.98,.49-1.48,.98,0,0-1.48,.98-1.97,.98l-2.95,1.48-2.95,.98-3.94,.98c-.49,0-3.44,.49-5.41,.98l-5.41,.49-7.87,.49c-3.44,0-7.38-.49-10.83-.98-2.46-.49-5.41-.98-7.87-1.48-2.95-.49-5.41-1.48-8.37-2.46-1.48-.49-2.95-1.48-4.43-2.95-.98-.98-1.97-2.46-2.95-3.44v8.37c0,1.97,.98,3.94,2.95,4.92,5.41,3.94,11.81,6.4,18.21,6.89,4.43,.49,8.86,.98,13.29,.98,6.4,0,12.79-.49,19.19-1.97,3.44-.98,6.89-1.97,9.84-3.94,.98-.49,1.48-.98,1.97-1.48,.98-.98,1.97-1.97,2.46-3.44,0-.49,.49-.98,.49-1.97l.49-7.38v-1.48c0-.49,0-.98-.49-1.48"/><path class="cls-2" d="M129.91,253.92c.49-1.48,1.48-2.95,2.46-3.94,.98,.98,1.97,1.97,3.44,2.46,8.86,3.94,18.7,5.91,28.54,5.41,8.37,0,16.24-.98,24.11-3.94,.98-.49,1.97-.98,2.95-1.48v.98c0,4.92-12.79,10.33-31,10.33s-30.51-4.92-30.51-9.84m34.45-26.57c18.21,0,31,5.41,31,10.33s-12.79,10.33-31,10.33-31-5.41-31-10.33,12.79-10.33,31-10.33m-3.44,47.24c18.7,0,34.45-5.91,34.45-12.79,0,0,.49-6.4,0-7.87,0-.98,0-1.97-.49-2.46,1.97-.98,3.44-3.44,3.94-5.91,0,0,.49-7.38,0-8.86-.98-8.37-18.21-13.29-34.45-13.29s-34.45,4.92-34.45,13.78c0,.49,.49,7.87,.49,7.87,0,.49,0,.98,.49,1.48-2.46,1.48-3.94,3.94-3.94,6.89,0,.49,.49,7.87,.49,7.87,0,1.97,.98,3.94,2.46,4.92,5.41,3.94,11.81,5.91,18.21,6.89,3.94,.98,8.37,1.48,12.79,1.48"/><path class="cls-2" d="M198.81,267.7c0-.49-.49-.98-.98-1.48l-.98-.98c-.49-.49-.98-.49-1.48-.98-.49,.98-.98,1.48-1.48,1.97,.49,0,.98,.49,1.48,.98,.98,.49,1.48,1.48,1.48,2.46s-.49,1.97-.98,2.46c-.49,.49-.98,.49-1.48,.98l-1.97,.98s-1.97,.98-2.95,1.48c-.98,.49-1.97,.98-2.95,.98l-3.94,.98s-3.44,.49-5.41,.98l-5.41,.49c-.49,0-5.91,.49-7.87,.49-3.44,0-7.38-.49-10.83-.98-2.46-.49-5.41-.98-7.87-1.48-2.95-.49-5.41-1.48-8.37-2.46-1.48-.98-2.95-1.97-4.43-2.95-.98-.98-1.97-2.46-2.46-3.44v8.37c0,1.97,.98,3.94,2.46,4.92,5.41,3.94,11.81,5.91,18.21,6.89,4.43,.49,8.86,.98,13.29,.98,6.4,0,12.79-.49,19.19-1.97,3.44-.98,6.89-1.97,9.84-3.94,.49-.49,1.48-.98,1.97-1.48,.98-.98,1.97-1.97,2.46-3.44,0-.49,.49-.98,.49-1.97v-7.38c.98-.49,.98-.98,.98-1.48"/><path class="cls-2" d="M194.87,297.72c-2.46,1.48-4.92,2.46-7.38,3.44-7.38,1.97-15.25,3.44-23.62,2.95-3.94,0-7.87-.49-11.32-.98-2.46-.49-4.92-.98-6.89-1.48-.98-.49-2.46-.49-3.44-.98-3.44-.98-6.4-2.46-9.35-4.43-.98-.98-1.97-1.48-2.46-2.46v7.38c0,1.97,.98,3.94,2.46,4.92,5.41,3.94,11.81,5.91,18.21,6.89,4.43,.49,8.86,.98,13.29,.98,6.4,0,12.79-.49,19.19-1.97,3.44-.98,6.89-1.97,9.84-3.94,2.95-1.97,4.92-3.94,4.92-6.4,0,0,.49-6.89,0-7.38-.98,.98-1.97,2.46-3.44,3.44"/><path class="cls-2" d="M132.87,293.78c5.41,3.94,11.81,6.4,18.21,6.89,4.43,.49,8.86,.98,13.29,.98,6.4,0,12.79-.49,19.19-1.97,3.44-.98,6.89-1.97,9.84-3.94,.49-.49,1.48-.98,1.97-1.48,.98-.98,1.97-1.97,2.46-3.44,0-.49,.49-.98,.49-1.97v-7.38c-.98,1.48-3.94,5.91-17.72,8.86-5.91,.98-11.81,1.48-17.22,1.48-9.35,0-18.7-1.48-27.07-5.41-1.48-.98-2.95-1.97-4.43-2.95-.98-.98-1.48-1.48-1.97-2.46v8.37c.49,1.48,1.48,3.44,2.95,4.43"/><path class="cls-2" d="M199.3,318.39c-.98,1.48-2.46,2.95-3.94,3.94-2.46,1.48-4.92,2.46-7.38,3.44-7.38,1.97-15.25,2.95-23.62,2.95-3.94,0-7.87-.49-11.81-.98-2.46-.49-4.43-.98-6.89-1.48l-3.44-.98c-3.44-.98-6.4-2.46-9.35-4.43-.98-.49-1.97-1.48-2.46-2.46v7.38c0,1.97,.98,3.94,2.46,4.92,5.41,3.94,11.81,5.91,18.21,6.89,4.43,.49,8.86,.98,13.29,.98,6.4,0,12.79-.49,19.19-1.97,3.44-.98,6.89-1.97,9.84-3.94,3.44-1.97,4.92-3.94,4.92-6.4,.49-.49,.98-7.38,.98-7.87"/><path class="cls-2" d="M151.07,325.28c4.43,.49,8.86,.98,13.29,.98,6.4,0,12.79-.49,19.19-1.97,3.44-.98,6.89-1.97,9.84-3.94,.98-.49,1.48-.98,1.97-1.48,.98-.98,1.97-1.97,2.46-3.44,0-.49,.49-.98,.49-1.97v-7.38c-.98,1.48-3.94,5.91-17.72,8.86-5.91,.98-11.81,1.48-17.22,1.48-9.35,.49-18.7-1.48-27.56-5.41-1.48-.98-2.95-1.97-4.43-2.95-.98-.98-1.48-1.48-1.97-2.46v8.37c0,1.97,.98,3.94,2.46,4.92,5.91,3.44,12.3,5.91,19.19,6.4"/></g></svg>