<?xml version="1.0" encoding="UTF-8"?><svg id="Capa_1" xmlns="http://www.w3.org/2000/svg" viewBox="0 0 467 568.37"><defs><style>.cls-1{fill:#0096d6;}.cls-2{fill:#fff;}</style></defs><path class="cls-1" d="M4.92,80.7H461.59V4.92H4.92V80.7Zm462.08,4.92H0V0H466.51V85.62h.49Z"/><polygon class="cls-1" points="16.73 17.72 38.88 17.72 38.88 24.6 32.48 24.6 32.48 67.91 23.62 67.91 23.62 24.6 16.73 24.6 16.73 17.72"/><path class="cls-1" d="M49.21,52.16h6.89l-3.44-20.18-3.44,20.18Zm-10.33,15.75l9.35-50.19h9.35l9.84,50.19h-8.86l-1.48-9.35h-8.86l-1.48,9.35h-7.87Z"/><path class="cls-1" d="M80.21,24.6v15.75h2.95c2.95,0,3.94-1.48,3.94-3.94v-7.38c0-2.95-1.48-3.94-3.94-3.94h-2.95v-.49Zm0,20.18v23.13h-8.37V17.72h12.3c8.37,0,11.81,4.43,11.81,11.32v6.4c0,5.41-1.97,8.37-6.89,9.84l7.87,22.64h-8.86l-7.87-23.13Z"/><path class="cls-1" d="M113.67,41.34h11.81v26.57h-5.91v-5.41c-.98,3.94-3.44,5.91-7.87,5.91-7.38,0-10.33-5.91-10.33-13.29V31c0-7.87,3.94-13.29,12.79-13.29,9.35,0,11.81,5.41,11.81,12.79v4.43h-7.87v-4.92c0-2.95-.98-4.92-4.43-4.92-2.95,0-4.43,1.97-4.43,4.92v27.07c0,2.95,1.48,4.92,3.94,4.92,2.95,0,3.94-1.48,3.94-4.92v-9.35h-3.94v-6.4h.49Z"/><polygon class="cls-1" points="132.37 17.72 152.55 17.72 152.55 24.6 140.74 24.6 140.74 38.88 149.11 38.88 149.11 45.77 140.74 45.77 140.74 61.02 152.55 61.02 152.55 67.91 132.37 67.91 132.37 17.72"/><polygon class="cls-1" points="156.49 17.72 178.63 17.72 178.63 24.6 171.74 24.6 171.74 67.91 163.38 67.91 163.38 24.6 156.49 24.6 156.49 17.72"/><polygon class="cls-1" points="365.14 17.72 365.14 67.91 356.77 67.91 356.77 29.53 350.86 35.43 350.86 27.07 358.74 18.21 365.14 18.21 365.14 17.72"/><path class="cls-1" d="M377.93,53.15h7.38v-20.67l-7.38,20.67Zm-7.38,1.48l14.76-36.91h8.37V53.15h3.44v6.4h-3.44v8.37h-7.87v-8.37h-14.76v-4.92h-.49Z"/><path class="cls-1" d="M410.41,36.91c3.44,0,5.91,2.95,5.91,5.91,0,3.44-2.95,5.91-5.91,5.91-3.44,0-5.91-2.95-5.91-5.91s2.46-5.91,5.91-5.91"/><path class="cls-1" d="M448.3,44.78v12.3c0,6.89-3.44,11.32-11.81,11.32s-11.81-4.92-11.81-12.3v-5.91h7.87v6.4c0,2.95,.98,4.92,3.94,4.92,2.46,0,3.44-1.97,3.44-4.43v-12.3c0-2.95-.98-4.43-3.44-4.43s-3.94,1.48-3.94,4.43v.98h-7.87V17.72h22.14v6.89h-14.27v12.3c1.48-2.46,3.94-3.44,6.89-3.44,4.43,.49,8.86,3.44,8.86,11.32"/><g><rect class="cls-1" y="101.86" width="466.51" height="466.51"/><path class="cls-2" d="M171.74,332.17c1.97,0,3.94,1.97,3.94,3.94s-1.97,3.94-3.94,3.94-3.94-1.97-3.94-3.94c-.49-1.97,1.48-3.94,3.94-3.94q-.49,0,0,0m-47.73,20.67h0s.49,.49,0,0c6.89-.49,12.3-4.43,15.25-10.33,0,0,12.79,10.83,24.6,10.83,13.78,0,23.62-12.3,25.1-14.27-1.48-1.97-11.32-14.76-25.1-14.76-11.81,0-24.6,10.83-24.6,10.83-2.95-5.91-8.37-9.84-14.76-10.83,0,0-.49,0-.49,.49v.49c2.46,4.43,4.43,8.86,4.43,13.78,0,4.43-1.48,9.35-4.43,13.78"/><path class="cls-2" d="M190.93,458.71l9.84-6.37c.49,0,2.46-.98,1.97-2.45-.49-1.47-2.46-1.47-2.46-1.47h-13.29c-2.46,0-2.46-2.45-2.46-2.45-.49-3.92-1.97-7.35-3.94-10.78-.98-1.47-1.48-1.96-2.46-1.47q-.98,.49-.98,1.96c-.49,3.43-.98,6.37-1.97,9.8-.98,2.94-1.97,2.94-4.92,2.94h-11.81c-.98,0-1.48,.49-1.97,1.47,0,.49,.49,1.47,.98,1.47,1.48,.98,8.86,5.39,10.83,6.37,1.48,.98,1.97,2.45,1.48,3.92,0,.49-3.94,9.8-4.92,11.76-.98,1.96,.49,2.45,.49,2.45,1.48,.98,2.95-.98,2.95-.98,3.44-1.96,7.87-5.88,9.84-7.35s2.95,0,2.95,0c2.95,2.94,6.4,5.39,9.84,7.84,.49,.49,1.48,.49,2.46,0,.98-.49,.49-2.45,.49-2.45,0,0-3.44-9.8-3.94-11.76-.49-1.96,.98-2.45,.98-2.45"/><path class="cls-2" d="M275.57,307.07c1.48,0,2.46-.98,2.46-1.97v-3.94c-.49-18.21-15.75-31.99-33.95-31.49-17.22,.49-30.51,14.27-31.49,31.49v3.44c0,1.48,1.48,2.95,2.95,2.95h13.29c2.95,3.44,4.43,7.87,3.94,12.3-.98,2.46-2.46,4.92-3.94,7.38-2.95,2.95-4.43,6.89-3.94,11.32,.98,3.44,2.46,6.4,4.92,8.86,2.46,3.44,4.92,6.4,3.94,9.35-.49,1.97-1.48,3.44-1.97,4.92-2.46,3.94-3.44,8.86-3.44,13.78,0,.98,.98,1.97,1.97,1.97s1.97-.98,1.97-1.97c0-3.94,.98-8.37,2.95-11.81,.98-1.48,1.48-3.44,2.46-5.41,1.97-4.92-1.48-9.35-4.43-13.29-1.97-1.97-2.95-4.43-3.94-6.89-.49-2.95,1.48-5.41,3.44-7.87,1.97-2.46,3.94-5.41,4.92-8.86,.49-4.43-.49-9.35-2.95-13.29h8.86c2.95,3.44,4.43,7.87,3.94,12.3-.98,2.46-2.46,5.41-3.94,7.38-2.95,2.95-4.43,6.89-3.94,11.32,.98,2.95,2.46,5.91,4.43,8.86,2.46,3.44,4.92,6.4,3.94,9.35-.49,1.97-1.48,3.44-1.97,4.92-2.46,3.94-3.44,8.86-3.44,13.78,0,.98,.98,1.97,1.97,1.97s1.97-.98,1.97-1.97c0-3.94,.98-7.87,2.95-11.81,.98-1.48,1.48-3.44,2.46-5.41,1.97-4.92-1.48-9.35-4.43-13.29-1.97-1.97-2.95-4.43-3.94-6.89,0-2.95,1.48-5.91,3.44-7.87,1.97-2.46,3.94-5.41,4.92-8.86,.49-4.43-.49-9.35-2.95-13.29h8.86c2.95,3.44,4.43,7.87,3.94,12.3-.98,2.46-1.97,5.41-3.94,7.38-2.95,2.95-4.43,6.89-3.94,11.32,.98,3.44,2.46,6.4,4.43,8.86,2.46,3.44,4.92,6.4,3.94,9.35-.98,1.97-1.48,3.44-1.97,4.92-2.46,3.94-3.44,8.86-3.44,13.78,0,.98,.98,1.97,1.97,1.97s1.97-.98,1.97-1.97c0-3.94,.98-8.37,2.95-11.81,.98-1.48,1.48-3.44,2.46-5.41,1.97-4.92-1.48-9.35-4.43-13.29-1.97-1.97-2.95-4.43-3.94-6.89,0-2.95,1.48-5.91,3.44-7.87,1.97-2.46,3.94-5.41,4.92-8.86,.98-4.43-.49-9.35-2.95-13.29,0-1.97,12.3-1.97,12.3-1.97"/><path class="cls-2" d="M227.84,445.84c-2.46,.49-3.94,2.46-3.94,4.92,0,1.97,1.97,3.44,3.94,3.94,2.46,.49,4.43-1.48,4.92-3.94,.49-2.46-1.48-4.43-3.94-4.92h-.98Z"/><path class="cls-2" d="M249.49,410.41c-5.41,0-10.33,4.43-10.33,10.33,0,5.41,4.43,10.33,10.33,10.33,5.41,0,10.33-4.43,10.33-10.33s-4.43-10.33-10.33-10.33q.49,0,0,0"/><path class="cls-2" d="M210.62,392.69c-2.46-.49-4.43,1.48-4.92,3.94-.49,2.46,1.48,4.43,3.94,4.92h.98c2.46-.49,3.94-2.46,3.94-4.92-.49-2.46-1.97-3.94-3.94-3.94"/><path class="cls-2" d="M184.04,300.67c.49-2.46-1.48-4.43-3.94-4.92-2.46-.49-4.43,1.48-4.92,3.94v.98c.49,2.46,2.46,3.94,4.92,3.94,1.97-.49,3.94-1.97,3.94-3.94"/><path class="cls-2" d="M153.04,276.07c0-2.95-2.46-5.41-5.41-5.41s-5.41,2.46-5.41,5.41,2.46,5.41,5.41,5.41,5.41-2.46,5.41-5.41"/><path class="cls-2" d="M422.71,427.63c-10.33,3.94-28.05,10.33-49.7,17.72-1.97-.49-2.95-6.4-3.44-7.87-.49-4.92-3.44-11.32,3.44-18.21,6.89-6.89,10.83-4.92,14.27-4.43,3.44,.49,5.91,9.84,7.87,13.29,1.97,3.44,4.43,1.48,4.43-.98-.49-2.95-.98-5.91-2.46-8.37-.49-2.46,0-2.46,2.95-1.97,2.95,.49,3.94,1.97,7.38,3.44,3.44,1.48,6.4,.49,6.4-2.46s-3.44-3.44-6.89-4.43c-3.44-.98-4.92-1.48-2.46-3.94,1.97-1.97,2.95-4.92,1.97-7.38-.98-2.46-3.94-2.95-7.38,1.97-3.44,4.92-6.89,4.92-7.87,1.97-.98-2.95,4.92-10.83,7.87-15.26,2.46-3.94,6.89-6.89,11.32-7.38,4.92-1.48,7.38-1.48,6.89-3.44-.49-1.97-5.41-1.48-7.87-1.48-1.97,.49-3.44-.98-3.94-2.95v-.98c0-2.46,3.94-5.41,6.89-9.35,2.95-3.94,3.94-4.92,1.97-6.89-1.97-1.97-5.91-1.48-8.86,1.48-2.46,2.95-4.92,5.91-6.89,8.86-1.48,1.48-2.95-1.48-4.92-3.44-1.97-1.97-4.92-3.44-6.4-2.46-1.48,.98,0,2.95,2.46,5.91,2.95,2.95,4.43,6.89,4.43,10.83,.49,4.43-1.97,8.37-5.91,9.84-1.97,.49-1.48-5.41-4.92-5.91-3.44-.49-3.94,3.94-3.44,9.35,.49,5.41-5.91,7.87-8.37,5.41-2.95-4.92-4.92-10.33-5.41-16.24,0-3.94,4.92-7.87,8.37-10.33,3.44-2.46,8.37-3.44,5.41-6.89-2.95-3.44-12.3,1.48-15.25,4.92-2.95,3.44-4.92,2.46-5.41,.98-.98-4.43-.98-8.86,0-13.29,1.97-5.91,6.4-9.84,12.3-10.83,4.92,0,9.84,1.97,13.78,5.41,1.97,.98,5.41,1.48,5.41-.98s-5.41-5.91-7.87-6.89c-2.46-.98-3.94-.98-2.95-2.95,.98-1.97,7.38-4.92,9.84-5.91,2.46-.98,6.89-2.95,3.94-6.4-2.95-3.44-11.32,2.46-13.78,3.94-2.46,1.48-1.97-4.43-2.46-5.91-.49-1.48,0-6.4-4.43-5.91-4.43,.49-3.44,7.87-3.44,11.81s-2.95,3.44-8.37,7.38c-3.44,2.95-6.89,6.4-9.84,10.33-1.48,1.48-2.46-2.95-2.95-8.86-.49-4.92,.49-9.35,2.95-13.78,2.95-3.44,6.4-6.89,10.83-8.86,.98-.49,1.48-1.97,.98-2.95s-1.97-1.48-2.95-.98c-2.95,1.48-5.41,2.46-7.38,.98-1.97-1.48,1.48-6.4,3.94-10.83,2.46-4.43,1.97-8.86-.98-10.83-2.95-1.97-7.38,2.95-8.37,6.4-.98,3.44-2.95,3.94-4.92,1.48s-3.94-4.43-4.92-3.44c-.98,.98-1.97,1.97,.98,5.41,2.46,3.44,3.94,6.89,3.94,11.32,.49,3.44-2.46,4.43-4.43,2.95s-5.41-2.95-6.4-.98,1.97,3.94,4.92,4.92c2.95,.98,2.95,5.91,2.95,8.37s-.49,3.94-2.95,3.94c-3.94-1.97-7.38-5.41-8.86-9.84,0-2.46-.49-4.92-.98-7.87-.98-1.48-3.94-.49-3.94,1.48v8.37c-.49,1.48-4.43-.49-8.37-1.97-3.94-1.48-8.37,0-7.87,2.46,.49,2.46,8.37,5.91,10.33,5.91s3.44,1.97,2.46,3.44c-.98,1.48-4.92,4.43-5.91,5.91-.98,1.48,.49,4.92,3.44,2.46,2.46-2.95,5.91-4.92,9.84-5.91,2.95-.49,5.91,.98,7.87,3.94,.49,1.48-1.97,2.46-4.92,3.44-2.95,.98-3.94,2.95-3.94,3.94s.49,2.95,3.94,.98c2.46-.98,4.92-1.48,6.89-1.48,2.95-.49,3.94,2.95,3.94,2.95,1.97,5.91,9.84,22.14,10.83,24.6,.98,1.48,.49,3.44-.98,3.94-.49,.49-1.48,.49-1.97,.49-2.95,0-7.38,.49-6.89,3.44,.49,2.95,7.38,2.95,11.32,2.95s4.43,4.92,5.41,10.83c.98,5.91-6.4,6.89-10.33,3.94-5.91-4.92-10.83-10.83-15.26-16.73-.98-2.95-.49-6.4,1.48-9.35,1.48-1.97,3.94-1.97,5.41-2.95,1.48-.98,1.97-2.95,.98-4.43l-.49-.49c-.98-1.48-4.92,.49-5.91,1.48-.98,.98-2.95,1.97-2.95,0s.49-6.4,.49-8.37-.98-3.94-3.94-2.46c-2.95,1.48-2.95,14.27-2.46,19.19,.49,4.92-2.46,5.41-3.94,4.92-3.44-1.97-6.4-4.92-8.37-8.37-1.48-2.46-.98-3.44,1.97-7.87,1.48-1.48,2.46-3.44,2.95-5.41,.49-1.97-1.97-2.46-3.44-.49-.98,1.48-2.46,2.95-3.94,3.94-1.48,.49-.98-5.91-.98-7.38s.49-3.44-2.95-2.95c-3.44,.49-2.95,8.37-2.95,9.35s-2.46,.98-5.41,.98-4.43,3.44-.98,3.44c2.46,0,4.92,.49,7.38,1.97,1.48,2.46,1.97,5.41,.98,8.37-.49,1.48-3.44-.49-7.87,0-4.43,.49-9.35,.98-9.35,3.44s3.44,5.91,7.87,4.92c4.43-.98,8.86-.98,9.84,.49,.98,1.48-.98,1.97-2.46,3.44-1.48,1.48-2.46,3.44-.98,4.92,1.48,1.48,3.94,.98,6.4-.98,1.97-2.46,4.92-3.44,7.87-2.95,4.43,.49,8.37,1.97,11.32,4.43,2.46,1.97,.98,4.43-1.97,5.41-2.95,.98-5.91,2.95-8.86,4.92-2.46,1.97-5.91,1.97-7.87,0-2.46-1.97-5.41-3.94-6.89-1.97-1.48,1.97,1.48,4.92,2.95,5.91,1.48,.98,2.46,.98,.98,3.44-1.97,2.95-3.94,5.41-6.4,7.38-1.48,.98-1.48,2.46-.98,3.94,.98,.98,2.46,1.48,3.44,.98,3.44-1.97,6.4-4.43,9.35-7.38,.98-.49,1.48-2.46,2.46,0,.49,1.97,.49,4.43,.49,6.4,0,1.48-.98,3.44,.98,3.94,.98,.49,2.46-.49,2.95-1.48v-6.4c-.49-3.44,.49-6.89,2.95-9.35,2.95-3.44,9.84-2.46,14.27-2.46s4.92,3.44,4.92,5.91-5.41,5.41-6.89,6.4c-1.48,.98-5.41,1.97-3.94,4.92,1.48,2.95,2.46,1.97,4.43,1.97s6.4-5.41,9.84-5.91c3.44-.49,5.91,0,8.86,6.89,1.97,4.92,3.94,21.65,.98,22.14-37.4,12.79-82.67,26.57-122.04,35.92-52.65,11.81-83.16,16.24-112.2,18.21,.49-.98,.98-2.46,.98-2.95,1.48-2.95,3.44-5.91,6.4-7.87,1.97-1.97,1.97-4.92,.49-9.84-1.48-4.92,1.48-7.87,2.95-11.81,.98-3.44,.49-7.38-1.48-10.83,0-.49-.49-.98-.98-1.48-2.95,3.44-4.92,7.38-5.91,11.32-.98,4.92,0,7.38-1.48,10.33-1.48,2.95-4.43,4.92-4.43,6.89,.49,3.94,0,8.37-1.48,11.81-.98,.98-2.46,1.97-3.94,2.95,.98-3.44,.98-7.87-.98-10.83-.49-1.48-2.46-3.94,0-6.4,2.46-2.46,3.44-6.4,2.95-9.84,0-4.43,.49-4.92,4.43-8.37,3.94-3.44,2.46-8.86,1.97-11.81-.49-2.95,1.48-2.46,3.44-5.41,1.97-2.95,0-7.87,.49-11.32,.49-3.44,2.46-2.95,1.97-8.37-.49-3.94,0-7.38,.98-10.83,1.48-5.41-5.41-10.83-6.89-11.81,.98,.98,0,2.46-1.97,6.89-1.48,3.44-.98,6.89,.98,9.84,.98,2.95-.98,3.44-1.48,6.89-.49,3.44,.98,4.43-1.97,7.87-2.95,3.44-3.94,5.91-3.94,12.3s-4.43,5.91-6.89,8.37c-2.46,2.46,.98,5.91,.49,10.33,0,1.48-.49,2.95-.98,4.43,.49-1.97,.49-4.43,0-6.4-1.97-4.92-2.46-6.89-1.97-7.87,.98-.98,1.97-2.46,2.95-2.95-.49-.49-.49-.98-.49-1.48-.98-1.97,0-4.92,2.46-10.33,2.46-5.41,.98-5.41-.98-8.37-1.97-2.95-1.48-3.94,.98-6.4,1.97-1.97,2.95-4.92,1.97-7.87-.98-2.46-1.48-4.92-.98-7.87,.98-3.44,3.44-3.94,1.97-6.89-1.48-2.95-2.46-5.91-2.46-5.91-.98-3.44,2.46-5.41,0-10.83-1.97-4.43-.49-6.4-1.48-13.29-.49-3.94-3.94-6.4-7.87-5.91-.98,0-2.46,1.48-1.97,6.4,.49,4.92,3.94,5.91,2.46,11.32-1.48,5.41,1.48,7.38,2.46,9.84,.98,2.46-1.97,4.43-2.46,7.38-.49,2.95,1.97,5.41-.98,8.86-2.95,3.44-3.94,4.43-.98,9.84,1.97,3.44,0,4.92-2.46,9.84-2.46,4.92-.98,6.4-.49,12.3,.98,3.44,.98,6.89,.49,10.33-.49,3.94-2.95,4.43-2.95,10.83,.98,3.94,1.97,8.37,1.97,12.79-.49,2.95-8.37,8.37-7.87,12.3,0,3.44,0,6.89,.98,10.33h-9.84c-.49-8.86-1.97-17.72-3.44-26.08-1.97-10.83,0-22.14,2.95-35.43v-.49c.98-5.41,2.46-11.32,3.44-17.72,3.94-21.16,4.92-42.81,2.95-64.46-1.48-9.35-3.44-18.21-5.91-27.07-1.97-8.37-4.43-16.73-5.41-23.62-2.46-14.76-4.43-25.59-4.43-26.08,0-.98-1.48-1.97-2.46-1.48-.98,.49-1.97,1.48-1.48,2.46,0,0,1.97,10.83,4.43,25.59,.98,7.38,2.95,15.26,5.41,24.11,2.46,8.86,4.43,17.72,5.91,26.57,1.48,16.73,.98,33.46-.98,49.7,0-4.92,0-9.84-.49-14.76-.98-13.78-3.94-27.56-8.37-40.84-.49-.98-1.48-1.48-2.46-1.48-.98,.49-1.48,1.48-1.48,2.46,4.43,12.79,6.89,26.57,7.87,39.86,.98,15.25,.98,30.51-.49,45.27v.49c-2.95,13.78-5.41,26.08-2.95,37.4,1.97,10.33,2.95,20.18,3.44,25.59-.98-1.48-1.97-2.46-2.95-3.94-2.95-4.92-5.41-9.84-6.89-15.75-.98-2.95-1.97-5.91-3.44-10.33-4.92-13.29-3.94-38.38-3.44-56.1,.49-5.41,.98-10.83,1.48-16.24,2.46-16.24,2.46-32.48,0-48.72-4.43-23.62-3.94-30.02-3.94-30.02,0-.98-.49-1.97-1.97-2.46-.98,0-1.97,.49-2.46,1.48,0,.49-.98,6.89,3.94,31.49,2.46,15.75,2.46,31.49,0,47.24-.49,5.91-1.48,11.32-1.48,16.73-.98,19.68-1.48,43.8,3.44,57.58,1.48,3.94,2.46,7.38,3.44,9.84,1.48,5.91,3.94,11.32,7.38,16.73l.98,1.48v.49H33.95v30.51H430.58v-113.18l-7.87,3.44Z"/><path class="cls-2" d="M123.52,160.92q.49-.49,.98-.98c.49,0,.49-.49,.98-.49s1.48,.49,1.48,.98c45.77,43.8,93.99,8.37,103.83,0l.98-.98s.49-.49,.98-.49,.49,0,.98,.49l.98,1.48c9.84,8.37,58.07,43.8,103.83,0,.49-.49,.98-.49,1.48-.49s.98,0,1.48,.49c.49,0,.49,.49,.49,.49,8.86,8.86,47.24,41.83,87.59,6.4,.49-.49,.49-.98,.98-1.48v-17.22c0-1.48-.98-2.46-2.46-2.46h-.49l-.98,.49c-12.3,6.4-51.18,21.16-86.12-12.3-.49-.49-1.48-.98-1.97-.98s-1.48,.49-1.97,.98c-10.33,7.87-58.56,40.35-101.37,.49h-.49c-.49-.49-.98-.49-1.97-.49-.49,0-.98,.49-1.48,.49l-.49,.49c-42.81,39.86-91.04,7.38-101.37-.49-.49-.49-.98-.98-1.97-.98s-1.48,.49-1.97,.98c-34.94,32.97-73.81,18.21-86.12,12.3l-1.48-.98h-.49c-1.48,0-2.46,.98-2.46,2.46v16.73c0,.49,.49,.98,.49,1.48,40.35,35.43,78.74,2.46,88.09-6.4"/><path class="cls-2" d="M123.52,221.94q.49-.49,.98-.98c.49,0,.49-.49,.98-.49s1.48,.49,1.48,.98c45.77,43.8,93.99,8.37,103.83,0l.98-.98c0-.49,.49-.49,.98-.49s.49,0,.98,.49l.98,.98c9.84,8.37,58.07,43.8,103.83,0,.98-.49,1.97-.49,2.95,0,.49,0,.49,.49,.49,.49,8.86,8.86,47.24,41.83,87.59,6.4,.49-.49,.98-.98,.98-1.48v-16.73c0-1.48-.98-2.46-2.46-2.46h-.49l-.98,.49c-28.54,15.25-63.48,10.33-86.12-12.3-.49-.49-.98-.98-1.97-.98-.49,0-1.48,.49-1.97,.98-10.33,7.87-58.56,40.35-101.37,.49h-.49c-.49-.49-.98-.49-1.97-.49-.49,0-.98,.49-1.48,.49l-.49,.49c-42.81,39.86-91.04,7.38-101.37-.49-.49-.98-1.48-.98-1.97-.98-.98,0-1.48,.49-1.97,.98-34.94,32.97-73.81,18.21-86.12,12.3l-1.48-.98h-.49c-1.48,0-2.46,.98-2.46,2.46v16.73c0,.49,0,1.48,.49,1.48,40.35,35.43,78.74,2.46,88.09-6.4"/></g></svg>