<?xml version="1.0" encoding="UTF-8"?><svg id="Capa_1" xmlns="http://www.w3.org/2000/svg" viewBox="0 0 467 568.37"><defs><style>.cls-1{fill:#006da3;}.cls-2{fill:#fff;}</style></defs><path class="cls-1" d="M4.92,80.7H461.59V4.92H4.92V80.7Zm462.08,4.92H0V0H466.51l.49,85.62Z"/><polygon class="cls-1" points="16.73 17.72 38.88 17.72 38.88 24.6 32.48 24.6 32.48 67.91 23.62 67.91 23.62 24.6 16.73 24.6 16.73 17.72"/><path class="cls-1" d="M49.21,52.16h6.89l-3.44-20.18-3.44,20.18Zm-10.33,15.75l9.35-50.19h9.35l9.84,50.19h-8.86l-1.48-9.35h-8.86l-1.48,9.35h-7.87Z"/><path class="cls-1" d="M80.21,24.6v15.75h2.95c2.95,0,3.94-1.48,3.94-3.94v-7.38c0-2.95-1.48-3.94-3.94-3.94l-2.95-.49Zm0,20.18v23.13h-8.37V17.72h12.3c8.37,0,11.81,4.43,11.81,11.32v6.4c0,5.41-1.97,8.37-6.89,9.84l7.87,22.64h-8.86l-7.87-23.13Z"/><path class="cls-1" d="M113.67,41.34h11.81v26.57h-5.91v-5.41c-.98,3.94-3.44,5.91-7.87,5.91-7.38,0-10.33-5.91-10.33-13.29V31c0-7.87,3.94-13.29,12.79-13.29,9.35,0,11.81,5.41,11.81,12.79v4.43h-7.87v-4.92c0-2.95-.98-4.92-4.43-4.92-2.95,0-4.43,1.97-4.43,4.92v27.07c0,2.95,1.48,4.92,3.94,4.92,2.95,0,3.94-1.48,3.94-4.92v-9.35h-3.94v-6.4h.49Z"/><polygon class="cls-1" points="132.37 17.72 152.55 17.72 152.55 24.6 140.74 24.6 140.74 38.88 149.11 38.88 149.11 45.77 140.74 45.77 140.74 61.02 152.55 61.02 152.55 67.91 132.37 67.91 132.37 17.72"/><polygon class="cls-1" points="156.49 17.72 178.63 17.72 178.63 24.6 171.74 24.6 171.74 67.91 163.38 67.91 163.38 24.6 156.49 24.6 156.49 17.72"/><path class="cls-1" d="M432.06,45.27v15.75h3.94c2.95,0,3.94-1.48,3.94-3.94v-7.38c0-2.46-1.48-3.94-4.43-3.94l-3.44-.49Zm0-6.4h2.95c2.95,0,3.94-1.48,3.94-3.94v-5.91c0-2.95-1.48-3.94-3.94-3.94h-2.95v13.78Zm-8.37-21.16h12.3c8.37,0,11.32,3.94,11.32,10.83v4.92c0,4.43-1.48,6.89-4.92,7.87,4.43,.98,6.4,3.94,6.4,8.37v6.4c0,6.89-2.95,10.83-11.81,10.83h-13.29V17.72Z"/><polygon class="cls-1" points="361.69 17.72 361.69 67.91 353.33 67.91 353.33 29.53 347.42 35.43 347.42 27.07 355.29 18.21 361.69 17.72"/><path class="cls-1" d="M385.31,56.59v-8.86c0-3.44-.98-4.92-3.94-4.92-2.46,0-3.94,1.97-3.94,4.43v9.35c0,2.95,.98,4.92,3.94,4.92,2.46,0,3.94-1.97,3.94-4.92m-16.24-1.48V30.51c0-7.87,3.44-13.29,12.3-13.29,9.35,0,11.81,5.41,11.81,12.79v2.46h-7.87v-3.44c0-2.95-.98-4.92-3.94-4.92s-3.94,1.97-3.94,4.92v10.83c1.48-2.46,3.44-3.94,6.89-3.94,5.91,0,9.35,3.94,9.35,12.3v7.38c0,7.87-3.44,12.79-12.3,12.79-9.35,0-12.3-5.41-12.3-13.29"/><polygon class="cls-1" points="404.01 32.48 404.01 53.15 414.84 42.81 404.01 32.48"/><g><rect class="cls-1" x="0" y="101.86" width="466.51" height="466.51"/><path class="cls-2" d="M313.47,207.66c-4.43,0-7.87,3.44-7.87,7.87v52.16c.49,4.43,4.43,7.87,8.86,7.38,3.94-.49,6.89-3.44,7.38-7.38v-51.67c-.49-4.43-3.94-7.87-8.37-8.37"/><path class="cls-2" d="M416.81,207.66c-4.43,0-7.87,3.44-7.87,7.87v52.16c.49,4.43,4.43,7.87,8.86,7.38,3.94-.49,6.89-3.44,7.38-7.38v-51.67c-.49-4.43-3.94-7.87-8.37-8.37"/><path class="cls-2" d="M401.55,214.06h-72.34c-.98,0-1.97,.98-1.97,1.97v50.69c0,.98,.98,1.97,1.97,2.46h27.56l-3.44,201.27c0,.98,.98,1.97,1.97,1.97h19.19c.98,0,1.97-.49,1.97-1.97l-4.43-201.27h28.54c.98,0,1.97-.98,1.97-2.46v-50.69c.98-.98,0-1.97-.98-1.97"/><polygon class="cls-2" points="65.94 217.01 51.67 217.01 51.67 486.68 244.57 486.68 244.57 470.44 65.94 470.44 65.94 217.01"/><path class="cls-2" d="M104.32,384.33c0-.49,.49-.98,1.48-.98H248.51c.98,0,1.48,.49,1.48,.98v22.64c0,.49-.49,.98-1.48,.98H105.8c-.98,0-1.48-.49-1.48-.98v-22.64Zm0-39.86c0-.49,.49-.98,1.48-.98H248.51c.98,0,1.48,.49,1.48,.98v23.13c0,.49-.49,.98-1.48,.98H105.8c-.98,0-1.48-.49-1.48-.98v-23.13Zm3.94-64.96h0l25.1-64.46c.49-.49,.98-.98,1.97-.98h37.4v-9.84q0-.49,.49-.49h6.89c.49,0,.98,0,.98,.49v9.84h38.38c.98,0,1.48,.49,1.97,.98l24.11,64.46v.98c0,6.89-2.95,13.29-8.37,18.21-5.41,4.92-12.3,7.38-19.19,7.38-14.76,.49-27.07-10.83-27.56-25.59v-.98l21.65-57.58h-31.49v88.09h22.64s.49,0,.49,.49v7.38q0,.49-.49,.49h-52.65q-.49,0-.49-.49v-7.38q0-.49,.49-.49h21.65v-88.09h-30.02l21.16,57.58v.49c0,6.89-2.95,13.29-8.37,18.21-5.41,4.92-12.3,7.38-19.68,7.38-14.27,0-26.57-11.32-27.07-26.08m-28.05-78.74v253.92h192.9V185.52H80.21v15.25Z"/><polygon class="cls-2" points="236.21 278.03 217.51 229.32 199.3 278.03 236.21 278.03"/><polygon class="cls-2" points="136.31 229.32 117.61 278.03 154.52 278.03 136.31 229.32"/></g></svg>