<?xml version="1.0" encoding="UTF-8"?><svg id="Capa_1" xmlns="http://www.w3.org/2000/svg" viewBox="0 0 467 568.37"><defs><style>.cls-1{fill:#006da3;}.cls-2{fill:#fff;}</style></defs><path class="cls-1" d="M4.92,80.7H461.59V4.92H4.92V80.7Zm462.08,4.92H0V0H466.51V85.62h.49Z"/><polygon class="cls-1" points="16.73 17.72 38.88 17.72 38.88 24.6 32.48 24.6 32.48 67.91 23.62 67.91 23.62 24.6 16.73 24.6 16.73 17.72"/><path class="cls-1" d="M49.21,52.16h6.89l-3.44-20.18-3.44,20.18Zm-10.33,15.75l9.35-50.19h9.35l9.84,50.19h-8.86l-1.48-9.35h-8.86l-1.48,9.35h-7.87Z"/><path class="cls-1" d="M80.21,24.6v15.75h2.95c2.95,0,3.94-1.48,3.94-3.94v-7.38c0-2.95-1.48-3.94-3.94-3.94h-2.95v-.49Zm0,20.18v23.13h-8.37V17.72h12.3c8.37,0,11.81,4.43,11.81,11.32v6.4c0,5.41-1.97,8.37-6.89,9.84l7.87,22.64h-8.86l-7.87-23.13Z"/><path class="cls-1" d="M113.67,41.34h11.81v26.57h-5.91v-5.41c-.98,3.94-3.44,5.91-7.87,5.91-7.38,0-10.33-5.91-10.33-13.29V31c0-7.87,3.94-13.29,12.79-13.29,9.35,0,11.81,5.41,11.81,12.79v4.43h-7.87v-4.92c0-2.95-.98-4.92-4.43-4.92-2.95,0-4.43,1.97-4.43,4.92v27.07c0,2.95,1.48,4.92,3.94,4.92,2.95,0,3.94-1.48,3.94-4.92v-9.35h-3.94v-6.4h.49Z"/><polygon class="cls-1" points="132.37 17.72 152.55 17.72 152.55 24.6 140.74 24.6 140.74 38.88 149.11 38.88 149.11 45.77 140.74 45.77 140.74 61.02 152.55 61.02 152.55 67.91 132.37 67.91 132.37 17.72"/><polygon class="cls-1" points="156.49 17.72 178.63 17.72 178.63 24.6 171.74 24.6 171.74 67.91 163.38 67.91 163.38 24.6 156.49 24.6 156.49 17.72"/><polygon class="cls-1" points="364.15 17.72 364.15 67.91 355.79 67.91 355.79 29.53 349.88 35.43 349.88 27.07 357.75 17.72 364.15 17.72"/><path class="cls-1" d="M387.77,56.59v-8.86c0-3.44-.98-4.92-3.94-4.92-2.46,0-3.94,1.97-3.94,4.43v9.35c0,2.95,.98,4.92,3.94,4.92,2.46,0,3.94-1.48,3.94-4.92m-16.24-1.48V30.51c0-7.87,3.44-13.29,12.3-13.29,9.35,0,11.81,5.41,11.81,12.79v2.46h-7.87v-3.44c0-2.95-.98-4.92-3.94-4.92s-3.94,1.97-3.94,4.92v10.83c1.48-2.46,3.44-3.94,6.89-3.94,5.91,0,9.35,3.94,9.35,12.3v7.38c0,7.87-3.44,12.79-12.3,12.79s-12.3-5.41-12.3-13.29"/><path class="cls-1" d="M409.42,36.91c3.44,0,5.91,2.95,5.91,5.91,0,3.44-2.95,5.91-5.91,5.91-3.44,0-5.91-2.95-5.91-5.91s2.95-5.91,5.91-5.91"/><path class="cls-1" d="M439.93,56.59v-8.86c0-3.44-.98-4.92-3.94-4.92-2.46,0-3.94,1.97-3.94,4.43v9.35c0,2.95,.98,4.92,3.94,4.92,2.46,0,3.94-1.48,3.94-4.92m-16.73-1.48V30.51c0-7.87,3.44-13.29,12.3-13.29,9.35,0,11.81,5.41,11.81,12.79v2.46h-7.87v-3.44c0-2.95-.98-4.92-3.94-4.92s-3.94,1.97-3.94,4.92v10.83c1.48-2.46,3.44-3.94,6.89-3.94,5.91,0,9.35,3.94,9.35,12.3v7.38c0,7.87-3.44,12.79-12.3,12.79s-12.3-5.41-12.3-13.29"/><g><rect class="cls-1" y="101.86" width="466.51" height="466.51"/><path class="cls-2" d="M62.5,295.75H233.25c1.48,0,2.95,1.48,2.95,2.95v6.89c0,1.48-1.48,2.95-2.95,2.95H62.5c-1.48,0-2.95-1.48-2.95-2.95v-6.89c0-1.48,.98-2.95,2.95-2.95"/><path class="cls-2" d="M62.5,424.19H233.25c1.48,0,2.95,1.48,2.95,2.95v13.78c0,1.48-1.48,2.95-2.95,2.95H62.5c-1.48,0-2.95-1.48-2.95-2.95v-13.78c0-1.48,.98-2.95,2.95-2.95"/><path class="cls-2" d="M62.5,287.88H233.25c1.48,0,2.46-1.48,2.46-2.46v-1.48c-10.83-48.23-59.05-78.74-107.28-67.91-33.95,7.38-60.53,33.95-67.91,67.91,0,.49-.49,.98-.49,.98,0,1.48,.98,2.46,2.46,2.95"/><path class="cls-2" d="M89.56,330.2h27.07v73.32h-27.07v-73.32Zm45.77,0h27.07v73.32h-27.07v-73.32Zm46.26,0h27.07v73.32h-27.07v-73.32Zm46.26,86.12c1.48,0,2.95-1.48,2.95-2.95v-92.51c0-1.48-1.48-2.95-2.95-2.95H68.89c-1.48,0-2.95,1.48-2.95,2.95v92.51c0,1.48,1.48,2.95,2.95,2.95H227.84Z"/><path class="cls-2" d="M157.47,202.25c5.91,0,12.3,1.97,16.73,5.91,4.43,2.95,9.35,4.43,14.76,4.92h12.79v-32.48h-12.79c-9.84,0-13.78-3.44-19.68-7.87-4.43-2.46-9.35-3.94-14.27-3.94h-8.37v32.48c3.94,.49,7.38,.49,10.83,.98"/><path class="cls-2" d="M394.17,351.85c0,.49-.49,.49-.98,.49h-82.18c-.49,0-.98,0-.98-.49v-13.29c0-.49,.49-.49,.98-.49h82.18c.49,0,.98,0,.98,.49v13.29Zm0,23.62c0,.49-.49,.49-.98,.49h-47.24c-.98-.98-1.48-1.97-2.46-2.95-5.41-5.41-12.3-9.35-19.68-11.32h68.89c.49,0,.98,.49,.98,.49l.49,13.29Zm0,24.6c0,.49-.49,.49-.98,.49h-35.43c-.98-4.92-2.46-9.84-4.43-14.27h39.86c.49,0,.98,0,.98,.49v13.29Zm-70.86,44.78l-1.48,.49c-.98,0-1.48,.49-2.46,.49l-.98,.49c-.98,0-1.97,.49-2.95,.49h-8.86l-1.97-.49h-2.95l-.98-.49-1.97-.49-1.48-.49-1.48-.49c-6.89-2.46-12.3-7.38-16.73-13.29l-.98-1.48-.98-1.48-.98-1.48c-.49-.49-.49-.98-.98-1.97s-.49-.98-.49-1.48-.49-1.48-.49-2.46l-.49-1.48c0-.98-.49-1.48-.49-2.46v-.98c0-.98-.49-1.97-.49-2.46v-10.33c0-.49,0-.98,.49-1.97v-1.97c0-.49,.49-1.48,.49-1.97s.49-.98,.49-1.48,.49-1.48,.98-1.97c.49-.49,.49-.98,.49-1.48s.49-.98,.98-1.97l.98-1.48c.49-.49,.49-.98,.98-1.48l.98-1.48s0-.49,.49-.49c2.46-2.95,4.92-5.41,8.37-7.38l1.48-.98,.98-.49,1.97-.98,1.48-.49,1.97-.98c5.41-1.97,10.83-2.95,16.73-2.95h1.48l1.97,.49,1.97,.49h1.97l1.97,.49h.98l1.97,.98,1.48,.98,1.48,.98,1.48,.98,.49,.49c4.43,2.95,7.87,6.4,10.83,10.33,0,.49,.49,.49,.49,.98l.98,.98c.49,.49,.98,1.48,.98,1.97l.49,.98c.49,.98,.49,1.48,.98,1.97s.49,.98,.49,1.48,.49,1.48,.49,1.97,.49,.98,.49,1.97,0,.98,.49,1.48c.98,5.41,.98,10.83,0,15.75-.49,2.95-1.48,5.91-2.95,8.37l.49,1.48-1.48,1.97q-.49,.49-.49,.98c0,.49-.98,1.48-1.48,2.46l-.49,.49c-4.43,5.41-10.33,9.84-17.22,12.3m-26.57-174.69v91.04c-2.95,.98-5.91,1.97-8.37,3.44v-75.29h-7.87v80.7c-1.97,1.48-3.44,2.95-4.92,4.43-11.81,12.3-16.24,30.02-11.81,46.26,1.97,7.38,5.41,14.27,10.83,19.68l-39.37,50.69c-2.46,2.95-1.97,6.89,.98,9.35,2.95,2.46,6.89,1.97,9.35-.98l38.38-50.19c18.7,11.81,42.81,9.84,58.56-4.92h48.23v-9.35h-40.35c1.97-2.95,3.44-5.91,4.92-9.35h52.16v-155.5h-110.72Z"/></g></svg>