<?xml version="1.0" encoding="UTF-8"?><svg id="Capa_1" xmlns="http://www.w3.org/2000/svg" viewBox="0 0 467 568.37"><defs><style>.cls-1{fill:#fff;}.cls-2{fill:#48ad37;}</style></defs><path class="cls-2" d="M4.92,80.7H461.59V4.92H4.92V80.7Zm462.08,4.92H0V0H466.51V85.62h.49Z"/><polygon class="cls-2" points="16.73 17.72 38.88 17.72 38.88 24.6 32.48 24.6 32.48 67.91 23.62 67.91 23.62 24.6 16.73 24.6 16.73 17.72"/><path class="cls-2" d="M49.21,52.16h6.89l-3.44-20.18-3.44,20.18Zm-10.33,15.75l9.35-50.19h9.35l9.84,50.19h-8.86l-1.48-9.35h-8.86l-1.48,9.35h-7.87Z"/><path class="cls-2" d="M80.21,24.6v15.75h2.95c2.95,0,3.94-1.48,3.94-3.94v-7.38c0-2.95-1.48-3.94-3.94-3.94h-2.95v-.49Zm0,20.18v23.13h-8.37V17.72h12.3c8.37,0,11.81,4.43,11.81,11.32v6.4c0,5.41-1.97,8.37-6.89,9.84l7.87,22.64h-8.86l-7.87-23.13Z"/><path class="cls-2" d="M113.67,41.34h11.81v26.57h-5.91v-5.41c-.98,3.94-3.44,5.91-7.87,5.91-7.38,0-10.33-5.91-10.33-13.29V31c0-7.87,3.94-13.29,12.79-13.29,9.35,0,11.81,5.41,11.81,12.79v4.43h-7.87v-4.92c0-2.95-.98-4.92-4.43-4.92-2.95,0-4.43,1.97-4.43,4.92v27.07c0,2.95,1.48,4.92,3.94,4.92,2.95,0,3.94-1.48,3.94-4.92v-9.35h-3.94v-6.4h.49Z"/><polygon class="cls-2" points="132.37 17.72 152.55 17.72 152.55 24.6 140.74 24.6 140.74 38.88 149.11 38.88 149.11 45.77 140.74 45.77 140.74 61.02 152.55 61.02 152.55 67.91 132.37 67.91 132.37 17.72"/><polygon class="cls-2" points="156.49 17.72 178.63 17.72 178.63 24.6 171.74 24.6 171.74 67.91 163.38 67.91 163.38 24.6 156.49 24.6 156.49 17.72"/><polygon class="cls-2" points="366.12 17.72 366.12 67.91 357.75 67.91 357.75 29.53 351.85 35.43 351.85 27.07 359.72 18.21 366.12 18.21 366.12 17.72"/><path class="cls-2" d="M397.12,44.78v12.3c0,6.89-3.44,11.32-11.81,11.32s-11.81-4.92-11.81-12.3v-5.91h7.87v6.4c0,2.95,.98,4.92,3.94,4.92,2.46,0,3.44-1.97,3.44-4.43v-12.3c0-2.95-.98-4.43-3.44-4.43s-3.94,1.48-3.94,4.43v.98h-7.87V17.72h22.14v6.89h-14.27v12.3c1.48-2.46,3.94-3.44,6.89-3.44,4.43,.49,8.86,3.44,8.86,11.32"/><path class="cls-2" d="M410.41,36.91c3.44,0,5.91,2.95,5.91,5.91,0,3.44-2.95,5.91-5.91,5.91-3.44,0-5.91-2.95-5.91-5.91s2.46-5.91,5.91-5.91"/><path class="cls-2" d="M447.81,44.78v12.3c0,6.89-3.44,11.32-11.81,11.32s-11.81-4.92-11.81-12.3v-5.91h7.87v6.4c0,2.95,.98,4.92,3.94,4.92,2.46,0,3.44-1.97,3.44-4.43v-12.3c0-2.95-.98-4.43-3.44-4.43s-3.94,1.48-3.94,4.43v.98h-7.87V17.72h22.14v6.89h-14.27v12.3c1.48-2.46,3.94-3.44,6.89-3.44,4.92,.49,8.86,3.44,8.86,11.32"/><g><rect class="cls-2" y="101.86" width="466.51" height="466.51"/><path class="cls-1" d="M235.22,228.33l-4.92,10.83-21.16-10.83h26.08Zm-93.99,27.56c.49,3.94,3.94,6.89,7.87,6.4h20.18c2.95,1.48,5.91,3.44,9.35,4.92,5.41,2.46,10.83,5.41,16.24,7.38,5.41,1.97,10.83,4.43,16.24,6.4l-6.89,140.74v.49c0,.98,.49,1.48,1.48,1.48h39.37c.49,0,.98-.49,1.48-.98v-.98l-6.89-138.28c6.4-4.43,11.81-8.86,20.18-13.78,4.92-2.95,13.29-8.37,20.67-13.78l32.97-.49c5.91,0,10.83-3.44,10.83-7.38s-4.92-7.38-10.83-7.38h-21.16c-.49-2.46-2.46-4.43-4.43-5.41-8.37-4.43-24.6-3.44-29.53,.49-1.48,1.48-2.46,2.95-3.44,4.92h-4.92c-5.91,0-10.83,3.44-10.83,7.38s4.92,7.38,10.83,7.38h16.24c-4.43,1.97-8.86,4.43-12.79,6.4-7.87,3.94-15.75,7.87-23.62,12.3l-2.46-.98,10.83-45.27h17.22c5.91-.49,10.33-5.41,9.84-11.32-.49-5.41-4.43-9.35-9.84-9.84h-9.35c1.48-4.43-.98-8.86-4.92-10.33-9.35-4.92-28.05-3.94-32.97,.49-.98,.98-1.97,1.97-2.46,3.44-8.37-1.48-18.7,0-22.14,2.95-1.48,.98-2.46,2.95-2.95,4.43h-9.84c-5.91-.49-10.83,3.94-11.32,9.84-.49,5.91,3.94,10.83,9.84,11.32h1.48l27.07-.49,27.56,20.18-9.84,21.16c-5.91-1.97-11.81-3.44-18.21-4.92-4.43-.98-8.86-1.97-12.79-2.95h11.32c3.44,.98,6.89-1.48,7.87-4.92,.98-3.44-1.48-6.89-4.92-7.87h-2.95c0-2.46-1.48-4.92-3.94-6.4-6.89-3.94-20.18-3.94-24.11,0-.98,.49-1.48,1.48-1.97,2.46-4.43-.98-8.86-.49-12.79,.98-.98,.98-1.48,1.97-1.97,3.44h-2.95c-2.46,0-5.91,2.95-6.89,6.4"/><path class="cls-1" d="M54.62,396.14c-.49,5.41-1.48,21.65,1.97,27.56h5.41c-1.97-3.94-2.46-19.19-1.97-27.56,10.83,0,19.19-2.95,19.19-5.91s-9.35-5.91-21.16-5.91-21.16,2.46-21.16,5.91,7.87,5.41,17.72,5.91"/><path class="cls-1" d="M98.91,404.01c0-2.46-4.92-4.92-11.81-4.92s-11.81,1.97-11.81,4.92,4.43,4.43,9.84,4.92c-.49,4.92,0,9.84,1.48,14.76h3.44c-.98-4.92-1.48-9.84-1.48-14.76,5.91-.49,10.33-2.46,10.33-4.92"/><polygon class="cls-1" points="144.68 423.7 138.77 386.3 138.28 423.7 144.68 423.7"/><polygon class="cls-1" points="166.33 423.7 172.23 386.3 173.22 423.7 166.33 423.7"/><polygon class="cls-1" points="121.55 423.7 129.91 423.7 122.53 378.91 121.55 423.7"/><path class="cls-1" d="M152.55,361.2c0-1.48,.98-2.46,2.46-2.46s2.46,1.48,2.46,2.46c0,1.48-1.48,2.46-2.46,2.46-1.97,0-2.95-.98-2.46-2.46m-16.24,12.3c.98,1.97,6.89,1.48,12.3-1.97,1.97-.98,3.44-2.46,4.92-3.94v.98q.49,5.41,0,16.73v38.38h2.46v-53.64c.98,.98,1.97,1.48,2.46,2.46,5.41,3.94,10.83,5.41,12.3,3.44,1.48-1.97-1.48-6.89-6.4-10.83-.49-.49-1.48-.98-1.97-1.48,.49-.49,.98-.49,1.48-.98,5.91-3.44,9.35-7.87,7.87-9.84-1.48-1.97-6.89-1.48-12.3,1.97v-.98c.49-6.4-1.48-11.81-3.94-11.81s-4.92,4.92-5.41,11.32v1.48l-.98-.98c-5.41-3.94-10.83-5.41-12.3-3.44-1.48,1.97,1.48,6.89,6.4,10.83,.49,.49,1.48,.98,1.97,1.48l-1.48,.98c-4.92,2.95-8.37,7.38-7.38,9.84"/><path class="cls-1" d="M430.58,388.26l-25.59,4.43-1.97-2.46c3.94-2.46,6.89-5.91,9.84-9.35,0,0-11.81,2.95-15.75-.49l-7.87-11.81c1.97-2.95,1.97-6.4,.49-9.35-.98-1.48-2.95-2.46-3.44-.98v.98c-.49,1.48-1.97,2.95-3.94,3.44,0-1.48-.98-2.46-1.48-3.94-.98-.98-3.44-1.97-3.44-.49v.98c0,.49-.49,1.48-.98,1.97l-9.84-4.43c-4.43-3.44-10.33-5.91-16.24-6.4h-4.43c-5.91,.98-11.81,1.97-18.21,2.46l-29.03,.98s-24.6,.49-25.1,13.29l-.98,39.86c4.92,3.44,2.46-4.92,1.97-7.87,.49-3.94,1.48-8.37,2.95-11.81l6.4,36.91h16.24c0-3.94-2.46-7.38-6.4-8.86l2.46-11.81,6.89-4.43c8.86,3.94,19.19,4.43,28.05,.98l5.91,23.62h19.68c-.49-7.38-11.32-8.86-11.32-8.86l4.92-19.68,3.94-.98,2.95-.49q.49,0,.98-.49c2.95-1.48,5.41-2.95,8.37-4.92,3.44,4.92,7.87,9.35,12.79,13.29l13.29,5.91c1.48,.98,3.44,.98,4.92,0l1.97-1.48c1.48,0,2.95-.49,4.43-.98,.98-.98,1.97-1.97,2.95-3.44,7.87-.49,23.62-13.29,23.62-13.29"/><path class="cls-1" d="M87.59,301.16c1.48,3.94,3.44,7.38,6.4,9.84,4.92,4.92,9.84,7.38,11.81,5.91,1.97-1.48,0-3.94-2.95-7.38,3.94,.98,7.38,.98,7.87-.49,.49-1.48-3.94-5.41-9.84-8.37-3.44-1.97-7.87-2.46-11.81-1.97,0-.49,.49-.98,.49-1.97v-2.95c0-.98-.49-1.97-.49-2.95l-.98-.49c-.98,0-1.97,.49-2.95,.98-.98,.49-1.48,.98-2.46,1.48l-1.48,.98c-1.48-3.94-3.94-7.38-7.38-9.84-5.41-4.43-10.83-6.89-11.81-4.92-.98,1.97,.49,3.94,2.95,7.38-4.43-.98-7.38-.49-7.87,.98-.49,1.48,3.94,5.41,10.83,7.38,3.94,1.48,7.87,1.97,11.81,1.48l7.87,4.92Z"/><path class="cls-1" d="M85.62,303.62l-7.38-4.43c-.49,.98-.49,1.97-.98,2.95l6.4,3.94c.49-.98,1.48-1.48,1.97-2.46"/><polygon class="cls-1" points="81.69 308.54 76.27 305.1 75.29 308.05 79.23 310.51 81.69 308.54"/><path class="cls-1" d="M76.77,312.97l-2.46-1.48c-.49,1.48-.98,2.46-.98,3.94l.98,.49,2.46-2.95Z"/><path class="cls-1" d="M76.77,151.07c-12.3,0-22.14,9.84-22.14,22.14s9.84,22.14,22.14,22.14,22.14-9.84,22.14-22.14-9.84-22.14-22.14-22.14"/><path class="cls-1" d="M39.86,175.19h9.84c.98,0,1.48-.98,1.97-1.97,0-.98-.98-1.97-1.97-1.97h-9.84c-.98,0-1.48,.98-1.48,1.97s.49,1.97,1.48,1.97"/><path class="cls-1" d="M101.86,173.22c0,.98,.98,1.97,1.97,1.97h9.84c.98,0,1.48-.98,1.48-1.97s-.49-1.48-1.48-1.97h-9.84c-.98,0-1.48,.98-1.97,1.97"/><path class="cls-1" d="M76.77,147.63c.98,0,1.97-.49,1.97-1.48v-9.84c0-.98-.98-1.48-1.97-1.48s-1.48,.49-1.48,1.48v9.84c-.49,.98,.49,1.48,1.48,1.48"/><path class="cls-1" d="M76.77,198.32c-.98,0-1.97,.98-1.97,1.48v9.84c0,.98,.98,1.48,1.97,1.48s1.48-.49,1.48-1.48v-9.84c.49-.49-.49-.98-1.48-1.48"/><path class="cls-1" d="M43.8,156.49l8.37,4.92c.98,.49,1.97,0,2.46-.98,.49-.98,0-1.97-.49-2.46l-8.37-4.92c-.98-.49-1.97,0-2.46,.98s0,1.97,.49,2.46"/><path class="cls-1" d="M99.4,187.98l8.37,4.92c.98,.49,1.97,0,2.46-.98,.49-.98,0-1.97-.49-2.46l-8.37-4.92c-.98-.49-1.97,0-2.46,.49-.49,1.48-.49,2.46,.49,2.95"/><path class="cls-1" d="M91.53,150.58l4.92-8.37c.49-.98,0-1.97-.49-2.46-.98-.49-1.97,0-2.46,.49l-4.92,8.37c-.49,.98,0,1.97,.98,2.46,.98,.49,1.48,0,1.97-.49"/><path class="cls-1" d="M62,195.85l-4.92,8.37c-.49,.98,0,1.97,.98,2.46s1.97,0,2.46-.49l4.92-8.37c.49-.98,0-1.97-.49-2.46-1.48-.49-2.46-.49-2.95,.49"/><path class="cls-1" d="M61.51,150.58c.49,.98,1.48,.98,2.46,.49,.98-.49,.98-1.48,.49-2.46l-4.92-8.37c-.49-.98-1.48-.98-2.46-.49s-.98,1.48-.49,2.46l4.92,8.37Z"/><path class="cls-1" d="M89.56,195.36c-.98,.49-.98,1.48-.49,2.46l4.92,8.37c.49,.98,1.48,.98,2.46,.49,.98-.49,.98-1.48,.49-2.46l-4.92-8.37c-.49-.49-1.48-.98-2.46-.49"/><path class="cls-1" d="M100.88,161.41l8.37-4.92c.98-.49,.98-1.48,.49-2.46-.49-.98-1.48-.98-2.46-.49l-8.37,4.92c-.98,.49-.98,1.48-.49,2.46,.98,.49,1.97,.49,2.46,.49"/><path class="cls-1" d="M52.65,185.03l-8.37,4.92c-.98,.49-.98,1.48-.49,2.46,.49,.98,1.48,.98,2.46,.49l8.37-4.92c.98-.49,.98-1.48,.49-2.46-.49-.49-1.48-.49-2.46-.49"/><path class="cls-1" d="M429.6,498.99h-.49l-.98,.49c-12.3,6.4-51.18,21.16-86.12-12.3-.49-.49-1.48-.98-1.97-.98s-1.48,.49-1.97,.98c-10.33,7.87-58.56,40.35-101.37,.49l-.49-.49c-.49-.49-.98-.49-1.97-.49-.49,0-.98,.49-1.48,.49l-.49,.49c-42.81,39.86-91.04,7.38-101.37-.49-.49-.49-.98-.98-1.97-.98s-1.48,.49-1.97,.98c-34.94,33.46-73.81,18.21-86.12,12.3l-.98-.49h-.49c-1.48,0-2.46,.98-2.46,2.46v16.73c0,.49,.49,.98,.49,1.48,40.35,35.43,79.23,2.46,88.09-6.4l.98-.98c.49,0,.49-.49,.98-.49s1.48,.49,1.48,.98c45.77,43.8,93.99,8.37,103.83,0l.98-.98c.49,0,.49-.49,.98-.49s.49,0,.98,.49l.98,.98c9.84,8.37,58.07,43.8,103.83,0,.49-.49,.98-.49,1.48-.49s.98,0,1.48,.49c.49,0,.49,.49,.49,.49,8.86,8.86,47.24,41.83,87.59,6.4,.49-.49,.49-.98,.98-1.48v-16.73c-.49-.98-1.48-1.97-2.95-2.46"/><path class="cls-1" d="M38.38,442.89H430.09c1.48,0,2.95,1.48,2.95,2.95v17.72c0,1.48-1.48,2.95-2.95,2.95H38.38c-1.48,0-2.95-1.48-2.95-2.95v-17.72c0-1.48,1.48-2.95,2.95-2.95"/><path class="cls-1" d="M388.76,207.66c-5.91-5.41-13.29-8.86-21.65-9.84-7.38-.98-15.25,1.48-20.67,6.89-1.48,.98-3.44,3.94-1.48,5.41,.98,.49,2.95,0,4.43-.98,3.44-1.48,6.89-1.48,10.33-.98,9.84,.98,19.19,5.41,25.59,13.29h.49c.49,.49,1.48,.98,1.97,.98,.98,0,1.97-.49,2.46-.98,7.38-6.4,17.22-9.84,27.07-8.86,3.44,0,6.89,.98,10.33,2.95,.98,.98,2.95,1.48,4.43,.98,1.48-.98,.98-3.44,0-4.92-4.92-6.4-12.3-9.84-20.18-10.33-8.37-.49-16.24,1.97-23.13,6.4"/><path class="cls-1" d="M322.32,150.58c-5.91-2.46-12.79-2.95-18.7-1.48-5.91,1.48-10.83,5.91-13.78,11.32-.49,.98-1.48,3.94,.49,4.43s1.97-.98,3.44-1.97c1.97-1.97,4.43-3.44,7.38-3.94,7.87-1.97,15.75-1.48,22.64,2.46h1.97c.98,0,1.48-1.48,1.48-1.48,3.94-6.89,10.33-12.3,17.72-14.76,2.46-.98,5.41-.98,8.37-.98,.98,.49,2.46,.49,3.44-.49,.98-.98-.49-2.95-1.48-3.44-5.41-2.95-11.81-3.94-18.21-1.97-5.91,2.95-10.83,6.89-14.76,12.3"/></g></svg>