<?xml version="1.0" encoding="UTF-8"?><svg id="Capa_1" xmlns="http://www.w3.org/2000/svg" viewBox="0 0 467 568.37"><defs><style>.cls-1{fill:#eb6220;}.cls-2{fill:#fff;}</style></defs><path class="cls-1" d="M4.92,80.7H461.59V4.92H4.92V80.7Zm462.08,4.92H0V0H466.51V85.62h.49Z"/><polygon class="cls-1" points="16.73 17.72 38.88 17.72 38.88 24.6 32.48 24.6 32.48 67.91 23.62 67.91 23.62 24.6 16.73 24.6 16.73 17.72"/><path class="cls-1" d="M49.21,52.16h6.89l-3.44-20.18-3.44,20.18Zm-10.33,15.75l9.35-50.19h9.35l9.84,50.19h-8.86l-1.48-9.35h-8.86l-1.48,9.35h-7.87Z"/><path class="cls-1" d="M80.21,24.6v15.75h2.95c2.95,0,3.94-1.48,3.94-3.94v-7.38c0-2.95-1.48-3.94-3.94-3.94h-2.95v-.49Zm0,20.18v23.13h-8.37V17.72h12.3c8.37,0,11.81,4.43,11.81,11.32v6.4c0,5.41-1.97,8.37-6.89,9.84l7.87,22.64h-8.86l-7.87-23.13Z"/><path class="cls-1" d="M113.67,41.34h11.81v26.57h-5.91v-5.41c-.98,3.94-3.44,5.91-7.87,5.91-7.38,0-10.33-5.91-10.33-13.29V31c0-7.87,3.94-13.29,12.79-13.29,9.35,0,11.81,5.41,11.81,12.79v4.43h-7.87v-4.92c0-2.95-.98-4.92-4.43-4.92-2.95,0-4.43,1.97-4.43,4.92v27.07c0,2.95,1.48,4.92,3.94,4.92,2.95,0,3.94-1.48,3.94-4.92v-9.35h-3.94v-6.4h.49Z"/><polygon class="cls-1" points="132.37 17.72 152.55 17.72 152.55 24.6 140.74 24.6 140.74 38.88 149.11 38.88 149.11 45.77 140.74 45.77 140.74 61.02 152.55 61.02 152.55 67.91 132.37 67.91 132.37 17.72"/><polygon class="cls-1" points="156.49 17.72 178.63 17.72 178.63 24.6 171.74 24.6 171.74 67.91 163.38 67.91 163.38 24.6 156.49 24.6 156.49 17.72"/><path class="cls-1" d="M381.87,29.03v8.86c0,3.44,.98,4.92,3.94,4.92,2.46,0,3.94-1.97,3.94-4.43v-9.35c0-2.95-.98-4.92-3.94-4.92s-3.94,1.97-3.94,4.92m16.24,1.48v24.11c0,7.87-3.44,13.29-12.3,13.29-9.35,0-11.81-4.92-11.81-12.3v-2.46h7.87v3.44c0,2.95,.98,4.92,3.94,4.92s4.43-1.97,4.43-4.92v-10.83c-1.48,2.46-3.44,3.94-6.89,3.94-5.91,0-9.35-3.94-9.35-12.3v-7.38c0-7.87,3.44-12.79,12.3-12.79,8.37,0,11.81,5.91,11.81,13.29"/><path class="cls-1" d="M412.38,36.91c3.44,0,5.91,2.95,5.91,5.91,0,3.44-2.95,5.91-5.91,5.91-3.44,0-5.91-2.95-5.91-5.91-.49-2.95,2.46-5.91,5.91-5.91"/><path class="cls-1" d="M425.66,58.56c0-4.92,1.48-8.37,6.4-13.29l4.92-4.92c2.95-2.95,2.95-4.43,2.95-8.86v-3.44c0-2.95-1.48-3.94-2.95-3.94-1.97,0-3.44,.98-3.44,3.94v6.4h-7.87v-6.4c0-6.89,3.94-10.83,11.32-10.83s10.83,3.44,10.83,10.33v4.92c0,4.92-.98,7.87-5.41,12.79l-5.41,5.91c-1.97,2.46-3.44,3.94-3.44,7.87v2.46h13.78v6.89h-21.65v-9.84Z"/><g><rect class="cls-1" y="101.86" width="466.51" height="466.51"/><path class="cls-2" d="M307.56,281.97c0,.98-.49,1.48-1.48,1.48h-27.07c-.98,0-1.48-.49-1.48-1.48v-14.76c0-.98,.49-1.48,1.48-1.48h27.07c.98,0,1.48,.49,1.48,1.48v14.76Zm0,29.53c0,.98-.49,1.48-1.48,1.48h-27.07c-.98,0-1.48-.49-1.48-1.48v-14.76c0-.98,.49-1.48,1.48-1.48h27.07c.98,0,1.48,.49,1.48,1.48v14.76Zm-39.37-29.53c0,.98-.49,1.48-1.48,1.48h-27.07c-.98,0-1.48-.49-1.48-1.48v-14.76c0-.98,.49-1.48,1.48-1.48h27.07c.98,0,1.48,.49,1.48,1.48v14.76Zm0,29.53c0,.98-.49,1.48-1.48,1.48h-27.07c-.98,0-1.48-.49-1.48-1.48v-14.76c0-.98,.49-1.48,1.48-1.48h27.07c.98,0,1.48,.49,1.48,1.48v14.76Zm-39.37-29.53c0,.98-.49,1.48-1.48,1.48h-27.07c-.98,0-1.48-.49-1.48-1.48v-14.76c0-.98,.49-1.48,1.48-1.48h27.07c.98,0,1.48,.49,1.48,1.48v14.76Zm0,29.53c0,.98-.49,1.48-1.48,1.48h-27.07c-.98,0-1.48-.49-1.48-1.48v-14.76c0-.98,.49-1.48,1.48-1.48h27.07c.98,0,1.48,.49,1.48,1.48v14.76Zm-39.37-29.53c0,.98-.49,1.48-1.48,1.48h-27.07c-.98,0-1.48-.49-1.48-1.48v-14.76c0-.98,.49-1.48,1.48-1.48h27.07c.98,0,1.48,.49,1.48,1.48v14.76Zm0,29.53c0,.98-.49,1.48-1.48,1.48h-27.07c-.98,0-1.48-.49-1.48-1.48v-14.76c0-.98,.49-1.48,1.48-1.48h27.07c.98,0,1.48,.49,1.48,1.48v14.76Zm83.16-68.89v-28.05l-47.73,28.05v-28.05l-47.73,28.05v-94.97c0-.49-.49-.98-.98-.98h-28.54c-.49,0-.98,.49-.98,.98v181.58c0,.49,.49,.98,.98,.98h171.74c.49,0,.98-.49,.98-.98v-114.66l-47.73,28.05Z"/><path class="cls-2" d="M203.24,204.22c2.46-5.41,5.91-10.83,9.84-15.25,8.37,2.95,23.13,6.89,33.95-.49,13.78-9.84,12.3-31.49,32.48-41.83,4.43-2.46-38.88-12.79-62,.49-11.32,6.4-17.22,18.7-15.25,31.49,13.78-15.26,33.46-24.6,54.13-24.6,0,0-45.77,15.75-59.54,47.73-1.48,1.97,4.92,5.41,6.4,2.46"/><path class="cls-2" d="M69.88,376.45c0,7.87,5.91,14.27,13.78,14.27s14.27-5.91,14.27-13.78-5.91-14.27-13.78-14.27-14.27,6.4-14.27,13.78"/><path class="cls-2" d="M112.69,408.93s-4.43-11.32-13.78-11.32h-30.02c-9.35,0-13.78,11.32-13.78,11.32l-11.81,38.38s-1.97,6.89,3.94,8.86c5.91,1.97,7.87-4.92,7.87-4.92l9.35-31.99s.49-2.46,2.46-1.97c1.97,.49,.98,2.95,.98,2.95l-15.75,60.53h15.26v43.3c.49,3.94,3.94,6.89,8.37,6.4,3.44-.49,5.91-2.95,6.4-6.4v-43.3h4.43v43.3c.49,3.94,3.94,6.89,8.37,6.4,3.44-.49,5.91-2.95,6.4-6.4v-43.3h15.26l-16.73-60.53s-.49-2.46,.98-2.95c1.48-.49,2.46,1.97,2.46,1.97l9.35,32.48s1.97,6.89,7.87,4.92c5.91-1.97,3.94-8.86,3.94-8.86l-11.81-38.88Z"/><path class="cls-2" d="M368.58,376.45c0,7.87,5.91,14.27,13.78,14.27s14.27-5.91,14.27-13.78-5.91-14.27-13.78-14.27-14.27,6.4-14.27,13.78"/><path class="cls-2" d="M411.39,408.93s-3.94-11.32-13.78-11.32h-30.02c-9.35,0-13.78,11.32-13.78,11.32l-11.81,38.38s-1.97,6.89,3.94,8.86c5.91,1.97,7.87-4.92,7.87-4.92l9.35-31.99s.49-2.46,2.46-1.97c1.97,.49,.98,2.95,.98,2.95l-16.73,60.04h15.25v43.3c.49,3.94,3.94,6.89,8.37,6.4,3.44-.49,5.91-2.95,6.4-6.4v-43.3h3.94v43.3c.49,3.94,3.94,6.89,8.37,6.4,3.44-.49,5.91-2.95,6.4-6.4v-43.3h15.25l-16.24-60.53s-.49-2.46,.98-2.95c1.48-.49,2.46,1.97,2.46,1.97l9.35,32.48s1.97,6.89,7.87,4.92c5.91-1.97,3.94-8.86,3.94-8.86l-10.83-38.38Z"/><path class="cls-2" d="M185.03,425.17c7.38,0,13.78-5.91,13.78-13.78,0-7.38-5.91-13.78-13.78-13.78-7.38,0-13.78,5.91-13.78,13.78s6.4,13.78,13.78,13.78"/><path class="cls-2" d="M242.11,509.32l-5.91-11.32-13.78-27.07c-.98-2.46-3.94-3.94-6.4-3.44h-19.19l-.49-24.6c0-7.38-1.97-11.81-7.87-13.29-2.95-.49-5.41-.49-8.37,0h-.49l-23.13,7.38h-.98c-.98,.49-1.97,1.97-2.46,2.95l-6.89,19.19c-.98,2.95,.98,6.4,3.94,7.38,2.95,.98,5.91-.49,6.89-3.44l5.41-15.75,8.86-2.95h.49v25.59c0,5.91,1.97,11.81,7.87,13.29l1.97,.49h31.49l7.38,14.76v.49l2.95,5.41,2.46,4.92v.49l2.95,5.41c1.97,3.44,6.4,4.92,9.84,2.95,3.44-1.97,4.92-6.4,2.95-9.84l.49,.98Z"/><path class="cls-2" d="M200.28,493.08v1.48c0,15.25-12.3,27.56-27.56,28.05-15.25,0-27.56-12.3-28.05-27.56,0-6.4,1.97-12.79,5.91-17.72l-6.89-5.41c-12.3,15.75-9.35,38.88,6.4,51.18,15.75,12.3,38.88,9.35,51.18-6.4,4.92-6.4,7.87-14.27,7.87-22.14v-1.48h-8.86Z"/><path class="cls-2" d="M273.11,372.03c0,8.37,6.4,14.76,14.76,14.76s14.76-6.4,14.76-14.76-6.4-14.76-14.76-14.76-14.76,6.4-14.76,14.76"/><path class="cls-2" d="M305.1,392.2h-34.45c-10.33,.98-17.72,9.35-17.72,19.68v40.84c0,2.95,2.46,5.91,5.91,5.91,2.95,0,5.91-2.46,5.91-5.91v-34.94c0-1.48,.49-2.95,2.95-2.95,1.48,0,1.97,1.48,1.97,2.95v105.31c.49,4.43,4.43,7.87,8.86,7.38,3.94-.49,7.38-3.44,7.38-7.38v-61.02c0-1.48,.98-2.46,1.97-2.46h.49c1.48,0,2.46,.98,2.46,1.97v61.02c.49,4.43,4.43,7.87,8.86,7.38,3.94-.49,7.38-3.44,7.38-7.38v-105.31c0-.98,.49-2.95,1.97-2.95s2.95,1.97,2.95,2.95v34.94c0,2.95,2.46,5.91,5.91,5.91,2.95,0,5.91-2.46,5.91-5.91v-40.35c-.98-10.33-8.86-18.7-18.7-19.68"/></g></svg>