<?xml version="1.0" encoding="UTF-8"?><svg id="Capa_1" xmlns="http://www.w3.org/2000/svg" viewBox="0 0 467 568.37"><defs><style>.cls-1{fill:#fff;}.cls-2{fill:#e5006a;}</style></defs><path class="cls-2" d="M4.92,80.7H461.59V4.92H4.92V80.7Zm462.08,4.92H0V0H466.51V85.62h.49Z"/><polygon class="cls-2" points="16.73 17.72 38.88 17.72 38.88 24.6 32.48 24.6 32.48 67.91 23.62 67.91 23.62 24.6 16.73 24.6 16.73 17.72"/><path class="cls-2" d="M49.21,52.16h6.89l-3.44-20.18-3.44,20.18Zm-10.33,15.75l9.35-50.19h9.35l9.84,50.19h-8.86l-1.48-9.35h-8.86l-1.48,9.35h-7.87Z"/><path class="cls-2" d="M80.21,24.6v15.75h2.95c2.95,0,3.94-1.48,3.94-3.94v-7.38c0-2.95-1.48-3.94-3.94-3.94h-2.95v-.49Zm0,20.18v23.13h-8.37V17.72h12.3c8.37,0,11.81,4.43,11.81,11.32v6.4c0,5.41-1.97,8.37-6.89,9.84l7.87,22.64h-8.86l-7.87-23.13Z"/><path class="cls-2" d="M113.67,41.34h11.81v26.57h-5.91v-5.41c-.98,3.94-3.44,5.91-7.87,5.91-7.38,0-10.33-5.91-10.33-13.29V31c0-7.87,3.94-13.29,12.79-13.29,9.35,0,11.81,5.41,11.81,12.79v4.43h-7.87v-4.92c0-2.95-.98-4.92-4.43-4.92-2.95,0-4.43,1.97-4.43,4.92v27.07c0,2.95,1.48,4.92,3.94,4.92,2.95,0,3.94-1.48,3.94-4.92v-9.35h-3.94v-6.4h.49Z"/><polygon class="cls-2" points="132.37 17.72 152.55 17.72 152.55 24.6 140.74 24.6 140.74 38.88 149.11 38.88 149.11 45.77 140.74 45.77 140.74 61.02 152.55 61.02 152.55 67.91 132.37 67.91 132.37 17.72"/><polygon class="cls-2" points="156.49 17.72 178.63 17.72 178.63 24.6 171.74 24.6 171.74 67.91 163.38 67.91 163.38 24.6 156.49 24.6 156.49 17.72"/><polygon class="cls-2" points="365.14 17.72 365.14 67.91 356.77 67.91 356.77 29.53 350.86 35.43 350.86 27.07 358.74 18.21 365.14 18.21 365.14 17.72"/><path class="cls-2" d="M388.76,56.59V29.53c0-2.95-.98-4.92-3.94-4.92s-3.94,1.97-3.94,4.92v27.07c0,2.95,.98,4.92,3.94,4.92s3.94-1.97,3.94-4.92m-16.73-1.48V31c0-7.87,3.94-13.29,12.3-13.29,8.86-.49,12.79,5.41,12.79,13.29v24.11c0,7.87-3.94,13.29-12.3,13.29-8.86,0-12.79-5.41-12.79-13.29"/><path class="cls-2" d="M410.9,36.91c3.44,0,5.91,2.95,5.91,5.91,0,3.44-2.95,5.91-5.91,5.91-3.44,0-5.91-2.95-5.91-5.91s2.46-5.91,5.91-5.91"/><path class="cls-2" d="M447.81,28.54v4.43c0,4.43-2.46,6.89-5.91,8.37,4.43,.98,6.4,3.94,6.4,8.37v7.38c0,6.89-3.94,11.32-12.3,11.32s-11.81-4.92-11.81-12.3v-6.4h7.87v7.38c0,2.95,.98,4.92,3.94,4.92,2.46,0,3.94-1.97,3.94-4.43v-8.37c0-2.46-.98-3.94-3.94-3.94h-3.44v-6.4h2.95c2.95,0,4.43-1.48,4.43-3.94v-5.91c0-2.95-.98-4.43-3.44-4.43s-3.44,1.97-3.44,4.92v4.92h-7.87v-4.43c0-7.38,2.95-12.79,11.81-12.79,7.38,0,10.83,4.43,10.83,11.32"/><g><rect class="cls-2" x="0" y="101.86" width="466.51" height="466.51"/><path class="cls-1" d="M312.48,274.59H154.03c-.98,0-1.48,.98-1.48,1.48v43.3c0,.98,.49,1.97,1.48,1.97h158.46c.98,0,1.97-.49,1.97-1.48v-43.3c0-1.48-.98-1.97-1.97-1.97"/><path class="cls-1" d="M312.48,351.85H154.03c-.98,0-1.97,.98-1.48,1.97v43.3c0,.98,.98,1.97,1.48,1.97h158.46c.98,0,1.97-.98,1.97-1.97v-43.3c0-.98-.98-1.97-1.97-1.97"/><path class="cls-1" d="M422.22,389.25c-1.97-8.37,1.97-21.65,1.48-37.4-.49-15.75-1.97-19.68-12.3-34.45-12.79-16.73-27.56-31.99-43.3-45.77-3.44-2.95-8.37-6.89-11.32-4.43-2.95,2.46,0,7.38,1.97,10.83,1.97,3.44,16.73,19.68,22.64,28.54,6.4,10.33,10.83,21.65,13.29,33.95,.98,4.92,1.97,22.64-.49,24.11-2.46,1.48-3.44-1.48-3.94-3.94-.49-2.46-.98-18.7-2.46-27.56-1.48-8.86-7.38-13.78-11.81-12.3-3.94,.98-1.48,7.38-1.97,18.7-.49,11.32-.49,24.11-1.97,46.26-.98,15.75,6.4,31,18.7,40.84,3.44,2.95,27.07,33.46,49.7,63.48v-70.86c-2.46-2.95-4.43-5.41-4.92-5.91-6.4-6.4-10.83-14.76-13.29-24.11"/><path class="cls-1" d="M44.78,285.91c1.97,8.37-1.97,21.65-1.48,37.4,.49,15.75,1.97,19.68,12.3,34.45,12.79,16.73,27.56,31.99,43.3,45.77,3.44,2.95,8.37,6.89,11.32,4.43,2.95-2.46,0-7.38-1.97-10.83-1.97-3.44-16.73-19.68-22.64-28.54-6.4-10.33-10.83-22.14-13.29-33.95-.49-4.92-1.97-22.64,.49-23.62,2.46-.98,3.44,1.48,3.94,3.94,.49,2.46,.98,18.7,2.46,27.56,1.48,8.86,7.38,13.78,12.3,12.3,3.94-.98,1.48-7.38,1.97-18.7,.49-11.32,.49-24.11,1.97-46.26,.98-15.75-6.4-31-18.7-40.35-3.44-2.95-27.07-33.46-49.7-63.48v70.86l4.92,5.91c5.91,5.41,10.83,13.78,12.79,23.13"/><path class="cls-1" d="M304.12,157.47c-6.89,6.4-15.26,10.83-24.11,12.79-8.37,1.97-21.16-1.97-36.91-2.46-15.75-.49-19.68,1.97-33.95,11.81-16.73,12.3-31.99,26.57-46.26,41.83-2.95,3.44-6.89,8.37-4.43,10.83,2.46,2.46,7.38,0,10.83-1.97,3.44-1.97,19.68-16.24,28.54-22.14,10.33-5.91,21.65-10.33,33.46-12.3,4.92-.49,22.14-1.48,23.62,.98,1.48,2.46-1.48,3.44-3.94,3.94-2.46,.49-18.21,.98-27.07,1.97-8.86,.98-13.78,7.87-12.3,12.3,.98,3.44,7.38,1.48,18.7,1.97,11.32,.49,24.11,.98,45.76,2.46,15.75,.98,31-5.41,40.35-17.72,3.94-4.92,65.45-48.72,100.88-73.81h-86.61c-13.29,14.76-25.1,28.05-26.57,29.53"/><path class="cls-1" d="M162.39,518.18c6.89-6.4,15.25-10.83,24.11-13.29,8.37-1.97,21.16,1.97,36.91,1.97s19.68-1.97,33.95-11.81c16.73-12.3,31.99-26.57,45.76-41.83,2.95-3.44,6.89-8.37,4.43-10.83-2.46-2.46-7.38,0-10.83,1.97-3.44,1.97-19.68,16.24-28.54,22.14-10.33,5.91-21.65,10.33-33.95,12.3-4.92,.49-22.14,1.48-23.62-.98-1.48-2.46,1.48-3.44,3.94-3.94,2.46-.49,18.21-.98,27.07-1.97,8.86-.98,13.78-6.89,12.3-11.81-.98-3.44-7.38-1.97-18.7-1.97s-24.11-.98-45.77-2.46c-15.75-.98-31,5.41-40.35,17.72-3.94,4.43-58.07,43.3-93.5,68.89h83.66c12.3-12.3,21.65-22.64,23.13-24.11"/></g></svg>