<?xml version="1.0" encoding="UTF-8"?><svg id="Capa_1" xmlns="http://www.w3.org/2000/svg" viewBox="0 0 467 568.37"><defs><style>.cls-1{fill:#fff;}.cls-2{fill:#e5006a;}</style></defs><path class="cls-2" d="M4.92,80.7H461.59V4.92H4.92V80.7Zm462.08,4.92H0V0H466.51V85.62h.49Z"/><polygon class="cls-2" points="16.73 17.72 38.88 17.72 38.88 24.6 32.48 24.6 32.48 67.91 23.62 67.91 23.62 24.6 16.73 24.6 16.73 17.72"/><path class="cls-2" d="M49.21,52.16h6.89l-3.44-20.18-3.44,20.18Zm-10.33,15.75l9.35-50.19h9.35l9.84,50.19h-8.86l-1.48-9.35h-8.86l-1.48,9.35h-7.87Z"/><path class="cls-2" d="M80.21,24.6v15.75h2.95c2.95,0,3.94-1.48,3.94-3.94v-7.38c0-2.95-1.48-3.94-3.94-3.94h-2.95v-.49Zm0,20.18v23.13h-8.37V17.72h12.3c8.37,0,11.81,4.43,11.81,11.32v6.4c0,5.41-1.97,8.37-6.89,9.84l7.87,22.64h-8.86l-7.87-23.13Z"/><path class="cls-2" d="M113.67,41.34h11.81v26.57h-5.91v-5.41c-.98,3.94-3.44,5.91-7.87,5.91-7.38,0-10.33-5.91-10.33-13.29V31c0-7.87,3.94-13.29,12.79-13.29,9.35,0,11.81,5.41,11.81,12.79v4.43h-7.87v-4.92c0-2.95-.98-4.92-4.43-4.92-2.95,0-4.43,1.97-4.43,4.92v27.07c0,2.95,1.48,4.92,3.94,4.92,2.95,0,3.94-1.48,3.94-4.92v-9.35h-3.94v-6.4h.49Z"/><polygon class="cls-2" points="132.37 17.72 152.55 17.72 152.55 24.6 140.74 24.6 140.74 38.88 149.11 38.88 149.11 45.77 140.74 45.77 140.74 61.02 152.55 61.02 152.55 67.91 132.37 67.91 132.37 17.72"/><polygon class="cls-2" points="156.49 17.72 178.63 17.72 178.63 24.6 171.74 24.6 171.74 67.91 163.38 67.91 163.38 24.6 156.49 24.6 156.49 17.72"/><path class="cls-2" d="M423.7,55.11V31c0-7.87,3.94-13.29,12.3-13.29,9.35,0,11.81,5.41,11.81,12.79v5.91h-7.87v-7.38c0-2.95-.98-4.92-3.94-4.92s-4.43,1.97-4.43,4.92v27.07c0,2.95,1.48,4.92,4.43,4.92s3.94-1.97,3.94-4.92v-9.35h7.87v8.86c0,7.38-2.95,12.3-11.81,12.3-8.37,.49-12.3-4.92-12.3-12.79"/><polygon class="cls-2" points="361.69 17.72 361.69 67.91 352.83 67.91 352.83 29.53 346.93 35.43 346.93 27.07 354.8 18.21 361.69 18.21 361.69 17.72"/><path class="cls-2" d="M384.82,56.1V29.53c0-2.95-.98-4.92-3.94-4.92s-3.94,1.97-3.94,4.92v27.07c0,2.95,.98,4.92,3.94,4.92s3.94-2.46,3.94-5.41m-16.24-.98V30.51c0-7.87,3.94-13.29,12.3-13.29s12.3,5.91,12.3,13.29v24.11c0,7.87-3.94,13.29-12.3,13.29-8.37,.49-12.3-5.41-12.3-12.79"/><polygon class="cls-2" points="404.01 32.48 404.01 53.15 414.84 42.81 404.01 32.48"/><g><rect class="cls-2" y="101.86" width="466.51" height="466.51"/><path class="cls-1" d="M61.51,346.93c7.38,0,13.29-6.4,13.29-13.78s-6.4-13.29-13.78-13.29-13.29,5.91-13.29,13.29c0,7.87,6.4,13.78,13.78,13.78"/><path class="cls-1" d="M77.26,351.85h-31.99c-9.35,.98-16.73,8.37-16.73,17.72v37.4c.49,2.95,2.95,4.92,5.91,4.92,2.46,0,4.43-2.46,4.92-4.92v-31.99c0-.98,.49-2.95,2.46-2.95s1.97,1.48,1.97,2.46v96.45c.49,4.43,3.94,7.38,8.37,6.89,3.94-.49,6.89-3.44,6.89-6.89v-55.11c0-.98,.98-1.97,1.97-1.97h.49c.98,0,1.97,.98,1.97,1.97v55.11c.49,4.43,3.94,7.38,8.37,6.89,3.94-.49,6.89-3.44,6.89-6.89v-95.96c0-.98,.49-2.46,1.97-2.46s2.46,.98,2.46,2.46v32.48c.49,2.95,2.95,4.92,5.91,4.92,2.46,0,4.43-2.46,4.92-4.92v-37.4c0-9.35-7.38-17.22-16.73-18.21"/><polygon class="cls-1" points="137.79 229.81 164.85 243.1 164.85 233.25 149.6 226.86 164.85 220.46 164.85 210.13 137.79 223.9 137.79 229.81"/><path class="cls-1" d="M203.73,223.9c4.92-1.48,7.87-5.91,7.87-10.83v-5.91c0-9.84-4.43-15.75-15.26-15.75-11.81,0-15.75,6.89-15.75,17.22v5.91h10.33v-6.89c0-3.94,1.48-6.4,4.92-6.4s4.92,2.46,4.92,5.91v7.38c0,3.44-2.46,5.41-5.91,5.41h-4.43v8.86h4.92c3.94,0,5.41,1.97,5.41,5.41v11.32c0,3.44-1.48,5.91-4.92,5.91s-5.41-2.46-5.41-6.4v-9.84h-10.33v8.86c0,10.33,3.94,16.73,15.75,16.73s16.24-5.91,16.24-15.75v-9.84c.98-5.41-2.95-10.33-8.37-11.32"/><path class="cls-1" d="M257.86,248.51c0,2.95-.98,4.92-3.94,4.92s-3.94-1.97-3.94-4.92v-5.41c0-2.95,.98-4.92,3.94-4.92s3.94,1.97,3.94,4.92v5.41Zm-3.94-17.22c-6.4-.49-12.3,4.43-12.79,10.83v5.41c-.49,6.89,4.92,13.29,11.81,13.29s13.29-4.92,13.29-11.81v-4.43c.98-6.4-3.94-12.3-10.33-13.29h-1.97Z"/><path class="cls-1" d="M227.35,203.73c0-2.95,.98-4.92,3.94-4.92s3.94,1.97,3.94,4.92v5.41c0,2.95-.98,4.92-3.94,4.92s-3.94-1.97-3.94-4.92v-5.41Zm3.94,17.72c6.4,.49,12.3-4.43,12.79-10.83v-5.41c.49-6.89-4.92-13.29-11.81-13.29s-13.29,4.92-13.29,11.81v4.43c-.98,6.4,3.94,12.3,10.33,13.29h1.97Z"/><polygon class="cls-1" points="257.86 192.41 220.46 260.32 227.35 260.32 264.75 192.41 257.86 192.41"/><path class="cls-1" d="M350.87,358.25c6.89,0,12.79-5.41,12.79-12.3,0-4.92-2.46-9.35-6.89-11.32,.49-.49,.49-1.48,.98-1.97-.98-3.44-4.43-5.91-7.87-4.92-2.46,.49-4.43,2.46-4.92,4.92,0,.49,0,1.48,.49,1.97-4.43,1.97-7.38,6.4-6.89,11.32-.49,6.89,5.41,12.3,12.3,12.3"/><path class="cls-1" d="M387.28,404.5l-10.83-33.95s-3.94-9.84-12.3-9.84h-27.07c-8.37,0-12.3,9.84-12.3,9.84l-10.83,33.95s-1.48,4.92,2.46,7.38v.49l-12.3,63.97c0,.98,.49,1.97,1.48,2.46h.49c.98,0,1.97-.49,1.97-1.48l12.3-63.97v-.49c3.44-.49,4.43-4.92,4.43-4.92l8.37-28.54s.49-1.97,1.97-1.48c1.48,.49,.98,2.95,.98,2.95l-14.76,53.15h13.78v38.38c0,3.44,2.95,6.4,6.89,6.4,3.44,0,6.4-2.95,6.4-6.4v-37.89h4.43v38.38c0,3.44,2.95,6.4,6.89,6.4,3.44,0,6.4-2.95,6.4-6.4v-38.38h13.78l-14.76-53.15s-.49-2.46,.98-2.95c1.48-.49,1.97,1.48,1.97,1.48l8.37,28.54s1.48,5.91,6.89,4.43c5.41-1.48,3.94-8.37,3.94-8.37"/><path class="cls-1" d="M411.89,407.46c6.4,0,11.32-4.92,11.32-11.32s-4.92-11.32-11.32-11.32-11.32,4.92-11.32,11.32,4.92,11.32,11.32,11.32"/><path class="cls-1" d="M438.95,440.43c0-.49-3.44-8.37-4.43-10.83-6.4-17.72-7.87-17.72-13.78-17.72h-17.22c-5.91,0-7.38,0-14.27,17.72-.98,2.46-4.92,12.3-4.92,12.79s-1.97,3.94,1.97,5.41c3.94,1.48,4.92-2.95,4.92-2.95l6.89-17.22s0-.49,.49-.49,.49,.49,.49,.49v44.78c0,3.44,2.46,5.91,5.41,5.91s5.91-2.46,5.91-5.91v-18.21s0-2.95,1.97-2.95,1.97,2.95,1.97,2.95v17.72c0,3.44,2.46,5.91,5.41,5.91h.49c2.95,0,5.91-2.46,5.91-5.91v-45.27q0-.49,.49-.49c.49,0,.49,.49,.49,.49l6.4,15.25s1.97,3.94,5.41,2.46c3.44-1.48,0-3.94,0-3.94"/><path class="cls-1" d="M194.38,462.08c-2.46,1.48-4.92,2.46-7.87,3.44-7.87,2.46-15.75,3.44-24.11,2.95-3.94,0-7.87-.49-11.81-.98-2.46-.49-4.92-.98-7.38-1.48-.98-.49-2.46-.49-3.44-.98-3.44-.98-6.4-2.46-9.35-4.43-.98-.98-1.97-1.48-2.46-2.95v8.37c0,1.97,.98,3.94,2.95,4.92,5.41,3.94,11.81,6.4,18.7,6.89,4.43,.49,8.86,.98,13.78,.98,6.4,0,13.29-.49,19.68-2.46,3.44-.98,6.89-1.97,9.84-3.94,3.44-1.97,5.41-4.43,5.41-6.89v-7.87c-1.48,1.97-2.46,3.44-3.94,4.43"/><path class="cls-1" d="M127.95,416.81c.49-1.48,1.48-2.95,2.95-3.94,.98,.98,2.46,1.97,3.44,2.46,9.35,3.94,19.19,5.91,29.03,5.91,8.37,0,16.73-.98,25.1-3.94,.98-.49,1.97-.98,2.95-1.48v.98c0,4.92-13.29,10.83-31.99,10.83s-31.49-5.91-31.49-10.83m35.43-27.56c18.7,0,31.99,5.41,31.99,10.83s-13.29,10.83-31.99,10.83-31.99-5.41-31.99-10.83,13.29-10.83,31.99-10.83m-3.44,48.72c19.68,0,35.43-5.91,35.43-13.29,0,0,.49-6.89,0-8.37,0-.98,0-1.97-.49-2.95,1.97-1.48,3.44-3.44,3.94-5.91,0,0,.49-7.38,0-8.86-.98-8.86-18.7-13.78-35.43-13.78s-35.43,4.92-35.43,14.27c0,.49,.49,8.37,.49,8.37,0,.49,0,.98,.49,1.48-2.46,1.48-4.43,3.94-4.43,6.89,0,.49,.49,8.37,.49,8.37,0,1.97,.98,3.94,2.95,4.92,5.41,3.94,11.81,6.4,18.7,6.89,3.94,1.97,8.86,1.97,13.29,1.97"/><path class="cls-1" d="M149.6,465.03c4.43,.49,8.86,.98,13.78,.98,6.4,0,13.29-.49,19.68-2.46,3.44-.98,6.89-1.97,9.84-3.94,.98-.49,1.48-.98,2.46-1.48,.98-.98,1.97-1.97,2.46-3.44,0-.49,.49-.98,.49-1.97v-7.87c-.98,1.48-3.94,5.91-18.21,8.86-5.91,.98-11.81,1.48-17.72,1.48-9.84,0-19.19-1.48-28.05-5.41-1.48-.98-2.95-1.97-4.43-2.95-.98-.98-1.48-1.48-1.97-2.46v8.37c0,1.97,.98,3.94,2.95,4.92,4.92,4.43,11.32,6.89,18.7,7.38"/><path class="cls-1" d="M197.82,429.6q-.49-.49-.98-.98c-.49-.49-.98-.49-1.48-.98-.49,.98-.98,1.48-1.48,1.97,.49,0,.98,.49,1.48,.98,.98,.49,1.48,1.48,1.48,2.95,0,.98-.49,1.97-1.48,2.46-.49,.49-.98,.49-1.48,.98l-1.97,.98-2.95,1.48-2.95,.98c-.49,0-2.95,.98-3.94,.98-.49,0-3.94,.49-5.41,.98l-5.41,.49c-.49,0-5.91,.49-8.37,.49-3.94,0-7.38-.49-11.32-.98-2.46-.49-5.41-.98-7.87-1.48-2.95-.49-5.91-1.48-8.37-2.46-1.48-.98-2.95-1.97-4.43-2.95-.98-.98-1.97-2.46-2.95-3.94v8.86c0,1.97,.98,3.94,2.95,4.92,5.41,3.94,11.81,6.4,18.7,6.89,4.43,.49,8.86,.98,13.78,.98,6.4,0,13.29-.49,19.68-1.97,3.44-.98,6.89-1.97,9.84-3.94,.98-.49,1.48-.98,2.46-1.48,.98-.98,1.97-1.97,2.46-3.44,0-.49,.49-.98,.49-1.97v-9.35c-.49-.49-.49-.98-.49-1.48"/><path class="cls-1" d="M209.14,391.22c.49-1.48,1.48-2.95,2.95-3.94,.98,.98,2.46,1.97,3.44,2.46,9.35,3.94,19.19,5.91,29.03,5.91,8.37,0,16.73-.98,24.6-3.44,.98-.49,1.97-.98,2.95-1.48v.98c0,4.92-13.29,10.83-31.99,10.83s-31-5.91-31-11.32m35.43-27.07c18.7,0,31.99,5.41,31.99,10.83s-13.29,10.83-31.99,10.83-31.99-5.41-31.99-10.83,13.29-10.83,31.99-10.83m-3.94,48.23c19.68,0,35.43-5.91,35.43-13.29,0,0,.49-6.89,.49-8.37,0-.98-.49-1.97-.49-2.95,1.97-1.48,3.44-3.44,3.94-5.91,0,0,.49-7.38,0-8.86-.98-8.86-18.7-13.78-35.43-13.78s-35.43,4.92-35.43,14.27c0,.49,.49,8.37,.49,8.37,0,.49,0,.98,.49,1.48-2.46,1.48-4.43,3.94-4.43,6.89,0,.49,.49,8.37,.49,8.37,0,1.97,.98,3.94,2.95,4.92,5.41,3.94,12.3,6.4,18.7,7.38,3.94,1.48,8.37,1.97,12.79,1.48"/><path class="cls-1" d="M279.51,405.49c0-.49-.49-.98-.98-1.48l-.98-.98c-.49-.49-.98-.49-1.48-.98-.49,.98-.98,1.48-1.48,1.97,.49,0,.98,.49,1.48,.98,.98,.49,1.48,1.48,1.48,2.95,0,.98-.49,1.97-1.48,2.46-.49,.49-.98,.49-1.48,.98l-1.97,.98s-1.97,.98-2.95,1.48c0,0-1.97,.98-2.95,.98s-2.95,.98-3.94,.98c-.49,0-3.94,.49-5.41,.98l-5.41,.49-8.37,.49c-3.94,0-7.38,0-11.32-.98-2.46-.49-5.41-.98-7.87-1.48-2.95-.49-5.91-1.48-8.37-2.46-1.48-.49-2.95-1.48-4.43-2.95-.98-.98-1.97-2.46-2.95-3.94v8.86c0,1.97,.98,3.94,2.95,4.92,5.41,3.94,11.81,6.4,18.7,6.89,4.43,.49,8.86,.98,13.78,.98,6.4,0,13.29-.49,19.68-2.46,3.44-.98,6.89-1.97,9.84-3.94,.98-.49,1.48-.98,2.46-1.48,.98-.98,1.97-1.97,2.46-3.44,0-.49,.49-.98,.49-1.97l.49-7.38v-1.48Z"/><path class="cls-1" d="M275.57,436.49c-2.46,1.48-4.92,2.46-7.87,3.44-7.87,2.46-15.75,3.44-24.11,2.95-3.94,0-7.87-.49-11.81-.98-2.46-.49-4.92-.98-7.38-1.48l-3.44-.98c-3.44-.98-6.4-2.46-9.35-4.43-.98-.98-1.97-1.48-2.46-2.95v7.87c0,1.97,.98,3.94,2.95,4.92,5.41,3.94,11.81,6.4,18.7,6.89,4.43,.49,9.35,.98,13.78,.98,6.4,0,13.29-.49,19.68-2.46,3.44-.98,6.89-1.97,9.84-3.94,3.44-1.97,5.41-4.43,5.41-6.89v-7.87c-.98,2.46-2.46,3.94-3.94,4.92"/><path class="cls-1" d="M211.6,432.55c5.41,3.94,11.81,6.4,18.7,6.89,4.43,.49,8.86,.98,13.78,.98,6.4,0,13.29-.49,19.68-2.46,3.44-.98,6.89-1.97,9.84-3.94,.98-.49,1.48-.98,2.46-1.48,.98-.98,1.97-1.97,2.46-3.44,0-.49,.49-.98,.49-1.97v-7.87c-.98,1.48-3.94,5.91-18.21,8.86-5.91,.98-11.81,1.48-17.72,1.48-9.84,0-19.19-1.48-28.05-5.41-1.48-.98-2.95-1.97-4.43-2.95-.98-.98-1.48-1.48-1.97-2.46v8.37c0,2.46,1.48,4.43,2.95,5.41"/><path class="cls-1" d="M280,457.65c-.98,1.48-2.46,2.95-4.43,3.94-2.46,1.48-4.92,2.46-7.87,3.44-7.87,2.46-15.75,3.44-24.11,2.95-3.94,0-7.87-.49-11.81-.98-2.46-.49-4.92-.49-7.38-.98-1.48-.49-2.46-.49-3.44-.98-3.44-.98-6.4-2.46-9.35-4.43-.98-.98-1.97-1.97-2.46-2.95v8.37c0,1.97,.98,3.94,2.95,4.92,5.41,3.94,11.81,6.4,18.7,6.89,4.43,.49,8.86,.98,13.78,.98,6.4,0,13.29-.49,19.68-1.97,3.44-.98,6.89-1.97,9.84-3.94,3.44-1.97,4.92-4.43,4.92-6.89,.98-.49,.98-7.87,.98-8.37"/><path class="cls-1" d="M230.79,464.54c4.43,.98,9.35,.98,13.78,.98,6.4,0,13.29-.49,19.68-1.97,3.44-.98,6.89-1.97,9.84-3.94,.98-.49,1.48-.98,1.97-1.48,.98-.98,1.97-1.97,2.46-3.44,0-.49,.49-.98,.49-1.97v-7.87c-.98,1.48-3.94,5.91-18.21,8.86-5.91,.98-11.81,1.48-17.72,1.48-9.84,.49-19.19-1.48-28.05-5.41-1.48-.98-2.95-1.97-4.43-2.95-.98-.98-1.48-1.48-1.97-2.46v8.37c0,1.97,.98,3.94,2.95,4.92,5.41,4.43,12.3,6.89,19.19,6.89"/><path class="cls-1" d="M267.7,309.53l-35.43,28.54c-.49,.49-.98,.49-1.48,.49-.98,0-.98-.49-.98-1.48v-14.27h-93.01c-.49,0-.98-.49-.98-1.48v-24.6c0-.98,.49-1.48,.98-1.48h93.01v-13.78c0-.98,0-1.48,.98-1.97,.49,0,.98,0,1.48,.49l35.43,27.07c.49,.49,.98,.98,.98,1.97,0,0-.49,.49-.98,.49"/></g></svg>