<?xml version="1.0" encoding="UTF-8"?><svg id="Capa_1" xmlns="http://www.w3.org/2000/svg" viewBox="0 0 467 568.37"><defs><style>.cls-1{fill:#fff;}.cls-2{fill:#d5102b;}</style></defs><path class="cls-2" d="M4.92,80.7H461.59V4.92H4.92V80.7Zm462.08,4.92H0V0H466.51V85.62h.49Z"/><polygon class="cls-2" points="16.73 17.72 38.88 17.72 38.88 24.6 32.48 24.6 32.48 67.91 23.62 67.91 23.62 24.6 16.73 24.6 16.73 17.72"/><path class="cls-2" d="M49.21,52.16h6.89l-3.44-20.18-3.44,20.18Zm-10.33,15.75l9.35-50.19h9.35l9.84,50.19h-8.86l-1.48-9.35h-8.86l-1.48,9.35h-7.87Z"/><path class="cls-2" d="M80.21,24.6v15.75h2.95c2.95,0,3.94-1.48,3.94-3.94v-7.38c0-2.95-1.48-3.94-3.94-3.94h-2.95v-.49Zm0,20.67v23.13h-8.37V17.72h12.3c8.37,0,11.81,4.43,11.81,11.32v6.4c0,5.41-1.97,8.37-6.89,9.84l7.87,22.64h-8.86l-7.87-22.64Z"/><path class="cls-2" d="M113.67,41.34h11.81v26.57h-5.91v-5.41c-.98,3.94-3.44,5.91-7.87,5.91-7.38,0-10.33-5.91-10.33-13.29V31c0-7.87,3.94-13.29,12.79-13.29,9.35,0,11.81,5.41,11.81,12.79v4.43h-7.87v-4.92c0-2.95-.98-4.92-4.43-4.92-2.95,0-4.43,1.97-4.43,4.92v27.07c0,2.95,1.48,4.92,3.94,4.92,2.95,0,3.94-1.48,3.94-4.92v-9.35h-3.94v-6.4h.49Z"/><polygon class="cls-2" points="132.37 17.72 152.55 17.72 152.55 24.6 140.74 24.6 140.74 38.88 149.11 38.88 149.11 45.77 140.74 45.77 140.74 61.02 152.55 61.02 152.55 67.91 132.37 67.91 132.37 17.72"/><polygon class="cls-2" points="156.49 17.72 178.63 17.72 178.63 24.6 171.74 24.6 171.74 67.91 163.38 67.91 163.38 24.6 156.49 24.6 156.49 17.72"/><path class="cls-2" d="M377.44,53.15h7.38v-20.67l-7.38,20.67Zm-7.38,1.48l14.76-36.91h8.37V53.15h3.44v6.4h-3.44v8.37h-7.87v-8.37h-14.76v-4.92h-.49Z"/><path class="cls-2" d="M409.92,36.91c3.44,0,5.91,2.95,5.91,5.91,0,3.44-2.95,5.91-5.91,5.91-3.44,0-5.91-2.95-5.91-5.91s2.95-5.91,5.91-5.91"/><path class="cls-2" d="M429.6,53.15h7.38v-20.67l-7.38,20.67Zm-7.38,1.48l14.76-36.91h8.37V53.15h3.44v6.4h-3.44v8.37h-7.87v-8.37h-14.76v-4.92h-.49Z"/><g><rect class="cls-2" x="0" y="101.86" width="466.51" height="466.51"/><path class="cls-1" d="M334.13,431.57l-9.35-18.21v-.49l-22.14-44.29c-1.97-3.94-6.4-6.4-10.83-5.91h-31.99l-.49-39.86c-.49-11.81-2.95-19.19-12.3-21.65-4.43-.49-9.35-.49-13.78,0l-.98,.49-37.89,11.81-.49,.49-.98,.49-.49,.49c-1.97,.98-3.44,2.95-3.94,4.92l-10.83,30.02c-1.97,4.92,.98,10.33,5.91,12.3,4.92,1.97,10.33-.98,12.3-5.91l9.35-25.59,14.27-4.43h.49v41.34c0,9.35,2.95,19.19,12.3,21.65l2.95,.98c1.48,.49,3.44,.49,4.92,.49h47.24l12.3,24.11q0,.49,.49,.98l4.43,8.86,4.43,8.37,.49,.49,.49,.49,4.92,8.86c2.95,5.91,10.33,7.87,16.24,4.92,3.94-3.44,6.4-10.33,2.95-16.24"/><path class="cls-1" d="M265.73,405v2.46c0,25.1-20.18,45.27-45.27,45.27s-45.27-20.18-45.27-45.27c0-10.33,3.44-20.18,9.84-28.05l-11.32-8.86c-20.18,26.08-15.75,63.48,10.33,84.15,26.08,20.67,63.48,15.75,84.15-10.33,8.37-10.33,12.79-23.62,12.79-36.91v-2.46h-15.25Z"/><path class="cls-1" d="M218.49,271.64c-.98,12.3,7.87,23.13,20.18,24.11,12.3,.98,23.13-7.87,24.11-20.18v-3.94c0-1.48,0-3.44-.49-4.92h-43.3c-.49,1.97-.49,3.44-.49,4.92"/><path class="cls-1" d="M265.24,254.41h-2.46c-1.97-6.4-5.91-11.32-11.81-14.27l-3.44,10.33v-15.25h-11.81v15.25l-3.94-10.83c-6.89,2.46-11.81,8.37-13.78,15.25h-2.46v8.37h49.21l.49-8.86Z"/><path class="cls-1" d="M156.49,338.07l-17.72-57.58s-6.4-16.73-20.18-16.73h-7.87c.49,.49,.98,1.48,1.48,2.46,.98,1.97,1.97,3.94,2.46,6.4v2.95c0,1.48-.49,2.95-.49,3.94,1.97,1.48,2.95,3.94,2.95,6.89,0,4.92-3.94,8.86-8.86,8.86s-8.86-3.94-8.86-8.86,3.94-8.86,8.86-8.86h1.97q.49-.49,.49-.98v-4.92c-.49-.98-.98-1.97-1.48-2.95-.98-1.48-1.48-2.46-2.46-3.94l-9.84,13.29-11.32-13.29c-2.95,5.41-4.43,11.32-3.94,17.22,.49,2.46,1.97,4.92,3.94,6.89,.49,0,1.48-.49,1.97-.49h3.44c2.95,.98,5.91,2.95,7.87,5.41l1.48,1.48-4.92,4.43-3.44-2.95,1.97-1.97c-1.97-1.48-3.94-2.95-6.4-2.95h-1.97c-.49,0-.49,.49-.49,.49-1.97,1.97-1.48,5.91,.98,9.35l2.46-1.97,2.46,2.95-5.41,4.43-.98-.98c-2.46-2.95-4.43-6.4-4.43-10.33,0-1.97,.49-3.44,1.97-4.92-2.46-2.95-3.94-6.4-3.94-10.33-.49-5.91,.98-11.81,3.94-16.73h-8.37c-14.27,0-20.18,16.73-20.18,16.73l-18.7,57.58s-2.95,10.83,5.91,13.29c8.86,2.46,11.81-7.87,11.81-7.87l14.27-48.23s.98-3.94,3.44-2.95c2.46,.98,1.97,4.92,1.97,4.92l-25.1,90.05h23.13v64.96c.49,5.91,5.91,10.83,11.81,10.33,5.41-.49,9.84-4.92,10.33-10.33v-64.96h6.4v64.96c0,5.91,4.92,11.32,11.32,11.32s11.32-4.92,11.32-11.32v-64.96h23.13l-25.1-90.05s-.98-3.94,1.97-4.92c2.95-.98,3.44,2.95,3.44,2.95l14.27,48.23s2.95,10.33,11.81,7.87c8.86-2.46,5.41-13.29,5.41-13.29"/><path class="cls-1" d="M106.79,280.99c-1.48,.49-2.46,.98-2.95,2.46,0,.49-.49,.98-.49,1.48v1.48c.49,1.97,2.46,3.44,4.43,3.44h.98c2.46-.49,3.94-2.95,3.44-5.91-.49-1.97-2.46-3.44-4.43-3.94q-.49,.98-.98,.98"/><path class="cls-1" d="M60.04,229.32c.49-1.97,2.46-4.92,8.86-5.91,.98,0,2.46-.49,3.44-.98,.98-1.97,2.46-3.94,3.94-5.41v-.98c-.49-2.95-3.44-6.4-9.84-3.44-7.87,3.94-6.89,15.75-6.89,15.75,.49,.49,.49,1.48,.49,.98"/><path class="cls-1" d="M118.1,222.43c.98,.49,2.46,.98,3.94,1.48,6.4,.98,8.37,3.94,9.35,5.91,0,.49,.49-.49,.49-1.48,0,0,.98-11.81-7.38-15.75-6.4-2.95-9.35,.49-9.84,3.44v1.48c1.48,.98,2.46,2.95,3.44,4.92"/><path class="cls-1" d="M95.47,212.59c12.23,0,22.14,9.92,22.14,22.14s-9.91,22.14-22.14,22.14-22.14-9.91-22.14-22.14,9.91-22.14,22.14-22.14"/><path class="cls-1" d="M354.8,451.74c0,6.4,5.41,11.81,11.81,11.81s11.81-5.41,11.81-11.81v-8.86h-23.62v8.86Z"/><path class="cls-1" d="M385.31,451.74c.49,6.4,5.91,11.32,12.79,10.83,5.91-.49,10.83-4.92,10.83-10.83v-8.86h-23.62v8.86Z"/><path class="cls-1" d="M360.71,287.38v-24.11h-3.44c-14.76,1.48-25.59,13.78-25.59,28.05v59.05c.49,4.43,4.43,7.87,8.86,7.38,3.94-.49,7.38-3.44,7.38-7.38v-50.19c0-1.97,.49-4.43,3.94-4.43h8.86v-8.37Z"/><polygon class="cls-1" points="369.56 281.97 395.15 281.97 395.15 263.27 381.87 263.27 369.56 263.27 369.56 281.97"/><path class="cls-1" d="M401.06,300.67h-2.46v-13.29h-32.97v13.29h-10.83v136.31h23.62v-74.31c0-1.97,.98-3.44,2.95-3.44h.49c1.97,0,3.44,.98,3.44,2.95v74.8h23.62v-136.31h-7.87Z"/><path class="cls-1" d="M406.96,263.27h-2.95v31.99h7.87c3.44,0,3.94,2.46,3.94,4.43v50.69c.49,4.43,4.43,7.87,8.86,7.38,3.94-.49,7.38-3.44,7.38-7.38v-59.05c.49-14.27-10.83-26.08-25.1-28.05"/><path class="cls-1" d="M397.12,283.94c0,1.48,.98,2.46,2.46,2.46s2.46-.98,2.46-2.46-.98-2.46-2.46-2.46-2.46,.98-2.46,2.46"/><path class="cls-1" d="M362.68,283.94c0,1.48,.98,2.46,2.46,2.46s2.46-.98,2.46-2.46-.98-2.46-2.46-2.46-2.46,.98-2.46,2.46"/><path class="cls-1" d="M396.14,229.81c-1.97-1.48-3.44-2.95-6.4-1.48-1.97,.98-2.95,1.48-5.41,2.95-4.43,1.97-9.35,3.44-13.78,3.94-3.44,.49-7.38,.98-10.83,.98,.98,12.3,11.81,21.16,24.11,20.18,10.33-.98,18.7-8.86,20.18-19.68-2.95-2.46-5.41-4.92-7.87-6.89"/><path class="cls-1" d="M359.23,231.29c3.44,0,6.89-.49,10.33-.98,4.43-.98,8.37-1.97,12.3-3.94,3.44-1.48,6.89-2.95,6.89-2.95,1.48-.49,2.95-.98,4.43-.49,.98,.49,1.48,.98,1.97,1.48l1.48,1.48s.98,.98,5.91,4.92c.49,.49,.98,.98,1.48,.98s.49-3.94,.49-5.91c-.49-5.91-2.46-11.32-5.91-15.75-.98-1.48-2.95-2.46-4.92-1.97-2.95,.49-2.95-1.48-4.92-2.95-6.4-2.46-13.78-.98-19.19,2.95-6.4,5.41-11.32,11.81-14.27,19.68-.98,1.97,.98,3.44,3.94,3.44"/></g></svg>