<?xml version="1.0" encoding="UTF-8"?><svg id="Capa_1" xmlns="http://www.w3.org/2000/svg" viewBox="0 0 467 569.36"><defs><style>.cls-1{fill:#fff;}.cls-2{fill:#48ad37;}</style></defs><path class="cls-2" d="M4.92,80.7H461.59V4.92H4.92V80.7Zm462.08,4.92H0V0H466.51V85.62h.49Z"/><polygon class="cls-2" points="16.73 17.72 38.88 17.72 38.88 24.6 32.48 24.6 32.48 67.91 23.62 67.91 23.62 24.6 16.73 24.6 16.73 17.72"/><path class="cls-2" d="M49.21,52.16h6.89l-3.44-20.18-3.44,20.18Zm-10.33,15.75l9.35-50.19h9.35l9.84,50.19h-8.86l-1.48-9.35h-8.86l-1.48,9.35h-7.87Z"/><path class="cls-2" d="M80.21,24.6v15.75h2.95c2.95,0,3.94-1.48,3.94-3.94v-7.38c0-2.95-1.48-3.94-3.94-3.94h-2.95v-.49Zm0,20.18v23.13h-8.37V17.72h12.3c8.37,0,11.81,4.43,11.81,11.32v6.4c0,5.41-1.97,8.37-6.89,9.84l7.87,22.64h-8.86l-7.87-23.13Z"/><path class="cls-2" d="M113.67,41.34h11.81v26.57h-5.91v-5.41c-.98,3.94-3.44,5.91-7.87,5.91-7.38,0-10.33-5.91-10.33-13.29V31c0-7.87,3.94-13.29,12.79-13.29,9.35,0,11.81,5.41,11.81,12.79v4.43h-7.87v-4.92c0-2.95-.98-4.92-4.43-4.92-2.95,0-4.43,1.97-4.43,4.92v27.07c0,2.95,1.48,4.92,3.94,4.92,2.95,0,3.94-1.48,3.94-4.92v-9.35h-3.94v-6.4h.49Z"/><polygon class="cls-2" points="132.37 17.72 152.55 17.72 152.55 24.6 140.74 24.6 140.74 38.88 149.11 38.88 149.11 45.77 140.74 45.77 140.74 61.02 152.55 61.02 152.55 67.91 132.37 67.91 132.37 17.72"/><polygon class="cls-2" points="156.49 17.72 178.63 17.72 178.63 24.6 171.74 24.6 171.74 67.91 163.38 67.91 163.38 24.6 156.49 24.6 156.49 17.72"/><polygon class="cls-2" points="370.06 17.72 370.06 67.91 361.69 67.91 361.69 29.53 355.79 35.43 355.79 27.07 363.66 18.21 370.06 18.21 370.06 17.72"/><path class="cls-2" d="M400.57,44.78v12.3c0,6.89-3.44,11.32-11.81,11.32s-11.81-4.92-11.81-12.3v-5.91h7.87v6.4c0,2.95,.98,4.92,3.94,4.92,2.46,0,3.44-1.97,3.44-4.43v-12.3c0-2.95-.98-4.43-3.44-4.43s-3.94,1.48-3.94,4.43v.98h-7.38V17.72h22.14v6.89h-14.27v12.3c1.48-2.46,3.94-3.44,6.89-3.44,4.43,.49,8.37,3.44,8.37,11.32"/><path class="cls-2" d="M414.35,36.91c3.44,0,5.91,2.95,5.91,5.91,0,3.44-2.95,5.91-5.91,5.91-3.44,0-5.91-2.95-5.91-5.91-.49-2.95,2.46-5.91,5.91-5.91"/><polygon class="cls-2" points="427.14 17.72 448.3 17.72 448.3 25.59 437.47 67.91 429.11 67.91 440.43 24.6 427.63 24.6 427.63 17.72 427.14 17.72"/><g><rect class="cls-2" x="0" y="101.86" width="466.51" height="466.51"/><path class="cls-1" d="M325.28,310.51c0-1.48,1.48-2.95,2.95-2.95s2.95,1.48,2.95,2.95-1.48,2.95-2.95,2.95-2.95-1.48-2.95-2.95m75.78,41.83c-7.38,81.2-71.85,146.15-153.04,153.04h-3.44v-60.04h-22.14v60.04c-37.89-2.46-74.31-17.72-102.36-43.8l59.05-59.05h11.32c-.98-2.46-2.46-4.92-4.43-6.89l45.27-45.27c10.83,2.46,18.7,4.43,18.7,4.43l9.84,25.1,8.37,8.86,14.76,13.78h28.05s-1.97-9.84-18.21-13.29l-12.79-15.26-2.46-26.08,33.95-18.21,23.13,7.87c2.95-4.92,6.4-9.35,10.33-13.29v-2.95c-3.94-3.94-6.89-7.87-7.87-12.79l-.49-2.46-15.26-12.3s-.98-7.38-6.4-8.86l-3.44,10.83-9.84,1.48-13.78-3.44,60.04-60.04,9.35-9.35c25.1,27.07,40.35,62,43.8,99.4h-50.19v22.14h50.69c-.49,1.97-.49,4.43-.49,6.4m-199.79-6.89l-31.99,31.99-4.43-8.37,21.65-23.13c4.92-.49,9.84-.98,14.76-.49m54.13-2.46c-2.46-2.95-4.43-6.4-6.4-9.84l2.46-2.46c.98,3.94,1.97,8.37,3.94,12.3m20.18-10.83c-3.94-5.41-6.4-11.81-7.38-18.21l3.44-3.44c0,7.38,1.48,14.76,3.94,21.65m-210.13,13.78h57.58v-22.14h-57.08c7.38-81.69,72.34-146.15,153.53-153.04h2.46v47.24h22.64v-47.73c34.94,2.46,67.91,15.25,94.97,37.4l-29.53,29.53-55.61,55.61-12.79,12.79c0-4.43,.49-8.37,1.97-12.3-3.94,1.48-8.37,2.95-12.79,4.43-2.95,7.38-4.43,15.25-4.43,23.62l-2.95,2.95c-1.97-7.87-1.97-16.24-.49-24.11-3.94,.98-8.37,1.48-12.3,1.48-7.38,8.86-9.84,20.67-6.89,31.99-4.92-10.33-4.92-22.64,0-32.97-4.92-1.48-9.84-1.97-14.76-1.97-9.35,9.35-12.79,22.64-9.35,34.94-5.41-10.83-5.41-23.62,.49-33.95-8.86,1.97-17.22,6.4-23.62,13.29-8.37,8.86-15.25,19.19-20.67,30.51,0,0-18.7,36.91-38.38,36.91s-16.73-14.27-16.73-14.27c0,0,10.33-5.41,9.84-10.83-.49-5.41-11.81,1.48-14.27,8.37-2.46,6.89-1.48,23.62,22.14,23.62s52.65-49.7,52.65-49.7l2.95,8.86c.49,3.94-7.87,22.64-8.37,24.6l12.79,19.19-55.11,53.64c-22.64-27.56-35.92-62-37.89-97.93m360.21-22.14c-7.38-96.45-84.64-172.23-181.09-178.14v-44.29h-22.14v44.29c-96.45,5.91-173.71,81.69-181.09,178.14H0v22.14H40.84c4.43,98.91,82.67,178.14,181.09,184.04v39.37h22.64v-38.88c98.91-5.91,177.15-85.62,181.09-184.54h40.84v-22.14h-40.84Z"/></g></svg>