<?xml version="1.0" encoding="UTF-8"?><svg id="Capa_1" xmlns="http://www.w3.org/2000/svg" viewBox="0 0 467 568.37"><defs><style>.cls-1{fill:#e63428;}.cls-2{fill:#fff;}</style></defs><path class="cls-1" d="M4.92,80.7H461.59V4.92H4.92V80.7Zm462.08,4.92H0V0H466.51V85.62h.49Z"/><polygon class="cls-1" points="16.73 17.72 38.88 17.72 38.88 24.6 32.48 24.6 32.48 67.91 23.62 67.91 23.62 24.6 16.73 24.6 16.73 17.72"/><path class="cls-1" d="M49.21,52.16h6.89l-3.44-20.18-3.44,20.18Zm-10.33,15.75l9.35-50.19h9.35l9.84,50.19h-8.86l-1.48-9.35h-8.86l-1.48,9.35h-7.87Z"/><path class="cls-1" d="M80.21,24.6v15.75h2.95c2.95,0,3.94-1.48,3.94-3.94v-7.38c0-2.95-1.48-3.94-3.94-3.94h-2.95v-.49Zm0,20.67v23.13h-8.37V17.72h12.3c8.37,0,11.81,4.43,11.81,11.32v6.4c0,5.41-1.97,8.37-6.89,9.84l7.87,22.64h-8.86l-7.87-22.64Z"/><path class="cls-1" d="M113.67,41.34h11.81v26.57h-5.91v-5.41c-.98,3.94-3.44,5.91-7.87,5.91-7.38,0-10.33-5.91-10.33-13.29V31c0-7.87,3.94-13.29,12.79-13.29,9.35,0,11.81,5.41,11.81,12.79v4.43h-7.87v-4.92c0-2.95-.98-4.92-4.43-4.92-2.95,0-4.43,1.97-4.43,4.92v27.07c0,2.95,1.48,4.92,3.94,4.92,2.95,0,3.94-1.48,3.94-4.92v-9.35h-3.94v-6.4h.49Z"/><polygon class="cls-1" points="132.37 17.72 152.55 17.72 152.55 24.6 140.74 24.6 140.74 38.88 149.11 38.88 149.11 45.77 140.74 45.77 140.74 61.02 152.55 61.02 152.55 67.91 132.37 67.91 132.37 17.72"/><polygon class="cls-1" points="156.49 17.72 178.63 17.72 178.63 24.6 171.74 24.6 171.74 67.91 163.38 67.91 163.38 24.6 156.49 24.6 156.49 17.72"/><path class="cls-1" d="M395.65,44.78v12.3c0,6.89-3.44,11.32-11.81,11.32s-11.81-4.92-11.81-12.3v-5.91h7.87v6.4c0,2.95,.98,4.92,3.94,4.92,2.46,0,3.44-1.97,3.44-4.43v-12.3c0-2.95-.98-4.43-3.44-4.43s-3.94,1.48-3.94,4.43v.98h-7.38V17.72h22.14v6.89h-14.27v12.3c1.48-2.46,3.94-3.44,6.89-3.44,4.43,.49,8.37,3.44,8.37,11.32"/><path class="cls-1" d="M409.92,36.91c3.44,0,5.91,2.95,5.91,5.91,0,3.44-2.95,5.91-5.91,5.91-3.44,0-5.91-2.95-5.91-5.91-.49-2.95,2.46-5.91,5.91-5.91"/><path class="cls-1" d="M448.3,44.78v12.3c0,6.89-3.44,11.32-11.81,11.32s-11.81-4.92-11.81-12.3v-5.91h7.87v6.4c0,2.95,.98,4.92,3.94,4.92,2.46,0,3.44-1.97,3.44-4.43v-12.3c0-2.95-.98-4.43-3.44-4.43s-3.94,1.48-3.94,4.43v.98h-7.87V17.72h22.14v6.89h-14.27v12.3c1.48-2.46,3.94-3.44,6.89-3.44,4.43,.49,8.86,3.44,8.86,11.32"/><g><rect class="cls-1" y="101.86" width="466.51" height="466.51"/><path class="cls-2" d="M143.2,229.32c14.76,0,26.57-11.81,26.57-26.57s-11.81-27.07-26.57-27.07-26.57,11.81-26.57,26.57,11.81,27.07,26.57,27.07"/><path class="cls-2" d="M333.15,227.84c14.76,0,27.07-12.3,27.07-27.07s-12.3-27.07-27.07-27.07-27.07,12.3-27.07,27.07,12.3,27.07,27.07,27.07"/><path class="cls-2" d="M294.27,273.61c2.95,4.43,4.43,9.35,4.43,14.27v46.26h68.89v-50.19c0-1.97,.98-5.41,3.94-5.41,4.43,0,4.92,3.44,4.92,5.91v49.7h20.67v-60.04c0-18.7-14.27-33.95-32.48-35.92h-53.15c-7.38,.49-14.76-2.95-19.19-8.86l-44.29-61.51c-1.97-3.44-4.92-6.4-8.37-8.86-5.41-2.95-9.84,0-13.78,4.92l-48.72,64.46c-8.86,10.83-17.22,13.78-22.64,13.78h-40.84c-17.72,0-25.59,20.67-25.59,20.67l-22.14,71.85h24.11l15.75-53.15s.98-4.43,4.43-3.44c3.44,.98,1.97,5.91,1.97,5.91l-13.78,50.69h87.1l-10.83-39.37c-1.97-8.37-.98-17.72,3.44-25.1l17.22-26.57,40.84-56.59,33.95,51.67,24.11,34.94Z"/><path class="cls-2" d="M161.41,383.84H84.15v-13.78h76.77l.49,13.78Zm17.22-35.92H50.69v13.29h10.33v151.57h125.48v-151.57h10.33v-13.29h-18.21Z"/><path class="cls-2" d="M381.87,383.84h-76.77v-13.78h76.77v13.78Zm15.75-35.92h-127.95v13.29h10.33v151.57h125.48v-151.57h10.33v-13.29h-18.21Z"/></g></svg>