<?xml version="1.0" encoding="UTF-8"?><svg id="Capa_1" xmlns="http://www.w3.org/2000/svg" viewBox="0 0 467 568.37"><defs><style>.cls-1{fill:#fff;}.cls-2{fill:#d5102b;}</style></defs><path class="cls-2" d="M4.92,80.7H461.59V4.92H4.92V80.7Zm462.08,4.92H0V0H466.51V85.62h.49Z"/><polygon class="cls-2" points="16.73 17.72 38.88 17.72 38.88 24.6 32.48 24.6 32.48 67.91 23.62 67.91 23.62 24.6 16.73 24.6 16.73 17.72"/><path class="cls-2" d="M49.21,52.16h6.89l-3.44-20.18-3.44,20.18Zm-10.33,15.75l9.35-50.19h9.35l9.84,50.19h-8.86l-1.48-9.35h-8.86l-1.48,9.35h-7.87Z"/><path class="cls-2" d="M80.21,24.6v15.75h2.95c2.95,0,3.94-1.48,3.94-3.94v-7.38c0-2.95-1.48-3.94-3.94-3.94h-2.95v-.49Zm0,20.18v23.13h-8.37V17.72h12.3c8.37,0,11.81,4.43,11.81,11.32v6.4c0,5.41-1.97,8.37-6.89,9.84l7.87,22.64h-8.86l-7.87-23.13Z"/><path class="cls-2" d="M113.67,41.34h11.81v26.57h-5.91v-5.41c-.98,3.94-3.44,5.91-7.87,5.91-7.38,0-10.33-5.91-10.33-13.29V31c0-7.87,3.94-13.29,12.79-13.29,9.35,0,11.81,5.41,11.81,12.79v4.43h-7.87v-4.92c0-2.95-.98-4.92-4.43-4.92-2.95,0-4.43,1.97-4.43,4.92v27.07c0,2.95,1.48,4.92,3.94,4.92,2.95,0,3.94-1.48,3.94-4.92v-9.35h-3.94v-6.4h.49Z"/><polygon class="cls-2" points="132.37 17.72 152.55 17.72 152.55 24.6 140.74 24.6 140.74 38.88 149.11 38.88 149.11 45.77 140.74 45.77 140.74 61.02 152.55 61.02 152.55 67.91 132.37 67.91 132.37 17.72"/><polygon class="cls-2" points="156.49 17.72 178.63 17.72 178.63 24.6 171.74 24.6 171.74 67.91 163.38 67.91 163.38 24.6 156.49 24.6 156.49 17.72"/><path class="cls-2" d="M378.42,53.15h7.38v-20.67l-7.38,20.67Zm-7.38,1.48l14.76-36.91h8.37V53.15h2.95v6.4h-3.44v8.37h-7.87v-8.37h-14.76v-4.92Z"/><path class="cls-2" d="M410.9,36.91c3.44,0,5.91,2.95,5.91,5.91,0,3.44-2.95,5.91-5.91,5.91-3.44,0-5.91-2.95-5.91-5.91s2.46-5.91,5.91-5.91"/><path class="cls-2" d="M447.81,28.54v4.43c0,4.43-2.46,6.89-5.91,8.37,4.43,.98,6.4,3.94,6.4,8.37v7.38c0,6.89-3.94,11.32-12.3,11.32s-11.81-4.92-11.81-12.3v-6.4h7.87v7.38c0,2.95,.98,4.92,3.94,4.92,2.46,0,3.94-1.97,3.94-4.43v-8.37c0-2.46-.98-3.94-3.94-3.94h-3.44v-6.4h2.95c2.95,0,4.43-1.48,4.43-3.94v-5.91c0-2.95-.98-4.43-3.44-4.43s-3.44,1.97-3.44,4.92v4.92h-7.87v-4.43c0-7.38,2.95-12.79,11.81-12.79,7.38,0,10.83,4.43,10.83,11.32"/><g><rect class="cls-2" x="0" y="101.86" width="466.51" height="466.51"/><path class="cls-1" d="M405.98,231.29v30.02c0,1.48-.98,2.46-2.46,2.46h-21.16c-1.48,0-2.46-.98-2.95-2.46v-30.02c-17.22,7.38-24.6,27.07-17.22,44.29,3.44,7.87,9.84,14.27,17.72,17.72v102.85c0,7.87,6.4,14.27,14.27,14.27s14.27-6.4,14.27-14.27v-104.32c16.24-8.37,22.64-29.03,14.27-45.27-1.48-2.95-3.44-5.91-5.91-8.37-2.95-2.46-6.89-4.92-10.83-6.89"/><polygon class="cls-1" points="301.66 379.9 312.97 409.92 324.78 379.9 301.66 379.9"/><path class="cls-1" d="M324.29,375.47V240.14c0-4.92-4.92-8.86-11.81-8.86s-11.81,3.94-11.81,8.86v135.33h23.62Z"/><polygon class="cls-1" points="265.73 406.96 265.73 237.68 256.87 230.79 255.89 230.3 255.89 400.07 157.96 431.57 154.03 431.57 153.53 431.57 153.04 431.57 152.55 431.57 148.61 431.57 147.63 431.57 50.19 404.5 50.19 230.79 50.19 230.3 40.35 237.68 40.35 410.9 147.63 440.92 148.12 440.92 152.55 440.92 153.04 440.92 153.53 440.92 154.03 440.92 158.46 440.92 256.87 409.42 265.73 406.96"/><path class="cls-1" d="M221.94,360.21l-1.97-.98c-.98-.49-1.97-.49-2.46,.49l-2.46,1.97c-.98,.49-1.48,1.48-1.48,2.46v2.95c0,.98-.49,1.97-1.48,2.46l-5.41,1.97c-.98,.49-1.97,0-1.97-.98s0-1.97-.49-2.95c0-.98-.49-1.48-1.48-1.48h-2.95c-.98,0-1.97,.49-2.46,1.48l-1.97,2.46c-.98,.98-1.48,1.48-2.46,.98-1.48-.49-2.95-1.48-4.43-2.95-.49-.49-.49-1.48,0-2.46l1.97-2.95c.49-.98,.49-1.97,0-2.46-.49-.98-.98-1.48-.98-2.46-.49-.98-1.48-.98-1.97-.98l-2.95,.98c-.98,.49-1.48,0-1.48-.98l-.49-5.91c0-.98,.49-1.97,1.48-2.46l2.95-.98c.98-.49,1.48-.98,1.48-1.97,.49-.98,.49-2.46,.98-3.44,.49-.98,0-1.97-.49-2.46l-1.97-1.48c-.49-.49-.49-1.48,0-1.97,.98-2.46,2.46-4.43,3.94-6.4,.98-.98,1.48-.98,2.46-.49,.98,.49,1.48,.98,1.97,.98,.98,.49,1.97,.49,2.46-.49l2.46-1.97c.98-.49,1.48-1.48,1.48-2.46v-2.95c0-.98,.49-1.97,1.48-2.46l5.91-1.97c.98-.49,1.48,0,1.97,.98s0,1.97,.49,2.95,.49,1.48,1.48,1.48h1.97c.98,0,1.97-.49,2.46-1.48l1.97-2.46c.98-.98,1.48-1.48,2.46-.98,1.48,.49,2.95,1.48,4.43,2.95,.49,.49,.49,1.97,0,2.46l-1.48,2.95c-.49,.98-.49,1.97,0,2.46l1.48,2.46c.49,.98,1.48,.98,1.97,.98l2.95-.98c.98-.49,1.48,0,1.48,.98,0,1.97,.49,3.94,.49,5.91,0,.98-.49,1.97-1.48,2.46l-2.95,.98c-.98,.49-1.48,.98-1.48,1.97-.49,.98-.49,2.46-.98,3.44-.49,.98,0,1.48,.49,2.46,.49,.49,1.48,.98,1.97,1.48,.49,.49,.98,1.48,.49,2.46-.98,1.97-2.46,4.43-3.94,5.91-.49,.49-.98,.98-1.48,.98l-1.97-.49Zm-16.73-76.28v-.98c-.49-.49-.49-1.48-.98-1.97-.49-.98,0-1.97,.49-2.46,1.48-1.48,2.95-2.46,4.43-3.44,.98-.49,1.48-.49,1.97,0l.98,1.97c0,.49,.49,.49,.98,.49,1.48-.49,3.44-.98,5.41-.98,.49,0,.49-.49,.49-.98l.98-2.46c.49-.98,.98-1.48,2.46-1.48,1.48,.49,2.95,.98,4.43,1.48,.49,.49,.98,.98,.49,1.97l-.98,2.46v1.48c1.48,1.48,2.95,3.94,2.95,5.91h.98l2.46-.49c.98,0,1.48,0,1.48,1.48,0,1.97,0,3.94-.49,5.41,0,.98-.98,1.48-1.48,1.97l-2.46,.49c-.49,0-.98,.49-.98,.49-.98,1.97-1.97,4.43-3.44,5.91v.98l.98,1.97c.49,.98,0,1.97-.49,2.46-1.48,1.48-2.95,2.46-4.43,3.44-.98,.49-1.48,.49-1.97,0l-1.97-.49c0-.49-.49-.49-.98-.49-1.48,.49-3.44,.98-4.92,.98-.49,0-.49,.49-.49,.98l-.98,1.97c-.49,1.48-.98,1.48-2.46,1.48s-2.95-.49-4.43-1.48c-.98-.49-.98-.98-.49-1.97l.98-2.46v-1.48c-1.97-1.48-2.95-3.94-3.44-6.4h-3.44c-.98,0-1.48,0-1.48-1.48,0-1.97,0-3.94,.49-5.41,0-.98,.98-1.48,1.48-1.97h1.97c.49,0,.98-.49,.98-.49,1.97-2.46,3.44-4.43,4.92-6.4m-28.54,46.75v-3.44c-1.97-.49-3.44-1.48-4.43-2.46,0,0-.49,0-.49,.49l-1.48,.98c-.98,.49-1.48,.49-1.48-.49-.49-.98-.98-2.46-1.48-3.44,0-.49,0-1.48,.98-1.97l1.48-1.48,.49-.49c0-1.48,.49-3.44,.98-4.92,0,0,0-.49-.49-.49l-1.48-.98c-.49-.49-.49-.98,0-1.97,.49-1.48,1.48-2.95,2.46-3.94,.49-.49,.98-.98,1.48-.49l1.48,.98h.98c.98-.98,2.46-1.97,3.94-2.95v-2.95c0-.98,.49-1.48,1.48-1.48,1.48-.49,2.46-.49,3.94-.49,.49,0,.98,.49,.98,.98v2.95c1.97,.49,3.44,1.48,4.43,2.46,0,0,.49,0,.49-.49l1.48-.98c.98-.49,1.48-.49,1.48,.49,.49,.98,.98,2.46,1.48,3.44,0,.49,0,1.48-.49,1.97l-1.48,1.48c-.49,0-.49,.49-.98,.98,0,1.48,0,3.44-.98,4.92,0,0,0,.49,.49,.49l1.48,.98c.49,.49,.49,.98,0,1.97-.49,1.48-1.48,2.95-2.46,3.94-.49,.49-.98,.98-1.48,.49l-1.48-.98h-.98c-.98,.98-2.46,1.97-3.94,2.46v2.95c0,.98-.49,1.48-1.48,1.48-1.48,.49-2.46,.49-3.94,.98-.49,0-.98-.49-.98-.98m68.89,63.97V230.3l-88.58,34.94v155.5h.49l88.09-26.08Z"/><path class="cls-1" d="M216.04,352.83c4.91-5.91,5.4-13.78,1.47-17.72-3.93-3.94-11.3-2.95-16.21,2.95-4.91,5.91-5.4,13.78-1.48,17.72,3.93,3.94,11.3,2.46,16.21-2.95"/><path class="cls-1" d="M210.13,300.12c3.44,2.45,8.37,1.96,10.83-1.47,0,0,0-.49,.49-.49,3.44-3.43,3.94-8.33,.98-12.26-3.44-2.45-8.37-1.96-10.83,1.47,0,0,0,.49-.49,.49-3.44,3.43-3.94,8.83-.98,12.26"/><path class="cls-1" d="M186.01,319.37c2.46-2.46,2.95-6.89,.49-9.35-2.95-1.97-6.4-1.48-8.37,1.48v.49c-2.95,2.46-2.95,6.89-.49,9.84,2.46,1.48,6.4,.49,8.37-2.46,0,.49,0,0,0,0"/><path class="cls-1" d="M134.83,332.66l.49,5.41-61.51-19.19-.49-5.41,61.51,19.19Zm-38.38-60.04l5.41-4.92,4.92,1.48-.49,39.37-5.91-1.97,.49-30.02-3.94,3.44-.49-7.38Zm21.16,77.26v5.91l-7.87,30.51-5.91-1.97,7.87-31-8.86-3.44v-5.41l14.76,5.41Zm-17.72-6.4l-.49,39.37-5.91-1.97,.49-30.02-4.43,3.44v-6.89l5.41-4.92,4.92,.98Zm47.24,77.26v-155.5l-87.1-34.45-.49-.49v163.87l87.59,26.57Z"/></g></svg>