<?xml version="1.0" encoding="UTF-8"?><svg id="Capa_1" xmlns="http://www.w3.org/2000/svg" viewBox="0 0 467 568.37"><defs><style>.cls-1{fill:#f49400;}.cls-2{fill:#fff;}</style></defs><path class="cls-1" d="M4.92,80.7H461.59V4.92H4.92V80.7Zm462.08,4.92H0V0H466.51V85.62h.49Z"/><polygon class="cls-1" points="16.73 17.72 38.88 17.72 38.88 24.6 32.48 24.6 32.48 67.91 23.62 67.91 23.62 24.6 16.73 24.6 16.73 17.72"/><path class="cls-1" d="M49.21,52.16h6.89l-3.44-20.18-3.44,20.18Zm-10.33,15.75l9.35-50.19h9.35l9.84,50.19h-8.86l-1.48-9.35h-8.86l-1.48,9.35h-7.87Z"/><path class="cls-1" d="M80.21,24.6v15.75h2.95c2.95,0,3.94-1.48,3.94-3.94v-7.38c0-2.95-1.48-3.94-3.94-3.94h-2.95v-.49Zm0,20.18v23.13h-8.37V17.72h12.3c8.37,0,11.81,4.43,11.81,11.32v6.4c0,5.41-1.97,8.37-6.89,9.84l7.87,22.64h-8.86l-7.87-23.13Z"/><path class="cls-1" d="M113.67,41.34h11.81v26.57h-5.91v-5.41c-.98,3.94-3.44,5.91-7.87,5.91-7.38,0-10.33-5.91-10.33-13.29V31c0-7.87,3.94-13.29,12.79-13.29,9.35,0,11.81,5.41,11.81,12.79v4.43h-7.87v-4.92c0-2.95-.98-4.92-4.43-4.92-2.95,0-4.43,1.97-4.43,4.92v27.07c0,2.95,1.48,4.92,3.94,4.92,2.95,0,3.94-1.48,3.94-4.92v-9.35h-3.94v-6.4h.49Z"/><polygon class="cls-1" points="132.37 17.72 152.55 17.72 152.55 24.6 140.74 24.6 140.74 38.88 149.11 38.88 149.11 45.77 140.74 45.77 140.74 61.02 152.55 61.02 152.55 67.91 132.37 67.91 132.37 17.72"/><polygon class="cls-1" points="156.49 17.72 178.63 17.72 178.63 24.6 171.74 24.6 171.74 67.91 163.38 67.91 163.38 24.6 156.49 24.6 156.49 17.72"/><polygon class="cls-1" points="375.47 17.72 375.47 67.91 367.1 67.91 367.1 29.53 361.2 35.43 361.2 27.07 369.07 18.21 375.47 18.21 375.47 17.72"/><polygon class="cls-1" points="395.65 17.72 395.65 67.91 387.28 67.91 387.28 29.53 381.38 35.43 381.38 27.07 389.25 18.21 395.65 18.21 395.65 17.72"/><path class="cls-1" d="M410.9,36.91c3.44,0,5.91,2.95,5.91,5.91,0,3.44-2.95,5.91-5.91,5.91-3.44,0-5.91-2.95-5.91-5.91s2.46-5.91,5.91-5.91"/><path class="cls-1" d="M447.81,28.54v4.43c0,4.43-2.46,6.89-5.91,8.37,4.43,.98,6.4,3.94,6.4,8.37v7.38c0,6.89-3.94,11.32-12.3,11.32s-11.81-4.92-11.81-12.3v-6.4h7.87v7.38c0,2.95,.98,4.92,3.94,4.92,2.46,0,3.94-1.97,3.94-4.43v-8.37c0-2.46-.98-3.94-3.94-3.94h-3.44v-6.4h2.95c2.95,0,4.43-1.48,4.43-3.94v-5.91c0-2.95-.98-4.43-3.44-4.43s-3.44,1.97-3.44,4.92v4.92h-7.87v-4.43c0-7.38,2.95-12.79,11.81-12.79,7.38,0,10.83,4.43,10.83,11.32"/><g><rect class="cls-1" x="0" y="101.86" width="466.51" height="466.51"/><path class="cls-2" d="M181.09,464.05c-1.97-.98-3.94,0-4.92,1.48-1.97,3.44-3.94,6.89-6.4,9.84-.98,.98-1.97,1.48-2.95,1.48h-11.81c-.98,0-2.46-.49-2.95-1.48-1.48-1.48-5.91-9.84-6.4-9.84-.49-.98-1.97-1.48-2.95-1.48-1.97,0-3.44,1.48-3.44,3.44,0,.49,0,.98,.49,1.48l9.84,18.21c.49,.98,.49,1.48,.49,2.46v2.46c0,.98,0,1.97-.49,2.95l-4.92,18.7h5.41v14.27c0,2.95,1.97,4.92,4.92,4.92s4.92-1.97,4.92-4.92v-14.27h2.95v13.78c0,2.95,1.97,4.92,4.92,4.92s4.92-1.97,4.92-4.92v-14.27h5.41l-4.92-18.7c0-.98-.49-1.48-.49-2.46v-2.95c0-.98,.49-1.48,.49-2.46l9.35-16.73s.49-.98,.98-1.97c.98-1.48,.49-3.44-.98-4.43-.98,.98-.98,.49-1.48,.49"/><path class="cls-2" d="M160.92,470.44c5.41,0,9.84-4.43,9.84-9.84s-4.43-9.84-9.84-9.84-9.84,4.43-9.84,9.84,4.43,9.84,9.84,9.84"/><path class="cls-2" d="M299.19,446.33c6.4,0,11.32-4.92,11.32-11.32s-4.92-11.32-11.32-11.32-11.32,4.92-11.32,11.32,4.92,11.32,11.32,11.32"/><path class="cls-2" d="M345.94,515.23l-4.92-9.35-11.32-22.14c-.98-1.97-2.95-2.95-5.41-2.95h-15.75l-.49-19.68c0-5.91-1.48-9.35-6.4-10.83-2.46-.49-4.43-.49-6.89,0h-.49l-18.7,5.91h-.98c-.98,.49-1.48,1.48-1.97,2.46l-5.41,15.26c-1.48,1.97-.98,5.41,.98,6.89,1.97,1.48,5.41,.98,6.89-.98,.49-.98,.98-1.48,.98-2.46l4.43-12.79,6.89-2.46h.49v21.16c0,4.92,1.48,9.35,6.4,10.83l1.48,.49h26.08l5.91,12.79v.49l2.46,4.43,1.97,4.43v.49l2.46,4.43c1.48,2.95,4.92,4.43,7.87,2.46,2.95-1.97,4.92-5.91,3.44-8.86"/><path class="cls-2" d="M319.37,501.45h-8.86v1.48c0,12.3-9.84,21.65-22.14,21.65s-21.65-9.84-21.65-22.14c0-4.92,1.48-9.35,4.43-13.29l.49-.49-6.89-5.41-.49,.49c-10.33,13.29-7.87,32.48,5.41,42.81,13.29,10.33,32.48,7.87,42.81-5.41,4.43-5.41,6.4-11.81,6.4-18.7v-.98h.49Z"/><path class="cls-2" d="M221.44,413.36c6.89,0,12.3-5.41,12.3-12.3s-5.41-12.3-12.3-12.3-12.3,5.41-12.3,12.3,5.41,12.3,12.3,12.3"/><path class="cls-2" d="M235.71,417.79h-28.54c-8.37,.98-14.76,7.87-14.76,16.24v33.95c-.98,2.46,.49,5.41,3.44,5.91,2.46,.98,5.41-.49,5.91-3.44,.49-.98,.49-1.97,0-2.95v-29.03c0-.98,.49-2.46,2.46-2.46s1.48,1.48,1.48,2.46v87.59c.49,3.94,3.44,6.4,7.38,6.4,3.44-.49,5.91-2.95,6.4-6.4v-50.19c0-.98,.98-1.97,1.97-1.97s1.97,.98,1.97,1.97v50.19c.49,3.94,3.44,6.4,7.38,6.4,3.44-.49,5.91-2.95,6.4-6.4v-87.1c0-.98,.49-2.46,1.48-2.46s2.46,1.48,2.46,2.46v29.03c-.49,2.46,.98,5.41,3.44,5.91,2.46,.49,5.41-.98,5.91-3.44v-36.42c0-8.37-6.4-15.26-14.76-16.24"/><path class="cls-2" d="M381.38,414.84c6.4,0,11.81-5.41,11.81-11.81s-5.41-11.81-11.81-11.81-11.81,5.41-11.81,11.81c-.49,6.4,4.92,11.81,11.81,11.81"/><path class="cls-2" d="M415.33,462.57l-9.84-32.48s-3.44-9.35-11.32-9.35h-25.59c-7.87,0-11.32,9.35-11.32,9.35l-9.84,32.48s-1.97,5.91,3.44,7.38c5.41,1.48,6.4-4.43,6.4-4.43l7.87-27.07s.49-1.97,1.97-1.48c1.48,.49,.98,2.46,.98,2.46l-14.27,51.18h12.79v36.42c0,3.44,2.95,6.4,6.4,6.4s6.4-2.95,6.4-6.4v-36.42h3.44v36.42c.49,3.44,3.44,5.91,6.89,5.91,2.95-.49,5.41-2.46,5.91-5.91v-36.42h12.79l-13.78-51.18s-.49-1.97,.98-2.46,1.97,1.48,1.97,1.48l7.87,27.07s1.48,5.91,6.4,4.43c4.92-1.48,3.44-7.38,3.44-7.38"/><path class="cls-2" d="M95.47,422.22c6.4,0,11.81-4.92,11.81-11.32,0-4.43-2.46-8.37-5.91-10.33,.49-.49,.49-1.48,.49-1.97-.98-3.44-3.94-5.41-7.38-4.43-1.97,.49-3.94,2.46-4.43,4.43,0,.49,0,.98,.49,1.48-5.91,2.46-8.37,9.35-5.41,15.25,1.48,4.43,5.41,6.89,10.33,6.89"/><path class="cls-2" d="M128.44,464.54l-9.84-31.49s-3.44-8.86-10.83-8.86h-24.6c-7.38,0-10.83,8.86-10.83,8.86l-9.84,31.49s-1.48,4.92,1.97,6.89c0,0-.49,0-.49,.49l-11.32,59.05c0,.98,.49,1.97,1.48,1.97h.49c.98,0,1.48-.49,1.97-1.48l11.32-59.05v-.49c2.95-.49,4.43-4.43,4.43-4.43l7.38-26.08s.49-1.97,1.97-1.48c1.48,.49,.98,2.46,.98,2.46l-13.78,49.21h12.79v35.43c.49,3.44,3.44,5.91,6.4,5.41,2.95-.49,5.41-2.46,5.41-5.41v-35.43h3.44v35.43c.49,3.44,3.44,5.91,6.4,5.41,2.95-.49,5.41-2.46,5.41-5.41v-35.43h12.79l-13.78-49.21s-.49-1.97,.98-2.46c1.48-.49,1.97,1.48,1.97,1.48l7.87,26.08s1.48,5.41,6.4,3.94c4.92-1.48,3.44-6.89,3.44-6.89"/><path class="cls-2" d="M135.82,293.78c0-9.84-7.87-17.72-17.72-17.72h-.98c-.98-13.29-12.3-23.13-25.1-22.14-12.79,.98-22.64,11.32-22.14,24.11,0,3.94,.98,7.38,2.46,10.83-14.27,3.44-23.62,17.22-20.18,31.99,2.95,12.3,13.29,20.67,26.08,20.67h7.87v21.16c0,.49,.49,.98,.49,.98h9.84c.49,0,.49-.49,.49-.98v-21.65h16.24c10.33,0,18.7-8.37,18.7-18.7,0-4.92-1.97-9.35-4.92-12.79,5.41-3.44,8.86-9.35,8.86-15.75"/><path class="cls-2" d="M132.37,159.95c-7.87-8.85-22.14-9.35-31-1.48-8.86,7.87-9.35,22.14-1.48,30.99,7.87,8.85,21.65,9.35,31,1.48,8.86-8.36,9.35-22.13,1.48-30.99"/><path class="cls-2" d="M135.33,193.39c-.49-.49-1.97-.49-2.46,0-.49,.49-.49,1.97,0,2.46l6.4,6.89c.49,.49,1.97,.49,2.46,0s.49-1.97,0-2.46l-6.4-6.89Z"/><path class="cls-2" d="M96.94,155.99c.49,.49,1.97,.49,2.46,0,.49-.49,.49-1.97,0-2.46l-6.4-6.89c-.49-.49-1.97-.49-2.46,0s-.49,1.97,0,2.46l6.4,6.89Z"/><path class="cls-2" d="M94.97,191.43l-6.89,6.4c-.49,.49-.49,1.97,0,2.46s1.97,.49,2.46,0l6.89-6.4c.49-.49,.49-1.97,0-2.46-.49-.49-1.48-.49-2.46,0"/><path class="cls-2" d="M136.8,157.96l6.89-6.4c.49-.49,.49-1.97,0-2.46-.49-.49-1.97-.49-2.46,0l-6.89,6.4c-.49,.49-.49,1.97,0,2.46,.98,.49,1.97,.49,2.46,0"/><path class="cls-2" d="M121.55,199.3c-.98,0-1.48,.98-1.48,1.97l1.97,9.35c.49,.98,.98,1.48,1.97,1.48,.98-.49,1.48-.98,1.48-1.97l-1.97-9.84c-.49-.98-.98-.98-1.97-.98"/><path class="cls-2" d="M110.72,150.09c.98-.49,1.48-.98,1.48-1.97l-1.97-9.35c-.49-.98-.98-1.48-1.97-.98-.98,0-1.48,.98-1.48,1.97l1.97,9.35c0,.98,.98,1.48,1.97,.98"/><path class="cls-2" d="M91.53,180.11c0-.98-.98-1.48-1.97-1.48l-9.35,1.97c-.98,.49-1.48,.98-.98,1.97,0,.98,.98,1.48,1.97,1.48l9.35-1.97c.49,0,.98-.98,.98-1.97"/><path class="cls-2" d="M153.04,166.33c-.49-.98-.98-1.48-1.97-1.48l-9.35,1.97c-.98,.49-1.48,.98-1.48,1.97s.98,1.48,1.97,1.48l9.35-1.97c.98,0,1.97-.98,1.48-1.97"/><path class="cls-2" d="M108.26,198.81c-.98-.49-1.97,0-2.46,.98l-2.95,8.86c0,.98,.49,1.97,.98,1.97,.98,.49,1.97,0,2.46-.98l2.95-8.86c.49-.98,0-1.97-.98-1.97"/><path class="cls-2" d="M123.52,151.07c.98,.49,1.97,0,2.46-.98l2.95-8.86c.49-.98,0-1.97-.98-2.46-.98-.49-1.97,0-2.46,.98l-2.95,8.86c-.49,.98,.49,1.97,.98,2.46"/><path class="cls-2" d="M81.2,165.34l9.35,2.95c.98,0,1.97-.49,1.97-.98,.49-.98,0-1.97-.98-2.46l-9.35-2.95c-.98-.49-1.97,0-2.46,.98,0,.98,.49,1.97,1.48,2.46"/><path class="cls-2" d="M151.07,184.04l-8.86-2.95c-.98,0-1.97,.49-1.97,1.48s.49,1.48,.98,1.97l9.35,2.95c.98,0,1.97-.49,1.97-.98,0-.98-.49-1.97-1.48-2.46"/><path class="cls-2" d="M182.57,204.71l-3.94,3.94,14.76,3.44-4.43-14.76-3.94,3.94-10.33-9.84c-.98-.49-1.97-.49-2.46,.49-.49,.49-.49,1.48,0,2.46l10.33,10.33Z"/><path class="cls-2" d="M177.65,230.3l-4.43-14.76-3.44,4.43-10.33-9.84c-.98-.49-1.97-.49-2.46,0-.49,.98-.49,1.97,0,2.46l10.33,9.84-3.94,3.94,14.27,3.94Z"/><path class="cls-2" d="M172.73,253.43l46.75-59.54c.49-.49,1.48-.49,1.97,0l.49,.49c.49,.49,.49,1.48,0,1.97l-46.75,59.54c-.49,.49-1.48,.49-1.97,0l-.49-.49c-.49-.49-.49-1.48,0-1.97"/><path class="cls-2" d="M315.43,163.38c0,.98-.98,1.97-1.97,1.97h-17.72c-.98,0-1.97-.98-1.97-1.97v-11.32c0-.98,.98-1.97,1.97-1.97h18.21c.98,0,1.97,.98,1.97,1.97l-.49,11.32Zm0,22.14c0,.98-.98,1.97-1.97,1.97h-17.72c-.98,0-1.97-.49-1.97-1.97v-11.32c0-.98,.98-1.97,1.97-1.97h18.21c.98,0,1.97,.98,1.97,1.97l-.49,11.32Zm0,21.65c0,.98-.98,1.97-1.97,1.97h-17.72c-.98,0-1.97-.98-1.97-1.97v-11.32c0-.98,.98-1.97,1.97-1.97h18.21c.98,0,1.97,.98,1.97,1.97l-.49,11.32Zm0,22.14c0,.98-.98,1.97-1.97,1.97h-17.72c-.98,0-1.97-.98-1.97-1.97v-11.32c0-.98,.98-1.97,1.97-1.97h18.21c.98,0,1.97,.98,1.97,1.97l-.49,11.32Zm0,21.65c0,.98-.98,1.97-1.97,1.97h-17.72c-.98,0-1.97-.98-1.97-1.97v-11.32c0-.98,.98-1.97,1.97-1.97h18.21c.98,0,1.97,.98,1.97,1.97l-.49,11.32Zm0,22.14c0,.98-.98,1.97-1.97,1.97h-17.72c-.98,0-1.97-.98-1.97-1.97v-11.32c0-.98,.98-1.97,1.97-1.97h18.21c.98,0,1.97,.98,1.97,1.97l-.49,11.32Zm0,21.65c0,.98-.98,1.97-1.97,1.97h-17.72c-.98,0-1.97-.98-1.97-1.97v-10.83c0-.98,.98-1.97,1.97-1.97h18.21c.98,0,1.97,.98,1.97,1.97l-.49,10.83Zm0,22.14c0,.98-.98,1.97-1.97,1.97h-17.72c-.98,0-1.97-.49-1.97-1.48v-11.32c0-.98,.98-1.97,1.97-1.97h18.21c.98,0,1.97,.98,1.97,1.97l-.49,10.83Zm0,21.65c0,.98-.98,1.97-1.97,1.97h-17.72c-.98,0-1.97-.98-1.97-1.97v-10.83c0-.98,.98-1.97,1.97-1.97h18.21c.98,0,1.97,.98,1.97,1.97l-.49,10.83Zm-28.05-175.19c0,.98-.98,1.97-1.97,1.97h-17.72c-.98,0-1.97-.98-1.97-1.97v-10.83c0-.98,.98-1.97,1.97-1.97h18.21c.98,0,1.97,.98,1.97,1.97l-.49,10.83Zm0,21.65c0,.98-.98,1.97-1.97,1.97h-17.72c-.98,0-1.97-.98-1.97-1.97v-10.83c0-.98,.98-1.97,1.97-1.97h18.21c.98,0,1.97,.98,1.97,1.97l-.49,10.83Zm0,22.14c0,.98-.98,1.97-1.97,1.97h-17.72c-.98,0-1.97-.98-1.97-1.97v-10.83c0-.98,.98-1.97,1.97-1.97h18.21c.98,0,1.97,.98,1.97,1.97l-.49,10.83Zm0,21.65c0,.98-.98,1.97-1.97,1.97h-17.72c-.98,0-1.97-.98-1.97-1.97v-10.83c0-.98,.98-1.97,1.97-1.97h18.21c.98,0,1.97,.98,1.97,1.97l-.49,10.83Zm0,22.14c0,.98-.98,1.97-1.97,1.97h-17.72c-.98,0-1.97-.98-1.97-1.97v-10.83c0-.98,.98-1.97,1.97-1.97h18.21c.98,0,1.97,.98,1.97,1.97l-.49,10.83Zm0,22.14c0,.98-.98,1.97-1.97,1.97h-17.72c-.98,0-1.97-.98-1.97-1.97v-10.83c0-.98,.98-1.97,1.97-1.97h18.21c.98,0,1.97,.98,1.97,1.97l-.49,10.83Zm0,21.65c0,.98-.98,1.97-1.97,1.97h-17.72c-.98,0-1.97-.98-1.97-1.97v-10.83c0-.98,.98-1.97,1.97-1.97h18.21c.98,0,1.97,.98,1.97,1.97l-.49,10.83Zm0,22.14c0,.98-.98,1.97-1.97,1.97h-17.72c-.98,0-1.97-.98-1.97-1.97v-10.83c0-.98,.98-1.97,1.97-1.97h18.21c.98,0,1.97,.98,1.97,1.97l-.49,10.83Zm-29.53-44.29c0,.98-.98,1.97-1.97,1.97h-17.72c-.98,0-1.97-.98-1.97-1.97v-10.83c0-.98,.98-1.97,1.97-1.97h18.21c.98,0,1.97,.98,1.97,1.97l-.49,10.83Zm0,22.14c0,.98-.98,1.97-1.97,1.97h-17.72c-.98,0-1.97-.98-1.97-1.97v-10.83c0-.98,.98-1.97,1.97-1.97h18.21c.98,0,1.97,.98,1.97,1.97l-.49,10.83Zm0,22.14c0,.98-.98,1.97-1.97,1.97h-17.72c-.98,0-1.97-.98-1.97-1.97v-10.83c0-.98,.98-1.97,1.97-1.97h18.21c.98,0,1.97,.98,1.97,1.97l-.49,10.83Zm0,21.65c0,.98-.98,1.97-1.97,1.97h-17.72c-.98,0-1.97-.98-1.97-1.97v-10.83c0-.98,.98-1.97,1.97-1.97h18.21c.98,0,1.97,.98,1.97,1.97l-.49,10.83Zm-29.03-87.1c0,.98-.49,1.48-1.48,1.48h-18.7c-.98,0-1.48-.49-1.48-1.48v-11.81c0-.98,.49-1.48,1.48-1.48h18.7c.98,0,1.48,.49,1.48,1.48v11.81Zm0,21.65c0,.98-.49,1.48-1.48,1.48h-18.7c-.98,0-1.48-.49-1.48-1.48v-11.81c0-.98,.49-1.48,1.48-1.48h18.7c.98,0,1.48,.49,1.48,1.48v11.81Zm0,21.65c0,.98-.49,1.48-1.48,1.48h-18.7c-.98,0-1.48-.49-1.48-1.48v-11.81c0-.98,.49-1.48,1.48-1.48h18.7c.98,0,1.48,.49,1.48,1.48v11.81Zm0,21.65c0,.98-.49,1.48-1.48,1.48h-18.7c-.98,0-1.48-.49-1.48-1.48v-11.81c0-.98,.49-1.48,1.48-1.48h18.7c.98,0,1.48,.49,1.48,1.48v11.81Zm-28.54-43.3c0,.98-.49,1.48-1.48,1.48h-18.7c-.98,0-1.48-.49-1.48-1.48v-3.94c2.46-3.44,13.29-16.73,17.72-22.14l.49-.49c.49-.49,.98-.49,1.48-.49,.98,0,1.48,.49,1.48,1.48l.49,25.59Zm0,21.65c0,.98-.49,1.48-1.48,1.48h-18.7c-.98,0-1.48-.49-1.48-1.48v-11.81c0-.98,.49-1.48,1.48-1.48h18.7c.98,0,1.48,.49,1.48,1.48v11.81Zm0,21.65c0,.98-.49,1.48-1.48,1.48h-18.7c-.98,0-1.48-.49-1.48-1.48v-11.81c0-.98,.49-1.48,1.48-1.48h18.7c.98,0,1.48,.49,1.48,1.48v11.81Zm0,22.14c0,.98-.98,1.97-1.48,1.97h-18.7c-.98,0-1.97-.98-1.48-1.97v-10.83c0-.98,.98-1.48,1.48-1.48h18.21c.98,0,1.48,.98,1.48,1.48l.49,10.83Zm9.84-110.23l.49-.49c4.43-5.41,11.32-14.27,14.76-18.7l.49-.49c.49-.49,.98-.49,1.48-.49,.98,0,1.48,.49,1.48,1.48v19.68c0,.98-.49,1.48-1.48,1.97h-15.75c-.98,0-1.97-.98-1.48-1.97-.49-.49,0-.98,0-.98m108.75-90.55h-56.1c-1.48,0-2.95,1.48-2.95,2.95v112.69h-23.62v-67.91c0-.49-.98-.98-1.48-.98s-.49,0-.98,.49l-.49,.49-14.76,18.7-2.95,3.94-20.18,25.1-16.24,20.18-7.87,10.83h-.49c-.49,.49-.49,.98-.49,.98v96.94c0,.98,.49,1.48,1.48,1.48h35.92v-35.92c0-.98,.98-1.48,1.48-1.48h17.72c.98,0,1.48,.98,1.48,1.48v35.92h36.91v-36.42c0-.98,.98-1.97,1.97-1.97h18.21c.98,0,1.97,.98,1.97,1.97v35.92h32.48c.98,0,1.48-.49,1.48-1.48V140.25c.49-1.48-.98-2.46-2.46-2.46"/><path class="cls-2" d="M380.88,246.54c0,.98-.98,1.97-1.97,1.97h-11.81c-.98,0-1.97-.98-1.97-1.97v-10.83c0-.98,.98-1.97,1.97-1.97h11.81c.98,0,1.97,.98,1.97,1.97v10.83Zm0,25.1c0,.98-.98,1.97-1.97,1.97h-11.81c-.98,0-1.97-.98-1.97-1.97v-10.83c0-.98,.98-1.97,1.97-1.97h11.81c.98,0,1.97,.98,1.97,1.97v10.83Zm0,24.6c0,.98-.98,1.97-1.97,1.97h-11.81c-.98,0-1.97-.98-1.97-1.97v-10.83c0-.98,.98-1.97,1.97-1.97h11.81c.98,0,1.97,.98,1.97,1.97v10.83Zm0,25.1c0,.98-.98,1.97-1.97,1.97h-11.81c-.98,0-1.97-.98-1.97-1.97v-10.83c0-.98,.98-1.97,1.97-1.97h11.81c.98,0,1.97,.98,1.97,1.97v10.83Zm0,25.1c0,.98-.98,1.97-1.97,1.97h-11.81c-.98,0-1.97-.98-1.97-1.97v-10.83c0-.98,.98-1.97,1.97-1.97h11.81c.98,0,1.97,.98,1.97,1.97v10.83Zm-23.13-99.9c0,.98-.98,1.97-1.97,1.97h-11.81c-.98,0-1.97-.98-1.97-1.97v-10.83c0-.98,.98-1.97,1.97-1.97h11.81c.98,0,1.97,.98,1.97,1.97v10.83Zm0,25.1c0,.98-.98,1.97-1.97,1.97h-11.81c-.98,0-1.97-.98-1.97-1.97v-10.83c0-.98,.98-1.97,1.97-1.97h11.81c.98,0,1.97,.98,1.97,1.97v10.83Zm0,24.6c0,.98-.98,1.97-1.97,1.97h-11.81c-.98,0-1.97-.98-1.97-1.97v-10.83c0-.98,.98-1.97,1.97-1.97h11.81c.98,0,1.97,.98,1.97,1.97v10.83Zm0,25.1c0,.98-.98,1.97-1.97,1.97h-11.81c-.98,0-1.97-.98-1.97-1.97v-10.83c0-.98,.98-1.97,1.97-1.97h11.81c.98,0,1.97,.98,1.97,1.97v10.83Zm0,25.1c0,.98-.98,1.97-1.97,1.97h-11.81c-.98,0-1.97-.98-1.97-1.97v-10.83c0-.98,.98-1.97,1.97-1.97h11.81c.98,0,1.97,.98,1.97,1.97v10.83Zm30.51,15.75V227.35c0-.98-.49-1.48-1.48-1.48h-50.19c-.98,0-1.48,.49-1.48,1.48v135.33c0,.98,.49,1.48,1.48,1.48h50.19c.49,0,.98-.49,1.48-1.97q0,.49,0,0"/></g></svg>