<?xml version="1.0" encoding="UTF-8"?><svg id="Capa_1" xmlns="http://www.w3.org/2000/svg" viewBox="0 0 467 568.37"><defs><style>.cls-1{fill:#fff;}.cls-2{fill:#24a038;}</style></defs><path class="cls-2" d="M4.92,80.7H461.59V4.92H4.92V80.7Zm462.08,4.92H0V0H466.51V85.62h.49Z"/><polygon class="cls-2" points="16.73 17.72 38.88 17.72 38.88 24.6 32.48 24.6 32.48 67.91 23.62 67.91 23.62 24.6 16.73 24.6 16.73 17.72"/><path class="cls-2" d="M49.21,52.16h6.89l-3.44-20.18-3.44,20.18Zm-10.33,15.75l9.35-50.19h9.35l9.84,50.19h-8.86l-1.48-9.35h-8.86l-1.48,9.35h-7.87Z"/><path class="cls-2" d="M80.21,24.6v15.75h2.95c2.95,0,3.94-1.48,3.94-3.94v-7.38c0-2.95-1.48-3.94-3.94-3.94h-2.95v-.49Zm0,20.18v23.13h-8.37V17.72h12.3c8.37,0,11.81,4.43,11.81,11.32v6.4c0,5.41-1.97,8.37-6.89,9.84l7.87,22.64h-8.86l-7.87-23.13Z"/><path class="cls-2" d="M113.67,41.34h11.81v26.57h-5.91v-5.41c-.98,3.94-3.44,5.91-7.87,5.91-7.38,0-10.33-5.91-10.33-13.29V31c0-7.87,3.94-13.29,12.79-13.29,9.35,0,11.81,5.41,11.81,12.79v4.43h-7.87v-4.92c0-2.95-.98-4.92-4.43-4.92-2.95,0-4.43,1.97-4.43,4.92v27.07c0,2.95,1.48,4.92,3.94,4.92,2.95,0,3.94-1.48,3.94-4.92v-9.35h-3.94v-6.4h.49Z"/><polygon class="cls-2" points="132.37 17.72 152.55 17.72 152.55 24.6 140.74 24.6 140.74 38.88 149.11 38.88 149.11 45.77 140.74 45.77 140.74 61.02 152.55 61.02 152.55 67.91 132.37 67.91 132.37 17.72"/><polygon class="cls-2" points="156.49 17.72 178.63 17.72 178.63 24.6 171.74 24.6 171.74 67.91 163.38 67.91 163.38 24.6 156.49 24.6 156.49 17.72"/><path class="cls-2" d="M396.63,28.54v4.43c0,4.43-2.46,6.89-5.91,8.37,4.43,.98,6.4,3.94,6.4,8.37v7.38c0,6.89-3.94,11.32-12.3,11.32s-11.81-4.92-11.81-12.3v-6.4h7.87v7.38c0,2.95,.98,4.92,3.94,4.92,2.46,0,3.94-1.97,3.94-4.43v-8.37c0-2.46-.98-3.94-3.94-3.94h-3.44v-6.4h2.95c2.95,0,4.43-1.48,4.43-3.94v-5.91c0-2.95-.98-4.43-3.44-4.43s-3.44,1.97-3.44,4.92v4.92h-7.87v-4.43c0-7.38,2.95-12.79,11.81-12.79,7.38,0,10.83,4.43,10.83,11.32"/><path class="cls-2" d="M410.9,36.91c3.44,0,5.91,2.95,5.91,5.91,0,3.44-2.95,5.91-5.91,5.91-3.44,0-5.91-2.95-5.91-5.91s2.46-5.91,5.91-5.91"/><path class="cls-2" d="M447.81,28.54v4.43c0,4.43-2.46,6.89-5.91,8.37,4.43,.98,6.4,3.94,6.4,8.37v7.38c0,6.89-3.94,11.32-12.3,11.32s-11.81-4.92-11.81-12.3v-6.4h7.87v7.38c0,2.95,.98,4.92,3.94,4.92,2.46,0,3.94-1.97,3.94-4.43v-8.37c0-2.46-.98-3.94-3.94-3.94h-3.44v-6.4h2.95c2.95,0,4.43-1.48,4.43-3.94v-5.91c0-2.95-.98-4.43-3.44-4.43s-3.44,1.97-3.44,4.92v4.92h-7.87v-4.43c0-7.38,2.95-12.79,11.81-12.79,7.38,0,10.83,4.43,10.83,11.32"/><g><rect class="cls-2" x="0" y="101.86" width="466.51" height="466.51"/><path class="cls-1" d="M237.19,249.99h-8.37v-23.13h8.37v23.13Zm0,43.3h-8.37v-23.13h8.37v23.13Zm0,43.3h-8.37v-23.13h8.37v23.13Z"/><path class="cls-1" d="M237.19,163.38h-8.37v-23.13h8.37v23.13Zm0,43.8h-8.37v-23.13h8.37v23.13Z"/><path class="cls-1" d="M341.02,366.12c22.64,0,41.34-18.21,41.34-41.34s-18.21-41.34-41.34-41.34-41.34,18.21-41.34,41.34,18.7,41.34,41.34,41.34"/><path class="cls-1" d="M360.21,434.52c2.95,0,5.91,2.95,7.87,4.92,1.97-2.46,4.92-4.43,7.87-4.92,5.41,0,9.35,4.43,9.35,9.84v.49c0,2.46-.98,5.41-2.95,7.38l-14.27,13.78-13.78-13.78c-1.97-1.97-2.95-4.43-2.95-7.38-.49-5.41,3.44-9.84,8.86-10.33m-85.13,18.21c0-3.94,.98-8.86,7.87-8.86,4.43,0,5.41,4.92,5.91,8.37v78.24h105.31v-78.24c0-2.95,.98-8.37,5.91-8.37,6.89,0,7.87,4.92,7.87,8.86v77.75h31.99v-93.5c0-28.54-21.65-52.16-49.7-55.11-.98,0-1.97,0-2.95-.49h-91.04c-.98,0-1.97,0-2.95,.49-28.54,2.46-50.19,26.57-50.19,54.62v93.5h31.99v-77.26Z"/><path class="cls-1" d="M87.59,310.02l23.13-23.13c-10.83,3.94-19.19,12.3-23.13,23.13"/><path class="cls-1" d="M107.28,361.69l55.11-55.11c-1.48-2.46-2.95-5.41-4.92-7.87l-57.58,58.07c2.46,1.97,4.92,3.94,7.38,4.92"/><path class="cls-1" d="M125.98,366.12h.98l39.86-39.86v-1.48c0-3.44-.49-6.4-1.48-9.84l-49.7,49.7c3.44,.98,6.89,1.48,10.33,1.48"/><path class="cls-1" d="M163.87,340.53l-22.14,22.14c9.84-3.94,18.21-11.81,22.14-22.14"/><path class="cls-1" d="M136.31,284.92c-3.44-.98-6.89-.98-10.33-.98h-.98l-40.35,40.35v.98c0,3.44,.49,6.89,1.48,10.33l50.19-50.69Z"/><path class="cls-1" d="M93.99,351.36l58.07-58.07c-2.46-1.97-4.92-3.44-7.38-4.92l-55.61,55.11c1.48,2.95,2.95,5.41,4.92,7.87"/><path class="cls-1" d="M73.32,515.72l124.99-124.99c-2.46-1.48-5.41-2.95-7.87-4.43l-117.12,117.12v12.3Z"/><polygon class="cls-1" points="59.54 468.97 27.56 500.95 27.56 513.26 59.54 481.27 59.54 468.97"/><path class="cls-1" d="M73.32,491.6l108.26-108.26c-2.46-.49-4.92-.98-7.38-1.48h-2.95l-97.44,97.44-.49,12.3Z"/><polygon class="cls-1" points="59.54 529.5 59.54 516.7 45.77 530.48 58.56 530.48 59.54 529.5"/><path class="cls-1" d="M59.54,452.73c0-3.44,.98-8.86,7.87-8.86,1.48,0,2.95,.49,3.94,1.48l63.97-63.97h-12.3L27.56,476.84v12.3l31.99-31.99v-4.43Z"/><path class="cls-1" d="M80.7,381.87h-2.95l-3.44,.49-45.77,45.77c-.49,2.95-.49,5.91-.49,8.86v4.43l59.05-59.54h-6.4Z"/><polygon class="cls-1" points="98.91 381.87 27.56 452.73 27.56 456.67 27.56 465.52 111.21 381.87 98.91 381.87"/><polygon class="cls-1" points="59.54 505.38 59.54 492.59 27.56 524.58 27.56 530.48 34.45 530.48 59.54 505.38"/><path class="cls-1" d="M211.11,401.55c-1.97-2.46-3.94-4.43-5.91-6.4l-131.88,131.88v3.44h9.35l128.44-128.93Z"/><polygon class="cls-1" points="223.9 519.65 213.08 530.48 223.9 530.48 223.9 519.65"/><path class="cls-1" d="M178.14,458.63v-5.91c0-3.44,.98-8.37,5.91-8.37,2.46,0,4.43,.98,5.91,2.46l30.02-30.02c-.98-2.95-2.46-5.91-3.94-8.37l-122.04,122.04h12.3l71.85-71.85Z"/><polygon class="cls-1" points="178.14 482.75 178.14 469.95 117.61 530.48 130.41 530.48 178.14 482.75"/><path class="cls-1" d="M33.95,410.9l22.64-22.64c-9.35,5.41-17.22,13.29-22.64,22.64"/><polygon class="cls-1" points="73.32 467.98 159.44 381.87 146.64 381.87 73.32 455.19 73.32 467.98"/><polygon class="cls-1" points="178.14 530.48 178.14 518.18 165.84 530.48 178.14 530.48"/><path class="cls-1" d="M191.92,468.97l31.99-31.99c0-3.94-.49-7.38-.98-11.32l-31,30.51v12.79Z"/><polygon class="cls-1" points="178.14 506.37 178.14 494.07 141.72 530.48 154.52 530.48 178.14 506.37"/><polygon class="cls-1" points="191.92 516.7 223.9 484.72 223.9 472.41 191.92 504.4 191.92 516.7"/><polygon class="cls-1" points="223.9 508.34 223.9 496.53 191.92 528.51 191.92 530.48 201.76 530.48 223.9 508.34"/><polygon class="cls-1" points="223.9 456.67 223.9 450.76 223.9 448.3 191.92 480.29 191.92 493.08 223.9 461.09 223.9 456.67"/><path class="cls-1" d="M42.81,295.26c0,3.44-2.95,6.89-6.4,6.89s-6.89-2.95-6.89-6.4,2.95-6.89,6.4-6.89c3.94,0,6.89,2.95,6.89,6.4"/><path class="cls-1" d="M49.7,330.69c0,3.44-2.95,6.4-6.4,6.4s-6.4-2.95-6.4-6.4,2.95-6.4,6.4-6.4,6.4,2.95,6.4,6.4"/><path class="cls-1" d="M36.91,354.8c0,2.46-1.97,4.43-4.43,4.43s-4.43-1.97-4.43-4.43,1.97-4.43,4.43-4.43c2.46-.49,4.43,1.97,4.43,4.43"/><path class="cls-1" d="M77.26,326.26c0,2.46-1.97,4.43-4.43,4.43s-4.43-1.97-4.43-4.43,1.97-4.43,4.43-4.43,4.43,2.46,4.43,4.43"/><path class="cls-1" d="M57.08,313.47c0,1.48-1.48,2.95-2.95,2.95s-2.95-1.48-2.95-2.95,1.48-2.95,2.95-2.95,2.95,1.48,2.95,2.95"/><path class="cls-1" d="M60.04,341.52c0,1.48-1.48,2.95-2.95,2.95s-2.95-1.48-2.95-2.95,1.48-2.95,2.95-2.95,2.95,1.48,2.95,2.95"/><path class="cls-1" d="M78.74,353.82c0,1.48-.98,2.95-2.95,2.95-1.48,0-2.95-1.48-2.95-2.95s1.48-2.95,2.95-2.95,2.95,1.48,2.95,2.95"/><path class="cls-1" d="M78.74,298.21c0,1.48-1.48,2.95-2.95,2.95s-2.95-1.48-2.95-2.95,1.48-2.95,2.95-2.95,2.95,1.48,2.95,2.95"/><path class="cls-1" d="M200.28,317.89c0-3.44,2.95-6.4,6.4-6.4s6.4,2.95,6.4,6.4-2.95,6.4-6.4,6.4-6.4-2.95-6.4-6.4"/><path class="cls-1" d="M177.65,321.83c0-2.46,1.97-4.43,4.43-4.43s4.43,1.97,4.43,4.43-1.97,4.43-4.43,4.43-4.43-1.97-4.43-4.43"/><path class="cls-1" d="M196.84,283.94c0-1.97,1.48-3.94,3.94-3.94,1.97,0,3.94,1.48,4.43,3.44,.49,1.97-1.48,3.94-3.44,4.43h-.98c-2.46,0-3.94-1.97-3.94-3.94"/><path class="cls-1" d="M190.93,334.63c0-1.48,1.48-2.95,2.95-2.95s2.95,1.48,2.46,3.44c0,1.48-.98,2.46-2.46,2.46s-2.95-.98-2.95-2.95"/><path class="cls-1" d="M190.93,303.62c0-1.48,1.48-2.95,2.95-2.95s2.95,1.48,2.95,2.95-1.48,2.95-2.95,2.95-2.95-.98-2.95-2.95"/><path class="cls-1" d="M176.66,299.19c0-1.48,1.48-2.95,2.95-2.95s2.95,1.48,2.95,2.95-1.48,2.95-2.95,2.95-2.95-1.48-2.95-2.95"/><path class="cls-1" d="M180.11,343.48c0-1.48,1.48-2.95,2.95-2.95s2.95,1.48,2.95,2.95-1.48,2.95-2.95,2.95c-1.97,0-2.95-.98-2.95-2.95"/><path class="cls-1" d="M214.06,298.21c0-1.48,1.48-2.95,2.95-2.95s2.95,1.48,2.95,2.95-1.48,2.95-2.95,2.95-2.95-1.48-2.95-2.95"/><path class="cls-1" d="M211.6,350.87c0-1.48,.98-2.95,2.95-2.95,1.48,0,2.95,1.48,2.95,2.95s-1.48,2.95-2.95,2.95c-1.97,0-2.95-1.48-2.95-2.95"/><path class="cls-1" d="M206.19,334.63c0-1.97,1.97-3.94,3.94-3.94s3.94,1.97,3.94,3.94-1.97,3.94-3.94,3.94c-2.46,0-3.94-1.48-3.94-3.94"/><polygon class="cls-1" points="89.07 189.95 54.62 224.89 66.93 224.89 101.86 189.95 89.07 189.95"/><polygon class="cls-1" points="113.18 189.95 78.24 224.89 91.04 224.89 125.48 189.95 113.18 189.95"/><polygon class="cls-1" points="173.22 178.14 126.47 224.89 138.77 224.89 180.11 183.55 173.22 178.14"/><polygon class="cls-1" points="137.3 189.95 102.36 224.89 114.66 224.89 149.6 189.95 137.3 189.95"/><polygon class="cls-1" points="158.95 228.82 193.89 193.89 186.5 188.97 150.58 224.89 158.95 224.89 158.95 228.82"/><path class="cls-1" d="M166.33,173.22l-3.94-2.95c-.49-.49-1.48-.49-1.97-.49-.98,.49-1.48,.98-1.48,2.46v8.37l7.38-7.38Z"/><path class="cls-1" d="M65.45,189.95l-24.11,24.11v8.86c0,.98,.49,1.48,1.48,1.97l34.94-34.94h-12.3Z"/><path class="cls-1" d="M42.81,189.95c-.98,0-1.48,.98-1.48,1.97v10.33l12.3-12.3h-10.83Z"/><path class="cls-1" d="M207.66,204.71h0l-7.38-5.41-40.84,41.34v2.95c0,1.48,.49,1.97,1.48,2.46,.49,0,1.48,0,1.97-.49l21.16-16.73,24.6-19.19c.49-.49,.98-.98,.98-1.97-.49-1.48-.98-2.46-1.97-2.95"/></g></svg>