<?xml version="1.0" encoding="UTF-8"?><svg id="Capa_1" xmlns="http://www.w3.org/2000/svg" viewBox="0 0 467 568.37"><defs><style>.cls-1{fill:#006da3;}.cls-2{fill:#fff;}</style></defs><path class="cls-1" d="M4.92,80.7H461.59V4.92H4.92V80.7Zm462.08,4.92H0V0H466.51V85.62h.49Z"/><polygon class="cls-1" points="16.73 17.72 38.88 17.72 38.88 24.6 32.48 24.6 32.48 67.91 23.62 67.91 23.62 24.6 16.73 24.6 16.73 17.72"/><path class="cls-1" d="M49.21,52.16h6.89l-3.44-20.18-3.44,20.18Zm-10.33,15.75l9.35-50.19h9.35l9.84,50.19h-8.86l-1.48-9.35h-8.86l-1.48,9.35h-7.87Z"/><path class="cls-1" d="M80.21,24.6v15.75h2.95c2.95,0,3.94-1.48,3.94-3.94v-7.38c0-2.95-1.48-3.94-3.94-3.94h-2.95v-.49Zm0,20.18v23.13h-8.37V17.72h12.3c8.37,0,11.81,4.43,11.81,11.32v6.4c0,5.41-1.97,8.37-6.89,9.84l7.87,22.64h-8.86l-7.87-23.13Z"/><path class="cls-1" d="M113.67,41.34h11.81v26.57h-5.91v-5.41c-.98,3.94-3.44,5.91-7.87,5.91-7.38,0-10.33-5.91-10.33-13.29V31c0-7.87,3.94-13.29,12.79-13.29,9.35,0,11.81,5.41,11.81,12.79v4.43h-7.87v-4.92c0-2.95-.98-4.92-4.43-4.92-2.95,0-4.43,1.97-4.43,4.92v27.07c0,2.95,1.48,4.92,3.94,4.92,2.95,0,3.94-1.48,3.94-4.92v-9.35h-3.94v-6.4h.49Z"/><polygon class="cls-1" points="132.37 17.72 152.55 17.72 152.55 24.6 140.74 24.6 140.74 38.88 149.11 38.88 149.11 45.77 140.74 45.77 140.74 61.02 152.55 61.02 152.55 67.91 132.37 67.91 132.37 17.72"/><polygon class="cls-1" points="156.49 17.72 178.63 17.72 178.63 24.6 171.74 24.6 171.74 67.91 163.38 67.91 163.38 24.6 156.49 24.6 156.49 17.72"/><polygon class="cls-1" points="374.49 17.72 374.49 67.91 366.12 67.91 366.12 29.53 360.21 35.43 360.21 27.07 367.6 17.72 374.49 17.72"/><path class="cls-1" d="M397.61,56.59v-8.86c0-3.44-.98-4.92-3.94-4.92-2.46,0-3.94,1.97-3.94,4.43v9.35c0,2.95,.98,4.92,3.94,4.92s3.94-1.48,3.94-4.92m-16.24-1.48V30.51c0-7.87,3.44-13.29,12.3-13.29,9.35,0,11.81,5.41,11.81,12.79v2.46h-7.87v-3.44c0-2.95-.98-4.92-3.94-4.92s-3.94,1.97-3.94,4.92v10.83c1.48-2.46,3.44-3.94,6.89-3.94,5.91,0,9.35,3.94,9.35,12.3v7.38c0,7.87-3.44,12.79-12.3,12.79s-12.3-5.41-12.3-13.29"/><path class="cls-1" d="M419.76,36.91c3.44,0,5.91,2.95,5.91,5.91,0,3.44-2.95,5.91-5.91,5.91-3.44,0-5.91-2.95-5.91-5.91-.49-2.95,2.46-5.91,5.91-5.91"/><polygon class="cls-1" points="446.82 17.72 446.82 67.91 438.46 67.91 438.46 29.53 432.55 35.43 432.55 27.07 440.43 18.21 446.82 18.21 446.82 17.72"/><g><rect class="cls-1" y="101.86" width="466.51" height="466.51"/><path class="cls-2" d="M290.34,336.1s.49,20.67-31.99,20.67c-2.46,0-5.41,0-7.87-.49-40.35-3.44-41.34-34.94-41.34-39.37,0-1.48,0-15.75,21.16-15.75,3.94,0,7.87,.49,11.81,.98,0,0,9.84,6.4,8.37,27.56,0,0-2.46,13.29-7.38,18.21,0,0-.49,1.48,.49,1.48,.49,0,1.48-.49,1.97-.49,8.37-3.44,15.25-10.33,18.7-18.7,3.44-7.87,3.94-17.22,.98-25.1l4.43,.98s23.13,7.38,20.67,30.02m127.45-16.24c-1.97-48.23-14.27-60.04-14.27-60.04-1.97-1.97-4.43-3.44-7.38-3.44l-233.25-3.94c.98,3.44,.49,7.38-.49,10.83l-18.21,47.24c-.49,.98-.98,2.46-1.97,3.44l55.61,1.48c1.48,.49,3.44,6.89,3.44,6.89,3.94,17.22,17.72,37.4,40.35,41.34,4.43,.98,8.86,.98,13.29,.98,9.84,0,19.68-1.48,29.53-3.94,.49,0,1.48-.49,1.97-.49,.98,0,1.97,.49,2.46,1.48,16.73,17.72,19.19,102.36,19.19,102.36,0,4.92,2.46,5.91,3.44,5.91h.49l85.13-1.48c5.41-.49,3.44-6.4,3.44-6.4,0,0-18.7-83.16-23.62-99.4-4.92-16.24,2.95-23.13,2.95-23.13,11.32-9.84,34.45-14.76,34.45-14.76,3.94-.49,3.44-4.92,3.44-4.92"/><path class="cls-2" d="M152.06,252.45l-13.78-23.62c-.49-.49-.98-.98-1.48-.98l-17.72-8.86-4.43-1.48-2.95,28.54v.49c0,.98-.49,2.46-.49,4.43v.49c-1.48,12.3-3.44,24.11-6.4,35.92,0,.98-.49,1.97-.98,2.95-.49,.98-.98,2.46-1.48,3.44v.49s0,.49-.49,.49c-.49,.98-.98,1.97-1.48,2.46l-.49,.49c-2.46,3.44-6.4,6.4-10.83,7.38l5.41,6.4c.49,.49,1.48,1.48,2.46,1.48l10.33,3.44c.98,.49,1.97,.49,2.95,0l17.72-3.94c2.46-.49,4.92-2.46,5.91-4.92l18.21-46.75c1.97-3.44,1.48-6.4,0-8.37"/><path class="cls-2" d="M93.99,288.86c2.95-6.4,5.91-25.59,7.38-38.88l-44.29-1.48-.49,.49,4.43,21.65,20.67,23.62c5.41,.98,9.84-1.48,12.3-5.41"/><polygon class="cls-2" points="102.85 240.14 105.8 216.03 96.94 201.27 49.21 207.66 62.5 238.67 102.85 240.14"/></g></svg>