<?xml version="1.0" encoding="UTF-8"?><svg id="Capa_1" xmlns="http://www.w3.org/2000/svg" viewBox="0 0 467 568.37"><defs><style>.cls-1{fill:#fff;}.cls-2{fill:#e5006a;}</style></defs><path class="cls-2" d="M4.92,80.7H461.59V4.92H4.92V80.7Zm462.08,4.92H0V0H466.51V85.62h.49Z"/><polygon class="cls-2" points="16.73 17.72 38.88 17.72 38.88 24.6 32.48 24.6 32.48 67.91 23.62 67.91 23.62 24.6 16.73 24.6 16.73 17.72"/><path class="cls-2" d="M49.21,52.16h6.89l-3.44-20.18-3.44,20.18Zm-10.33,15.75l9.35-50.19h9.35l9.84,50.19h-8.86l-1.48-9.35h-8.86l-1.48,9.35h-7.87Z"/><path class="cls-2" d="M80.21,24.6v15.75h2.95c2.95,0,3.94-1.48,3.94-3.94v-7.38c0-2.95-1.48-3.94-3.94-3.94h-2.95v-.49Zm0,20.18v23.13h-8.37V17.72h12.3c8.37,0,11.81,4.43,11.81,11.32v6.4c0,5.41-1.97,8.37-6.89,9.84l7.87,22.64h-8.86l-7.87-23.13Z"/><path class="cls-2" d="M113.67,41.34h11.81v26.57h-5.91v-5.41c-.98,3.94-3.44,5.91-7.87,5.91-7.38,0-10.33-5.91-10.33-13.29V31c0-7.87,3.94-13.29,12.79-13.29,9.35,0,11.81,5.41,11.81,12.79v4.43h-7.87v-4.92c0-2.95-.98-4.92-4.43-4.92-2.95,0-4.43,1.97-4.43,4.92v27.07c0,2.95,1.48,4.92,3.94,4.92,2.95,0,3.94-1.48,3.94-4.92v-9.35h-3.94v-6.4h.49Z"/><polygon class="cls-2" points="132.37 17.72 152.55 17.72 152.55 24.6 140.74 24.6 140.74 38.88 149.11 38.88 149.11 45.77 140.74 45.77 140.74 61.02 152.55 61.02 152.55 67.91 132.37 67.91 132.37 17.72"/><polygon class="cls-2" points="156.49 17.72 178.63 17.72 178.63 24.6 171.74 24.6 171.74 67.91 163.38 67.91 163.38 24.6 156.49 24.6 156.49 17.72"/><polygon class="cls-2" points="364.15 17.72 364.15 67.91 355.79 67.91 355.79 29.53 349.88 35.43 349.88 27.07 357.75 18.21 364.15 18.21 364.15 17.72"/><path class="cls-2" d="M387.28,56.59V29.53c0-2.95-.98-4.92-3.94-4.92s-3.94,1.97-3.94,4.92v27.07c0,2.95,.98,4.92,3.94,4.92s3.94-1.97,3.94-4.92m-16.24-1.48V31c0-7.87,3.94-13.29,12.3-13.29s12.3,5.91,12.3,13.29v24.11c0,7.87-3.94,13.29-12.3,13.29s-12.3-5.41-12.3-13.29"/><path class="cls-2" d="M409.92,36.91c3.44,0,5.91,2.95,5.91,5.91,0,3.44-2.95,5.91-5.91,5.91-3.44,0-5.91-2.95-5.91-5.91-.49-2.95,2.46-5.91,5.91-5.91"/><path class="cls-2" d="M439.93,56.59v-8.86c0-3.44-.98-4.92-3.94-4.92-2.46,0-3.94,1.97-3.94,4.43v9.35c0,2.95,.98,4.92,3.94,4.92,2.46,0,3.94-1.48,3.94-4.92m-16.73-1.48V30.51c0-7.87,3.44-13.29,12.3-13.29,9.35,0,11.81,5.41,11.81,12.79v2.46h-7.87v-3.44c0-2.95-.98-4.92-3.94-4.92s-3.94,1.97-3.94,4.92v10.83c1.48-2.46,3.44-3.94,6.89-3.94,5.91,0,9.35,3.94,9.35,12.3v7.38c0,7.87-3.44,12.79-12.3,12.79s-12.3-5.41-12.3-13.29"/><g><rect class="cls-2" y="101.86" width="466.51" height="466.51"/><path class="cls-1" d="M324.29,317.89c-45.27,0-82.18-36.42-82.18-81.69s36.42-82.18,81.69-82.18,82.18,36.42,82.18,81.69-36.42,81.69-81.69,82.18m0-170.76c-48.72,0-88.58,39.86-88.58,88.58s39.86,88.58,88.58,88.58,88.58-39.86,88.58-88.58c-.49-49.21-39.86-88.58-88.58-88.58"/><path class="cls-1" d="M391.71,239.16c-1.97,0-3.44-1.48-3.44-3.44s1.48-3.44,3.44-3.44,3.44,1.48,3.44,3.44c0,1.48-1.48,3.44-3.44,3.44m.49,11.32c-.49,.49-.98,.49-1.97,.49h-.49c-1.97-.49-2.95-1.97-2.95-3.94,0-.98,.49-1.48,1.48-1.97,.49-.49,1.48-.49,2.46-.49,1.97,.49,2.95,1.97,2.95,3.94,0,.49-.49,1.48-1.48,1.97m-1.48,9.84c-.49,.98-.98,1.48-1.48,1.97-.49,0-.98,.49-1.48,.49h-.98c-1.97-.49-2.46-2.46-1.97-4.43,.49-.98,.98-1.48,1.48-1.97,.98-.49,1.48-.49,2.46,0,1.48,.49,2.46,1.97,1.97,3.94m-5.41,11.32c-.49,.98-.98,1.48-1.97,1.48h-.98c-.49,0-.98,0-1.48-.49-1.48-.98-2.46-2.95-1.48-4.43,.49-.98,.98-1.48,1.97-1.48s1.97,0,2.46,.49c.98,.49,1.48,.98,1.48,1.97,.49,.49,.49,1.48,0,2.46m-7.38-76.77c-.49,.49-.98,.49-1.97,.98h-.49c-.98,0-1.48-.49-2.46-.98-.49-.49-.98-1.48-.98-2.46s.49-1.48,.98-2.46c.49-.49,1.48-.98,2.46-.98s1.48,.49,2.46,.98c1.48,1.97,1.48,3.94,0,4.92m.49,86.61c-.49,.49-1.48,.98-2.46,.98h-.49c-.98,0-1.48-.49-1.97-.98-1.48-1.48-1.48-3.44-.49-4.92,.49-.49,1.48-.98,2.46-.98s1.97,0,2.46,.98c1.48,.98,1.48,2.95,.49,4.92m-8.37-94.97c-.49,.49-1.48,.98-2.46,.98h-.49c-.98,0-1.48-.49-1.97-.98-.49-.49-.98-1.48-.98-2.46s0-1.97,.98-2.46c.98-1.48,2.95-1.97,4.43-.98,.98,.49,1.48,1.48,1.48,2.95,0,.98-.49,1.97-.98,2.95m-.49,103.83c-.98,.98-2.95,1.48-3.94,.49l-.49-.49c-1.48-1.48-.98-3.44,.49-4.92,1.48-1.48,3.44-.98,4.92,.49,.98,.98,.49,2.95-.98,4.43m-9.84,6.89c-.49,.49-.98,.49-1.48,.49-.98,0-2.46-.49-2.95-1.48-.49-.98-.98-1.97-.49-2.46s.98-1.48,1.48-1.97c.98-.49,1.48-.49,2.46-.49s1.48,.98,1.97,1.48c.98,1.48,.49,3.44-.98,4.43m-10.83,5.41c-.98,.49-1.48,.49-2.46,0s-1.48-.98-1.97-1.97c-.49-.98-.49-1.48,0-2.46,.49-.98,.98-1.48,1.97-1.48,.98-.49,1.48-.49,2.46,0,1.48,.98,2.46,2.46,1.97,4.43-.49,.49-.98,.98-1.97,1.48m-9.84,1.97c-.49,.49-1.48,1.48-1.97,1.48h-.49c-1.97,.49-3.44-.98-3.94-2.95-.49-1.97,.98-3.44,2.95-3.94,.98,0,1.97,0,2.46,.49s1.48,1.48,1.48,1.97c-.49,.49-.49,1.97-.49,2.95m-14.76,2.46c-1.97,0-3.44-1.48-3.44-3.44s1.48-3.44,3.44-3.44,3.44,1.48,3.44,3.44c0,1.48-1.48,2.95-3.44,3.44m-11.81-.98h0c-2.46,0-3.44-1.97-3.44-3.94s1.97-2.95,3.94-2.95c.98,0,1.48,.49,1.97,1.48,.49,.49,.98,1.48,.49,2.46,0,1.48-1.48,2.46-2.95,2.95m-7.87-5.41c-.49,1.48-1.48,2.46-2.95,2.46h-.98c-1.97-.49-2.46-2.46-1.97-4.43,.49-.98,.98-1.48,1.97-1.97,1.48-.98,3.44,0,4.43,1.48-.49,.49-.49,1.48-.49,2.46m-10.83-4.43c-.98,1.48-2.95,1.97-4.43,.98-1.48-.98-1.97-2.95-.98-4.43,.98-1.48,2.95-1.97,4.43-.98,.98,.98,1.48,2.46,.98,4.43m-8.86-32.48h2.95v-4.43q0-.49,.49-.49h73.81q.49,0,.49,.49v4.43h1.97v4.92h-80.21l.49-4.92Zm-1.48,26.08c-.49,.98-1.48,.98-2.46,.98s-1.48-.49-1.97-.98c-1.48-1.48-1.48-3.44-.49-4.92,.49-.98,1.48-.98,2.46-.98s1.97,0,2.46,.98c.98,1.48,.98,3.44,0,4.92m-4.92-108.26c.98-.98,2.95-1.48,4.43,0l.49,.49c1.48,1.48,.98,3.44-.49,4.92-.98,.98-2.95,1.48-3.94,.49l-.49-.49c-1.48-.98-1.48-2.95-.49-4.43,0-.98,.49-.98,.49-.98m-3.94,100.39c-.98,.98-2.95,1.48-3.94,.49l-.49-.49c-.98-1.48-.98-3.94,.49-4.92,1.48-.98,3.94-.98,4.92,.49,.98,1.48,.49,3.44-.98,4.43m-4.92-91.53c1.48-1.48,3.44-1.48,4.92-.49,1.48,.98,1.97,2.95,.98,4.43l-.49,.49c-.49,.98-1.48,.98-2.46,.98s-1.48-.49-1.97-.49c-1.48-.49-2.46-2.46-1.48-3.94,0-.49,0-.98,.49-.98m-2.46,82.18c-.49,.49-.98,.49-1.48,.49-1.97,0-3.44-1.48-3.44-3.44,0-.98,.49-2.46,1.48-2.95,1.48-.98,3.44-.49,4.43,.98,.98,1.48,.49,3.44-.98,4.92m-6.4-10.33c-1.48,0-2.46-.98-2.95-2.46-.49-.98-.49-1.48,0-2.46s.98-1.48,1.97-1.97c1.97-.49,3.94,.49,4.43,2.46,.49,1.48-.49,3.44-1.97,3.94-.49,0-.98,0-1.48,.49m-6.4-14.27c0-.98,0-1.97,.49-2.46,.49-.49,1.48-.98,1.97-1.48,1.97,0,3.44,.98,3.44,2.95,0,1.48-.98,2.95-2.46,3.44h-.49c-.98,.49-2.46-.49-2.95-1.48v-.98Zm-1.48-12.3c0-1.97,1.48-3.44,3.44-3.44s3.44,1.48,3.44,3.44-1.48,3.44-3.44,3.44-3.44-1.48-3.44-3.44m4.92-14.76c.98,0,1.48,.49,1.97,1.48s.49,1.48,.49,2.46c-.49,1.48-1.97,2.95-3.44,2.95h-.49c-1.97-.49-2.95-1.97-2.95-3.94,.98-1.97,2.95-3.44,4.43-2.95m-.49-9.35c.98-1.48,2.46-2.46,4.43-1.97,.98,.49,1.48,.98,1.97,1.97,.49,.98,.49,1.48,0,2.46-.49,1.48-1.97,1.97-2.95,2.46h-.98c-1.97-.98-2.95-2.95-2.46-4.92m5.41-10.83c.49-.98,.98-1.48,1.97-1.48s1.97,0,2.46,.49c1.48,.98,1.97,2.95,.98,4.43l-.49,.49c-.49,1.48-2.46,1.97-3.44,.98h-.49c-1.48-1.48-2.46-3.44-.98-4.92m25.59-26.08c1.48-.98,3.44-.49,4.43,.98,.98,1.48,.49,3.44-.98,4.43-1.48,.98-3.44,.49-4.43-.98-.98-1.48-.49-3.44,.98-4.43m11.32-5.41c.98-.49,1.48-.49,2.46,0s1.48,.98,1.48,1.97c.49,.98,.49,1.48,0,2.46-.49,.98-.98,1.48-1.97,1.97h-.98c-1.97,0-3.44-1.48-3.44-3.44,.49-1.48,1.48-2.46,2.46-2.95m11.81-2.95c.98,0,1.97,0,2.46,.49s1.48,1.48,1.48,1.97c.49,1.97-.49,3.44-2.46,3.94h-.49c-1.48,0-2.95-1.48-3.44-2.95-.49-1.48,.98-2.95,2.46-3.44m12.79-1.48c1.97,0,3.44,1.48,3.44,3.44s-1.48,3.44-3.44,3.44-3.44-1.48-3.44-3.44,1.48-3.44,3.44-3.44m9.84,1.97c1.48-.98,3.44-.98,4.43,.49q0,.49,.49,.49c.98,1.48,.49,3.44-.98,4.43-.49,.49-.98,.49-1.97,.49h-.49c-.98,0-1.48-.49-1.97-1.48s-.49-1.97-.49-2.46c-.49-.49,0-1.48,.98-1.97m9.84,4.43c.98-1.48,2.46-2.46,4.43-1.97,.98,.49,1.48,.98,1.97,1.97s.49,1.48,0,2.46c-.49,.98-.98,1.48-1.97,1.97-.49,0-.98,.49-1.48,.49-1.97,0-3.44-1.48-3.44-3.44q.49-.98,.49-1.48m-19.68,41.34h-39.86l-1.48-1.48c-.49-.49-.49-.98,0-1.48h.49l41.34-15.25,41.34,15.25c.49,.49,.49,.98,0,1.48l-1.48,1.48h-40.35Zm-32.97,14.27c-.49,0-.98-.49-.98-.98v-4.43h11.81v4.43c0,.49-.49,.98-.98,.98v29.03h-9.35l-.49-29.03Zm28.05,0c-.49,0-.98-.49-.98-.98v-4.43h11.81v4.43c0,.49-.49,.98-.98,.98v29.03h-9.35l-.49-29.03Zm4.92-8.86h-37.4v-2.46h74.8v2.46h-37.4Zm23.62,8.86c-.49,0-.98-.49-.98-.98v-4.43h11.81v4.43c0,.49-.49,.98-.98,.98v29.03h-9.35l-.49-29.03Zm6.89-51.18c.49-.98,.98-1.48,1.97-1.48,1.48-.49,3.44,.49,3.94,1.97v.49c0,.98,0,1.48-.49,2.46-.49,.98-.98,1.48-1.97,1.48h-.98c-.49,0-.98,0-1.48-.49-.98-.49-1.48-.98-1.48-1.97s0-1.97,.49-2.46m24.6,25.59c0-.98,.98-1.48,1.48-1.97,1.48-.98,3.44-.49,4.43,.98,.49,.98,.49,1.48,.49,2.46s-.98,1.48-1.48,1.97-.98,.49-1.48,.49h-.98c-.98,0-1.48-.98-1.97-1.48-.98-.98-.98-1.97-.49-2.46m9.84,8.37c1.48,.98,2.46,2.46,1.97,4.43-.49,.98-.98,1.48-1.97,1.97h-.98c-.49,0-.98,0-1.48-.49-.98-.49-1.48-.98-1.97-1.97s-.49-1.48,0-2.46c.49-.98,.98-1.48,1.97-1.97,.49,0,1.48,.49,2.46,.49m4.92,13.78c0,.98,0,1.97-.49,2.46-.49,.49-1.48,1.48-1.97,1.48h-.49c-.49,0-1.48,0-1.97-.49-.49-.49-1.48-1.48-1.48-1.97,0-.98,0-1.97,.49-2.46,.98-1.48,2.95-1.97,4.43-.98,.49,0,.98,.98,1.48,1.97m-69.88-65.45c-43.3,0-78.24,34.94-78.24,77.75s34.94,77.75,77.75,78.24c43.3,0,78.24-34.94,78.24-77.75s-34.45-78.24-77.75-78.24"/><path class="cls-1" d="M141.23,274.1c14.76,0,26.57-11.81,26.57-26.57s-11.81-26.57-26.57-26.57-26.57,11.81-26.57,26.57,11.81,26.57,26.57,26.57"/><path class="cls-1" d="M171.74,284.43h-61.51c-16.24,1.48-29.03,13.78-31.49,30.02h124.99c-2.46-16.24-15.75-28.54-31.99-30.02"/><path class="cls-1" d="M169.77,414.84c-.49-.49-1.97-1.97-1.97,.49s2.46,2.46,0,3.94c-2.46,1.48-2.46,.98-3.44,1.48-1.48,.98-1.97,2.46-1.97,3.94,.49,1.48,3.44,4.92,.98,4.43-1.97-.98-3.94-2.46-5.41-4.43-.49-1.48-.98-3.44-1.97-4.92-.49-1.48-1.97-1.97-2.95-.98-.98,.98,.49,1.48-.49,3.44-.98,1.97-1.48,3.44-2.95,1.97-3.44-3.94-7.87-1.97-8.86-5.91-.49-2.46-2.46-1.97-3.94-3.44-1.48-1.48-2.46-1.97-2.95-.98-.49,.98,4.92,4.92,5.41,6.4,.49,1.48-1.48,2.95-3.44,3.44-1.97,.49-2.46-.98-3.94-2.46-1.48-1.48-1.97-2.46-2.46-1.97v.49c0,1.97,1.48,3.94,2.95,5.41,1.48,.98,2.95,1.48,2.46,2.46s0,.49-1.48,1.97v3.94c0,1.48-.49,2.95-.98,3.94-.49,1.97-.98,.49-1.97,2.95-.49,1.48-.98,2.95-1.97,4.43-.98,.98-2.95,1.97-4.43,1.97q-.49,0-.49-.49c-.98-.98-.98-3.94-.98-5.91,0-.98-.98,1.48-1.48-2.95-.49-2.95-1.97,.49-2.46-1.48-.49-1.97-.98-1.48-1.97-2.46-.98-.98-1.97,0-3.44,.49-1.48,.49-.98,.98-1.97,.49-1.97-3.94-2.95-8.86-2.95-13.29,0-1.48,0-2.46,.49-3.94,.98-1.48,.98-1.97,1.48-1.97s.98-.49,1.48-.49l.98-.49c1.97,.49,3.44,.98,5.41,1.48,1.97,.98,3.94,1.48,5.91,1.97h.98c1.48-.49,2.46-1.48,1.97-2.46s-.98-1.48-2.46-.98c-.49,.49-1.48-1.97-2.46-1.97s.98,2.95,.49,2.95-1.97-2.95-2.46-3.44-1.48-1.48-1.97-.98c-1.97,1.97-5.41,1.97-5.91,2.46q-.49,0-.49,.49c-.98,.49-1.48,0-1.48-.98s.49-1.48,.49-1.97c.98-.49,2.46-.49,3.44,0s1.48,0,1.97-.49,0-.98,0-1.48,.49-.98,.98-.98c.98-.49,1.97-.98,2.46-1.48,1.48-.49,3.44-.49,4.92,0,.98,.49,2.46,0,3.44-.49,.98-.98,1.97-1.97,2.46-1.97s-.98-1.97-2.46,0c-1.48,1.97-1.97,1.97-2.95,1.97s-4.43-.98-4.92-2.46c-.49-1.48,.98-1.97,2.46-2.95,1.48-.98,5.41-.49,6.4-.98,1.97-.49,4.43-1.48,5.91-.49s-5.41,2.46-3.44,3.44c.98,.49,4.43-1.97,5.41-2.46,2.95-1.48-2.95-1.97-1.97-4.92s-5.91-2.46-9.84-1.97c4.92-2.95,10.83-4.92,16.73-4.92,16.24,0,30.02,11.81,32.48,27.56-1.48,.49-3.44,0-4.43-.98m3.94,5.91c0,1.97,0,4.43-.49,6.4-1.97-1.97-2.46-5.41-.49-7.87,.49-.49-.98-2.46-.49-2.46s.98,0,1.48,.49v3.44Zm-4.92,8.37c-.98,.49-2.46,.49-3.44-.49-.98-.49,.49-1.97,.98-1.97,1.48,.49,3.44,1.97,2.46,2.46m-3.44-2.95c-.49,0-.49-.49-.98-1.48-.49-.98,.49-1.48,.98-.98s1.48,1.48,1.48,1.97-.98,.49-1.48,.49m-1.48,18.21c-1.48-.49-1.48,.49-2.46,.49s.98-2.46-1.48-.49c-2.46,1.97-1.97-.49-2.95-3.44-.49-2.95,.98-5.91,3.44-7.38,1.97-.98,3.94-1.48,5.91-1.48,3.94-.98,4.92-3.44,5.41-1.97,0,.49,.49,.49,.49,.98-1.97,4.92-4.92,9.35-8.37,13.29m-15.25-20.67c.98,0,2.95,1.48,1.97,1.97-.98,.49-2.46,.49-3.44-.49-.49-.49,.98-1.48,1.48-1.48m-13.78,7.38c1.48-2.46,3.94-2.46,1.97,1.48-.49,.98-1.97,6.4-2.46,5.91s.49-6.89,.49-7.38m6.4,22.14c-3.44,0-6.89-.49-9.84-1.48v-.49c.98-2.46,3.44-3.94,6.4-3.94,5.41-.49,12.79,3.44,13.78,2.95,.98-.49,3.44-3.44,6.89-3.44h1.48c-5.41,3.94-11.81,6.4-18.7,6.4m-27.56-50.69c.49-.49,1.48-.49,1.97-.49,.98,0,1.97,.49,1.97,.98s-1.97,1.48-2.46,1.97c-.49,.49-2.95,3.44-3.94,3.44h-.49c.49-2.46,1.48-4.43,2.95-5.91m4.92-5.91c.49,0,.49,.49,.98,.49s0,1.97-.49,1.97c-.49,.98-1.97,1.97-3.44,1.48h-.49c.98-1.48,1.97-2.95,3.44-3.94m22.64-12.3c-19.68,0-35.92,16.24-35.92,35.92s16.24,35.92,35.92,35.92,35.92-16.24,35.92-35.92-16.24-35.92-35.92-35.92"/><path class="cls-1" d="M202.74,425.66c0,1.48-1.48,2.46-2.95,2.95-1.48,.49-2.95,.49-4.92,.49-1.48,0-2.95,1.48-3.44,2.95-.98,2.95-1.97,5.91-2.95,8.86-.49,1.48,0,3.44,1.48,3.94,1.48,.98,2.46,1.97,3.44,2.95,1.48,.49,1.97,2.46,.98,3.44v.49c-1.97,3.44-3.94,6.89-6.89,9.35-.98,.98-2.46,1.48-3.94,.49-1.48-.98-2.95-1.48-4.43-2.46-1.48-.98-3.44-.98-4.43,.49-2.46,1.97-4.92,3.94-7.38,5.41-1.48,.98-1.48,2.46-.98,4.43l1.48,4.43c.49,1.48,0,3.44-1.48,3.94-3.44,1.97-6.89,2.95-10.83,3.94-1.48,.49-2.95-.49-3.44-1.97s-1.48-2.95-1.97-4.43c-.49-2.95-1.97-3.94-3.94-3.94h-9.35c-1.97,0-3.44,.98-3.44,2.95-.49,1.48-.98,2.95-1.48,4.43,0,1.48-1.48,2.46-2.95,1.97h-.49c-3.94-.49-7.87-1.97-11.32-3.44-1.48-.49-1.97-1.97-1.48-3.44,.49-1.97,.49-2.95,.98-4.92,.49-1.48,0-3.44-1.48-4.43-2.46-1.48-4.92-3.44-7.38-5.41-1.48-.98-3.44-.49-4.43,.49-1.48,.98-2.46,1.48-3.94,2.46-1.48,.98-3.44,.98-4.43-.49-2.95-2.95-4.92-5.91-6.89-9.35-.98-.98-.49-2.95,.49-3.94h.49c1.48-.98,2.95-1.97,3.94-3.44,1.48-.98,1.97-2.95,.98-4.43-.98-2.95-1.97-5.91-2.95-8.86-.49-1.97-1.97-2.46-3.94-2.46h-4.43c-1.48,0-2.95-.98-2.95-1.97v-.98c-.49-3.94-.49-7.87,0-11.81,0-1.48,1.48-2.46,2.95-2.95s2.95-.49,4.92-.49c1.48,0,2.95-1.48,3.44-2.95,.98-2.95,1.97-5.91,2.95-8.86,.49-1.48,0-3.44-1.48-3.94-1.48-.98-2.46-1.97-3.44-2.95-1.48-.49-1.97-2.46-.98-3.44v-.49c1.97-3.44,3.94-6.89,6.89-9.35,.98-.98,2.46-1.48,3.94-.49,1.48,.98,2.95,1.48,4.43,2.46,1.48,.98,3.44,.98,4.43-.49,1.97-1.48,5.91-4.43,7.38-5.41,1.48-.98,1.48-2.46,.98-4.43l-1.48-4.43c-.49-1.48,0-3.44,1.48-3.94,3.44-1.97,6.89-2.95,10.83-3.94,1.48-.49,2.95,.49,3.44,1.97,.49,1.48,1.48,2.95,1.97,4.43,.49,1.48,2.46,2.46,3.94,2.46h9.35c1.97,0,3.44-.98,3.44-2.95,.49-1.48,.98-2.95,1.48-4.43,0-1.48,1.48-2.46,2.95-1.97h.49c3.94,.49,7.87,1.97,11.32,3.44,1.48,.49,1.97,1.97,1.48,3.44-.49,1.97-.49,2.95-.98,4.92-.49,1.48,0,3.44,1.48,4.43,2.46,1.48,4.92,3.44,7.38,5.41,1.48,.98,3.44,.49,4.43-.49,1.48-.98,2.46-1.48,3.94-2.46,.98-.98,2.46-.98,3.44,0,0,0,0,.49,.49,.49,2.95,2.95,4.92,5.91,6.89,9.35,.98,.98,.49,2.95-.49,3.94h-.49c-1.48,.98-2.95,1.97-3.94,3.44-1.48,.98-1.97,2.95-.98,4.43,.98,2.95,1.97,5.91,2.95,8.86,.49,1.97,1.97,2.46,3.94,2.46h4.43c1.48,0,2.95,.98,2.95,1.97v.98c.49,3.94,.98,8.86,.49,13.29m4.92-98.91H53.64v15.75h12.79v182.08H217.51v-182.08h12.79v-15.75h-22.64Z"/></g></svg>