<?xml version="1.0" encoding="UTF-8"?><svg id="Capa_1" xmlns="http://www.w3.org/2000/svg" viewBox="0 0 467 568.37"><defs><style>.cls-1{fill:#fff;}.cls-2{fill:#c88b0c;}</style></defs><path class="cls-2" d="M4.92,80.7H461.59V4.92H4.92V80.7Zm462.08,4.92H0V0H466.51V85.62h.49Z"/><polygon class="cls-2" points="16.73 17.72 38.88 17.72 38.88 24.6 32.48 24.6 32.48 67.91 23.62 67.91 23.62 24.6 16.73 24.6 16.73 17.72"/><path class="cls-2" d="M49.21,52.16h6.89l-3.44-20.18-3.44,20.18Zm-10.33,15.75l9.35-50.19h9.35l9.84,50.19h-8.86l-1.48-9.35h-8.86l-1.48,9.35h-7.87Z"/><path class="cls-2" d="M80.21,24.6v15.75h2.95c2.95,0,3.94-1.48,3.94-3.94v-7.38c0-2.95-1.48-3.94-3.94-3.94h-2.95v-.49Zm0,20.18v23.13h-8.37V17.72h12.3c8.37,0,11.81,4.43,11.81,11.32v6.4c0,5.41-1.97,8.37-6.89,9.84l7.87,22.64h-8.86l-7.87-23.13Z"/><path class="cls-2" d="M113.67,41.34h11.81v26.57h-5.91v-5.41c-.98,3.94-3.44,5.91-7.87,5.91-7.38,0-10.33-5.91-10.33-13.29V31c0-7.87,3.94-13.29,12.79-13.29,9.35,0,11.81,5.41,11.81,12.79v4.43h-7.87v-4.92c0-2.95-.98-4.92-4.43-4.92-2.95,0-4.43,1.97-4.43,4.92v27.07c0,2.95,1.48,4.92,3.94,4.92,2.95,0,3.94-1.48,3.94-4.92v-9.35h-3.94v-6.4h.49Z"/><polygon class="cls-2" points="132.37 17.72 152.55 17.72 152.55 24.6 140.74 24.6 140.74 38.88 149.11 38.88 149.11 45.77 140.74 45.77 140.74 61.02 152.55 61.02 152.55 67.91 132.37 67.91 132.37 17.72"/><polygon class="cls-2" points="156.49 17.72 178.63 17.72 178.63 24.6 171.74 24.6 171.74 67.91 163.38 67.91 163.38 24.6 156.49 24.6 156.49 17.72"/><polygon class="cls-2" points="367.6 17.72 367.6 67.91 359.23 67.91 359.23 29.53 353.33 35.43 353.33 27.07 361.2 18.21 367.6 18.21 367.6 17.72"/><path class="cls-2" d="M374.49,58.56c0-4.92,1.48-8.37,6.4-13.29l4.92-4.92c2.95-2.95,2.95-4.43,2.95-8.86v-3.44c0-2.95-1.48-3.94-2.95-3.94-1.97,0-3.44,.98-3.44,3.94v6.4h-7.87v-6.4c0-6.89,3.94-10.83,11.32-10.83,7.87,0,11.32,3.44,11.32,10.83v4.92c0,4.92-.98,7.87-5.41,12.79l-5.41,5.91c-1.97,2.46-3.44,3.94-3.44,7.87v2.46h13.78v6.89h-21.65v-10.33h-.49Z"/><path class="cls-2" d="M410.41,36.91c3.44,0,5.91,2.95,5.91,5.91,0,3.44-2.95,5.91-5.91,5.91-3.44,0-5.91-2.95-5.91-5.91s2.46-5.91,5.91-5.91"/><path class="cls-2" d="M448.3,44.78v12.3c0,6.89-3.44,11.32-11.81,11.32s-11.81-4.92-11.81-12.3v-5.91h7.87v6.4c0,2.95,.98,4.92,3.94,4.92,2.46,0,3.44-1.97,3.44-4.43v-12.3c0-2.95-.98-4.43-3.44-4.43s-3.94,1.48-3.94,4.43v.98h-7.87V17.72h22.14v6.89h-14.27v12.3c1.48-2.46,3.94-3.44,6.89-3.44,4.43,.49,8.86,3.44,8.86,11.32"/><g><rect class="cls-2" y="101.86" width="466.51" height="466.51"/><path class="cls-1" d="M147.14,283.45h-32.48v-3.94c0-.49-.49-1.48-1.48-1.48h-24.6c-.49,0-1.48,.49-1.48,1.48v3.94H54.62c-.49,0-1.48,.49-1.48,1.48l.98,5.41c0,.49,.49,1.48,1.48,.98h90.55c.49,0,1.48-.49,1.48-.98l.98-5.41c0-.98-.49-1.48-1.48-1.48"/><path class="cls-1" d="M126.47,377.44c0,1.48-1.48,2.95-2.95,2.95-1.97,0-2.95-1.48-2.95-3.44l3.94-63.97c.49-1.97,1.97-2.95,3.94-2.46,1.48,.49,2.46,1.48,2.46,2.95l-4.43,63.97Zm-22.14-.49c0,1.97-1.97,2.95-3.44,2.95s-2.46-1.48-2.95-2.95v-63.97c0-1.97,1.97-2.95,3.44-2.95s2.46,1.48,2.95,2.95v63.97Zm-24.6,3.44h0c-1.48,0-2.95-1.48-2.95-2.95l-3.94-63.97c0-1.97,.98-3.44,2.95-3.44s3.44,.98,3.44,2.95l3.94,63.97c0,1.48-1.48,2.95-3.44,3.44m66.43-84.15H56.59c-.49,0-1.48,.49-1.48,.98l6.4,94.97c0,.49,.49,1.48,1.48,1.48h76.77c.49,0,1.48-.49,1.48-.98l6.4-94.48c0-1.48-.49-1.97-1.48-1.97,.49,0,0,0,0,0"/><path class="cls-1" d="M261.8,333.15l-5.41-12.79c0-.49-.49-.98-1.48-.49h-.49l-14.27,7.38,1.48,2.95,12.79-6.4,3.94,9.35h-10.33l5.91,60.04h31l5.91-60.04h-29.03Z"/><path class="cls-1" d="M422.22,296.73l-25.59-11.81-15.26-3.44c-3.44,7.87-10.83,12.79-19.19,12.79h-.98c-8.86,0-16.73-4.92-20.67-12.79l-14.76,3.44-25.59,11.81s-1.48,.49-.49,2.46l11.32,22.64c0,.49,.98,.98,1.48,.98,2.46-.98,13.29-3.44,13.29-3.44v72.83s.49,1.48,1.97,1.48h66.93c1.48,0,1.97-1.48,1.97-1.48v-72.83s10.83,2.95,13.29,3.44c.49,.49,1.48,0,1.48-.49l11.32-22.64c.98-2.46-.49-2.95-.49-2.95"/><path class="cls-1" d="M190.93,275.57h13.29c2.46,0,3.94,1.97,3.94,3.94v4.43c0,2.46-1.97,3.94-3.94,3.94h-13.29c-2.46,0-3.94-1.97-3.94-3.94v-3.94c0-2.46,1.97-4.43,3.94-4.43"/><path class="cls-1" d="M217.51,320.36v-9.84c0-.98-.49-1.48-.98-2.46-.98-.98-8.86-15.25-8.86-15.25,0-.49-.49-.49-.98-.49h-18.21c-.49,0-.98,0-.98,.49,0,0-8.37,14.27-8.86,15.25-.49,.49-.98,1.48-.98,2.46v78.24c0,2.95,1.97,4.92,4.92,4.92h30.51c2.46,0,4.92-2.46,4.92-4.92v-18.7l-.49-49.7Z"/><path class="cls-1" d="M346.93,463.06l-13.78-10.83c-.98-.98-2.95-1.48-3.94,0-43.3,51.67-118.1,57.08-171.25,14.76-1.48-1.48-2.95-2.46-4.43-3.94l15.75-9.84c1.48-.98-.49-2.46-.49-2.46l-53.15-26.57c-1.48-.98-1.97,0-1.97,.98v.49l-.98,60.04c0,.49,.49,1.97,1.97,.98l17.22-10.83c3.44,3.44,6.89,6.4,10.83,9.35,62.99,50.69,152.06,43.8,204.22-17.22l.49-.49c.98-.98,.98-2.95-.49-4.43"/><path class="cls-1" d="M113.18,214.06l14.27,10.33c.98,.98,2.95,.98,3.94,0v-.49c40.35-54.13,114.66-63.97,169.77-24.6,1.48,.98,3.44,2.46,4.92,3.94l-14.76,10.83c-1.48,.98,.98,2.46,.98,2.46l54.62,23.13c1.48,.98,1.97-.49,1.97-.98v-.49l-3.44-60.53c0-.49-.49-1.97-1.97-.98l-16.73,11.81c-3.44-2.95-7.38-5.91-11.32-8.86-65.94-46.75-154.52-34.94-202.74,29.03l-.49,.49c-.49,1.97-.49,3.44,.98,4.92"/></g></svg>