<?xml version="1.0" encoding="UTF-8"?><svg id="Capa_1" xmlns="http://www.w3.org/2000/svg" viewBox="0 0 467 568.37"><defs><style>.cls-1{fill:#00486e;}.cls-2{fill:#fff;}</style></defs><path class="cls-1" d="M4.92,80.7H461.59V4.92H4.92V80.7Zm462.08,4.92H0V0H466.51V85.62h.49Z"/><polygon class="cls-1" points="16.73 17.72 38.88 17.72 38.88 24.6 32.48 24.6 32.48 67.91 23.62 67.91 23.62 24.6 16.73 24.6 16.73 17.72"/><path class="cls-1" d="M49.21,52.16h6.89l-3.44-20.18-3.44,20.18Zm-10.33,15.75l9.35-50.19h9.35l9.84,50.19h-8.86l-1.48-9.35h-8.86l-1.48,9.35h-7.87Z"/><path class="cls-1" d="M80.21,24.6v15.75h2.95c2.95,0,3.94-1.48,3.94-3.94v-7.38c0-2.95-1.48-3.94-3.94-3.94h-2.95v-.49Zm0,20.18v23.13h-8.37V17.72h12.3c8.37,0,11.81,4.43,11.81,11.32v6.4c0,5.41-1.97,8.37-6.89,9.84l7.87,22.64h-8.86l-7.87-23.13Z"/><path class="cls-1" d="M113.67,41.34h11.81v26.57h-5.91v-5.41c-.98,3.94-3.44,5.91-7.87,5.91-7.38,0-10.33-5.91-10.33-13.29V31c0-7.87,3.94-13.29,12.79-13.29,9.35,0,11.81,5.41,11.81,12.79v4.43h-7.87v-4.92c0-2.95-.98-4.92-4.43-4.92-2.95,0-4.43,1.97-4.43,4.92v27.07c0,2.95,1.48,4.92,3.94,4.92,2.95,0,3.94-1.48,3.94-4.92v-9.35h-3.94v-6.4h.49Z"/><polygon class="cls-1" points="132.37 17.72 152.55 17.72 152.55 24.6 140.74 24.6 140.74 38.88 149.11 38.88 149.11 45.77 140.74 45.77 140.74 61.02 152.55 61.02 152.55 67.91 132.37 67.91 132.37 17.72"/><polygon class="cls-1" points="156.49 17.72 178.63 17.72 178.63 24.6 171.74 24.6 171.74 67.91 163.38 67.91 163.38 24.6 156.49 24.6 156.49 17.72"/><polygon class="cls-1" points="373.5 17.72 373.5 67.91 365.14 67.91 365.14 29.53 359.23 35.43 359.23 27.07 367.1 18.21 373.5 18.21 373.5 17.72"/><polygon class="cls-1" points="379.41 17.72 400.57 17.72 400.57 25.59 389.74 67.91 381.37 67.91 392.69 24.6 379.9 24.6 379.9 17.72 379.41 17.72"/><path class="cls-1" d="M414.35,36.91c3.44,0,5.91,2.95,5.91,5.91,0,3.44-2.95,5.91-5.91,5.91-3.44,0-5.91-2.95-5.91-5.91-.49-2.95,2.46-5.91,5.91-5.91"/><polygon class="cls-1" points="427.14 17.72 448.3 17.72 448.3 25.59 437.47 67.91 429.11 67.91 440.43 24.6 427.63 24.6 427.63 17.72 427.14 17.72"/><g><rect class="cls-1" x="0" y="101.86" width="466.51" height="466.51"/><path class="cls-2" d="M324.25,295.75c-22.14,0-39.84-17.72-39.84-39.86s17.71-39.86,39.84-39.86,39.84,17.72,39.84,39.86-17.71,39.86-39.84,39.86m80.17-24.6l-8.36-3.94c-2.95-.98-4.43-3.94-4.43-6.89v-9.84c0-2.95,1.48-5.91,4.43-6.89l7.87-3.94c2.95-.98,4.92-4.43,3.93-7.38q0-.49-.49-.98c-1.97-6.4-4.43-12.3-7.87-18.21-.98-2.95-4.43-4.43-7.38-2.95l-8.85,2.95c-2.95,.98-6.39,.49-8.36-1.97-.98-.98-1.97-2.46-3.44-3.44s-2.46-2.46-3.44-3.44c-2.46-1.97-3.44-5.91-1.97-8.86,.98-2.95,1.97-5.91,2.95-8.86,.98-2.46,0-5.91-2.46-6.89,0,0-.49,0-.49-.49l-18.69-7.38c-2.46-1.48-5.9,0-6.89,2.46v.49c-1.48,2.95-2.95,6.4-4.43,9.35-.98,2.46-3.44,3.94-5.9,3.94h-10.82c-2.95,0-5.9-1.48-6.89-4.43-1.48-2.95-2.95-5.91-4.43-8.86-.98-2.46-3.93-3.94-6.88-2.95-6.89,1.97-13.28,4.43-19.67,8.37-2.46,1.48-3.94,4.43-2.46,7.38,.98,2.95,1.97,5.91,2.95,8.37,1.47,2.95,.49,6.89-1.97,8.86-.98,.98-2.46,1.97-3.44,3.44l-3.44,3.44c-1.97,2.46-5.41,3.44-8.36,1.97l-8.85-2.95c-2.46-.98-5.9,0-6.89,2.46v.49l-7.38,18.21c-1.97,2.95-.98,6.4,1.48,7.87,.49,0,.49,.49,.98,.49l8.85,3.94c2.46,.98,3.94,3.44,3.94,6.4v10.83c0,2.95-1.48,5.91-4.43,6.89l-7.87,4.43c-2.95,.98-4.43,4.43-3.44,7.38v.49c1.97,6.4,4.43,12.79,7.87,18.7,1.48,2.95,4.43,3.94,7.38,2.95,2.95-.98,5.9-1.97,9.34-3.44,2.95-.98,5.9-.49,7.87,1.97l7.38,6.89c2.46,1.97,2.95,5.41,1.97,8.37-.98,2.95-1.97,5.91-3.44,9.35-.98,2.46,0,5.91,2.46,6.89h.49c5.91,2.46,12.3,4.92,18.69,7.38,2.46,1.48,5.9,0,7.38-2.46v-.49c1.48-2.95,2.95-5.91,3.94-8.86,.98-2.46,3.44-3.94,6.39-3.94h10.82c2.95,0,5.9,1.48,6.89,4.43,1.48,2.95,2.95,5.91,4.43,8.86,.98,2.95,3.93,3.94,6.89,3.44,6.89-1.97,13.77-4.43,19.67-8.37,1.97-.98,2.95-2.95,2.95-5.41,0-.49,0-1.48-.49-1.97-.98-2.95-1.97-5.91-2.95-8.37-1.48-2.95-.49-6.4,1.97-8.86,2.46-1.97,4.43-4.43,6.39-6.89,1.97-2.46,5.41-2.95,8.36-1.97l8.85,2.95c2.46,1.48,5.9,0,6.89-2.46,0,0,0-.49,.49-.49,2.46-5.91,4.92-12.3,7.38-18.21,1.47-2.46,.98-5.91-1.48-7.38-.49-1.48-.98-1.48-1.48-1.97"/><path class="cls-2" d="M173.71,458.14c-38.88,0-70.37-31.99-70.37-70.86s31.99-70.37,70.86-70.37,70.37,31.99,69.88,70.86c0,38.88-31.49,70.37-70.37,70.37m113.18-83.66c-.49-2.95-2.95-4.92-5.91-4.92s-5.41,0-8.37-.49c-2.95-.49-5.91-.98-6.89-3.94-1.48-5.41-2.95-10.83-5.41-16.24-1.48-2.95-.49-6.4,1.97-8.37,2.46-1.97,4.43-3.94,6.89-5.91,1.97-1.97,2.95-4.92,1.48-7.38-3.44-6.4-7.87-11.81-12.79-17.22-1.97-2.46-5.41-2.46-7.87-.98-2.46,1.48-4.43,2.95-6.89,4.92-2.46,1.97-5.41,2.95-7.87,.49-4.92-3.44-10.33-7.87-13.78-9.84-2.95-1.48-3.94-4.92-2.95-7.87,.98-3.44,1.48-5.91,1.97-8.86,.98-2.95-.49-5.41-2.95-6.89-6.4-2.95-13.29-4.92-20.67-6.4-2.95-.49-5.91,.98-6.89,3.94-.98,2.95-1.97,4.92-2.95,7.87-.98,2.95-2.46,5.41-5.91,5.41h-16.73c-2.95,.49-5.91-1.48-7.38-4.43-.98-2.95-2.46-5.41-3.44-8.37-.98-2.46-3.94-3.94-6.4-3.44-6.89,1.48-13.78,3.44-20.18,6.89-2.95,.98-4.43,4.43-2.95,7.38,.98,2.95,1.48,4.92,2.46,7.87,.98,2.95,.98,5.91-1.97,7.87-2.95,1.97-9.84,6.89-13.78,9.84-2.46,1.97-5.91,2.46-8.37,.49-2.95-1.97-4.92-2.95-7.87-4.92-2.46-1.48-5.41-.98-7.38,.98-4.92,5.41-8.86,11.32-12.3,17.72-1.48,2.46-.98,5.91,1.48,7.38,2.46,1.97,4.43,3.44,6.4,4.92,1.97,1.48,4.43,4.43,2.95,7.38-1.48,2.95-3.94,12.79-4.92,16.24-.49,2.95-3.44,5.41-6.4,5.41-3.44,0-5.91,.49-9.35,.98-2.95,0-4.92,1.97-5.41,4.92-.98,7.38-.49,14.27,.49,21.65,.49,2.95,2.95,4.92,5.91,4.92s5.41,0,8.37,.49c2.95,.49,5.91,.98,6.89,3.94,1.48,5.41,3.44,10.83,5.41,16.24,1.48,2.95,.49,6.4-1.97,8.37-2.46,1.97-4.43,3.94-6.89,5.91-2.95,1.48-3.44,4.92-1.97,7.87,0,0,0,.49,.49,.49,3.44,6.4,7.87,12.3,12.79,17.22,1.97,2.46,5.41,2.46,7.87,.98,2.46-1.48,4.43-2.95,6.89-4.92,2.46-1.97,5.41-2.95,7.87-.49,2.46,2.46,10.33,7.87,13.78,9.84,2.95,1.48,3.94,4.92,2.95,7.87-.98,3.44-1.48,5.91-1.97,8.86-.98,2.95,.49,5.41,2.95,6.89,6.4,2.95,13.29,4.92,20.67,6.4,2.95,.49,5.91-.98,6.89-3.94,.98-2.95,1.97-4.92,2.95-7.87,.98-2.95,2.46-5.41,5.91-5.41h17.22c2.95-.49,5.91,1.48,7.38,4.43,.98,2.95,2.46,5.41,3.44,8.37,.98,2.46,3.94,3.94,6.4,3.44,6.89-1.48,13.78-3.94,20.18-7.38,2.95-.98,4.43-4.43,2.95-7.38-.98-2.95-1.48-4.92-2.46-7.87-.98-2.95-.98-5.91,1.97-7.87,2.95-1.97,10.83-7.87,13.78-9.84,2.46-1.97,5.91-2.46,8.37-.49,2.95,1.97,4.92,2.95,7.87,4.92,2.46,1.48,5.41,.98,7.38-.98,4.92-5.41,8.86-11.32,12.3-17.72,1.48-2.46,.98-5.91-1.48-7.87-2.46-1.97-4.43-3.44-6.4-4.92-1.97-1.48-5.41-4.43-3.94-7.38,1.48-2.95,3.94-12.3,4.92-16.24,.49-2.95,3.44-5.41,6.4-5.41,3.44,0,5.91-.49,9.35-.98,2.95,0,4.92-1.97,5.41-4.92,.98-6.89,.98-14.76,0-21.65"/><path class="cls-2" d="M121.55,367.6c1.48,.98,2.95,0,3.44-.98,.49-.98,.49-1.97,0-2.46-.49-.98,.98-1.48,1.48-1.48,1.48-.98,3.44-1.97,4.92-2.95,2.95-.98,6.4-.98,9.35,0,1.97,.98,4.92,.49,6.4-.98s2.95-2.95,4.43-3.94c.98-.49-2.46-3.44-4.92,0-2.46,3.44-3.94,3.44-4.92,3.44s-8.37-1.97-9.35-3.94c-.98-1.97,2.46-3.94,4.92-5.41,3.94-.98,7.87-1.48,11.81-1.48,3.94-.98,8.37-2.95,10.83-.98,2.46,1.97-10.33,4.43-5.91,6.89,1.48,.98,7.87-3.94,10.33-4.92,5.41-2.95-4.92-3.94-3.94-9.35,.98-5.41-12.3-3.94-19.68-3.44-3.44,1.97-6.89,4.43-9.84,7.38,.98,0,1.97,.49,1.97,.98,0,1.48-.49,2.95-.98,3.94-1.97,1.97-3.94,2.95-6.89,2.95-.49,0-.98-.49-.98-.49-.98,1.48-1.97,2.95-2.95,4.43,1.48-.98,2.95-1.48,4.43-1.48s3.44,.49,3.94,1.48c.49,.98-3.94,2.95-4.43,3.44-1.97,1.97-5.41,5.91-7.38,6.4h-1.48c-.49,1.48-.98,2.95-1.48,3.94,1.97-1.48,4.43-1.48,6.89-.98"/><path class="cls-2" d="M224.89,402.54c-1.97,.98-4.43,.98-5.91-.49-1.48-1.48,.98-3.44,1.97-3.44,1.97,0,4.92,2.95,3.94,3.94m-8.37-7.87c-.49-1.48,.98-2.46,1.97-1.97,.98,.49,2.95,2.46,2.95,3.44s-2.46,.98-2.95,.98-1.48-.98-1.97-2.46m-25.59,1.97c-1.97,.98-4.43,.98-5.91-.49-1.48-.98,.98-3.44,1.97-3.44,1.97,0,4.92,2.95,3.94,3.94m-25.59,12.3c-.98,1.48-3.44,11.81-4.92,10.83-1.48-.98,.49-12.3,.98-12.79,2.95-4.92,7.87-4.92,3.94,1.97m58.56-24.6c-1.97,1.48-4.43,2.46-6.4,2.46-2.46,1.97-3.44,4.43-3.44,7.38,.49,2.46,5.91,8.86,1.97,8.37-3.94-1.97-7.38-4.92-9.84-8.37-1.48-3.44-2.46-6.89-3.94-9.35-.49-1.97-2.46-2.95-4.43-2.46-.49,0-.98,.49-.98,.49-2.46,1.48,.49,2.95-.98,6.4-1.48,3.44-2.95,5.91-4.92,3.44-5.91-6.89-14.76-3.44-16.24-11.32-.49-3.94-4.43-3.94-7.38-5.91-2.95-1.97-4.92-3.44-5.41-1.97s9.35,9.35,10.33,11.32c.98,2.95-2.95,5.91-5.91,6.4-2.95,.49-4.43-1.48-7.38-4.43-2.95-2.95-3.94-5.41-4.43-2.95,0,3.94,2.46,7.87,5.91,10.33,2.46,1.48,5.41,2.46,4.43,4.92-.98,2.46,0,.98-2.95,3.94-2.46,1.48-3.94,4.43-3.44,7.38,0,3.94-.98,3.94-1.48,7.38-.49,3.44-1.97,.49-3.44,4.92-.49,2.95-1.97,5.91-3.94,7.87-2.46,1.97-5.41,2.95-8.37,3.44-2.95,0-2.95-7.87-2.95-11.81,0-1.48-1.97,2.46-2.95-5.41-.49-5.41-3.94,.49-4.43-2.95s-1.97-2.95-3.44-4.92c-1.48-1.97-3.94,0-6.4,1.48-2.46,1.48-1.48,1.48-4.92,.49,7.38,17.22,21.65,30.02,39.86,35.43-.98-.49-.98-1.97-.98-2.95,2.46-4.43,6.89-6.89,12.3-6.89,9.84-.98,23.13,6.4,25.59,5.41,2.46-.98,6.4-6.89,12.79-6.4,1.97,0,3.94,.49,5.41,1.48,1.97-1.48,4.43-3.44,6.4-5.41-.49,0-1.48-.49-1.97-.49-3.44-1.97-2.95,.98-4.92,.49-1.97-.49,1.97-4.43-2.95-.98-4.92,3.44-3.44-.49-5.91-5.91-1.48-5.41,1.48-10.83,6.4-13.29,3.94-1.48,7.38-2.46,11.32-2.95,7.38-1.97,8.86-6.4,10.33-3.44,0,.49,.49,.98,.98,1.48,.49,.98,.98,2.46,.98,3.94,.98-2.95,1.97-6.4,2.95-9.35-1.97-.98-8.37-10.33-2.95-16.24,.98-.98-1.97-3.94-.98-4.43,2.46,0,4.43,1.48,4.92,3.94,0-3.44-.49-6.4-1.48-9.84v1.97c-.98,1.97-3.44,2.95-5.41,2.46-.98-.49-1.48-.98-1.97-1.48-.49-.98-3.44-3.44-3.44,.98s4.43,3.44,.49,5.91"/><path class="cls-2" d="M119.09,374.49c3.44,.49,6.89,1.48,10.33,2.46,3.44,1.48,9.35,4.43,12.3,2.95,2.46-.98,4.43-2.46,3.94-4.43-.49-1.97-2.46-2.95-4.43-1.48-.98,.49-2.95-3.94-4.43-3.44-1.48,.49,1.97,5.41,.49,5.41s-3.94-4.92-3.94-5.91-2.46-2.95-3.94-1.48c-3.94,3.44-9.84,3.44-10.83,3.94-.49,.49-.98,.49-.98,.98-2.46,.98-2.95-1.48-3.44-3.44-.98,3.44-1.97,6.89-1.97,10.83l.49-.49c1.97-3.94,2.46-4.43,2.95-4.43,.98-.49,1.48-.49,2.46-.98l.98-.49Z"/></g></svg>