<?xml version="1.0" encoding="UTF-8"?><svg id="Capa_1" xmlns="http://www.w3.org/2000/svg" viewBox="0 0 467 568.37"><defs><style>.cls-1{fill:#fff;}.cls-2{fill:#e9a30d;}</style></defs><path class="cls-2" d="M4.92,80.7H461.59V4.92H4.92V80.7Zm462.08,4.92H0V0H466.51V85.62h.49Z"/><polygon class="cls-2" points="16.73 17.72 38.88 17.72 38.88 24.6 32.48 24.6 32.48 67.91 23.62 67.91 23.62 24.6 16.73 24.6 16.73 17.72"/><path class="cls-2" d="M49.21,52.16h6.89l-3.44-20.18-3.44,20.18Zm-10.33,15.75l9.35-50.19h9.35l9.84,50.19h-8.86l-1.48-9.35h-8.86l-1.48,9.35h-7.87Z"/><path class="cls-2" d="M80.21,24.6v15.75h2.95c2.95,0,3.94-1.48,3.94-3.94v-7.38c0-2.95-1.48-3.94-3.94-3.94h-2.95v-.49Zm0,20.18v23.13h-8.37V17.72h12.3c8.37,0,11.81,4.43,11.81,11.32v6.4c0,5.41-1.97,8.37-6.89,9.84l7.87,22.64h-8.86l-7.87-23.13Z"/><path class="cls-2" d="M113.67,41.34h11.81v26.57h-5.91v-5.41c-.98,3.94-3.44,5.91-7.87,5.91-7.38,0-10.33-5.91-10.33-13.29V31c0-7.87,3.94-13.29,12.79-13.29,9.35,0,11.81,5.41,11.81,12.79v4.43h-7.87v-4.92c0-2.95-.98-4.92-4.43-4.92-2.95,0-4.43,1.97-4.43,4.92v27.07c0,2.95,1.48,4.92,3.94,4.92,2.95,0,3.94-1.48,3.94-4.92v-9.35h-3.94v-6.4h.49Z"/><polygon class="cls-2" points="132.37 17.72 152.55 17.72 152.55 24.6 140.74 24.6 140.74 38.88 149.11 38.88 149.11 45.77 140.74 45.77 140.74 61.02 152.55 61.02 152.55 67.91 132.37 67.91 132.37 17.72"/><polygon class="cls-2" points="156.49 17.72 178.63 17.72 178.63 24.6 171.74 24.6 171.74 67.91 163.38 67.91 163.38 24.6 156.49 24.6 156.49 17.72"/><path class="cls-2" d="M375.96,58.56c0-4.92,1.48-8.37,6.4-13.29l4.92-4.92c2.95-2.95,2.95-4.43,2.95-8.86v-3.44c0-2.95-1.48-3.94-2.95-3.94-1.97,0-3.44,.98-3.44,3.94v6.4h-7.87v-6.4c0-6.89,3.94-10.83,11.32-10.83s10.83,3.44,10.83,10.33v4.92c0,4.92-.98,7.87-5.41,12.79l-5.41,5.91c-1.97,2.46-3.44,3.94-3.44,7.87v2.46h13.78v6.89h-21.65v-9.84Z"/><path class="cls-2" d="M412.38,36.91c3.44,0,5.91,2.95,5.91,5.91,0,3.44-2.95,5.91-5.91,5.91-3.44,0-5.91-2.95-5.91-5.91-.49-2.95,2.46-5.91,5.91-5.91"/><path class="cls-2" d="M425.66,58.56c0-4.92,1.48-8.37,6.4-13.29l4.92-4.92c2.95-2.95,2.95-4.43,2.95-8.86v-3.44c0-2.95-1.48-3.94-2.95-3.94-1.97,0-3.44,.98-3.44,3.94v6.4h-7.87v-6.4c0-6.89,3.94-10.83,11.32-10.83s10.83,3.44,10.83,10.33v4.92c0,4.92-.98,7.87-5.41,12.79l-5.41,5.91c-1.97,2.46-3.44,3.94-3.44,7.87v2.46h13.78v6.89h-21.65v-9.84Z"/><g><rect class="cls-2" y="101.86" width="466.51" height="466.51"/><path class="cls-1" d="M201.27,295.75v4.92c0,.98,.98,1.97,2.46,1.97h56.59c.98,0,1.97-.98,2.46-2.46v-5.41c31.99-10.33,43.3-36.42,48.72-67.91v-.49c0-.98-.98-1.97-2.46-2.46H153.53c-.98,0-2.46,.98-2.46,1.97v.98c5.91,32.97,17.72,59.05,50.19,68.89"/><path class="cls-1" d="M262.78,147.63c-.98,.98-18.21,26.08,.49,46.26,8.37,9.35,7.87,17.72,5.41,23.13h11.81c2.95-10.33-.49-21.65-8.37-29.03-13.78-14.76,0-35.43,.49-35.43,1.48-1.97,.98-4.92-1.48-6.4l-.49-.49c-2.95-.98-5.91,0-7.87,1.97"/><path class="cls-1" d="M232.76,217.01h11.81c2.95-10.33-.49-21.65-8.37-29.03-13.78-14.76,0-35.43,.49-35.43,1.48-1.97,.49-4.92-1.48-6.4,0,0-.49,0-.49-.49-2.46-1.48-5.91-.49-7.87,1.48-.98,.98-18.21,26.08,.49,46.26,8.37,10.33,7.87,18.21,5.41,23.62"/><path class="cls-1" d="M190.93,147.63c-.98,.98-18.21,26.08,.49,46.26,8.37,9.35,7.87,17.72,5.41,23.13h11.81c2.95-10.33-.49-21.65-8.37-29.03-13.78-14.76,0-35.43,.49-35.43,1.48-1.97,.98-4.92-1.48-6.4l-.49-.49c-2.95-.98-5.91,0-7.87,1.97"/><path class="cls-1" d="M84.64,374.98c8.37,0,15.25-6.89,15.25-15.25s-6.89-15.25-15.25-15.25-15.26,6.89-15.26,15.25c0,8.86,6.89,15.25,15.26,15.25"/><path class="cls-1" d="M102.36,380.88h-35.43c-10.33,.98-18.7,9.84-18.7,20.18v42.32c0,1.97,.98,3.94,2.95,4.92,0,0,0,.49-.49,.98l-13.78,71.85c-.49,1.48,.49,2.95,1.97,2.95h.49c1.48,0,2.46-.98,2.46-1.97l13.78-71.85v-.98c2.46-.98,3.94-2.95,3.94-5.41v-36.42c0-1.48,.49-3.44,2.95-3.44s1.97,1.97,1.97,2.95v109.25c.49,4.92,4.43,8.37,9.35,7.87,4.43-.49,7.38-3.44,7.87-7.87v-62.99c0-1.48,.98-2.46,2.46-2.46s2.46,.98,2.46,2.46v62.99c.49,4.92,4.43,8.37,9.35,7.87,4.43-.49,7.38-3.44,7.87-7.87v-109.25c0-.98,.49-2.95,1.97-2.95,2.46,0,2.95,1.97,2.95,3.44v36.42c0,3.44,2.46,5.91,5.91,5.91s5.91-2.46,5.91-5.91v-42.32c0-10.83-7.87-19.68-18.21-20.67"/><path class="cls-1" d="M231.78,378.42c8.37,0,14.76-6.4,14.76-14.76s-6.4-14.76-14.76-14.76-14.76,6.4-14.76,14.76,6.89,14.76,14.76,14.76"/><path class="cls-1" d="M249.49,445.84c0,9.84-7.87,17.72-17.72,17.72s-17.72-7.87-17.72-17.72,7.87-17.72,17.72-17.72,17.72,7.87,17.72,17.72m24.6-8.37l-12.3-40.35s-4.43-11.81-14.27-11.81h-31.49c-9.84,0-14.27,11.81-14.27,11.81l-12.3,40.35s-1.97,7.38,3.94,9.35c5.91,1.97,7.87-5.41,7.87-5.41l9.84-33.46s.49-2.46,2.46-1.97c1.97,.49,.98,3.44,.98,3.44l-17.22,62.99h16.24v45.27c-.49,4.43,2.95,7.87,6.89,8.37,4.43,.49,7.87-2.95,8.37-6.89v-46.26h4.43v45.27c-.49,4.43,2.95,7.87,6.89,8.37,4.43,.49,7.87-2.95,8.37-6.89v-46.75h16.24l-17.22-62.99s-.49-2.95,.98-3.44c1.48-.49,2.46,1.97,2.46,1.97l9.84,33.46s1.97,7.38,8.37,5.41c6.4-1.97,4.92-9.84,4.92-9.84"/><path class="cls-1" d="M237.68,436.98c-2.95,0-4.92,3.44-5.91,4.92-1.48-1.48-2.46-4.92-5.91-4.92s-5.91,2.95-5.91,6.89c0,1.97,.98,3.44,1.97,4.92l9.84,9.84,9.84-9.84c1.48-1.48,1.97-2.95,1.97-4.92,0-3.94-1.97-6.89-5.91-6.89"/><path class="cls-1" d="M155.5,443.87c6.89,0,12.79-5.91,12.79-12.79s-5.91-12.79-12.79-12.79-12.79,5.91-12.79,12.79,5.41,12.79,12.79,12.79"/><path class="cls-1" d="M186.01,481.27c0-.49-3.94-9.84-4.92-12.79-7.87-20.18-8.86-19.68-16.24-20.18h-19.68c-6.89,0-8.37,0-16.24,20.18-.98,2.95-5.91,13.78-5.91,14.76s-1.97,4.92,2.46,6.4c4.43,1.48,5.41-3.44,5.41-3.44l7.87-19.68s0-.49,.49-.49,.49,.49,.49,.49v50.69c-.49,3.44,2.46,6.89,5.91,7.38,3.44,.49,6.89-2.46,7.38-5.91v-21.16s0-2.95,1.97-2.95,1.97,2.95,1.97,2.95v20.18c0,3.44,2.46,6.89,6.4,6.89h.49c3.44,0,6.4-2.95,6.4-6.4v-51.67l.49,.49,7.38,17.72s1.97,4.92,5.91,2.95c2.46-1.48,2.95-3.94,1.97-6.4"/><path class="cls-1" d="M292.31,416.31l-10.83,33.95s-1.97,6.4,3.44,7.87c5.41,1.48,6.89-4.43,6.89-4.43l8.37-28.54s.49-1.97,1.97-1.48,1.48,2.95,1.48,2.95l-14.76,53.64h13.78v38.38c0,3.94,2.95,6.89,6.89,6.89s6.89-2.95,6.89-6.89v-38.38h3.94v38.38c0,3.94,2.95,6.89,6.89,6.89s6.89-2.95,6.89-6.89v-38.38h13.78l-15.75-53.64s-.49-2.46,.98-2.95c1.48-.49,1.97,1.48,1.97,1.48l8.86,28.54s1.48,5.91,6.89,4.43c5.41-1.48,3.44-7.87,3.44-7.87l-10.33-33.46s-3.94-9.84-12.3-9.84h-27.07c-8.86,0-12.3,9.84-12.3,9.35"/><path class="cls-1" d="M306.08,375.96c0-1.97-2.46-4.43-6.4-1.97-5.41,2.46-4.43,10.33-4.43,10.33,0,0,0,.98,.49,.98,.49-.98,1.48-2.95,5.91-3.94,.98,0,1.48-.49,1.97-.49,.49-1.48,1.48-2.46,2.46-3.44v-1.48Z"/><path class="cls-1" d="M337.09,373.99c-4.43-1.97-6.4,.49-6.4,1.97v.98c.98,.98,1.48,1.97,2.46,3.44,.98,.49,1.48,.98,2.46,.98,4.43,.49,5.41,2.46,5.91,3.94,0,.49,0,0,.49-.98,.49-.98,.49-7.87-4.92-10.33"/><path class="cls-1" d="M318.39,373.99c-8.37,0-14.76,6.4-14.76,14.76s6.4,14.76,14.76,14.76,14.76-6.4,14.76-14.76c0-7.87-6.4-14.76-14.27-14.76h-.49Z"/><path class="cls-1" d="M429.6,424.68v30.02c0,2.95-2.46,4.92-4.92,4.92-2.95,0-4.92-2.46-4.92-4.92v-31c0-.98-.49-2.95-2.46-2.95s-1.97,1.48-1.97,2.46v93.5c0,3.94-3.44,7.38-7.38,7.38s-7.38-3.44-7.38-7.38v-54.13c0-.98-.49-1.97-1.97-1.97h-.49c-.98,0-1.97,.98-1.97,1.97v54.62c0,3.94-3.44,7.38-7.38,7.38s-7.38-3.44-7.38-7.38v-93.5c0-.98-.49-2.46-1.97-2.46s-2.46,1.48-2.46,2.95v31c0,2.95-2.46,4.92-4.92,4.92-2.95,0-4.92-2.46-4.92-4.92v-36.42c0-8.86,6.89-16.73,15.75-17.72h30.51c8.86,.98,15.75,8.37,15.75,17.72l.49,5.91Z"/><path class="cls-1" d="M406.96,381.87c-.98-.98-1.97-1.97-3.94-.98-1.97,.98-1.48,.98-2.95,1.48-2.46,.98-5.41,1.97-8.37,2.46-1.97,.49-4.43,.49-6.4,.49,.98,7.38,7.38,12.3,14.27,11.81,5.91-.49,10.83-5.41,11.81-11.32-1.48-1.48-2.95-2.95-4.43-3.94"/><path class="cls-1" d="M391.22,381.87c2.46-.49,4.92-1.48,7.38-2.46,1.97-.98,3.94-1.48,3.94-1.48,.98-.49,1.97-.49,2.95-.49,.49,0,.98,.49,.98,.98l.98,.98s.49,.49,3.44,2.95h1.48c.49,0,.49-2.46,.49-3.44-.49-3.44-1.97-6.4-3.94-8.86-.49-.98-1.48-1.48-2.95-1.48-1.97,.49-1.48-.98-2.95-1.48-3.94-1.48-8.37-.49-11.32,1.97-3.94,2.95-6.89,7.38-8.37,11.81-.98,.98,.49,1.48,1.97,1.48,1.97,0,3.94,0,5.91-.49"/></g></svg>