<?xml version="1.0" encoding="UTF-8"?><svg id="Capa_1" xmlns="http://www.w3.org/2000/svg" viewBox="0 0 467 568.37"><defs><style>.cls-1{fill:#eb6220;}.cls-2{fill:#fff;}</style></defs><path class="cls-1" d="M4.92,80.7H461.59V4.92H4.92V80.7Zm462.08,4.92H0V0H466.51V85.62h.49Z"/><polygon class="cls-1" points="16.73 17.72 38.88 17.72 38.88 24.6 32.48 24.6 32.48 67.91 23.62 67.91 23.62 24.6 16.73 24.6 16.73 17.72"/><path class="cls-1" d="M49.21,52.16h6.89l-3.44-20.18-3.44,20.18Zm-10.33,15.75l9.35-50.19h9.35l9.84,50.19h-8.86l-1.48-9.35h-8.86l-1.48,9.35h-7.87Z"/><path class="cls-1" d="M80.21,24.6v15.75h2.95c2.95,0,3.94-1.48,3.94-3.94v-7.38c0-2.95-1.48-3.94-3.94-3.94h-2.95v-.49Zm0,20.18v23.13h-8.37V17.72h12.3c8.37,0,11.81,4.43,11.81,11.32v6.4c0,5.41-1.97,8.37-6.89,9.84l7.87,22.64h-8.86l-7.87-23.13Z"/><path class="cls-1" d="M113.67,41.34h11.81v26.57h-5.91v-5.41c-.98,3.94-3.44,5.91-7.87,5.91-7.38,0-10.33-5.91-10.33-13.29V31c0-7.87,3.94-13.29,12.79-13.29,9.35,0,11.81,5.41,11.81,12.79v4.43h-7.87v-4.92c0-2.95-.98-4.92-4.43-4.92-2.95,0-4.43,1.97-4.43,4.92v27.07c0,2.95,1.48,4.92,3.94,4.92,2.95,0,3.94-1.48,3.94-4.92v-9.35h-3.94v-6.4h.49Z"/><polygon class="cls-1" points="132.37 17.72 152.55 17.72 152.55 24.6 140.74 24.6 140.74 38.88 149.11 38.88 149.11 45.77 140.74 45.77 140.74 61.02 152.55 61.02 152.55 67.91 132.37 67.91 132.37 17.72"/><polygon class="cls-1" points="156.49 17.72 178.63 17.72 178.63 24.6 171.74 24.6 171.74 67.91 163.38 67.91 163.38 24.6 156.49 24.6 156.49 17.72"/><path class="cls-1" d="M379.9,29.03v8.86c0,3.44,.98,4.92,3.94,4.92,2.46,0,3.94-1.97,3.94-4.43v-9.35c0-2.95-.98-4.92-3.94-4.92-2.46,0-3.94,1.97-3.94,4.92m16.73,1.48v24.11c0,7.87-3.44,13.29-12.3,13.29-9.35,0-11.81-4.92-11.81-12.3v-2.46h7.87v3.44c0,2.95,.98,4.92,3.94,4.92s4.43-1.97,4.43-4.92v-10.83c-1.48,2.46-3.44,3.94-6.89,3.94-5.91,0-9.35-3.94-9.35-12.3v-7.38c0-7.87,3.44-12.79,12.3-12.79,8.37,0,11.81,5.91,11.81,13.29"/><path class="cls-1" d="M410.41,36.91c3.44,0,5.91,2.95,5.91,5.91,0,3.44-2.95,5.91-5.91,5.91-3.44,0-5.91-2.95-5.91-5.91s2.46-5.91,5.91-5.91"/><path class="cls-1" d="M448.3,44.78v12.3c0,6.89-3.44,11.32-11.81,11.32s-11.81-4.92-11.81-12.3v-5.91h7.87v6.4c0,2.95,.98,4.92,3.94,4.92,2.46,0,3.44-1.97,3.44-4.43v-12.3c0-2.95-.98-4.43-3.44-4.43s-3.94,1.48-3.94,4.43v.98h-7.87V17.72h22.14v6.89h-14.27v12.3c1.48-2.46,3.94-3.44,6.89-3.44,4.43,.49,8.86,3.44,8.86,11.32"/><g><rect class="cls-1" y="101.86" width="466.51" height="466.51"/><path class="cls-2" d="M351.36,271.64c-8.86,0-15.75-6.89-15.75-15.75s6.89-15.75,15.75-15.75,15.75,6.89,15.75,15.75c0,8.37-7.38,15.75-15.75,15.75m-46.75,69.39l-34.45,19.68-34.45-19.68,34.45-19.68,1.48,.98v.49l32.97,18.21Zm2.46,44.29l-34.45,19.68v-39.86l34.45-19.68v39.86Zm-73.81-48.72v-36.91l31.99,18.21-31.99,18.7Zm13.29,152.55c0,8.86-6.89,15.75-15.75,15.75s-15.75-6.89-15.75-15.75,6.89-15.75,15.75-15.75c8.37,0,15.75,6.89,15.75,15.75m-50.19-125.48l31.99-18.21v36.91l-31.99-18.7Zm-2.46,41.34v-36.91l31.99,18.21-31.99,18.7Zm34.45-105.31v36.42l-31.99-18.21,31.99-18.21Zm-34.45-22.64l31.99,18.21-29.53,16.73-2.46-1.48v-33.46Zm73.81,0v36.42h-.49l-31.49-18.21,31.99-18.21Zm-79.23,127.95l-34.45-19.68v-39.86l34.45,19.68v39.86Zm-83.66-136.8c-8.86,0-15.75-6.89-15.75-15.75s6.89-15.75,15.75-15.75,15.75,6.89,15.75,15.75-6.89,15.75-15.75,15.75m8.86,53.15c0,4.92-3.94,8.86-8.86,8.86s-8.86-3.94-8.86-8.86c0-4.43,2.95-7.87,6.89-8.86h3.94c3.94,.98,6.89,4.43,6.89,8.86m320.36-66.93h0l-25.1-18.7s-.49-.49-.98-.49-.98,.49-.98,.98v15.25h-30.51c-1.97-10.33-9.84-18.7-20.18-20.67v-46.75h14.76c.49,0,.98-.49,.98-.98s0-.49-.49-.98l-19.68-25.1c-.49,0-.49-.49-.98-.49s-.49,0-.98,.49l-18.7,25.1s-.49,.49-.49,.98,.49,.98,.98,.98h14.76v46.75c-11.81,2.46-20.67,12.79-20.67,25.1,0,6.4,2.46,12.3,6.4,17.22l-59.54,37.4v-37.4c0-.98-.49-1.97-1.48-2.46l-39.37-22.64c-.98-.49-1.97-.49-2.46,0l-39.37,22.64c-.98,.49-1.48,1.48-1.48,2.46v34.94l-63.48-39.86c3.44-4.43,4.92-9.84,4.92-15.25,0-3.44-.49-6.89-1.97-9.84l77.26-49.21,8.86,11.32c.49,.49,.98,.49,1.48,0l.49-.49,7.87-31v-.49q0-.49-.49-.98c0-.49-.49-.49-.98-.49h-.49l-31.49,.49h-.98c-.49,.49-.49,.98,0,1.48l.49,.49,8.86,11.32-76.27,48.23c-3.44-3.94-8.37-6.4-13.78-7.38v-40.84h14.76c.49,0,.98-.49,.98-.98v-.98l-19.68-25.1h-.49c-.49,0-.49-.49-.98-.49s-.49,0-.98,.49l-19.19,25.1s-.49,.49-.49,.98,.49,.98,.98,.98h14.76v41.83c-11.32,2.46-20.18,12.3-20.67,24.11l-23.62-17.72s-.49-.49-.98-.49-.98,.49-.98,.98v15.26H30.02v9.84h23.62v14.27c0,.49,.49,.98,.98,.98h.49l23.62-18.7c1.48,10.83,9.84,19.68,20.18,21.65v25.59c-9.84,2.95-15.75,13.29-13.29,23.13,2.95,9.84,13.29,15.75,23.13,13.29,9.84-2.46,15.75-13.29,13.29-23.13-1.97-6.4-6.89-11.32-13.29-13.29v-25.59c2.95-.49,5.41-1.48,7.87-2.95l68.89,43.3-36.42,20.67c-.98,.49-1.48,1.48-1.48,2.46v45.77c0,.98,.49,1.97,1.48,2.46l39.37,22.64c.49,0,.98,.49,1.48,.49s.98,0,1.48-.49l33.46-19.19v71.35c-9.84,1.97-17.72,9.84-20.18,19.68h-60.04v-14.27c0-.49-.49-.98-1.48-.98h-.49l-25.1,19.19v.49c0,.49-.49,.49-.49,.98s0,.49,.49,.98l25.1,18.7s.49,.49,.98,.49,.98-.49,.98-.98v-15.25h61.02c2.46,13.78,15.25,23.62,29.53,21.16,10.83-1.97,19.19-9.84,21.16-20.67h99.4v14.76c0,.49,.49,.98,.98,.98h.98l25.1-19.19v-.49c.49,0,.49-.49,.49-.98s0-.49-.49-.98l-24.6-19.19c-.49-.49-.98-.49-1.48,0l-.49,.49v14.76h-92.02l54.13-30.02,7.87,12.79v.49c.49,.49,.98,.49,1.48,.49l.49-.49v-.49l10.83-30.02v-.98l-.49-.49h-.49l-31.49-2.46h-.98c-.49,.49-.49,.98-.49,1.48l.49,.49,7.38,11.81-59.54,32.97c-3.44-7.38-10.33-13.29-18.7-14.76v-71.85l34.45,19.19c.49,0,.98,.49,1.48,.49s.98,0,1.48-.49l39.37-22.64c.98-.49,1.48-1.48,1.48-2.46v-45.77c0-.98-.49-1.97-1.48-2.46l-33.95-19.68,62.99-39.86c3.44,1.48,6.89,2.46,10.83,2.46,12.3,0,22.64-8.37,25.1-20.18h30.02v14.76c0,.49,.49,.98,.98,.98h.98l25.1-19.68c0-.49,.49-.49,.49-.98v-1.97Z"/></g></svg>