<?xml version="1.0" encoding="UTF-8"?><svg id="Capa_1" xmlns="http://www.w3.org/2000/svg" viewBox="0 0 467 568.37"><defs><style>.cls-1{fill:#fff;}.cls-2{fill:#e9a30d;}</style></defs><path class="cls-2" d="M4.92,80.7H461.59V4.92H4.92V80.7Zm462.08,4.92H0V0H466.51V85.62h.49Z"/><polygon class="cls-2" points="16.73 17.72 38.88 17.72 38.88 24.6 32.48 24.6 32.48 67.91 23.62 67.91 23.62 24.6 16.73 24.6 16.73 17.72"/><path class="cls-2" d="M49.21,52.16h6.89l-3.44-20.18-3.44,20.18Zm-10.33,15.75l9.35-50.19h9.35l9.84,50.19h-8.86l-1.48-9.35h-8.86l-1.48,9.35h-7.87Z"/><path class="cls-2" d="M80.21,24.6v15.75h2.95c2.95,0,3.94-1.48,3.94-3.94v-7.38c0-2.95-1.48-3.94-3.94-3.94h-2.95v-.49Zm0,20.18v23.13h-8.37V17.72h12.3c8.37,0,11.81,4.43,11.81,11.32v6.4c0,5.41-1.97,8.37-6.89,9.84l7.87,22.64h-8.86l-7.87-23.13Z"/><path class="cls-2" d="M113.67,41.34h11.81v26.57h-5.91v-5.41c-.98,3.94-3.44,5.91-7.87,5.91-7.38,0-10.33-5.91-10.33-13.29V31c0-7.87,3.94-13.29,12.79-13.29,9.35,0,11.81,5.41,11.81,12.79v4.43h-7.87v-4.92c0-2.95-.98-4.92-4.43-4.92-2.95,0-4.43,1.97-4.43,4.92v27.07c0,2.95,1.48,4.92,3.94,4.92,2.95,0,3.94-1.48,3.94-4.92v-9.35h-3.94v-6.4h.49Z"/><polygon class="cls-2" points="132.37 17.72 152.55 17.72 152.55 24.6 140.74 24.6 140.74 38.88 149.11 38.88 149.11 45.77 140.74 45.77 140.74 61.02 152.55 61.02 152.55 67.91 132.37 67.91 132.37 17.72"/><polygon class="cls-2" points="156.49 17.72 178.63 17.72 178.63 24.6 171.74 24.6 171.74 67.91 163.38 67.91 163.38 24.6 156.49 24.6 156.49 17.72"/><path class="cls-2" d="M383.34,58.56c0-4.92,1.48-8.37,6.4-13.29l4.92-4.92c2.95-2.95,2.95-4.43,2.95-8.86v-3.44c0-2.95-1.48-3.94-2.95-3.94-1.97,0-3.44,.98-3.44,3.94v6.4h-7.87v-6.4c0-6.89,3.94-10.83,11.32-10.83s10.83,3.44,10.83,10.33v4.92c0,4.92-.98,7.87-5.41,12.79l-5.41,5.91c-1.97,2.46-3.44,3.94-3.44,7.87v2.46h13.78v6.89h-21.65v-9.84Z"/><path class="cls-2" d="M419.76,36.91c3.44,0,5.91,2.95,5.91,5.91,0,3.44-2.95,5.91-5.91,5.91-3.44,0-5.91-2.95-5.91-5.91-.49-2.95,2.46-5.91,5.91-5.91"/><polygon class="cls-2" points="446.82 17.72 446.82 67.91 438.46 67.91 438.46 29.53 432.55 35.43 432.55 27.07 440.43 18.21 446.82 18.21 446.82 17.72"/><g><rect class="cls-2" y="101.86" width="466.51" height="466.51"/><path class="cls-1" d="M404.01,262.78c-6.89-8.37-16.73-13.29-27.56-14.27,.98-10.33,3.44-20.18,6.4-30.02,2.46-7.38,7.38-13.29,13.29-17.72l-10.83-.49c-8.37,8.37-13.29,19.68-14.76,31.49v-61.02l-9.35-1.48v52.16c-1.97-7.87-4.92-15.75-7.87-23.13-1.97-4.43-4.92-8.86-8.37-12.79l-9.35,.49c6.4,9.35,11.32,19.68,14.27,30.51,2.95,10.33,3.94,21.16,3.44,31.99-10.33,.49-20.18,5.41-27.07,13.29-12.3,13.78-7.38,36.91-7.38,36.91,0,0,.49,2.46,1.48,6.4h38.88c.98,0,1.97,.98,1.97,1.97v3.44c0,.98-.98,1.97-1.97,1.97h-37.4c1.97,9.35,4.43,22.14,7.38,37.4h29.53c.98,0,1.97,.98,1.97,1.97v3.44c0,.98-.98,1.97-1.97,1.97h-28.05c2.46,11.81,4.92,24.6,7.38,37.4h20.67c.98,0,1.97,.98,1.97,1.97v3.44c0,.98-.98,1.97-1.97,1.97h-18.7c7.87,39.86,15.25,76.77,15.25,79.23,.98,4.92,4.43,17.72,9.35,17.22,6.4-.49,8.37-13.78,8.37-13.78l36.42-183.55s6.89-23.13-5.41-38.38"/><path class="cls-1" d="M218,250.97c-6.89,0-12.79-5.41-12.79-12.3s5.41-12.79,12.3-12.79,12.79,5.41,12.79,12.3c.49,7.38-5.41,12.79-12.3,12.79m26.57,190.44c23.13-45.76,35.43-96.45,36.42-147.63-.49-76.27-38.38-110.72-47.24-117.61-.49-.49-.98-.49-1.48-.49s-1.48,0-1.97,.49l-1.48,.98c-18.7,14.27-48.23,57.08-48.23,111.71,0,58.07,42.81,151.57,42.81,151.57-13.78,16.73-26.08,40.84-28.05,54.62v2.46c0,.98,.98,1.48,1.97,1.48,.49,0,.98,0,1.48-.49l1.48-1.97c7.87-9.35,19.19-15.25,31.49-15.75,16.24,0,27.56,10.83,35.43,17.72,2.46,1.97,2.46,2.95,4.92,2.46,2.46-.49,.98-4.43,.98-4.43-5.91-28.05-28.54-55.11-28.54-55.11"/><path class="cls-1" d="M101.86,240.14s-17.72,18.7-17.72,32.48c0,11.81,13.29,18.7,17.22,21.16,0,0,17.72-9.35,17.72-21.16,.49-14.27-17.22-32.48-17.22-32.48"/><path class="cls-1" d="M62.5,274.1s-2.95,31,10.33,40.35c0,0,4.43,5.91,25.59,8.86,0,0,2.46-20.18-5.41-28.54,0,.49-3.94-5.41-30.51-20.67"/><path class="cls-1" d="M59.54,312.48s-3.44,33.95,11.32,44.29c0,0,4.92,6.4,27.56,9.84,0,0,2.46-21.65-5.91-31,0,0-4.43-6.89-32.97-23.13"/><path class="cls-1" d="M60.53,356.28s-4.92,36.42,9.84,46.75c0,0,5.91,6.89,28.54,10.33,0,0,3.44-22.64-4.92-31.49-.49,.49-4.92-8.86-33.46-25.59"/><path class="cls-1" d="M55.61,401.06s-2.46,37.89,12.3,48.23c0,0,7.38,7.38,30.02,10.83,0,0,2.95-24.6-5.41-33.46,0-.49-7.87-10.33-36.91-25.59"/><path class="cls-1" d="M141.23,274.1s2.95,31-10.33,40.35c0,0-4.43,5.91-25.59,8.86,0,0-2.46-20.18,5.41-28.54,0,.49,3.94-5.41,30.51-20.67"/><path class="cls-1" d="M143.69,312.48s3.44,33.95-11.32,44.29c0,0-4.92,6.4-27.07,9.84,0,0-2.46-21.65,5.91-31,0,0,3.94-6.89,32.48-23.13"/><path class="cls-1" d="M143.2,356.28s4.92,36.42-9.84,46.75c0,0-5.91,6.89-28.54,10.33,0,0-3.44-22.64,4.92-31.49,.49,.49,4.92-8.86,33.46-25.59"/><path class="cls-1" d="M148.12,401.06s2.46,37.89-12.3,48.23c0,0-7.38,7.38-30.02,10.83,0,0-2.95-24.6,5.41-33.46,0-.49,7.38-10.33,36.91-25.59"/><rect class="cls-1" x="96.94" y="465.52" width="9.84" height="35.43"/><path class="cls-1" d="M69.88,206.19c0-1.97-1.48-3.44-3.44-3.44s-3.44,1.48-3.44,3.44v61.51l6.4,3.94v-65.45h.49Z"/><path class="cls-1" d="M83.66,195.85c0-1.97-.98-3.44-2.95-3.94-1.97,0-3.44,.98-3.94,2.95v74.31c1.48-5.91,3.94-11.32,6.89-16.24v-57.08Z"/><path class="cls-1" d="M97.44,178.63c0-1.97-1.48-3.44-3.44-3.44s-3.44,1.48-3.44,3.44v63.48c2.46-3.44,4.92-6.4,6.89-8.86v-54.62Z"/><path class="cls-1" d="M133.85,206.19c0-1.97,1.48-3.44,3.44-3.44s3.44,1.48,3.44,3.44v61.51l-6.4,3.94v-65.45h-.49Z"/><path class="cls-1" d="M120.07,195.85c0-1.97,.98-3.44,2.95-3.94,1.97,0,3.44,.98,3.94,2.95v74.31c-1.48-5.91-3.94-11.32-6.89-16.24v-57.08Z"/><path class="cls-1" d="M106.29,178.63c0-1.97,1.48-3.44,3.44-3.44s3.44,1.48,3.44,3.44v63.48c-2.46-3.44-4.92-6.4-6.89-8.86v-54.62Z"/></g></svg>