<?xml version="1.0" encoding="UTF-8"?><svg id="Capa_1" xmlns="http://www.w3.org/2000/svg" viewBox="0 0 467 568.37"><defs><style>.cls-1{fill:#fff;}.cls-2{fill:#24a038;}</style></defs><path class="cls-2" d="M4.92,80.7H461.59V4.92H4.92V80.7Zm462.08,4.92H0V0H466.51V85.62h.49Z"/><polygon class="cls-2" points="16.73 17.72 38.88 17.72 38.88 24.6 32.48 24.6 32.48 67.91 23.62 67.91 23.62 24.6 16.73 24.6 16.73 17.72"/><path class="cls-2" d="M49.21,52.16h6.89l-3.44-20.18-3.44,20.18Zm-10.33,15.75l9.35-50.19h9.35l9.84,50.19h-8.86l-1.48-9.35h-8.86l-1.48,9.35h-7.87Z"/><path class="cls-2" d="M80.21,24.6v15.75h2.95c2.95,0,3.94-1.48,3.94-3.94v-7.38c0-2.95-1.48-3.94-3.94-3.94h-2.95v-.49Zm0,20.67v23.13h-8.37V17.72h12.3c8.37,0,11.81,4.43,11.81,11.32v6.4c0,5.41-1.97,8.37-6.89,9.84l7.87,22.64h-8.86l-7.87-22.64Z"/><path class="cls-2" d="M113.67,41.34h11.81v26.57h-5.91v-5.41c-.98,3.94-3.44,5.91-7.87,5.91-7.38,0-10.33-5.91-10.33-13.29V31c0-7.87,3.94-13.29,12.79-13.29,9.35,0,11.81,5.41,11.81,12.79v4.43h-7.87v-4.92c0-2.95-.98-4.92-4.43-4.92-2.95,0-4.43,1.97-4.43,4.92v27.07c0,2.95,1.48,4.92,3.94,4.92,2.95,0,3.94-1.48,3.94-4.92v-9.35h-3.94v-6.4h.49Z"/><polygon class="cls-2" points="132.37 17.72 152.55 17.72 152.55 24.6 140.74 24.6 140.74 38.88 149.11 38.88 149.11 45.77 140.74 45.77 140.74 61.02 152.55 61.02 152.55 67.91 132.37 67.91 132.37 17.72"/><polygon class="cls-2" points="156.49 17.72 178.63 17.72 178.63 24.6 171.74 24.6 171.74 67.91 163.38 67.91 163.38 24.6 156.49 24.6 156.49 17.72"/><path class="cls-2" d="M395.65,29.03v3.94c0,4.43-2.46,6.89-5.91,8.37,4.43,.98,6.4,3.94,6.4,8.37v7.38c0,6.89-3.94,11.32-12.3,11.32s-11.81-4.92-11.81-12.3v-6.4h7.87v7.38c0,2.95,.98,4.92,3.94,4.92,2.46,0,3.94-1.97,3.94-4.43v-8.37c0-2.46-.98-3.94-3.94-3.94h-3.44v-6.4h2.95c2.95,0,4.43-1.48,4.43-3.94v-5.91c0-2.95-.98-4.43-3.44-4.43s-3.44,1.97-3.44,4.92v4.92h-8.37v-4.43c0-7.38,2.95-12.79,11.81-12.79,7.87,0,11.32,4.43,11.32,11.81"/><path class="cls-2" d="M409.92,36.91c3.44,0,5.91,2.95,5.91,5.91,0,3.44-2.95,5.91-5.91,5.91-3.44,0-5.91-2.95-5.91-5.91s2.95-5.91,5.91-5.91"/><path class="cls-2" d="M429.6,53.15h7.38v-20.67l-7.38,20.67Zm-7.38,1.48l14.76-36.91h8.37V53.15h3.44v6.4h-3.44v8.37h-7.87v-8.37h-14.76v-4.92h-.49Z"/><g><rect class="cls-2" x="0" y="101.86" width="466.51" height="466.51"/><path class="cls-1" d="M359.72,354.8c0,8.86,6.89,15.75,15.75,15.75s15.75-6.89,15.75-15.75-6.89-15.75-15.75-15.75c-8.37,0-15.75,6.89-15.75,15.75"/><path class="cls-1" d="M221.94,362.68c0,8.37,6.4,14.76,14.76,14.76s14.76-6.4,14.76-14.76-6.4-14.76-14.76-14.76-14.76,6.89-14.76,14.76"/><path class="cls-1" d="M86.61,354.8c0,8.86,6.89,15.75,15.75,15.75s15.75-6.89,15.75-15.75-6.89-15.75-15.75-15.75-15.75,6.89-15.75,15.75"/><path class="cls-1" d="M178.14,259.83h2.46c2.95,0,5.41-1.97,6.4-4.92l11.81-39.86,23.13,92.51c.49,2.95,2.95,5.41,5.91,5.91h.98c2.46,0,4.92-1.48,6.4-3.94l33.46-65.94,12.3,33.46c.98,2.46,3.44,4.43,6.4,4.43s5.41-1.97,6.4-4.43l42.32-106.29,11.32,27.56c1.48,3.44,5.41,4.92,8.86,3.44,3.44-1.48,4.92-5.41,3.44-8.86l-18.21-43.3c-.98-2.46-3.44-3.94-6.4-3.94s-5.41,1.48-6.4,4.43l-41.83,105.31-11.81-31.99c-.98-2.46-3.44-4.43-5.91-4.43-2.95,0-5.41,1.48-6.4,3.94l-31,61.02-24.6-95.96c-.49-2.95-2.95-5.41-5.91-5.41s-5.91,1.97-6.89,4.92l-18.21,59.05H63.48v13.78l114.66-.49Z"/><path class="cls-1" d="M335.12,234.73c0,5.91,2.46,11.81,6.4,16.24l31.49,31.49,31-31.49c4.43-4.43,6.4-10.33,6.4-16.24,0-12.3-7.87-22.64-20.18-22.64-5.91,0-13.29,6.89-17.72,10.83-3.94-3.94-10.83-10.83-16.73-10.83-11.81,.49-21.16,9.84-20.67,21.65v.98Z"/><path class="cls-1" d="M394.17,376.45h-36.42c-10.83,.98-19.19,9.84-19.19,21.16v43.8c-.49,3.44,1.97,6.4,5.41,6.89,3.44,.49,6.4-1.97,6.89-5.41v-38.88c0-1.48,.49-3.44,2.95-3.44,1.97,0,1.97,1.97,1.97,2.95v112.69c-.49,4.92,3.44,8.86,8.37,9.35,4.92,.49,8.86-3.44,9.35-8.37v-65.94c0-1.48,.98-2.46,2.46-2.46s2.46,.98,2.46,1.97v65.45c0,4.92,3.94,8.86,8.86,8.86s8.86-3.94,8.86-8.86v-112.69c0-.98,.49-2.95,1.97-2.95,2.46,0,2.95,1.97,2.95,3.44v37.4c-.49,3.44,1.97,6.4,5.41,6.89,3.44,.49,6.4-1.97,6.89-5.41v-44.78c0-11.32-8.37-20.67-19.19-21.65"/><path class="cls-1" d="M279.51,437.47l-12.3-40.35s-4.43-11.81-14.27-11.81h-31.49c-9.84,0-14.27,11.81-14.27,11.81l-12.3,40.35c0,.98-.49,1.48-.49,2.46-.49-.49-.98-.98-1.48-.98-2.46-.98-4.92-.49-6.4,1.97-2.46,4.43-4.92,8.37-7.87,12.3-.98,.98-2.46,1.97-3.94,1.97h-15.26c-1.48,0-2.95-.98-3.44-1.97-1.97-1.97-7.87-12.3-7.87-12.79-1.48-1.97-3.94-2.46-6.4-1.48-.49,.49-.98,.98-1.48,1.48v-42.81c0-10.83-8.37-20.18-19.19-21.16h-36.42c-10.83,.98-19.19,9.84-19.19,21.16v43.8c0,1.97,.98,3.94,2.95,4.92l-14.27,75.29c-.49,1.48,.49,2.95,1.97,3.44h.49c1.48,0,2.46-.98,2.95-2.46l14.27-75.78c1.97-.98,3.44-2.95,3.44-5.41v-37.89c0-1.48,.49-3.44,2.95-3.44,1.97,0,1.97,1.97,2.46,2.95v112.69c0,4.92,3.94,8.86,8.86,8.86s8.86-3.94,8.86-8.86v-64.46c-.49-1.48,.49-2.46,1.97-2.95s2.46,.49,2.95,1.97v65.94c0,4.92,3.94,8.86,8.86,8.86s8.86-3.94,8.86-8.86v-112.69c0-.98,.49-2.95,2.46-2.95,2.46,0,2.95,1.97,2.95,3.44v37.4c0,3.44,2.46,5.91,5.91,6.4,2.46,0,4.43-1.48,5.91-3.44v.49l12.79,22.64c.49,.98,.49,1.97,.98,2.95v3.44c0,1.48,0,2.46-.49,3.94l-5.91,23.62h6.89v17.72c-.49,3.44,1.97,6.4,5.41,6.89,3.44,.49,6.4-1.97,6.89-5.41v-18.7h3.94v17.72c0,3.44,2.95,5.91,5.91,5.91s5.91-2.95,5.91-5.91v-17.72h6.4l-5.91-23.62c-.49-.98-.49-1.97-.49-2.95v-4.43c0-.98,.49-1.97,.98-2.95l11.81-21.16,.98-1.97v-.49c.49,1.48,1.97,2.46,3.94,2.95,6.4,1.97,8.37-5.41,8.37-5.41l9.84-33.95s.49-2.46,2.46-1.97c1.97,.49,.98,3.44,.98,3.44l-17.22,63.48h16.24v45.27c.49,4.43,3.94,7.38,8.37,7.38,3.94-.49,6.89-3.44,7.38-7.38v-45.27h4.43v45.27c.49,4.43,3.94,7.38,8.37,7.38,3.94-.49,6.89-3.44,7.38-7.38v-45.27h16.24l-17.22-63.48s-.98-2.95,.98-3.44c1.97-.49,2.46,1.97,2.46,1.97l9.84,33.95s1.97,7.38,8.37,5.41c6.4-1.97,1.97-9.84,1.97-9.84"/><path class="cls-1" d="M295.75,434.52c0,6.89,5.91,12.3,12.79,12.3s12.3-5.91,12.3-12.79-5.41-12.3-12.3-12.3-12.79,5.41-12.79,12.79c0-.49,0,0,0,0"/><path class="cls-1" d="M333.64,470.94c-7.38-19.68-8.86-19.19-15.75-19.68h-19.19c-6.89,0-8.37,0-15.75,19.68-.98,2.95-5.41,13.78-5.91,14.27-.49,.49-1.97,4.43,2.46,5.91,4.43,1.48,5.41-2.95,5.41-2.95l7.87-19.19s0-.49,.49-.49,.49,.49,.49,.49v49.7c0,3.44,2.46,6.4,6.4,6.89h.49c3.44,0,6.4-2.95,6.4-6.4v-20.18s0-2.95,1.97-2.95,1.97,2.95,1.97,2.95v19.68c0,3.44,2.46,6.4,6.4,6.89,3.44,0,6.4-2.46,6.4-5.91v-50.69l.49,.49,6.89,17.22s1.97,4.43,5.91,2.95c3.94-1.48,1.97-5.91,1.97-5.91,0,0-4.43-9.84-5.41-12.79"/><path class="cls-1" d="M167.31,421.73c-6.89,0-12.3,5.41-12.3,12.3s5.41,12.3,12.3,12.3,12.3-5.41,12.3-12.3-5.41-12.3-12.3-12.3"/></g></svg>