<?xml version="1.0" encoding="UTF-8"?><svg id="Capa_1" xmlns="http://www.w3.org/2000/svg" viewBox="0 0 467 568.37"><defs><style>.cls-1{fill:#fff;}.cls-2{fill:#d5102b;}</style></defs><path class="cls-2" d="M4.92,80.7H461.59V4.92H4.92V80.7Zm462.08,4.92H0V0H466.51V85.62h.49Z"/><polygon class="cls-2" points="16.73 17.72 38.88 17.72 38.88 24.6 32.48 24.6 32.48 67.91 23.62 67.91 23.62 24.6 16.73 24.6 16.73 17.72"/><path class="cls-2" d="M49.21,52.16h6.89l-3.44-20.18-3.44,20.18Zm-10.33,15.75l9.35-50.19h9.35l9.84,50.19h-8.86l-1.48-9.35h-8.86l-1.48,9.35h-7.87Z"/><path class="cls-2" d="M80.21,24.6v15.75h2.95c2.95,0,3.94-1.48,3.94-3.94v-7.38c0-2.95-1.48-3.94-3.94-3.94h-2.95v-.49Zm0,20.18v23.13h-8.37V17.72h12.3c8.37,0,11.81,4.43,11.81,11.32v6.4c0,5.41-1.97,8.37-6.89,9.84l7.87,22.64h-8.86l-7.87-23.13Z"/><path class="cls-2" d="M113.67,41.34h11.81v26.57h-5.91v-5.41c-.98,3.94-3.44,5.91-7.87,5.91-7.38,0-10.33-5.91-10.33-13.29V31c0-7.87,3.94-13.29,12.79-13.29,9.35,0,11.81,5.41,11.81,12.79v4.43h-7.87v-4.92c0-2.95-.98-4.92-4.43-4.92-2.95,0-4.43,1.97-4.43,4.92v27.07c0,2.95,1.48,4.92,3.94,4.92,2.95,0,3.94-1.48,3.94-4.92v-9.35h-3.94v-6.4h.49Z"/><polygon class="cls-2" points="132.37 17.72 152.55 17.72 152.55 24.6 140.74 24.6 140.74 38.88 149.11 38.88 149.11 45.77 140.74 45.77 140.74 61.02 152.55 61.02 152.55 67.91 132.37 67.91 132.37 17.72"/><polygon class="cls-2" points="156.49 17.72 178.63 17.72 178.63 24.6 171.74 24.6 171.74 67.91 163.38 67.91 163.38 24.6 156.49 24.6 156.49 17.72"/><path class="cls-2" d="M431.08,52.16h6.89l-3.44-20.18-3.44,20.18Zm-10.33,15.75l9.35-50.19h9.35l9.35,50.19h-8.86l-1.48-9.35h-8.86l-1.48,9.35h-7.38Z"/><path class="cls-2" d="M374.49,53.15h7.87v-20.67l-7.87,20.67Zm-7.38,1.48l14.76-36.91h8.37V53.15h3.44v6.4h-3.44v8.37h-7.87v-8.37h-14.76v-4.92h-.49Z"/><polygon class="cls-2" points="404.01 32.48 404.01 53.15 414.84 42.81 404.01 32.48"/><g><rect class="cls-2" x="0" y="101.86" width="466.51" height="466.51"/><path class="cls-1" d="M237.19,171.74l42.32,37.89h130.9l-31.99-37.89h-94.48c-2.95,0-5.41-.98-7.87-2.46l-38.88-28.54-81.69,68.89h39.37l42.32-37.89Z"/><path class="cls-1" d="M124.01,321.83l30.02-13.78v27.56l-30.02-13.78Zm-31.99,14.76l26.57-12.3,26.57,12.3h-53.15Zm-9.84-29.03l30.51,13.78-30.51,14.27v-28.05Zm0-34.45l30.02,13.78-30.02,14.27v-28.05Zm0-33.95l29.53,13.29-29.53,13.29v-26.57Zm61.51-.98l-26.57,12.3-26.57-12.3h53.15Zm10.83,29.03l-31-14.27,31-14.27v28.54Zm-62.99,.49l26.08-11.81,26.08,11.81h-52.16Zm49.21,4.92h4.43l-26.57,12.3-26.08-11.81,48.23-.49Zm3.94,34.45l-26.57,12.3-26.08-12.3h52.65Zm-53.15-4.92l26.57-12.3,26.57,12.3h-53.15Zm62.99-.98l-30.02-13.78,30.02-13.78v27.56Zm-77.26-50.69h-15.75v-12.3h15.75v12.3Zm0,17.22h-15.75v-12.3h15.75v12.3Zm0,17.22h-15.75v-12.3h15.75v12.3Zm0,17.22h-15.75v-12.3h15.75v12.3Zm0,17.22h-15.75v-12.3h15.75v12.3Zm0,17.22h-15.75v-12.3h15.75v12.3Zm82.18,16.24V216.03h-4.92v16.73H82.18v-16.73h-4.92v16.73h-15.75v-16.73h-4.92v136.8h4.92v-11.32h15.75v12.3h4.92v-11.81h72.34v10.83h4.92Z"/><rect class="cls-1" x="239.16" y="357.26" width="49.21" height="5.91"/><path class="cls-1" d="M368.09,244.57h-15.75v-11.81h15.75v11.81Zm0,29.03h-15.75v-26.57h15.75v26.57Zm0,23.62h-15.75v-11.32h-2.46v11.32h-15.75v-11.32h33.95v11.32Zm0,29.53h-15.75v-27.07h15.75v27.07Zm-18.21,0h-15.75v-27.07h15.75v27.07Zm-27.07-82.18h-15.75v-11.81h-2.46v11.81h-15.75v-11.81h33.95v11.81Zm0,28.54h-15.75v-26.57h15.75v26.57Zm0,24.11h-15.75v-11.81h15.75v11.81Zm0,29.03h-15.75v-26.57h15.75v26.57Zm-18.7-53.15h-15.75v-26.57h15.75v26.57Zm0,24.11h-15.75v-11.81h15.75v11.81Zm0,29.03h-15.75v-26.57h15.75v26.57Zm-89.56-33.95v-3.94s6.4-6.4,22.14-6.4,22.64,6.4,22.64,6.4v3.94h-44.78Zm22.14-79.72c9.84,0,17.72,7.87,17.72,17.72s-7.87,17.72-17.72,17.72-17.72-7.87-17.72-17.72,7.87-17.72,17.72-17.72m97.44,34.45h15.75v26.57h-15.75v-26.57Zm0-14.27h15.75v11.81h-15.75v-11.81Zm-60.04-16.24l-37.4-34.45-39.86,34.45h-31v136.8h6.89l41.83-9.35v-49.21h20.67v45.77h2.46v-45.77h21.65v51.67h-20.18v6.89h155.99V216.52h-121.06Z"/><polygon class="cls-1" points="199.79 353.33 156.49 363.17 233.75 363.17 233.75 345.94 214.55 350.37 199.79 353.33"/><path class="cls-1" d="M229.81,238.67q.49,0,.98-.49l6.89-6.89v-13.78c0-.49-.49-1.48-1.48-1.48s-1.48,.49-1.48,1.48v12.3l-5.91,6.4c-.49,.49-.49,1.48,0,1.97,.49,0,.98,0,.98,.49"/><path class="cls-1" d="M405.49,463.56s-1.97-6.89-7.87-6.89h-21.16c-1.48,0-2.95-.49-3.94-1.97-1.97-1.97-7.87-12.79-8.37-13.29l-2.95-4.92c-.98-1.48-2.46-2.46-3.94-2.46-2.95,0-4.92,1.97-4.92,4.92,0,.49,0,1.48,.49,1.97l16.24,29.03c.49,.98,.49,1.97,.98,2.95v3.44c0,.98,0,1.97-.49,2.95l-5.91,23.62h6.89v20.67c0,3.44,2.95,6.4,6.4,6.4,.49,0,.98,0,1.97-.49,2.46-.98,4.43-3.44,4.43-6.4v-20.67h3.94v20.67c0,2.95,1.48,5.41,4.43,6.4,3.44,.98,6.89-.49,8.37-3.94,0-.49,.49-1.48,.49-1.97v-20.67h6.89l-9.35-32.48s-.49-1.48,.98-1.97c1.48-.49,1.48,.98,1.48,.98l7.87,24.11c.49,2.46,2.95,3.94,5.41,3.44,3.94-.98,2.46-5.41,2.46-5.41l-10.83-28.05Z"/><path class="cls-1" d="M385.8,450.76c7.38,0,12.79-5.91,12.79-12.79s-5.91-12.79-12.79-12.79-12.79,5.91-12.79,12.79,5.91,12.79,12.79,12.79"/><path class="cls-1" d="M83.66,449.78c6.89,0,12.79-5.91,12.79-12.79s-5.91-12.79-12.79-12.79-12.79,5.91-12.79,12.79c0,7.38,5.91,12.79,12.79,12.79"/><path class="cls-1" d="M114.17,487.18c0-.49-3.94-9.84-4.92-12.3-7.87-19.68-8.86-19.68-15.75-19.68h-19.68c-6.89,0-8.37,0-15.75,19.68-.98,2.95-5.91,13.78-5.91,14.27s-1.97,4.92,2.46,6.4c4.43,1.48,5.41-3.44,5.41-3.44l7.87-19.19s0-.49,.49-.49,.49,.49,.49,.49v50.19c0,3.44,2.46,6.89,6.4,6.89h.49c3.44,0,6.4-2.95,6.4-6.4v-20.67s0-2.95,1.97-2.95,1.97,2.95,1.97,2.95v20.18c0,3.44,2.46,6.89,6.4,6.89h.49c3.44,0,6.4-2.95,6.4-6.4v-51.18l.49,.49,7.38,17.22s1.97,4.43,5.91,2.95c3.94-1.48,.98-5.91,.98-5.91"/><path class="cls-1" d="M321.34,423.7h-27.07c-7.38,.98-13.29,7.38-13.29,14.76v31.49c.49,2.46,2.46,4.43,4.92,3.94,1.97,0,3.94-1.97,3.94-3.94v-26.57c0-.98,.49-2.46,1.97-2.46s1.48,1.48,1.48,1.97v80.7c0,3.44,2.95,6.4,6.4,6.4s6.4-2.95,6.4-6.4v-46.75c0-.98,.49-1.97,1.48-1.97s1.97,.49,1.97,1.48v46.75c.49,3.44,3.44,5.91,6.89,5.91,2.95-.49,5.41-2.46,5.91-5.91v-80.21c0-.98,.49-1.97,1.48-1.97s1.97,1.48,1.97,2.46v27.07c0,2.46,1.97,4.43,4.43,4.43s4.43-1.97,4.43-4.43v-31.49c.49-7.87-5.41-14.27-13.29-15.26"/><path class="cls-1" d="M316.42,405c-.98-.98-1.97-1.97-3.94-.98-1.97,.98-1.48,.98-2.95,1.48-4.43,1.97-9.35,2.95-14.27,2.95,.49,6.89,6.89,12.3,13.78,11.81,5.91-.49,10.83-5.41,11.32-11.32-.98-1.48-2.46-2.95-3.94-3.94"/><path class="cls-1" d="M300.67,405c2.46-.49,5.41-.98,7.87-2.46,1.48-.49,2.46-.98,3.94-1.48,.98-.49,1.97-.49,2.46-.49s.98,.49,.98,.98l.98,.98s.49,.49,3.44,2.95q.49,.49,.98,.49c.49,0,.49-1.97,0-3.44-.49-3.44-1.97-6.4-3.94-8.86-.49,0-1.48-.98-2.46-.98s-2.95-.98-3.94-1.48c-3.44-.98-6.89-.49-9.84,1.48-3.94,2.95-6.89,6.89-8.86,11.81-.49,.98,1.48,1.48,2.46,1.48,2.46-.49,3.94-.49,5.91-.98"/><path class="cls-1" d="M258.35,483.73c-1.48-2.46-3.94-3.44-6.4-2.95h-12.79v-19.68c0-4.43-3.94-8.37-8.37-8.37h-3.44c-.49,0-1.48,0-1.97,.49l-1.48,.49-16.73,5.41h-.98c-.98,.49-1.48,1.48-1.97,2.46l-4.92,14.27c-.98,2.46,.49,4.92,2.95,5.91,2.46,.98,4.92-.49,5.91-2.95l4.43-12.3,6.89-1.97v23.62c0,1.48,.49,2.46,.98,3.44,.98,2.95,3.94,4.92,6.89,4.92h23.62l10.33,18.21c1.97,2.95,5.41,3.94,8.37,2.46h.49c2.95-1.48,3.94-5.41,2.46-8.37l-14.27-25.1Z"/><path class="cls-1" d="M248.51,505.38h-6.89c-2.95,11.32-14.27,18.21-25.59,15.26-11.32-2.95-18.21-14.27-15.25-25.59,.49-1.48,.98-2.95,1.48-3.94l-.49-.49-.49-.49-4.92-2.95-.49-.49-.49-.49c-2.46,4.43-3.44,8.86-3.44,13.78,.98,16.24,14.76,28.54,31,28.05,13.29-.49,24.11-9.84,27.07-23.13l-1.48,.49Z"/><path class="cls-1" d="M230.3,448.3c6.89,0,12.3-5.41,12.3-12.3s-5.41-12.3-12.3-12.3-12.3,5.41-12.3,11.81c0,7.38,5.41,12.79,12.3,12.79"/><path class="cls-1" d="M167.31,428.12h-25.59c-7.38,.98-13.29,7.38-13.29,14.76v30.51c-.49,2.46,1.48,4.43,3.94,4.43,2.46,.49,4.43-1.48,4.43-3.94v-27.07c0-.98,.49-2.46,1.97-2.46s1.48,1.48,1.48,1.97v77.75c.49,3.44,3.44,5.91,6.4,5.41,2.95-.49,5.41-2.46,5.41-5.41v-44.78c0-.98,.49-1.97,1.48-1.97s1.48,.49,1.48,1.48v45.27c0,3.44,2.95,5.91,5.91,5.91,3.44,0,5.91-2.95,5.91-5.91v-77.75c0-.98,.49-1.97,1.48-1.97s1.97,1.48,1.97,2.46v26.08c0,2.46,1.97,4.43,4.43,4.43s4.43-1.97,4.43-4.43v-30.51c.98-7.38-4.43-13.78-11.81-14.27"/><path class="cls-1" d="M143.2,399.09c0-1.48-1.97-3.94-5.91-1.97-4.92,1.97-3.94,9.35-3.94,9.35v.98s1.48-2.95,5.41-3.44c.49,0,1.48-.49,1.97-.49,.49-.98,1.48-2.46,2.46-3.44v-.98Z"/><path class="cls-1" d="M171.25,397.12c-3.94-1.97-5.41,0-5.91,1.97v.98c.98,.98,1.48,1.97,1.97,2.95,.49,.49,1.48,.49,1.97,.98,3.94,.49,4.92,2.46,5.41,3.44,.49,.98,0,0,0-.98s.98-6.89-3.44-9.35"/><path class="cls-1" d="M154.03,397.61c-7.38,0-12.79,5.91-12.79,12.79s5.91,12.79,12.79,12.79c7.38,0,12.79-5.91,12.79-12.79,.49-6.89-5.41-12.79-12.79-12.79"/></g></svg>