<?xml version="1.0" encoding="UTF-8"?><svg id="Capa_1" xmlns="http://www.w3.org/2000/svg" viewBox="0 0 467 568.37"><defs><style>.cls-1{fill:#0096d6;}.cls-2{fill:#fff;}</style></defs><path class="cls-1" d="M4.92,80.7H461.59V4.92H4.92V80.7Zm462.08,4.92H0V0H466.51V85.62h.49Z"/><polygon class="cls-1" points="16.73 17.72 38.88 17.72 38.88 24.6 32.48 24.6 32.48 67.91 23.62 67.91 23.62 24.6 16.73 24.6 16.73 17.72"/><path class="cls-1" d="M49.21,52.16h6.89l-3.44-20.18-3.44,20.18Zm-10.33,15.75l9.35-50.19h9.35l9.84,50.19h-8.86l-1.48-9.35h-8.86l-1.48,9.35h-7.87Z"/><path class="cls-1" d="M80.21,24.6v15.75h2.95c2.95,0,3.94-1.48,3.94-3.94v-7.38c0-2.95-1.48-3.94-3.94-3.94h-2.95v-.49Zm0,20.18v23.13h-8.37V17.72h12.3c8.37,0,11.81,4.43,11.81,11.32v6.4c0,5.41-1.97,8.37-6.89,9.84l7.87,22.64h-8.86l-7.87-23.13Z"/><path class="cls-1" d="M113.67,41.34h11.81v26.57h-5.91v-5.41c-.98,3.94-3.44,5.91-7.87,5.91-7.38,0-10.33-5.91-10.33-13.29V31c0-7.87,3.94-13.29,12.79-13.29,9.35,0,11.81,5.41,11.81,12.79v4.43h-7.87v-4.92c0-2.95-.98-4.92-4.43-4.92-2.95,0-4.43,1.97-4.43,4.92v27.07c0,2.95,1.48,4.92,3.94,4.92,2.95,0,3.94-1.48,3.94-4.92v-9.35h-3.94v-6.4h.49Z"/><polygon class="cls-1" points="132.37 17.72 152.55 17.72 152.55 24.6 140.74 24.6 140.74 38.88 149.11 38.88 149.11 45.77 140.74 45.77 140.74 61.02 152.55 61.02 152.55 67.91 132.37 67.91 132.37 17.72"/><polygon class="cls-1" points="156.49 17.72 178.63 17.72 178.63 24.6 171.74 24.6 171.74 67.91 163.38 67.91 163.38 24.6 156.49 24.6 156.49 17.72"/><polygon class="cls-1" points="367.1 17.72 367.1 67.91 358.74 67.91 358.74 29.53 352.83 35.92 352.83 27.07 360.71 18.21 367.1 18.21 367.1 17.72"/><path class="cls-1" d="M379.9,53.15h7.38v-20.67l-7.38,20.67Zm-7.38,1.48l14.76-36.91h8.37V53.15h3.44v6.4h-3.44v8.37h-8.37v-8.37h-14.76v-4.92Z"/><path class="cls-1" d="M412.38,36.91c3.44,0,5.91,2.95,5.91,5.91,0,3.44-2.95,5.91-5.91,5.91-3.44,0-5.91-2.95-5.91-5.91-.49-2.95,2.46-5.91,5.91-5.91"/><path class="cls-1" d="M425.66,58.56c0-4.92,1.48-8.37,6.4-13.29l4.92-4.92c2.95-2.95,2.95-4.43,2.95-8.86v-3.44c0-2.95-1.48-3.94-2.95-3.94-1.97,0-3.44,.98-3.44,3.94v6.4h-7.87v-6.4c0-6.89,3.94-10.83,11.32-10.83s10.83,3.44,10.83,10.33v4.92c0,4.92-.98,7.87-5.41,12.79l-5.41,5.91c-1.97,2.46-3.44,3.94-3.44,7.87v2.46h13.78v6.89h-21.65v-9.84Z"/><g><rect class="cls-1" x="0" y="101.86" width="466.51" height="466.51"/><path class="cls-2" d="M239.65,200.78c-3.44,0-5.91-2.95-5.91-5.91,0-3.44,2.95-5.91,5.91-5.91,3.44,0,5.91,2.95,5.91,5.91,0,3.44-2.46,5.91-5.91,5.91m48.23,0s-62.5-24.6-71.35-27.56c-8.86-2.95-36.91-33.95-44.78-36.91l10.33,31.49s-.98,2.95-2.46,3.94c-1.48,.98-98.42,23.13-98.42,23.13,0,0-43.3-29.53-45.76-31,0,0-2.46,0-.98,1.97,1.48,1.97,18.7,30.02,19.19,34.45,.49,4.43-4.92,22.64-7.38,27.07,0,0-.98,.98,1.48,.49s32.48-19.19,32.48-19.19c0,0,20.67,6.89,31.49,8.86-1.97,3.94-3.94,7.87-6.89,11.81,7.87-1.97,15.25-4.92,21.65-9.35,0,0,51.67,7.38,67.91,8.86,0,0-5.91,18.7-7.87,23.62,11.32-5.41,21.65-12.79,30.51-21.65,0,0,59.54-12.79,71.85-24.6,.98-1.48,.98-3.44-.49-4.92,0,0,0-.49-.49-.49"/><path class="cls-2" d="M382.36,266.72c-2.95,0-4.92-1.97-4.92-4.92s1.97-4.92,4.92-4.92,4.92,1.97,4.92,4.92-1.97,4.92-4.92,4.92m21.65-1.97h0c-2.95-3.44-18.21-17.22-51.67-19.68-22.14-1.48-44.29,2.46-64.46,10.83-7.87-3.44-16.24-6.4-24.6-7.87,0,0-1.48-.49-1.97,.49-.49,.98,0,.98,.98,1.97,4.43,3.44,6.89,8.37,7.87,13.78-.49,4.92-2.95,9.35-6.89,12.3l-.98,.49v.49c0,.49,.49,.98,.98,.98h.98c8.37-.49,16.73-3.44,24.11-7.87,0,0,40.84,13.29,66.43,13.29,24.11,0,42.81-9.84,49.21-16.73l.49-.49,.49-.49c0-1.48-.49-1.48-.98-1.48"/><path class="cls-2" d="M338.56,395.15c-2.46,0-4.43-1.97-4.43-4.43s1.97-4.43,4.43-4.43,4.43,1.97,4.43,4.43c0,1.97-1.48,3.94-4.43,4.43m54.13,13.78c-2.95-4.92-4.43-10.33-4.92-15.75,.49-5.41,1.97-11.32,4.92-15.75v-.49s0-.49-.49-.49c-7.38,.98-13.29,5.91-16.73,12.3,0,0-14.76-12.3-28.05-12.3-15.75,0-26.57,14.27-28.54,16.73,1.48,2.46,12.79,16.73,28.54,16.73,13.78,0,28.05-12.3,28.05-12.3,2.95,6.89,9.35,11.32,16.73,12.79,0-.49,.49-.49,.49-1.48"/><path class="cls-2" d="M279.51,362.68c-2.46,0-4.43-1.97-4.43-3.94,0-2.46,1.97-4.43,3.94-4.43s4.43,1.97,4.43,3.94c0,2.46-1.48,4.43-3.94,4.43m18.21-1.97h0c-1.48-1.97-11.81-14.76-25.59-14.76-12.3,0-25.59,11.32-25.59,11.32-2.95-5.91-8.37-9.84-15.25-10.83,0,0-.49,0-.49,.49v.49c2.95,4.43,4.43,9.35,4.43,14.27-.49,4.92-1.97,10.33-4.43,14.27,0,0,0,.49,.49,.49,6.4-.98,12.3-5.41,15.25-11.32,0,0,13.29,11.32,25.59,11.32,14.27,0,24.11-12.79,25.59-15.26v-.49Z"/><path class="cls-2" d="M330.2,349.39c0-2.46-1.97-4.43-4.43-4.43s-4.43,1.97-4.43,4.43,1.97,4.43,4.43,4.43,4.43-1.97,4.43-4.43"/><path class="cls-2" d="M313.47,314.94c-2.95,0-5.41,2.46-5.41,5.41s2.46,5.41,5.41,5.41,5.41-2.46,5.41-5.41-2.46-5.41-5.41-5.41"/><path class="cls-2" d="M306.58,449.28l9.84-6.4c.49-.49,2.46-.98,1.97-2.46-.49-1.48-2.46-.98-2.46-.98h-13.29c-2.46,0-2.46-2.46-2.46-2.46-.49-3.94-1.97-7.87-3.94-11.32-.98-1.48-1.48-1.97-2.46-1.48q-.98,.49-.98,1.97c-.49,3.44-.98,6.4-1.97,9.84-.98,2.95-2.46,2.95-4.92,2.95h-11.81c-.98,0-1.48,.49-1.97,1.48,0,.49,.49,1.48,.98,1.48,1.48,.98,9.35,5.41,11.32,6.89,1.48,.98,1.97,2.46,1.48,3.94,0,.49-4.43,10.33-4.92,11.81-.49,1.48,.49,2.46,.49,2.46,1.48,.98,2.95-.98,2.95-.98,3.44-2.46,6.89-4.92,9.84-7.38,.98-.98,2.46-.98,2.95,0,3.44,2.95,6.89,5.91,10.33,8.37,.49,.49,1.97,.49,2.46,0,.98-.49,.49-2.46,.49-2.46,0,0-3.44-9.84-3.94-11.81-.49-1.97,0-3.44,0-3.44"/><path class="cls-2" d="M216.03,307.56c.49,1.97,1.97,2.95,3.94,2.95,1.97-.49,2.95-1.97,2.95-3.94-.49-1.97-1.97-2.95-3.94-2.95-1.97,.49-3.44,1.97-2.95,3.94"/><path class="cls-2" d="M223.9,283.94c0,1.97,1.97,2.95,3.44,2.95,1.97-.49,2.95-1.97,2.95-3.94-.49-1.97-1.97-2.95-3.94-2.95-1.48,.49-2.95,1.97-2.46,3.94"/><path class="cls-2" d="M245.56,309.53c-.49-1.97-1.97-2.95-3.94-2.95-1.97,.49-2.95,1.97-2.95,3.94,.49,1.97,1.97,2.95,3.94,2.95,1.97-.49,3.44-1.97,2.95-3.94"/><path class="cls-2" d="M201.27,318.39c-1.97,.49-3.44,1.97-2.95,3.94,.49,1.97,1.97,3.44,3.94,2.95,1.97-.49,3.44-1.97,2.95-3.94-.49-1.97-1.97-3.44-3.94-2.95"/><path class="cls-2" d="M207.17,289.85c-.49-1.97-1.97-2.95-3.94-2.95-1.97,.49-2.95,1.97-2.95,3.94,.49,1.97,1.97,2.95,3.94,2.95,1.97-.49,3.44-1.97,2.95-3.94"/><path class="cls-2" d="M323.31,165.84l8.37-.98c.49,.98,1.48,1.48,2.46,1.97l.98,8.86c0,.49,.49,.98,.98,.98s.98-.49,.98-1.48l-.98-8.37c.98,0,2.46-.98,2.95-1.48l6.89,4.43h.49c.49,0,.98,0,.98-.49,.49-.49,0-1.48-.49-1.48l-7.38-4.43c0-.49,.49-.98,.49-1.48,0-1.48-.49-2.46-1.48-3.44l3.94-4.92c.49-.49,.49-1.48,0-1.48-.49-.49-1.48-.49-1.97,0l-3.94,4.92c-.49-.49-1.48-.49-1.97-.49-.98,0-2.46,.49-2.95,.98l-4.92-6.4c-.49-.49-1.48-.49-1.97,0s-.49,1.48,0,1.48l6.4,6.89c-.49,.98-.49,1.48-.49,2.46v.49l-7.38,.98c-.49,0-.98,.49-.98,.98s.49,1.48,.98,1.48"/><path class="cls-2" d="M352.83,201.76c-.49,.98-.98,1.97-.98,3.44l-8.86,1.48c-.49,0-.98,.98-.98,1.48s.49,.98,.98,.98l9.35-1.48c.49,.98,.98,1.48,1.48,1.97h.49l-3.44,6.89c-.49,.49,0,1.48,.49,1.48h.49c.49,0,.98-.49,.98-.49l4.92-7.38c.98,0,2.46-.49,2.95-.98l7.87,3.94c.49,.49,1.48,0,1.48-.49,.49-.49,0-1.48-.49-1.48l-7.87-3.94c.49-.98,.49-2.46,0-3.44l7.38-3.94c.49-.49,.98-.98,.49-1.48-.49-.49-.98-.98-1.48-.49l-7.38,3.94-.98-.98c-.98-.49-2.46-.98-3.44-.49l-1.97-5.91c0-.49-.98-.98-1.48-.98s-.98,.98-.98,1.48l1.97,5.91-.98,.98"/><path class="cls-2" d="M378.42,178.63l7.87-1.97c.98,.98,1.97,1.48,2.95,1.48l1.97,8.86c0,.49,.49,.98,.98,.98h.49c.49,0,.98-.98,.98-1.48l-1.97-8.37c.98-.49,1.97-.98,2.95-1.97l7.87,2.95h.49c.49,0,.98-.49,.98-1.48,0-.49-.49-.98-.98-.98l-7.87-2.95v-1.48c0-1.48-.98-2.46-1.97-3.44l3.44-5.41c.49-.49,0-1.48-.49-1.48-.49-.49-1.48,0-1.48,.49l-3.44,5.41h-1.97c-.98,0-1.97,.49-2.95,1.48l-6.89-5.91c-.49-.49-1.48-.49-1.48,0-.49,.49-.49,1.48,0,1.97l7.38,5.91v2.95l-7.87,1.97c-.49,0-.98,.98-.98,1.48,.49,.49,.98,.98,1.97,.98"/><path class="cls-2" d="M163.87,290.34c2.95-3.44,3.94-8.37,2.95-12.79,0-.98-.98-1.48-1.48-1.48-4.43,0-8.86,1.48-12.3,4.92-1.97,2.46-3.94,4.92-4.92,7.87-5.41-1.97-11.32-1.97-17.22,0v-.98c-.98-3.44-8.37-3.94-16.73-.98-8.37,2.95-14.27,6.89-12.79,10.33,1.48,3.44,5.91,3.44,11.81,2.46h.49c-1.97,1.97-3.44,3.94-4.92,5.91-2.95,3.94-4.92,8.37-5.91,12.79-.98-.49-1.97-.49-2.95-.49-4.43,0-8.37,0-8.37,7.38s3.94,7.38,8.37,7.38c.49,0,1.48,0,1.97-.49,.49,5.41,1.48,10.33,3.44,15.26,5.91,1.48,12.3,1.48,18.21,.98v1.97c.49,4.43,.98,8.37,8.37,7.38,7.38-.98,6.4-4.92,5.91-9.35,0-1.48-.49-2.46-1.48-3.44,3.44-1.48,6.4-3.94,9.35-6.4,2.95-2.95,5.91-6.4,7.87-9.84v2.46c0,6.4,1.48,10.83,3.94,11.32,2.46,.49,7.38-5.91,8.86-14.27,1.48-8.37-.49-15.75-3.94-16.24-.98,0-1.97,0-2.46,.98,.98-5.41,0-11.32-2.95-16.24,2.46-1.97,4.92-3.94,6.89-6.4"/><path class="cls-2" d="M398.11,467.98c-1.48-.49-3.44-.49-5.41-.49h-2.46c-21.65-.49-43.8,2.95-64.46,10.33-39.37,13.78-79.72,23.62-121.06,29.53-.49-4.92-3.94-17.72,1.48-22.14,2.95-3.94,7.87-4.92,12.3-3.44,2.95,.49,4.92,8.86,6.4,11.81,1.48,2.95,3.94,1.48,3.94-.49-.49-2.46-.98-4.92-1.97-7.38-.49-1.97,0-1.97,2.46-1.48,2.46,.49,3.44,1.97,6.4,3.44,2.95,1.48,5.41,.49,5.41-1.97s-2.95-2.95-5.91-3.94c-2.95-.98-3.94-1.48-1.97-3.44,1.97-1.48,2.46-3.94,1.97-6.4-.98-1.97-3.44-2.46-6.4,1.48-2.95,3.94-5.91,3.94-6.89,1.48-.98-2.46,4.92-8.86,7.38-12.79,2.46-3.44,5.91-5.91,10.33-6.4,4.43-.98,6.4-.98,5.91-2.95-.49-1.97-4.92-1.48-6.89-1.48-1.48,0-2.95-.98-3.44-2.46v-.98c0-1.97,3.44-4.92,6.4-7.87,2.95-2.95,3.44-3.94,1.97-5.91-1.48-1.97-4.92-1.48-7.87,.98-2.46,2.46-4.43,4.92-5.91,7.38-.98,1.48-2.46-.98-4.43-3.44-1.97-2.46-3.94-3.44-5.41-2.46-1.48,.98,0,2.95,1.97,4.92,2.46,2.95,3.44,6.4,3.44,9.84s-1.97,6.89-5.41,8.37c-1.48,.49-.98-4.92-3.94-4.92s-3.44,3.44-3.44,7.87-4.92,6.89-7.38,4.43c-2.46-4.43-3.94-8.86-4.43-14.27,0-3.44,4.43-6.89,7.38-8.86,2.95-1.97,7.38-2.46,4.92-5.91-2.46-3.44-10.33,.98-13.29,3.94-2.95,2.95-4.43,1.97-4.92,.49-.49-3.94-.49-7.38,.49-11.32,1.48-4.92,5.91-8.37,10.83-8.86,4.43,.49,8.37,1.97,11.81,4.92,1.48,.98,4.43,1.48,4.92-.98,.49-2.46-4.43-4.92-6.4-5.91-1.97-.98-2.95-.98-2.46-2.95,.49-1.97,6.4-3.94,8.86-4.92,2.46-.98,5.91-2.46,3.94-5.41-1.97-2.95-9.84,1.97-11.81,2.95-1.97,.98-1.48-3.94-1.97-5.41-.49-1.48,0-5.41-3.44-5.41s-2.95,6.4-3.44,9.84-2.46,2.95-7.38,6.4c-2.95,2.46-5.91,5.41-8.86,8.37-1.48,.98-1.97-2.46-2.46-7.38-.49-3.94,.49-7.87,2.95-11.32,2.46-2.95,5.91-5.41,9.35-7.38,.98-.49,1.48-1.97,.98-2.95-.49-.98-1.97-1.48-2.95-.98-2.46,.98-4.92,1.97-6.4,.98-1.48-.98,1.48-5.41,3.44-9.35,1.97-3.94,1.97-7.87-.49-9.35-2.46-1.48-6.4,2.46-7.38,5.41-.98,2.95-2.46,3.44-4.43,.98-1.97-2.46-3.44-3.94-4.43-2.95-.98,.98-1.97,1.48,.49,4.92,1.97,2.95,2.95,6.4,2.95,9.84,0,2.95-1.97,3.94-3.94,1.97-1.97-1.97-4.92-2.95-5.41-.98-.49,1.97,1.48,3.44,3.94,4.43,2.46,.98,2.46,5.41,2.46,7.38s-.49,3.44-2.95,2.95c-3.44-1.97-5.91-4.92-7.38-8.37,0-1.97-.49-4.43-.49-6.4-.49-1.48-3.44-.49-3.44,.98v7.38c-.49,.98-3.44-.49-7.38-1.97-3.94-1.48-6.89-.49-6.89,1.97s6.89,5.41,8.86,5.41,2.95,1.48,1.97,2.95c-.98,1.48-4.43,3.94-5.41,4.92s.49,4.43,2.95,2.46c2.46-2.46,5.41-3.94,8.86-4.43,2.46,0,4.92,.98,6.4,3.44,.49,1.48-1.48,1.97-3.94,2.95-2.46,.98-3.44,2.46-3.44,3.44s.49,2.46,2.95,.98c1.97-.98,3.94-1.48,5.91-.98,2.46-.49,2.95,2.95,2.95,2.95,1.48,4.92,7.87,19.19,8.86,21.65,.98,2.46,0,3.94-2.95,3.94s-6.4,0-5.91,2.95c.49,2.95,5.91,2.95,9.84,2.95s3.94,3.94,4.43,9.35c.49,5.41-5.91,5.91-8.86,2.95-4.92-4.43-9.35-9.35-12.79-14.76-.98-2.95-.49-5.91,.98-8.37,.98-1.97,3.44-1.48,4.92-2.46,1.48-.98,1.48-2.46,.98-3.44v-.49c-.98-1.48-3.94,0-5.41,.98-1.48,.98-2.46,1.48-2.46,0s.49-5.41,.49-7.38-.98-3.44-3.44-2.46c-2.46,.98-2.95,12.3-2.46,16.73s-1.97,4.43-3.94,3.94c-2.95-1.97-5.41-4.43-6.89-7.38-.98-1.97-.98-2.95,1.97-6.4,.98-1.48,1.97-2.95,2.46-4.92,.49-1.48-1.97-1.97-2.95-.49-.98,1.48-1.97,2.46-3.44,3.44-.98,.49-.49-5.41-.49-6.4s.49-2.95-2.46-2.95-1.48,5.91-1.48,7.38-1.97,.98-4.92,.49c-2.95-.49-3.94,2.95-.98,2.95,2.46,0,4.43,.49,6.4,1.97,.98,1.97,1.48,4.92,.49,6.89-.49,1.48-2.95-.49-6.89-.49s-7.87,.49-8.37,2.95c-.49,2.46,2.95,4.92,6.89,4.92s7.87-.49,8.37,.49c.49,.98-.98,1.48-2.46,2.95s-1.97,2.95-.98,4.43c.98,1.48,3.44,.98,5.41-.98,1.48-1.97,3.94-2.95,6.4-2.46,3.44,.49,6.89,1.97,9.84,4.43,1.97,1.48,.49,3.94-1.48,4.43-2.95,.98-5.41,1.97-7.38,3.94-1.97,1.97-4.92,1.97-6.89,0-1.97-1.48-4.92-3.94-5.91-1.97-.98,1.97,1.48,3.94,2.46,4.92,.98,.98,1.97,.98,.98,2.95-1.48,1.97-3.44,3.94-5.41,5.41-.98,.98-.98,2.46-.49,3.44,.49,.49,1.48,.98,2.46,.98,2.95-1.48,5.91-3.44,8.37-5.91,.49-.49,1.48-1.97,1.97,0v5.41c0,1.48-.98,2.95,.98,3.44,.98,.49,1.97,0,2.46-.98,.49-1.97,.49-3.44,.49-5.41-.49-2.95,.98-5.91,2.95-8.37,2.46-2.95,8.86-1.48,12.3-1.48s3.94,2.95,3.94,5.41-4.43,4.43-5.91,5.41c-1.48,.98-4.92,1.48-3.44,3.94,1.48,2.46,1.97,1.48,3.44,1.48s5.41-4.43,8.37-4.92c2.95-.49,5.41,0,7.38,5.91,1.97,4.92,3.44,9.84,3.94,15.26-22.14,2.95-44.78,4.43-67.42,4.92-5.41,.49-9.35,.98-12.3,1.48,1.48-1.97,2.95-3.94,4.92-5.41,1.97-1.97,1.48-4.43,.49-8.86-.98-4.43,1.48-7.38,2.46-10.83,.49-3.44,.49-6.89-.98-9.84,0-.49-.49-.98-.98-1.48-2.46,2.95-4.43,6.89-5.41,10.33-.98,4.43,0,6.89-1.48,9.84-1.48,2.95-4.43,4.92-3.94,6.89,0,3.44,0,6.4-.98,9.84l-3.44,.49c0-2.46-.49-4.92-1.48-6.89-.49-1.48-2.46-3.44,0-5.91,2.46-2.46,3.44-5.41,2.95-8.86,0-3.94,.49-4.43,3.94-7.87,3.44-3.44,1.97-7.87,1.48-10.83-.49-2.95,.98-2.46,3.44-4.92,2.46-2.46,0-6.89,.49-10.33,.49-3.44,2.46-2.46,1.97-7.38-.49-3.44,0-6.89,.98-10.33,.98-4.92-4.92-9.84-6.4-10.83,.49,.49,0,1.97-1.48,6.4-1.48,4.43,0,5.91,.98,8.86,.98,2.95-.98,3.44-.98,6.4s.98,3.94-1.97,6.89c-2.95,2.95-3.44,5.41-3.44,11.32s-3.94,5.41-5.91,7.87c-1.97,2.46,.98,5.41,.49,9.35,0,1.48-.49,2.95-.98,3.94,.49-1.97,.49-3.94,0-5.91-1.97-4.43-1.97-6.4-1.48-7.38,.98-.98,1.48-1.97,2.95-2.95q-.49-.49-.49-.98c-.98-1.97,0-4.43,2.46-9.35,2.46-4.92,.98-4.92-.49-7.87-1.48-2.95-1.48-3.94,.98-5.91,1.97-1.97,2.46-4.43,1.97-6.89-.98-2.46-.98-4.43-.49-6.89,.98-3.44,2.95-3.44,1.97-6.4-.98-2.95-1.97-5.41-1.97-5.41-.98-2.95,2.46-4.92,0-9.84-2.46-4.92-.49-5.91-1.48-12.3-.49-3.44-3.94-5.91-7.38-5.41-.98,0-2.46,1.48-1.97,5.91,.49,4.43,3.44,5.41,2.46,10.33-.98,4.92,1.48,6.4,2.46,9.35,.98,2.95-4.43,4.92-4.43,7.38s1.97,4.92-.98,7.87c-2.95,2.95-3.44,3.94-.98,8.86,1.48,3.44,0,4.43-2.46,8.86-2.46,4.43-.98,5.91-.49,11.32,.49,3.44,.98,6.4,.49,9.84-.49,3.44-2.46,3.94-2.46,9.84,.98,3.94,1.97,7.87,1.97,11.81-.49,2.46-7.87,7.87-7.38,11.32v4.92l-9.35-.49c-.49-4.92-1.48-11.81-2.95-19.19-1.97-9.84,0-20.67,2.95-32.97v-.49c.98-4.92,1.97-10.33,2.95-16.24,3.94-19.68,4.92-39.37,3.44-59.54-1.48-8.37-2.95-16.73-5.41-25.1-1.97-7.87-3.94-15.25-4.92-21.65-1.97-13.78-3.94-23.62-3.94-23.62,0-.98-.98-1.48-1.97-1.48s-1.97,.98-1.48,1.97c0,0,1.97,10.33,3.94,23.62,.98,6.89,2.95,14.27,4.92,22.14,1.97,7.87,4.43,16.73,5.41,24.6,1.48,15.25,.98,30.51-.98,45.77,0-4.43,0-8.86-.49-13.78-.98-12.79-3.44-25.59-7.87-37.89-.49-.98-1.48-1.48-2.46-.98-.98,.49-1.48,1.48-.98,2.46,3.94,11.81,6.4,24.11,7.38,36.91,.98,13.78,.98,28.05-.49,41.83v.49c-2.46,12.79-4.92,24.11-2.95,34.45,1.48,6.89,1.97,13.29,2.46,18.21h-2.95c-2.46-3.94-4.43-8.37-5.41-12.79-.98-2.46-1.97-5.41-3.44-9.35-4.43-12.3-3.94-35.43-2.95-51.67,.49-4.92,.98-9.84,1.48-15.25,2.46-14.76,2.46-30.02,0-44.78-4.43-21.65-3.44-27.56-3.44-27.56,0-.98-.49-1.97-1.48-1.97s-1.97,.49-1.97,1.48c0,.49-.98,6.4,3.44,29.03,2.46,14.27,2.46,29.03,0,43.8-.49,5.41-.98,10.33-1.48,15.25-.98,18.21-1.48,40.35,2.95,53.15,1.48,3.94,2.46,6.89,2.95,9.35,1.48,3.94,2.95,7.87,4.92,11.81h-1.97c-19.19,.49-23.13,10.83-23.62,16.73v1.97H433.54v-35.92c0-21.65,1.97-24.6-35.43-30.51"/></g></svg>