<?xml version="1.0" encoding="UTF-8"?><svg id="Capa_1" xmlns="http://www.w3.org/2000/svg" viewBox="0 0 467 568.37"><defs><style>.cls-1{fill:#fff;}.cls-2{fill:#48ad37;}</style></defs><path class="cls-2" d="M4.92,80.7H461.59V4.92H4.92V80.7Zm462.08,4.92H0V0H466.51V85.62h.49Z"/><polygon class="cls-2" points="16.73 17.72 38.88 17.72 38.88 24.61 32.48 24.61 32.48 67.91 23.62 67.91 23.62 24.61 16.73 24.61 16.73 17.72"/><path class="cls-2" d="M49.21,52.16h6.89l-3.44-20.18-3.44,20.18Zm-10.33,15.75l9.35-50.19h9.35l9.84,50.19h-8.86l-1.48-9.35h-8.86l-1.48,9.35h-7.87Z"/><path class="cls-2" d="M80.21,24.61v15.75h2.95c2.95,0,3.94-1.48,3.94-3.94v-7.38c0-2.95-1.48-3.94-3.94-3.94h-2.95v-.49Zm0,20.18v23.13h-8.37V17.72h12.3c8.37,0,11.81,4.43,11.81,11.32v6.4c0,5.41-1.97,8.37-6.89,9.84l7.87,22.64h-8.86l-7.87-23.13Z"/><path class="cls-2" d="M113.67,41.34h11.81v26.57h-5.91v-5.41c-.98,3.94-3.44,5.91-7.87,5.91-7.38,0-10.33-5.91-10.33-13.29V31c0-7.87,3.94-13.29,12.79-13.29,9.35,0,11.81,5.41,11.81,12.79v4.43h-7.87v-4.92c0-2.95-.98-4.92-4.43-4.92-2.95,0-4.43,1.97-4.43,4.92v27.07c0,2.95,1.48,4.92,3.94,4.92,2.95,0,3.94-1.48,3.94-4.92v-9.35h-3.94v-6.4h.49Z"/><polygon class="cls-2" points="132.37 17.72 152.55 17.72 152.55 24.61 140.74 24.61 140.74 38.88 149.11 38.88 149.11 45.77 140.74 45.77 140.74 61.02 152.55 61.02 152.55 67.91 132.37 67.91 132.37 17.72"/><polygon class="cls-2" points="156.49 17.72 178.63 17.72 178.63 24.61 171.74 24.61 171.74 67.91 163.38 67.91 163.38 24.61 156.49 24.61 156.49 17.72"/><polygon class="cls-2" points="365.14 17.72 365.14 67.91 356.77 67.91 356.77 29.53 350.87 35.43 350.87 27.07 358.74 18.21 365.14 18.21 365.14 17.72"/><path class="cls-2" d="M395.65,44.78v12.3c0,6.89-3.44,11.32-11.81,11.32s-11.81-4.92-11.81-12.3v-5.91h7.87v6.4c0,2.95,.98,4.92,3.94,4.92,2.46,0,3.44-1.97,3.44-4.43v-12.3c0-2.95-.98-4.43-3.44-4.43s-3.94,1.48-3.94,4.43v.98h-7.38V17.72h22.14v6.89h-14.27v12.3c1.48-2.46,3.94-3.44,6.89-3.44,4.43,.49,8.37,3.44,8.37,11.32"/><path class="cls-2" d="M409.42,36.91c3.44,0,5.91,2.95,5.91,5.91,0,3.44-2.95,5.91-5.91,5.91-3.44,0-5.91-2.95-5.91-5.91-.49-2.95,2.46-5.91,5.91-5.91"/><path class="cls-2" d="M429.6,53.15h7.38v-20.67l-7.38,20.67Zm-7.38,1.48l14.76-36.91h8.37V53.15h3.44v6.4h-3.44v8.37h-7.87v-8.37h-14.76v-4.92h-.49Z"/><g><rect class="cls-2" x="0" y="101.86" width="466.51" height="466.51"/><path class="cls-1" d="M199.3,187l28.05,39.86c-7.38,1.97-13.29,5.91-18.21,11.81-4.92-12.3-15.26-21.65-28.05-25.1l18.21-26.57ZM52.16,399.58l71.85-103.34h114.17c10.83-.49,21.16-5.91,27.07-14.76l20.67,29.03,32.97-48.72,90.05,137.79h11.81l-3.44-5.91-98.42-151.07-33.46,49.21-15.26-21.65c.98-2.95,1.48-6.4,1.48-9.35,0-18.7-14.27-33.95-32.97-34.94l-39.86-56.59-29.53,42.81h-3.44c0-17.22-13.78-31-31-31s-31,13.78-31,31v.98c-2.95-.49-6.4-.98-9.35-.98-23.13,0-41.83,18.7-41.83,42.32s18.7,41.83,41.83,41.83h17.22l-71.85,103.34h12.3Z"/><path class="cls-1" d="M199.3,486.68h9.84c.49,0,.98-.49,.98-.49v-21.65h23.62c.98,0,1.48-.49,1.48-1.48v-.49l-28.54-93.5v-.49c-.49-.49-.98-.98-1.48-.98s-.98,.49-1.48,.98l-.49,.49-29.03,93.5c-.49,.49-.49,1.48,.49,1.97,.49,0,.49,.49,.98,.49h23.62v21.65Z"/><path class="cls-1" d="M273.61,486.68h9.84c.49,0,.98-.49,.98-.98v-21.65h23.62c.98,0,1.48-.49,1.48-1.48v-.49l-28.54-93.5-.49-.98c-.49-.49-.98-.98-1.48-.98s-.98,.49-1.48,.98l-.49,.49-29.03,93.5v.98c0,.98,.49,1.48,1.48,1.48h23.62v21.65q0,.49,.49,.98"/><path class="cls-1" d="M150.58,434.03l1.97-3.94,.98-7.38c1.48-1.97,1.97-4.92,.98-7.38-2.46-.98-4.43,2.95-4.43,2.95-1.48-.49-3.44-.49-4.92-.49s-2.95,0-4.43,.49c-.98-1.97-2.95-2.46-4.92-1.97-.49,1.97-.49,3.94,.49,5.41l-18.7,9.35-23.13,2.46c-14.76,0-21.65,7.87-22.14,19.68-.49,6.89-2.46,13.78-6.4,20.18-6.4,5.91-9.84-3.94-9.84-5.91,2.46-.98,3.94-3.44,3.94-5.91,0,0-11.32,.98-4.43,12.79,1.97,3.44,6.4,4.43,9.84,2.46,.49,0,.49-.49,.98-.49l1.97,10.83,.98,1.97h6.4l.49-2.95-2.95-1.48-1.48-6.4,18.21-20.67,9.35,2.95,25.59,1.97,5.41,21.16,.98,4.92,7.38,.98,1.97-2.46-4.92-3.44v-23.13l10.83-23.62,3.94-2.95Z"/><path class="cls-1" d="M94.97,488.16h5.41l.49-2.95-4.43-1.97-3.94-6.4,5.91-15.75-7.87-1.97-3.44,3.94c2.46,4.43,2.46,9.84,0,14.27l7.87,10.83Z"/><path class="cls-1" d="M396.63,484.22l4.43-21.65-5.91-8.37,3.44-12.79s1.48-12.79-15.25-10.83l-29.03,3.44-6.4,1.97-7.38-13.78v-4.43l-3.94,2.95-5.41-.98c0,2.46-.98,4.92-2.95,6.4-2.95,2.95-5.91,3.94-4.92,7.38,3.94,0,7.38-.49,11.32-.98l7.87,16.24,13.29,9.35,4.92,27.07h3.44l-2.95-17.72,2.46-11.81h12.79l6.4-2.46,13.29,13.29-3.44,18.21,3.94-.49Z"/><polygon class="cls-1" points="380.88 484.22 391.71 465.03 383.34 455.19 381.38 455.68 386.79 467 376.95 484.22 380.88 484.22"/><polygon class="cls-1" points="351.85 484.22 355.79 484.22 356.77 472.91 354.31 460.6 351.85 484.22"/><path class="cls-1" d="M333.64,418.28l2.95,.49c4.43-5.41,10.33-10.33,16.73-13.78-7.87,.98-19.68,13.29-19.68,13.29"/><path class="cls-1" d="M331.67,417.3l3.44-2.95c3.44-4.43,7.87-7.87,12.3-10.83-13.29,5.41-15.75,13.78-15.75,13.78"/><path class="cls-1" d="M39.86,504.4H425.66c1.48,0,2.95,1.48,2.95,2.95v17.72c0,1.48-1.48,2.95-2.95,2.95H39.86c-1.48,0-2.95-1.48-2.95-2.95v-17.72c.49-1.97,1.48-2.95,2.95-2.95"/><path class="cls-1" d="M380.88,235.71c-5.41-3.94-11.81-6.4-18.21-6.89-6.4,0-12.3,2.46-16.73,6.89-.98,.98-2.46,3.44-.98,4.43,1.48,.98,2.46,0,3.94-.98,2.46-1.48,5.41-1.97,8.37-1.48,8.37,0,15.75,3.44,21.65,8.86,.49,.49,.98,.49,1.97,.98,.98,0,1.97-.98,1.97-.98,5.91-5.91,13.78-8.86,21.65-8.86,2.95,0,5.91,.49,8.37,1.97,.98,.98,2.46,.98,3.94,.49,1.48-.98,.49-2.95-.49-3.94-4.43-4.92-10.83-7.38-17.22-7.38-6.89,.49-13.29,2.95-18.21,6.89"/><path class="cls-1" d="M326.26,185.52c1.97-1.48,4.43-1.97,6.89-1.97,6.89-.49,13.29,1.97,18.21,6.4,.49,.49,.98,.49,1.48,.49s.98-.49,1.48-.98c4.43-4.92,10.83-7.87,17.22-8.37,2.46-.49,4.92,0,6.89,.98,.98,.49,1.97,.98,2.95,.49,.98-.98,0-2.46-.49-3.44-3.94-3.44-8.86-5.41-14.27-5.41-5.41,.49-10.83,2.95-14.76,6.4-4.43-3.44-9.84-4.92-15.25-4.92-4.92,0-9.84,2.46-13.29,6.4-.98,.98-1.97,2.95-.49,3.94,1.48,.98,2.46,.49,3.44,0"/><path class="cls-1" d="M369.07,155.08c1.97-.49,3.94,0,5.41,.49,4.92,1.47,9.35,4.9,11.81,9.79,0,.49,.49,.49,.98,.98h1.48c4.43-2.45,10.33-2.94,15.26-1.96,1.97,.49,3.44,1.47,4.92,2.45,.49,.49,1.48,.98,1.97,.98s.98-1.96,.49-2.45c-1.97-3.92-4.92-6.85-9.35-7.83-4.43-.98-8.86-.49-12.79,.98-2.46-3.43-5.91-6.36-10.33-7.34-3.94-1.47-7.87-.98-11.81,1.47-.98,.49-1.97,1.47-1.48,2.45,.49,.98,2.46,.49,3.44,0"/></g></svg>