<?xml version="1.0" encoding="UTF-8"?><svg id="Capa_1" xmlns="http://www.w3.org/2000/svg" viewBox="0 0 467 568.37"><defs><style>.cls-1{fill:#00486e;}.cls-2{fill:#fff;}</style></defs><path class="cls-1" d="M4.92,80.7H461.59V4.92H4.92V80.7Zm462.08,4.92H0V0H466.51V85.62h.49Z"/><polygon class="cls-1" points="16.73 17.72 38.88 17.72 38.88 24.6 32.48 24.6 32.48 67.91 23.62 67.91 23.62 24.6 16.73 24.6 16.73 17.72"/><path class="cls-1" d="M49.21,52.16h6.89l-3.44-20.18-3.44,20.18Zm-10.33,15.75l9.35-50.19h9.35l9.84,50.19h-8.86l-1.48-9.35h-8.86l-1.48,9.35h-7.87Z"/><path class="cls-1" d="M80.21,24.6v15.75h2.95c2.95,0,3.94-1.48,3.94-3.94v-7.38c0-2.95-1.48-3.94-3.94-3.94h-2.95v-.49Zm0,20.18v23.13h-8.37V17.72h12.3c8.37,0,11.81,4.43,11.81,11.32v6.4c0,5.41-1.97,8.37-6.89,9.84l7.87,22.64h-8.86l-7.87-23.13Z"/><path class="cls-1" d="M113.67,41.34h11.81v26.57h-5.91v-5.41c-.98,3.94-3.44,5.91-7.87,5.91-7.38,0-10.33-5.91-10.33-13.29V31c0-7.87,3.94-13.29,12.79-13.29,9.35,0,11.81,5.41,11.81,12.79v4.43h-7.87v-4.92c0-2.95-.98-4.92-4.43-4.92-2.95,0-4.43,1.97-4.43,4.92v27.07c0,2.95,1.48,4.92,3.94,4.92,2.95,0,3.94-1.48,3.94-4.92v-9.35h-3.94v-6.4h.49Z"/><polygon class="cls-1" points="132.37 17.72 152.55 17.72 152.55 24.6 140.74 24.6 140.74 38.88 149.11 38.88 149.11 45.77 140.74 45.77 140.74 61.02 152.55 61.02 152.55 67.91 132.37 67.91 132.37 17.72"/><polygon class="cls-1" points="156.49 17.72 178.63 17.72 178.63 24.6 171.74 24.6 171.74 67.91 163.38 67.91 163.38 24.6 156.49 24.6 156.49 17.72"/><polygon class="cls-1" points="368.58 17.72 368.58 67.91 360.21 67.91 360.21 29.53 354.31 35.43 354.31 27.07 362.18 18.21 368.58 18.21 368.58 17.72"/><polygon class="cls-1" points="374.49 17.72 395.65 17.72 395.65 25.59 384.82 67.91 376.45 67.91 387.77 24.6 374.98 24.6 374.98 17.72 374.49 17.72"/><path class="cls-1" d="M409.42,36.91c3.44,0,5.91,2.95,5.91,5.91,0,3.44-2.95,5.91-5.91,5.91-3.44,0-5.91-2.95-5.91-5.91-.49-2.95,2.46-5.91,5.91-5.91"/><path class="cls-1" d="M439.44,32.48v-3.44c0-2.95-.98-4.92-3.94-4.92s-3.94,1.97-3.94,4.92v3.44c0,2.95,.98,4.92,3.94,4.92,2.95-.49,3.94-1.97,3.94-4.92m0,24.11v-7.87c0-2.95-.98-4.92-3.94-4.92s-3.94,1.97-3.94,4.92v7.87c0,2.95,.98,4.92,3.94,4.92s3.94-1.97,3.94-4.92m-16.73-.98v-5.41c0-4.92,1.48-8.37,5.41-9.84-3.44-1.48-4.92-4.43-4.92-8.86v-1.97c0-7.87,3.94-11.81,11.81-11.81s11.81,4.43,11.81,11.81v1.97c0,3.94-1.48,6.89-4.92,8.86,3.94,1.97,5.41,5.41,5.41,9.84v5.41c0,7.38-3.44,12.79-12.3,12.79-8.37,0-12.3-4.92-12.3-12.79"/><g><rect class="cls-1" x="0" y="101.86" width="466.51" height="466.51"/><path class="cls-2" d="M73.32,355.29c3.44,0,5.91,2.95,5.91,5.91,0,3.44-2.95,5.91-5.91,5.91-3.44,0-5.91-2.95-5.91-5.91s2.46-5.41,5.91-5.91m20.67,0c3.44,0,5.91,2.95,5.91,5.91,0,3.44-2.95,5.91-5.91,5.91-3.44,0-5.91-2.95-5.91-5.91-.49-2.95,2.46-5.41,5.91-5.91m20.18,0c3.44,0,5.91,2.95,5.91,5.91,0,3.44-2.95,5.91-5.91,5.91-3.44,0-5.91-2.95-5.91-5.91s2.46-5.41,5.91-5.91m17.22,.98h72.83v10.83h-72.83v-10.83Zm-75.29,23.13H215.54v-35.92H56.1v35.92Z"/><path class="cls-2" d="M73.32,274.1c3.44,0,5.91,2.46,5.91,5.91s-2.46,5.91-5.91,5.91-5.91-2.46-5.91-5.91v-.49c0-2.95,2.46-5.41,5.91-5.41m20.67,0c3.44,0,5.91,2.46,5.91,5.91s-2.46,5.91-5.91,5.91-5.91-2.46-5.91-5.91c-.49-3.44,2.46-5.91,5.91-5.91m20.18,0c3.44,0,5.91,2.95,5.91,5.91,0,3.44-2.95,5.91-5.91,5.91-3.44,0-5.91-2.95-5.91-5.91,0-3.44,2.95-5.91,5.91-5.91m17.22,.49h73.32v10.83h-73.32v-10.83Zm-75.29,22.64H215.54v-35.92H56.1v35.92Z"/><path class="cls-2" d="M131.39,395.15h2.46v47.24h-2.46v-47.24Zm5.91,0h2.46v47.24h-2.46v-47.24Zm5.41,0h2.95v47.24h-2.95v-47.24Zm5.91,0h2.46v47.24h-2.46v-47.24Zm5.91,0h2.46v47.24h-2.46v-47.24Zm5.91,0h2.46v47.24h-2.46v-47.24Zm5.91,0h2.46v47.24h-2.46v-47.24Zm5.91,0h2.46v47.24h-2.46v-47.24Zm5.91,0h2.46v47.24h-2.46v-47.24Zm5.91,0h2.46v47.24h-2.46v-47.24Zm5.91,0h2.46v47.24h-2.46v-47.24Zm5.91,0h2.46v47.24h-2.46v-47.24Zm5.91,0h2.46v47.24h-2.46v-47.24Zm-145.66,55.61c0,1.48,.98,2.46,2.46,2.46H212.59c1.48,0,2.46-.98,2.46-2.95v-65.45H56.1v65.94Z"/><path class="cls-2" d="M204.71,244.57h-73.32v-10.83h73.32v10.83Zm-90.05,.49c-3.44,0-5.91-2.46-5.91-5.91s2.46-5.91,5.91-5.91,5.91,2.46,5.91,5.91-2.95,5.91-5.91,5.91m-20.67,0c-3.44,0-5.91-2.46-5.91-5.91s2.46-5.91,5.91-5.91,5.91,2.46,5.91,5.91-2.46,5.91-5.91,5.91m-20.67,0c-3.44,0-5.91-2.46-5.91-5.91s2.46-5.91,5.91-5.91,5.91,2.46,5.91,5.91-2.46,5.91-5.91,5.91m139.76-27.56H59.05c-1.48,0-2.95,.98-2.95,2.46v35.92H215.54v-35.92c0-.98-.98-2.46-2.46-2.46"/><path class="cls-2" d="M73.32,314.94c3.44,0,5.91,2.46,5.91,5.91s-2.46,5.91-5.91,5.91-5.91-2.46-5.91-5.91,2.46-5.91,5.91-5.91m20.67,0c3.44,0,5.91,2.46,5.91,5.91s-2.46,5.91-5.91,5.91-5.91-2.46-5.91-5.91,2.46-5.91,5.91-5.91m20.18,0c3.44,0,5.91,2.46,5.91,5.91s-2.46,5.91-5.91,5.91-5.91-2.46-5.91-5.91,2.95-5.91,5.91-5.91m17.22,.49h73.32v10.83h-73.32v-10.83Zm-75.29,23.13H215.54v-35.92H56.1v35.92Z"/><path class="cls-2" d="M403.03,300.18h-127.95v-76.77h128.44v76.77h-.49Zm5.91-79.23c0-1.97-1.48-3.94-3.94-3.94h-132.87c-1.97,0-3.94,1.48-3.94,3.94v84.15h140.25v-84.15h.49Z"/><path class="cls-2" d="M350.37,319.37h-23.62v-2.46h23.62v2.46Zm58.56-10.83h-140.25l-11.32,8.86v3.94c0,1.48,2.46,1.48,2.46,1.48h158.95c1.97,0,1.97-1.97,1.97-1.97v-3.94l-11.81-8.37Z"/><path class="cls-2" d="M405.98,429.6h-50.69v-74.31h50.69v74.31Zm-25.59,18.7c-2.95,0-5.41-2.46-5.41-5.41s2.46-5.41,5.41-5.41,5.41,2.46,5.41,5.41c.49,2.95-1.97,5.41-5.41,5.41,.49,0,0,0,0,0m27.07-98.42h-53.64c-1.97,0-3.44,1.48-3.94,3.94v96.45c0,1.97,1.48,3.94,3.94,3.94h53.64c1.97,0,3.44-1.48,3.94-3.44v-96.94c-.49-1.97-1.97-3.94-3.94-3.94"/><path class="cls-2" d="M268.19,389.25c3.94,8.37,3.94,18.21-.98,26.57l5.91,3.94c3.44-5.41,4.92-11.81,4.92-18.21,0-5.41-1.48-11.32-3.94-16.24l-5.91,3.94Z"/><path class="cls-2" d="M284.92,377.93c8.37,15.26,7.87,33.95-.98,48.72l5.91,3.94c10.33-17.22,10.33-38.88,.49-56.59l-5.41,3.94Z"/><path class="cls-2" d="M307.07,363.17l-5.91,3.94c12.79,22.14,12.79,49.21-.49,70.86l5.91,3.94c14.76-24.11,15.26-54.62,.49-78.74"/></g></svg>