<?xml version="1.0" encoding="UTF-8"?><svg id="Capa_1" xmlns="http://www.w3.org/2000/svg" viewBox="0 0 467 568.37"><defs><style>.cls-1{fill:#fff;}.cls-2{fill:#b11546;}</style></defs><path class="cls-2" d="M4.92,80.7H461.59V4.92H4.92V80.7Zm462.08,4.92H0V0H466.51V85.62h.49Z"/><polygon class="cls-2" points="16.73 17.72 38.88 17.72 38.88 24.6 32.48 24.6 32.48 67.91 23.62 67.91 23.62 24.6 16.73 24.6 16.73 17.72"/><path class="cls-2" d="M49.21,52.16h6.89l-3.44-20.18-3.44,20.18Zm-10.33,15.75l9.35-50.19h9.35l9.84,50.19h-8.86l-1.48-9.35h-8.86l-1.48,9.35h-7.87Z"/><path class="cls-2" d="M80.21,24.6v15.75h2.95c2.95,0,3.94-1.48,3.94-3.94v-7.38c0-2.95-1.48-3.94-3.94-3.94h-2.95v-.49Zm0,20.18v23.13h-8.37V17.72h12.3c8.37,0,11.81,4.43,11.81,11.32v6.4c0,5.41-1.97,8.37-6.89,9.84l7.87,22.64h-8.86l-7.87-23.13Z"/><path class="cls-2" d="M113.67,41.34h11.81v26.57h-5.91v-5.41c-.98,3.94-3.44,5.91-7.87,5.91-7.38,0-10.33-5.91-10.33-13.29V31c0-7.87,3.94-13.29,12.79-13.29,9.35,0,11.81,5.41,11.81,12.79v4.43h-7.87v-4.92c0-2.95-.98-4.92-4.43-4.92-2.95,0-4.43,1.97-4.43,4.92v27.07c0,2.95,1.48,4.92,3.94,4.92,2.95,0,3.94-1.48,3.94-4.92v-9.35h-3.94v-6.4h.49Z"/><polygon class="cls-2" points="132.37 17.72 152.55 17.72 152.55 24.6 140.74 24.6 140.74 38.88 149.11 38.88 149.11 45.77 140.74 45.77 140.74 61.02 152.55 61.02 152.55 67.91 132.37 67.91 132.37 17.72"/><polygon class="cls-2" points="156.49 17.72 178.63 17.72 178.63 24.6 171.74 24.6 171.74 67.91 163.38 67.91 163.38 24.6 156.49 24.6 156.49 17.72"/><path class="cls-2" d="M365.63,32.48v-3.44c0-2.95-.98-4.92-3.94-4.92s-3.94,1.97-3.94,4.92v3.44c0,2.95,.98,4.92,3.94,4.92,2.95-.49,3.94-1.97,3.94-4.92m.49,24.11v-7.87c0-2.95-.98-4.92-3.94-4.92s-3.94,1.97-3.94,4.92v7.87c0,2.95,.98,4.92,3.94,4.92s3.94-1.97,3.94-4.92m-16.73-.98v-5.41c0-4.92,1.48-8.37,5.41-9.84-3.44-1.48-4.92-4.43-4.92-8.86v-1.97c0-7.87,3.94-11.81,11.81-11.81s11.81,4.43,11.81,11.81v1.97c0,3.94-1.48,6.89-4.92,8.86,3.94,1.97,5.41,5.41,5.41,9.84v5.41c0,7.38-3.44,12.79-12.3,12.79s-12.3-4.92-12.3-12.79"/><path class="cls-2" d="M388.76,36.91c3.44,0,5.91,2.95,5.91,5.91,0,3.44-2.95,5.91-5.91,5.91-3.44,0-5.91-2.95-5.91-5.91-.49-2.95,2.46-5.91,5.91-5.91"/><polygon class="cls-2" points="416.31 17.72 416.31 67.91 407.95 67.91 407.95 29.53 402.04 35.92 402.04 27.07 409.92 18.21 416.31 18.21 416.31 17.72"/><path class="cls-2" d="M439.93,56.59V29.53c0-2.95-.98-4.92-3.94-4.92s-3.94,1.97-3.94,4.92v27.07c0,2.95,.98,4.92,3.94,4.92s3.94-1.97,3.94-4.92m-16.73-1.48V31c0-7.87,3.94-13.29,12.3-13.29s12.3,5.91,12.3,13.29v24.11c0,7.87-3.94,13.29-12.3,13.29s-12.3-5.41-12.3-13.29"/><g><rect class="cls-2" y="101.86" width="466.51" height="466.51"/><path class="cls-1" d="M190.93,376.95c9.35,0,16.73-7.38,16.73-16.24s-7.38-16.73-16.24-16.73c-9.35,0-16.73,7.38-16.73,16.24,0,9.35,7.38,16.73,16.24,16.73"/><path class="cls-1" d="M210.13,380.88h-38.38c-11.32,.98-20.18,10.33-20.18,21.65v45.77c0,2.46,1.48,4.43,3.44,5.41v.49l-14.76,77.75c0,1.48,.49,2.46,1.97,2.95h.49c.98,0,1.97-.98,2.46-1.97l14.76-77.75v-.98c2.95-.49,4.92-3.44,4.92-6.4v-39.37c0-1.48,.49-3.44,2.95-3.44,1.97,0,2.46,1.97,2.46,3.44v118.1c0,4.92,3.94,9.35,9.35,9.35,4.92,0,9.35-3.94,9.35-9.35v-67.91c0-1.48,.98-2.46,1.97-2.46h.49c1.48,0,2.46,.98,2.46,2.46v68.4c0,4.92,3.94,9.35,9.35,9.35,4.92,0,9.35-3.94,9.35-9.35v-118.1c0-1.48,.49-3.44,2.46-3.44,2.46,0,2.95,1.97,2.95,3.44v39.37c.49,3.44,3.44,6.4,6.89,5.91,2.95-.49,5.41-2.95,5.91-5.91v-45.77c0-11.32-9.35-21.16-20.67-21.65"/><path class="cls-1" d="M386.3,376.45c-8.86,0-16.24-7.38-16.24-16.24s7.38-16.24,16.24-16.24,16.24,7.38,16.24,16.24-7.38,16.24-16.24,16.24"/><path class="cls-1" d="M367.1,382.85h37.4c11.32,.98,19.68,10.33,19.68,21.65v45.27c-.49,3.44-3.44,5.91-6.89,5.91-2.95-.49-5.41-2.46-5.91-5.91v-38.88c0-1.48-.49-3.44-2.95-3.44-1.97,0-1.97,1.97-2.46,3.44v116.13c-.49,4.92-4.92,8.86-9.84,8.37-4.43-.49-7.87-3.94-8.37-8.37v-67.42c0-1.48-.98-2.46-2.46-2.46h-.49c-1.48,0-2.46,.98-2.46,2.46v67.42c-.49,4.92-4.92,8.86-9.84,8.37-4.43-.49-7.87-3.94-8.37-8.37v-116.63c0-.98-.49-3.44-2.46-3.44-2.46,0-2.95,1.97-2.95,3.44v38.88c-.49,3.44-3.44,5.91-6.89,5.91-2.95-.49-5.41-2.46-5.91-5.91v-45.27c1.48-10.83,9.84-20.18,21.16-21.16"/><path class="cls-1" d="M86.61,383.84c-8.37,0-15.26-6.89-15.26-15.25s6.89-15.25,15.26-15.25,15.25,6.89,15.25,15.25-6.89,15.25-15.25,15.25"/><path class="cls-1" d="M42.32,445.35l12.79-41.83s4.43-12.3,14.76-12.3h32.48c10.33,0,14.76,12.3,14.76,12.3l12.79,41.83s2.46,7.87-4.43,9.35c-6.89,1.48-8.37-5.41-8.37-5.41l-10.33-34.94s-.49-2.46-2.46-1.97c-1.97,.49-1.48,3.44-1.48,3.44l18.21,65.45h-16.73v46.75c-.49,4.43-4.43,7.87-8.86,7.38-3.94-.49-6.89-3.44-7.38-7.38v-46.75h-4.43v46.75c-.49,4.43-4.43,7.87-8.86,7.38-3.94-.49-6.89-3.44-7.38-7.38v-46.75h-16.73l17.72-65.45s.98-2.95-.98-3.44c-1.97-.49-2.46,1.97-2.46,1.97l-10.33,34.94s-1.97,7.38-8.37,5.41c-6.4-1.97-3.94-9.35-3.94-9.35"/><path class="cls-1" d="M247.03,450.76l9.84-32.97,1.97-6.4s4.43-11.32,13.78-11.32h30.51c9.35,0,13.78,11.32,13.78,11.32l1.97,5.91,10.33,32.97s1.97,7.38-3.94,8.86c-5.91,1.48-7.87-5.41-7.87-5.41l-9.84-32.97v-.49c-.49-.98-1.48-1.48-2.46-1.48-1.97,.49-.98,3.44-.98,3.44l16.73,61.51h-15.75v43.8c0,3.94-3.44,7.38-7.38,7.38s-7.38-3.44-7.38-7.38v-43.8h-4.43v43.8c0,4.43-3.44,7.38-7.38,7.38s-7.38-3.44-7.38-7.38v-43.8h-15.75l16.73-61.51s.98-2.95-.98-3.44c-1.97-.49-1.97,.98-2.46,1.48v1.48l-9.84,32.97s-1.97,6.89-7.87,5.41c-5.91-1.48-3.94-9.35-3.94-9.35"/><path class="cls-1" d="M273.11,364.64c0-2.46-2.46-4.92-7.87-2.46-6.4,2.95-5.41,12.3-5.41,12.3,0,.98,0,1.48,.49,.98,.49-1.48,1.97-3.94,6.89-4.43,.98,0,1.97-.49,2.46-.98,.98-1.48,1.97-2.95,2.95-4.43,.49,0,.49-.49,.49-.98"/><path class="cls-1" d="M310.02,362.18c-4.92-2.46-7.38,.49-7.87,2.46v.98c.98,.98,1.97,2.46,2.95,3.94,.98,.49,1.97,.98,2.95,.98,4.92,.49,6.4,2.95,6.89,4.43,0,.49,.49,0,.49-.98,0,.49,.98-8.86-5.41-11.81"/><path class="cls-1" d="M287.88,362.68c-9.35,0-17.22,7.87-17.22,17.22s7.87,17.22,17.22,17.22,17.22-7.87,17.22-17.22-7.87-17.22-17.22-17.22"/><path class="cls-1" d="M233.25,311.01c-46.75,0-84.64-37.89-84.64-84.64s37.89-84.64,84.64-84.64,84.64,37.89,84.64,84.64-37.89,84.64-84.64,84.64m0-176.17c-50.69,0-91.53,40.84-91.53,91.53s40.84,91.53,91.53,91.53,91.53-40.84,91.53-91.53-40.84-91.53-91.53-91.53"/><path class="cls-1" d="M303.13,229.81c-1.97,0-3.44-1.48-3.44-3.44s1.48-3.44,3.44-3.44,3.44,1.48,3.44,3.44c0,.98-.49,1.97-.98,2.46s-1.48,.98-2.46,.98m.49,11.81c-.49,.49-1.48,.49-1.97,.49h-.49c-1.97-.49-2.95-1.97-2.95-3.94,0-.98,.49-1.48,1.48-2.46,.98-.49,1.48-.98,2.46-.49,1.97,.49,2.95,1.97,2.95,3.94,0,.98-.49,1.97-1.48,2.46m-1.48,9.84c-.49,1.48-1.97,2.46-3.44,2.46h-.98c-1.97-.49-2.95-2.46-1.97-4.43,.49-1.97,2.46-2.95,4.43-1.97,1.48,.49,2.46,1.97,1.97,3.94m-5.41,11.32c-.49,.98-.98,1.48-1.97,1.48h-.98c-1.48,0-2.95-.98-3.44-2.46,0-.98,0-1.97,.49-2.46,.49-.98,.98-1.48,1.97-1.48,.98-.49,1.97,0,2.46,.49,1.97,.49,2.46,2.95,1.48,4.43m-7.87-78.74c-.49,.49-1.48,.98-2.46,.98h-.49c-.98,0-1.97-.49-2.46-.98s-.98-1.48-.98-2.46,.49-1.97,.98-2.46c1.48-1.48,3.44-.98,4.92,.49,.49,.49,.98,1.48,.98,2.46,.49,.98,0,1.48-.49,1.97m.49,89.56c-.49,.98-1.48,.98-2.46,.98s-1.48-.49-2.46-.98c-1.48-.98-1.48-3.44-.49-4.92,.49-.49,1.48-.98,2.46-.98s1.97,0,2.46,.98c1.48,1.48,1.48,3.44,.49,4.92m-8.37-97.93c-.49,.49-1.48,.98-2.46,.98h-.49c-.98,0-1.48-.49-2.46-.98-.49-.49-.98-1.48-.98-2.46,0-1.97,1.48-3.44,2.95-3.94,1.97,0,3.44,1.48,3.94,2.95,0,1.97,0,2.95-.49,3.44m-.49,107.28c-.49,.49-1.48,.98-2.46,.98h-.49c-.98,0-1.97-.49-2.46-.98s-.98-1.48-.98-2.46c0-1.97,1.97-3.44,3.94-2.95,.98,0,1.97,.49,2.46,1.48,1.48,.49,.98,2.46,0,3.94m-8.86,4.92c-.49,.98-.98,1.48-1.48,1.97s-.98,.49-1.48,.49h-.98c-.98-.49-1.48-.98-1.97-1.48-.49-.98-.49-1.97-.49-2.46,0-.98,.98-1.48,1.48-1.97s1.48-.98,2.46-.98,1.48,.98,1.97,1.48c.49,.98,.49,1.97,.49,2.95m-11.32,5.91c-.49,.98-.98,1.48-1.97,1.97h-.98c-1.48,0-2.95-.98-3.44-2.46-.49-1.97,.49-3.94,1.97-4.43,.98-.49,1.97-.49,2.46,0,1.97,.98,2.95,2.95,1.97,4.92m-11.32,.98c.49,1.97-.98,3.44-2.95,3.94h-.49c-1.97,0-3.44-1.48-3.44-3.44s1.48-3.44,3.44-3.44c1.48,0,2.95,1.48,3.44,2.95m-15.75,4.92c-1.97,0-3.44-1.48-3.44-3.44s1.48-3.44,3.44-3.44,3.44,1.48,3.44,3.44-1.48,3.44-3.44,3.44m-11.81-.98h-.49c-1.97-.49-2.95-1.97-2.95-3.94,.49-1.97,1.97-2.95,3.94-2.95,.98,0,1.97,.49,2.46,1.48,.49,.49,.98,1.48,.49,2.46-.49,1.97-1.97,2.95-3.44,2.95m-8.37-5.41c-.49,1.48-1.97,2.46-3.44,2.46h-.98c-1.97-.49-2.95-2.46-1.97-4.43,.49-1.97,2.46-2.95,4.43-1.97,1.48,0,2.46,1.97,1.97,3.94m-11.32-4.92c-.49,.98-1.97,1.48-2.95,1.48-.49,0-.98,0-1.48-.49-1.48-.98-2.46-2.95-1.48-4.92,.98-1.48,2.95-2.46,4.92-1.48,1.48,1.48,1.97,3.94,.98,5.41m-9.35-33.46h2.95v-4.43q0-.49,.49-.49h76.27q.49,0,.49,.49v4.43h2.95v4.92h-83.16v-4.92Zm-.98,27.07c-.98,1.48-3.44,1.48-4.92,.49s-1.48-3.44-.49-4.92c.49-.49,1.48-.98,2.46-.98s1.97,0,2.46,.98c.49,.49,.98,1.48,.98,2.46,.49,.49,0,1.48-.49,1.97m-8.86-7.87c-.49,.49-1.48,.98-2.46,.98s-1.97-.49-2.46-.98c-.98-1.48-.98-3.44,.49-4.92,1.48-.98,3.44-.98,4.92,.49,.98,.98,.49,2.95-.49,4.43m-4.92-94.48c.49-.49,1.48-.98,2.46-.98s1.97,0,2.46,.98c1.48,.98,1.48,3.44,.49,4.92-1.48,1.48-3.44,1.48-4.92,.49-1.97-1.97-1.97-3.94-.49-5.41q-.49,0,0,0m-2.95,84.64c-.49,.49-.98,.49-1.48,.49-1.48,0-2.46-.49-2.95-1.48-.98-1.48-.49-3.44,.98-4.92h.49c1.48-.98,3.94-.49,4.92,1.48,.49,.98,0,3.44-1.97,4.43m-6.4-10.33c-1.48,0-2.95-.98-3.44-2.46-.49-1.97,.49-3.94,1.97-4.43,1.97-.49,3.94,0,4.43,1.97,.49,1.97,0,3.94-1.97,4.43-.49,.49-.98,.49-.98,.49m-6.4-14.76c-.49-1.97,.98-3.44,2.95-3.94,.98,0,1.97,0,2.46,.49,.49,.49,1.48,1.48,1.48,2.46s0,1.97-.49,2.46c-.49,.49-1.48,1.48-2.46,1.48h-.49c-1.97,0-3.44-.98-3.44-2.95m-.98-12.79c0-.98,.49-1.97,.98-2.46,.49-.49,1.48-.98,2.46-.98,1.97,0,3.44,1.48,3.44,3.44s-1.48,3.44-3.44,3.44-3.44-.98-3.44-3.44c0,.49,0,0,0,0m4.92-15.25c.98,0,1.48,.49,2.46,1.48,.98,1.48,.98,3.94-.98,4.92-.49,.49-1.48,.49-1.97,.49h-.49c-1.97-.49-2.95-1.97-2.95-3.94s1.48-3.44,3.94-2.95m-.98-9.35c.49-1.97,2.46-2.95,4.43-1.97,1.97,.49,2.46,2.95,1.97,4.43-.49,.98-.98,1.48-1.48,1.97-.49,0-.98,.49-1.48,.49h-.98c-1.97-.98-3.44-2.95-2.46-4.92-.49,0,0,0,0,0m5.41-11.81c.98-1.48,2.95-2.46,4.43-1.48h.49c1.48,.98,2.46,3.44,1.48,4.92-.98,1.48-1.97,1.97-2.95,1.97-.49,0-.98,0-1.48-.49-1.97-.49-2.46-2.46-1.97-4.43-.49,0-.49-.49,0-.49m16.24-19.68c1.48-.98,3.44-.98,4.92,.49,1.48,1.48,.98,3.44-.49,4.92-.49,.49-1.48,.98-2.46,.98s-1.97-.49-2.46-.98c-.98-1.97-.98-3.94,.49-5.41m10.83-7.38c.98-.49,1.97-.49,2.46-.49,.98,.49,1.48,.98,1.97,1.48,.49,.98,.49,1.97,.49,2.46,0,.98-.98,1.48-1.48,1.97-.49,.49-.98,.49-1.48,.49-1.48,0-2.46-.49-2.95-1.48-1.48-.98-.98-3.44,.98-4.43m9.35-3.44c.49-.98,.98-1.48,1.97-1.97,.98-.49,1.97-.49,2.46,0,.98,.49,1.48,.98,1.97,1.97,.49,1.97-.49,3.94-1.97,4.43h-.98c-1.48,0-2.95-.98-3.44-2.46-.49-.49-.49-.98,0-1.97m11.81-3.94c.49-.98,1.48-1.48,2.46-1.48,1.97-.49,3.44,.98,3.94,2.95,0,.98,0,1.97-.49,2.46-.49,.98-1.48,1.48-2.46,1.48h-.49c-1.48,0-2.95-.98-3.44-2.95,0-.49,0-1.48,.49-2.46m14.76-2.46c1.97,0,3.44,1.48,3.44,3.44s-1.48,3.44-3.44,3.44-3.44-1.48-3.44-3.44c.49-1.48,1.97-3.44,3.44-3.44m10.33,1.97c.49-.49,1.48-.98,2.46-.49,1.97,.49,2.95,1.97,2.95,3.94,0,.98-.49,1.97-1.48,2.46-.49,.49-1.48,.49-1.97,.49h-.49c-.98,0-1.97-.49-2.46-1.48s-.49-1.48-.49-2.46,.49-1.97,1.48-2.46m10.33,4.92c.49-.98,.98-1.48,1.97-1.97,.98-.49,1.97-.49,2.46,0,1.97,.49,2.95,2.46,1.97,4.43-.49,.98-.98,1.48-1.97,1.97-.49,0-.98,.49-1.48,.49h-.98c-.98-.49-1.48-.98-1.48-1.97-.49-1.48-.49-1.97-.49-2.95m-20.18,42.81h-41.34l-1.48-1.48c-.49-.49-.49-.98,0-1.97l42.81-15.75,42.81,15.75c.49,.49,.49,.98,0,1.97l-1.48,1.48h-41.34Zm-33.95,14.76c-.49,0-.98-.49-.98-.98v-4.92h12.3v4.92c0,.49-.49,.98-.98,.98v29.53h-9.84l-.49-29.53Zm29.03,0c-.49,0-.98-.49-.98-.98v-4.92h12.3v4.92c0,.49-.49,.98-.98,.98v29.53h-9.35l-.98-29.53Zm4.92-9.35h-38.38v-2.95h77.26v2.46h-38.88v.49Zm24.6,9.35c-.49,0-.98-.49-.98-.98v-4.92h11.81v4.92c0,.49-.49,.98-.98,.98v29.53h-9.35l-.49-29.53Zm6.89-53.15c.49-.98,1.48-1.48,1.97-1.48,.98,0,1.97,0,2.46,.49,1.48,.98,2.46,2.95,1.48,4.43v.49c-.49,.98-.98,1.48-1.97,1.48h-.98c-.49,0-.98,0-1.48-.49-.98-.49-1.48-1.48-1.48-1.97-.49-.98-.49-1.97,0-2.95m25.1,26.08c0-.98,.98-1.48,1.48-1.97,1.48-.98,3.94-.49,4.92,.98,.49,.98,.49,1.97,.49,2.46-.49,1.48-1.97,2.46-3.44,2.46h-.98c-1.48,0-2.46-1.48-2.46-3.94m11.81,10.83c.49,1.97-.49,3.94-1.97,4.43h-.98c-.49,0-.98,0-1.48-.49-1.97-.98-2.46-2.95-1.97-4.43,.49-.98,.98-1.48,1.97-1.97,1.97-.49,3.94,.49,4.43,2.46m3.44,12.3c0,.98,0,1.97-.49,2.46-.49,.49-1.48,1.48-1.97,1.48h-.49c-.49,0-1.48,0-1.97-.49-1.48-.49-1.97-.98-1.97-1.97s0-1.97,.49-2.46c.49-.49,1.48-1.48,1.97-1.48,1.97-.49,3.94,.98,4.43,2.46m-72.34-67.42c-44.29,0-80.21,35.92-80.21,80.21s35.92,80.21,80.21,80.21,80.21-35.92,80.21-80.21-35.92-80.21-80.21-80.21"/></g></svg>