<?xml version="1.0" encoding="UTF-8"?><svg id="Capa_1" xmlns="http://www.w3.org/2000/svg" viewBox="0 0 467 568.37"><defs><style>.cls-1{fill:#fff;}.cls-2{fill:#48ad37;}</style></defs><path class="cls-2" d="M4.92,80.7H461.59V4.92H4.92V80.7Zm462.08,4.92H0V0H466.51V85.62h.49Z"/><polygon class="cls-2" points="16.73 17.72 38.88 17.72 38.88 24.6 32.48 24.6 32.48 67.91 23.62 67.91 23.62 24.6 16.73 24.6 16.73 17.72"/><path class="cls-2" d="M49.21,52.16h6.89l-3.44-20.18-3.44,20.18Zm-10.33,15.75l9.35-50.19h9.35l9.84,50.19h-8.86l-1.48-9.35h-8.86l-1.48,9.35h-7.87Z"/><path class="cls-2" d="M80.21,24.6v15.75h2.95c2.95,0,3.94-1.48,3.94-3.94v-7.38c0-2.95-1.48-3.94-3.94-3.94h-2.95v-.49Zm0,20.18v23.13h-8.37V17.72h12.3c8.37,0,11.81,4.43,11.81,11.32v6.4c0,5.41-1.97,8.37-6.89,9.84l7.87,22.64h-8.86l-7.87-23.13Z"/><path class="cls-2" d="M113.67,41.34h11.81v26.57h-5.91v-5.41c-.98,3.94-3.44,5.91-7.87,5.91-7.38,0-10.33-5.91-10.33-13.29V31c0-7.87,3.94-13.29,12.79-13.29,9.35,0,11.81,5.41,11.81,12.79v4.43h-7.87v-4.92c0-2.95-.98-4.92-4.43-4.92-2.95,0-4.43,1.97-4.43,4.92v27.07c0,2.95,1.48,4.92,3.94,4.92,2.95,0,3.94-1.48,3.94-4.92v-9.35h-3.94v-6.4h.49Z"/><polygon class="cls-2" points="132.37 17.72 152.55 17.72 152.55 24.6 140.74 24.6 140.74 38.88 149.11 38.88 149.11 45.77 140.74 45.77 140.74 61.02 152.55 61.02 152.55 67.91 132.37 67.91 132.37 17.72"/><polygon class="cls-2" points="156.49 17.72 178.63 17.72 178.63 24.6 171.74 24.6 171.74 67.91 163.38 67.91 163.38 24.6 156.49 24.6 156.49 17.72"/><polygon class="cls-2" points="365.14 17.72 365.14 67.91 356.77 67.91 356.77 29.53 350.86 35.43 350.86 27.07 358.74 18.21 365.14 18.21 365.14 17.72"/><path class="cls-2" d="M396.14,44.78v12.3c0,6.89-3.44,11.32-11.81,11.32s-11.81-4.92-11.81-12.3v-5.91h7.87v6.4c0,2.95,.98,4.92,3.94,4.92,2.46,0,3.44-1.97,3.44-4.43v-12.3c0-2.95-.98-4.43-3.44-4.43s-3.94,1.48-3.94,4.43v.98h-7.87V17.72h22.14v6.89h-14.27v12.3c1.48-2.46,3.94-3.44,6.89-3.44,4.92,.49,8.86,3.44,8.86,11.32"/><path class="cls-2" d="M409.42,36.91c3.44,0,5.91,2.95,5.91,5.91,0,3.44-2.95,5.91-5.91,5.91-3.44,0-5.91-2.95-5.91-5.91s2.95-5.91,5.91-5.91"/><path class="cls-2" d="M439.93,56.59v-8.86c0-3.44-.98-4.92-3.94-4.92-2.46,0-3.94,1.97-3.94,4.43v9.35c0,2.95,.98,4.92,3.94,4.92,2.46,0,3.94-1.48,3.94-4.92m-16.73-1.48V30.51c0-7.87,3.44-13.29,12.3-13.29,9.35,0,11.81,5.41,11.81,12.79v2.46h-7.87v-3.44c0-2.95-.98-4.92-3.94-4.92s-3.94,1.97-3.94,4.92v10.83c1.48-2.46,3.44-3.94,6.89-3.94,5.91,0,9.35,3.94,9.35,12.3v7.38c0,7.87-3.44,12.79-12.3,12.79s-12.3-5.41-12.3-13.29"/><g><rect class="cls-2" y="101.86" width="466.51" height="466.51"/><path class="cls-1" d="M246.05,439.44c-3.44,3.94-6.89,7.38-10.83,10.83,4.43,4.43,9.35,9.35,14.27,15.25h-29.03c-1.97,1.97-3.44,3.94-5.41,6.4-.98,.98-1.48,1.97-2.46,2.95h43.3c2.46,4.92,4.92,9.84,6.89,14.76h-58.07c-1.48,2.95-2.46,5.91-3.44,9.35h64.46c1.48,4.92,2.46,9.84,3.44,14.76h-71.35c-.49,3.44-.98,6.4-1.48,9.35h74.31c.49,5.41,.98,8.86,.98,8.86l11.32-.49c0-1.97-1.48-50.69-26.08-80.21-4.43-4.92-7.38-8.37-10.83-11.81"/><path class="cls-1" d="M203.73,412.87c3.44,5.91,7.38,11.81,12.3,17.22,2.95-2.95,5.41-5.91,8.37-8.37l2.46-2.46c-5.41-5.41-10.33-11.81-14.27-18.7h31c1.97-2.95,3.94-5.91,5.41-9.35h-40.84l-.49-.49c-1.97-4.92-3.44-9.35-4.92-13.78h51.67c.98-2.95,1.97-6.4,2.95-9.35h-58.07c-1.48-4.92-2.46-9.84-3.44-14.76h64.46c.49-2.95,.98-6.4,1.48-9.35h-66.93c0-2.95-.49-5.91-.49-8.37s0-5.91,.49-8.86h66.93c-.49-2.95-.98-5.91-1.48-9.35h-63.97c.98-4.92,1.97-9.84,3.44-14.76h58.07c-.98-2.95-1.97-5.91-2.95-9.35h-52.65c1.48-4.43,2.95-8.86,4.92-13.78l.49-.49h40.84c-1.48-3.44-3.44-6.4-5.41-9.35h-30.51c3.94-6.89,8.86-13.29,14.27-18.7l-2.46-2.46c-2.46-2.46-5.41-5.41-8.37-8.37-7.38,8.37-13.78,18.21-18.21,29.03-8.86,20.18-13.78,41.83-14.76,63.97v3.94c.49,16.24,3.44,32.48,8.86,48.23-12.79-17.72-24.11-36.42-33.46-56.1l-5.41,1.97c16.73,40.84,50.69,82.67,50.69,82.18"/><path class="cls-1" d="M269.18,157.47c-.98,4.92-1.97,9.84-3.44,14.76h-64.46c.98,2.95,1.97,6.4,3.44,9.35h58.07c-1.97,4.92-3.94,9.84-6.89,14.76h-43.3c.98,.98,1.48,1.97,2.46,2.95,1.97,2.46,3.44,4.43,5.41,6.4h29.03c-4.92,5.91-9.84,10.83-14.27,15.25,3.94,3.94,7.38,7.38,10.83,10.83,3.44-3.44,6.4-6.89,9.84-10.83,25.1-29.03,26.08-78.24,26.08-80.21l-11.32-.49s0,3.44-.98,8.86h-73.81c.49,2.46,.98,5.91,1.48,9.35l71.85-.98Z"/><path class="cls-1" d="M317.4,338.07c-17.22,1.97-31.49,15.26-34.45,32.48,0,2.46,0,4.92,.49,6.89,0,0,26.57-17.22,79.72-11.81,0,0-55.61-1.48-89.56,24.11-2.95,1.97-5.41,4.43-7.87,6.89,7.38-18.7,11.81-38.88,12.79-59.05-.49-23.13-5.41-46.26-14.76-67.42-8.37-20.18-19.19-31-31.99-43.3-6.4-6.4-12.79-12.79-19.68-21.16-20.18-24.11-21.65-65.94-21.65-66.43l-11.32,.49c0,1.97,1.48,50.69,26.57,80.21,7.38,8.86,14.27,15.75,20.67,21.65,11.81,11.81,21.65,21.16,28.05,37.89,7.87,18.21,12.3,37.4,12.79,57.08-.98,18.7-5.41,36.91-12.79,53.64-6.89,16.73-16.24,26.08-28.05,37.89-6.4,5.91-13.29,12.79-20.67,21.65-25.1,29.03-26.08,78.24-26.57,80.21l11.32,.49c0-.49,1.48-41.83,21.65-65.94,7.38-8.37,13.78-14.76,19.68-21.16,8.86-8.37,17.22-17.72,24.11-27.56,3.94-5.41,8.37-10.33,13.29-14.27,6.89-5.91,14.27-10.33,22.64-13.29,9.35,8.37,26.08,19.68,42.81,15.75,22.14-5.91,31-33.95,61.02-37.89,7.38,0-42.81-33.95-78.24-28.05"/><path class="cls-1" d="M141.23,253.43c-3.44-9.84-19.19-18.21-19.19-18.21,0,0-7.87,16.73-4.43,26.08,2.46,7.87,13.29,9.84,16.73,10.33-.49,.49,9.84-9.84,6.89-18.21"/><path class="cls-1" d="M119.58,292.8s4.43,2.95,19.19,.49c0,0-2.95-14.27-10.33-18.21,0,0-3.94-3.44-25.59-7.38,0,0,5.41,21.65,16.73,25.1"/><path class="cls-1" d="M137.3,302.64s-4.43-3.44-27.56-8.37c0,0,5.41,23.62,17.72,27.56,0,0,4.92,2.95,20.67,.49,.49-.49-2.95-15.75-10.83-19.68"/><path class="cls-1" d="M143.2,291.32c13.29-6.89,15.25-11.81,15.25-11.81,6.89-9.35-2.46-30.02-2.46-30.02-14.27,16.24-15.75,21.16-15.75,21.16-2.95,7.87,2.95,20.67,2.95,20.67"/><path class="cls-1" d="M169.28,307.56c7.38-10.33-2.46-32.48-2.46-32.48-15.75,17.72-16.73,23.13-16.73,23.13-3.44,7.87,2.95,22.14,2.95,22.14,14.27-7.38,16.24-12.79,16.24-12.79"/><path class="cls-1" d="M91.53,217.19c-.49-1.47-1.97-1.96-2.95-1.47-1.48,.49-1.97,1.96-1.48,2.94l15.25,44.61,5.41,.98-16.24-47.06Z"/><path class="cls-1" d="M111.71,261.3h0c0-4.43,0-8.37,.49-12.79l-14.27-41.83c-.49-1.48-1.97-1.97-2.95-1.48-1.48,.49-1.97,1.97-1.48,2.95l18.21,53.15Z"/><path class="cls-1" d="M115.15,239.65c.98-2.94,1.97-5.39,2.46-7.35l-13.78-39.71c-.49-1.47-1.48-1.96-2.95-1.47-.98,.49-1.97,1.96-1.48,2.94l15.75,45.59Z"/><path class="cls-1" d="M151.07,249.99l3.44-3.94-15.26-44.78c-.49-1.48-1.97-1.97-2.95-1.48s-1.97,1.97-1.48,2.95l16.24,47.24Z"/><path class="cls-1" d="M137.36,240.14c2.93,2.95,5.86,5.91,8.29,9.35l-17.57-53.15c-.49-.98-1.46-1.97-2.93-1.48-1.46,.49-1.95,1.97-1.46,2.95l13.66,42.32Z"/><path class="cls-1" d="M123.52,230.3l6.4,4.43-15.75-46.26c-.49-1.48-1.97-1.97-2.95-1.48-.98,.49-1.97,1.97-1.48,2.95l13.78,40.35Z"/></g></svg>