<?xml version="1.0" encoding="UTF-8"?><svg id="Capa_1" xmlns="http://www.w3.org/2000/svg" viewBox="0 0 467 568.37"><defs><style>.cls-1{fill:#00486e;}.cls-2{fill:#fff;}</style></defs><path class="cls-1" d="M4.92,80.7H461.59V4.92H4.92V80.7Zm462.08,4.92H0V0H466.51V85.62h.49Z"/><polygon class="cls-1" points="16.73 17.72 38.88 17.72 38.88 24.6 32.48 24.6 32.48 67.91 23.62 67.91 23.62 24.6 16.73 24.6 16.73 17.72"/><path class="cls-1" d="M49.21,52.16h6.89l-3.44-20.18-3.44,20.18Zm-10.33,15.75l9.35-50.19h9.35l9.84,50.19h-8.86l-1.48-9.35h-8.86l-1.48,9.35h-7.87Z"/><path class="cls-1" d="M80.21,24.6v15.75h2.95c2.95,0,3.94-1.48,3.94-3.94v-7.38c0-2.95-1.48-3.94-3.94-3.94h-2.95v-.49Zm0,20.18v23.13h-8.37V17.72h12.3c8.37,0,11.81,4.43,11.81,11.32v6.4c0,5.41-1.97,8.37-6.89,9.84l7.87,22.64h-8.86l-7.87-23.13Z"/><path class="cls-1" d="M113.67,41.34h11.81v26.57h-5.91v-5.41c-.98,3.94-3.44,5.91-7.87,5.91-7.38,0-10.33-5.91-10.33-13.29V31c0-7.87,3.94-13.29,12.79-13.29,9.35,0,11.81,5.41,11.81,12.79v4.43h-7.87v-4.92c0-2.95-.98-4.92-4.43-4.92-2.95,0-4.43,1.97-4.43,4.92v27.07c0,2.95,1.48,4.92,3.94,4.92,2.95,0,3.94-1.48,3.94-4.92v-9.35h-3.94v-6.4h.49Z"/><polygon class="cls-1" points="132.37 17.72 152.55 17.72 152.55 24.6 140.74 24.6 140.74 38.88 149.11 38.88 149.11 45.77 140.74 45.77 140.74 61.02 152.55 61.02 152.55 67.91 132.37 67.91 132.37 17.72"/><polygon class="cls-1" points="156.49 17.72 178.63 17.72 178.63 24.6 171.74 24.6 171.74 67.91 163.38 67.91 163.38 24.6 156.49 24.6 156.49 17.72"/><polygon class="cls-1" points="381.87 17.72 381.87 67.91 373.5 67.91 373.5 29.53 367.6 35.92 367.6 27.07 375.47 18.21 381.87 18.21 381.87 17.72"/><polygon class="cls-1" points="387.77 17.72 408.93 17.72 408.93 25.59 398.11 67.91 389.74 67.91 401.06 24.6 388.26 24.6 388.26 17.72 387.77 17.72"/><path class="cls-1" d="M419.76,36.91c3.44,0,5.91,2.95,5.91,5.91,0,3.44-2.95,5.91-5.91,5.91-3.44,0-5.91-2.95-5.91-5.91-.49-2.95,2.46-5.91,5.91-5.91"/><polygon class="cls-1" points="446.82 17.72 446.82 67.91 438.46 67.91 438.46 29.53 432.55 35.43 432.55 27.07 440.43 18.21 446.82 18.21 446.82 17.72"/><g><rect class="cls-1" x="0" y="101.86" width="466.51" height="466.51"/><path class="cls-2" d="M410.41,324.29H247.03c-1.48,0-2.95,1.48-2.95,2.95v6.4c0,1.48,1.48,2.95,2.95,2.95h163.38c1.48,0,2.95-1.48,2.95-2.95v-6.4c0-1.97-1.48-2.95-2.95-2.95"/><path class="cls-2" d="M410.41,447.32H247.03c-1.48,0-2.95,1.48-2.95,2.95v13.29c0,1.48,.98,2.95,2.95,2.95h163.38c1.48,0,2.95-.98,2.95-2.95v-13.29c0-1.97-1.48-2.95-2.95-2.95"/><path class="cls-2" d="M412.87,312.48c-10.33-46.26-56.59-75.78-102.85-65.45-32.97,7.38-58.07,32.97-65.45,65.45v.98c0,1.48,.98,2.46,2.46,2.46h163.38c1.48,0,2.46-.98,2.46-2.46v-.98Z"/><path class="cls-2" d="M387.28,427.63h-26.08v-70.37h26.08v70.37Zm-44.29,0h-26.08v-70.37h26.08v70.37Zm-43.8,0h-26.08v-70.37h26.08v70.37Zm106.29-82.67H252.94c-1.48,0-2.95,1.48-2.95,2.95v88.58c0,1.48,1.48,2.95,2.95,2.95h152.55c1.48,0,2.95-.98,2.95-2.95v-88.58c0-1.48-1.48-2.95-2.95-2.95"/><path class="cls-2" d="M328.72,233.75v-31.49h7.87c4.92,0,9.35,.98,13.29,3.44,4.92,4.92,11.81,7.38,18.7,7.38h11.81v31.49h-12.3c-4.92-.49-9.84-1.97-13.78-4.43-4.43-3.94-10.33-5.91-16.24-5.91-10.33-.49-9.35-.49-9.35-.49"/><path class="cls-2" d="M103.83,256.38v67.42c0,.49,.49,.98,.98,.98h55.61c.49,0,.98-.49,.98-.98v-67.42h21.65l-51.18-50.19-50.69,50.19h22.64Z"/><path class="cls-2" d="M121.55,451.25c-2.46,1.48-4.92,2.46-7.38,3.44-7.38,1.97-15.25,2.95-23.13,2.95-3.94,0-7.87-.49-11.32-.98-2.46-.49-4.43-.98-6.89-1.48-.98-.49-2.46-.49-3.44-.98-3.44-.98-6.4-2.46-8.86-4.43-.98-.98-1.97-1.48-2.46-2.95v7.38c0,1.97,.98,3.94,2.46,4.92,5.41,3.94,11.32,6.4,18.21,6.89,4.43,.49,8.86,.98,13.29,.98,6.4,0,12.79-.49,19.19-1.97,3.44-.98,6.4-1.97,9.35-3.94,2.95-1.97,4.92-4.43,4.92-6.89v-7.38c-.98,2.46-2.46,3.44-3.94,4.43"/><path class="cls-2" d="M58.07,407.46c.49-1.48,.98-2.95,2.46-3.94,.98,.98,1.97,1.97,3.44,2.46,8.86,3.94,18.21,5.91,28.05,5.91,8.37,0,16.24-.98,24.11-3.94,.98-.49,1.97-.98,2.95-1.48v.98c0,4.92-12.79,10.33-30.51,10.33s-30.51-5.41-30.51-10.33m33.95-27.07c18.21,0,30.51,5.41,30.51,10.33s-12.79,10.33-30.51,10.33-30.51-5.41-30.51-10.33,12.3-10.33,30.51-10.33m-3.44,47.73c18.7,0,33.95-5.91,33.95-12.79,0,0,.49-6.4,0-7.87,0-.98,0-1.97-.49-2.95,1.97-.98,3.44-3.44,3.94-5.91,0,0,.49-7.38,0-8.86-.98-8.86-18.21-13.29-33.95-13.29s-33.95,4.92-33.95,13.78c0,.49,.49,7.87,.49,7.87,0,.49,0,.98,.49,1.48-2.46,1.48-3.94,3.94-4.43,6.89,0,.49,.49,7.87,.49,7.87,0,1.97,.98,3.94,2.95,4.92,5.41,3.94,11.81,6.4,18.21,6.89,3.44,1.48,7.87,1.97,12.3,1.97"/><path class="cls-2" d="M78.24,454.7c4.43,.49,8.86,.98,13.29,.98,6.4,0,12.79-.49,19.19-1.97,3.44-.98,6.89-1.97,9.84-3.94,.98-.49,1.48-.98,1.97-1.48,.98-.98,1.97-1.97,2.46-3.44,0-.49,.49-.98,.49-1.97v-7.87c-.98,1.48-3.94,6.4-17.22,8.86-5.91,.98-11.32,1.48-17.22,1.48-9.35,0-18.7-1.48-27.07-5.41-1.48-.98-2.95-1.97-4.43-2.95-.98-.98-1.48-1.48-1.97-2.46v8.37c0,1.97,.98,3.94,2.46,4.92,5.41,3.94,11.81,5.91,18.21,6.89"/><path class="cls-2" d="M124.99,419.76q-.49-.49-.98-.98c-.49-.49-.98-.49-1.48-.98-.49,.98-.98,1.48-1.48,1.97,.49,0,.98,.49,1.48,.98,.98,.49,1.48,1.48,1.48,2.46s-.49,1.97-.98,2.46c-.49,.49-.98,.98-1.48,.98l-1.97,.98s-1.97,.98-2.95,1.48l-2.95,.98-3.94,.98s-3.44,.49-4.92,.98c-.49,0-3.94,.49-5.41,.49l-7.87,.49c-3.44,0-7.38-.49-10.83-.98-2.46-.49-5.41-.98-7.38-1.48-2.95-.49-5.41-1.48-8.37-2.46-1.48-.49-2.95-1.48-3.94-2.95-.98-.98-1.97-2.46-2.95-3.44v8.37c0,1.97,.98,3.94,2.46,4.92,5.41,3.94,11.32,5.91,18.21,6.89,4.43,.49,8.86,.98,13.29,.98,6.4,0,12.79-.49,19.19-1.97,3.44-.98,6.4-1.97,9.84-3.94,.49-.49,1.48-.98,1.97-1.48,.98-.98,1.97-1.97,2.46-3.44,0-.49,.49-.98,.49-1.97l.49-7.38c0-.49,0-.98-.49-1.97-.49,0-.49-.49-.98-.98"/><path class="cls-2" d="M135.82,382.36c.49-1.48,1.48-2.95,2.46-3.94,.98,.98,1.97,1.97,3.44,2.46,8.86,3.94,18.21,5.91,28.05,5.91,8.37,0,16.24-.98,24.11-3.94,.98-.49,1.97-.98,2.95-1.48v.98c0,4.92-12.3,10.33-30.51,10.33s-30.51-5.41-30.51-10.33m33.95-26.57c18.21,0,30.51,5.41,30.51,10.33s-12.79,10.33-30.51,10.33-30.51-5.41-30.51-10.33,12.79-10.33,30.51-10.33m-3.44,47.24c18.7,0,33.95-5.91,33.95-12.79,0,0,.49-6.4,0-7.87,0-.98,0-1.97-.49-2.95,1.97-.98,3.44-3.44,3.94-5.91,0,0,.49-7.38,0-8.86-.98-8.86-18.21-13.29-33.95-13.29s-34.45,4.92-34.45,13.78c0,.49,.49,7.87,.49,7.87,0,.49,0,.98,.49,1.48-1.97,1.48-3.44,3.94-3.44,6.89,0,.49,.49,7.87,.49,7.87,0,1.97,.98,3.94,2.46,4.92,5.41,3.94,11.32,5.91,18.21,6.89,3.44,1.97,7.87,1.97,12.3,1.97"/><path class="cls-2" d="M203.73,396.14c0-.49-.49-.98-.98-1.48q-.49-.49-.98-.98c-.49-.49-.98-.49-1.48-.98-.49,.98-.98,1.48-1.48,1.97,.49,0,.98,.49,1.48,.98,.98,.49,1.48,1.48,1.48,2.46s-.49,1.97-.98,2.46c-.49,.49-.98,.49-1.48,.98l-1.97,.98-2.95,1.48-2.95,.98c-.49,0-2.95,.98-3.94,.98l-4.92,.98-5.41,.49c-.49,0-5.41,.49-7.87,.49-3.44,0-7.38-.49-10.83-.98-2.46,0-4.92-.49-7.38-.98-2.95-.49-5.41-1.48-8.37-2.46-1.48-.98-2.95-1.97-4.43-2.95-.98-.98-1.97-2.46-2.46-3.44v8.37c0,1.97,.98,3.94,2.46,4.92,5.41,3.94,11.32,6.4,18.21,6.89,4.43,.49,8.86,.98,13.29,.98,6.4,0,12.79-.49,19.19-1.97,3.44-.98,6.89-1.97,9.84-3.94,.98-.49,1.48-.98,1.97-1.48,.98-.98,1.97-1.97,2.46-3.44,0-.49,.49-.98,.49-1.97l.49-7.38c0-.49,0-1.48-.49-1.97"/><path class="cls-2" d="M199.79,426.65c-2.46,1.48-4.92,2.46-7.38,3.44-7.38,1.97-15.25,3.44-23.13,2.95-3.94,0-7.87-.49-11.32-.98-2.46-.49-4.43-.98-6.89-1.48l-3.44-.98c-3.44-.98-6.4-2.46-8.86-4.43-.98-.98-1.97-1.48-2.46-2.95v7.38c0,1.97,.98,3.94,2.46,4.92,5.41,3.94,11.32,6.4,18.21,6.89,4.43,.49,8.86,.98,13.29,.98,6.4,0,12.79-.49,19.19-1.97,3.44-.98,6.89-1.97,9.84-3.94,2.95-1.97,4.92-4.43,4.92-6.4v-7.87c-1.48,1.97-2.95,3.44-4.43,4.43"/><path class="cls-2" d="M138.77,422.71c5.41,3.94,11.32,6.4,18.21,6.89,4.43,.49,8.86,.98,13.29,.98,6.4,0,12.79-.49,19.19-1.97,3.44-.98,6.4-1.97,9.84-3.94,.98-.49,1.48-.98,1.97-1.48,.98-.98,1.97-1.97,2.46-3.44,0-.49,.49-.98,.49-1.97v-7.38c-.98,1.48-3.94,5.91-17.22,8.86-5.91,.98-11.32,1.48-17.22,1.48-9.35,0-18.7-1.48-27.07-5.41-1.48-.98-2.95-1.97-4.43-2.95-.98-.98-1.48-1.48-1.97-2.46v8.37c-.98,1.97,.49,3.44,2.46,4.43"/><path class="cls-2" d="M204.22,447.32c-.98,1.48-2.46,2.95-3.94,3.94-2.46,1.48-4.92,2.46-7.38,3.44-7.38,1.97-15.26,3.44-23.13,2.95-3.94,0-7.87-.49-11.32-.98-2.46-.49-4.92-.49-6.89-1.48-.98-.49-2.46-.49-3.44-.98-3.44-.98-6.4-2.46-8.86-4.43-.98-.98-1.97-1.48-2.46-2.95v7.38c0,1.97,.98,3.94,2.46,4.92,5.41,3.94,11.32,5.91,18.21,6.89,4.43,.49,8.86,.98,13.29,.98,6.4,0,12.79-.49,18.7-1.97,3.44-.98,6.4-1.97,9.35-3.94,2.46-.98,4.43-3.94,4.92-6.4-.49,.49,.49-6.89,.49-7.38"/><path class="cls-2" d="M156.98,454.21c4.43,.49,8.86,.98,13.29,.98,6.4,0,12.79-.49,19.19-1.97,3.44-.98,6.4-1.97,9.35-3.94,.98-.49,1.48-.98,1.97-1.48,.98-.98,1.97-1.97,2.46-3.44,0-.49,.49-.98,.49-1.97v-7.38c-.98,1.48-3.94,5.91-17.22,8.86-5.91,.98-11.32,1.48-17.22,1.48-9.35,0-18.7-1.48-27.07-5.41-1.48-.98-2.95-1.97-4.43-2.95-.98-.98-1.48-1.48-1.97-2.46v8.37c0,1.97,.98,3.94,2.46,4.92,5.41,3.94,11.81,5.91,18.7,6.4"/></g></svg>