<?xml version="1.0" encoding="UTF-8"?><svg id="Capa_1" xmlns="http://www.w3.org/2000/svg" viewBox="0 0 467 568.37"><defs><style>.cls-1{fill:#00b3dc;}.cls-2{fill:#fff;}</style></defs><path class="cls-1" d="M4.92,80.7H461.59V4.92H4.92V80.7Zm462.08,4.92H0V0H466.51V85.62h.49Z"/><polygon class="cls-1" points="16.73 17.72 38.88 17.72 38.88 24.6 32.48 24.6 32.48 67.91 23.62 67.91 23.62 24.6 16.73 24.6 16.73 17.72"/><path class="cls-1" d="M49.21,52.16h6.89l-3.44-20.18-3.44,20.18Zm-10.33,15.75l9.35-50.19h9.35l9.84,50.19h-8.86l-1.48-9.35h-8.86l-1.48,9.35h-7.87Z"/><path class="cls-1" d="M80.21,24.6v15.75h2.95c2.95,0,3.94-1.48,3.94-3.94v-7.38c0-2.95-1.48-3.94-3.94-3.94h-2.95v-.49Zm0,20.18v23.13h-8.37V17.72h12.3c8.37,0,11.81,4.43,11.81,11.32v6.4c0,5.41-1.97,8.37-6.89,9.84l7.87,22.64h-8.86l-7.87-23.13Z"/><path class="cls-1" d="M113.67,41.34h11.81v26.57h-5.91v-5.41c-.98,3.94-3.44,5.91-7.87,5.91-7.38,0-10.33-5.91-10.33-13.29V31c0-7.87,3.94-13.29,12.79-13.29,9.35,0,11.81,5.41,11.81,12.79v4.43h-7.87v-4.92c0-2.95-.98-4.92-4.43-4.92-2.95,0-4.43,1.97-4.43,4.92v27.07c0,2.95,1.48,4.92,3.94,4.92,2.95,0,3.94-1.48,3.94-4.92v-9.35h-3.94v-6.4h.49Z"/><polygon class="cls-1" points="132.37 17.72 152.55 17.72 152.55 24.6 140.74 24.6 140.74 38.88 149.11 38.88 149.11 45.77 140.74 45.77 140.74 61.02 152.55 61.02 152.55 67.91 132.37 67.91 132.37 17.72"/><polygon class="cls-1" points="156.49 17.72 178.63 17.72 178.63 24.6 171.74 24.6 171.74 67.91 163.38 67.91 163.38 24.6 156.49 24.6 156.49 17.72"/><path class="cls-1" d="M431.08,52.16h6.89l-3.44-20.18-3.44,20.18Zm-10.33,15.75l9.35-50.19h9.35l9.35,50.19h-8.86l-1.48-9.35h-8.86l-1.48,9.35h-7.38Z"/><path class="cls-1" d="M384.82,56.59v-8.86c0-3.44-.98-4.92-3.94-4.92-2.46,0-3.94,1.97-3.94,4.43v9.35c0,2.95,.98,4.92,3.94,4.92,2.46,0,3.94-1.97,3.94-4.92m-16.24-1.48V30.51c0-7.87,3.44-13.29,12.3-13.29,9.35,0,11.81,5.41,11.81,12.79v2.46h-7.87v-3.44c0-2.95-.98-4.92-3.94-4.92s-3.94,1.97-3.94,4.92v10.83c1.48-2.46,3.44-3.94,6.89-3.94,5.91,0,9.35,3.94,9.35,12.3v7.38c0,7.87-3.44,12.79-12.3,12.79s-12.3-5.41-12.3-13.29"/><polygon class="cls-1" points="404.01 32.48 404.01 53.15 414.84 42.81 404.01 32.48"/><g><rect class="cls-1" x="0" y="101.86" width="466.51" height="466.51"/><path class="cls-2" d="M82.18,276.07c-1.48,1.48-3.94,2.46-6.4,1.97-2.46,0-4.43-.49-6.4-1.97-2.95-2.95-3.44-7.87-.98-11.32,.98-1.48,6.89-10.83,7.38-11.32,.49,.98,6.4,9.84,7.38,11.32,2.46,3.44,1.97,8.37-.98,11.32"/><path class="cls-2" d="M130.34,295.75c-3.43,2.95-8.82,2.95-12.25,0-2.94-2.95-3.43-7.87-.98-11.32,.98-1.48,6.86-10.83,7.35-11.32,.49,.98,6.37,9.84,7.35,11.32,1.96,3.44,1.47,7.87-1.47,11.32"/><path class="cls-2" d="M109.25,185.52c-3.44,2.95-8.86,2.95-12.3,0-2.95-2.95-3.44-7.87-.98-11.32,.98-1.48,6.89-10.83,7.38-11.32,.49,.98,6.4,9.84,7.38,11.32,1.48,3.44,.98,8.37-1.48,11.32"/><path class="cls-2" d="M195.36,288.37c-3.44,2.95-8.86,2.95-12.3,0-2.95-2.95-3.44-7.87-.98-11.32,.98-1.48,6.89-10.83,7.38-11.32,.49,.98,6.4,9.84,7.38,11.32,1.97,3.44,1.48,8.37-1.48,11.32"/><path class="cls-2" d="M77.75,222.92c-1.48,1.48-3.94,2.46-6.4,1.97-2.46,0-4.43-.49-6.4-1.97-2.95-2.95-3.44-7.87-.98-11.32,.98-1.48,6.89-10.83,7.38-11.32,.49,.98,6.4,9.84,7.38,11.32,2.46,3.44,1.97,7.87-.98,11.32"/><path class="cls-2" d="M144.18,215.05c-3.44,2.95-8.86,2.95-12.3,0-2.95-2.95-3.44-7.87-.98-11.32,.98-1.48,6.89-10.83,7.38-11.32,.49,.98,6.4,9.84,7.38,11.32,1.97,3.94,1.48,8.37-1.48,11.32"/><path class="cls-2" d="M197.82,232.76c-3.44,2.95-8.86,2.95-12.3,0-2.95-2.95-3.44-7.87-.98-11.32,.98-1.48,6.89-10.83,7.38-11.32,.49,.98,6.4,9.84,7.38,11.32,1.97,3.44,1.48,7.87-1.48,11.32"/><path class="cls-2" d="M176.66,187.98c-3.44,2.95-8.86,2.95-12.3,0-2.95-2.95-3.44-7.87-.98-11.32,.98-1.48,6.89-10.83,7.38-11.32,.49,.98,6.4,9.84,7.38,11.32,1.97,3.44,1.48,8.37-1.48,11.32"/><path class="cls-2" d="M116.63,247.52c-1.48,1.48-3.94,2.46-6.4,1.97-2.46,0-4.43-.49-6.4-1.97-2.95-2.95-3.44-7.87-.98-11.32,.98-1.48,6.89-10.83,7.38-11.32,.49,.98,6.4,9.84,7.38,11.32,2.46,3.44,1.97,8.37-.98,11.32"/><path class="cls-2" d="M163.38,259.83c-3.44,2.95-8.86,2.95-12.3,0-2.95-2.95-3.44-7.87-.98-11.32,.98-1.48,6.89-10.83,7.38-11.32,.49,.98,6.4,9.84,7.38,11.32,1.97,3.94,1.48,8.37-1.48,11.32"/><polygon class="cls-2" points="217.01 313.96 217.01 441.41 50.19 441.41 50.19 313.96 43.8 313.96 43.8 447.81 223.41 447.81 223.41 313.96 217.01 313.96"/><path class="cls-2" d="M59.54,376.95h0c32.48,30.02,66.43,4.92,73.32-.98l.49-.49h.98l.49,.49c6.89,5.91,40.35,30.51,72.34,1.48l.98-.98q.49-.49,.49-.98v-15.75c0-.98-.49-1.48-1.48-1.48h-.49l-.49,.49c-9.84,6.89-41.83,26.08-70.86-.49l.49-.49c-.49-.49-.98-.49-1.48-.49s-.98,0-.98,.49l-.49,.49c-28.54,26.57-60.04,8.37-70.37,.98l-.98-.49h-.98c-.98,0-1.48,.49-1.48,1.48v15.75c.49,0,.49,.49,.49,.98"/><path class="cls-2" d="M59.54,412.87h0c32.48,30.02,66.43,5.41,73.32-.98l.98-.49h.98l.49,.49c6.89,5.91,40.35,30.51,72.34,1.48l.98-.98q.49-.49,.49-.98v-16.24c0-.98-.49-1.48-1.48-1.48h-.49l-.49,.49c-9.84,6.89-41.83,26.57-70.86-.49l-.49-.49c-.49-.49-.98-.49-1.48-.49s-.98,0-.98,.49l-.49,.49c-28.54,26.57-60.04,8.37-70.37,.98l-.98-.49h-.98c-.98,0-1.48,.49-1.48,1.48v16.24c.98,.49,.98,.98,.98,.98"/><path class="cls-2" d="M62,344.47c1.48,0,2.46-.98,2.46-2.46s-.98-2.46-2.46-2.46-2.46,.98-2.46,2.46,.98,2.46,2.46,2.46"/><path class="cls-2" d="M73.32,339.55c1.36,0,2.46,1.1,2.46,2.46s-1.1,2.46-2.46,2.46-2.46-1.1-2.46-2.46,1.1-2.46,2.46-2.46"/><path class="cls-2" d="M84.64,339.55c1.36,0,2.46,1.1,2.46,2.46s-1.1,2.46-2.46,2.46-2.46-1.1-2.46-2.46,1.1-2.46,2.46-2.46"/><path class="cls-2" d="M95.96,344.47c1.48-.49,1.97-1.97,1.97-2.95s-.98-1.48-1.97-1.97c-1.48,.49-1.97,1.97-1.97,2.95,.49,.98,.98,1.97,1.97,1.97"/><path class="cls-2" d="M106.79,339.55c1.36,0,2.46,1.1,2.46,2.46s-1.1,2.46-2.46,2.46-2.46-1.1-2.46-2.46,1.1-2.46,2.46-2.46"/><path class="cls-2" d="M118.1,339.55c1.36,0,2.46,1.1,2.46,2.46s-1.1,2.46-2.46,2.46-2.46-1.1-2.46-2.46,1.1-2.46,2.46-2.46"/><path class="cls-2" d="M129.42,339.55c1.36,0,2.46,1.1,2.46,2.46s-1.1,2.46-2.46,2.46-2.46-1.1-2.46-2.46,1.1-2.46,2.46-2.46"/><path class="cls-2" d="M140.74,339.55c1.36,0,2.46,1.1,2.46,2.46s-1.1,2.46-2.46,2.46-2.46-1.1-2.46-2.46,1.1-2.46,2.46-2.46"/><path class="cls-2" d="M152.06,344.47c1.48,0,2.46-.98,2.46-2.46s-.98-2.46-2.46-2.46-2.46,.98-2.46,2.46c-.49,1.48,.98,2.46,2.46,2.46"/><path class="cls-2" d="M162.88,339.55c1.36,0,2.46,1.1,2.46,2.46s-1.1,2.46-2.46,2.46-2.46-1.1-2.46-2.46,1.1-2.46,2.46-2.46"/><path class="cls-2" d="M174.2,339.55c1.36,0,2.46,1.1,2.46,2.46s-1.1,2.46-2.46,2.46-2.46-1.1-2.46-2.46,1.1-2.46,2.46-2.46"/><path class="cls-2" d="M185.52,339.55c1.36,0,2.46,1.1,2.46,2.46s-1.1,2.46-2.46,2.46-2.46-1.1-2.46-2.46,1.1-2.46,2.46-2.46"/><path class="cls-2" d="M196.84,344.47c1.48,0,2.46-.98,2.46-2.46s-.98-2.46-2.46-2.46-2.46,.98-2.46,2.46,.98,2.46,2.46,2.46"/><path class="cls-2" d="M207.66,339.55c1.36,0,2.46,1.1,2.46,2.46s-1.1,2.46-2.46,2.46-2.46-1.1-2.46-2.46,1.1-2.46,2.46-2.46"/><path class="cls-2" d="M68.4,330.69c1.36,0,2.46,1.1,2.46,2.46s-1.1,2.46-2.46,2.46-2.46-1.1-2.46-2.46,1.1-2.46,2.46-2.46"/><path class="cls-2" d="M79.72,330.69c1.36,0,2.46,1.1,2.46,2.46s-1.1,2.46-2.46,2.46-2.46-1.1-2.46-2.46,1.1-2.46,2.46-2.46"/><path class="cls-2" d="M90.55,330.69c1.36,0,2.46,1.1,2.46,2.46s-1.1,2.46-2.46,2.46-2.46-1.1-2.46-2.46,1.1-2.46,2.46-2.46"/><path class="cls-2" d="M101.86,330.69c1.36,0,2.46,1.1,2.46,2.46s-1.1,2.46-2.46,2.46-2.46-1.1-2.46-2.46,1.1-2.46,2.46-2.46"/><path class="cls-2" d="M113.18,330.69c1.36,0,2.46,1.1,2.46,2.46s-1.1,2.46-2.46,2.46-2.46-1.1-2.46-2.46,1.1-2.46,2.46-2.46"/><path class="cls-2" d="M124.5,330.69c1.36,0,2.46,1.1,2.46,2.46s-1.1,2.46-2.46,2.46-2.46-1.1-2.46-2.46,1.1-2.46,2.46-2.46"/><path class="cls-2" d="M135.82,330.69c1.36,0,2.46,1.1,2.46,2.46s-1.1,2.46-2.46,2.46-2.46-1.1-2.46-2.46,1.1-2.46,2.46-2.46"/><path class="cls-2" d="M146.64,330.69c1.36,0,2.46,1.1,2.46,2.46s-1.1,2.46-2.46,2.46-2.46-1.1-2.46-2.46,1.1-2.46,2.46-2.46"/><path class="cls-2" d="M157.96,330.69c1.36,0,2.46,1.1,2.46,2.46s-1.1,2.46-2.46,2.46-2.46-1.1-2.46-2.46,1.1-2.46,2.46-2.46"/><path class="cls-2" d="M169.28,335.61c1.48,0,2.46-.98,2.46-2.46s-.98-2.46-2.46-2.46-2.46,.98-2.46,2.46,.98,2.46,2.46,2.46"/><path class="cls-2" d="M180.6,330.69c1.36,0,2.46,1.1,2.46,2.46s-1.1,2.46-2.46,2.46-2.46-1.1-2.46-2.46,1.1-2.46,2.46-2.46"/><path class="cls-2" d="M191.43,330.69c1.36,0,2.46,1.1,2.46,2.46s-1.1,2.46-2.46,2.46-2.46-1.1-2.46-2.46,1.1-2.46,2.46-2.46"/><path class="cls-2" d="M202.74,330.69c1.36,0,2.46,1.1,2.46,2.46s-1.1,2.46-2.46,2.46-2.46-1.1-2.46-2.46,1.1-2.46,2.46-2.46"/><path class="cls-2" d="M62.5,322.32c1.36,0,2.46,1.1,2.46,2.46s-1.1,2.46-2.46,2.46-2.46-1.1-2.46-2.46,1.1-2.46,2.46-2.46"/><path class="cls-2" d="M73.81,327.24c1.48-.49,2.46-1.48,1.97-2.95,0-.98-.98-1.97-1.97-1.97-1.48-.49-2.46,.49-2.95,1.97-.49,1.48,.49,2.46,1.97,2.95h.98Z"/><path class="cls-2" d="M85.13,327.24c1.48,0,2.46-.98,2.46-2.46s-.98-2.46-2.46-2.46-2.46,.98-2.46,2.46,.98,2.46,2.46,2.46"/><path class="cls-2" d="M96.45,322.32c1.36,0,2.46,1.1,2.46,2.46s-1.1,2.46-2.46,2.46-2.46-1.1-2.46-2.46,1.1-2.46,2.46-2.46"/><path class="cls-2" d="M107.77,322.32c1.36,0,2.46,1.1,2.46,2.46s-1.1,2.46-2.46,2.46-2.46-1.1-2.46-2.46,1.1-2.46,2.46-2.46"/><path class="cls-2" d="M118.6,322.32c1.36,0,2.46,1.1,2.46,2.46s-1.1,2.46-2.46,2.46-2.46-1.1-2.46-2.46,1.1-2.46,2.46-2.46"/><path class="cls-2" d="M129.91,327.24c1.48-.49,2.46-1.48,1.97-2.95,0-.98-.98-1.97-1.97-1.97-1.48-.49-2.46,.49-2.95,1.97-.49,1.48,.49,2.46,1.97,2.95h.98Z"/><path class="cls-2" d="M141.23,322.32c1.36,0,2.46,1.1,2.46,2.46s-1.1,2.46-2.46,2.46-2.46-1.1-2.46-2.46,1.1-2.46,2.46-2.46"/><path class="cls-2" d="M152.55,322.32c1.36,0,2.46,1.1,2.46,2.46s-1.1,2.46-2.46,2.46-2.46-1.1-2.46-2.46,1.1-2.46,2.46-2.46"/><path class="cls-2" d="M163.38,322.32c1.36,0,2.46,1.1,2.46,2.46s-1.1,2.46-2.46,2.46-2.46-1.1-2.46-2.46,1.1-2.46,2.46-2.46"/><path class="cls-2" d="M174.69,322.32c1.36,0,2.46,1.1,2.46,2.46s-1.1,2.46-2.46,2.46-2.46-1.1-2.46-2.46,1.1-2.46,2.46-2.46"/><path class="cls-2" d="M186.01,327.24c1.48,0,2.46-.98,2.46-2.46s-.98-2.46-2.46-2.46-2.46,.98-2.46,2.46,.98,2.46,2.46,2.46"/><path class="cls-2" d="M197.33,322.32c1.36,0,2.46,1.1,2.46,2.46s-1.1,2.46-2.46,2.46-2.46-1.1-2.46-2.46,1.1-2.46,2.46-2.46"/><path class="cls-2" d="M208.65,322.32c1.36,0,2.46,1.1,2.46,2.46s-1.1,2.46-2.46,2.46-2.46-1.1-2.46-2.46,1.1-2.46,2.46-2.46"/><path class="cls-2" d="M411.88,320.36c-4.92-1.48-10.33-1.48-14.76,.98-19.19,7.87-32.48,10.83-52.65,4.43-12.79-3.94-24.6-12.3-38.88-7.38-8.86,3.94-18.7,6.4-28.54,6.4l-6.4-31h145.66l-4.43,26.57Zm-49.21,93.5c-10.83,8.37-26.08,8.37-37.4,0-8.86-8.86-10.33-23.13-3.44-33.46,2.46-4.92,20.67-31.49,22.14-33.95,1.48,2.46,19.68,29.03,22.14,33.95,6.4,10.33,4.92,24.11-3.44,33.46m60.04-126.47c-.49-.49-.98-.49-1.48-.49h-155.5c-.49,0-.98,0-1.48,.49-.49,.49-.49,.98-.49,1.48l26.08,157.96c0,.98,.98,1.48,1.97,1.48h31.99l1.97,23.13h-7.87c-.98,0-1.48,.49-1.48,1.48q0,.49,.49,.98v.49l25.59,32.97,.49,.49c.49,.49,.98,.49,1.48,.49s.98,0,.98-.49l.49-.49,25.1-32.97q.49-.49,.49-.98c0-.98-.49-1.48-1.48-1.48h-7.38l1.97-23.13h32.48c.98,0,1.48-.49,1.97-1.48l24.6-157.96c-.49-.98-.49-1.48-.98-1.97"/></g></svg>