<?xml version="1.0" encoding="UTF-8"?><svg id="Capa_1" xmlns="http://www.w3.org/2000/svg" viewBox="0 0 467 568.37"><defs><style>.cls-1{fill:#fff;}.cls-2{fill:#e5006a;}</style></defs><path class="cls-2" d="M4.92,80.7H461.59V4.92H4.92V80.7Zm462.08,4.92H0V0H466.51V85.62h.49Z"/><polygon class="cls-2" points="16.73 17.72 38.88 17.72 38.88 24.6 32.48 24.6 32.48 67.91 23.62 67.91 23.62 24.6 16.73 24.6 16.73 17.72"/><path class="cls-2" d="M49.21,52.16h6.89l-3.44-20.18-3.44,20.18Zm-10.33,15.75l9.35-50.19h9.35l9.84,50.19h-8.86l-1.48-9.35h-8.86l-1.48,9.35h-7.87Z"/><path class="cls-2" d="M80.21,24.6v15.75h2.95c2.95,0,3.94-1.48,3.94-3.94v-7.38c0-2.95-1.48-3.94-3.94-3.94h-2.95v-.49Zm0,20.18v23.13h-8.37V17.72h12.3c8.37,0,11.81,4.43,11.81,11.32v6.4c0,5.41-1.97,8.37-6.89,9.84l7.87,22.64h-8.86l-7.87-23.13Z"/><path class="cls-2" d="M113.67,41.34h11.81v26.57h-5.91v-5.41c-.98,3.94-3.44,5.91-7.87,5.91-7.38,0-10.33-5.91-10.33-13.29V31c0-7.87,3.94-13.29,12.79-13.29,9.35,0,11.81,5.41,11.81,12.79v4.43h-7.87v-4.92c0-2.95-.98-4.92-4.43-4.92-2.95,0-4.43,1.97-4.43,4.92v27.07c0,2.95,1.48,4.92,3.94,4.92,2.95,0,3.94-1.48,3.94-4.92v-9.35h-3.94v-6.4h.49Z"/><polygon class="cls-2" points="132.37 17.72 152.55 17.72 152.55 24.6 140.74 24.6 140.74 38.88 149.11 38.88 149.11 45.77 140.74 45.77 140.74 61.02 152.55 61.02 152.55 67.91 132.37 67.91 132.37 17.72"/><polygon class="cls-2" points="156.49 17.72 178.63 17.72 178.63 24.6 171.74 24.6 171.74 67.91 163.38 67.91 163.38 24.6 156.49 24.6 156.49 17.72"/><polygon class="cls-2" points="366.61 17.72 366.61 67.91 358.25 67.91 358.25 29.53 352.34 35.43 352.34 27.07 360.21 18.21 366.61 18.21 366.61 17.72"/><path class="cls-2" d="M390.23,56.59V29.53c0-2.95-.98-4.92-3.94-4.92s-3.94,1.97-3.94,4.92v27.07c0,2.95,.98,4.92,3.94,4.92,2.46,0,3.94-1.97,3.94-4.92m-16.73-1.48V31c0-7.87,3.94-13.29,12.3-13.29s12.3,5.91,12.3,13.29v24.11c0,7.87-3.94,13.29-12.3,13.29s-12.3-5.41-12.3-13.29"/><path class="cls-2" d="M412.38,36.91c3.44,0,5.91,2.95,5.91,5.91,0,3.44-2.95,5.91-5.91,5.91-3.44,0-5.91-2.95-5.91-5.91-.49-2.95,2.46-5.91,5.91-5.91"/><path class="cls-2" d="M425.66,58.56c0-4.92,1.48-8.37,6.4-13.29l4.92-4.92c2.95-2.95,2.95-4.43,2.95-8.86v-3.44c0-2.95-1.48-3.94-2.95-3.94-1.97,0-3.44,.98-3.44,3.94v6.4h-7.87v-6.4c0-6.89,3.94-10.83,11.32-10.83s10.83,3.44,10.83,10.33v4.92c0,4.92-.98,7.87-5.41,12.79l-5.41,5.91c-1.97,2.46-3.44,3.94-3.44,7.87v2.46h13.78v6.89h-21.65v-9.84Z"/><g><rect class="cls-2" y="101.86" width="466.51" height="466.51"/><path class="cls-1" d="M281.48,233.25h123.52c.98,0,1.97,.98,1.97,1.97v4.92c0,.98-.98,1.97-1.97,1.97h-123.52c-.98,0-1.97-.98-1.97-1.97v-4.92c0-.98,.98-1.97,1.97-1.97"/><path class="cls-1" d="M281.48,326.26h123.52c.98,0,1.97,.98,1.97,1.97v9.84c0,.98-.98,1.97-1.97,1.97h-123.52c-.98,0-1.97-.98-1.97-1.97v-9.84c0-.98,.98-1.97,1.97-1.97"/><path class="cls-1" d="M281.48,227.35h124.01c.98,0,1.97-.98,1.97-1.97v-.98c-7.87-34.94-42.81-57.08-77.75-49.21-24.6,5.41-43.8,24.6-49.21,49.21v.98c-.49,.49,0,1.48,.98,1.97"/><path class="cls-1" d="M301.66,258.35h19.68v53.15h-19.68v-53.15Zm32.97,0h19.68v53.15h-19.68v-53.15Zm33.46,0h19.68v53.15h-19.68v-53.15Zm33.46,62c.98,0,1.97-.98,1.97-1.97v-66.93c0-.98-.98-1.97-1.97-1.97h-115.15c-.98,0-1.97,.98-1.97,1.97v66.93c0,.98,.98,1.97,1.97,1.97h115.15Z"/><path class="cls-1" d="M350.87,164.85c4.43,0,8.86,1.48,12.3,4.43,2.95,1.97,6.89,3.44,10.83,3.44h9.35v-23.62h-9.35c-5.41,0-10.33-1.97-14.27-5.41-2.95-1.97-6.89-2.46-10.33-2.46h-5.91v23.62h7.38Z"/><path class="cls-1" d="M86.12,405.49c6.89,0,12.79-5.41,12.79-12.79,0-4.43-2.46-8.86-6.4-11.32,.49-.49,.49-1.48,.49-1.97-.49-2.95-3.44-5.41-6.4-4.92-2.95-.49-5.91,1.97-6.4,4.92,0,.49,0,1.48,.49,1.97-6.4,2.95-8.86,10.33-5.91,16.73,1.97,4.43,6.4,7.38,11.32,7.38"/><path class="cls-1" d="M122.04,451.74l-10.33-33.95s-3.94-9.84-11.81-9.84h-27.56c-8.37,0-11.81,9.84-11.81,9.84l-10.33,33.95s-1.48,5.41,2.46,7.38l-.49,.49-12.3,64.46c0,.98,.49,1.97,1.48,2.46h.49c.98,0,1.97-.49,1.97-1.48l12.3-64.46v-.49c3.44-.49,4.43-4.92,4.43-4.92l8.37-28.05s.49-1.97,1.97-1.48,.98,2.95,.98,2.95l-14.76,53.15h13.78v38.38c-.49,3.44,2.46,6.89,5.91,7.38,3.44,.49,6.89-2.46,7.38-5.91v-40.84h3.94v38.38c-.49,3.44,2.46,6.89,5.91,7.38,3.44,.49,6.89-2.46,7.38-5.91v-39.86h13.78l-14.76-53.15s-.49-2.46,.98-2.95c1.48-.49,1.97,1.48,1.97,1.48l8.86,28.54s1.48,5.91,6.89,4.43c5.41-1.48,2.95-7.38,2.95-7.38"/><path class="cls-1" d="M223.41,403.52c6.89,0,12.3-5.41,12.3-12.3s-5.41-12.3-12.3-12.3-12.3,5.41-12.3,12.3c-.49,6.89,5.41,12.3,12.3,12.3"/><path class="cls-1" d="M258.35,453.22l-10.33-33.46s-3.94-9.84-11.81-9.84h-26.08c-8.37,0-11.81,9.84-11.81,9.84l-10.33,33.46s-1.97,5.91,3.44,7.87c5.41,1.97,6.89-4.43,6.89-4.43l8.37-28.05s.49-1.97,1.97-1.48c1.48,.49,.98,2.95,.98,2.95l-14.27,52.65h13.29v37.89c.49,3.44,3.44,6.4,6.89,5.91,2.95-.49,5.41-2.95,5.91-5.91v-37.89h3.44v37.89c0,3.44,2.95,6.4,6.4,6.4s6.4-2.95,6.4-6.4v-37.89h13.29l-14.27-52.65s-.49-2.46,.98-2.95c1.48-.49,1.97,1.48,1.97,1.48l8.37,28.05s1.48,5.91,6.89,4.43c5.41-1.48,3.44-7.87,3.44-7.87"/><path class="cls-1" d="M176.17,453.84c-1.97-.98-4.43-.49-5.41,1.47-1.97,3.44-4.43,6.88-6.4,10.32-.98,.98-1.97,1.47-3.44,1.47h-12.79c-1.48,0-2.46-.49-3.44-1.47-1.48-1.48-6.4-10.32-6.89-10.32-.49-.98-1.97-1.97-3.44-1.47-1.97,0-3.94,1.47-3.94,3.93,0,.49,0,.98,.49,1.47l10.33,19.16c.49,.98,.49,1.47,.49,2.45v2.95c0,.98,0,1.97-.49,3.44l-4.92,19.65h5.41v14.74c0,2.95,1.97,4.91,4.92,4.91s4.92-1.97,4.92-4.91v-14.74h4.43v14.74c0,2.95,2.46,4.91,4.92,4.91,2.95,0,4.92-2.45,4.92-4.91v-14.74h5.41l-4.92-19.65c-.49-.98-.49-1.97-.49-2.46v-3.44c0-.98,.49-1.97,.49-2.46l9.84-17.68,.98-1.97c1.48-2.46,.98-4.42-.98-5.4"/><path class="cls-1" d="M155.01,460.6c5.91,0,10.33-4.43,10.33-10.33s-4.43-10.33-10.33-10.33-10.33,4.43-10.33,10.33c-.49,5.41,4.43,10.33,10.33,10.33"/><path class="cls-1" d="M306.58,437.47c6.4,0,11.81-5.41,11.81-11.81s-5.41-11.81-11.81-11.81-11.81,5.41-11.81,11.81,4.92,11.81,11.81,11.81"/><path class="cls-1" d="M356.28,510.8l-4.92-9.84-11.81-23.62c-.98-1.97-3.44-3.44-5.91-2.95h-17.22l-.49-21.16c0-6.4-1.48-10.33-6.4-11.32-2.46-.49-4.92-.49-7.38,0h-.49l-20.18,6.4h-.98c-.98,.49-1.97,1.48-1.97,2.46l-5.91,16.24c-.98,2.46,.49,5.41,2.95,6.4,2.46,.98,5.41-.49,6.4-2.95l4.92-13.78,7.38-2.46h.49v22.64c0,4.92,1.48,10.33,6.89,11.32l1.48,.49h27.56l6.4,12.79v.49l2.46,4.43,2.46,4.43v.49l2.46,4.92c1.48,2.95,4.92,4.43,8.37,3.44,3.44-1.97,4.92-5.41,3.44-8.86v0Z"/><path class="cls-1" d="M319.86,496.53v.98c0,13.29-10.83,24.11-24.11,24.6-13.29,0-24.11-10.83-24.6-24.11,0-5.41,1.97-10.83,5.41-15.25l-5.91-4.92c-10.83,13.78-8.37,33.95,5.41,44.78,13.78,10.83,33.95,8.37,44.78-5.41,4.43-5.41,6.89-12.3,6.89-19.68v-.98h-7.87Z"/><path class="cls-1" d="M386.79,399.58c6.89,0,12.79-5.91,12.79-12.79s-5.91-12.79-12.79-12.79-12.79,5.91-12.79,12.79,5.41,12.79,12.79,12.79"/><path class="cls-1" d="M401.55,404.5h-30.02c-8.86,.98-15.75,8.37-15.75,17.22v35.43c0,2.95,1.97,4.92,4.92,4.92s4.92-1.97,4.92-4.92v-30.51c0-.98,.49-2.95,2.46-2.95s1.48,1.48,1.97,2.46v92.02c0,3.94,3.44,7.38,7.38,7.38s7.38-3.44,7.38-7.38v-52.65c0-.98,.49-1.97,1.48-1.97h.49c.98,0,1.97,.98,1.97,1.97v53.64c0,3.94,3.44,7.38,7.38,7.38s7.38-3.44,7.38-7.38v-92.51c0-.98,.49-2.46,1.97-2.46s2.46,1.48,2.46,2.95v30.51c0,2.95,1.97,4.92,4.92,4.92s4.92-1.97,4.92-4.92v-35.92c-.49-8.86-7.38-16.24-16.24-17.22"/><path class="cls-1" d="M132.37,327.24c-2.46,1.48-5.41,2.95-8.37,3.94-8.37,2.46-17.22,3.44-26.57,3.44-4.43,0-8.86-.49-13.29-.98-2.46-.49-5.41-.98-7.87-1.48-1.48-.49-2.46-.49-3.94-.98-3.44-.98-7.38-2.46-10.33-4.92-.98-.98-1.97-1.97-2.95-2.95v8.37c0,2.46,1.48,4.43,2.95,5.41,5.91,4.43,13.29,6.89,20.67,7.38,4.92,.98,9.84,.98,14.76,.98,7.38,0,14.76-.98,21.65-2.46,3.94-.98,7.87-1.97,11.81-3.94,3.44-1.97,5.91-4.92,5.91-7.38,0,0,.49-7.87,0-8.37-.98,1.48-2.46,2.95-4.43,3.94"/><path class="cls-1" d="M59.54,278.03c.49-1.97,1.48-3.44,2.95-4.43,.98,.98,2.46,1.97,3.94,2.95,9.84,4.43,21.16,6.89,31.99,6.4,9.35,0,18.7-1.48,27.07-3.94,.98-.49,2.46-.98,3.44-1.48v.98c0,5.41-14.27,11.81-34.94,11.81s-34.45-6.89-34.45-12.3m39.37-30.02c20.67,0,34.94,5.91,34.94,11.81s-14.27,11.81-34.94,11.81-34.94-5.91-34.94-11.81,14.27-11.81,34.94-11.81m-4.43,53.15c21.16,0,38.88-6.4,38.88-14.27,0,0,.49-7.38,.49-8.86,0-.98-.49-1.97-.49-2.95,2.46-1.48,3.94-3.94,4.43-6.4,0,0,.49-8.37,0-9.84-.98-9.84-20.67-14.76-38.88-14.76s-38.88,5.41-38.88,15.75c0,.49,.49,8.86,.49,8.86,0,.49,0,.98,.49,1.48-2.95,1.48-4.92,4.43-4.92,7.87,0,.49,.49,8.86,.49,8.86,0,1.97,1.48,4.43,2.95,5.41,5.91,4.43,13.29,6.89,20.67,7.87,4.43,.98,9.35,.98,14.27,.98"/><path class="cls-1" d="M83.16,330.69c4.92,.98,9.84,.98,14.76,.98,7.38,0,14.76-.98,21.65-2.46,3.94-.98,7.38-2.46,10.83-4.43,.98-.49,1.48-.98,2.46-1.48,1.48-.98,2.46-2.46,2.95-3.94,.49-.49,.49-1.48,.49-1.97v-8.37c-1.48,1.48-4.43,6.4-19.68,9.84-6.4,.98-13.29,1.48-19.68,1.48-12.3,0-25.1-2.46-31-5.91-1.97-.98-3.44-1.97-4.92-3.44-.98-.98-1.48-1.97-2.46-2.95v9.35c.49,1.97,1.48,3.94,3.44,5.41,6.4,4.92,13.78,7.38,21.16,7.87"/><path class="cls-1" d="M136.31,291.81c-.98-.98-1.48-1.48-2.46-1.48-.49,.98-.98,1.48-1.97,2.46,.49,0,.98,.49,1.48,.98,.98,.49,1.97,1.48,1.97,2.95,0,.98-.49,1.97-1.48,2.46-.49,.49-.98,.98-1.48,.98l-2.46,1.48s-2.46,.98-3.44,1.48c0,0-2.46,.98-3.44,.98s-3.44,.98-4.43,.98l-5.91,.98h-5.91c-.49,0-6.4,.49-8.86,.49-3.94,0-8.37-.49-12.3-.98-2.95-.49-5.91-.98-8.86-1.48-2.95-.49-6.4-1.48-9.35-2.95-1.97-.98-3.44-1.97-4.92-3.44-.98-.98-2.46-2.46-2.95-3.94v9.84c0,2.46,1.48,4.43,2.95,5.41,5.91,4.43,13.29,6.89,20.67,7.87,4.92,.49,9.84,.98,14.76,.98,7.38,0,14.76-.98,21.65-2.46,3.94-.98,7.87-2.46,11.32-4.43,.98-.49,1.48-.98,2.46-1.48,1.48-.98,2.46-2.46,2.95-3.94,.49-.49,.49-1.48,.49-2.46l.49-8.37c0-.49,0-1.48-.49-1.97,.49,0,0-.49-.49-.98"/><path class="cls-1" d="M148.61,249.99c0-1.48,.98-2.95,2.95-4.43,.98,.98,2.46,1.97,3.94,2.95,9.84,4.43,21.16,6.89,31.99,6.4,9.35,0,18.7-1.48,27.56-4.43,.98-.49,2.46-.98,3.44-1.48v.98c0,5.41-14.27,11.81-34.94,11.81s-34.94-5.91-34.94-11.81m38.88-30.02c20.67,0,34.94,5.91,34.94,11.81s-14.27,11.81-34.94,11.81-34.94-6.4-34.94-11.81,14.27-11.81,34.94-11.81m-3.94,53.64c21.16,0,38.38-6.4,38.38-14.27,0,0,.49-7.38,.49-8.86,0-.98-.49-1.97-.49-2.95,2.46-1.48,3.94-3.94,4.43-6.4,0,0,.49-8.37,0-9.84-.98-9.84-20.67-14.76-38.88-14.76s-38.88,5.41-38.88,15.75c0,.49,.49,8.86,.49,8.86,0,.49,0,.98,.49,1.48-2.95,1.48-4.92,4.43-4.92,7.87,0,.49,.49,8.86,.49,8.86,0,1.97,1.48,4.43,2.95,5.41,5.91,4.43,13.29,6.89,20.67,7.38,4.43,.98,9.84,1.48,14.76,1.48"/><path class="cls-1" d="M226.36,265.73c0-.49-.49-.98-.98-1.48l-.98-.98c-.49-.49-.98-.49-1.48-.98-.49,.98-.98,1.48-1.48,2.46,.49,0,.98,.49,1.48,.98,.98,.49,1.97,1.48,1.97,2.95,0,.98-.49,1.97-1.48,2.46-.49,.49-.98,.98-1.48,.98,0,0-1.48,.98-2.46,.98s-2.46,.98-3.44,1.48l-3.44,.98c-.49,0-3.44,.98-4.43,.98,0,0-3.94,.98-5.91,.98-.49,0-4.43,.49-5.91,.49-.49,0-6.4,.49-8.86,.49-3.94,0-8.37-.49-12.3-.98-2.95-.49-5.91-.98-8.86-1.48-2.95-.49-6.4-1.48-9.35-2.95-1.97-.98-3.44-1.97-4.92-3.44-.98-.98-2.46-2.46-2.95-3.94v9.84c0,1.97,1.48,4.43,2.95,5.41,6.4,4.43,13.29,6.89,20.67,7.38,4.92,.98,9.84,.98,15.25,.98,7.38,0,14.76-.98,21.65-2.46,3.94-.98,7.38-2.46,10.83-4.43,.98-.49,1.48-.98,2.46-1.48,1.48-.98,2.46-2.46,2.95-3.94,.49-.49,.49-1.48,.49-1.97l.49-8.37c-.49,0-.49-.49-.49-.98"/><path class="cls-1" d="M221.44,299.69c-2.46,1.48-5.41,2.95-8.37,3.94-8.37,2.46-17.22,3.44-26.57,3.44-4.43,0-8.86-.49-13.29-.98-2.95-.49-4.92-.98-7.87-1.48l-3.94-.98c-3.44-.98-7.38-2.95-10.33-4.92-.98-.98-1.97-1.97-2.95-2.95v7.87c0,1.97,1.48,4.43,2.95,5.41,5.91,4.43,13.29,6.89,20.67,7.87,4.92,.98,9.84,.98,14.76,.98,7.38,0,14.76-.98,21.65-2.46,3.94-.98,7.38-2.46,10.83-4.43,3.44-1.97,5.91-4.92,5.91-7.38,0,0,.49-7.87,0-8.37-.49,1.48-1.97,2.95-3.44,4.43"/><path class="cls-1" d="M151.57,295.26c5.91,4.43,13.29,6.89,20.67,7.87,4.92,.98,9.84,.98,14.76,.98,7.38,0,14.76-.98,21.65-2.46,3.94-.98,7.87-2.46,11.32-4.43,.98-.49,1.48-.98,2.46-1.48,1.48-.98,2.46-2.46,2.95-3.94,.49-.49,.49-1.48,.49-1.97v-8.37c-1.48,1.48-4.43,6.89-19.68,9.84-6.4,.98-13.29,1.48-19.68,1.48-12.3,0-25.1-2.46-31-5.91-1.97-.98-3.44-1.97-4.92-3.44-.98-.98-1.48-1.97-2.46-2.95v9.35c.49,2.46,1.48,4.43,3.44,5.41"/><path class="cls-1" d="M226.36,322.82c-1.48,1.97-2.95,3.44-4.92,4.43-2.46,1.48-5.41,2.95-8.37,3.94-8.37,2.46-17.22,3.44-26.57,3.44-4.43,0-8.37-.49-12.79-.98-2.46-.49-5.41-.98-7.87-1.48-1.48-.49-2.46-.49-3.94-.98-3.44-.98-7.38-2.46-10.33-4.92-.98-.98-1.97-1.97-2.95-2.95v8.37c0,2.46,1.48,4.43,2.95,5.41,5.91,4.43,13.29,6.89,20.67,7.87,4.92,.98,9.84,.98,14.76,.98,7.38,0,14.76-.98,21.65-2.46,3.94-.98,7.38-2.46,10.83-4.43,3.44-1.97,5.91-4.92,5.91-7.38,.98-.49,1.48-8.37,.98-8.86"/><path class="cls-1" d="M172.23,330.69c4.92,.49,9.84,.98,15.25,.98,7.38,0,14.76-.98,21.65-2.46,3.94-.98,7.38-2.46,10.83-4.43,.98-.49,1.48-.98,2.46-1.48,1.48-.98,2.46-2.46,2.95-3.94,.49-.49,.49-1.48,.49-1.97v-8.37c-1.48,1.48-4.43,6.89-19.68,9.84-6.4,.98-13.29,1.48-19.68,1.48-12.3,0-25.1-2.46-31-5.91-1.97-.98-3.44-1.97-4.92-3.44-.98-.98-1.48-1.97-2.46-2.95v9.35c0,2.46,1.48,4.43,3.44,5.41,6.4,4.43,13.29,7.38,20.67,7.87"/></g></svg>