<?xml version="1.0" encoding="UTF-8"?><svg id="Capa_1" xmlns="http://www.w3.org/2000/svg" viewBox="0 0 467 568.37"><defs><style>.cls-1{fill:#fff;}.cls-2{fill:#e5006a;}</style></defs><path class="cls-2" d="M4.92,80.7H461.59V4.92H4.92V80.7Zm462.08,4.92H0V0H466.51l.49,85.62Z"/><polygon class="cls-2" points="16.73 17.72 38.88 17.72 38.88 24.6 32.48 24.6 32.48 67.91 23.62 67.91 23.62 24.6 16.73 24.6 16.73 17.72"/><path class="cls-2" d="M49.21,52.16h6.89l-3.44-20.18-3.44,20.18Zm-10.33,15.75l9.35-50.19h9.35l9.84,50.19h-8.86l-1.48-9.35h-8.86l-1.48,9.35h-7.87Z"/><path class="cls-2" d="M80.21,24.61v15.75h2.95c2.95,0,3.94-1.48,3.94-3.94v-7.38c0-2.95-1.48-3.94-3.94-3.94l-2.95-.49Zm0,20.18v23.13h-8.37V17.72h12.3c8.37,0,11.81,4.43,11.81,11.32v6.4c0,5.41-1.97,8.37-6.89,9.84l7.87,22.64h-8.86l-7.87-23.13Z"/><path class="cls-2" d="M113.67,41.34h11.81v26.57h-5.91v-5.41c-.98,3.94-3.44,5.91-7.87,5.91-7.38,0-10.33-5.91-10.33-13.29V31c0-7.87,3.94-13.29,12.79-13.29,9.35,0,11.81,5.41,11.81,12.79v4.43h-7.87v-4.92c0-2.95-.98-4.92-4.43-4.92-2.95,0-4.43,1.97-4.43,4.92v27.07c0,2.95,1.48,4.92,3.94,4.92,2.95,0,3.94-1.48,3.94-4.92v-9.35h-3.94v-6.4h.49Z"/><polygon class="cls-2" points="132.37 17.72 152.55 17.72 152.55 24.6 140.74 24.6 140.74 38.88 149.11 38.88 149.11 45.77 140.74 45.77 140.74 61.02 152.55 61.02 152.55 67.91 132.37 67.91 132.37 17.72"/><polygon class="cls-2" points="156.49 17.72 178.63 17.72 178.63 24.6 171.74 24.6 171.74 67.91 163.38 67.91 163.38 24.6 156.49 24.6 156.49 17.72"/><path class="cls-2" d="M432.06,45.27v15.75h3.94c2.95,0,3.94-1.48,3.94-3.94v-7.38c0-2.46-1.48-3.94-4.43-3.94l-3.44-.49Zm0-6.4h2.95c2.95,0,3.94-1.48,3.94-3.94v-5.91c0-2.95-1.48-3.94-3.94-3.94h-2.95v13.78Zm-8.37-21.16h12.3c8.37,0,11.32,3.94,11.32,10.83v4.92c0,4.43-1.48,6.89-4.92,7.87,4.43,.98,6.4,3.94,6.4,8.37v6.4c0,6.89-2.95,10.83-11.81,10.83h-13.29V17.72Z"/><polygon class="cls-2" points="361.69 17.72 361.69 67.91 352.83 67.91 352.83 29.53 346.93 35.43 346.93 27.07 354.8 18.21 361.69 17.72"/><path class="cls-2" d="M384.82,56.1V29.53c0-2.95-.98-4.92-3.94-4.92s-3.94,1.97-3.94,4.92v27.07c0,2.95,.98,4.92,3.94,4.92s3.94-2.46,3.94-5.41m-16.24-.98V30.51c0-7.87,3.94-13.29,12.3-13.29s12.3,5.91,12.3,13.29v24.11c0,7.87-3.94,13.29-12.3,13.29-8.37,.49-12.3-5.41-12.3-12.79"/><polygon class="cls-2" points="404.01 32.48 404.01 53.15 414.84 42.81 404.01 32.48"/><g><rect class="cls-2" y="101.86" width="466.51" height="466.51"/><path class="cls-1" d="M346.93,380.88c-24.6,0-44.78-20.18-44.78-44.78s20.18-44.78,44.78-44.78,44.78,20.18,44.78,44.78-20.18,44.78-44.78,44.78m71.85-53.15c0-1.97-1.97-3.44-3.44-3.44h-5.41c-1.97,0-3.94-.49-4.43-2.46-.98-3.44-1.97-6.89-3.44-10.33-.49-1.97,0-3.94,1.48-4.92l4.43-3.94c1.48-.98,1.97-2.95,.98-4.43-2.46-3.94-4.92-7.87-8.37-10.83-.98-1.48-3.44-1.48-4.92-.49l-4.43,2.95c-1.48,1.48-3.44,1.48-4.92,.49-2.95-2.46-6.4-4.92-8.86-6.4-1.48-.98-2.46-2.95-1.97-4.92,.49-1.97,.98-3.94,1.48-5.91,.49-1.48-.49-3.44-1.97-4.43-3.94-1.97-8.37-3.44-13.29-3.94-1.97-.49-3.94,.49-4.43,2.46-.49,1.97-.98,3.44-1.97,4.92-.98,1.48-1.48,3.44-3.94,3.44h-10.83c-1.97,0-3.94-.98-4.43-2.95-.98-1.97-1.48-3.44-1.97-5.41-.49-1.48-2.46-2.46-3.94-2.46-4.43,.98-8.86,2.46-12.79,4.43-1.97,.49-2.46,2.95-1.97,4.43,.49,1.97,.98,3.44,1.48,4.92,.49,1.48,.49,3.94-.98,4.92-1.48,.98-6.4,4.43-8.86,6.4-1.48,1.48-3.44,1.48-5.41,.49-1.97-.98-3.44-1.97-4.92-2.95-1.48-.98-3.94-.98-4.92,.49-2.95,3.44-5.91,7.38-7.87,11.32-.98,1.48-.49,3.94,.98,4.92l3.94,3.44c1.48,.98,2.95,2.46,1.97,4.92-.98,2.46-2.46,8.37-3.44,10.33-.49,1.97-1.97,3.44-3.94,3.44l-5.91,.49c-1.97,0-3.44,1.48-3.44,3.44-.49,4.43-.49,9.35,0,13.78,0,1.97,1.97,3.44,3.44,3.44h5.41c1.97,0,3.94,.49,4.43,2.46,.98,3.44,1.97,6.89,3.44,10.33,.49,1.97,0,3.94-1.48,4.92-1.48,1.48-2.95,2.46-4.43,3.94-1.48,.98-1.97,2.95-.98,4.43,2.46,3.94,4.92,7.87,8.37,10.83,.98,1.48,3.44,1.48,4.92,.49,1.48-.98,2.95-1.97,4.43-2.95,1.48-.98,3.44-1.97,4.92-.49,1.48,1.48,6.89,4.92,8.86,6.4,1.48,.98,2.46,2.95,1.97,4.92-.49,1.97-.98,3.94-1.48,5.91-.49,1.97,.49,3.44,1.97,4.43,3.94,1.97,8.37,3.44,13.29,3.94,1.97,.49,3.94-.49,4.43-2.46,.49-1.97,.98-3.44,1.97-4.92,.98-1.48,1.48-3.44,3.94-3.44h10.83c1.97,0,3.94,.98,4.43,2.95,.98,1.97,1.48,3.44,1.97,5.41,.49,1.48,2.46,2.46,3.94,2.46,4.43-.98,8.86-2.46,12.79-4.43,1.97-.49,2.46-2.95,1.97-4.43-.49-1.97-.98-3.44-1.48-4.92-.49-1.48-.49-3.94,.98-4.92,1.48-.98,6.89-4.92,8.86-6.4,1.48-1.48,3.94-1.97,5.91-.49,1.97,.98,3.44,1.97,4.92,2.95,1.48,.98,3.44,.49,4.43-.49,2.95-3.44,5.91-7.38,7.87-11.32,.98-1.48,.49-3.94-.98-4.92-1.48-.98-2.46-1.97-3.94-3.44-1.48-1.48-2.95-2.95-1.97-4.92,.98-1.97,2.46-7.87,3.44-10.33,.49-1.97,1.97-3.44,3.94-3.44s3.94-.49,5.91-.49,3.44-1.48,3.44-3.44c.49-4.92,.49-9.35,0-13.78"/><path class="cls-1" d="M313.96,323.31c.98,.49,1.97,0,1.97-.49v-1.48c0-.49,.49-.98,.98-.98,.98-.49,1.97-.98,2.95-1.97,1.97-.49,3.94-.49,5.91,0,1.48,.49,2.95,.49,3.94-.98,.98-.98,1.97-1.97,2.95-2.46,.49-.49-1.48-1.97-2.95,0-1.48,1.97-2.46,1.97-3.44,1.97s-5.41-.98-5.91-2.46c-.49-1.48,1.48-2.46,2.95-3.44,2.46-.49,4.92-.98,7.38-.98,2.46-.49,5.41-1.48,6.89-.49s-6.4,2.95-3.94,4.43c.98,.49,4.92-2.46,6.4-2.95,3.44-1.97-3.44-2.46-2.46-5.91s-7.87-2.46-12.3-1.97c-1.97,1.48-4.43,2.95-5.91,4.92,.49,0,.98,.49,.98,.49,0,.98,0,1.97-.49,2.46-.98,.98-2.46,1.97-3.94,1.97q-.49,0-.98-.49c-.49,.98-1.48,1.97-1.97,2.95,.98-.49,1.97-.98,2.95-.98s2.46,.49,2.46,.98-2.46,1.97-2.95,2.46c-1.48,1.48-3.44,3.94-4.92,3.94h-.98c-.49,.98-.49,1.48-.98,2.46,2.46-.98,3.94-1.48,5.41-.98"/><path class="cls-1" d="M379.41,345.45c-.98,.49-2.46,.49-3.94-.49-.98-.98,.49-1.97,.98-1.97,1.97,0,3.94,1.97,2.95,2.46m-5.41-4.92c-.49-.98,.49-1.48,1.48-.98,.98,.49,1.48,1.48,1.97,2.46,0,.49-1.48,.49-1.97,.49s-.98-.98-1.48-1.97m-16.24,1.48c-.98,.49-2.46,.49-3.94-.49-.98-.98,.49-1.97,.98-1.97,1.97,0,3.94,1.48,2.95,2.46m-15.75,7.87c-.49,.98-1.97,7.38-2.95,6.89-.98-.49,.49-7.87,.98-8.37,.98-2.95,4.43-2.95,1.97,1.48m36.91-15.75c-.98,.98-2.46,1.48-3.94,1.48-.98,.49-2.46,3.44-1.97,4.92,.49,1.48,3.94,5.41,.98,5.41-2.46-1.48-4.92-2.95-6.4-5.41-.98-1.97-1.48-4.43-2.46-5.91-.49-.98-1.48-1.97-2.95-1.48q-.49,0-.98,.49c-1.48,.98,.49,1.97-.49,3.94s-1.48,3.94-3.44,1.97c-3.94-4.43-9.35-2.46-10.33-7.38-.49-2.46-2.95-2.46-4.92-3.94-1.97-1.48-2.95-2.46-3.44-.98-.49,1.48,5.91,5.91,6.4,7.38,.49,1.48-1.97,3.44-3.94,3.94-1.97,.49-2.46-.98-4.43-2.95-1.97-1.97-2.46-3.44-2.95-1.97,0,2.46,1.48,4.92,3.44,6.4,1.48,.98,3.44,1.48,2.95,2.95-.49,1.48,0,.98-1.97,2.46-1.48,.98-2.46,2.95-1.97,4.92,0,2.46-.49,2.46-.98,4.43-.49,1.97-1.48,.49-1.97,3.44-.49,1.97-1.48,3.44-2.46,4.92-1.48,1.48-3.44,1.97-5.41,1.97s-1.97-4.92-1.97-7.38c0-.98-.98,1.48-1.97-3.44-.49-3.44-2.46,.49-2.46-1.97s-.98-1.97-2.46-2.95-2.46,0-3.94,.98c-1.48,.98-.98,.98-2.95,.49,4.43,10.83,13.78,19.19,25.1,22.64-.49-.49-.98-1.48-.49-1.97,1.48-2.95,4.43-4.92,7.87-4.92,6.4-.49,14.76,3.94,16.24,3.44,1.48-.49,3.94-4.43,7.87-3.94,1.48,0,2.46,0,3.44,.98,1.48-.98,2.95-1.97,3.94-3.44-.49,0-.98,0-1.48-.49-1.97-.98-1.97,.49-2.95,0-.98-.49,.98-2.95-1.97-.98-2.95,1.97-2.46-.49-3.94-3.94-.98-3.44,.98-6.89,3.94-8.37,2.46-.98,4.92-1.48,6.89-1.97,4.92-.98,5.91-3.94,6.4-2.46l.49,.98c.49,.98,.49,1.48,.49,2.46,.49-1.97,1.48-3.94,1.48-5.91-.98-.49-5.41-6.4-1.97-10.33,.49-.49-.98-2.46-.49-2.46,1.48,0,2.95,.98,3.44,2.46,0-1.97-.49-3.94-.98-5.91v1.48c-.49,1.48-1.97,1.97-3.44,1.48-.49,0-.98-.49-1.48-.98s-1.97-1.97-1.97,.49,5.41,3.44,2.95,4.92"/><path class="cls-1" d="M312.48,327.74c1.97,.49,4.43,.98,6.4,1.48,2.46,.98,5.91,2.95,7.87,1.97,1.97-.98,2.95-1.48,2.46-2.95-.49-1.48-1.48-1.97-2.95-.98-.49,.49-1.48-2.46-2.46-1.97s.98,3.44,.49,3.44-2.46-3.44-2.46-3.94-1.48-1.97-2.46-.98c-2.46,1.97-5.91,1.97-6.89,2.46,0,0-.49,.49-.98,.49-1.48,.49-1.97-.98-1.97-1.97-.49,1.97-.98,4.43-1.48,6.89v-.49q1.48-2.46,1.97-2.95c.49,0,.98-.49,1.48-.49h.98Z"/><path class="cls-1" d="M347.91,463.06l-13.78-10.83c-.98-.98-2.95-1.48-3.94,0-43.3,51.67-118.1,57.08-171.25,14.76-1.48-1.48-2.95-2.46-4.43-3.94l15.75-9.84c1.48-.98-.49-2.46-.49-2.46l-53.15-26.57c-1.48-.98-1.97,0-1.97,.98v.49l-.98,60.04c0,.49,.49,1.97,1.97,.98l17.22-10.83c3.44,3.44,6.89,6.4,10.83,9.35,62.99,50.69,152.06,43.8,204.22-17.22l.49-.49c.98-.98,.98-2.95-.49-4.43"/><path class="cls-1" d="M114.66,214.06l14.27,10.33c.98,.98,2.95,.98,3.94,0v-.49c40.35-54.13,114.66-63.97,169.77-24.6,1.48,.98,3.44,2.46,4.92,3.94l-14.76,10.83c-1.48,.98,.98,2.46,.98,2.46l54.62,23.13c1.48,.98,1.97-.49,1.97-.98v-.49l-3.44-60.53c0-.49-.49-1.97-1.97-.98l-16.73,11.81c-3.44-2.95-7.38-5.91-11.32-8.86-65.94-46.75-154.52-34.94-202.74,29.03l-.49,.49c-.98,1.97-.98,3.94,.98,4.92q-.49,0,0,0"/><path class="cls-1" d="M110.72,381.38c-2.46,1.48-4.92,2.95-7.87,3.44-7.87,2.46-16.73,3.44-25.1,2.95-3.94,0-8.37-.49-12.3-.98-2.46-.49-4.92-.98-7.38-1.48l-3.94-.98c-3.44-.98-6.89-2.46-9.84-4.92-.98-.98-1.97-1.97-2.95-2.95v8.37c0,1.97,.98,3.94,2.95,5.41,5.91,3.94,12.3,6.4,19.19,7.38,4.92,.49,9.35,.98,14.27,.98,6.89,0,13.78-.49,20.18-2.46,3.94-.98,7.38-1.97,10.83-3.94,3.44-1.97,5.41-4.43,5.41-6.89v-7.87c-.49,1.48-1.97,2.46-3.44,3.94"/><path class="cls-1" d="M41.83,334.63c.49-1.97,1.48-3.44,2.95-3.94,.98,.98,2.46,1.97,3.94,2.46,9.35,4.43,19.68,6.4,30.02,5.91,8.86,0,17.22-.98,25.59-3.94l2.95-1.48v.98c0,5.41-13.78,10.83-32.97,10.83s-32.48-5.91-32.48-10.83m36.91-28.54c19.68,0,32.97,5.91,32.97,10.83s-13.78,11.32-32.97,11.32-32.97-5.91-32.97-10.83,13.29-11.32,32.97-11.32m-3.94,50.19c20.18,0,36.42-5.91,36.42-13.78,0,0,.49-6.89,.49-8.37,0-.98,0-1.97-.49-2.95,2.46-1.48,3.94-3.44,3.94-5.91,0,0,.49-7.87,0-9.35-.98-8.86-19.19-13.78-36.42-13.78s-36.91,5.41-36.91,14.76c0,.49,.49,8.37,.49,8.37,0,.49,0,.98,.49,1.48-2.46,1.48-4.43,4.43-4.43,7.38,0,.49,.49,8.37,.49,8.37,0,1.97,.98,3.94,2.95,5.41,5.91,3.94,12.3,6.4,19.19,7.38,4.43,.98,8.86,.98,13.78,.98"/><path class="cls-1" d="M63.97,384.33c4.92,.49,9.35,.98,14.27,.98,6.89,0,13.78-.49,20.18-2.46,3.44-.98,6.89-2.46,10.33-3.94l2.95-1.48c.98-.98,1.97-1.97,2.95-3.44,0-.49,.49-.98,.49-1.97v-7.87c-.98,1.48-4.43,6.4-18.7,9.35-5.91,.98-12.3,1.48-18.7,1.48-11.81,0-23.62-2.46-29.03-5.91-1.48-.98-2.95-1.97-4.43-2.95-.98-.98-1.48-1.97-1.97-2.95v8.86c0,1.97,1.48,3.94,2.95,4.92,4.92,4.43,11.81,6.89,18.7,7.38"/><path class="cls-1" d="M114.17,347.91l-.98-.98c-.49-.49-.98-.49-1.48-.98-.49,.98-.98,1.48-1.48,1.97,.49,0,.98,.49,1.48,.98,.98,.49,1.48,1.48,1.97,2.95,0,.98-.49,1.97-1.48,2.46l-1.48,.98-1.97,.98s-2.46,.98-2.95,1.48l-3.94,1.48-4.43,.98-5.41,.49c-.49,0-4.43,.49-5.91,.49-.49,0-5.91,.49-8.37,.49-3.94,0-7.87-.49-11.81-.98-2.95-.49-5.41-.98-8.37-1.48-2.95-.49-5.91-1.48-8.86-2.95-1.48-.98-3.44-1.97-4.43-2.95-.98-.98-1.97-2.46-2.95-3.94v9.35c0,1.97,.98,3.94,2.95,5.41,5.91,3.94,12.3,6.4,19.19,7.38,4.92,.49,9.35,.98,14.27,.98,6.89,0,13.78-.49,20.18-2.46,3.44-.98,6.89-2.46,10.33-3.94,.98-.49,1.48-.98,2.46-1.48,.98-.98,1.97-1.97,2.95-3.44,.49-.49,.49-.98,.49-1.97l.49-7.87c0-.49,0-1.48-.49-1.97,.49-.49,.49-.98,0-1.48"/><path class="cls-1" d="M125.98,308.05c.49-1.97,1.48-3.44,2.95-3.94,.98,.98,2.46,1.97,3.94,2.95,9.35,4.43,19.68,6.4,30.02,5.91,8.86,0,17.22-.98,25.59-3.94l2.95-1.48v.98c0,5.41-13.29,10.83-32.97,10.83s-32.48-5.91-32.48-11.32m36.42-28.05c19.68,0,32.97,5.91,32.97,10.83s-13.29,10.83-32.97,10.83-32.97-5.91-32.97-10.83,13.78-10.83,32.97-10.83m-3.44,50.19c20.18,0,36.42-5.91,36.42-13.78,0,0,.49-6.89,.49-8.37,0-.98-.49-1.97-.49-2.95,2.46-1.48,3.94-3.44,3.94-5.91,0,0,.49-7.87,0-9.35-.98-8.86-19.19-13.78-36.42-13.78s-36.91,5.41-36.91,14.76c0,.49,.49,8.37,.49,8.37,0,.49,0,.98,.49,1.48-2.46,1.48-4.43,4.43-4.43,7.38,0,.49,.49,8.37,.49,8.37,0,1.97,.98,3.94,2.95,5.41,5.91,3.94,12.3,6.4,19.19,7.38,3.94,.49,8.86,.98,13.78,.98"/><path class="cls-1" d="M198.81,322.82c0-.49-.49-.98-.98-1.48q-.49-.49-.98-.98c-.49-.49-.98-.49-1.48-.98-.49,.98-.98,1.48-1.48,1.97,.49,0,.98,.49,1.48,.98,.98,.49,1.48,1.48,1.48,2.95,0,.98-.49,1.97-1.48,2.46-.49,.49-.98,.49-1.48,.98l-1.97,.98s-2.46,.98-3.44,1.48l-3.44,.98-4.43,.98s-3.94,.49-5.41,.98l-5.91,.49c-.49,0-5.91,.49-8.37,.49-3.94,0-7.87-.49-11.81-.98-2.95-.49-5.41-.98-8.37-1.48s-5.91-1.48-8.86-2.95c-1.48-.98-2.95-1.97-4.43-2.95-.98-.98-1.97-2.46-2.95-3.94v9.35c0,1.97,.98,3.94,2.95,5.41,5.91,3.94,12.3,6.4,19.19,7.38,4.92,.49,9.35,.98,14.27,.98,6.89,0,13.78-.98,20.67-2.46,3.44-.98,6.89-1.97,10.33-3.94,.98-.49,1.48-.98,2.46-1.48,.98-.98,1.97-1.97,2.95-3.44,0-.49,.49-1.48,.49-1.97l.49-7.87c.49-.49,.49-1.48,.49-1.97"/><path class="cls-1" d="M194.87,354.8c-2.46,1.48-4.92,2.95-7.87,3.44-7.87,2.46-16.24,3.44-24.6,2.95-3.94,0-8.37-.49-12.3-.98-2.95-.49-4.92-.98-7.38-1.48l-3.94-.98c-3.44-.98-6.89-2.95-9.84-4.92-.98-.98-1.97-1.97-2.46-2.95v8.37c0,1.97,.98,3.94,2.95,5.41,5.91,3.94,12.3,6.4,19.19,7.38,4.92,.49,9.35,.98,14.27,.98,6.89,0,13.78-.98,20.67-2.46,3.44-.98,6.89-1.97,10.33-3.94,3.44-1.97,5.41-4.43,5.41-6.89,0,0,.49-7.38,0-7.87-1.97,1.48-2.95,2.95-4.43,3.94"/><path class="cls-1" d="M128.93,350.87c5.91,3.94,12.3,6.4,19.19,7.38,4.92,.49,9.35,.98,14.27,.98,6.89,0,13.78-.98,20.18-2.46,3.44-.98,6.89-1.97,10.33-3.94,.98-.49,1.48-.98,2.46-1.48,.98-.98,1.97-1.97,2.95-3.44,0-.49,.49-1.48,.49-1.97v-7.87c-.98,1.48-4.43,6.4-18.7,9.35-5.91,.98-12.3,1.48-18.7,1.48-11.81,0-23.62-2.46-29.03-5.91-1.48-.98-3.44-1.97-4.43-2.95-.98-.98-1.48-1.97-2.46-2.95v8.86c0,1.97,1.48,3.94,3.44,4.92"/><path class="cls-1" d="M199.3,376.95c-.98,1.48-2.95,2.95-4.43,3.94-2.46,1.48-4.92,2.95-7.87,3.44-7.87,2.46-16.73,3.44-25.1,2.95-3.94,0-8.37-.49-12.3-.98-2.95-.49-4.92-.98-7.38-1.48-1.48-.49-2.46-.49-3.94-.98-3.44-.98-6.89-2.46-9.84-4.43-.98-.98-1.97-1.97-2.46-2.95v8.37c0,1.97,.98,3.94,2.95,5.41,5.91,3.94,12.79,6.4,19.68,6.89,4.92,.49,9.35,.98,14.27,.98,6.89,0,13.78-.49,20.18-2.46,3.44-.98,6.89-1.97,10.33-3.94,3.44-1.97,5.41-4.43,5.41-6.89,.49,0,.49-7.38,.49-7.87"/><path class="cls-1" d="M148.12,384.33c4.92,.49,9.35,.98,14.27,.98,6.89,0,13.78-.49,20.18-2.46,3.44-.98,6.89-1.97,10.33-3.94,.98-.49,1.48-.98,2.46-1.48,.98-.98,1.97-1.97,2.95-3.44,.49-.49,.49-.98,.49-1.97v-7.87c-.98,1.48-4.43,6.4-18.7,9.35-5.91,.98-12.3,1.48-18.7,1.48-11.81,0-23.62-2.46-29.03-5.91-1.48-.98-2.95-1.97-4.43-2.95-.98-.98-1.48-1.97-2.46-2.95v9.35c0,1.97,1.48,3.94,2.95,4.92,5.91,3.44,12.79,6.4,19.68,6.89"/></g></svg>